<?xml version="1.0" standalone="no"?>
<!DOCTYPE svg PUBLIC "-//W3C//DTD SVG 1.1//EN" "http://www.w3.org/Graphics/SVG/1.1/DTD/svg11.dtd">
<svg xmlns="http://www.w3.org/2000/svg">
<metadata>Generated by Fontastic.me</metadata>
<defs>
<font id="eh-icons" horiz-adv-x="512">
<font-face font-family="eh-icons" units-per-em="512" ascent="480" descent="-32"/>
<missing-glyph horiz-adv-x="512" />

<glyph glyph-name="eh-attachment" unicode="&#57346;" d="M413 301l-187-187-106 0 0 105 192 191 66-72-144-144-34 0 0 41 123 123-22 23-133-133 0-86 78 0 176 174-110 120-224-224 0-150 150 0 197 196z"/>
<glyph glyph-name="eh-basket" unicode="&#57347;" d="M397 168l-202 0-48 232-67 0 0 32 93 0 14-72 248 0z m-176 32l150 0 26 128-203 0z m179-88c0-18-14-32-32-32-18 0-32 14-32 32 0 18 14 32 32 32 18 0 32-14 32-32m-144 0c0-18-14-32-32-32-18 0-32 14-32 32 0 18 14 32 32 32 18 0 32-14 32-32"/>
<glyph glyph-name="eh-bluetooth" unicode="&#57348;" d="M240 46l0 172-69-69-22 22 85 85-85 85 22 22 69-69 0 172 136-114-98-96 98-98z m32 172l0-104 56 46z m0 180l0-104 56 56z"/>
<glyph glyph-name="eh-bookmark" unicode="&#57349;" d="M160 448l0-384 96 81 96-81 0 384z m160-320l-64 56-64-56 0 288 128 0z"/>
<glyph glyph-name="eh-calendar" unicode="&#57350;" d="M198 226l0 16c4 0 7 0 10 0 14 0 21 6 21 16 0 4-2 8-3 11-4 3-8 3-13 3-7 0-15-2-24-6l-5 16c10 3 21 4 30 4 13 0 23-3 28-8 4-4 8-11 8-19 0-8-4-13-8-17-2-2-5-5-10-7 6-1 11-5 13-6 6-5 9-11 9-19 0-15-8-26-25-31-8-3-24-5-45-6l-2 16c13 0 23 1 29 3 7 2 10 3 13 6 3 4 5 8 5 12 0 3-2 6-3 9-4 5-10 7-20 7 0 1-3 1-8 0z m100-34l0 77-21-3 0 16 27 6 16 0 0-96 19 0 0-16-64 0 0 16z m-218 240l0-352 352 0 0 352z m320-320l-288 0 0 240 288 0z m0 256l-288 0 0 16 288 0z"/>
<glyph glyph-name="eh-check2" unicode="&#57351;" d="M256 472c-119 0-216-97-216-216 0-119 97-216 216-216 119 0 216 97 216 216 0 119-97 216-216 216z m-17-300l-14-14-13 15-75 87 24 27 61-45 133 109 25-26z"/>
<glyph glyph-name="eh-check" unicode="&#57352;" d="M171 161l-71 70 25 26 71-71 191 191 25-26-191-190-25-26z"/>
<glyph glyph-name="eh-compare" unicode="&#57354;" d="M48 240l0-192 192 0 0 192z m86-139l-8-8-6 8-40 46 13 13 32-24 70 58 13-15z m138 139l0-192 192 0 0 192z m86-139l-6-8-6 8-40 46 12 15 32-24 71 57 13-14z m24 219c0 70-56 126-126 126-70 0-126-56-126-126 0 0 0 0 0-2l-34 0 48-48 48 48-40 0c0 0 0 0 0 2 0 58 46 104 104 104 58 0 104-46 104-104 0 0 0 0 0-2l-40 0 48-48 48 48-34 0z"/>
<glyph glyph-name="eh-cut" unicode="&#57356;" d="M112 432l-32 0 0-288 64 0 0 32-32 0 0 224 224 0 0-32 32 0 0 64z m288-320l-16 0 0-32 48 0 0 48-32 0z m-96 0l48 0 0-32-48 0z m-80 0l48 0 0-32-48 0z m-48 16l-32 0 0-48 48 0 0 32-16 0z m48 240l48 0 0-32-48 0z m80 0l48 0 0-32-48 0z m96 0l-16 0 0-32 16 0 0-16 32 0 0 48z m0-80l32 0 0-48-32 0z m0-80l32 0 0-48-32 0z m-256 0l32 0 0-48-32 0z m0 80l32 0 0-48-32 0z m0 80l0-48 32 0 0 16 16 0 0 32z"/>
<glyph glyph-name="eh-database" unicode="&#57357;" d="M256 461c-86 0-179-26-179-83l0-244c0-57 93-83 179-83 86 0 179 26 179 83l0 244c0 57-93 83-179 83z m154-327c0-32-69-57-154-57-85 0-154 25-154 57l0 48c28-27 90-41 154-41 64 0 126 14 154 41z m0 77c0-32-69-57-154-57-85 0-154 25-154 57l0 48c28-27 90-41 154-41 64 0 126 14 154 41z m0 77c0-32-69-58-154-58-85 0-154 26-154 58l0 45c34-26 95-37 154-37 59 0 120 13 154 37z m-154 32c-85 0-154 26-154 58 0 32 69 57 154 57 85 0 154-25 154-57 0-32-69-58-154-58z m128-192c0-6-6-13-13-13-6 0-13 7-13 13 0 6 7 13 13 13 7 0 13-7 13-13z m0 77c0-7-6-13-13-13-6 0-13 6-13 13 0 6 7 13 13 13 7 0 13-7 13-13z m0 77c0-7-6-13-13-13-6 0-13 6-13 13 0 6 7 12 13 12 7 0 13-6 13-12z"/>
<glyph glyph-name="eh-debug" unicode="&#57358;" d="M448 240l0 32-67 0c-3 18-10 34-18 48l53 0 0 96-32 0 0-64-48 0c-6 5-13 10-19 14 1 7 3 12 3 18 0 35-29 64-64 64-35 0-64-29-64-64 0-6 2-11 3-18-8-4-14-9-19-14l-48 0 0 64-32 0 0-96 53 0c-8-14-15-30-18-48l-67 0 0-32 64 0c0-18 3-34 8-48l-72 0 0-128 32 0 0 96 53 0c22-38 62-64 107-64 45 0 83 26 107 64l53 0 0-96 32 0 0 128-72 0c5 14 8 30 8 48z"/>
<glyph glyph-name="eh-delete" unicode="&#57359;" d="M128 320l48-240 160 0 48 240z m208 48l0 64-160 0 0-64-80 0 0-32 320 0 0 32z m-32 0l-96 0 0 32 96 0z"/>
<glyph glyph-name="eh-device" unicode="&#57360;" d="M256 432c-98 0-176-78-176-176 0-98 78-176 176-176 98 0 176 78 176 176 0 98-78 176-176 176z m-48-272l-64 0 0 64 64 0z m80 0l-64 0 0 64 64 0z m80 0l-64 0 0 64 64 0z m0 80l-224 0 0 112 224 0z"/>
<glyph glyph-name="eh-edit" unicode="&#57361;" d="M80 144l0-64 64 0z m80-47l-65 64 272 272 64-65z"/>
<glyph glyph-name="eh-edit-table" unicode="&#57362;" d="M80 432l0-352 48 0 0 16-32 0 0 96 80 0 0 16-80 0 0 96 96 0 0-80 16 0 0 80 80 0 0 16-80 0 0 96 96 0 0-80 16 0 0 80 96 0 0-80 16 0 0 96z m112-112l-96 0 0 96 96 0z m224-112l-64 0 0-16 64 0 0-96-96 0 0 64-16 0 0-64-64 0 0-16 192 0 0 192-16 0z m-272-64l0-64 64 0z m80-48l-65 65 208 208 65-65z"/>
<glyph glyph-name="eh-filter" unicode="&#57366;" d="M432 432l-352 0 144-144 0-224 64 64 0 160z"/>
<glyph glyph-name="eh-folder" unicode="&#57367;" d="M80 368l352 0 0-272-352 0z m32 16l144 0-32 32-80 0z"/>
<glyph glyph-name="eh-grid-view" unicode="&#57369;" d="M80 432l0-352 352 0 0 352z m224-16l0-96-96 0 0 96z m0-112l0-96-96 0 0 96z m-208 112l96 0 0-96-96 0z m0-112l96 0 0-96-96 0z m0-112l96 0 0-96-96 0z m112-96l0 96 96 0 0-96z m208 0l-96 0 0 96 96 0z m0 112l-96 0 0 96 96 0z m0 112l-96 0 0 96 96 0z"/>
<glyph glyph-name="eh-hamburger" unicode="&#57371;" d="M96 383l320 0 0-32-320 0z m0-111l320 0 0-32-320 0z m0-112l320 0 0-32-320 0z"/>
<glyph glyph-name="eh-hmi-share" unicode="&#57376;" d="M352 320l0-32 64 0 0-192-320 0 0 192 64 0 0 32-96 0 0-256 384 0 0 256z m-112 67l0-227 32 0 0 227 53-53 22 23-91 91-90-91 23-23z"/>
<glyph glyph-name="eh-home" unicode="&#57379;" d="M256 448l-176-176 352 0z m-128-368l80 0 0 96 96 0 0-96 80 0 0 176-256 0z"/>
<glyph glyph-name="eh-internet-connection" unicode="&#57380;" d="M432 288l0 160-192 0 0-352 32 0 0 320 128 0 0-128-32 0 0-112 16 0 0-48 64 0 0 48 16 0 0 112z m0-138l-32 0 0 32 32 0z m-320 74l32 0 0 112-16 0 0 48-64 0 0-48-16 0 0-112 32 0 0-160 192 0 0 32-160 0z m-32 107l0 32 32 0 0-32z"/>
<glyph glyph-name="eh-link" unicode="&#57382;" d="M74 325l112 112 158-159-78-78-23 22 56 56-113 114-68-67 56-58-22-22z m361-136l-113-114-159 159 80 80 23-24-56-56 112-114 68 69-57 56 22 22z"/>
<glyph glyph-name="eh-load" unicode="&#57387;" d="M272 272l-32 0 0 96-48 0 64 64 64-64-48 0z m-192-192l352 0 0 160-32 0 0-128-288 0 0 128-32 0z m48 160l256 0 0-112-256 0z"/>
<glyph glyph-name="eh-location" unicode="&#57388;" d="M256 448c33 0 62-12 85-35 23-23 35-52 35-86 0-33-10-72-30-116-20-44-40-79-60-107l-30-40c-3 4-8 10-13 17-5 7-15 21-29 43-13 21-26 42-36 62-10 20-20 44-29 70-9 27-13 51-13 72 0 33 12 62 35 85 23 23 52 35 85 35z m0-186c18 0 33 6 46 19 13 13 19 28 19 46 0 18-6 33-19 45-13 13-28 19-46 19-18 0-33-6-46-19-12-12-18-27-18-45 0-18 6-33 18-46 13-13 28-19 46-19z"/>
<glyph glyph-name="eh-locked" unicode="&#57389;" d="M368 272l0 48c0 62-50 112-112 112-62 0-112-50-112-112l0-48-48 0 0-192 320 0 0 192z m-192 48c0 45 35 80 80 80 45 0 80-35 80-80l0-48-160 0z"/>
<glyph glyph-name="eh-manage-cleanups" unicode="&#57390;" d="M280 416c-88 0-160-72-160-160l-48 0 64-64 64 64-48 0c0 70 58 128 128 128 70 0 128-58 128-128 0-70-58-128-128-128-35 0-67 14-91 37l-23-23c29-28 69-46 114-46 88 0 160 72 160 160 0 88-72 160-160 160z m-43-80l0-29-45 0 0-14 176 0 0 14-45 0 0 29z m72-29l-59 0 0 15 59 0z m14-147l16 117-118 0 16-117z"/>
<glyph glyph-name="eh-migrate" unicode="&#57392;" d="M80 224l64 0 0-64-64 0z m64 128l64 0 0-64-64 0z m64-64l64 0 0-64-64 0z m128 64l-64 0 0-64 64 0 0-64-64 0 0-64 64 0 96 96z"/>
<glyph glyph-name="eh-no-internet-connection" unicode="&#57394;" d="M432 288l0 160-192 0 0-96 32 0 0 64 128 0 0-128-32 0 0-112 16 0 0-48 64 0 0 48 16 0 0 112z m0-138l-32 0 0 32 32 0z m-192-54l-128 0 0 128 32 0 0 112-16 0 0 48-64 0 0-48-16 0 0-112 32 0 0-160 192 0 0 96-32 0z m-160 235l0 32 32 0 0-32z m213-16l-37-37-37 37-22-22 37-37-37-37 22-22 37 37 37-37 22 22-37 37 37 37z"/>
<glyph glyph-name="eh-object" unicode="&#57396;" d="M128 80l256 0 0 240-112 0 0 112-144 0z m160 352l0-96 96 0z"/>
<glyph glyph-name="eh-refresh" unicode="&#57400;" d="M370 370l-23-23c23-22 37-54 37-91 0-70-58-128-128-128-70 0-128 58-128 128 0 70 58 128 128 128l0-48 64 64-64 64 0-48c-88 0-160-72-160-160 0-88 72-160 160-160 88 0 160 72 160 160 0 45-18 85-46 114z"/>
<glyph glyph-name="eh-resize-close" unicode="&#57401;" d="M400 320l-58 0 85 85-22 22-85-85 0 58-32 0 0-112 112 0z m0-128l0 32-112 0 0-112 32 0 0 58 85-85 22 22-85 85z m-208 150l-85 85-22-22 85-85-58 0 0-32 112 0 0 112-32 0z m-80-150l58 0-85-85 22-22 85 85 0-58 32 0 0 112-112 0z"/>
<glyph glyph-name="eh-resize-open" unicode="&#57402;" d="M432 320l0 112-112 0 0-32 58 0 27 27 22-22-27-27 0-58z m-27-235l-27 27-58 0 0-32 112 0 0 112-32 0 0-58 27-27z m-298 342l27-27 58 0 0 32-112 0 0-112 32 0 0 58-27 27z m-22-320l27 27 0 58-32 0 0-112 112 0 0 32-58 0-27-27z m49 293l-22 0 0-22 93-93 22 22z m244-288l22 0 0 22-93 93-22-22z m0 0l27-27 22 22-27 27 0-22z m-244 288l-27 27-22-22 27-27 0 22z m-22-266l0-22 22 0 93 93-22 22z m266 266l-93-93 22-22 93 93 0 22z m27 27l-27-27 22 0 0-22 27 27z m-293-293l-27-27 22-22 27 27-22 0z"/>
<glyph glyph-name="eh-restore" unicode="&#57403;" d="M142 142l23 23c22-23 54-37 91-37 70 0 128 58 128 128 0 70-58 128-128 128-70 0-128-58-128-128l48 0-64-64-64 64 48 0c0 88 72 160 160 160 88 0 160-72 160-160 0-88-72-160-160-160-45 0-85 18-114 46z m114 114l0 80-16 0 0-86 62-63 12 11z"/>
<glyph glyph-name="eh-save" unicode="&#57404;" d="M240 432l32 0 0-96 48 0-64-64-64 64 48 0z m-160-352l352 0 0 160-32 0 0-128-288 0 0 128-32 0z m48 160l256 0 0-112-256 0z"/>
<glyph glyph-name="eh-search" unicode="&#57405;" d="M443 93l-147 147c16 21 26 45 26 72 0 66-55 120-120 120-66 0-120-54-120-120 0-66 54-120 120-120 27 0 52 10 72 26l147-148z m-331 219c0 48 40 88 88 88 48 0 88-40 88-88 0-48-40-88-88-88-48 0-88 40-88 88z"/>
<glyph glyph-name="eh-setting" unicode="&#57406;" d="M110 266l-30-16c0-15 3-29 8-44l35-4c5-12 11-23 18-31l-13-33c10-12 21-21 34-29l30 19c11-5 21-10 34-13l11-33c5-2 11-2 19-2 8 0 14 0 22 2l12 33c11 3 22 7 33 13l31-19c12 8 24 17 33 29l-13 33c7 10 13 19 18 31l35 4c5 15 7 29 8 44l-30 16c0 12-3 24-7 35l24 27c-6 13-12 26-20 38l-36-8c-8 10-17 18-27 24l-3 36c-13 6-26 11-40 14l-22-29c-7 0-13 2-18 2-6 0-13 0-18-2l-22 29c-14-3-27-8-40-14l2-36c-10-6-20-14-28-24l-35 7c-8-11-16-24-21-39l24-27c-4-9-6-21-8-33m146 84c50 0 91-41 91-91 0-51-40-91-91-91-50 0-91 42-91 91 0 50 41 91 91 91"/>
<glyph glyph-name="eh-share" unicode="&#57407;" d="M352 320l0-32 64 0 0-192-320 0 0 192 64 0 0 32-96 0 0-256 384 0 0 256z m-112 66l0-226 32 0 0 227 52-52 23 23-91 90-22-23-68-67 22-23z"/>
<glyph glyph-name="eh-show-less" unicode="&#57408;" d="M144 192l32 0 80 96 80-96 32 0-112 128z"/>
<glyph glyph-name="eh-show-more" unicode="&#57409;" d="M368 320l-32 0-80-96-80 96-32 0 112-128z"/>
<glyph glyph-name="eh-showlogs" unicode="&#57410;" d="M256 304l96 0-96 96z m64 144l-176 0 0-32 16 0 0 16 160 0 0-64 64 0 0-256-16 0 0-16 32 0 0 272z m-80-48l-144 0 0-352 256 0 0 240-112 0z m-112-240l112 0 0-16-112 0z m160-64l-160 0 0 16 160 0z m32 96l-192 0 0 16 192 0z m-64 64l0-16-128 0 0 16z"/>
<glyph glyph-name="eh-skip" unicode="&#57411;" d="M288 304l-48 0 0-32-32 0 0-32-32 0 0-32 112 0 0-64 112 112-112 112z m-208-64l32 0 0-32-32 0z m64 32l32 0 0-32-32 0z m32 32l32 0 0-32-32 0z m-64 0l32 0 0-32-32 0z m288 128l32 0 0-352-32 0z"/>
<glyph glyph-name="eh-sound" unicode="&#57412;" d="M352 416l0-235c0-19-14-39-38-47-29-11-50-1-58 20-8 20 3 46 30 56 13 4 24 4 36 3l0 126-119-27c0-59 0-163 0-163 0-19-16-39-40-47-29-11-49-1-57 20-8 20 1 46 30 57 13 5 26 5 37 3l0 196z"/>
<glyph glyph-name="eh-time" unicode="&#57416;" d="M293 181l-53 53 0 118 32 0 0-106 43-43z m-37 219c80 0 144-64 144-144 0-80-64-144-144-144-80 0-144 64-144 144 0 80 64 144 144 144m0 32c-98 0-176-78-176-176 0-98 78-176 176-176 98 0 176 78 176 176 0 98-78 176-176 176z"/>
<glyph glyph-name="eh-tools" unicode="&#57417;" d="M430 125l-158 158c8 15 11 31 11 47 0 56-46 102-102 102-8 0-15-2-23-3l55-56 0-45-34-34-43 0-54 58c-2-6-4-14-4-22 0-56 47-103 103-103 16 0 32 5 46 11l159-158z"/>
<glyph glyph-name="eh-unlink" unicode="&#57421;" d="M288 336l-102 102-112-113 100-103 23 23-79 80 68 67 80-78z m-45-136l79-78 68 67-80 78 23 24 102-102-113-114-101 103z m130 186l11-11-249-249-11 11z"/>
<glyph glyph-name="eh-update" unicode="&#57422;" d="M80 80l352 0 0 144-32 0 0-112-288 0 0 112-32 0z m48 144l256 0 0-96-256 0z m64 136c0 35 29 64 64 64l0-24 32 32-32 32 0-24c-45 0-80-35-80-80 0-22 10-42 24-56l11 11c-13 11-19 27-19 45z m128 0c0-35-29-64-64-64l0 24-32-32 32-32 0 24c45 0 80 35 80 80 0 22-10 42-24 56l-11-11c13-11 19-27 19-45z"/>
<glyph glyph-name="eh-user" unicode="&#57423;" d="M64 80c0 3 0 6 0 9 1 4 2 9 4 18 3 8 6 14 10 18 5 4 13 9 26 14 13 5 27 11 43 16 16 6 28 11 35 15 10 4 17 11 22 20 5 10 8 19 8 29 0 7-4 15-12 23-9 10-15 23-20 39-5 16-8 35-8 56 0 16 2 30 7 42 4 13 11 23 18 30 8 8 17 13 27 17 10 4 21 5 32 6 11 0 22-2 32-6 10-4 19-10 27-17 7-7 14-17 18-30 5-13 7-27 7-42 0-21-2-40-8-56-5-17-11-29-19-39-8-9-12-17-12-23 0-10 3-19 8-29 5-9 13-16 22-20 7-4 19-9 35-15 16-5 30-11 42-16 13-5 21-9 26-14 4-4 8-10 10-18 2-7 4-14 4-19l0-8-384 0z"/>
<glyph glyph-name="eh-video" unicode="&#57424;" d="M80 432l0-352 352 0 0 352z m32-96l32 0 0-32-32 0z m32-224l-32 0 0 32 32 0z m0 64l-32 0 0 32 32 0z m0 64l-32 0 0 32 32 0z m0 128l-32 0 0 32 32 0z m192-256l-160 0 0 128 160 0z m0 160l-160 0 0 128 160 0z m32 64l32 0 0-32-32 0z m32-224l-32 0 0 32 32 0z m0 64l-32 0 0 32 32 0z m0 64l-32 0 0 32 32 0z m0 128l-32 0 0 32 32 0z"/>
<glyph glyph-name="eh-wizard" unicode="&#57425;" d="M120 424l-45-45 317-317 45 45z m34-102l-56 57 22 23 56-56z m68 56c12 22 15 24 36 35-23 11-24 14-36 35-11-22-14-24-35-35 21-11 23-13 35-35z m-139-135c11 23 15 24 35 35-22 12-24 15-35 36-11-23-14-24-35-36 22-12 24-14 35-35z m191 87c6 12 8 14 20 20-12 7-14 8-20 21-7-13-8-14-21-21 11-6 13-8 21-20z"/>
<glyph glyph-name="eh-help" unicode="&#57427;" d="M275 173l-62 0 0 23c0 19 2 32 5 41 3 11 14 25 32 44 20 21 33 36 39 45 10 16 15 32 15 49 0 33-20 50-61 50-24 0-52-7-83-22l-8 55c32 9 66 14 101 14 44 0 76-10 97-29 18-16 27-38 27-66 0-23-7-44-20-63-9-13-22-28-40-46-14-15-23-25-27-30-4-4-8-10-10-15-3-8-5-19-5-35l0-15z m-29-44c14 0 25-5 34-15 8-9 11-19 11-30 0-12-5-23-15-32-8-8-18-12-30-12-14 0-26 5-35 15-8 9-11 19-11 30 0 12 4 23 14 32 8 8 19 12 32 12z"/>
<glyph glyph-name="eh-info" unicode="&#57428;" d="M181 47l0 29c3 0 5 1 7 2 12 2 20 4 24 8 7 6 10 26 10 59l0 100c0 31-3 51-9 58-4 4-13 6-28 6l0 29c43 2 78 4 104 7l0-201c0-28 3-47 7-54 3-5 10-9 20-11 1-1 6-1 15-3l0-29c-33 1-58 2-75 2-17 0-42-1-75-2z m68 418c12 0 22-4 30-11 8-8 12-18 12-29 0-11-4-20-12-28-8-8-18-12-30-12-12 0-22 4-29 12-8 8-12 17-12 29 0 10 4 20 12 27 8 8 18 12 29 12z"/>
<glyph glyph-name="eh-cart-2" unicode="&#57429;" d="M392 304l-32-96-136 0-64 160-112 0 0-32 88 0 64-160 184 0 48 128z m-160-192c0-18-14-32-32-32-18 0-32 14-32 32 0 18 14 32 32 32 18 0 32-14 32-32z m184 0c0-18-14-32-32-32-18 0-32 14-32 32 0 18 14 32 32 32 18 0 32-14 32-32z m-144 288l32 0 0-128-32 0z m-48-48l128 0 0-32-128 0z"/>
<glyph glyph-name="eh-pdf" unicode="&#57430;" d="M224 464l0-96 96 0z m-96-160l192 0 0 48-112 0 0 112-176 0 0-432 288 0 0 64-192 0z m16-16l0-176 336 0 0 176z m88-96l-40 0 0-48-16 0 0 112 56 0c18 0 32-14 32-32 0-18-14-32-32-32z m120-16c0-18-6-32-24-32l-56 0 0 112 56 0c18 0 24-14 24-32z m96 64l-64 0 0-32 48 0 0-16-48 0 0-48-16 0 0 112 80 0z m-120 0l-40 0 0-80 40 0c10 0 8 6 8 16l0 48c0 10 2 16-8 16z m-96 0l-40 0 0-32 40 0c10 0 16 6 16 16 0 10-6 16-16 16z"/>
<glyph glyph-name="eh-volume" unicode="&#57431;" d="M64 352l0-192 80 0 128-112 0 416-128-112z m256 14l0-40c19-17 32-43 32-70 0-27-13-53-32-70l0-40c38 22 64 64 64 110 0 46-26 88-64 110z m32 74l0-37c48-32 80-86 80-147 0-61-32-115-80-147l0-37c67 35 112 104 112 184 0 80-45 149-112 184z"/>
<glyph glyph-name="eh-mute" unicode="&#57432;" d="M64 352l0-192 80 0 128-112 0 416-128-112z m395-51l-22 22-45-45-45 45-22-22 45-45-45-45 22-22 45 45 45-45 22 22-45 45z"/>
<glyph glyph-name="eh-warning" unicode="&#57433;" d="M256 400l-176-288 352 0z m0-259c-6 0-11 1-14 6-4 3-5 8-5 13 0 5 1 10 6 14 3 4 8 5 15 5 6 0 11-1 14-6 3-3 5-8 5-13 0-6-2-11-7-14-4-4-9-5-14-5z m-16 163l32 0 0-96-32 0z"/>
<glyph glyph-name="eh-indefinite" unicode="&#57434;" d="M256 410l74-74-42 0 0-160 42 0-74-74-74 74 42 0 0 160-42 0 74 74m0 22l-112-112 64 0 0-128-64 0 112-112 112 112-64 0 0 128 64 0z"/>
<glyph glyph-name="eh-install" unicode="&#57435;" d="M304 192l0 80-32 0 0 32-32 0 0 32-32 0 0-144-64 0 112-112 112 112z m-96 240l32 0 0-32-32 0z m32-64l32 0 0-32-32 0z m32-32l32 0 0-32-32 0z m0 64l32 0 0-32-32 0z"/>
<glyph glyph-name="eh-partfinder" unicode="&#57436;" d="M48 448l16 0 0-208-16 0z m48 0l32 0 0-208-32 0z m288-117l0 117-16 0 0-104c6-5 11-8 16-13z m32 117l0-158c8-16 13-32 14-50l18 0 0 208z m-126-144c44 0 81-37 81-82 0-17-6-35-16-49l-6-10-10-6c-14-11-32-16-49-16-45 0-82 37-82 81 0 45 37 82 82 82m0 32c-63 0-114-51-114-114 0-62 51-113 114-113 25 0 49 8 68 22l95-94 22 22-94 95c14 19 22 43 22 68 0 63-51 114-113 114z m62 18l0 94-32 0 0-83c11-3 22-7 32-11z m-64 14l0 80-16 0 0-82c5 2 11 2 16 2z m-48-8l0 88-32 0 0-104c10 6 21 11 32 16z m-64-45l0 133-16 0 0-158c5 9 10 17 16 25z"/>
<glyph glyph-name="eh-wm" unicode="&#57437;" d="M269 318c21-4 38-19 46-40l5 2 62-32 47 24c-7 70-55 130-120 150l11-52z m-69-32c11 20 29 31 51 32l0 7 50 49-8 53c-11 3-24 5-37 5-58 0-109-29-142-72l52-8z m10-73c-12 11-18 25-18 43 0 6 2 11 2 16l-5 2-32 62-51 8c-16-26-26-56-26-88 0-38 13-74 34-102l24 48z m73-15c-8-4-17-6-27-6-13 0-24 3-35 10l-3-5-69-11-24-47c32-37 80-59 131-59 19 0 37 3 53 8l-37 38z m101 32l-64 32c0-3 0-4 0-8 0-19-10-38-24-49l3-5-11-70 37-37c62 27 105 88 105 160z m-80 26c0-27-21-48-48-48-27 0-48 21-48 48 0 27 21 48 48 48 27 0 48-21 48-48z"/>
<glyph glyph-name="eh-logout" unicode="&#57438;" d="M320 160l-128 0 0 224-77 48 205 0 0-96 32 0 0 128-288 0 0-336 128-64 0 64 160 0 0 112-32 0z m128 128l-64 64 0-48-160 0 0-32 160 0 0-48z"/>
<glyph glyph-name="eh-bookmark-filled" unicode="&#57440;" d="M160 448l192 0 0-384-96 81-96-81z"/>
<glyph glyph-name="eh-close" unicode="&#57353;" d="M427 107l-149 149 149 149-22 22-149-149-149 149-22-22 149-149-149-149 22-22 149 149 149-149z"/>
<glyph glyph-name="eh-new" unicode="&#57393;" d="M432 272l-160 0 0 160-32 0 0-160-160 0 0-32 160 0 0-160 32 0 0 160 160 0z"/>
<glyph glyph-name="eh-onscreen-keyboard" unicode="&#57397;" d="M112 320l24 0 0-24-24 0z m48 0l24 0 0-24-24 0z m48 0l24 0 0-24-24 0z m48 0l24 0 0-24-24 0z m48 0l24 0 0-24-24 0z m72-80l24 0 0 80-48 0 0-24 24 0z m-240 32l24 0 0-24-24 0z m-24-48l24 0 0-24-24 0z m312 144l-360 0 0-224 384 0 0 224z m0-200l-336 0 0 176 336 0z m-240 104l24 0 0-24-24 0z m48 0l24 0 0-24-24 0z m48 0l24 0 0-24-24 0z m48 0l24 0 0-24-24 0z m-168-48l192 0 0-24-192 0z m216 0l24 0 0-24-24 0z"/>
<glyph glyph-name="eh-unfilter" unicode="&#57419;" d="M288 288l144 144-352 0 144-144 0-224 64 64z m155-197l-45 45 45 45-22 22-45-45-45 45-22-22 45-45-45-45 22-22 45 45 45-45z"/>
<glyph glyph-name="eh-uninstall" unicode="&#57420;" d="M400 224l0-112-288 0 0 112-32 0 0-144 352 0 0 144z m-272 0l256 0 0-96-256 0z m37 61l24-24 67 69 67-69 24 24-69 67 69 69-22 22-69-69-69 69-22-22 69-69z"/>
<glyph glyph-name="eh-arrow-left" unicode="&#57344;" d="M342 83l-208 173 208 173 20-26-176-147 176-147z"/>
<glyph glyph-name="eh-arrow-right" unicode="&#57345;" d="M155 429l207-173-207-173-21 26 178 147-178 147z"/>
<glyph glyph-name="eh-copy" unicode="&#57355;" d="M368 368l0 64-288 0 0-288 64 0 0-64 288 0 0 288z m-256-192l0 224 224 0 0-224z m288-64l-224 0 0 32 192 0 0 192 32 0z"/>
<glyph glyph-name="eh-paste" unicode="&#57363;" d="M368 368l0 64-288 0 0-288 64 0 0-64 288 0 0 288z m-32 0l-192 0 0-192-32 0 0 224 224 0z"/>
<glyph glyph-name="eh-spinner" unicode="&#57413;" d="M438 81c-97-97-266-88-361 7-97 97-103 253-15 356 6 7 11 13 18 17 19 12 44 10 60-6 16-16 18-39 8-58-2-4-4-7-8-11-71-77-74-194-4-264 79-78 209-62 278 17 54 63 72 152 39 231-42 102-156 149-261 114l0 0c121 42 252-12 301-129 36-85 19-181-37-252-5-8-12-15-18-22z"/>
<glyph glyph-name="eh-stop" unicode="&#57364;" d="M128 384l256 0 0-256-256 0z"/>
<glyph glyph-name="eh-undo" unicode="&#57365;" d="M112 432l-32 0 0-288 64 0 0 32-32 0 0 224 224 0 0-32 32 0 0 64z m288-320l-16 0 0-32 48 0 0 48-32 0z m-96 0l48 0 0-32-48 0z m-80 0l48 0 0-32-48 0z m-48 16l-32 0 0-48 48 0 0 32-16 0z m48 240l48 0 0-32-48 0z m80 0l48 0 0-32-48 0z m96 0l-16 0 0-32 16 0 0-16 32 0 0 48z m0-80l32 0 0-48-32 0z m0-80l32 0 0-48-32 0z m-256 0l32 0 0-48-32 0z m0 80l32 0 0-48-32 0z m0 80l0-48 32 0 0 16 16 0 0 32z m208-160l-64 0 0-48-80 64 80 64 0-48 64 0z"/>
</font>
</defs>
</svg>
