<?xml version="1.0" encoding="UTF-8"?>
<svg xmlns="http://www.w3.org/2000/svg" xmlns:xlink="http://www.w3.org/1999/xlink" version="1.2" >
<font id="E+H Serif Demi">
<font-face  font-family="E+H Serif" units-per-em="2048" ascent="1638" descent="-512" font-style="normal" font-weight="600" font-stretch="normal" cap-height="1413" x-height="983" underline-position="-372" underline-thickness="95" />
<missing-glyph  horiz-adv-x="1709" d="M982 405 L831 405 L831 471 Q831 555 816 593 Q800 635 760 677 Q740 698 682 757 Q593 845 547 916 Q483 1012 483 1123 Q483 1211 525 1285 Q612 1438 886 1438 Q1038 1438 1199 1393 L1170 1239 Q1022 1309 903 1309 Q672 1309 672 1119 Q672 1025 729 939 Q759 892 865 780 Q946 694 966 639 Q982 593 982 501 L982 405 Z M904 234 Q962 234 1001 189 Q1034 152 1034 104 Q1034 48 992 9 Q954 -26 902 -26 Q841 -26 802 19 Q770 56 770 105 Q770 159 812 199 Q849 234 904 234 Z M123 -459 L123 1737 L1587 1737 L1587 -459 L123 -459 Z M246 -336 L1464 -336 L1464 1614 L246 1614 L246 -336 Z " />
<glyph glyph-name="space" unicode="&#x20;" horiz-adv-x="492" d="" />
<glyph glyph-name="exclam" unicode="&#x21;" horiz-adv-x="692" d="M250 427 L213 1413 L478 1413 L441 427 L250 427 Z M348 267 Q415 267 460 216 Q498 174 498 120 Q498 57 449 12 Q406 -27 345 -27 Q275 -27 230 24 Q192 66 192 121 Q192 182 241 228 Q284 267 348 267 Z " />
<glyph glyph-name="quotedbl" unicode="&#x22;" horiz-adv-x="722" d="M89 855 L62 1413 L301 1413 L273 855 L89 855 Z M450 855 L422 1413 L661 1413 L633 855 L450 855 Z " />
<glyph glyph-name="numbersign" unicode="&#x23;" horiz-adv-x="1180" d="M279 585 L310 811 L127 811 L149 954 L330 954 L383 1322 L583 1322 L531 954 L721 954 L774 1322 L974 1322 L922 954 L1105 954 L1084 811 L902 811 L871 585 L1052 585 L1030 442 L851 442 L800 89 L600 89 L649 442 L460 442 L409 89 L209 89 L258 442 L74 442 L95 585 L279 585 Z M480 585 L670 585 L701 811 L510 811 L480 585 Z " />
<glyph glyph-name="dollar" unicode="&#x24;" horiz-adv-x="1180" d="M526 131 L526 649 Q342 726 279 766 Q178 831 137 911 Q103 978 103 1062 Q103 1284 316 1379 Q387 1411 526 1424 L526 1609 L658 1609 L658 1427 Q822 1419 974 1373 L971 1086 L833 1086 Q816 1186 789 1225 Q755 1271 658 1279 L658 808 Q851 727 927 669 Q1079 554 1079 372 Q1079 223 985 124 Q896 29 742 2 Q708 -4 658 -9 L658 -202 L526 -202 L526 -16 Q357 -10 284 2 Q189 17 103 44 L107 348 L244 348 Q256 275 269 242 Q304 157 410 139 Q448 133 526 131 Z M658 143 Q847 181 847 350 Q847 462 774 527 Q740 557 658 595 L658 143 Z M526 1276 Q335 1245 335 1084 Q335 981 424 919 Q450 901 526 864 L526 1276 Z " />
<glyph glyph-name="percent" unicode="&#x25;" horiz-adv-x="1799" d="M430 1442 Q600 1442 690 1334 Q770 1238 770 1070 Q770 903 690 807 Q600 699 424 699 Q249 699 159 807 Q79 903 79 1069 Q79 1240 159 1334 Q252 1442 430 1442 Z M427 1336 Q290 1336 290 1069 Q290 805 425 805 Q559 805 559 1070 Q559 1336 427 1336 Z M521 0 L1088 1413 L1278 1413 L711 0 L521 0 Z M1381 714 Q1551 714 1641 606 Q1721 511 1721 342 Q1721 175 1641 79 Q1552 -29 1376 -29 Q1200 -29 1110 79 Q1030 175 1030 341 Q1030 512 1110 606 Q1202 714 1381 714 Z M1378 608 Q1241 608 1241 340 Q1241 77 1375 77 Q1510 77 1510 342 Q1510 608 1378 608 Z " />
<glyph glyph-name="ampersand" unicode="&#x26;" horiz-adv-x="1470" d="M397 781 Q255 964 255 1120 Q255 1266 360 1356 Q461 1442 635 1442 Q814 1442 909 1354 Q998 1271 998 1135 Q998 958 838 841 Q788 805 678 753 L1012 352 Q1057 417 1082 491 Q1116 591 1116 659 Q1116 694 1077 707 Q1055 715 1015 722 L1015 823 Q1167 815 1244 815 Q1319 815 1470 823 L1470 720 Q1389 708 1363 691 Q1337 674 1317 637 Q1307 617 1284 557 Q1229 418 1183 339 Q1156 295 1110 239 L1331 0 L1053 0 L966 103 Q789 -29 552 -29 Q340 -29 214 73 Q85 177 85 361 Q85 552 237 680 Q295 728 397 781 Z M592 857 Q657 891 700 932 Q779 1009 779 1140 Q779 1221 745 1266 Q706 1317 632 1317 Q554 1317 512 1264 Q474 1217 474 1133 Q474 1045 528 950 Q549 912 572 881 Q591 856 592 857 Z M490 670 Q325 576 325 386 Q325 236 411 161 Q481 101 590 101 Q733 101 876 209 L490 670 Z " />
<glyph glyph-name="quotesingle" unicode="&#x27;" horiz-adv-x="356" d="M86 855 L59 1413 L298 1413 L270 855 L86 855 Z " />
<glyph glyph-name="parenleft" unicode="&#x28;" horiz-adv-x="827" d="M685 -328 L560 -404 Q448 -266 363 -62 Q238 237 238 591 Q238 967 381 1286 Q460 1463 560 1587 L685 1511 Q474 1109 474 592 Q474 77 685 -328 Z " />
<glyph glyph-name="parenright" unicode="&#x29;" horiz-adv-x="826" d="M142 1511 L267 1587 Q380 1447 464 1245 Q589 946 589 591 Q589 215 446 -103 Q367 -280 267 -404 L142 -328 Q353 76 353 591 Q353 1107 142 1511 Z " />
<glyph glyph-name="asterisk" unicode="&#x2a;" horiz-adv-x="1118" d="M468 1267 L447 1597 L671 1597 L650 1267 L961 1381 L1014 1201 L685 1127 L900 851 L728 738 L559 1024 L390 738 L218 851 L432 1127 L104 1201 L157 1381 L468 1267 Z " />
<glyph glyph-name="plus" unicode="&#x2b;" horiz-adv-x="1180" d="M101 633 L112 785 L497 785 L497 1197 L688 1197 L688 785 L1079 785 L1068 633 L688 633 L688 223 L497 223 L497 633 L101 633 Z " />
<glyph glyph-name="comma" unicode="&#x2c;" horiz-adv-x="544" d="M221 -17 Q117 16 117 123 Q117 185 155 226 Q199 274 275 274 Q355 274 399 225 Q434 185 434 125 Q434 27 312 -156 Q299 -175 175 -341 L48 -341 Q165 -159 221 -17 Z " />
<glyph glyph-name="hyphen" unicode="&#x2d;" horiz-adv-x="816" d="M114 561 L114 726 L702 726 L702 561 L114 561 Z " />
<glyph glyph-name="period" unicode="&#x2e;" horiz-adv-x="543" d="M275 274 Q344 274 390 222 Q429 178 429 123 Q429 59 379 13 Q335 -27 272 -27 Q200 -27 154 25 Q115 68 115 125 Q115 187 165 234 Q209 274 275 274 Z " />
<glyph glyph-name="slash" unicode="&#x2f;" horiz-adv-x="960" d="M50 0 L681 1413 L909 1413 L277 0 L50 0 Z " />
<glyph glyph-name="zero" unicode="0" horiz-adv-x="1180" d="M596 1439 Q750 1439 865 1365 Q995 1282 1047 1085 Q1085 943 1085 704 Q1085 307 967 142 Q845 -29 590 -29 Q429 -29 315 45 Q185 128 133 324 Q95 467 95 706 Q95 1103 213 1268 Q336 1439 596 1439 Z M593 1295 Q448 1295 387 1136 Q338 1008 338 707 Q338 376 397 249 Q460 115 590 115 Q731 115 793 273 Q842 399 842 704 Q842 1035 783 1160 Q720 1295 593 1295 Z " />
<glyph glyph-name="one" unicode="1" horiz-adv-x="1180" d="M179 -4 L179 95 Q331 108 384 115 Q478 127 500 190 Q521 248 521 325 L521 1251 L205 1168 L205 1311 L586 1421 L756 1421 L756 325 Q756 178 811 140 Q842 119 952 107 Q973 105 1086 95 L1086 -4 Q784 4 634 4 Q482 4 179 -4 Z " />
<glyph glyph-name="two" unicode="2" horiz-adv-x="1180" d="M87 0 L87 142 L503 640 Q592 746 656 853 Q717 955 717 1070 Q717 1295 499 1295 Q369 1295 324 1220 Q296 1174 289 1086 L146 1086 L143 1390 Q334 1439 509 1439 Q756 1439 862 1327 Q954 1229 954 1076 Q954 932 870 799 Q794 678 683 546 L347 146 L683 146 Q808 146 838 204 Q857 243 870 365 L1011 365 L1007 0 L87 0 Z " />
<glyph glyph-name="three" unicode="3" horiz-adv-x="1180" d="M291 665 L291 821 Q361 814 405 814 Q560 814 640 883 Q718 951 718 1078 Q718 1296 487 1296 Q353 1296 310 1225 Q286 1186 276 1108 L132 1108 L129 1390 Q324 1439 502 1439 Q732 1439 846 1345 Q955 1257 955 1100 Q955 945 843 852 Q791 808 689 770 Q833 737 896 687 Q1015 594 1015 438 Q1015 301 931 196 Q814 50 511 2 Q377 -20 132 -29 L119 116 Q366 122 512 158 Q772 221 772 441 Q772 572 684 628 Q607 676 448 676 Q383 676 291 665 Z " />
<glyph glyph-name="four" unicode="4" horiz-adv-x="1180" d="M700 372 L67 372 L67 521 L474 1413 L697 1413 L289 518 L700 518 L700 978 L917 978 L917 518 L1103 518 L1103 372 L917 372 L917 307 Q917 173 942 137 Q956 116 1005 106 Q1015 104 1024 103 Q1038 101 1066 95 L1066 -4 Q882 4 793 4 Q696 4 509 -4 L509 95 Q544 101 562 103 Q629 112 652 124 Q700 150 700 307 L700 372 Z " />
<glyph glyph-name="five" unicode="5" horiz-adv-x="1180" d="M163 -30 L150 116 Q405 129 534 169 Q794 249 794 481 Q794 604 733 672 Q669 742 521 742 Q433 742 313 709 L178 726 L205 1413 L950 1413 L935 1259 L410 1259 L393 872 Q517 884 583 884 Q809 884 923 780 Q1037 676 1037 487 Q1037 172 691 50 Q517 -11 163 -30 Z " />
<glyph glyph-name="six" unicode="6" horiz-adv-x="1180" d="M872 1440 L880 1294 Q637 1265 508 1138 Q375 1006 347 757 Q397 820 439 848 Q533 913 660 913 Q871 913 988 771 Q1084 656 1084 465 Q1084 253 976 123 Q850 -29 607 -29 Q319 -29 196 176 Q113 314 113 591 Q113 921 252 1130 Q381 1323 647 1399 Q734 1424 872 1440 Z M612 774 Q500 774 432 694 Q356 604 356 443 Q356 310 405 218 Q463 110 599 110 Q734 110 792 221 Q841 314 841 454 Q841 593 787 679 Q727 774 612 774 Z " />
<glyph glyph-name="seven" unicode="7" horiz-adv-x="1180" d="M275 0 L835 1263 L451 1263 Q331 1263 299 1216 Q285 1195 274 1136 L268 1102 Q267 1095 265 1088 L125 1088 L129 1413 L1069 1413 L1069 1319 L525 0 L275 0 Z " />
<glyph glyph-name="eight" unicode="8" horiz-adv-x="1180" d="M341 737 Q256 781 209 827 Q117 918 117 1059 Q117 1231 235 1332 Q360 1439 589 1439 Q818 1439 943 1332 Q1061 1231 1061 1059 Q1061 910 956 815 Q913 776 838 737 Q946 695 1000 645 Q1111 542 1111 366 Q1111 -29 589 -29 Q67 -29 67 367 Q67 556 195 659 Q244 700 341 737 Z M593 1297 Q351 1297 351 1053 Q351 936 411 874 Q472 811 588 811 Q827 811 827 1056 Q827 1172 768 1233 Q705 1297 593 1297 Z M593 665 Q455 665 382 602 Q307 537 307 391 Q307 113 589 113 Q871 113 871 391 Q871 665 593 665 Z " />
<glyph glyph-name="nine" unicode="9" horiz-adv-x="1180" d="M229 -28 L216 118 Q391 133 487 167 Q692 242 777 457 Q811 542 828 673 Q774 617 736 594 Q640 538 518 538 Q299 538 180 682 Q91 790 91 966 Q91 1159 191 1282 Q318 1439 568 1439 Q860 1439 982 1227 Q1061 1088 1061 820 Q1061 494 926 288 Q794 88 508 15 Q403 -12 229 -28 Z M579 1300 Q441 1300 383 1196 Q334 1109 334 979 Q334 857 380 777 Q437 677 562 677 Q675 677 742 752 Q818 837 818 987 Q818 1115 769 1199 Q709 1300 579 1300 Z " />
<glyph glyph-name="colon" unicode="&#x3a;" horiz-adv-x="543" d="M316 274 Q385 274 431 222 Q470 178 470 123 Q470 59 420 13 Q376 -27 313 -27 Q241 -27 195 25 Q156 68 156 125 Q156 187 206 234 Q250 274 316 274 Z M316 1010 Q385 1010 431 958 Q470 914 470 859 Q470 795 420 749 Q375 709 313 709 Q241 709 195 761 Q156 804 156 860 Q156 923 206 970 Q250 1010 316 1010 Z " />
<glyph glyph-name="semicolon" unicode="&#x3b;" horiz-adv-x="544" d="M262 -17 Q158 16 158 123 Q158 185 196 226 Q240 274 316 274 Q396 274 440 225 Q475 185 475 125 Q475 27 353 -156 Q340 -175 216 -341 L89 -341 Q206 -159 262 -17 Z M319 1010 Q388 1010 434 958 Q473 914 473 859 Q473 795 423 749 Q378 709 316 709 Q244 709 197 761 Q159 804 159 860 Q159 924 209 970 Q253 1010 319 1010 Z " />
<glyph glyph-name="less" unicode="&#x3c;" horiz-adv-x="1180" d="M361 702 L1033 374 L1033 184 L132 657 L132 747 L1033 1226 L1033 1036 L361 702 Z " />
<glyph glyph-name="equal" unicode="&#x3d;" horiz-adv-x="1180" d="M101 448 L112 600 L1079 600 L1067 448 L101 448 Z M101 818 L112 970 L1079 970 L1067 818 L101 818 Z " />
<glyph glyph-name="greater" unicode="&#x3e;" horiz-adv-x="1180" d="M819 709 L147 1037 L147 1226 L1048 753 L1048 663 L147 185 L147 374 L819 709 Z " />
<glyph glyph-name="question" unicode="&#x3f;" horiz-adv-x="910" d="M498 425 L295 425 L295 500 Q295 593 310 637 Q329 689 420 786 Q520 891 553 943 Q606 1025 606 1118 Q606 1300 397 1300 Q267 1300 102 1218 L87 1391 Q246 1439 426 1439 Q648 1439 755 1340 Q844 1259 844 1123 Q844 1012 777 912 Q736 849 641 752 Q532 642 514 597 Q498 558 498 478 L498 425 Z M405 267 Q472 267 517 216 Q555 174 555 120 Q555 57 506 12 Q463 -27 402 -27 Q332 -27 287 24 Q249 66 249 121 Q249 182 298 228 Q341 267 405 267 Z " />
<glyph glyph-name="at" unicode="&#x40;" horiz-adv-x="1773" d="M1132 948 L1280 948 L1186 489 Q1173 427 1173 383 Q1173 308 1240 308 Q1315 308 1384 379 Q1496 497 1496 698 Q1496 842 1438 966 Q1370 1110 1221 1181 Q1082 1247 908 1247 Q629 1247 458 1058 Q282 863 282 533 Q282 203 453 50 Q616 -96 961 -96 Q1229 -96 1496 -23 L1490 -135 Q1246 -200 947 -200 Q116 -200 116 527 Q116 913 345 1138 Q559 1350 909 1350 Q1165 1350 1358 1238 Q1535 1135 1611 950 Q1658 835 1658 703 Q1658 510 1564 375 Q1437 193 1219 193 Q1103 193 1059 259 Q1041 286 1029 332 Q991 288 962 263 Q880 191 761 191 Q653 191 593 246 Q518 314 518 455 Q518 591 573 713 Q689 968 921 968 Q1050 968 1113 872 L1132 948 Z M938 851 Q843 851 772 712 Q711 592 711 458 Q711 386 737 348 Q761 312 803 312 Q901 312 976 448 Q1050 581 1050 710 Q1050 771 1022 808 Q990 851 938 851 Z " />
<glyph glyph-name="A" unicode="A" horiz-adv-x="1457" d="M988 412 L431 412 L375 255 Q355 200 355 165 Q355 127 392 113 Q410 107 468 95 L468 -4 Q304 4 222 4 Q141 4 -22 -4 L-22 95 Q75 112 103 136 Q135 163 177 278 L619 1413 L846 1413 L1281 279 Q1314 191 1332 165 Q1358 126 1411 111 Q1436 104 1484 95 L1484 -4 Q1307 4 1219 4 Q1129 4 951 -4 L951 95 Q1018 109 1035 117 Q1064 130 1064 163 Q1064 197 1046 248 L988 412 Z M936 558 L711 1186 L483 558 L936 558 Z " />
<glyph glyph-name="B" unicode="B" horiz-adv-x="1287" d="M45 -4 L45 95 Q73 101 87 103 Q139 113 157 128 Q194 159 194 325 L194 1089 Q194 1232 169 1272 Q154 1295 106 1306 Q105 1306 70 1313 Q58 1315 45 1318 L45 1417 Q213 1413 329 1413 L662 1413 Q919 1413 1030 1339 Q1160 1252 1160 1075 Q1160 914 1056 828 Q1001 783 898 751 Q1038 714 1096 664 Q1206 570 1206 391 Q1206 173 1036 72 Q913 0 660 0 L394 0 Q201 0 45 -4 Z M430 817 L604 817 Q778 817 835 853 Q923 908 923 1056 Q923 1180 853 1229 Q800 1267 644 1267 L430 1267 L430 817 Z M430 146 L626 146 Q805 146 871 191 Q957 250 957 397 Q957 572 855 631 Q786 671 585 671 L430 671 L430 146 Z " />
<glyph glyph-name="C" unicode="C" horiz-adv-x="1187" d="M978 337 L1116 337 L1119 26 Q945 -26 736 -26 Q388 -26 232 177 Q91 360 91 684 Q91 929 169 1105 Q258 1304 433 1384 Q552 1439 731 1439 Q904 1439 1098 1392 L1095 1081 L951 1081 Q942 1167 917 1211 Q871 1293 727 1293 Q529 1293 436 1130 Q340 962 340 694 Q340 436 426 284 Q516 123 736 123 Q888 123 936 198 Q964 242 978 337 Z " />
<glyph glyph-name="D" unicode="D" horiz-adv-x="1357" d="M45 -4 L45 96 Q73 101 87 104 Q139 113 157 128 Q194 159 194 325 L194 1088 Q194 1232 169 1271 Q154 1295 106 1306 Q103 1306 70 1313 Q58 1315 45 1317 L45 1417 Q193 1413 308 1413 L602 1413 Q920 1413 1074 1271 Q1177 1175 1228 1002 Q1267 867 1267 706 Q1267 337 1076 156 Q971 56 812 20 Q723 0 583 0 L362 0 Q201 0 45 -4 Z M434 150 L561 150 Q776 150 882 259 Q1018 398 1018 714 Q1018 1054 860 1186 Q789 1245 670 1258 Q627 1263 539 1263 L434 1263 L434 150 Z " />
<glyph glyph-name="E" unicode="E" horiz-adv-x="1191" d="M45 -4 L45 96 Q73 101 87 104 Q139 113 157 128 Q194 159 194 325 L194 1071 Q194 1231 169 1271 Q155 1295 106 1306 Q103 1306 70 1313 Q57 1315 45 1317 L45 1417 Q232 1413 308 1413 L1134 1413 L1138 1088 L997 1088 Q980 1193 964 1216 Q932 1263 803 1263 L434 1263 L434 799 L663 799 Q747 799 771 836 Q792 867 794 956 L929 956 Q924 805 924 732 Q924 654 929 503 L794 503 Q792 598 771 632 Q747 671 663 671 L434 671 L434 251 Q434 198 457 174 Q480 150 530 150 L799 150 Q941 150 972 198 Q990 226 1006 337 L1147 337 L1143 0 L364 0 Q307 0 45 -4 Z " />
<glyph glyph-name="F" unicode="F" horiz-adv-x="1126" d="M45 -4 L45 95 Q73 101 87 103 Q139 112 157 128 Q194 158 194 325 L194 1089 Q194 1232 169 1271 Q154 1295 106 1306 Q103 1306 70 1312 Q58 1315 45 1317 L45 1417 Q225 1413 335 1413 L1098 1413 L1101 1088 L961 1088 Q946 1189 928 1216 Q897 1263 774 1263 L434 1263 L434 781 L657 781 Q741 781 766 818 Q787 850 788 938 L923 938 Q918 787 918 714 Q918 636 923 484 L788 484 Q787 580 766 613 Q741 653 657 653 L434 653 L434 325 Q434 179 468 140 Q488 118 556 107 Q569 105 583 103 Q601 101 638 95 L638 -4 Q439 4 336 4 Q241 4 45 -4 Z " />
<glyph glyph-name="G" unicode="G" horiz-adv-x="1330" d="M765 636 L765 735 Q948 727 1047 727 Q1130 727 1308 735 L1308 636 Q1287 630 1276 628 Q1235 618 1221 602 Q1193 571 1193 406 L1193 53 Q1010 -26 753 -26 Q391 -26 229 188 Q91 371 91 688 Q91 1089 294 1288 Q448 1439 741 1439 Q948 1439 1168 1384 L1165 1076 L1023 1076 Q1011 1165 983 1208 Q926 1293 750 1293 Q542 1293 449 1156 Q340 994 340 698 Q340 437 426 286 Q520 120 764 120 Q856 120 963 155 L963 406 Q963 552 930 590 Q910 613 846 624 Q843 624 798 631 Q782 633 765 636 Z " />
<glyph glyph-name="H" unicode="H" horiz-adv-x="1460" d="M45 -4 L45 95 Q73 101 87 103 Q139 113 157 128 Q194 159 194 325 L194 1088 Q194 1232 169 1272 Q154 1295 106 1306 Q104 1306 70 1313 Q57 1315 45 1318 L45 1417 Q224 1409 314 1409 Q404 1409 583 1417 L583 1318 Q555 1312 541 1310 Q489 1301 471 1285 Q434 1255 434 1088 L434 812 L1026 812 L1026 1088 Q1026 1232 1001 1272 Q986 1295 937 1306 Q936 1306 901 1313 Q888 1315 876 1318 L876 1417 Q1056 1409 1145 1409 Q1235 1409 1415 1417 L1415 1318 Q1387 1312 1373 1310 Q1321 1301 1303 1285 Q1266 1255 1266 1088 L1266 325 Q1266 181 1291 141 Q1306 118 1354 107 Q1355 107 1390 100 Q1403 98 1415 95 L1415 -4 Q1235 4 1145 4 Q1056 4 876 -4 L876 95 Q904 101 918 103 Q971 113 989 128 Q1026 158 1026 325 L1026 663 L434 663 L434 325 Q434 181 459 141 Q473 118 522 107 Q532 105 541 103 Q555 101 583 95 L583 -4 Q404 4 314 4 Q224 4 45 -4 Z " />
<glyph glyph-name="I" unicode="I" horiz-adv-x="627" d="M45 -4 L45 95 Q73 101 87 103 Q139 113 157 128 Q194 159 194 325 L194 1088 Q194 1232 169 1272 Q154 1295 106 1306 Q104 1306 70 1313 Q57 1315 45 1318 L45 1417 Q224 1409 314 1409 Q404 1409 583 1417 L583 1318 Q555 1312 541 1310 Q489 1301 471 1285 Q434 1255 434 1088 L434 325 Q434 181 459 141 Q473 118 522 107 Q532 105 541 103 Q555 101 583 95 L583 -4 Q404 4 314 4 Q224 4 45 -4 Z " />
<glyph glyph-name="J" unicode="J" horiz-adv-x="656" d="M43 1318 L43 1417 Q234 1409 332 1409 Q425 1409 615 1417 L615 1318 Q587 1312 573 1310 Q520 1301 502 1285 Q465 1255 465 1088 L465 250 Q465 51 447 -67 Q389 -451 1 -451 Q-93 -451 -194 -430 L-182 -276 Q-88 -305 -6 -305 Q153 -305 196 -149 Q225 -42 225 222 L225 1088 Q225 1233 195 1272 Q177 1295 118 1306 Q113 1307 74 1313 Q58 1315 43 1318 Z " />
<glyph glyph-name="K" unicode="K" horiz-adv-x="1337" d="M45 -4 L45 95 Q73 101 87 103 Q139 113 157 128 Q194 159 194 325 L194 1088 Q194 1232 169 1272 Q154 1295 106 1306 Q104 1306 70 1313 Q57 1315 45 1318 L45 1417 Q224 1409 314 1409 Q404 1409 583 1417 L583 1318 Q555 1312 541 1310 Q489 1301 471 1285 Q434 1255 434 1088 L434 818 L494 818 Q571 818 619 845 Q653 865 678 898 L716 948 L897 1184 Q933 1230 933 1271 Q933 1297 895 1308 Q872 1314 832 1321 L832 1417 Q998 1409 1081 1409 Q1164 1409 1329 1417 L1329 1318 Q1256 1305 1220 1282 Q1196 1267 1160 1220 Q1157 1216 1129 1179 Q1118 1164 1108 1151 L808 761 L1141 290 Q1240 151 1274 126 Q1306 102 1381 95 L1381 -4 Q1193 4 1098 4 Q1004 4 816 -4 L816 95 Q875 103 905 114 Q936 126 936 155 Q936 192 885 265 L679 562 Q626 645 597 666 Q565 689 493 689 L434 689 L434 325 Q434 182 459 141 Q473 118 522 107 Q532 105 541 103 Q555 101 583 95 L583 -4 Q404 4 314 4 Q224 4 45 -4 Z " />
<glyph glyph-name="L" unicode="L" horiz-adv-x="1085" d="M45 -4 L45 96 Q73 101 87 104 Q139 113 157 128 Q194 159 194 325 L194 1088 Q194 1232 169 1272 Q154 1295 106 1306 Q104 1306 70 1313 Q57 1315 45 1318 L45 1417 Q224 1409 314 1409 Q404 1409 583 1417 L583 1318 Q555 1312 542 1310 Q489 1301 471 1285 Q434 1255 434 1088 L434 251 Q434 198 457 174 Q479 150 530 150 L714 150 Q810 150 851 166 Q897 184 911 247 Q918 279 925 337 L1066 337 L1063 0 L352 0 Q182 0 45 -4 Z " />
<glyph glyph-name="M" unicode="M" horiz-adv-x="1907" d="M16 -4 L16 95 Q103 110 129 129 Q158 149 170 198 Q177 222 182 276 L269 1065 Q278 1145 278 1205 Q278 1272 237 1294 Q217 1305 150 1318 L150 1417 Q344 1410 440 1410 Q504 1410 630 1413 L875 581 Q900 496 955 243 Q1006 467 1042 586 L1291 1413 Q1416 1410 1482 1410 Q1573 1410 1763 1417 L1763 1318 Q1742 1314 1731 1312 Q1667 1300 1649 1276 Q1628 1250 1628 1196 Q1628 1157 1635 1094 L1726 266 Q1737 159 1775 129 Q1799 110 1890 95 L1890 -4 Q1714 4 1627 4 Q1539 4 1363 -4 L1363 95 Q1437 108 1457 119 Q1496 141 1496 208 Q1496 242 1490 297 L1432 857 Q1427 899 1410 1121 L1402 1218 Q1385 1149 1359 1047 Q1308 844 1282 760 L1044 0 L824 0 L592 762 Q589 773 474 1218 Q463 1098 458 1035 Q445 884 442 854 L387 314 Q380 246 380 208 Q380 138 428 117 Q447 109 521 95 L521 -4 Q353 4 268 4 Q184 4 16 -4 Z " />
<glyph glyph-name="N" unicode="N" horiz-adv-x="1467" d="M45 -4 L45 95 Q73 101 87 103 Q139 113 157 128 Q194 159 194 325 L194 1090 Q194 1232 169 1272 Q154 1295 106 1306 Q104 1306 70 1313 Q57 1315 45 1318 L45 1417 Q214 1409 297 1409 Q359 1409 479 1413 L885 694 Q911 649 1088 292 Q1082 449 1082 605 L1082 1091 Q1082 1232 1057 1272 Q1043 1295 994 1306 Q993 1306 959 1313 Q946 1315 934 1318 L934 1417 Q1098 1409 1180 1409 Q1263 1409 1428 1417 L1428 1318 Q1400 1312 1386 1310 Q1333 1301 1314 1285 Q1277 1254 1277 1091 L1277 0 L1045 -13 L563 835 Q557 845 463 1033 Q411 1139 383 1192 Q389 1007 389 863 L389 325 Q389 182 414 141 Q429 118 477 107 Q487 105 497 103 Q511 101 538 95 L538 -4 Q374 4 292 4 Q210 4 45 -4 Z " />
<glyph glyph-name="O" unicode="O" horiz-adv-x="1406" d="M714 1439 Q923 1439 1067 1335 Q1213 1228 1276 1018 Q1316 881 1316 706 Q1316 391 1181 195 Q1029 -26 704 -26 Q378 -26 226 195 Q91 391 91 704 Q91 1026 226 1218 Q381 1439 714 1439 Z M709 1293 Q517 1293 426 1129 Q340 973 340 703 Q340 440 426 284 Q516 120 703 120 Q827 120 913 198 Q1067 337 1067 707 Q1067 977 981 1129 Q888 1293 709 1293 Z " />
<glyph glyph-name="P" unicode="P" horiz-adv-x="1195" d="M434 547 L434 325 Q434 180 462 141 Q479 118 535 107 L602 95 L602 -4 Q416 4 322 4 Q230 4 45 -4 L45 95 Q73 101 87 103 Q139 112 157 128 Q194 159 194 323 L194 1090 Q194 1232 169 1272 Q154 1295 106 1306 Q97 1308 87 1310 Q73 1312 45 1318 L45 1417 Q178 1413 411 1413 L580 1413 Q882 1413 1003 1301 Q1129 1184 1129 982 Q1129 854 1077 754 Q1010 625 860 579 Q757 547 616 547 L434 547 Z M434 693 L571 693 Q747 693 812 756 Q885 827 885 976 Q885 1141 805 1211 Q741 1267 581 1267 L434 1267 L434 693 Z " />
<glyph glyph-name="Q" unicode="Q" horiz-adv-x="1406" d="M761 -24 Q780 -30 828 -50 L1033 -135 Q1100 -163 1127 -163 Q1153 -163 1177 -136 Q1183 -130 1202 -104 L1309 -162 Q1265 -245 1232 -285 Q1182 -345 1124 -345 Q1082 -345 993 -309 L806 -232 Q731 -201 705 -201 Q674 -201 639 -239 Q632 -247 611 -273 L508 -206 Q576 -104 594 -81 Q629 -41 669 -26 Q431 -12 297 112 Q91 303 91 706 Q91 1023 226 1218 Q379 1439 709 1439 Q1029 1439 1181 1218 Q1316 1022 1316 706 Q1316 460 1236 291 Q1101 3 761 -24 Z M709 1293 Q517 1293 426 1129 Q340 973 340 703 Q340 440 426 283 Q516 119 703 119 Q827 119 913 197 Q1067 337 1067 706 Q1067 977 981 1129 Q888 1293 709 1293 Z " />
<glyph glyph-name="R" unicode="R" horiz-adv-x="1247" d="M434 606 L434 325 Q434 181 459 141 Q473 118 522 107 Q532 105 542 103 Q555 101 583 95 L583 -4 Q404 4 314 4 Q224 4 45 -4 L45 95 Q72 101 86 103 Q139 113 157 128 Q194 158 194 323 L194 1076 Q194 1231 171 1272 Q157 1295 111 1306 Q102 1308 93 1310 Q80 1312 54 1318 L54 1417 Q189 1413 397 1413 L600 1413 Q886 1413 1009 1325 Q1151 1223 1151 1018 Q1151 835 1031 736 Q982 696 870 658 Q924 615 953 570 Q976 534 1016 446 L1100 263 Q1146 163 1201 129 Q1233 109 1321 95 L1321 -4 Q1170 2 1102 2 Q1046 2 954 0 Q936 90 890 193 L819 353 Q744 521 707 567 Q676 606 609 606 L434 606 Z M434 733 L626 733 Q781 733 845 802 Q907 868 907 1003 Q907 1144 839 1207 Q776 1267 618 1267 L434 1267 L434 733 Z " />
<glyph glyph-name="S" unicode="S" horiz-adv-x="1059" d="M56 26 L59 337 L196 337 Q209 243 238 197 Q287 120 475 120 Q760 120 760 341 Q760 424 723 478 Q691 525 635 554 Q580 583 495 618 Q271 710 180 796 Q80 890 80 1053 Q80 1244 201 1344 Q316 1439 540 1439 Q718 1439 904 1392 L900 1097 L761 1097 Q748 1181 723 1222 Q681 1293 542 1293 Q307 1293 307 1089 Q307 994 365 945 Q406 909 463 882 Q526 853 607 817 Q768 748 832 701 Q987 587 987 373 Q987 175 854 73 Q775 12 676 -7 Q581 -26 467 -26 Q232 -26 56 26 Z " />
<glyph glyph-name="T" unicode="T" horiz-adv-x="1248" d="M285 -4 L285 95 Q324 101 343 103 Q424 113 449 126 Q504 155 504 325 L504 1269 L358 1269 Q235 1269 204 1216 Q187 1188 171 1076 L36 1076 L39 1413 L1208 1413 L1212 1076 L1077 1076 Q1059 1188 1041 1216 Q1007 1269 876 1269 L743 1269 L743 325 Q743 180 780 141 Q801 118 875 107 Q889 105 904 103 Q923 101 962 95 L962 -4 Q736 4 623 4 Q511 4 285 -4 Z " />
<glyph glyph-name="U" unicode="U" horiz-adv-x="1417" d="M37 1318 L37 1417 Q216 1409 306 1409 Q396 1409 575 1417 L575 1318 Q547 1312 534 1310 Q481 1301 463 1285 Q426 1255 426 1088 L426 526 Q426 315 468 238 Q534 119 730 119 Q941 119 1001 260 Q1033 335 1033 526 L1033 1088 Q1033 1232 1008 1272 Q993 1295 945 1306 Q944 1306 909 1313 Q896 1315 884 1318 L884 1417 Q1050 1409 1132 1409 Q1215 1409 1381 1417 L1381 1318 Q1353 1312 1340 1310 Q1287 1301 1269 1285 Q1232 1254 1232 1088 L1232 536 Q1232 403 1222 336 Q1192 141 1058 54 Q932 -27 721 -27 Q345 -27 236 194 Q198 269 189 384 Q186 426 186 515 L186 1088 Q186 1232 161 1272 Q146 1295 98 1306 Q96 1306 62 1313 Q49 1315 37 1318 Z " />
<glyph glyph-name="V" unicode="V" horiz-adv-x="1314" d="M545 0 L157 1135 Q131 1211 119 1234 Q94 1283 45 1299 Q18 1308 -40 1318 L-40 1417 Q133 1409 222 1409 Q306 1409 478 1417 L478 1318 Q421 1306 405 1299 Q369 1285 369 1247 Q369 1220 388 1158 L560 605 Q616 423 671 223 L694 302 Q749 494 784 608 L958 1164 Q974 1216 974 1249 Q974 1286 938 1299 Q921 1305 862 1318 L862 1417 Q1026 1409 1109 1409 Q1190 1409 1354 1417 L1354 1318 Q1263 1300 1235 1281 Q1207 1262 1186 1215 Q1178 1197 1157 1134 L768 0 L545 0 Z " />
<glyph glyph-name="W" unicode="W" horiz-adv-x="1982" d="M473 0 L152 1126 Q119 1244 83 1277 Q55 1302 -34 1318 L-34 1417 Q136 1409 221 1409 Q307 1409 477 1417 L477 1318 Q460 1314 451 1312 Q402 1301 385 1289 Q367 1274 367 1246 Q367 1217 381 1161 L499 678 Q543 498 598 244 Q668 529 704 663 L907 1413 L1110 1413 L1308 669 Q1347 523 1414 244 L1438 357 Q1483 569 1506 666 L1624 1161 Q1637 1214 1637 1246 Q1637 1281 1608 1295 Q1588 1305 1524 1318 L1524 1417 Q1689 1409 1773 1409 Q1853 1409 2017 1417 L2017 1318 Q1934 1301 1908 1281 Q1865 1249 1835 1143 L1508 0 L1283 0 L1097 689 Q1053 854 1015 1010 L990 1116 L964 1011 Q916 817 881 691 L691 0 L473 0 Z " />
<glyph glyph-name="X" unicode="X" horiz-adv-x="1240" d="M480 753 L290 1078 Q198 1237 144 1274 Q108 1300 22 1318 L22 1417 Q201 1409 289 1409 Q380 1409 560 1417 L560 1318 Q493 1306 472 1296 Q441 1283 441 1259 Q441 1234 478 1171 L648 886 L822 1180 Q856 1237 856 1263 Q856 1286 828 1298 Q818 1303 757 1318 L757 1417 Q918 1409 999 1409 Q1079 1409 1239 1417 L1239 1318 Q1143 1303 1105 1276 Q1056 1242 989 1136 L740 737 L1012 285 Q1084 164 1138 130 Q1170 110 1251 95 L1251 -4 Q1067 4 976 4 Q882 4 696 -4 L696 95 Q756 105 783 118 Q812 131 812 156 Q812 188 758 281 L569 606 L363 260 Q314 178 314 151 Q314 128 341 115 Q353 110 422 95 L422 -4 Q259 4 176 4 Q96 4 -67 -4 L-67 95 Q-15 105 8 111 Q66 127 115 187 Q140 217 181 282 L480 753 Z " />
<glyph glyph-name="Y" unicode="Y" horiz-adv-x="1138" d="M273 -4 L273 95 Q306 101 323 103 Q381 112 403 128 Q446 158 446 325 L446 542 L158 1126 Q101 1243 66 1274 Q38 1300 -52 1318 L-52 1417 Q120 1409 206 1409 Q291 1409 463 1417 L463 1318 Q405 1306 384 1297 Q354 1284 354 1253 Q354 1224 387 1154 L486 946 Q516 882 585 720 Q637 842 685 943 L778 1138 Q818 1223 818 1259 Q818 1285 790 1298 Q777 1304 717 1318 L717 1417 Q877 1409 957 1409 Q1037 1409 1197 1417 L1197 1318 Q1110 1301 1081 1279 Q1047 1253 986 1131 L686 543 L686 325 Q686 180 714 141 Q732 118 787 107 Q793 106 829 100 Q844 98 859 95 L859 -4 Q664 4 566 4 Q468 4 273 -4 Z " />
<glyph glyph-name="Z" unicode="Z" horiz-adv-x="1090" d="M20 0 L16 119 L764 1263 L393 1263 Q272 1263 240 1216 Q224 1192 207 1088 L66 1088 L70 1413 L1025 1413 L1036 1293 L282 150 L727 150 Q861 150 893 198 Q912 228 926 337 L1067 337 L1063 0 L20 0 Z " />
<glyph glyph-name="bracketleft" unicode="&#x5b;" horiz-adv-x="829" d="M633 1555 L633 1442 L499 1442 L499 -249 L633 -249 L633 -363 L270 -363 L270 1555 L633 1555 Z " />
<glyph glyph-name="backslash" unicode="&#x5c;" horiz-adv-x="572" d="M332 0 L16 1413 L239 1413 L555 0 L332 0 Z " />
<glyph glyph-name="bracketright" unicode="&#x5d;" horiz-adv-x="829" d="M196 -363 L196 -249 L330 -249 L330 1442 L196 1442 L196 1555 L559 1555 L559 -363 L196 -363 Z " />
<glyph glyph-name="asciicircum" unicode="&#x5e;" horiz-adv-x="1163" d="M581 1170 L308 694 L63 694 L524 1438 L638 1438 L1100 694 L855 694 L581 1170 Z " />
<glyph glyph-name="underscore" unicode="&#x5f;" horiz-adv-x="1180" d="M-9 -423 L-9 -296 L1191 -296 L1191 -423 L-9 -423 Z " />
<glyph glyph-name="grave" unicode="&#x60;" horiz-adv-x="1024" d="M487 1147 L225 1421 L500 1421 L659 1147 L487 1147 Z " />
<glyph glyph-name="a" unicode="a" horiz-adv-x="1097" d="M692 619 L692 647 Q692 738 674 785 Q640 873 504 873 Q397 873 351 826 Q321 796 310 727 L173 727 L170 968 Q351 1009 508 1009 Q682 1009 771 960 Q891 895 912 758 Q920 702 920 575 L920 327 Q920 182 944 142 Q958 117 1008 105 Q1016 103 1062 95 L1062 -4 Q926 2 862 2 Q817 2 736 0 Q720 43 712 127 Q606 -26 389 -26 Q238 -26 156 46 Q76 116 76 257 Q76 514 357 586 Q459 612 692 619 Z M693 502 Q558 497 472 479 Q304 442 304 271 Q304 106 451 106 Q577 106 650 206 Q683 252 690 306 Q693 331 693 381 L693 502 Z " />
<glyph glyph-name="b" unicode="b" horiz-adv-x="1123" d="M381 902 Q428 944 460 962 Q541 1009 653 1009 Q853 1009 952 856 Q1040 721 1040 506 Q1040 281 950 150 Q895 70 805 28 Q690 -26 557 -26 Q352 -26 141 59 Q154 198 154 441 L154 1087 Q154 1229 134 1277 Q121 1309 85 1315 Q71 1318 32 1318 L32 1417 Q229 1432 381 1483 L381 902 Z M381 155 Q463 113 555 113 Q693 113 754 235 Q806 341 806 503 Q806 669 755 769 Q704 870 603 870 Q488 870 422 752 Q393 701 385 643 Q381 614 381 552 L381 155 Z " />
<glyph glyph-name="c" unicode="c" horiz-adv-x="895" d="M836 191 L879 45 Q736 -26 566 -26 Q330 -26 209 106 Q84 241 84 479 Q84 743 226 888 Q345 1009 560 1009 Q688 1009 845 968 L842 668 L702 668 Q698 738 686 782 Q661 873 556 873 Q445 873 384 771 Q318 663 318 487 Q318 113 603 113 Q718 113 836 191 Z " />
<glyph glyph-name="d" unicode="d" horiz-adv-x="1146" d="M743 968 L743 1087 Q743 1248 718 1287 Q705 1307 682 1314 Q665 1318 621 1318 L621 1417 Q817 1431 970 1483 L970 329 Q970 182 994 142 Q1008 117 1058 105 Q1067 103 1112 95 L1112 -4 Q979 2 914 2 Q874 2 796 0 Q779 42 771 125 Q653 -26 469 -26 Q270 -26 172 119 Q85 248 85 460 Q85 692 190 843 Q305 1009 538 1009 Q642 1009 743 968 Z M743 816 Q653 870 567 870 Q432 870 371 742 Q319 632 319 462 Q319 307 364 214 Q413 113 521 113 Q590 113 648 164 Q707 216 731 301 Q743 346 743 431 L743 816 Z " />
<glyph glyph-name="e" unicode="e" horiz-adv-x="1056" d="M976 455 L313 455 Q316 327 346 258 Q409 113 631 113 Q787 113 917 185 L954 41 Q801 -26 586 -26 Q330 -26 211 94 Q84 222 84 470 Q84 702 187 844 Q306 1009 552 1009 Q978 1009 978 537 Q978 526 976 455 Z M758 591 Q754 696 728 763 Q686 870 554 870 Q412 870 353 740 Q323 675 316 591 L758 591 Z " />
<glyph glyph-name="f" unicode="f" horiz-adv-x="727" d="M193 837 L19 837 L24 983 L193 983 L193 1110 Q193 1281 265 1363 Q353 1463 557 1463 Q647 1463 756 1444 L734 1275 Q661 1326 585 1326 Q484 1326 446 1258 Q420 1212 420 1107 L420 983 L707 983 L702 837 L420 837 L420 324 Q420 179 451 141 Q471 117 538 106 Q540 105 581 99 Q594 97 607 95 L607 -4 Q421 4 328 4 Q236 4 51 -4 L51 95 Q70 100 80 101 Q141 112 158 128 Q193 160 193 324 L193 837 Z " />
<glyph glyph-name="g" unicode="g" horiz-adv-x="1117" d="M730 90 Q687 45 657 25 Q579 -28 470 -28 Q339 -28 243 44 Q84 163 84 464 Q84 725 218 875 Q337 1009 566 1009 Q633 1009 858 994 Q909 991 1068 987 L1068 888 Q996 874 979 850 Q957 817 957 668 L957 102 Q957 -82 938 -186 Q885 -478 492 -478 Q320 -478 172 -431 L195 -256 Q323 -339 486 -339 Q645 -339 695 -241 Q730 -174 730 1 L730 90 Z M730 830 Q645 870 557 870 Q430 870 372 752 Q318 642 318 466 Q318 301 366 207 Q415 111 520 111 Q631 111 693 231 Q730 303 730 431 L730 830 Z " />
<glyph glyph-name="h" unicode="h" horiz-adv-x="1236" d="M47 -4 L47 95 Q65 99 74 100 Q135 110 154 127 Q189 158 189 324 L189 1085 Q189 1227 169 1275 Q156 1306 120 1313 Q106 1316 67 1316 L67 1415 Q263 1429 416 1481 L416 849 Q568 1009 752 1009 Q950 1009 1020 874 Q1059 800 1059 634 L1059 327 Q1059 165 1089 131 Q1103 116 1132 109 Q1141 107 1166 102 Q1177 100 1197 95 L1197 -4 Q1034 4 952 4 Q871 4 708 -4 L708 95 Q729 100 739 102 Q785 111 802 129 Q832 161 832 327 L832 618 Q832 741 810 789 Q777 860 686 860 Q574 860 469 738 Q434 697 424 662 Q416 634 416 590 L416 327 Q416 164 443 131 Q460 111 539 95 L539 -4 Q375 4 294 4 Q211 4 47 -4 Z " />
<glyph glyph-name="i" unicode="i" horiz-adv-x="601" d="M47 -4 L47 95 Q64 98 72 100 Q134 110 154 128 Q189 159 189 327 L189 667 Q189 827 157 863 Q138 884 62 884 L62 983 Q281 991 416 1008 L416 327 Q416 180 440 141 Q455 116 506 105 Q511 103 558 95 L558 -4 Q388 4 302 4 Q217 4 47 -4 Z M280 1414 Q340 1414 380 1374 Q421 1334 421 1278 Q421 1223 380 1182 Q340 1142 280 1142 Q219 1142 179 1182 Q138 1223 138 1280 Q138 1335 179 1374 Q220 1414 280 1414 Z " />
<glyph glyph-name="j" unicode="j" horiz-adv-x="599" d="M91 884 L91 983 Q308 991 444 1008 L444 121 Q444 -171 397 -295 Q327 -478 63 -478 Q-60 -478 -150 -449 L-128 -288 Q-39 -339 40 -339 Q167 -339 195 -223 Q217 -135 217 67 L217 667 Q217 827 185 863 Q166 884 91 884 Z M307 1414 Q368 1414 408 1374 Q449 1334 449 1278 Q449 1223 408 1182 Q368 1142 308 1142 Q247 1142 207 1182 Q166 1223 166 1280 Q166 1335 207 1374 Q248 1414 307 1414 Z " />
<glyph glyph-name="k" unicode="k" horiz-adv-x="1149" d="M47 -4 L47 95 Q65 99 74 100 Q135 110 154 127 Q189 158 189 327 L189 1091 Q189 1230 169 1277 Q156 1309 120 1315 Q106 1318 67 1318 L67 1417 Q263 1431 416 1483 L416 619 L432 619 Q490 619 531 636 Q569 651 620 701 L715 793 Q739 817 739 844 Q739 866 709 878 Q697 883 660 892 L660 987 Q812 979 889 979 Q963 979 1114 987 L1114 888 Q1033 875 990 849 Q960 830 914 784 Q906 776 884 752 Q867 734 865 732 L739 606 L924 297 Q1008 157 1062 126 Q1098 105 1161 95 L1161 -4 Q1038 3 978 3 Q924 3 817 -2 Q795 70 780 103 Q724 230 722 233 L644 366 Q596 460 566 483 Q530 511 465 511 L416 511 L416 327 Q416 183 437 142 Q449 116 493 105 Q499 103 539 95 L539 -4 Q375 4 294 4 Q211 4 47 -4 Z " />
<glyph glyph-name="l" unicode="l" horiz-adv-x="605" d="M47 -4 L47 95 Q64 98 73 100 Q135 110 154 127 Q189 158 189 327 L189 1091 Q189 1230 169 1277 Q156 1309 120 1315 Q106 1318 67 1318 L67 1417 Q263 1431 416 1483 L416 327 Q416 182 440 141 Q454 116 505 105 Q508 104 539 99 Q549 97 558 95 L558 -4 Q388 4 303 4 Q217 4 47 -4 Z " />
<glyph glyph-name="m" unicode="m" horiz-adv-x="1796" d="M47 -4 L47 95 Q64 98 73 100 Q135 110 154 128 Q189 159 189 327 L189 667 Q189 828 156 863 Q138 884 62 884 L62 983 Q257 991 383 1008 Q398 934 402 834 Q545 1009 733 1009 Q952 1009 1000 826 Q1143 1009 1337 1009 Q1519 1009 1586 874 Q1622 800 1622 634 L1622 327 Q1622 164 1652 131 Q1666 115 1697 107 Q1705 105 1757 95 L1757 -4 Q1597 4 1516 4 Q1437 4 1277 -4 L1277 95 Q1295 99 1304 101 Q1350 111 1367 129 Q1395 160 1395 327 L1395 618 Q1395 741 1377 788 Q1349 860 1270 860 Q1161 860 1064 727 Q1032 684 1024 645 Q1020 625 1020 575 L1020 327 Q1020 166 1046 131 Q1058 116 1084 109 Q1088 108 1114 102 Q1123 99 1139 95 L1139 -4 Q984 4 906 4 Q828 4 673 -4 L673 95 Q689 99 697 100 Q748 110 764 129 Q793 161 793 327 L793 618 Q793 741 774 789 Q746 860 667 860 Q558 860 460 727 Q428 684 420 642 Q416 620 416 580 L416 327 Q416 164 443 131 Q456 115 483 107 Q495 104 536 95 L536 -4 Q373 4 293 4 Q210 4 47 -4 Z " />
<glyph glyph-name="n" unicode="n" horiz-adv-x="1227" d="M47 -4 L47 95 Q68 99 79 101 Q134 110 154 128 Q189 158 189 327 L189 648 Q189 827 157 863 Q137 884 62 884 L62 983 Q257 991 383 1008 Q398 934 402 834 Q553 1009 749 1009 Q942 1009 1011 874 Q1049 799 1049 634 L1049 327 Q1049 182 1072 141 Q1086 116 1134 106 Q1143 104 1153 102 Q1165 100 1188 95 L1188 -4 Q1025 4 942 4 Q862 4 699 -4 L699 95 Q753 105 773 114 Q808 131 815 192 Q822 258 822 327 L822 618 Q822 741 801 789 Q770 860 683 860 Q566 860 462 727 Q428 683 420 645 Q416 621 416 582 L416 327 Q416 183 437 142 Q449 116 494 105 Q498 104 539 95 L539 -4 Q375 4 294 4 Q211 4 47 -4 Z " />
<glyph glyph-name="o" unicode="o" horiz-adv-x="1111" d="M563 1009 Q781 1009 909 863 Q1028 726 1028 492 Q1028 258 909 120 Q782 -26 556 -26 Q330 -26 203 121 Q84 259 84 490 Q84 729 203 863 Q334 1009 563 1009 Z M560 870 Q431 870 371 753 Q318 648 318 491 Q318 336 370 231 Q429 113 556 113 Q683 113 742 231 Q794 337 794 492 Q794 651 742 753 Q681 870 560 870 Z " />
<glyph glyph-name="p" unicode="p" horiz-adv-x="1150" d="M408 11 L408 -135 Q408 -281 437 -318 Q457 -343 524 -355 Q525 -355 584 -364 L584 -463 Q402 -455 309 -455 Q220 -455 39 -463 L39 -364 Q59 -360 68 -358 Q145 -343 160 -313 Q181 -269 181 -132 L181 649 Q181 796 161 843 Q148 874 113 881 Q97 884 54 884 L54 983 Q248 991 375 1008 Q388 942 391 880 Q507 1009 679 1009 Q886 1009 983 855 Q1067 720 1067 504 Q1067 280 977 151 Q924 74 833 28 Q727 -26 607 -26 Q505 -26 408 11 Z M408 171 Q493 113 587 113 Q721 113 781 235 Q833 341 833 500 Q833 659 785 764 Q736 870 629 870 Q561 870 503 819 Q444 767 420 682 Q408 639 408 563 L408 171 Z " />
<glyph glyph-name="q" unicode="q" horiz-adv-x="1132" d="M741 90 Q635 -26 474 -26 Q340 -26 244 47 Q84 168 84 464 Q84 725 219 871 Q345 1009 593 1009 Q650 1009 871 993 Q916 990 1079 985 L1079 886 Q1007 871 990 847 Q968 815 968 633 L968 -132 Q968 -278 991 -318 Q1005 -343 1053 -354 Q1057 -355 1105 -364 L1105 -463 Q923 -455 834 -455 Q741 -455 559 -463 L559 -364 Q585 -360 598 -359 Q671 -349 696 -333 Q741 -303 741 -132 L741 90 Z M741 830 Q664 870 577 870 Q441 870 377 753 Q318 643 318 466 Q318 309 364 215 Q414 113 524 113 Q639 113 703 232 Q731 283 738 340 Q741 362 741 431 L741 830 Z " />
<glyph glyph-name="r" unicode="r" horiz-adv-x="830" d="M47 -4 L47 95 Q68 99 79 101 Q134 110 154 128 Q189 159 189 327 L189 649 Q189 796 169 843 Q156 874 121 881 Q105 884 62 884 L62 983 Q257 991 383 1008 Q398 929 402 824 Q456 914 490 946 Q556 1009 647 1009 Q723 1009 815 977 L811 719 L674 719 Q672 727 667 770 Q655 857 588 857 Q514 857 457 728 Q426 659 420 608 Q416 574 416 527 L416 325 Q416 178 452 140 Q474 116 551 105 Q565 103 631 95 L631 -4 Q435 4 334 4 Q241 4 47 -4 Z " />
<glyph glyph-name="s" unicode="s" horiz-adv-x="921" d="M79 17 L82 296 L219 296 Q228 213 253 173 Q294 110 428 110 Q651 110 651 242 Q651 301 602 335 Q558 364 413 413 Q233 473 162 541 Q96 605 96 714 Q96 863 199 939 Q294 1008 468 1008 Q617 1008 797 968 L794 702 L656 702 Q649 772 631 805 Q593 873 472 873 Q393 873 351 844 Q304 811 304 749 Q304 681 369 648 Q403 630 546 579 Q677 532 727 501 Q807 452 837 385 Q859 335 859 268 Q859 115 752 45 Q644 -26 431 -26 Q255 -26 79 17 Z " />
<glyph glyph-name="t" unicode="t" horiz-adv-x="749" d="M181 837 L8 837 L14 983 L44 983 Q175 983 218 1066 Q254 1137 276 1309 L408 1309 L408 983 L720 983 L714 837 L408 837 L408 352 Q408 219 430 171 Q458 113 537 113 Q617 113 697 143 L716 4 Q604 -26 474 -26 Q286 -26 224 79 Q181 152 181 327 L181 837 Z " />
<glyph glyph-name="u" unicode="u" horiz-adv-x="1174" d="M37 884 L37 983 Q267 991 402 1008 L402 374 Q402 250 424 196 Q453 124 540 124 Q681 124 770 270 L770 649 Q770 796 749 843 Q735 874 698 881 Q681 884 635 884 L635 983 Q858 991 997 1008 L997 327 Q997 187 1019 145 Q1034 117 1085 105 Q1094 103 1139 95 L1139 -4 Q1005 2 945 2 Q896 2 815 0 Q799 42 790 119 Q659 -26 477 -26 Q281 -26 212 121 Q175 199 175 376 L175 649 Q175 829 140 863 Q119 884 37 884 Z " />
<glyph glyph-name="v" unicode="v" horiz-adv-x="1021" d="M392 0 L136 725 Q99 829 69 852 Q43 873 -41 884 L-41 983 Q118 975 197 975 Q276 975 435 983 L436 884 Q378 875 359 866 Q334 853 334 829 Q334 804 362 720 L522 229 L682 714 Q710 798 710 834 Q710 857 685 868 Q667 875 606 884 L606 983 Q757 975 832 975 Q908 975 1060 983 L1060 884 Q976 874 948 852 Q921 829 883 724 L620 0 L392 0 Z " />
<glyph glyph-name="w" unicode="w" horiz-adv-x="1565" d="M371 0 L128 725 Q94 827 61 852 Q35 873 -49 884 L-49 983 Q110 975 189 975 Q269 975 428 983 L428 884 Q372 876 349 865 Q326 854 326 831 Q326 810 344 751 L418 487 L437 416 L457 345 L474 280 L490 222 Q537 429 563 523 L690 983 L898 983 L1025 509 Q1048 426 1094 222 L1111 282 L1128 342 L1147 406 L1163 464 L1242 740 Q1260 803 1260 834 Q1260 858 1235 868 Q1218 875 1157 884 L1157 983 Q1308 975 1384 975 Q1460 975 1612 983 L1612 884 Q1518 870 1495 848 Q1469 824 1431 714 L1183 0 L970 0 L839 489 Q814 584 779 747 Q737 557 717 487 L582 0 L371 0 Z " />
<glyph glyph-name="x" unicode="x" horiz-adv-x="1044" d="M395 524 L261 718 Q240 750 193 802 Q126 879 12 884 L14 983 Q170 975 248 975 Q326 975 482 983 L482 884 Q406 871 406 841 Q406 819 445 771 L550 618 L656 772 Q688 819 688 843 Q688 871 620 884 L620 983 Q757 975 825 975 Q894 975 1032 983 L1032 884 Q940 872 908 848 Q866 818 801 724 L646 499 L816 257 Q893 147 948 119 Q976 105 1053 95 L1052 -4 Q891 4 812 4 Q730 4 569 -4 L569 95 Q656 111 656 143 Q656 169 615 222 L488 406 L358 218 Q318 162 318 144 Q318 119 347 108 Q366 101 393 95 L393 -4 Q254 4 183 4 Q114 4 -25 -4 L-25 95 Q62 107 104 139 Q145 169 207 257 L395 524 Z " />
<glyph glyph-name="y" unicode="y" horiz-adv-x="1025" d="M398 0 L141 716 Q102 826 77 848 Q53 871 -39 884 L-39 983 Q120 975 199 975 Q278 975 437 983 L438 884 Q374 874 355 865 Q335 856 335 834 Q335 807 359 735 L541 155 L707 730 Q731 814 731 833 Q731 861 698 871 Q680 876 625 884 L625 983 Q776 975 851 975 Q928 975 1080 983 L1080 884 Q995 872 970 853 Q933 825 902 727 L687 47 Q597 -237 526 -336 Q424 -477 216 -477 Q123 -477 49 -455 L71 -297 Q148 -338 225 -338 Q294 -338 337 -303 Q400 -252 464 -63 L486 0 L398 0 Z " />
<glyph glyph-name="z" unicode="z" horiz-adv-x="965" d="M47 0 L45 111 L630 845 L360 845 Q278 845 255 808 Q243 788 228 693 L91 693 L95 983 L892 983 L896 871 L312 138 L620 138 Q713 138 735 177 Q746 197 762 296 L900 296 L900 0 L47 0 Z " />
<glyph glyph-name="braceleft" unicode="&#x7b;" horiz-adv-x="838" d="M350 646 Q452 606 483 567 Q514 527 521 461 Q523 442 523 319 L523 63 Q523 -54 530 -125 Q540 -222 598 -250 Q642 -272 722 -272 L768 -272 L768 -363 L618 -363 Q408 -363 341 -268 Q304 -215 295 -116 Q292 -75 292 45 L292 345 Q292 476 284 517 Q267 616 147 616 L118 616 L118 681 L147 681 Q230 681 264 728 Q286 759 290 830 Q292 852 292 953 L292 1147 Q292 1306 304 1369 Q326 1482 416 1521 Q492 1555 618 1555 L768 1555 L768 1464 L722 1464 Q585 1464 551 1396 Q530 1353 525 1260 Q523 1206 523 1128 L523 979 Q523 831 514 798 Q495 723 417 679 Q396 667 350 646 Z " />
<glyph glyph-name="bar" unicode="&#x7c;" horiz-adv-x="1180" d="M480 -423 L480 1413 L695 1413 L695 -423 L480 -423 Z " />
<glyph glyph-name="braceright" unicode="&#x7d;" horiz-adv-x="838" d="M488 646 Q386 692 355 731 Q323 771 317 836 Q315 856 315 979 L315 1128 Q315 1244 308 1316 Q298 1412 242 1441 Q197 1464 116 1464 L70 1464 L70 1555 L219 1555 Q431 1555 497 1460 Q534 1407 543 1308 Q547 1267 547 1147 L547 953 Q547 822 554 780 Q571 681 691 681 L720 681 L720 616 L691 616 Q608 616 575 569 Q553 538 548 467 Q547 446 547 345 L547 45 Q547 -114 534 -178 Q512 -290 422 -329 Q345 -363 219 -363 L70 -363 L70 -272 L116 -272 Q252 -272 286 -204 Q307 -162 312 -69 Q315 -11 315 63 L315 319 Q315 466 323 500 Q343 578 421 618 Q443 628 488 646 Z " />
<glyph glyph-name="asciitilde" unicode="&#x7e;" horiz-adv-x="1180" d="M292 561 L155 595 Q187 703 221 754 Q294 859 434 859 Q504 859 555 833 Q585 818 640 778 Q696 738 710 730 Q744 709 777 709 Q839 709 879 781 Q892 805 910 857 L1047 823 Q1016 717 983 668 Q908 560 767 560 Q686 560 616 603 Q588 621 517 673 Q467 710 424 710 Q366 710 326 642 Q312 618 292 561 Z " />
<glyph glyph-name="Adieresis" unicode="&#xc4;" horiz-adv-x="1457" d="M988 412 L431 412 L375 255 Q355 200 355 165 Q355 127 392 113 Q410 107 468 95 L468 -4 Q304 4 222 4 Q141 4 -22 -4 L-22 95 Q75 112 103 136 Q135 163 177 278 L619 1413 L846 1413 L1281 279 Q1314 191 1332 165 Q1358 126 1411 111 Q1436 104 1484 95 L1484 -4 Q1307 4 1219 4 Q1129 4 951 -4 L951 95 Q1018 109 1035 117 Q1064 130 1064 163 Q1064 197 1046 248 L988 412 Z M936 558 L711 1186 L483 558 L936 558 Z M531 1822 Q587 1822 626 1784 Q664 1747 664 1694 Q664 1642 626 1604 Q587 1566 531 1566 Q474 1566 435 1604 Q397 1642 397 1695 Q397 1747 435 1784 Q475 1822 531 1822 Z M930 1822 Q986 1822 1025 1784 Q1063 1747 1063 1694 Q1063 1642 1025 1604 Q986 1566 930 1566 Q873 1566 834 1604 Q796 1642 796 1695 Q796 1747 834 1784 Q874 1822 930 1822 Z " />
<glyph glyph-name="Aring" unicode="&#xc5;" horiz-adv-x="1457" d="M988 412 L431 412 L375 255 Q355 200 355 165 Q355 127 392 113 Q410 107 468 95 L468 -4 Q304 4 222 4 Q141 4 -22 -4 L-22 95 Q75 112 103 136 Q135 163 177 278 L619 1413 L846 1413 L1281 279 Q1314 191 1332 165 Q1358 126 1411 111 Q1436 104 1484 95 L1484 -4 Q1307 4 1219 4 Q1129 4 951 -4 L951 95 Q1018 109 1035 117 Q1064 130 1064 163 Q1064 197 1046 248 L988 412 Z M936 558 L711 1186 L483 558 L936 558 Z M732 1948 Q836 1948 900 1888 Q962 1830 962 1743 Q962 1657 900 1598 Q835 1537 728 1537 Q621 1537 556 1598 Q494 1657 494 1743 Q494 1832 556 1888 Q621 1948 732 1948 Z M729 1874 Q682 1874 655 1836 Q631 1801 631 1742 Q631 1684 655 1649 Q682 1611 728 1611 Q774 1611 801 1649 Q825 1683 825 1742 Q825 1803 801 1836 Q774 1874 729 1874 Z " />
<glyph glyph-name="Ccedilla" unicode="&#xc7;" horiz-adv-x="1187" d="M978 337 L1116 337 L1119 26 Q951 -23 728 -25 L653 -136 Q755 -144 805 -168 Q897 -210 897 -330 Q897 -434 821 -488 Q751 -537 632 -537 Q527 -537 427 -507 L452 -404 Q537 -437 597 -437 Q701 -437 701 -332 Q701 -212 577 -212 Q553 -212 521 -216 L507 -181 L613 -18 Q432 4 320 90 Q91 264 91 684 Q91 930 169 1105 Q258 1304 433 1384 Q552 1439 731 1439 Q904 1439 1098 1392 L1095 1081 L951 1081 Q942 1167 917 1211 Q871 1293 727 1293 Q530 1293 436 1130 Q340 963 340 695 Q340 437 426 285 Q516 124 736 124 Q889 124 936 198 Q964 242 978 337 Z " />
<glyph glyph-name="Eacute" unicode="&#xc9;" horiz-adv-x="1191" d="M45 -4 L45 96 Q73 101 87 104 Q139 113 157 128 Q194 159 194 325 L194 1071 Q194 1231 169 1271 Q155 1295 106 1306 Q103 1306 70 1313 Q57 1315 45 1317 L45 1417 Q232 1413 308 1413 L1134 1413 L1138 1088 L997 1088 Q980 1193 964 1216 Q932 1263 803 1263 L434 1263 L434 799 L663 799 Q747 799 771 836 Q792 867 794 956 L929 956 Q924 805 924 732 Q924 654 929 503 L794 503 Q792 598 771 632 Q747 671 663 671 L434 671 L434 251 Q434 198 457 174 Q480 150 530 150 L799 150 Q941 150 972 198 Q990 226 1006 337 L1147 337 L1143 0 L364 0 Q307 0 45 -4 Z M543 1556 L702 1831 L977 1831 L715 1556 L543 1556 Z " />
<glyph glyph-name="Ntilde" unicode="&#xd1;" horiz-adv-x="1467" d="M45 -4 L45 95 Q73 101 87 103 Q139 113 157 128 Q194 159 194 325 L194 1090 Q194 1232 169 1272 Q154 1295 106 1306 Q104 1306 70 1313 Q57 1315 45 1318 L45 1417 Q214 1409 297 1409 Q359 1409 479 1413 L885 694 Q911 649 1088 292 Q1082 449 1082 605 L1082 1091 Q1082 1232 1057 1272 Q1043 1295 994 1306 Q993 1306 959 1313 Q946 1315 934 1318 L934 1417 Q1098 1409 1180 1409 Q1263 1409 1428 1417 L1428 1318 Q1400 1312 1386 1310 Q1333 1301 1314 1285 Q1277 1254 1277 1091 L1277 0 L1045 -13 L563 835 Q557 845 463 1033 Q411 1139 383 1192 Q389 1007 389 863 L389 325 Q389 182 414 141 Q429 118 477 107 Q487 105 497 103 Q511 101 538 95 L538 -4 Q374 4 292 4 Q210 4 45 -4 Z M548 1560 L391 1560 Q416 1685 453 1745 Q516 1845 625 1845 Q683 1845 735 1817 Q763 1802 817 1755 Q875 1703 902 1703 Q941 1703 960 1761 Q968 1788 975 1834 L1133 1834 Q1120 1717 1086 1654 Q1028 1546 896 1546 Q823 1546 768 1585 Q756 1594 704 1640 Q649 1688 624 1688 Q590 1688 567 1632 Q560 1615 548 1560 Z " />
<glyph glyph-name="Odieresis" unicode="&#xd6;" horiz-adv-x="1406" d="M714 1439 Q923 1439 1067 1335 Q1213 1228 1276 1018 Q1316 881 1316 706 Q1316 391 1181 195 Q1029 -26 704 -26 Q378 -26 226 195 Q91 391 91 704 Q91 1026 226 1218 Q381 1439 714 1439 Z M709 1293 Q517 1293 426 1129 Q340 973 340 703 Q340 440 426 284 Q516 120 703 120 Q827 120 913 198 Q1067 337 1067 707 Q1067 977 981 1129 Q888 1293 709 1293 Z M505 1822 Q561 1822 600 1784 Q638 1747 638 1694 Q638 1642 600 1604 Q561 1566 505 1566 Q448 1566 409 1604 Q371 1642 371 1695 Q371 1747 409 1784 Q449 1822 505 1822 Z M904 1822 Q960 1822 999 1784 Q1037 1747 1037 1694 Q1037 1642 999 1604 Q960 1566 904 1566 Q847 1566 808 1604 Q770 1642 770 1695 Q770 1747 808 1784 Q848 1822 904 1822 Z " />
<glyph glyph-name="Udieresis" unicode="&#xdc;" horiz-adv-x="1417" d="M37 1318 L37 1417 Q216 1409 306 1409 Q396 1409 575 1417 L575 1318 Q547 1312 534 1310 Q481 1301 463 1285 Q426 1255 426 1088 L426 526 Q426 315 468 238 Q534 119 730 119 Q941 119 1001 260 Q1033 335 1033 526 L1033 1088 Q1033 1232 1008 1272 Q993 1295 945 1306 Q944 1306 909 1313 Q896 1315 884 1318 L884 1417 Q1050 1409 1132 1409 Q1215 1409 1381 1417 L1381 1318 Q1353 1312 1340 1310 Q1287 1301 1269 1285 Q1232 1254 1232 1088 L1232 536 Q1232 403 1222 336 Q1192 141 1058 54 Q932 -27 721 -27 Q345 -27 236 194 Q198 269 189 384 Q186 426 186 515 L186 1088 Q186 1232 161 1272 Q146 1295 98 1306 Q96 1306 62 1313 Q49 1315 37 1318 Z M528 1822 Q584 1822 623 1784 Q661 1747 661 1694 Q661 1642 623 1604 Q584 1566 528 1566 Q471 1566 432 1604 Q394 1642 394 1695 Q394 1747 432 1784 Q472 1822 528 1822 Z M927 1822 Q983 1822 1022 1784 Q1060 1747 1060 1694 Q1060 1642 1022 1604 Q983 1566 927 1566 Q870 1566 831 1604 Q793 1642 793 1695 Q793 1747 831 1784 Q871 1822 927 1822 Z " />
<glyph glyph-name="aacute" unicode="&#xe1;" horiz-adv-x="1097" d="M692 619 L692 647 Q692 738 674 785 Q640 873 504 873 Q397 873 351 826 Q321 796 310 727 L173 727 L170 968 Q351 1009 508 1009 Q682 1009 771 960 Q891 895 912 758 Q920 702 920 575 L920 327 Q920 182 944 142 Q958 117 1008 105 Q1016 103 1062 95 L1062 -4 Q926 2 862 2 Q817 2 736 0 Q720 43 712 127 Q606 -26 389 -26 Q238 -26 156 46 Q76 116 76 257 Q76 514 357 586 Q459 612 692 619 Z M693 502 Q558 497 472 479 Q304 442 304 271 Q304 106 451 106 Q577 106 650 206 Q683 252 690 306 Q693 331 693 381 L693 502 Z M411 1147 L570 1421 L845 1421 L583 1147 L411 1147 Z " />
<glyph glyph-name="agrave" unicode="&#xe0;" horiz-adv-x="1097" d="M692 619 L692 647 Q692 738 674 785 Q640 873 504 873 Q397 873 351 826 Q321 796 310 727 L173 727 L170 968 Q351 1009 508 1009 Q682 1009 771 960 Q891 895 912 758 Q920 702 920 575 L920 327 Q920 182 944 142 Q958 117 1008 105 Q1016 103 1062 95 L1062 -4 Q926 2 862 2 Q817 2 736 0 Q720 43 712 127 Q606 -26 389 -26 Q238 -26 156 46 Q76 116 76 257 Q76 514 357 586 Q459 612 692 619 Z M693 502 Q558 497 472 479 Q304 442 304 271 Q304 106 451 106 Q577 106 650 206 Q683 252 690 306 Q693 331 693 381 L693 502 Z M524 1147 L262 1421 L537 1421 L696 1147 L524 1147 Z " />
<glyph glyph-name="acircumflex" unicode="&#xe2;" horiz-adv-x="1097" d="M692 619 L692 647 Q692 738 674 785 Q640 873 504 873 Q397 873 351 826 Q321 796 310 727 L173 727 L170 968 Q351 1009 508 1009 Q682 1009 771 960 Q891 895 912 758 Q920 702 920 575 L920 327 Q920 182 944 142 Q958 117 1008 105 Q1016 103 1062 95 L1062 -4 Q926 2 862 2 Q817 2 736 0 Q720 43 712 127 Q606 -26 389 -26 Q238 -26 156 46 Q76 116 76 257 Q76 514 357 586 Q459 612 692 619 Z M693 502 Q558 497 472 479 Q304 442 304 271 Q304 106 451 106 Q577 106 650 206 Q683 252 690 306 Q693 331 693 381 L693 502 Z M534 1309 L360 1147 L177 1147 L400 1421 L668 1421 L891 1147 L707 1147 L534 1309 Z " />
<glyph glyph-name="adieresis" unicode="&#xe4;" horiz-adv-x="1097" d="M692 619 L692 647 Q692 738 674 785 Q640 873 504 873 Q397 873 351 826 Q321 796 310 727 L173 727 L170 968 Q351 1009 508 1009 Q682 1009 771 960 Q891 895 912 758 Q920 702 920 575 L920 327 Q920 182 944 142 Q958 117 1008 105 Q1016 103 1062 95 L1062 -4 Q926 2 862 2 Q817 2 736 0 Q720 43 712 127 Q606 -26 389 -26 Q238 -26 156 46 Q76 116 76 257 Q76 514 357 586 Q459 612 692 619 Z M693 502 Q558 497 472 479 Q304 442 304 271 Q304 106 451 106 Q577 106 650 206 Q683 252 690 306 Q693 331 693 381 L693 502 Z M362 1408 Q418 1408 457 1370 Q495 1333 495 1280 Q495 1228 457 1190 Q418 1152 362 1152 Q305 1152 266 1190 Q228 1228 228 1282 Q228 1333 266 1370 Q306 1408 362 1408 Z M737 1408 Q793 1408 832 1370 Q870 1333 870 1280 Q870 1228 832 1190 Q793 1152 737 1152 Q680 1152 641 1190 Q603 1227 603 1282 Q603 1334 641 1370 Q681 1408 737 1408 Z " />
<glyph glyph-name="atilde" unicode="&#xe3;" horiz-adv-x="1097" d="M692 619 L692 647 Q692 738 674 785 Q640 873 504 873 Q397 873 351 826 Q321 796 310 727 L173 727 L170 968 Q351 1009 508 1009 Q682 1009 771 960 Q891 895 912 758 Q920 702 920 575 L920 327 Q920 182 944 142 Q958 117 1008 105 Q1016 103 1062 95 L1062 -4 Q926 2 862 2 Q817 2 736 0 Q720 43 712 127 Q606 -26 389 -26 Q238 -26 156 46 Q76 116 76 257 Q76 514 357 586 Q459 612 692 619 Z M693 502 Q558 497 472 479 Q304 442 304 271 Q304 106 451 106 Q577 106 650 206 Q683 252 690 306 Q693 331 693 381 L693 502 Z M317 1150 L160 1150 Q185 1275 222 1334 Q285 1435 394 1435 Q451 1435 504 1407 Q532 1392 586 1345 Q644 1293 671 1293 Q710 1293 729 1351 Q737 1378 744 1424 L902 1424 Q889 1307 855 1244 Q796 1136 665 1136 Q592 1136 537 1175 Q525 1184 473 1229 Q418 1278 393 1278 Q359 1278 336 1222 Q330 1205 317 1150 Z " />
<glyph glyph-name="aring" unicode="&#xe5;" horiz-adv-x="1097" d="M692 619 L692 647 Q692 738 674 785 Q640 873 504 873 Q397 873 351 826 Q321 796 310 727 L173 727 L170 968 Q351 1009 508 1009 Q682 1009 771 960 Q891 895 912 758 Q920 702 920 575 L920 327 Q920 182 944 142 Q958 117 1008 105 Q1016 103 1062 95 L1062 -4 Q926 2 862 2 Q817 2 736 0 Q720 43 712 127 Q606 -26 389 -26 Q238 -26 156 46 Q76 116 76 257 Q76 514 357 586 Q459 612 692 619 Z M693 502 Q558 497 472 479 Q304 442 304 271 Q304 106 451 106 Q577 106 650 206 Q683 252 690 306 Q693 331 693 381 L693 502 Z M572 1537 Q676 1537 740 1477 Q802 1419 802 1332 Q802 1246 740 1187 Q675 1126 568 1126 Q461 1126 396 1187 Q334 1246 334 1332 Q334 1421 396 1477 Q461 1537 572 1537 Z M569 1463 Q522 1463 495 1425 Q471 1391 471 1331 Q471 1273 495 1238 Q521 1200 568 1200 Q614 1200 641 1238 Q665 1272 665 1331 Q665 1392 641 1425 Q613 1463 569 1463 Z " />
<glyph glyph-name="ccedilla" unicode="&#xe7;" horiz-adv-x="895" d="M836 191 L879 45 Q798 5 728 -10 Q657 -26 559 -26 L484 -136 Q587 -144 637 -168 Q729 -210 729 -330 Q729 -434 653 -488 Q583 -537 464 -537 Q359 -537 258 -507 L284 -404 Q368 -437 429 -437 Q533 -437 533 -332 Q533 -212 409 -212 Q385 -212 352 -216 L338 -181 L445 -17 Q336 1 255 63 Q84 195 84 478 Q84 743 226 888 Q345 1009 560 1009 Q688 1009 845 968 L842 668 L702 668 Q698 738 686 782 Q661 873 556 873 Q445 873 384 771 Q318 663 318 487 Q318 113 603 113 Q718 113 836 191 Z " />
<glyph glyph-name="eacute" unicode="&#xe9;" horiz-adv-x="1056" d="M976 455 L313 455 Q316 327 346 258 Q409 113 631 113 Q787 113 917 185 L954 41 Q801 -26 586 -26 Q330 -26 211 94 Q84 222 84 470 Q84 702 187 844 Q306 1009 552 1009 Q978 1009 978 537 Q978 526 976 455 Z M758 591 Q754 696 728 763 Q686 870 554 870 Q412 870 353 740 Q323 675 316 591 L758 591 Z M450 1147 L609 1421 L884 1421 L622 1147 L450 1147 Z " />
<glyph glyph-name="egrave" unicode="&#xe8;" horiz-adv-x="1056" d="M976 455 L313 455 Q316 327 346 258 Q409 113 631 113 Q787 113 917 185 L954 41 Q801 -26 586 -26 Q330 -26 211 94 Q84 222 84 470 Q84 702 187 844 Q306 1009 552 1009 Q978 1009 978 537 Q978 526 976 455 Z M758 591 Q754 696 728 763 Q686 870 554 870 Q412 870 353 740 Q323 675 316 591 L758 591 Z M533 1147 L271 1421 L546 1421 L705 1147 L533 1147 Z " />
<glyph glyph-name="ecircumflex" unicode="&#xea;" horiz-adv-x="1056" d="M976 455 L313 455 Q316 327 346 258 Q409 113 631 113 Q787 113 917 185 L954 41 Q801 -26 586 -26 Q330 -26 211 94 Q84 222 84 470 Q84 702 187 844 Q306 1009 552 1009 Q978 1009 978 537 Q978 526 976 455 Z M758 591 Q754 696 728 763 Q686 870 554 870 Q412 870 353 740 Q323 675 316 591 L758 591 Z M573 1309 L399 1147 L216 1147 L439 1421 L707 1421 L930 1147 L746 1147 L573 1309 Z " />
<glyph glyph-name="edieresis" unicode="&#xeb;" horiz-adv-x="1056" d="M976 455 L313 455 Q316 327 346 258 Q409 113 631 113 Q787 113 917 185 L954 41 Q801 -26 586 -26 Q330 -26 211 94 Q84 222 84 470 Q84 702 187 844 Q306 1009 552 1009 Q978 1009 978 537 Q978 526 976 455 Z M758 591 Q754 696 728 763 Q686 870 554 870 Q412 870 353 740 Q323 675 316 591 L758 591 Z M390 1408 Q446 1408 485 1370 Q523 1333 523 1280 Q523 1228 485 1190 Q446 1152 390 1152 Q333 1152 294 1190 Q256 1228 256 1282 Q256 1333 294 1370 Q334 1408 390 1408 Z M765 1408 Q821 1408 860 1370 Q898 1333 898 1280 Q898 1228 860 1190 Q821 1152 765 1152 Q708 1152 669 1190 Q631 1227 631 1282 Q631 1334 669 1370 Q709 1408 765 1408 Z " />
<glyph glyph-name="iacute" unicode="&#xed;" horiz-adv-x="597" d="M47 -4 L47 95 Q64 98 72 100 Q134 110 154 128 Q189 159 189 327 L189 667 Q189 827 157 863 Q138 884 62 884 L62 983 Q281 991 416 1008 L416 327 Q416 180 440 141 Q455 116 506 105 Q511 103 558 95 L558 -4 Q388 4 302 4 Q217 4 47 -4 Z M151 1147 L310 1421 L585 1421 L323 1147 L151 1147 Z " />
<glyph glyph-name="igrave" unicode="&#xec;" horiz-adv-x="597" d="M47 -4 L47 95 Q64 98 72 100 Q134 110 154 128 Q189 159 189 327 L189 667 Q189 827 157 863 Q138 884 62 884 L62 983 Q281 991 416 1008 L416 327 Q416 180 440 141 Q455 116 506 105 Q511 103 558 95 L558 -4 Q388 4 302 4 Q217 4 47 -4 Z M260 1147 L-2 1421 L273 1421 L432 1147 L260 1147 Z " />
<glyph glyph-name="icircumflex" unicode="&#xee;" horiz-adv-x="597" d="M47 -4 L47 95 Q64 98 72 100 Q134 110 154 128 Q189 159 189 327 L189 667 Q189 827 157 863 Q138 884 62 884 L62 983 Q281 991 416 1008 L416 327 Q416 180 440 141 Q455 116 506 105 Q511 103 558 95 L558 -4 Q388 4 302 4 Q217 4 47 -4 Z M277 1309 L103 1147 L-80 1147 L143 1421 L411 1421 L634 1147 L450 1147 L277 1309 Z " />
<glyph glyph-name="idieresis" unicode="&#xef;" horiz-adv-x="597" d="M47 -4 L47 95 Q64 98 72 100 Q134 110 154 128 Q189 159 189 327 L189 667 Q189 827 157 863 Q138 884 62 884 L62 983 Q281 991 416 1008 L416 327 Q416 180 440 141 Q455 116 506 105 Q511 103 558 95 L558 -4 Q388 4 302 4 Q217 4 47 -4 Z M108 1408 Q164 1408 203 1370 Q241 1333 241 1280 Q241 1228 203 1190 Q164 1152 108 1152 Q51 1152 12 1190 Q-26 1228 -26 1282 Q-26 1333 12 1370 Q52 1408 108 1408 Z M483 1408 Q539 1408 578 1370 Q616 1333 616 1280 Q616 1228 578 1190 Q539 1152 483 1152 Q426 1152 387 1190 Q349 1227 349 1282 Q349 1334 387 1370 Q427 1408 483 1408 Z " />
<glyph glyph-name="ntilde" unicode="&#xf1;" horiz-adv-x="1227" d="M47 -4 L47 95 Q68 99 79 101 Q134 110 154 128 Q189 158 189 327 L189 648 Q189 827 157 863 Q137 884 62 884 L62 983 Q257 991 383 1008 Q398 934 402 834 Q553 1009 749 1009 Q942 1009 1011 874 Q1049 799 1049 634 L1049 327 Q1049 182 1072 141 Q1086 116 1134 106 Q1143 104 1153 102 Q1165 100 1188 95 L1188 -4 Q1025 4 942 4 Q862 4 699 -4 L699 95 Q753 105 773 114 Q808 131 815 192 Q822 258 822 327 L822 618 Q822 741 801 789 Q770 860 683 860 Q566 860 462 727 Q428 683 420 645 Q416 621 416 582 L416 327 Q416 183 437 142 Q449 116 494 105 Q498 104 539 95 L539 -4 Q375 4 294 4 Q211 4 47 -4 Z M375 1150 L218 1150 Q243 1275 280 1334 Q343 1435 452 1435 Q509 1435 562 1407 Q590 1392 644 1345 Q702 1293 729 1293 Q768 1293 787 1351 Q795 1378 802 1424 L960 1424 Q947 1307 913 1244 Q854 1136 723 1136 Q650 1136 595 1175 Q583 1184 531 1229 Q476 1278 451 1278 Q417 1278 394 1222 Q388 1205 375 1150 Z " />
<glyph glyph-name="oacute" unicode="&#xf3;" horiz-adv-x="1111" d="M563 1009 Q781 1009 909 863 Q1028 726 1028 492 Q1028 258 909 120 Q782 -26 556 -26 Q330 -26 203 121 Q84 259 84 490 Q84 729 203 863 Q334 1009 563 1009 Z M560 870 Q431 870 371 753 Q318 648 318 491 Q318 336 370 231 Q429 113 556 113 Q683 113 742 231 Q794 337 794 492 Q794 651 742 753 Q681 870 560 870 Z M430 1147 L589 1421 L864 1421 L602 1147 L430 1147 Z " />
<glyph glyph-name="ograve" unicode="&#xf2;" horiz-adv-x="1111" d="M563 1009 Q781 1009 909 863 Q1028 726 1028 492 Q1028 258 909 120 Q782 -26 556 -26 Q330 -26 203 121 Q84 259 84 490 Q84 729 203 863 Q334 1009 563 1009 Z M560 870 Q431 870 371 753 Q318 648 318 491 Q318 336 370 231 Q429 113 556 113 Q683 113 742 231 Q794 337 794 492 Q794 651 742 753 Q681 870 560 870 Z M531 1147 L269 1421 L544 1421 L703 1147 L531 1147 Z " />
<glyph glyph-name="ocircumflex" unicode="&#xf4;" horiz-adv-x="1111" d="M563 1009 Q781 1009 909 863 Q1028 726 1028 492 Q1028 258 909 120 Q782 -26 556 -26 Q330 -26 203 121 Q84 259 84 490 Q84 729 203 863 Q334 1009 563 1009 Z M560 870 Q431 870 371 753 Q318 648 318 491 Q318 336 370 231 Q429 113 556 113 Q683 113 742 231 Q794 337 794 492 Q794 651 742 753 Q681 870 560 870 Z M556 1309 L382 1147 L199 1147 L422 1421 L690 1421 L913 1147 L729 1147 L556 1309 Z " />
<glyph glyph-name="odieresis" unicode="&#xf6;" horiz-adv-x="1111" d="M563 1009 Q781 1009 909 863 Q1028 726 1028 492 Q1028 258 909 120 Q782 -26 556 -26 Q330 -26 203 121 Q84 259 84 490 Q84 729 203 863 Q334 1009 563 1009 Z M560 870 Q431 870 371 753 Q318 648 318 491 Q318 336 370 231 Q429 113 556 113 Q683 113 742 231 Q794 337 794 492 Q794 651 742 753 Q681 870 560 870 Z M369 1408 Q425 1408 464 1370 Q502 1333 502 1280 Q502 1228 464 1190 Q425 1152 369 1152 Q312 1152 273 1190 Q235 1228 235 1282 Q235 1333 273 1370 Q313 1408 369 1408 Z M744 1408 Q800 1408 839 1370 Q877 1333 877 1280 Q877 1228 839 1190 Q800 1152 744 1152 Q687 1152 648 1190 Q610 1227 610 1282 Q610 1334 648 1370 Q688 1408 744 1408 Z " />
<glyph glyph-name="otilde" unicode="&#xf5;" horiz-adv-x="1111" d="M563 1009 Q781 1009 909 863 Q1028 726 1028 492 Q1028 258 909 120 Q782 -26 556 -26 Q330 -26 203 121 Q84 259 84 490 Q84 729 203 863 Q334 1009 563 1009 Z M560 870 Q431 870 371 753 Q318 648 318 491 Q318 336 370 231 Q429 113 556 113 Q683 113 742 231 Q794 337 794 492 Q794 651 742 753 Q681 870 560 870 Z M342 1150 L185 1150 Q210 1275 247 1334 Q310 1435 419 1435 Q476 1435 529 1407 Q557 1392 611 1345 Q669 1293 696 1293 Q735 1293 754 1351 Q762 1378 769 1424 L927 1424 Q914 1307 880 1244 Q821 1136 690 1136 Q617 1136 562 1175 Q550 1184 498 1229 Q443 1278 418 1278 Q384 1278 361 1222 Q355 1205 342 1150 Z " />
<glyph glyph-name="uacute" unicode="&#xfa;" horiz-adv-x="1174" d="M37 884 L37 983 Q267 991 402 1008 L402 374 Q402 250 424 196 Q453 124 540 124 Q681 124 770 270 L770 649 Q770 796 749 843 Q735 874 698 881 Q681 884 635 884 L635 983 Q858 991 997 1008 L997 327 Q997 187 1019 145 Q1034 117 1085 105 Q1094 103 1139 95 L1139 -4 Q1005 2 945 2 Q896 2 815 0 Q799 42 790 119 Q659 -26 477 -26 Q281 -26 212 121 Q175 199 175 376 L175 649 Q175 829 140 863 Q119 884 37 884 Z M469 1147 L628 1421 L903 1421 L641 1147 L469 1147 Z " />
<glyph glyph-name="ugrave" unicode="&#xf9;" horiz-adv-x="1174" d="M37 884 L37 983 Q267 991 402 1008 L402 374 Q402 250 424 196 Q453 124 540 124 Q681 124 770 270 L770 649 Q770 796 749 843 Q735 874 698 881 Q681 884 635 884 L635 983 Q858 991 997 1008 L997 327 Q997 187 1019 145 Q1034 117 1085 105 Q1094 103 1139 95 L1139 -4 Q1005 2 945 2 Q896 2 815 0 Q799 42 790 119 Q659 -26 477 -26 Q281 -26 212 121 Q175 199 175 376 L175 649 Q175 829 140 863 Q119 884 37 884 Z M530 1147 L268 1421 L543 1421 L702 1147 L530 1147 Z " />
<glyph glyph-name="ucircumflex" unicode="&#xfb;" horiz-adv-x="1174" d="M37 884 L37 983 Q267 991 402 1008 L402 374 Q402 250 424 196 Q453 124 540 124 Q681 124 770 270 L770 649 Q770 796 749 843 Q735 874 698 881 Q681 884 635 884 L635 983 Q858 991 997 1008 L997 327 Q997 187 1019 145 Q1034 117 1085 105 Q1094 103 1139 95 L1139 -4 Q1005 2 945 2 Q896 2 815 0 Q799 42 790 119 Q659 -26 477 -26 Q281 -26 212 121 Q175 199 175 376 L175 649 Q175 829 140 863 Q119 884 37 884 Z M561 1309 L387 1147 L204 1147 L427 1421 L695 1421 L918 1147 L734 1147 L561 1309 Z " />
<glyph glyph-name="udieresis" unicode="&#xfc;" horiz-adv-x="1174" d="M37 884 L37 983 Q267 991 402 1008 L402 374 Q402 250 424 196 Q453 124 540 124 Q681 124 770 270 L770 649 Q770 796 749 843 Q735 874 698 881 Q681 884 635 884 L635 983 Q858 991 997 1008 L997 327 Q997 187 1019 145 Q1034 117 1085 105 Q1094 103 1139 95 L1139 -4 Q1005 2 945 2 Q896 2 815 0 Q799 42 790 119 Q659 -26 477 -26 Q281 -26 212 121 Q175 199 175 376 L175 649 Q175 829 140 863 Q119 884 37 884 Z M395 1408 Q451 1408 490 1370 Q528 1333 528 1280 Q528 1228 490 1190 Q451 1152 395 1152 Q338 1152 299 1190 Q261 1228 261 1282 Q261 1333 299 1370 Q339 1408 395 1408 Z M770 1408 Q826 1408 865 1370 Q903 1333 903 1280 Q903 1228 865 1190 Q826 1152 770 1152 Q713 1152 674 1190 Q636 1227 636 1282 Q636 1334 674 1370 Q714 1408 770 1408 Z " />
<glyph glyph-name="dagger" unicode="&#x2020;" horiz-adv-x="1120" d="M442 795 L104 795 L112 953 L442 953 L442 1413 L677 1413 L677 953 L1017 953 L1009 795 L677 795 L677 -402 L442 -402 L442 795 Z " />
<glyph glyph-name="degree" unicode="&#xb0;" horiz-adv-x="535" d="M270 1510 Q371 1510 440 1445 Q511 1377 511 1285 Q511 1194 440 1126 Q372 1060 267 1060 Q162 1060 94 1126 Q23 1193 23 1284 Q23 1378 94 1445 Q164 1510 270 1510 Z M269 1426 Q217 1426 186 1390 Q154 1352 154 1284 Q154 1217 186 1179 Q216 1144 267 1144 Q319 1144 348 1179 Q381 1218 381 1286 Q381 1353 349 1390 Q318 1426 269 1426 Z " />
<glyph glyph-name="cent" unicode="&#xa2;" horiz-adv-x="1180" d="M750 1266 L750 519 Q866 521 991 577 L1023 435 Q914 392 750 377 L750 171 L618 171 L618 379 Q456 394 363 457 Q176 586 176 872 Q176 1078 268 1213 Q357 1345 519 1387 Q561 1397 618 1404 L618 1609 L750 1609 L750 1405 Q852 1398 899 1389 Q961 1377 1030 1356 L1026 1072 L894 1072 Q888 1170 867 1208 Q837 1261 750 1266 Z M618 1256 Q544 1233 492 1168 Q410 1066 410 879 Q410 589 618 530 L618 1256 Z " />
<glyph glyph-name="sterling" unicode="&#xa3;" horiz-adv-x="1180" d="M120 -4 L120 96 Q148 101 162 104 Q214 113 232 128 Q269 159 269 320 L269 636 L81 636 L92 782 L268 782 L268 962 Q268 1096 290 1174 Q329 1312 456 1381 Q562 1439 718 1439 Q872 1439 1057 1386 L1054 1081 L910 1081 Q902 1171 877 1219 Q837 1295 725 1295 Q595 1295 540 1182 Q504 1107 504 957 L504 782 L780 782 L768 636 L504 636 L504 150 L769 150 Q899 150 930 198 Q949 228 964 337 L1117 337 L1114 0 L401 0 Q398 0 120 -4 Z " />
<glyph glyph-name="section" unicode="&#xa7;" horiz-adv-x="1178" d="M177 -168 L181 109 L318 109 Q330 24 356 -13 Q402 -82 550 -82 Q757 -82 757 85 Q757 162 709 201 Q672 231 624 247 Q573 263 497 283 Q363 318 300 352 Q161 429 161 586 Q161 717 252 805 Q280 832 329 868 Q213 953 213 1116 Q213 1281 326 1366 Q424 1440 605 1440 Q762 1440 929 1392 L925 1125 L786 1125 Q774 1203 753 1240 Q718 1301 608 1301 Q522 1301 472 1261 Q419 1219 419 1136 Q419 1057 467 1019 Q504 989 552 973 Q602 957 679 937 Q813 902 875 868 Q1015 791 1015 634 Q1015 503 924 416 Q897 390 847 353 Q963 267 963 104 Q963 -59 845 -145 Q742 -220 543 -220 Q344 -220 177 -168 Z M740 406 Q812 468 812 566 Q812 645 776 683 Q749 711 702 728 Q663 742 586 767 L436 814 Q365 753 365 654 Q365 575 401 537 Q428 509 474 492 Q511 479 576 458 L740 406 Z " />
<glyph glyph-name="bullet" unicode="&#x2022;" horiz-adv-x="1180" d="M385 986 L884 986 Q942 986 969 956 Q989 933 989 900 Q989 881 987 867 L916 366 Q908 309 881 285 Q853 261 795 261 L296 261 Q191 261 191 347 Q191 365 193 379 L264 881 Q272 938 300 962 Q327 986 385 986 Z " />
<glyph glyph-name="paragraph" unicode="&#xb6;" horiz-adv-x="1352" d="M506 -424 L506 676 L443 676 Q376 676 349 679 Q258 687 182 749 Q109 807 74 903 Q48 974 48 1046 Q48 1196 138 1299 Q223 1397 367 1409 Q413 1413 574 1413 L1106 1413 L1106 -424 L896 -424 L896 1262 L716 1262 L716 -424 L506 -424 Z " />
<glyph glyph-name="germandbls" unicode="&#xdf;" horiz-adv-x="1220" d="M47 -4 L47 95 Q64 99 72 100 Q130 111 151 126 Q189 154 189 323 L189 839 L33 839 L38 985 L189 985 L189 1024 Q189 1217 279 1326 Q392 1463 633 1463 Q857 1463 958 1362 Q1039 1282 1039 1164 Q1039 1075 986 1005 Q964 975 894 914 Q859 884 846 865 Q829 838 829 800 Q829 737 874 696 Q885 686 970 629 Q1069 563 1114 495 Q1164 421 1164 307 Q1164 150 1075 63 Q984 -26 808 -26 Q719 -26 616 -8 L629 147 Q720 113 809 113 Q876 113 909 159 Q944 209 944 290 Q944 366 914 410 Q891 443 795 509 Q700 575 660 625 Q612 687 612 764 Q612 823 643 870 Q667 907 731 960 Q790 1010 807 1041 Q830 1082 830 1145 Q830 1230 785 1273 Q733 1324 638 1324 Q494 1324 445 1205 Q416 1135 416 966 L416 327 Q416 162 444 131 Q463 111 539 95 L539 -4 Q375 4 294 4 Q211 4 47 -4 Z " />
<glyph glyph-name="registered" unicode="&#xae;" horiz-adv-x="1240" d="M569 987 L569 940 Q569 847 579 819 Q586 799 627 788 L627 751 Q546 757 505 757 Q465 757 383 751 L383 788 Q424 798 432 819 Q442 847 442 942 L442 1115 Q442 1209 432 1238 Q424 1258 383 1269 L383 1305 Q466 1299 550 1299 L636 1299 Q869 1299 869 1147 Q869 1029 734 996 Q775 964 803 912 L842 838 Q858 807 874 798 Q881 793 909 788 L909 751 Q839 756 746 757 L672 896 Q642 956 631 971 Q619 987 602 987 L569 987 Z M569 1044 L630 1044 Q732 1044 732 1144 Q732 1195 702 1217 Q679 1234 625 1234 L569 1234 L569 1044 Z M628 1589 Q860 1589 1022 1436 Q1195 1274 1195 1025 Q1195 776 1022 613 Q861 460 621 460 Q380 460 219 613 Q46 776 46 1023 Q46 1187 127 1322 Q207 1458 354 1530 Q476 1589 628 1589 Z M626 1489 Q430 1489 307 1360 Q182 1230 182 1023 Q182 820 307 690 Q429 562 620 562 Q811 562 933 690 Q1058 820 1058 1024 Q1058 1229 933 1360 Q874 1423 792 1456 Q710 1489 626 1489 Z " />
<glyph glyph-name="copyright" unicode="&#xa9;" horiz-adv-x="1733" d="M1145 578 L1147 386 Q1014 347 895 347 Q724 347 629 441 Q529 542 529 721 Q529 918 648 1020 Q740 1099 894 1099 Q1011 1099 1137 1057 L1135 867 L1036 867 Q1032 912 1022 936 Q995 998 903 998 Q815 998 766 923 Q715 844 715 723 Q715 602 766 523 Q815 448 905 448 Q1002 448 1031 509 Q1041 532 1046 578 L1145 578 Z M877 1476 Q1203 1476 1421 1257 Q1521 1156 1578 1024 Q1640 877 1640 712 Q1640 388 1421 168 Q1203 -52 867 -52 Q530 -52 312 168 Q212 268 156 400 Q93 546 93 710 Q93 938 207 1124 Q312 1297 496 1392 Q659 1476 877 1476 Z M875 1362 Q589 1362 411 1168 Q246 987 246 710 Q246 438 412 256 Q589 62 867 62 Q1144 62 1322 256 Q1487 437 1487 712 Q1487 992 1322 1168 Q1139 1362 875 1362 Z " />
<glyph glyph-name="trademark" unicode="&#x2122;" horiz-adv-x="1769" d="M250 571 L250 1307 L-3 1307 L2 1413 L690 1413 L684 1307 L436 1307 L436 571 L250 571 Z M743 571 L805 1413 L1047 1413 L1184 1004 Q1202 950 1238 827 Q1265 926 1293 1011 L1423 1413 L1663 1413 L1724 571 L1541 571 L1511 1009 Q1506 1077 1501 1167 L1484 1112 Q1462 1037 1455 1018 L1309 571 L1157 571 L1012 995 Q1007 1011 993 1056 Q979 1102 958 1168 L954 1113 Q948 1010 948 1003 L918 571 L743 571 Z " />
<glyph glyph-name="acute" unicode="&#xb4;" horiz-adv-x="1024" d="M364 1147 L523 1421 L798 1421 L536 1147 L364 1147 Z " />
<glyph glyph-name="dieresis" unicode="&#xa8;" horiz-adv-x="1024" d="M325 1408 Q381 1408 420 1370 Q458 1333 458 1280 Q458 1228 420 1190 Q381 1152 325 1152 Q268 1152 229 1190 Q191 1228 191 1282 Q191 1333 229 1370 Q269 1408 325 1408 Z M700 1408 Q756 1408 795 1370 Q833 1333 833 1280 Q833 1228 795 1190 Q756 1152 700 1152 Q643 1152 604 1190 Q566 1227 566 1282 Q566 1334 604 1370 Q644 1408 700 1408 Z " />
<glyph glyph-name="notequal" unicode="&#x2260;" horiz-adv-x="1180" d="M101 448 L112 600 L444 600 L545 818 L101 818 L112 970 L618 970 L727 1204 L882 1132 L806 970 L1079 970 L1067 818 L734 818 L632 600 L1079 600 L1067 448 L560 448 L452 219 L298 290 L371 448 L101 448 Z " />
<glyph glyph-name="AE" unicode="&#xc6;" horiz-adv-x="1915" d="M943 426 L410 426 L322 263 Q280 185 280 156 Q280 125 322 112 Q343 105 401 96 L401 -4 Q232 4 149 4 Q63 4 -107 -4 L-107 96 Q-4 112 30 137 Q59 157 89 204 Q97 217 142 299 L589 1117 Q633 1197 633 1239 Q633 1278 596 1295 Q575 1305 511 1317 L511 1417 Q727 1413 824 1413 L1858 1413 L1862 1088 L1721 1088 Q1704 1193 1688 1216 Q1656 1263 1527 1263 L1183 1263 L1183 799 L1387 799 Q1471 799 1495 836 Q1516 867 1518 956 L1653 956 Q1648 805 1648 732 Q1648 654 1653 503 L1518 503 Q1516 599 1495 632 Q1471 671 1387 671 L1183 671 L1183 251 Q1183 197 1206 173 Q1228 150 1279 150 L1523 150 Q1614 150 1656 166 Q1702 184 1715 246 Q1722 277 1730 337 L1871 337 L1867 0 L1113 0 Q1057 0 794 -4 L794 96 Q822 101 836 104 Q885 113 903 124 Q943 151 943 288 L943 426 Z M943 576 L943 1263 L859 1263 L490 576 L943 576 Z " />
<glyph glyph-name="Oslash" unicode="&#xd8;" horiz-adv-x="1408" d="M74 47 L202 208 Q76 410 76 705 Q76 1023 211 1218 Q364 1439 684 1439 Q935 1439 1083 1307 L1196 1449 L1303 1363 L1176 1203 Q1224 1124 1250 1050 Q1301 904 1301 709 Q1301 391 1166 195 Q1013 -26 687 -26 Q448 -26 296 104 L182 -40 L74 47 Z M365 407 L954 1148 Q858 1293 688 1293 Q565 1293 479 1215 Q325 1076 325 716 Q325 531 365 407 Z M425 262 Q523 120 689 120 Q812 120 898 198 Q1052 337 1052 701 Q1052 866 1013 1003 L425 262 Z " />
<glyph glyph-name="infinity" unicode="&#x221e;" horiz-adv-x="1439" d="M719 592 Q662 520 626 489 Q520 396 369 396 Q210 396 117 487 Q27 576 27 718 Q27 861 117 950 Q211 1041 369 1041 Q530 1041 642 934 Q667 910 719 846 Q780 922 811 949 Q919 1041 1069 1041 Q1227 1041 1321 950 Q1411 861 1411 718 Q1411 576 1321 487 Q1228 396 1068 396 Q908 396 795 503 Q772 526 719 592 Z M653 719 Q598 794 553 837 Q466 922 379 922 Q303 922 257 867 Q211 813 211 719 Q211 624 258 569 Q303 515 376 515 Q477 515 568 614 Q579 627 623 682 Q631 692 653 719 Z M784 719 Q802 698 849 638 Q949 515 1060 515 Q1135 515 1180 569 Q1227 624 1227 718 Q1227 813 1181 867 Q1135 922 1059 922 Q962 922 870 824 Q869 823 784 719 Z " />
<glyph glyph-name="plusminus" unicode="&#xb1;" horiz-adv-x="1180" d="M101 668 L112 820 L497 820 L497 1215 L688 1215 L688 820 L1079 820 L1068 668 L688 668 L688 276 L497 276 L497 668 L101 668 Z M101 0 L112 152 L1080 152 L1068 0 L101 0 Z " />
<glyph glyph-name="lessequal" unicode="&#x2264;" horiz-adv-x="1180" d="M132 0 L132 137 L1033 137 L1033 0 L132 0 Z M350 745 L1033 427 L1033 262 L132 701 L132 789 L1033 1227 L1033 1063 L350 745 Z " />
<glyph glyph-name="greaterequal" unicode="&#x2265;" horiz-adv-x="1180" d="M147 0 L147 137 L1048 137 L1048 0 L147 0 Z M830 744 L147 1061 L147 1227 L1048 788 L1048 699 L147 262 L147 426 L830 744 Z " />
<glyph glyph-name="yen" unicode="&#xa5;" horiz-adv-x="1180" d="M465 430 L465 536 L452 560 L117 560 L117 668 L402 668 L177 1126 Q120 1243 85 1275 Q57 1300 -33 1318 L-33 1417 Q139 1409 225 1409 Q310 1409 482 1417 L482 1318 Q425 1307 402 1297 Q373 1284 373 1254 Q373 1224 406 1154 L504 946 Q533 885 585 765 L604 720 L625 768 Q677 888 703 943 L803 1152 Q837 1222 837 1256 Q837 1291 794 1303 Q777 1308 736 1318 L736 1417 Q896 1409 976 1409 Q1056 1409 1216 1417 L1216 1318 Q1128 1301 1100 1279 Q1066 1253 1005 1131 L767 668 L1066 668 L1066 560 L716 560 L704 536 L704 430 L1066 430 L1066 322 L704 322 L704 303 Q703 211 722 159 Q736 120 799 108 Q812 105 845 101 Q857 99 878 95 L878 -4 Q682 4 584 4 Q487 4 292 -4 L292 95 Q325 101 342 103 Q400 111 422 126 Q465 154 465 303 L465 322 L117 322 L117 430 L465 430 Z " />
<glyph glyph-name="mu" unicode="&#xb5;" horiz-adv-x="1180" d="M165 -502 L165 975 L396 975 L396 342 Q396 243 413 190 Q439 111 516 111 Q638 111 777 317 L777 975 L1006 975 L1006 0 L787 0 L779 137 Q740 90 707 60 Q610 -28 499 -28 Q446 -28 396 -4 L396 -457 L165 -502 Z " />
<glyph glyph-name="partialdiff" unicode="&#x2202;" horiz-adv-x="1179" d="M754 948 Q686 1113 579 1212 Q465 1317 285 1342 L308 1457 Q497 1435 602 1385 Q696 1339 798 1243 Q914 1133 986 931 Q1062 717 1062 494 Q1062 255 942 118 Q816 -26 590 -26 Q364 -26 237 118 Q118 252 118 481 Q118 710 237 844 Q365 988 557 988 Q655 988 754 948 Z M594 849 Q465 849 405 735 Q352 633 352 480 Q352 329 405 227 Q463 113 590 113 Q717 113 775 228 Q828 330 828 480 Q828 635 776 735 Q715 849 594 849 Z " />
<glyph glyph-name="summation" unicode="&#x2211;" horiz-adv-x="1180" d="M1135 1568 L1135 1418 L303 1418 L790 561 L297 -380 L1158 -380 L1158 -530 L45 -530 L45 -347 L526 561 L51 1389 L51 1568 L1135 1568 Z " />
<glyph glyph-name="product" unicode="&#x220f;" horiz-adv-x="1439" d="M1021 1418 L420 1418 L420 -530 L180 -530 L180 1568 L1260 1568 L1260 -530 L1021 -530 L1021 1418 Z " />
<glyph glyph-name="pi" unicode="&#x3c0;" horiz-adv-x="1267" d="M263 837 L226 837 Q164 837 104 804 L49 898 L92 923 Q164 965 200 974 Q236 983 325 983 L1048 983 Q1095 983 1118 992 Q1131 997 1156 1011 L1211 918 L1153 884 Q1099 853 1072.5 845.5 Q1046 838 1014 837 L1014 364 Q1014 225 1022 184 Q1034 113 1110 113 Q1150 113 1200 136 L1217 -3 Q1130 -26 1045 -26 Q935 -26 874 16 Q818 54 803 139 Q794 192 794 336 L793 837 L482 837 L483 528 Q483 261 465 -2 L244 -2 Q264 221 264 537 L263 837 Z " />
<glyph glyph-name="integral" unicode="&#x222b;" horiz-adv-x="1175" d="M236 -472 L266 -325 Q319 -345 358 -345 Q434 -345 455 -274 Q470 -228 470 -69 L470 1086 Q470 1243 478 1319 Q486 1395 508 1449 Q566 1592 764 1592 Q850 1592 938 1569 L908 1422 Q855 1442 816 1442 Q741 1442 719 1372 Q704 1326 704 1167 L704 10 Q704 -150 694 -240 Q666 -495 409 -495 Q323 -495 236 -472 Z " />
<glyph glyph-name="ordfeminine" unicode="&#xaa;" horiz-adv-x="770" d="M460 1189 L460 1205 Q460 1265 446 1291 Q424 1334 351 1334 Q265 1334 165 1292 L144 1389 Q260 1423 370 1423 Q558 1423 616 1328 Q644 1282 644 1149 L644 831 L490 831 L482 884 Q408 815 283 815 Q79 815 79 981 Q79 1126 248 1168 Q317 1184 460 1189 Z M463 1121 Q393 1118 353 1109 Q260 1088 260 992 Q260 896 340 896 Q412 896 446 958 Q463 989 463 1046 L463 1121 Z " />
<glyph glyph-name="ordmasculine" unicode="&#xba;" horiz-adv-x="771" d="M390 1429 Q535 1429 615 1345 Q691 1267 691 1125 Q691 982 615 904 Q535 820 385 820 Q236 820 156 904 Q80 983 80 1124 Q80 1267 156 1345 Q237 1429 390 1429 Z M388 1342 Q321 1342 289 1274 Q263 1218 263 1123 Q263 1032 289 975 Q321 907 386 907 Q451 907 483 975 Q510 1032 510 1124 Q510 1219 483 1274 Q451 1342 388 1342 Z " />
<glyph glyph-name="uni2126" unicode="&#x2126;" horiz-adv-x="1464" d="M46 0 L46 208 L149 208 Q177 176 189 169 Q229 147 326 147 L462 147 L462 203 Q310 266 229 346 Q87 486 87 773 Q87 1046 233 1224 Q412 1442 733 1442 Q1055 1442 1234 1224 Q1380 1046 1380 773 Q1380 486 1238 346 Q1157 267 1005 203 L1005 147 L1141 147 Q1239 147 1278 169 Q1290 176 1318 208 L1421 208 L1421 0 L818 0 L818 260 Q959 318 1036 414 Q1131 534 1131 783 Q1131 987 1050 1123 Q948 1296 733 1296 Q519 1296 416 1123 Q336 988 336 781 Q336 536 432 413 Q506 319 649 260 L649 0 L46 0 Z " />
<glyph glyph-name="ae" unicode="&#xe6;" horiz-adv-x="1667" d="M794 153 Q650 -26 396 -26 Q240 -26 157 48 Q75 120 75 254 Q75 430 219 522 Q307 577 465 593 Q534 600 692 605 L692 650 Q692 744 672 790 Q636 873 502 873 Q396 873 350 826 Q319 794 310 727 L172 727 L169 968 Q351 1009 505 1009 Q685 1009 773 948 Q805 925 848 876 Q893 928 934 953 Q1026 1009 1169 1009 Q1421 1009 1522 836 Q1588 724 1588 536 Q1588 520 1587 455 L923 455 Q926 329 956 258 Q1019 113 1241 113 Q1398 113 1528 185 L1565 43 Q1410 -26 1206 -26 Q1009 -26 896 50 Q847 84 794 153 Z M697 488 Q567 486 474 469 Q306 438 306 269 Q306 106 453 106 Q577 106 650 206 Q697 271 697 380 L697 488 Z M1369 591 Q1365 696 1338 762 Q1296 870 1164 870 Q1022 870 963 740 Q933 674 926 591 L1369 591 Z " />
<glyph glyph-name="oslash" unicode="&#xf8;" horiz-adv-x="1112" d="M73 27 L172 145 Q72 284 72 492 Q72 726 191 864 Q318 1010 540 1010 Q707 1010 827 924 L918 1033 L1015 956 L916 838 Q956 783 976 734 Q1016 636 1016 492 Q1016 258 897 120 Q770 -26 544 -26 Q384 -26 263 59 L171 -51 L73 27 Z M323 322 L712 790 Q646 874 543 874 Q416 874 355 756 Q300 649 300 496 Q300 409 323 322 Z M376 192 Q442 110 545 110 Q674 110 734 229 Q788 335 788 490 Q788 564 765 660 L376 192 Z " />
<glyph glyph-name="questiondown" unicode="&#xbf;" horiz-adv-x="911" d="M413 549 L615 549 L615 454 Q615 361 600 317 Q581 265 490 168 Q388 61 356 11 Q303 -71 303 -164 Q303 -346 511 -346 Q642 -346 808 -264 L823 -437 Q664 -485 483 -485 Q262 -485 155 -387 Q66 -305 66 -168 Q66 -56 132 42 Q177 108 269 202 Q349 283 368 308 Q403 355 410 413 Q413 440 413 482 L413 549 Z M509 1011 Q579 1011 624 960 Q662 918 662 863 Q662 801 613 756 Q570 717 506 717 Q439 717 394 768 Q356 810 356 864 Q356 926 405 972 Q448 1011 509 1011 Z " />
<glyph glyph-name="exclamdown" unicode="&#xa1;" horiz-adv-x="692" d="M442 549 L480 -464 L214 -464 L252 549 L442 549 Z M347 1011 Q417 1011 462 960 Q500 918 500 863 Q500 801 451 756 Q408 717 344 717 Q277 717 232 768 Q194 810 194 864 Q194 926 243 972 Q286 1011 347 1011 Z " />
<glyph glyph-name="logicalnot" unicode="&#xac;" horiz-adv-x="1180" d="M137 641 L137 778 L1000 778 L1000 219 L803 219 L803 641 L137 641 Z " />
<glyph glyph-name="radical" unicode="&#x221a;" horiz-adv-x="1180" d="M357 0 L192 613 L34 613 L34 756 L362 756 L434 474 Q442 444 471 316 L483 260 L496 201 Q538 394 580 552 L908 1776 L1478 1776 L1478 1628 L1093 1628 L639 0 L357 0 Z " />
<glyph glyph-name="florin" unicode="&#x192;" horiz-adv-x="1180" d="M423 636 L232 636 L244 782 L454 782 L513 1075 Q550 1258 618 1333 Q708 1431 878 1431 Q998 1431 1139 1387 L1139 1129 L1007 1129 Q1003 1188 991 1224 Q971 1290 896 1290 Q829 1290 795 1225 Q774 1186 747 1049 L692 782 L941 782 L929 636 L661 636 L510 -95 Q472 -280 406 -353 Q316 -452 145 -452 Q27 -452 -116 -408 L-115 -149 L17 -149 Q21 -208 32 -244 Q53 -310 127 -310 Q192 -310 229 -245 Q249 -208 277 -69 L423 636 Z " />
<glyph glyph-name="approxequal" unicode="&#x2248;" horiz-adv-x="1180" d="M278 765 L141 799 Q172 906 207 957 Q280 1062 420 1062 Q489 1062 541 1036 Q572 1021 626 981 Q682 941 696 933 Q730 912 763 912 Q825 912 865 984 Q878 1008 896 1060 L1033 1027 Q1002 920 968 871 Q894 763 754 763 Q672 763 602 807 Q574 824 503 876 Q453 913 410 913 Q352 913 312 846 Q297 820 278 765 Z M278 358 L141 392 Q173 500 207 550 Q280 656 420 656 Q490 656 541 630 Q570 616 626 575 Q681 536 696 527 Q730 506 763 506 Q825 506 865 578 Q878 601 896 654 L1033 620 Q1002 514 969 465 Q894 357 753 357 Q672 357 602 401 Q574 418 503 470 Q452 507 410 507 Q352 507 312 439 Q298 415 278 358 Z " />
<glyph glyph-name="Delta" unicode="&#x2206;" horiz-adv-x="1170" d="M1244 0 L-75 0 L459 1413 L712 1413 L1244 0 Z M947 144 L658 952 L632 1025 Q603 1105 569 1209 Q534 1098 484 957 L196 144 L947 144 Z " />
<glyph glyph-name="guillemotleft" unicode="&#xab;" horiz-adv-x="908" d="M287 571 L470 251 L386 183 L47 559 L47 583 L386 959 L470 891 L287 571 Z M684 571 L867 251 L783 183 L444 559 L444 583 L783 959 L867 891 L684 571 Z " />
<glyph glyph-name="guillemotright" unicode="&#xbb;" horiz-adv-x="908" d="M224 571 L41 891 L124 959 L464 583 L464 559 L124 183 L41 251 L224 571 Z M621 571 L438 891 L521 959 L861 583 L861 559 L521 183 L438 251 L621 571 Z " />
<glyph glyph-name="ellipsis" unicode="&#x2026;" horiz-adv-x="1639" d="M275 274 Q344 274 390 222 Q429 178 429 123 Q429 59 379 13 Q335 -27 272 -27 Q200 -27 154 25 Q115 68 115 125 Q115 187 165 234 Q209 274 275 274 Z M823 274 Q892 274 938 222 Q977 178 977 123 Q977 59 927 13 Q883 -27 820 -27 Q748 -27 702 25 Q663 68 663 124 Q663 187 713 234 Q757 274 823 274 Z M1372 274 Q1441 274 1487 222 Q1526 178 1526 123 Q1526 59 1476 13 Q1432 -27 1369 -27 Q1297 -27 1251 25 Q1212 68 1212 125 Q1212 187 1262 234 Q1306 274 1372 274 Z " />
<glyph glyph-name="Agrave" unicode="&#xc0;" horiz-adv-x="1457" d="M988 412 L431 412 L375 255 Q355 200 355 165 Q355 127 392 113 Q410 107 468 95 L468 -4 Q304 4 222 4 Q141 4 -22 -4 L-22 95 Q75 112 103 136 Q135 163 177 278 L619 1413 L846 1413 L1281 279 Q1314 191 1332 165 Q1358 126 1411 111 Q1436 104 1484 95 L1484 -4 Q1307 4 1219 4 Q1129 4 951 -4 L951 95 Q1018 109 1035 117 Q1064 130 1064 163 Q1064 197 1046 248 L988 412 Z M936 558 L711 1186 L483 558 L936 558 Z M679 1556 L417 1831 L692 1831 L851 1556 L679 1556 Z " />
<glyph glyph-name="Atilde" unicode="&#xc3;" horiz-adv-x="1457" d="M988 412 L431 412 L375 255 Q355 200 355 165 Q355 127 392 113 Q410 107 468 95 L468 -4 Q304 4 222 4 Q141 4 -22 -4 L-22 95 Q75 112 103 136 Q135 163 177 278 L619 1413 L846 1413 L1281 279 Q1314 191 1332 165 Q1358 126 1411 111 Q1436 104 1484 95 L1484 -4 Q1307 4 1219 4 Q1129 4 951 -4 L951 95 Q1018 109 1035 117 Q1064 130 1064 163 Q1064 197 1046 248 L988 412 Z M936 558 L711 1186 L483 558 L936 558 Z M514 1560 L357 1560 Q382 1685 419 1745 Q482 1845 591 1845 Q649 1845 701 1817 Q729 1802 783 1755 Q841 1703 868 1703 Q907 1703 926 1761 Q934 1788 941 1834 L1099 1834 Q1086 1717 1052 1654 Q994 1546 862 1546 Q789 1546 734 1585 Q722 1594 670 1640 Q615 1688 590 1688 Q556 1688 533 1632 Q526 1615 514 1560 Z " />
<glyph glyph-name="Otilde" unicode="&#xd5;" horiz-adv-x="1406" d="M714 1439 Q923 1439 1067 1335 Q1213 1228 1276 1018 Q1316 881 1316 706 Q1316 391 1181 195 Q1029 -26 704 -26 Q378 -26 226 195 Q91 391 91 704 Q91 1026 226 1218 Q381 1439 714 1439 Z M709 1293 Q517 1293 426 1129 Q340 973 340 703 Q340 440 426 284 Q516 120 703 120 Q827 120 913 198 Q1067 337 1067 707 Q1067 977 981 1129 Q888 1293 709 1293 Z M489 1560 L332 1560 Q357 1685 394 1745 Q457 1845 566 1845 Q624 1845 676 1817 Q704 1802 758 1755 Q816 1703 843 1703 Q882 1703 901 1761 Q909 1788 916 1834 L1074 1834 Q1061 1717 1027 1654 Q969 1546 837 1546 Q764 1546 709 1585 Q697 1594 645 1640 Q590 1688 565 1688 Q531 1688 508 1632 Q501 1615 489 1560 Z " />
<glyph glyph-name="OE" unicode="&#x152;" horiz-adv-x="1862" d="M1814 0 L899 0 Q656 0 576 14 Q325 59 206 249 Q91 433 91 705 Q91 950 188 1129 Q292 1322 491 1379 Q598 1410 709 1412 Q763 1413 899 1413 L1805 1413 L1808 1088 L1667 1088 Q1650 1192 1634 1216 Q1602 1263 1473 1263 L1130 1263 L1130 799 L1334 799 Q1417 799 1442 836 Q1463 868 1464 956 L1599 956 Q1594 805 1594 732 Q1594 654 1599 503 L1464 503 Q1463 598 1442 632 Q1418 671 1334 671 L1130 671 L1130 263 Q1130 201 1149 177 Q1171 150 1225 150 L1468 150 Q1611 150 1642 198 Q1661 226 1676 337 L1817 337 L1814 0 Z M890 146 L890 1263 L803 1263 Q650 1263 583 1238 Q468 1194 402 1054 Q340 920 340 702 Q340 392 475 246 Q545 170 658 153 Q703 146 803 146 L890 146 Z " />
<glyph glyph-name="oe" unicode="&#x153;" horiz-adv-x="1766" d="M905 146 Q864 95 828 65 Q715 -26 550 -26 Q332 -26 203 121 Q84 257 84 493 Q84 727 203 863 Q331 1009 552 1009 Q714 1009 818 928 Q864 893 913 829 Q959 894 1005 930 Q1107 1009 1264 1009 Q1688 1009 1688 535 Q1688 518 1686 455 L1023 455 Q1026 328 1056 258 Q1118 113 1341 113 Q1497 113 1627 185 L1664 43 Q1509 -26 1303 -26 Q1110 -26 1003 46 Q956 78 905 146 Z M560 870 Q431 870 371 753 Q318 649 318 492 Q318 336 370 231 Q429 113 556 113 Q683 113 742 231 Q794 337 794 493 Q794 652 742 753 Q681 870 560 870 Z M1468 591 Q1464 696 1438 763 Q1396 870 1263 870 Q1122 870 1063 740 Q1033 675 1026 591 L1468 591 Z " />
<glyph glyph-name="endash" unicode="&#x2013;" horiz-adv-x="1161" d="M114 561 L114 726 L1048 726 L1048 561 L114 561 Z " />
<glyph glyph-name="emdash" unicode="&#x2014;" horiz-adv-x="1024" d="M-129 561 L-129 726 L1154 726 L1154 561 L-129 561 Z " />
<glyph glyph-name="quotedblleft" unicode="&#x201c;" horiz-adv-x="955" d="M313 1203 Q417 1170 417 1063 Q417 1002 379 960 Q335 912 260 912 Q179 912 135 961 Q100 1001 100 1061 Q100 1154 208 1305 Q243 1354 298 1418 Q319 1444 332 1461 L444 1461 Q354 1317 313 1203 Z M724 1203 Q828 1170 828 1063 Q828 1002 790 960 Q746 912 671 912 Q590 912 546 961 Q511 1001 511 1062 Q511 1153 620 1305 Q655 1355 709 1418 Q731 1444 743 1461 L855 1461 Q765 1316 724 1203 Z " />
<glyph glyph-name="quotedblright" unicode="&#x201d;" horiz-adv-x="955" d="M231 1170 Q127 1203 127 1310 Q127 1371 165 1413 Q209 1461 284 1461 Q365 1461 409 1412 Q444 1372 444 1310 Q444 1220 336 1068 Q301 1020 246 955 Q225 929 212 912 L100 912 Q187 1050 231 1170 Z M642 1170 Q538 1203 538 1311 Q538 1371 576 1413 Q620 1461 695 1461 Q776 1461 820 1412 Q855 1372 855 1310 Q855 1219 746 1068 Q712 1019 657 955 Q635 929 623 912 L511 912 Q598 1050 642 1170 Z " />
<glyph glyph-name="quoteleft" unicode="&#x2018;" horiz-adv-x="544" d="M313 1203 Q417 1170 417 1063 Q417 1002 379 960 Q335 912 260 912 Q179 912 135 961 Q100 1001 100 1061 Q100 1154 208 1305 Q243 1354 298 1418 Q319 1444 332 1461 L444 1461 Q354 1317 313 1203 Z " />
<glyph glyph-name="quoteright" unicode="&#x2019;" horiz-adv-x="544" d="M231 1170 Q127 1203 127 1310 Q127 1371 165 1413 Q209 1461 284 1461 Q365 1461 409 1412 Q444 1372 444 1310 Q444 1220 336 1068 Q301 1020 246 955 Q225 929 212 912 L100 912 Q187 1050 231 1170 Z " />
<glyph glyph-name="divide" unicode="&#xf7;" horiz-adv-x="1180" d="M593 1203 Q653 1203 694 1156 Q730 1117 730 1070 Q730 1014 684 972 Q645 936 590 936 Q528 936 486 983 Q450 1022 450 1070 Q450 1124 496 1167 Q535 1203 593 1203 Z M101 633 L112 785 L1080 785 L1068 633 L101 633 Z M593 484 Q653 484 694 437 Q730 397 730 351 Q730 295 684 253 Q645 217 590 217 Q527 217 486 264 Q450 304 450 352 Q450 405 496 448 Q535 484 593 484 Z " />
<glyph glyph-name="lozenge" unicode="&#x25ca;" horiz-adv-x="1180" d="M35 707 L590 1473 L1145 707 L590 -60 L35 707 Z M294 707 L590 269 L886 707 L590 1144 L294 707 Z " />
<glyph glyph-name="ydieresis" unicode="&#xff;" horiz-adv-x="1025" d="M398 0 L141 716 Q102 826 77 848 Q53 871 -39 884 L-39 983 Q120 975 199 975 Q278 975 437 983 L438 884 Q374 874 355 865 Q335 856 335 834 Q335 807 359 735 L541 155 L707 730 Q731 814 731 833 Q731 861 698 871 Q680 876 625 884 L625 983 Q776 975 851 975 Q928 975 1080 983 L1080 884 Q995 872 970 853 Q933 825 902 727 L687 47 Q597 -237 526 -336 Q424 -477 216 -477 Q123 -477 49 -455 L71 -297 Q148 -338 225 -338 Q294 -338 337 -303 Q400 -252 464 -63 L486 0 L398 0 Z M356 1408 Q412 1408 451 1370 Q489 1333 489 1280 Q489 1228 451 1190 Q412 1152 356 1152 Q299 1152 260 1190 Q222 1228 222 1282 Q222 1333 260 1370 Q300 1408 356 1408 Z M731 1408 Q787 1408 826 1370 Q864 1333 864 1280 Q864 1228 826 1190 Q787 1152 731 1152 Q674 1152 635 1190 Q597 1227 597 1282 Q597 1334 635 1370 Q675 1408 731 1408 Z " />
<glyph glyph-name="Ydieresis" unicode="&#x178;" horiz-adv-x="1138" d="M273 -4 L273 95 Q306 101 323 103 Q381 112 403 128 Q446 158 446 325 L446 542 L158 1126 Q101 1243 66 1274 Q38 1300 -52 1318 L-52 1417 Q120 1409 206 1409 Q291 1409 463 1417 L463 1318 Q405 1306 384 1297 Q354 1284 354 1253 Q354 1224 387 1154 L486 946 Q516 882 585 720 Q637 842 685 943 L778 1138 Q818 1223 818 1259 Q818 1285 790 1298 Q777 1304 717 1318 L717 1417 Q877 1409 957 1409 Q1037 1409 1197 1417 L1197 1318 Q1110 1301 1081 1279 Q1047 1253 986 1131 L686 543 L686 325 Q686 180 714 141 Q732 118 787 107 Q793 106 829 100 Q844 98 859 95 L859 -4 Q664 4 566 4 Q468 4 273 -4 Z M410 1822 Q466 1822 505 1784 Q543 1747 543 1694 Q543 1642 505 1604 Q466 1566 410 1566 Q353 1566 314 1604 Q276 1642 276 1695 Q276 1747 314 1784 Q354 1822 410 1822 Z M809 1822 Q865 1822 904 1784 Q942 1747 942 1694 Q942 1642 904 1604 Q865 1566 809 1566 Q752 1566 713 1604 Q675 1642 675 1695 Q675 1747 713 1784 Q753 1822 809 1822 Z " />
<glyph glyph-name="fraction" unicode="&#x2044;" horiz-adv-x="273" d="M-296 0 L405 1413 L569 1413 L-131 0 L-296 0 Z " />
<glyph glyph-name="Euro" unicode="&#x20ac;" horiz-adv-x="1180" d="M13 497 L64 605 L175 605 Q172 640 172 675 Q172 698 173 720 L13 720 L64 828 L179 828 Q210 1056 293 1195 Q439 1439 762 1439 Q924 1439 1114 1379 L1110 1081 L967 1081 Q957 1168 934 1211 Q890 1295 761 1295 Q464 1295 420 828 L967 828 L915 720 L415 720 Q414 686 414 668 Q414 637 416 605 L891 605 L840 497 L426 497 Q451 348 500 267 Q547 187 619 152 Q695 115 804 115 Q919 115 1012 156 Q1050 173 1112 213 L1119 34 Q1021 -3 951.5 -16 Q882 -29 786 -29 Q550 -29 394 88 Q268 182 215 370 Q199 429 188 497 L13 497 Z " />
<glyph glyph-name="guilsinglleft" unicode="&#x2039;" horiz-adv-x="510" d="M287 571 L470 251 L386 183 L47 559 L47 583 L386 959 L470 891 L287 571 Z " />
<glyph glyph-name="guilsinglright" unicode="&#x203a;" horiz-adv-x="510" d="M224 571 L41 891 L124 959 L464 583 L464 559 L124 183 L41 251 L224 571 Z " />
<glyph glyph-name="fi" unicode="&#xfb01;" horiz-adv-x="1301" d="M193 837 L19 837 L24 983 L193 983 L193 1110 Q193 1281 265 1363 Q353 1463 557 1463 Q647 1463 756 1444 L734 1275 Q661 1326 585 1326 Q484 1326 446 1258 Q420 1212 420 1107 L420 983 L707 983 L702 837 L420 837 L420 324 Q420 179 451 141 Q471 117 538 106 Q540 105 581 99 Q594 97 607 95 L607 -4 Q421 4 328 4 Q236 4 51 -4 L51 95 Q70 100 80 101 Q141 112 158 128 Q193 160 193 324 L193 837 Z M751 -4 L751 95 Q768 98 776 100 Q838 110 858 128 Q893 159 893 327 L893 667 Q893 827 861 863 Q842 884 766 884 L766 983 Q985 991 1120 1008 L1120 327 Q1120 180 1144 141 Q1159 116 1210 105 Q1215 103 1262 95 L1262 -4 Q1092 4 1006 4 Q921 4 751 -4 Z M984 1414 Q1044 1414 1084 1374 Q1125 1334 1125 1278 Q1125 1223 1084 1182 Q1044 1142 984 1142 Q923 1142 883 1182 Q842 1223 842 1280 Q842 1335 883 1374 Q924 1414 984 1414 Z " />
<glyph glyph-name="fl" unicode="&#xfb02;" horiz-adv-x="1268" d="M193 837 L19 837 L24 983 L193 983 L193 1118 Q193 1284 273 1366 Q368 1463 580 1463 Q703 1463 867 1431 L1085 1480 L1085 327 Q1085 181 1109 141 Q1123 116 1174 105 Q1177 105 1227 95 L1227 -4 Q1057 4 972 4 Q886 4 716 -4 L716 95 Q737 99 747 101 Q805 110 824 128 Q858 159 858 327 L858 1275 Q741 1330 614 1330 Q492 1330 450 1263 Q420 1216 420 1111 L420 983 L672 983 L667 837 L420 837 L420 324 Q420 179 449 141 Q467 116 527 105 Q535 103 591 95 L591 -4 Q411 4 321 4 Q231 4 51 -4 L51 95 Q74 100 86 102 Q140 111 158 128 Q193 159 193 324 L193 837 Z " />
<glyph glyph-name="daggerdbl" unicode="&#x2021;" horiz-adv-x="1120" d="M442 795 L104 795 L112 953 L442 953 L442 1413 L677 1413 L677 953 L1016 953 L1007 795 L677 795 L677 287 L1016 287 L1007 129 L677 129 L677 -402 L442 -402 L442 129 L104 129 L112 287 L442 287 L442 795 Z " />
<glyph glyph-name="periodcentered" unicode="&#xb7;" horiz-adv-x="543" d="M275 797 Q344 797 390 745 Q429 701 429 646 Q429 582 379 536 Q334 496 272 496 Q200 496 154 548 Q115 591 115 648 Q115 711 165 757 Q209 797 275 797 Z " />
<glyph glyph-name="quotesinglbase" unicode="&#x201a;" horiz-adv-x="544" d="M231 -17 Q127 16 127 123 Q127 185 165 226 Q209 274 284 274 Q365 274 409 225 Q444 185 444 123 Q444 33 336 -119 Q301 -168 246 -232 Q225 -258 212 -275 L100 -275 Q188 -135 231 -17 Z " />
<glyph glyph-name="quotedblbase" unicode="&#x201e;" horiz-adv-x="955" d="M231 -17 Q127 16 127 123 Q127 185 165 226 Q209 274 284 274 Q365 274 409 225 Q444 185 444 123 Q444 33 336 -119 Q301 -168 246 -232 Q225 -258 212 -275 L100 -275 Q188 -135 231 -17 Z M642 -17 Q538 16 538 124 Q538 185 576 226 Q620 274 695 274 Q776 274 820 225 Q855 185 855 123 Q855 32 746 -119 Q712 -168 657 -232 Q635 -258 623 -275 L511 -275 Q599 -135 642 -17 Z " />
<glyph glyph-name="perthousand" unicode="&#x2030;" horiz-adv-x="2571" d="M430 1442 Q600 1442 690 1334 Q770 1238 770 1070 Q770 903 690 807 Q600 699 424 699 Q249 699 159 807 Q79 903 79 1069 Q79 1240 159 1334 Q252 1442 430 1442 Z M427 1336 Q290 1336 290 1069 Q290 805 425 805 Q559 805 559 1070 Q559 1336 427 1336 Z M515 0 L1082 1413 L1272 1413 L705 0 L515 0 Z M1369 714 Q1539 714 1629 606 Q1709 511 1709 342 Q1709 175 1629 79 Q1539 -29 1364 -29 Q1187 -29 1098 79 Q1018 175 1018 341 Q1018 512 1098 606 Q1190 714 1369 714 Z M1366 608 Q1229 608 1229 341 Q1229 77 1363 77 Q1498 77 1498 342 Q1498 608 1366 608 Z M2152 714 Q2322 714 2412 606 Q2492 510 2492 342 Q2492 175 2412 79 Q2322 -29 2146 -29 Q1970 -29 1881 79 Q1801 175 1801 341 Q1801 513 1881 606 Q1973 714 2152 714 Z M2147 608 Q2008 608 2008 340 Q2008 77 2144 77 Q2281 77 2281 342 Q2281 608 2147 608 Z " />
<glyph glyph-name="Acircumflex" unicode="&#xc2;" horiz-adv-x="1457" d="M988 412 L431 412 L375 255 Q355 200 355 165 Q355 127 392 113 Q410 107 468 95 L468 -4 Q304 4 222 4 Q141 4 -22 -4 L-22 95 Q75 112 103 136 Q135 163 177 278 L619 1413 L846 1413 L1281 279 Q1314 191 1332 165 Q1358 126 1411 111 Q1436 104 1484 95 L1484 -4 Q1307 4 1219 4 Q1129 4 951 -4 L951 95 Q1018 109 1035 117 Q1064 130 1064 163 Q1064 197 1046 248 L988 412 Z M936 558 L711 1186 L483 558 L936 558 Z M728 1719 L554 1556 L371 1556 L594 1831 L862 1831 L1085 1556 L901 1556 L728 1719 Z " />
<glyph glyph-name="Ecircumflex" unicode="&#xca;" horiz-adv-x="1191" d="M45 -4 L45 96 Q73 101 87 104 Q139 113 157 128 Q194 159 194 325 L194 1071 Q194 1231 169 1271 Q155 1295 106 1306 Q103 1306 70 1313 Q57 1315 45 1317 L45 1417 Q232 1413 308 1413 L1134 1413 L1138 1088 L997 1088 Q980 1193 964 1216 Q932 1263 803 1263 L434 1263 L434 799 L663 799 Q747 799 771 836 Q792 867 794 956 L929 956 Q924 805 924 732 Q924 654 929 503 L794 503 Q792 598 771 632 Q747 671 663 671 L434 671 L434 251 Q434 198 457 174 Q480 150 530 150 L799 150 Q941 150 972 198 Q990 226 1006 337 L1147 337 L1143 0 L364 0 Q307 0 45 -4 Z M637 1719 L463 1556 L280 1556 L503 1831 L771 1831 L994 1556 L810 1556 L637 1719 Z " />
<glyph glyph-name="Aacute" unicode="&#xc1;" horiz-adv-x="1457" d="M988 412 L431 412 L375 255 Q355 200 355 165 Q355 127 392 113 Q410 107 468 95 L468 -4 Q304 4 222 4 Q141 4 -22 -4 L-22 95 Q75 112 103 136 Q135 163 177 278 L619 1413 L846 1413 L1281 279 Q1314 191 1332 165 Q1358 126 1411 111 Q1436 104 1484 95 L1484 -4 Q1307 4 1219 4 Q1129 4 951 -4 L951 95 Q1018 109 1035 117 Q1064 130 1064 163 Q1064 197 1046 248 L988 412 Z M936 558 L711 1186 L483 558 L936 558 Z M628 1556 L787 1831 L1062 1831 L800 1556 L628 1556 Z " />
<glyph glyph-name="Edieresis" unicode="&#xcb;" horiz-adv-x="1191" d="M45 -4 L45 96 Q73 101 87 104 Q139 113 157 128 Q194 159 194 325 L194 1071 Q194 1231 169 1271 Q155 1295 106 1306 Q103 1306 70 1313 Q57 1315 45 1317 L45 1417 Q232 1413 308 1413 L1134 1413 L1138 1088 L997 1088 Q980 1193 964 1216 Q932 1263 803 1263 L434 1263 L434 799 L663 799 Q747 799 771 836 Q792 867 794 956 L929 956 Q924 805 924 732 Q924 654 929 503 L794 503 Q792 598 771 632 Q747 671 663 671 L434 671 L434 251 Q434 198 457 174 Q480 150 530 150 L799 150 Q941 150 972 198 Q990 226 1006 337 L1147 337 L1143 0 L364 0 Q307 0 45 -4 Z M437 1822 Q493 1822 532 1784 Q570 1747 570 1694 Q570 1642 532 1604 Q493 1566 437 1566 Q380 1566 341 1604 Q303 1642 303 1695 Q303 1747 341 1784 Q381 1822 437 1822 Z M836 1822 Q892 1822 931 1784 Q969 1747 969 1694 Q969 1642 931 1604 Q892 1566 836 1566 Q779 1566 740 1604 Q702 1642 702 1695 Q702 1747 740 1784 Q780 1822 836 1822 Z " />
<glyph glyph-name="Egrave" unicode="&#xc8;" horiz-adv-x="1191" d="M45 -4 L45 96 Q73 101 87 104 Q139 113 157 128 Q194 159 194 325 L194 1071 Q194 1231 169 1271 Q155 1295 106 1306 Q103 1306 70 1313 Q57 1315 45 1317 L45 1417 Q232 1413 308 1413 L1134 1413 L1138 1088 L997 1088 Q980 1193 964 1216 Q932 1263 803 1263 L434 1263 L434 799 L663 799 Q747 799 771 836 Q792 867 794 956 L929 956 Q924 805 924 732 Q924 654 929 503 L794 503 Q792 598 771 632 Q747 671 663 671 L434 671 L434 251 Q434 198 457 174 Q480 150 530 150 L799 150 Q941 150 972 198 Q990 226 1006 337 L1147 337 L1143 0 L364 0 Q307 0 45 -4 Z M625 1556 L363 1831 L638 1831 L797 1556 L625 1556 Z " />
<glyph glyph-name="Iacute" unicode="&#xcd;" horiz-adv-x="627" d="M45 -4 L45 95 Q73 101 87 103 Q139 113 157 128 Q194 159 194 325 L194 1088 Q194 1232 169 1272 Q154 1295 106 1306 Q104 1306 70 1313 Q57 1315 45 1318 L45 1417 Q224 1409 314 1409 Q404 1409 583 1417 L583 1318 Q555 1312 541 1310 Q489 1301 471 1285 Q434 1255 434 1088 L434 325 Q434 181 459 141 Q473 118 522 107 Q532 105 541 103 Q555 101 583 95 L583 -4 Q404 4 314 4 Q224 4 45 -4 Z M222 1556 L381 1831 L656 1831 L394 1556 L222 1556 Z " />
<glyph glyph-name="Icircumflex" unicode="&#xce;" horiz-adv-x="627" d="M45 -4 L45 95 Q73 101 87 103 Q139 113 157 128 Q194 159 194 325 L194 1088 Q194 1232 169 1272 Q154 1295 106 1306 Q104 1306 70 1313 Q57 1315 45 1318 L45 1417 Q224 1409 314 1409 Q404 1409 583 1417 L583 1318 Q555 1312 541 1310 Q489 1301 471 1285 Q434 1255 434 1088 L434 325 Q434 181 459 141 Q473 118 522 107 Q532 105 541 103 Q555 101 583 95 L583 -4 Q404 4 314 4 Q224 4 45 -4 Z M314 1719 L140 1556 L-43 1556 L180 1831 L448 1831 L671 1556 L487 1556 L314 1719 Z " />
<glyph glyph-name="Idieresis" unicode="&#xcf;" horiz-adv-x="627" d="M45 -4 L45 95 Q73 101 87 103 Q139 113 157 128 Q194 159 194 325 L194 1088 Q194 1232 169 1272 Q154 1295 106 1306 Q104 1306 70 1313 Q57 1315 45 1318 L45 1417 Q224 1409 314 1409 Q404 1409 583 1417 L583 1318 Q555 1312 541 1310 Q489 1301 471 1285 Q434 1255 434 1088 L434 325 Q434 181 459 141 Q473 118 522 107 Q532 105 541 103 Q555 101 583 95 L583 -4 Q404 4 314 4 Q224 4 45 -4 Z M115 1822 Q171 1822 210 1784 Q248 1747 248 1694 Q248 1642 210 1604 Q171 1566 115 1566 Q58 1566 19 1604 Q-19 1642 -19 1695 Q-19 1747 19 1784 Q59 1822 115 1822 Z M514 1822 Q570 1822 609 1784 Q647 1747 647 1694 Q647 1642 609 1604 Q570 1566 514 1566 Q457 1566 418 1604 Q380 1642 380 1695 Q380 1747 418 1784 Q458 1822 514 1822 Z " />
<glyph glyph-name="Igrave" unicode="&#xcc;" horiz-adv-x="627" d="M45 -4 L45 95 Q73 101 87 103 Q139 113 157 128 Q194 159 194 325 L194 1088 Q194 1232 169 1272 Q154 1295 106 1306 Q104 1306 70 1313 Q57 1315 45 1318 L45 1417 Q224 1409 314 1409 Q404 1409 583 1417 L583 1318 Q555 1312 541 1310 Q489 1301 471 1285 Q434 1255 434 1088 L434 325 Q434 181 459 141 Q473 118 522 107 Q532 105 541 103 Q555 101 583 95 L583 -4 Q404 4 314 4 Q224 4 45 -4 Z M265 1556 L3 1831 L278 1831 L437 1556 L265 1556 Z " />
<glyph glyph-name="Oacute" unicode="&#xd3;" horiz-adv-x="1406" d="M714 1439 Q923 1439 1067 1335 Q1213 1228 1276 1018 Q1316 881 1316 706 Q1316 391 1181 195 Q1029 -26 704 -26 Q378 -26 226 195 Q91 391 91 704 Q91 1026 226 1218 Q381 1439 714 1439 Z M709 1293 Q517 1293 426 1129 Q340 973 340 703 Q340 440 426 284 Q516 120 703 120 Q827 120 913 198 Q1067 337 1067 707 Q1067 977 981 1129 Q888 1293 709 1293 Z M556 1556 L715 1831 L990 1831 L728 1556 L556 1556 Z " />
<glyph glyph-name="Ocircumflex" unicode="&#xd4;" horiz-adv-x="1406" d="M714 1439 Q923 1439 1067 1335 Q1213 1228 1276 1018 Q1316 881 1316 706 Q1316 391 1181 195 Q1029 -26 704 -26 Q378 -26 226 195 Q91 391 91 704 Q91 1026 226 1218 Q381 1439 714 1439 Z M709 1293 Q517 1293 426 1129 Q340 973 340 703 Q340 440 426 284 Q516 120 703 120 Q827 120 913 198 Q1067 337 1067 707 Q1067 977 981 1129 Q888 1293 709 1293 Z M703 1719 L529 1556 L346 1556 L569 1831 L837 1831 L1060 1556 L876 1556 L703 1719 Z " />
<glyph glyph-name="Ograve" unicode="&#xd2;" horiz-adv-x="1406" d="M714 1439 Q923 1439 1067 1335 Q1213 1228 1276 1018 Q1316 881 1316 706 Q1316 391 1181 195 Q1029 -26 704 -26 Q378 -26 226 195 Q91 391 91 704 Q91 1026 226 1218 Q381 1439 714 1439 Z M709 1293 Q517 1293 426 1129 Q340 973 340 703 Q340 440 426 284 Q516 120 703 120 Q827 120 913 198 Q1067 337 1067 707 Q1067 977 981 1129 Q888 1293 709 1293 Z M679 1556 L417 1831 L692 1831 L851 1556 L679 1556 Z " />
<glyph glyph-name="Uacute" unicode="&#xda;" horiz-adv-x="1417" d="M37 1318 L37 1417 Q216 1409 306 1409 Q396 1409 575 1417 L575 1318 Q547 1312 534 1310 Q481 1301 463 1285 Q426 1255 426 1088 L426 526 Q426 315 468 238 Q534 119 730 119 Q941 119 1001 260 Q1033 335 1033 526 L1033 1088 Q1033 1232 1008 1272 Q993 1295 945 1306 Q944 1306 909 1313 Q896 1315 884 1318 L884 1417 Q1050 1409 1132 1409 Q1215 1409 1381 1417 L1381 1318 Q1353 1312 1340 1310 Q1287 1301 1269 1285 Q1232 1254 1232 1088 L1232 536 Q1232 403 1222 336 Q1192 141 1058 54 Q932 -27 721 -27 Q345 -27 236 194 Q198 269 189 384 Q186 426 186 515 L186 1088 Q186 1232 161 1272 Q146 1295 98 1306 Q96 1306 62 1313 Q49 1315 37 1318 Z M628 1556 L787 1831 L1062 1831 L800 1556 L628 1556 Z " />
<glyph glyph-name="Ucircumflex" unicode="&#xdb;" horiz-adv-x="1417" d="M37 1318 L37 1417 Q216 1409 306 1409 Q396 1409 575 1417 L575 1318 Q547 1312 534 1310 Q481 1301 463 1285 Q426 1255 426 1088 L426 526 Q426 315 468 238 Q534 119 730 119 Q941 119 1001 260 Q1033 335 1033 526 L1033 1088 Q1033 1232 1008 1272 Q993 1295 945 1306 Q944 1306 909 1313 Q896 1315 884 1318 L884 1417 Q1050 1409 1132 1409 Q1215 1409 1381 1417 L1381 1318 Q1353 1312 1340 1310 Q1287 1301 1269 1285 Q1232 1254 1232 1088 L1232 536 Q1232 403 1222 336 Q1192 141 1058 54 Q932 -27 721 -27 Q345 -27 236 194 Q198 269 189 384 Q186 426 186 515 L186 1088 Q186 1232 161 1272 Q146 1295 98 1306 Q96 1306 62 1313 Q49 1315 37 1318 Z M734 1719 L560 1556 L377 1556 L600 1831 L868 1831 L1091 1556 L907 1556 L734 1719 Z " />
<glyph glyph-name="Ugrave" unicode="&#xd9;" horiz-adv-x="1417" d="M37 1318 L37 1417 Q216 1409 306 1409 Q396 1409 575 1417 L575 1318 Q547 1312 534 1310 Q481 1301 463 1285 Q426 1255 426 1088 L426 526 Q426 315 468 238 Q534 119 730 119 Q941 119 1001 260 Q1033 335 1033 526 L1033 1088 Q1033 1232 1008 1272 Q993 1295 945 1306 Q944 1306 909 1313 Q896 1315 884 1318 L884 1417 Q1050 1409 1132 1409 Q1215 1409 1381 1417 L1381 1318 Q1353 1312 1340 1310 Q1287 1301 1269 1285 Q1232 1254 1232 1088 L1232 536 Q1232 403 1222 336 Q1192 141 1058 54 Q932 -27 721 -27 Q345 -27 236 194 Q198 269 189 384 Q186 426 186 515 L186 1088 Q186 1232 161 1272 Q146 1295 98 1306 Q96 1306 62 1313 Q49 1315 37 1318 Z M692 1556 L430 1831 L705 1831 L864 1556 L692 1556 Z " />
<glyph glyph-name="dotlessi" unicode="&#x131;" horiz-adv-x="597" d="M47 -4 L47 95 Q64 98 72 100 Q134 110 154 128 Q189 159 189 327 L189 667 Q189 827 157 863 Q138 884 62 884 L62 983 Q281 991 416 1008 L416 327 Q416 180 440 141 Q455 116 506 105 Q511 103 558 95 L558 -4 Q388 4 302 4 Q217 4 47 -4 Z " />
<glyph glyph-name="circumflex" unicode="&#x2c6;" horiz-adv-x="1024" d="M512 1309 L338 1147 L155 1147 L378 1421 L646 1421 L869 1147 L685 1147 L512 1309 Z " />
<glyph glyph-name="tilde" unicode="&#x2dc;" horiz-adv-x="1024" d="M298 1150 L141 1150 Q166 1275 203 1334 Q266 1435 375 1435 Q432 1435 485 1407 Q513 1392 567 1345 Q625 1293 652 1293 Q691 1293 710 1351 Q718 1378 725 1424 L883 1424 Q870 1307 836 1244 Q777 1136 646 1136 Q573 1136 518 1175 Q506 1184 454 1229 Q399 1278 374 1278 Q340 1278 317 1222 Q311 1205 298 1150 Z " />
<glyph glyph-name="macron" unicode="&#xaf;" horiz-adv-x="1024" d="M195 1211 L195 1351 L829 1351 L829 1211 L195 1211 Z " />
<glyph glyph-name="breve" unicode="&#x2d8;" horiz-adv-x="1024" d="M164 1434 L335 1434 Q342 1370 366 1337 Q405 1282 512 1282 Q626 1282 664 1347 Q682 1378 688 1434 L859 1434 Q852 1133 512 1133 Q171 1133 164 1434 Z " />
<glyph glyph-name="dotaccent" unicode="&#x2d9;" horiz-adv-x="1024" d="M512 1416 Q573 1416 614 1376 Q654 1336 654 1280 Q654 1224 614 1184 Q573 1144 513 1144 Q452 1144 412 1184 Q371 1224 371 1282 Q371 1337 412 1376 Q454 1416 512 1416 Z " />
<glyph glyph-name="ring" unicode="&#x2da;" horiz-adv-x="1024" d="M516 1537 Q620 1537 684 1477 Q746 1419 746 1332 Q746 1246 684 1187 Q619 1126 512 1126 Q405 1126 340 1187 Q278 1246 278 1332 Q278 1421 340 1477 Q405 1537 516 1537 Z M513 1463 Q466 1463 439 1425 Q415 1391 415 1331 Q415 1273 439 1238 Q465 1200 512 1200 Q558 1200 585 1238 Q609 1272 609 1331 Q609 1392 585 1425 Q557 1463 513 1463 Z " />
<glyph glyph-name="cedilla" unicode="&#xb8;" horiz-adv-x="1024" d="M490 2 L611 2 L517 -136 Q619 -144 670 -168 Q761 -210 761 -330 Q761 -434 685 -488 Q615 -537 497 -537 Q392 -537 291 -507 L317 -404 Q401 -437 462 -437 Q565 -437 565 -332 Q565 -212 441 -212 Q418 -212 385 -216 L371 -181 L490 2 Z " />
<glyph glyph-name="hungarumlaut" unicode="&#x2dd;" horiz-adv-x="1024" d="M237 1147 L374 1421 L632 1421 L403 1147 L237 1147 Z M589 1147 L726 1421 L984 1421 L755 1147 L589 1147 Z " />
<glyph glyph-name="ogonek" unicode="&#x2db;" horiz-adv-x="1024" d="M586 0 L740 0 Q619 -91 588 -123 Q503 -211 503 -312 Q503 -442 638 -442 Q708 -442 779 -411 L797 -511 Q705 -542 607 -542 Q460 -542 380 -483 Q307 -429 307 -326 Q307 -194 424 -98 Q487 -46 586 0 Z " />
<glyph glyph-name="caron" unicode="&#x2c7;" horiz-adv-x="1024" d="M512 1259 L685 1421 L869 1421 L646 1147 L378 1147 L155 1421 L338 1421 L512 1259 Z " />
<glyph glyph-name="uni00A0" unicode="&#xa0;" horiz-adv-x="492" d="" />
<glyph glyph-name="currency" unicode="&#xa4;" horiz-adv-x="1180" d="M167 111 L57 214 L230 399 Q199 448 191 463 Q141 556 141 666 Q141 775 191 868 Q199 883 230 932 L57 1117 L167 1219 L340 1032 Q387 1062 423 1077 Q495 1107 591 1107 Q698 1107 779 1067 Q804 1055 839 1032 L1012 1219 L1123 1117 L949 932 Q978 887 988 868 Q1037 774 1037 665 Q1037 557 988 463 Q979 444 949 399 L1123 214 L1012 111 L839 298 Q796 270 762 255 Q689 224 590 224 Q483 224 402 263 Q376 276 340 298 L167 111 Z M593 991 Q478 991 413 894 Q353 805 353 663 Q353 524 413 435 Q478 338 589 338 Q701 338 766 435 Q826 524 826 664 Q826 807 766 894 Q699 991 593 991 Z " />
<glyph glyph-name="brokenbar" unicode="&#xa6;" horiz-adv-x="1180" d="M480 871 L480 1413 L695 1413 L695 871 L480 871 Z M480 0 L480 509 L695 509 L695 0 L480 0 Z " />
<glyph glyph-name="uni00AD" unicode="&#xad;" horiz-adv-x="816" d="M114 561 L114 726 L702 726 L702 561 L114 561 Z " />
<glyph glyph-name="twosuperior" unicode="&#xb2;" horiz-adv-x="755" d="M38 770 L38 872 L306 1165 Q365 1229 404 1289 Q441 1346 441 1406 Q441 1458 413 1489 Q380 1525 319 1525 Q247 1525 219 1484 Q203 1460 198 1403 L76 1403 L74 1598 Q204 1633 327 1633 Q628 1633 628 1410 Q628 1319 573 1239 Q527 1173 452 1091 L259 879 L441 879 Q512 879 527 915 Q536 935 544 1007 L664 1007 L661 770 L38 770 Z " />
<glyph glyph-name="threesuperior" unicode="&#xb3;" horiz-adv-x="755" d="M169 1155 L169 1275 Q235 1269 259 1269 Q347 1269 395 1308 Q441 1346 441 1411 Q441 1525 315 1525 Q239 1525 211 1487 Q197 1467 189 1416 L67 1416 L65 1599 Q200 1633 323 1633 Q628 1633 628 1423 Q628 1291 491 1234 Q570 1210 601 1184 Q667 1129 667 1039 Q667 858 442 794 Q331 761 68 752 L57 862 Q210 864 307 884 Q476 919 476 1039 Q476 1165 286 1165 Q254 1165 169 1155 Z " />
<glyph glyph-name="onesuperior" unicode="&#xb9;" horiz-adv-x="755" d="M97 767 L97 849 Q244 860 272 874 Q300 888 307 918 Q315 947 315 1007 L315 1494 L113 1445 L113 1556 L366 1623 L501 1623 L501 1020 Q501 913 520 889 Q540 864 611 857 Q633 855 712 849 L712 767 Q501 773 405 773 Q308 773 97 767 Z " />
<glyph glyph-name="onequarter" unicode="&#xbc;" horiz-adv-x="1856" d="M134 562 L134 644 Q267 655 293 669 Q320 684 327 713 Q334 742 334 801 L334 1288 L150 1240 L150 1351 L385 1418 L520 1418 L520 815 Q520 708 538 684 Q556 659 620 652 Q645 649 713 644 L713 562 Q508 568 424 568 Q338 568 134 562 Z M496 0 L1197 1413 L1361 1413 L660 0 L496 0 Z M1497 217 L1093 217 L1093 322 L1356 848 L1540 848 L1280 326 L1497 326 L1497 594 L1671 594 L1671 326 L1790 326 L1790 217 L1671 217 L1671 191 Q1671 112 1691 95 Q1700 87 1767 78 L1767 -3 Q1630 2 1574 2 Q1511 2 1376 -3 L1376 78 Q1465 86 1480 101 Q1497 119 1497 191 L1497 217 Z " />
<glyph glyph-name="onehalf" unicode="&#xbd;" horiz-adv-x="1856" d="M134 562 L134 644 Q267 655 293 669 Q320 684 327 713 Q334 742 334 801 L334 1288 L150 1240 L150 1351 L385 1418 L520 1418 L520 815 Q520 708 538 684 Q556 659 620 652 Q645 649 713 644 L713 562 Q508 568 424 568 Q338 568 134 562 Z M496 0 L1197 1413 L1361 1413 L660 0 L496 0 Z M1121 0 L1121 102 L1389 395 Q1447 457 1487 519 Q1524 576 1524 635 Q1524 688 1496 719 Q1463 755 1402 755 Q1330 755 1302 714 Q1285 689 1281 633 L1159 633 L1157 828 Q1288 863 1410 863 Q1711 863 1711 640 Q1711 549 1656 469 Q1610 403 1535 321 L1342 109 L1524 109 Q1595 109 1610 144 Q1619 165 1627 237 L1747 237 L1745 0 L1121 0 Z " />
<glyph glyph-name="threequarters" unicode="&#xbe;" horiz-adv-x="1856" d="M203 950 L203 1070 Q269 1064 293 1064 Q382 1064 429 1103 Q475 1141 475 1206 Q475 1320 349 1320 Q273 1320 245 1282 Q231 1263 223 1211 L101 1211 L99 1394 Q235 1428 357 1428 Q662 1428 662 1218 Q662 1086 525 1029 Q604 1005 635 979 Q701 924 701 834 Q701 653 476 589 Q365 557 102 547 L91 657 Q243 659 341 679 Q510 713 510 833 Q510 959 320 959 Q294 959 203 950 Z M495 0 L1196 1413 L1360 1413 L659 0 L495 0 Z M1496 217 L1092 217 L1092 322 L1355 848 L1539 848 L1279 326 L1496 326 L1496 594 L1670 594 L1670 326 L1789 326 L1789 217 L1670 217 L1670 191 Q1670 112 1690 95 Q1699 87 1766 78 L1766 -3 Q1629 2 1573 2 Q1510 2 1375 -3 L1375 78 Q1464 86 1478 101 Q1496 119 1496 191 L1496 217 Z " />
<glyph glyph-name="Eth" unicode="&#xd0;" horiz-adv-x="1357" d="M192 667 L21 667 L27 802 L192 802 L192 1088 Q192 1232 167 1271 Q152 1295 104 1306 Q102 1306 68 1313 Q55 1315 43 1317 L43 1417 Q191 1413 306 1413 L590 1413 Q778 1413 901 1369 Q1087 1302 1174 1128 Q1265 948 1265 704 Q1265 337 1074 156 Q969 56 810 20 Q720 0 581 0 L360 0 Q199 0 43 -4 L43 96 Q71 101 84 104 Q137 113 155 128 Q192 159 192 325 L192 667 Z M432 667 L432 150 L559 150 Q774 150 880 259 Q1016 398 1016 713 Q1016 1054 857 1186 Q787 1245 668 1258 Q625 1263 537 1263 L432 1263 L432 802 L760 802 L752 667 L432 667 Z " />
<glyph glyph-name="multiply" unicode="&#xd7;" horiz-adv-x="1180" d="M475 710 L165 1012 L283 1128 L593 825 L900 1125 L1018 1010 L711 710 L1021 407 L903 292 L593 594 L286 295 L168 410 L475 710 Z " />
<glyph glyph-name="Yacute" unicode="&#xdd;" horiz-adv-x="1138" d="M273 -4 L273 95 Q306 101 323 103 Q381 112 403 128 Q446 158 446 325 L446 542 L158 1126 Q101 1243 66 1274 Q38 1300 -52 1318 L-52 1417 Q120 1409 206 1409 Q291 1409 463 1417 L463 1318 Q405 1306 384 1297 Q354 1284 354 1253 Q354 1224 387 1154 L486 946 Q516 882 585 720 Q637 842 685 943 L778 1138 Q818 1223 818 1259 Q818 1285 790 1298 Q777 1304 717 1318 L717 1417 Q877 1409 957 1409 Q1037 1409 1197 1417 L1197 1318 Q1110 1301 1081 1279 Q1047 1253 986 1131 L686 543 L686 325 Q686 180 714 141 Q732 118 787 107 Q793 106 829 100 Q844 98 859 95 L859 -4 Q664 4 566 4 Q468 4 273 -4 Z M496 1556 L655 1831 L930 1831 L668 1556 L496 1556 Z " />
<glyph glyph-name="Thorn" unicode="&#xde;" horiz-adv-x="1195" d="M437 317 L437 279 Q437 164 471 133 Q490 116 540 106 Q549 105 557 103 Q573 101 604 95 L604 -4 Q417 4 323 4 Q231 4 45 -4 L45 95 Q73 101 87 103 Q139 113 157 128 Q194 159 194 325 L194 1088 Q194 1233 169 1272 Q154 1295 106 1306 Q99 1308 45 1318 L45 1417 Q225 1409 314 1409 Q404 1409 584 1417 L584 1318 Q490 1301 471 1284 Q438 1252 438 1173 L438 1155 L580 1155 Q882 1155 1003 1047 Q1129 933 1129 738 Q1129 614 1077 517 Q1011 393 860 348 Q756 317 616 317 L437 317 Z M434 463 L572 463 Q747 463 812 522 Q885 589 885 732 Q885 889 805 956 Q742 1009 582 1009 L434 1009 L434 463 Z " />
<glyph glyph-name="eth" unicode="&#xf0;" horiz-adv-x="1113" d="M722 952 Q652 1116 562 1205 L369 1082 L308 1164 L475 1271 Q373 1326 252 1343 L275 1457 Q477 1434 614 1363 L789 1476 L850 1394 L708 1303 Q823 1205 893 1069 Q1029 807 1029 495 Q1029 254 909 117 Q783 -29 556 -29 Q331 -29 204 116 Q85 252 85 483 Q85 714 204 850 Q331 995 541 995 Q612 995 674 972 Q690 965 722 952 Z M561 856 Q432 856 372 740 Q319 637 319 482 Q319 329 372 226 Q430 110 557 110 Q683 110 742 226 Q795 330 795 482 Q795 639 743 740 Q682 856 561 856 Z " />
<glyph glyph-name="yacute" unicode="&#xfd;" horiz-adv-x="1025" d="M398 0 L141 716 Q102 826 77 848 Q53 871 -39 884 L-39 983 Q120 975 199 975 Q278 975 437 983 L438 884 Q374 874 355 865 Q335 856 335 834 Q335 807 359 735 L541 155 L707 730 Q731 814 731 833 Q731 861 698 871 Q680 876 625 884 L625 983 Q776 975 851 975 Q928 975 1080 983 L1080 884 Q995 872 970 853 Q933 825 902 727 L687 47 Q597 -237 526 -336 Q424 -477 216 -477 Q123 -477 49 -455 L71 -297 Q148 -338 225 -338 Q294 -338 337 -303 Q400 -252 464 -63 L486 0 L398 0 Z M457 1147 L616 1421 L891 1421 L629 1147 L457 1147 Z " />
<glyph glyph-name="thorn" unicode="&#xfe;" horiz-adv-x="1132" d="M391 11 L391 -135 Q391 -280 420 -319 Q439 -343 499 -354 Q507 -356 567 -364 L567 -463 Q385 -455 292 -455 Q203 -455 22 -463 L22 -364 Q41 -361 51 -359 Q110 -349 129 -332 Q164 -301 164 -135 L164 1089 Q164 1227 144 1275 Q131 1307 92 1313 Q79 1315 42 1316 L42 1415 Q238 1429 391 1481 L391 897 Q505 1009 664 1009 Q800 1009 895 934 Q984 863 1023 717 Q1050 617 1050 499 Q1050 280 960 151 Q907 74 816 28 Q710 -26 590 -26 Q490 -26 391 11 Z M391 171 Q476 113 570 113 Q704 113 764 235 Q816 341 816 500 Q816 659 768 764 Q719 870 612 870 Q544 870 486 819 Q427 767 403 682 Q391 639 391 563 L391 171 Z " />
<glyph glyph-name="Amacron" unicode="&#x100;" horiz-adv-x="1457" d="M988 412 L431 412 L375 255 Q355 200 355 165 Q355 127 392 113 Q410 107 468 95 L468 -4 Q304 4 222 4 Q141 4 -22 -4 L-22 95 Q75 112 103 136 Q135 163 177 278 L619 1413 L846 1413 L1281 279 Q1314 191 1332 165 Q1358 126 1411 111 Q1436 104 1484 95 L1484 -4 Q1307 4 1219 4 Q1129 4 951 -4 L951 95 Q1018 109 1035 117 Q1064 130 1064 163 Q1064 197 1046 248 L988 412 Z M936 558 L711 1186 L483 558 L936 558 Z M411 1627 L411 1767 L1045 1767 L1045 1627 L411 1627 Z " />
<glyph glyph-name="amacron" unicode="&#x101;" horiz-adv-x="1097" d="M692 619 L692 647 Q692 738 674 785 Q640 873 504 873 Q397 873 351 826 Q321 796 310 727 L173 727 L170 968 Q351 1009 508 1009 Q682 1009 771 960 Q891 895 912 758 Q920 702 920 575 L920 327 Q920 182 944 142 Q958 117 1008 105 Q1016 103 1062 95 L1062 -4 Q926 2 862 2 Q817 2 736 0 Q720 43 712 127 Q606 -26 389 -26 Q238 -26 156 46 Q76 116 76 257 Q76 514 357 586 Q459 612 692 619 Z M693 502 Q558 497 472 479 Q304 442 304 271 Q304 106 451 106 Q577 106 650 206 Q683 252 690 306 Q693 331 693 381 L693 502 Z M207 1211 L207 1351 L841 1351 L841 1211 L207 1211 Z " />
<glyph glyph-name="Abreve" unicode="&#x102;" horiz-adv-x="1457" d="M988 412 L431 412 L375 255 Q355 200 355 165 Q355 127 392 113 Q410 107 468 95 L468 -4 Q304 4 222 4 Q141 4 -22 -4 L-22 95 Q75 112 103 136 Q135 163 177 278 L619 1413 L846 1413 L1281 279 Q1314 191 1332 165 Q1358 126 1411 111 Q1436 104 1484 95 L1484 -4 Q1307 4 1219 4 Q1129 4 951 -4 L951 95 Q1018 109 1035 117 Q1064 130 1064 163 Q1064 197 1046 248 L988 412 Z M936 558 L711 1186 L483 558 L936 558 Z M381 1843 L552 1843 Q559 1779 583 1747 Q623 1692 729 1692 Q842 1692 881 1757 Q899 1787 905 1843 L1076 1843 Q1069 1543 729 1543 Q388 1543 381 1843 Z " />
<glyph glyph-name="abreve" unicode="&#x103;" horiz-adv-x="1097" d="M692 619 L692 647 Q692 738 674 785 Q640 873 504 873 Q397 873 351 826 Q321 796 310 727 L173 727 L170 968 Q351 1009 508 1009 Q682 1009 771 960 Q891 895 912 758 Q920 702 920 575 L920 327 Q920 182 944 142 Q958 117 1008 105 Q1016 103 1062 95 L1062 -4 Q926 2 862 2 Q817 2 736 0 Q720 43 712 127 Q606 -26 389 -26 Q238 -26 156 46 Q76 116 76 257 Q76 514 357 586 Q459 612 692 619 Z M693 502 Q558 497 472 479 Q304 442 304 271 Q304 106 451 106 Q577 106 650 206 Q683 252 690 306 Q693 331 693 381 L693 502 Z M187 1434 L358 1434 Q365 1370 389 1337 Q428 1282 535 1282 Q649 1282 687 1347 Q705 1378 711 1434 L882 1434 Q875 1133 535 1133 Q194 1133 187 1434 Z " />
<glyph glyph-name="Aogonek" unicode="&#x104;" horiz-adv-x="1457" d="M988 412 L431 412 L375 255 Q355 200 355 165 Q355 127 392 113 Q408 108 468 95 L468 -4 Q304 4 222 4 Q141 4 -22 -4 L-22 95 Q75 112 103 136 Q125 154 145 195 Q148 201 177 278 L619 1413 L846 1413 L1281 279 Q1315 189 1332 165 Q1359 126 1411 111 Q1436 103 1484 95 L1484 -4 Q1373 -83 1332 -125 Q1247 -212 1247 -311 Q1247 -442 1382 -442 Q1453 -442 1523 -411 L1541 -511 Q1449 -542 1352 -542 Q1204 -542 1124 -483 Q1051 -429 1051 -326 Q1051 -180 1201 -74 Q1251 -39 1337 1 Q1245 4 1204 4 Q1117 4 951 -4 L951 95 Q1018 109 1035 117 Q1064 130 1064 165 Q1064 197 1046 248 L988 412 Z M936 558 L711 1186 L483 558 L936 558 Z " />
<glyph glyph-name="aogonek" unicode="&#x105;" horiz-adv-x="1097" d="M692 619 L692 647 Q692 738 674 785 Q640 873 504 873 Q397 873 351 826 Q321 796 310 727 L173 727 L170 968 Q351 1009 508 1009 Q682 1009 771 960 Q891 895 912 758 Q920 702 920 575 L920 327 Q920 182 944 142 Q958 117 1008 105 Q1016 103 1062 95 L1062 -4 Q951 -83 910 -125 Q825 -211 825 -311 Q825 -390 868 -419 Q901 -442 960 -442 Q1031 -442 1101 -411 L1119 -511 Q1027 -542 930 -542 Q782 -542 702 -483 Q629 -429 629 -326 Q629 -179 779 -74 Q832 -37 915 1 Q871 2 853 2 Q810 2 736 0 Q719 50 712 127 Q606 -26 389 -26 Q238 -26 156 46 Q76 116 76 257 Q76 514 357 586 Q467 614 692 619 Z M693 502 Q540 493 472 479 Q304 441 304 271 Q304 106 451 106 Q577 106 650 206 Q683 252 690 306 Q693 331 693 381 L693 502 Z " />
<glyph glyph-name="Cacute" unicode="&#x106;" horiz-adv-x="1187" d="M978 337 L1116 337 L1119 26 Q945 -26 736 -26 Q388 -26 232 177 Q91 360 91 684 Q91 929 169 1105 Q258 1304 433 1384 Q552 1439 731 1439 Q904 1439 1098 1392 L1095 1081 L951 1081 Q942 1167 917 1211 Q871 1293 727 1293 Q529 1293 436 1130 Q340 962 340 694 Q340 436 426 284 Q516 123 736 123 Q888 123 936 198 Q964 242 978 337 Z M602 1556 L761 1831 L1036 1831 L774 1556 L602 1556 Z " />
<glyph glyph-name="cacute" unicode="&#x107;" horiz-adv-x="895" d="M836 191 L879 45 Q736 -26 566 -26 Q330 -26 209 106 Q84 241 84 479 Q84 743 226 888 Q345 1009 560 1009 Q688 1009 845 968 L842 668 L702 668 Q698 738 686 782 Q661 873 556 873 Q445 873 384 771 Q318 663 318 487 Q318 113 603 113 Q718 113 836 191 Z M440 1147 L599 1421 L874 1421 L612 1147 L440 1147 Z " />
<glyph glyph-name="Ccircumflex" unicode="&#x108;" horiz-adv-x="1187" d="M978 337 L1116 337 L1119 26 Q945 -26 736 -26 Q388 -26 232 177 Q91 360 91 684 Q91 929 169 1105 Q258 1304 433 1384 Q552 1439 731 1439 Q904 1439 1098 1392 L1095 1081 L951 1081 Q942 1167 917 1211 Q871 1293 727 1293 Q529 1293 436 1130 Q340 962 340 694 Q340 436 426 284 Q516 123 736 123 Q888 123 936 198 Q964 242 978 337 Z M732 1719 L558 1556 L375 1556 L598 1831 L866 1831 L1089 1556 L905 1556 L732 1719 Z " />
<glyph glyph-name="ccircumflex" unicode="&#x109;" horiz-adv-x="895" d="M836 191 L879 45 Q736 -26 566 -26 Q330 -26 209 106 Q84 241 84 479 Q84 743 226 888 Q345 1009 560 1009 Q688 1009 845 968 L842 668 L702 668 Q698 738 686 782 Q661 873 556 873 Q445 873 384 771 Q318 663 318 487 Q318 113 603 113 Q718 113 836 191 Z M532 1309 L358 1147 L175 1147 L398 1421 L666 1421 L889 1147 L705 1147 L532 1309 Z " />
<glyph glyph-name="Cdotaccent" unicode="&#x10a;" horiz-adv-x="1187" d="M978 337 L1116 337 L1119 26 Q945 -26 736 -26 Q388 -26 232 177 Q91 360 91 684 Q91 929 169 1105 Q258 1304 433 1384 Q552 1439 731 1439 Q904 1439 1098 1392 L1095 1081 L951 1081 Q942 1167 917 1211 Q871 1293 727 1293 Q529 1293 436 1130 Q340 962 340 694 Q340 436 426 284 Q516 123 736 123 Q888 123 936 198 Q964 242 978 337 Z M733 1831 Q794 1831 835 1791 Q875 1751 875 1695 Q875 1639 835 1599 Q794 1559 734 1559 Q674 1559 633 1599 Q592 1639 592 1697 Q592 1752 633 1791 Q675 1831 733 1831 Z " />
<glyph glyph-name="cdotaccent" unicode="&#x10b;" horiz-adv-x="895" d="M836 191 L879 45 Q736 -26 566 -26 Q330 -26 209 106 Q84 241 84 479 Q84 743 226 888 Q345 1009 560 1009 Q688 1009 845 968 L842 668 L702 668 Q698 738 686 782 Q661 873 556 873 Q445 873 384 771 Q318 663 318 487 Q318 113 603 113 Q718 113 836 191 Z M568 1416 Q629 1416 670 1376 Q710 1336 710 1280 Q710 1224 670 1184 Q629 1144 569 1144 Q508 1144 468 1184 Q427 1224 427 1282 Q427 1337 468 1376 Q510 1416 568 1416 Z " />
<glyph glyph-name="Ccaron" unicode="&#x10c;" horiz-adv-x="1187" d="M978 337 L1116 337 L1119 26 Q945 -26 736 -26 Q388 -26 232 177 Q91 360 91 684 Q91 929 169 1105 Q258 1304 433 1384 Q552 1439 731 1439 Q904 1439 1098 1392 L1095 1081 L951 1081 Q942 1167 917 1211 Q871 1293 727 1293 Q529 1293 436 1130 Q340 962 340 694 Q340 436 426 284 Q516 123 736 123 Q888 123 936 198 Q964 242 978 337 Z M731 1668 L904 1831 L1088 1831 L865 1556 L597 1556 L374 1831 L557 1831 L731 1668 Z " />
<glyph glyph-name="ccaron" unicode="&#x10d;" horiz-adv-x="895" d="M836 191 L879 45 Q736 -26 566 -26 Q330 -26 209 106 Q84 241 84 479 Q84 743 226 888 Q345 1009 560 1009 Q688 1009 845 968 L842 668 L702 668 Q698 738 686 782 Q661 873 556 873 Q445 873 384 771 Q318 663 318 487 Q318 113 603 113 Q718 113 836 191 Z M567 1259 L740 1421 L924 1421 L701 1147 L433 1147 L210 1421 L393 1421 L567 1259 Z " />
<glyph glyph-name="Dcaron" unicode="&#x10e;" horiz-adv-x="1357" d="M45 -4 L45 96 Q73 101 87 104 Q139 113 157 128 Q194 159 194 325 L194 1088 Q194 1232 169 1271 Q154 1295 106 1306 Q103 1306 70 1313 Q58 1315 45 1317 L45 1417 Q193 1413 308 1413 L602 1413 Q920 1413 1074 1271 Q1177 1175 1228 1002 Q1267 867 1267 706 Q1267 337 1076 156 Q971 56 812 20 Q723 0 583 0 L362 0 Q201 0 45 -4 Z M434 150 L561 150 Q776 150 882 259 Q1018 398 1018 714 Q1018 1054 860 1186 Q789 1245 670 1258 Q627 1263 539 1263 L434 1263 L434 150 Z M583 1668 L756 1831 L940 1831 L717 1556 L449 1556 L226 1831 L409 1831 L583 1668 Z " />
<glyph glyph-name="dcaron" unicode="&#x10f;" horiz-adv-x="1373" d="M742 968 L742 1087 Q742 1248 717 1287 Q704 1307 681 1314 Q664 1318 620 1318 L620 1417 Q816 1431 969 1483 L969 329 Q969 182 993 142 Q1007 117 1057 105 Q1066 103 1111 95 L1111 -4 Q978 2 913 2 Q873 2 795 0 Q778 42 770 125 Q652 -26 468 -26 Q269 -26 171 119 Q84 248 84 460 Q84 692 189 843 Q304 1009 537 1009 Q641 1009 742 968 Z M742 816 Q652 870 566 870 Q431 870 370 742 Q318 632 318 462 Q318 307 363 214 Q412 113 520 113 Q589 113 647 164 Q706 216 730 301 Q742 346 742 431 L742 816 Z M1139 999 L1202 1488 L1433 1488 L1299 999 L1139 999 Z " />
<glyph glyph-name="Dcroat" unicode="&#x110;" horiz-adv-x="1357" d="M192 667 L21 667 L27 802 L192 802 L192 1088 Q192 1232 167 1271 Q152 1295 104 1306 Q102 1306 68 1313 Q55 1315 43 1317 L43 1417 Q191 1413 306 1413 L590 1413 Q778 1413 901 1369 Q1087 1302 1174 1128 Q1265 948 1265 704 Q1265 337 1074 156 Q969 56 810 20 Q720 0 581 0 L360 0 Q199 0 43 -4 L43 96 Q71 101 84 104 Q137 113 155 128 Q192 159 192 325 L192 667 Z M432 667 L432 150 L559 150 Q774 150 880 259 Q1016 398 1016 713 Q1016 1054 857 1186 Q787 1245 668 1258 Q625 1263 537 1263 L432 1263 L432 802 L760 802 L752 667 L432 667 Z " />
<glyph glyph-name="dcroat" unicode="&#x111;" horiz-adv-x="1146" d="M743 968 L743 1106 L480 1106 L480 1218 L737 1218 Q733 1286 711 1307 Q692 1326 621 1327 L621 1417 Q817 1432 970 1483 L970 1218 L1115 1218 L1115 1106 L970 1106 L970 329 Q970 182 994 142 Q1008 117 1058 105 Q1067 103 1112 95 L1112 -4 Q979 2 914 2 Q874 2 797 0 Q779 42 771 125 Q653 -26 469 -26 Q269 -26 171 119 Q84 248 84 460 Q84 692 189 843 Q304 1009 537 1009 Q641 1009 743 968 Z M743 816 Q703 840 684 848 Q631 870 567 870 Q431 870 370 742 Q318 632 318 462 Q318 307 363 214 Q412 113 520 113 Q590 113 648 164 Q707 216 731 301 Q743 346 743 431 L743 816 Z " />
<glyph glyph-name="Emacron" unicode="&#x112;" horiz-adv-x="1191" d="M45 -4 L45 96 Q73 101 87 104 Q139 113 157 128 Q194 159 194 325 L194 1071 Q194 1231 169 1271 Q155 1295 106 1306 Q103 1306 70 1313 Q57 1315 45 1317 L45 1417 Q232 1413 308 1413 L1134 1413 L1138 1088 L997 1088 Q980 1193 964 1216 Q932 1263 803 1263 L434 1263 L434 799 L663 799 Q747 799 771 836 Q792 867 794 956 L929 956 Q924 805 924 732 Q924 654 929 503 L794 503 Q792 598 771 632 Q747 671 663 671 L434 671 L434 251 Q434 198 457 174 Q480 150 530 150 L799 150 Q941 150 972 198 Q990 226 1006 337 L1147 337 L1143 0 L364 0 Q307 0 45 -4 Z M314 1627 L314 1767 L948 1767 L948 1627 L314 1627 Z " />
<glyph glyph-name="emacron" unicode="&#x113;" horiz-adv-x="1056" d="M976 455 L313 455 Q316 327 346 258 Q409 113 631 113 Q787 113 917 185 L954 41 Q801 -26 586 -26 Q330 -26 211 94 Q84 222 84 470 Q84 702 187 844 Q306 1009 552 1009 Q978 1009 978 537 Q978 526 976 455 Z M758 591 Q754 696 728 763 Q686 870 554 870 Q412 870 353 740 Q323 675 316 591 L758 591 Z M236 1211 L236 1351 L870 1351 L870 1211 L236 1211 Z " />
<glyph glyph-name="Ebreve" unicode="&#x114;" horiz-adv-x="1191" d="M45 -4 L45 96 Q73 101 87 104 Q139 113 157 128 Q194 159 194 325 L194 1071 Q194 1231 169 1271 Q155 1295 106 1306 Q103 1306 70 1313 Q57 1315 45 1317 L45 1417 Q232 1413 308 1413 L1134 1413 L1138 1088 L997 1088 Q980 1193 964 1216 Q932 1263 803 1263 L434 1263 L434 799 L663 799 Q747 799 771 836 Q792 867 794 956 L929 956 Q924 805 924 732 Q924 654 929 503 L794 503 Q792 598 771 632 Q747 671 663 671 L434 671 L434 251 Q434 198 457 174 Q480 150 530 150 L799 150 Q941 150 972 198 Q990 226 1006 337 L1147 337 L1143 0 L364 0 Q307 0 45 -4 Z M302 1843 L473 1843 Q480 1779 504 1747 Q544 1692 650 1692 Q763 1692 802 1757 Q820 1787 826 1843 L997 1843 Q990 1543 650 1543 Q309 1543 302 1843 Z " />
<glyph glyph-name="ebreve" unicode="&#x115;" horiz-adv-x="1056" d="M976 455 L313 455 Q316 327 346 258 Q409 113 631 113 Q787 113 917 185 L954 41 Q801 -26 586 -26 Q330 -26 211 94 Q84 222 84 470 Q84 702 187 844 Q306 1009 552 1009 Q978 1009 978 537 Q978 526 976 455 Z M758 591 Q754 696 728 763 Q686 870 554 870 Q412 870 353 740 Q323 675 316 591 L758 591 Z M220 1434 L391 1434 Q398 1370 422 1337 Q461 1282 568 1282 Q682 1282 720 1347 Q738 1378 744 1434 L915 1434 Q908 1133 568 1133 Q227 1133 220 1434 Z " />
<glyph glyph-name="Edotaccent" unicode="&#x116;" horiz-adv-x="1191" d="M45 -4 L45 96 Q73 101 87 104 Q139 113 157 128 Q194 159 194 325 L194 1071 Q194 1231 169 1271 Q155 1295 106 1306 Q103 1306 70 1313 Q57 1315 45 1317 L45 1417 Q232 1413 308 1413 L1134 1413 L1138 1088 L997 1088 Q980 1193 964 1216 Q932 1263 803 1263 L434 1263 L434 799 L663 799 Q747 799 771 836 Q792 867 794 956 L929 956 Q924 805 924 732 Q924 654 929 503 L794 503 Q792 598 771 632 Q747 671 663 671 L434 671 L434 251 Q434 198 457 174 Q480 150 530 150 L799 150 Q941 150 972 198 Q990 226 1006 337 L1147 337 L1143 0 L364 0 Q307 0 45 -4 Z M663 1831 Q724 1831 765 1791 Q805 1751 805 1695 Q805 1639 765 1599 Q724 1559 664 1559 Q604 1559 563 1599 Q522 1639 522 1697 Q522 1752 563 1791 Q605 1831 663 1831 Z " />
<glyph glyph-name="edotaccent" unicode="&#x117;" horiz-adv-x="1056" d="M976 455 L313 455 Q316 327 346 258 Q409 113 631 113 Q787 113 917 185 L954 41 Q801 -26 586 -26 Q330 -26 211 94 Q84 222 84 470 Q84 702 187 844 Q306 1009 552 1009 Q978 1009 978 537 Q978 526 976 455 Z M758 591 Q754 696 728 763 Q686 870 554 870 Q412 870 353 740 Q323 675 316 591 L758 591 Z M571 1416 Q632 1416 673 1376 Q713 1336 713 1280 Q713 1224 673 1184 Q632 1144 572 1144 Q511 1144 471 1184 Q430 1224 430 1282 Q430 1337 471 1376 Q513 1416 571 1416 Z " />
<glyph glyph-name="Eogonek" unicode="&#x118;" horiz-adv-x="1191" d="M45 -4 L45 96 Q73 101 87 104 Q139 113 157 128 Q194 159 194 325 L194 1071 Q194 1231 169 1271 Q155 1295 106 1306 Q103 1306 70 1313 Q57 1315 45 1317 L45 1417 Q218 1413 308 1413 L1134 1413 L1138 1088 L997 1088 Q981 1190 964 1216 Q933 1263 803 1263 L434 1263 L434 799 L663 799 Q747 799 771 836 Q792 867 794 956 L929 956 Q924 805 924 732 Q924 654 929 503 L794 503 Q792 598 771 632 Q747 671 663 671 L434 671 L434 251 Q434 198 457 174 Q480 150 530 150 L799 150 Q941 150 972 198 Q990 226 1006 337 L1147 337 L1143 0 Q1030 -82 991 -122 Q906 -210 906 -311 Q906 -389 949 -419 Q982 -442 1041 -442 Q1112 -442 1182 -411 L1200 -511 Q1108 -542 1011 -542 Q863 -542 783 -483 Q710 -429 710 -326 Q710 -182 851 -79 Q907 -38 990 0 L364 0 Q274 0 45 -4 Z " />
<glyph glyph-name="eogonek" unicode="&#x119;" horiz-adv-x="1056" d="M976 455 L313 455 Q316 327 346 258 Q409 113 631 113 Q787 113 917 185 L954 41 Q849 -4 732 -18 Q648 -77 604 -122 Q519 -211 519 -311 Q519 -390 562 -419 Q595 -442 654 -442 Q724 -442 795 -411 L813 -511 Q721 -542 623 -542 Q476 -542 396 -483 Q323 -429 323 -326 Q323 -196 438 -100 Q481 -63 549 -25 Q372 -17 272 45 Q84 163 84 470 Q84 699 187 844 Q304 1009 552 1009 Q978 1009 978 536 Q978 519 976 455 Z M758 591 Q754 696 728 763 Q686 870 554 870 Q412 870 353 740 Q323 675 316 591 L758 591 Z " />
<glyph glyph-name="Ecaron" unicode="&#x11a;" horiz-adv-x="1191" d="M45 -4 L45 96 Q73 101 87 104 Q139 113 157 128 Q194 159 194 325 L194 1071 Q194 1231 169 1271 Q155 1295 106 1306 Q103 1306 70 1313 Q57 1315 45 1317 L45 1417 Q232 1413 308 1413 L1134 1413 L1138 1088 L997 1088 Q980 1193 964 1216 Q932 1263 803 1263 L434 1263 L434 799 L663 799 Q747 799 771 836 Q792 867 794 956 L929 956 Q924 805 924 732 Q924 654 929 503 L794 503 Q792 598 771 632 Q747 671 663 671 L434 671 L434 251 Q434 198 457 174 Q480 150 530 150 L799 150 Q941 150 972 198 Q990 226 1006 337 L1147 337 L1143 0 L364 0 Q307 0 45 -4 Z M652 1668 L825 1831 L1009 1831 L786 1556 L518 1556 L295 1831 L478 1831 L652 1668 Z " />
<glyph glyph-name="ecaron" unicode="&#x11b;" horiz-adv-x="1056" d="M976 455 L313 455 Q316 327 346 258 Q409 113 631 113 Q787 113 917 185 L954 41 Q801 -26 586 -26 Q330 -26 211 94 Q84 222 84 470 Q84 702 187 844 Q306 1009 552 1009 Q978 1009 978 537 Q978 526 976 455 Z M758 591 Q754 696 728 763 Q686 870 554 870 Q412 870 353 740 Q323 675 316 591 L758 591 Z M570 1259 L743 1421 L927 1421 L704 1147 L436 1147 L213 1421 L396 1421 L570 1259 Z " />
<glyph glyph-name="Gcircumflex" unicode="&#x11c;" horiz-adv-x="1330" d="M765 636 L765 735 Q948 727 1047 727 Q1130 727 1308 735 L1308 636 Q1287 630 1276 628 Q1235 618 1221 602 Q1193 571 1193 406 L1193 53 Q1010 -26 753 -26 Q391 -26 229 188 Q91 371 91 688 Q91 1089 294 1288 Q448 1439 741 1439 Q948 1439 1168 1384 L1165 1076 L1023 1076 Q1011 1165 983 1208 Q926 1293 750 1293 Q542 1293 449 1156 Q340 994 340 698 Q340 437 426 286 Q520 120 764 120 Q856 120 963 155 L963 406 Q963 552 930 590 Q910 613 846 624 Q843 624 798 631 Q782 633 765 636 Z M741 1719 L567 1556 L384 1556 L607 1831 L875 1831 L1098 1556 L914 1556 L741 1719 Z " />
<glyph glyph-name="gcircumflex" unicode="&#x11d;" horiz-adv-x="1117" d="M730 90 Q687 45 657 25 Q579 -28 470 -28 Q339 -28 243 44 Q84 163 84 464 Q84 725 218 875 Q337 1009 566 1009 Q633 1009 858 994 Q909 991 1068 987 L1068 888 Q996 874 979 850 Q957 817 957 668 L957 102 Q957 -82 938 -186 Q885 -478 492 -478 Q320 -478 172 -431 L195 -256 Q323 -339 486 -339 Q645 -339 695 -241 Q730 -174 730 1 L730 90 Z M730 830 Q645 870 557 870 Q430 870 372 752 Q318 642 318 466 Q318 301 366 207 Q415 111 520 111 Q631 111 693 231 Q730 303 730 431 L730 830 Z M614 1309 L440 1147 L257 1147 L480 1421 L748 1421 L971 1147 L787 1147 L614 1309 Z " />
<glyph glyph-name="Gbreve" unicode="&#x11e;" horiz-adv-x="1330" d="M765 636 L765 735 Q948 727 1047 727 Q1130 727 1308 735 L1308 636 Q1287 630 1276 628 Q1235 618 1221 602 Q1193 571 1193 406 L1193 53 Q1010 -26 753 -26 Q391 -26 229 188 Q91 371 91 688 Q91 1089 294 1288 Q448 1439 741 1439 Q948 1439 1168 1384 L1165 1076 L1023 1076 Q1011 1165 983 1208 Q926 1293 750 1293 Q542 1293 449 1156 Q340 994 340 698 Q340 437 426 286 Q520 120 764 120 Q856 120 963 155 L963 406 Q963 552 930 590 Q910 613 846 624 Q843 624 798 631 Q782 633 765 636 Z M411 1843 L582 1843 Q589 1779 613 1747 Q653 1692 759 1692 Q872 1692 911 1757 Q929 1787 935 1843 L1106 1843 Q1099 1543 759 1543 Q418 1543 411 1843 Z " />
<glyph glyph-name="gbreve" unicode="&#x11f;" horiz-adv-x="1117" d="M730 90 Q687 45 657 25 Q579 -28 470 -28 Q339 -28 243 44 Q84 163 84 464 Q84 725 218 875 Q337 1009 566 1009 Q633 1009 858 994 Q909 991 1068 987 L1068 888 Q996 874 979 850 Q957 817 957 668 L957 102 Q957 -82 938 -186 Q885 -478 492 -478 Q320 -478 172 -431 L195 -256 Q323 -339 486 -339 Q645 -339 695 -241 Q730 -174 730 1 L730 90 Z M730 830 Q645 870 557 870 Q430 870 372 752 Q318 642 318 466 Q318 301 366 207 Q415 111 520 111 Q631 111 693 231 Q730 303 730 431 L730 830 Z M296 1434 L467 1434 Q474 1370 498 1337 Q537 1282 644 1282 Q758 1282 796 1347 Q814 1378 820 1434 L991 1434 Q984 1133 644 1133 Q303 1133 296 1434 Z " />
<glyph glyph-name="Gdotaccent" unicode="&#x120;" horiz-adv-x="1330" d="M765 636 L765 735 Q948 727 1047 727 Q1130 727 1308 735 L1308 636 Q1287 630 1276 628 Q1235 618 1221 602 Q1193 571 1193 406 L1193 53 Q1010 -26 753 -26 Q391 -26 229 188 Q91 371 91 688 Q91 1089 294 1288 Q448 1439 741 1439 Q948 1439 1168 1384 L1165 1076 L1023 1076 Q1011 1165 983 1208 Q926 1293 750 1293 Q542 1293 449 1156 Q340 994 340 698 Q340 437 426 286 Q520 120 764 120 Q856 120 963 155 L963 406 Q963 552 930 590 Q910 613 846 624 Q843 624 798 631 Q782 633 765 636 Z M770 1831 Q831 1831 872 1791 Q912 1751 912 1695 Q912 1639 872 1599 Q831 1559 771 1559 Q711 1559 670 1599 Q629 1639 629 1697 Q629 1752 670 1791 Q712 1831 770 1831 Z " />
<glyph glyph-name="gdotaccent" unicode="&#x121;" horiz-adv-x="1117" d="M730 90 Q687 45 657 25 Q579 -28 470 -28 Q339 -28 243 44 Q84 163 84 464 Q84 725 218 875 Q337 1009 566 1009 Q633 1009 858 994 Q909 991 1068 987 L1068 888 Q996 874 979 850 Q957 817 957 668 L957 102 Q957 -82 938 -186 Q885 -478 492 -478 Q320 -478 172 -431 L195 -256 Q323 -339 486 -339 Q645 -339 695 -241 Q730 -174 730 1 L730 90 Z M730 830 Q645 870 557 870 Q430 870 372 752 Q318 642 318 466 Q318 301 366 207 Q415 111 520 111 Q631 111 693 231 Q730 303 730 431 L730 830 Z M629 1416 Q690 1416 731 1376 Q771 1336 771 1280 Q771 1224 731 1184 Q690 1144 630 1144 Q569 1144 529 1184 Q488 1224 488 1282 Q488 1337 529 1376 Q571 1416 629 1416 Z " />
<glyph glyph-name="Gcommaaccent" unicode="&#x122;" horiz-adv-x="1330" d="M765 636 L765 735 Q948 727 1047 727 Q1130 727 1308 735 L1308 636 Q1287 630 1276 628 Q1235 618 1221 602 Q1193 571 1193 406 L1193 53 Q1010 -26 753 -26 Q391 -26 229 188 Q91 371 91 688 Q91 1089 294 1288 Q448 1439 741 1439 Q948 1439 1168 1384 L1165 1076 L1023 1076 Q1011 1165 983 1208 Q926 1293 750 1293 Q542 1293 449 1156 Q340 994 340 698 Q340 437 426 286 Q520 120 764 120 Q856 120 963 155 L963 406 Q963 552 930 590 Q910 613 846 624 Q843 624 798 631 Q782 633 765 636 Z M469 -455 L583 -145 L836 -145 L639 -455 L469 -455 Z " />
<glyph glyph-name="gcommaaccent" unicode="&#x123;" horiz-adv-x="1117" d="M730 90 Q687 45 657 25 Q579 -28 470 -28 Q339 -28 243 44 Q84 163 84 464 Q84 725 218 875 Q337 1009 566 1009 Q633 1009 858 994 Q909 991 1068 987 L1068 888 Q996 874 979 850 Q957 817 957 668 L957 102 Q957 -82 938 -186 Q885 -478 492 -478 Q320 -478 172 -431 L195 -256 Q323 -339 486 -339 Q645 -339 695 -241 Q730 -174 730 1 L730 90 Z M730 830 Q645 870 557 870 Q430 870 372 752 Q318 642 318 466 Q318 301 366 207 Q415 111 520 111 Q631 111 693 231 Q730 303 730 431 L730 830 Z M465 1147 L727 1421 L899 1421 L740 1147 L465 1147 Z " />
<glyph glyph-name="Hcircumflex" unicode="&#x124;" horiz-adv-x="1460" d="M45 -4 L45 95 Q73 101 87 103 Q139 113 157 128 Q194 159 194 325 L194 1088 Q194 1232 169 1272 Q154 1295 106 1306 Q104 1306 70 1313 Q57 1315 45 1318 L45 1417 Q224 1409 314 1409 Q404 1409 583 1417 L583 1318 Q555 1312 541 1310 Q489 1301 471 1285 Q434 1255 434 1088 L434 812 L1026 812 L1026 1088 Q1026 1232 1001 1272 Q986 1295 937 1306 Q936 1306 901 1313 Q888 1315 876 1318 L876 1417 Q1056 1409 1145 1409 Q1235 1409 1415 1417 L1415 1318 Q1387 1312 1373 1310 Q1321 1301 1303 1285 Q1266 1255 1266 1088 L1266 325 Q1266 181 1291 141 Q1306 118 1354 107 Q1355 107 1390 100 Q1403 98 1415 95 L1415 -4 Q1235 4 1145 4 Q1056 4 876 -4 L876 95 Q904 101 918 103 Q971 113 989 128 Q1026 158 1026 325 L1026 663 L434 663 L434 325 Q434 181 459 141 Q473 118 522 107 Q532 105 541 103 Q555 101 583 95 L583 -4 Q404 4 314 4 Q224 4 45 -4 Z M730 1719 L556 1556 L373 1556 L596 1831 L864 1831 L1087 1556 L903 1556 L730 1719 Z " />
<glyph glyph-name="hcircumflex" unicode="&#x125;" horiz-adv-x="1236" d="M47 -4 L47 95 Q65 99 74 100 Q135 110 154 127 Q189 158 189 324 L189 1085 Q189 1227 169 1275 Q156 1306 120 1313 Q106 1316 67 1316 L67 1415 Q263 1429 416 1481 L416 849 Q568 1009 752 1009 Q950 1009 1020 874 Q1059 800 1059 634 L1059 327 Q1059 165 1089 131 Q1103 116 1132 109 Q1141 107 1166 102 Q1177 100 1197 95 L1197 -4 Q1034 4 952 4 Q871 4 708 -4 L708 95 Q729 100 739 102 Q785 111 802 129 Q832 161 832 327 L832 618 Q832 741 810 789 Q777 860 686 860 Q574 860 469 738 Q434 697 424 662 Q416 634 416 590 L416 327 Q416 164 443 131 Q460 111 539 95 L539 -4 Q375 4 294 4 Q211 4 47 -4 Z M335 1760 L161 1597 L-22 1597 L201 1872 L469 1872 L692 1597 L508 1597 L335 1760 Z " />
<glyph glyph-name="Hbar" unicode="&#x126;" horiz-adv-x="1460" d="M40 -4 L40 95 Q68 101 82 103 Q134 112 152 128 Q189 158 189 325 L189 979 L38 979 L38 1081 L189 1081 L189 1129 Q189 1243 162 1277 Q145 1298 98 1307 Q89 1309 81 1310 Q67 1312 40 1318 L40 1417 Q219 1409 309 1409 Q399 1409 578 1417 L578 1318 Q551 1312 537 1310 Q487 1302 469 1290 Q429 1261 429 1129 L429 1081 L1020 1081 L1020 1129 Q1020 1243 993 1277 Q976 1298 929 1307 Q920 1309 911 1310 Q897 1312 870 1318 L870 1417 Q1050 1409 1139 1409 Q1229 1409 1409 1417 L1409 1318 Q1382 1312 1368 1310 Q1318 1302 1300 1290 Q1260 1261 1260 1129 L1260 1081 L1411 1081 L1411 979 L1260 979 L1260 325 Q1260 181 1285 141 Q1300 118 1348 107 Q1358 105 1367 103 Q1381 101 1409 95 L1409 -4 Q1229 4 1139 4 Q1050 4 870 -4 L870 95 Q898 101 912 103 Q965 112 983 128 Q1020 158 1020 325 L1020 644 L429 644 L429 325 Q429 181 454 141 Q469 118 517 107 Q527 105 536 103 Q550 101 578 95 L578 -4 Q399 4 309 4 Q219 4 40 -4 Z M429 794 L1020 794 L1020 979 L429 979 L429 794 Z " />
<glyph glyph-name="hbar" unicode="&#x127;" horiz-adv-x="1236" d="M47 -4 L47 95 Q65 99 74 100 Q135 110 154 127 Q189 159 189 324 L189 1106 L17 1106 L17 1218 L182 1218 Q179 1277 163 1299 Q144 1324 67 1325 L67 1415 Q263 1429 416 1481 L416 1218 L683 1218 L683 1106 L416 1106 L416 849 Q570 1009 752 1009 Q950 1009 1020 874 Q1059 800 1059 634 L1059 327 Q1059 164 1089 131 Q1103 116 1132 109 Q1141 107 1166 102 Q1177 100 1197 95 L1197 -4 Q1034 4 952 4 Q871 4 708 -4 L708 95 Q729 100 739 102 Q785 111 802 129 Q832 161 832 327 L832 618 Q832 741 810 789 Q777 860 686 860 Q576 860 470 738 Q434 697 424 662 Q416 634 416 590 L416 327 Q416 165 443 131 Q460 111 540 95 L540 -4 Q376 4 294 4 Q212 4 47 -4 Z " />
<glyph glyph-name="Itilde" unicode="&#x128;" horiz-adv-x="627" d="M44 -4 L44 95 Q72 101 86 103 Q138 113 156 128 Q193 159 193 325 L193 1088 Q193 1232 168 1272 Q153 1295 105 1306 Q103 1306 69 1313 Q56 1315 44 1318 L44 1417 Q223 1409 313 1409 Q403 1409 582 1417 L582 1318 Q554 1312 540 1310 Q488 1301 470 1285 Q433 1255 433 1088 L433 325 Q433 181 458 141 Q472 118 521 107 Q531 105 540 103 Q554 101 582 95 L582 -4 Q403 4 313 4 Q223 4 44 -4 Z M99 1560 L-58 1560 Q-33 1685 4 1745 Q67 1845 176 1845 Q234 1845 286 1817 Q314 1802 368 1755 Q426 1703 453 1703 Q492 1703 511 1761 Q519 1788 526 1834 L684 1834 Q671 1717 637 1654 Q579 1546 447 1546 Q374 1546 319 1585 Q307 1594 255 1640 Q200 1688 175 1688 Q141 1688 118 1632 Q111 1615 99 1560 Z " />
<glyph glyph-name="itilde" unicode="&#x129;" horiz-adv-x="597" d="M47 -4 L47 95 Q64 98 72 100 Q134 110 154 128 Q189 159 189 327 L189 667 Q189 827 157 863 Q138 884 62 884 L62 983 Q281 991 416 1008 L416 327 Q416 180 440 141 Q455 116 506 105 Q511 103 558 95 L558 -4 Q388 4 302 4 Q217 4 47 -4 Z M84 1150 L-73 1150 Q-48 1275 -11 1334 Q52 1435 161 1435 Q218 1435 271 1407 Q299 1392 353 1345 Q411 1293 438 1293 Q477 1293 496 1351 Q504 1378 511 1424 L669 1424 Q656 1307 622 1244 Q563 1136 432 1136 Q359 1136 304 1175 Q292 1184 240 1229 Q185 1278 160 1278 Q126 1278 103 1222 Q97 1205 84 1150 Z " />
<glyph glyph-name="Imacron" unicode="&#x12a;" horiz-adv-x="627" d="M45 -4 L45 95 Q73 101 87 103 Q139 113 157 128 Q194 159 194 325 L194 1088 Q194 1232 169 1272 Q154 1295 106 1306 Q104 1306 70 1313 Q57 1315 45 1318 L45 1417 Q224 1409 314 1409 Q404 1409 583 1417 L583 1318 Q555 1312 541 1310 Q489 1301 471 1285 Q434 1255 434 1088 L434 325 Q434 181 459 141 Q473 118 522 107 Q532 105 541 103 Q555 101 583 95 L583 -4 Q404 4 314 4 Q224 4 45 -4 Z M-3 1627 L-3 1767 L631 1767 L631 1627 L-3 1627 Z " />
<glyph glyph-name="imacron" unicode="&#x12b;" horiz-adv-x="597" d="M47 -4 L47 95 Q64 98 72 100 Q134 110 154 128 Q189 159 189 327 L189 667 Q189 827 157 863 Q138 884 62 884 L62 983 Q281 991 416 1008 L416 327 Q416 180 440 141 Q455 116 506 105 Q511 103 558 95 L558 -4 Q388 4 302 4 Q217 4 47 -4 Z M-39 1211 L-39 1351 L595 1351 L595 1211 L-39 1211 Z " />
<glyph glyph-name="Ibreve" unicode="&#x12c;" horiz-adv-x="627" d="M45 -4 L45 95 Q73 101 87 103 Q139 113 157 128 Q194 159 194 325 L194 1088 Q194 1232 169 1272 Q154 1295 106 1306 Q104 1306 70 1313 Q57 1315 45 1318 L45 1417 Q224 1409 314 1409 Q404 1409 583 1417 L583 1318 Q555 1312 541 1310 Q489 1301 471 1285 Q434 1255 434 1088 L434 325 Q434 181 459 141 Q473 118 522 107 Q532 105 541 103 Q555 101 583 95 L583 -4 Q404 4 314 4 Q224 4 45 -4 Z M-34 1843 L137 1843 Q144 1779 168 1747 Q208 1692 314 1692 Q427 1692 466 1757 Q484 1787 490 1843 L661 1843 Q654 1543 314 1543 Q-27 1543 -34 1843 Z " />
<glyph glyph-name="ibreve" unicode="&#x12d;" horiz-adv-x="597" d="M47 -4 L47 95 Q64 98 72 100 Q134 110 154 128 Q189 159 189 327 L189 667 Q189 827 157 863 Q138 884 62 884 L62 983 Q281 991 416 1008 L416 327 Q416 180 440 141 Q455 116 506 105 Q511 103 558 95 L558 -4 Q388 4 302 4 Q217 4 47 -4 Z M-56 1434 L115 1434 Q122 1370 146 1337 Q185 1282 292 1282 Q406 1282 444 1347 Q462 1378 468 1434 L639 1434 Q632 1133 292 1133 Q-49 1133 -56 1434 Z " />
<glyph glyph-name="Iogonek" unicode="&#x12e;" horiz-adv-x="627" d="M45 -4 L45 95 Q73 101 87 103 Q139 113 157 128 Q194 159 194 325 L194 1088 Q194 1232 169 1272 Q154 1295 106 1306 Q104 1306 70 1313 Q57 1315 45 1318 L45 1417 Q224 1409 314 1409 Q404 1409 583 1417 L583 1318 Q555 1312 541 1310 Q489 1301 471 1285 Q434 1255 434 1088 L434 325 Q434 181 459 141 Q473 118 522 107 Q532 105 541 103 Q555 101 583 95 L583 -4 Q471 -84 431 -125 Q346 -211 346 -312 Q346 -390 389 -419 Q422 -442 481 -442 Q551 -442 622 -411 L640 -511 Q549 -542 451 -542 Q302 -542 223 -483 Q150 -429 150 -326 Q150 -181 294 -78 Q351 -38 436 1 Q322 4 291 4 Q205 4 45 -4 Z " />
<glyph glyph-name="iogonek" unicode="&#x12f;" horiz-adv-x="601" d="M47 -4 L47 95 Q64 98 72 100 Q134 110 154 128 Q189 159 189 327 L189 667 Q189 827 157 863 Q138 884 62 884 L62 983 Q280 991 416 1008 L416 327 Q416 180 440 141 Q455 116 506 105 Q511 103 558 95 L558 -4 Q438 -93 406 -126 Q321 -213 321 -312 Q321 -390 364 -419 Q397 -442 456 -442 Q527 -442 597 -411 L615 -511 Q524 -542 425 -542 Q277 -542 198 -483 Q125 -429 125 -326 Q125 -180 275 -74 Q331 -35 411 1 Q316 4 282 4 Q201 4 47 -4 Z M280 1414 Q340 1414 380 1374 Q421 1334 421 1278 Q421 1223 380 1182 Q340 1142 280 1142 Q219 1142 179 1182 Q138 1223 138 1280 Q138 1335 179 1374 Q220 1414 280 1414 Z " />
<glyph glyph-name="Idotaccent" unicode="&#x130;" horiz-adv-x="627" d="M45 -4 L45 95 Q73 101 87 103 Q139 113 157 128 Q194 159 194 325 L194 1088 Q194 1232 169 1272 Q154 1295 106 1306 Q104 1306 70 1313 Q57 1315 45 1318 L45 1417 Q224 1409 314 1409 Q404 1409 583 1417 L583 1318 Q555 1312 541 1310 Q489 1301 471 1285 Q434 1255 434 1088 L434 325 Q434 181 459 141 Q473 118 522 107 Q532 105 541 103 Q555 101 583 95 L583 -4 Q404 4 314 4 Q224 4 45 -4 Z M313 1831 Q374 1831 415 1791 Q455 1751 455 1695 Q455 1639 415 1599 Q374 1559 314 1559 Q254 1559 213 1599 Q172 1639 172 1697 Q172 1752 213 1791 Q255 1831 313 1831 Z " />
<glyph glyph-name="IJ" unicode="&#x132;" horiz-adv-x="1283" d="M45 -4 L45 95 Q73 101 87 103 Q139 113 157 128 Q194 159 194 325 L194 1088 Q194 1232 169 1272 Q154 1295 106 1306 Q104 1306 70 1313 Q57 1315 45 1318 L45 1417 Q224 1409 314 1409 Q404 1409 583 1417 L583 1318 Q555 1312 541 1310 Q489 1301 471 1285 Q434 1255 434 1088 L434 325 Q434 181 459 141 Q473 118 522 107 Q532 105 541 103 Q555 101 583 95 L583 -4 Q404 4 314 4 Q224 4 45 -4 Z M670 1318 L670 1417 Q861 1409 959 1409 Q1052 1409 1242 1417 L1242 1318 Q1214 1312 1200 1310 Q1147 1301 1129 1285 Q1092 1255 1092 1088 L1092 250 Q1092 51 1074 -67 Q1016 -451 628 -451 Q534 -451 433 -430 L445 -276 Q539 -305 621 -305 Q780 -305 823 -149 Q852 -42 852 222 L852 1088 Q852 1233 822 1272 Q804 1295 745 1306 Q740 1307 701 1313 Q685 1315 670 1318 Z " />
<glyph glyph-name="ij" unicode="&#x133;" horiz-adv-x="1200" d="M47 -4 L47 95 Q64 98 72 100 Q134 110 154 128 Q189 159 189 327 L189 667 Q189 827 157 863 Q138 884 62 884 L62 983 Q281 991 416 1008 L416 327 Q416 180 440 141 Q455 116 506 105 Q511 103 558 95 L558 -4 Q388 4 302 4 Q217 4 47 -4 Z M280 1414 Q340 1414 380 1374 Q421 1334 421 1278 Q421 1223 380 1182 Q340 1142 280 1142 Q219 1142 179 1182 Q138 1223 138 1280 Q138 1335 179 1374 Q220 1414 280 1414 Z M693 884 L693 983 Q910 991 1046 1008 L1046 121 Q1046 -171 999 -295 Q929 -478 665 -478 Q542 -478 452 -449 L474 -288 Q563 -339 642 -339 Q769 -339 797 -223 Q819 -135 819 67 L819 667 Q819 827 787 863 Q768 884 693 884 Z M909 1414 Q970 1414 1010 1374 Q1051 1334 1051 1278 Q1051 1223 1010 1182 Q970 1142 910 1142 Q849 1142 809 1182 Q768 1223 768 1280 Q768 1335 809 1374 Q850 1414 909 1414 Z " />
<glyph glyph-name="Jcircumflex" unicode="&#x134;" horiz-adv-x="656" d="M43 1318 L43 1417 Q234 1409 332 1409 Q425 1409 615 1417 L615 1318 Q587 1312 573 1310 Q520 1301 502 1285 Q465 1255 465 1088 L465 250 Q465 51 447 -67 Q389 -451 1 -451 Q-93 -451 -194 -430 L-182 -276 Q-88 -305 -6 -305 Q153 -305 196 -149 Q225 -42 225 222 L225 1088 Q225 1233 195 1272 Q177 1295 118 1306 Q113 1307 74 1313 Q58 1315 43 1318 Z M328 1719 L154 1556 L-29 1556 L194 1831 L462 1831 L685 1556 L501 1556 L328 1719 Z " />
<glyph glyph-name="jcircumflex" unicode="&#x135;" horiz-adv-x="599" d="M91 884 L91 983 Q308 991 444 1008 L444 121 Q444 -171 397 -295 Q327 -478 63 -478 Q-60 -478 -150 -449 L-128 -288 Q-39 -339 40 -339 Q167 -339 195 -223 Q217 -135 217 67 L217 667 Q217 827 185 863 Q166 884 91 884 Z M299 1309 L125 1147 L-58 1147 L165 1421 L433 1421 L656 1147 L472 1147 L299 1309 Z " />
<glyph glyph-name="Kcommaaccent" unicode="&#x136;" horiz-adv-x="1337" d="M45 -4 L45 95 Q73 101 87 103 Q139 113 157 128 Q194 159 194 325 L194 1088 Q194 1232 169 1272 Q154 1295 106 1306 Q104 1306 70 1313 Q57 1315 45 1318 L45 1417 Q224 1409 314 1409 Q404 1409 583 1417 L583 1318 Q555 1312 541 1310 Q489 1301 471 1285 Q434 1255 434 1088 L434 818 L494 818 Q571 818 619 845 Q653 865 678 898 L716 948 L897 1184 Q933 1230 933 1271 Q933 1297 895 1308 Q872 1314 832 1321 L832 1417 Q998 1409 1081 1409 Q1164 1409 1329 1417 L1329 1318 Q1256 1305 1220 1282 Q1196 1267 1160 1220 Q1157 1216 1129 1179 Q1118 1164 1108 1151 L808 761 L1141 290 Q1240 151 1274 126 Q1306 102 1381 95 L1381 -4 Q1193 4 1098 4 Q1004 4 816 -4 L816 95 Q875 103 905 114 Q936 126 936 155 Q936 192 885 265 L679 562 Q626 645 597 666 Q565 689 493 689 L434 689 L434 325 Q434 182 459 141 Q473 118 522 107 Q532 105 541 103 Q555 101 583 95 L583 -4 Q404 4 314 4 Q224 4 45 -4 Z M450 -455 L564 -145 L817 -145 L620 -455 L450 -455 Z " />
<glyph glyph-name="kcommaaccent" unicode="&#x137;" horiz-adv-x="1149" d="M47 -4 L47 95 Q65 99 74 100 Q135 110 154 127 Q189 158 189 327 L189 1091 Q189 1230 169 1277 Q156 1309 120 1315 Q106 1318 67 1318 L67 1417 Q263 1431 416 1483 L416 619 L432 619 Q490 619 531 636 Q569 651 620 701 L715 793 Q739 817 739 844 Q739 866 709 878 Q697 883 660 892 L660 987 Q812 979 889 979 Q963 979 1114 987 L1114 888 Q1033 875 990 849 Q960 830 914 784 Q906 776 884 752 Q867 734 865 732 L739 606 L924 297 Q1008 157 1062 126 Q1098 105 1161 95 L1161 -4 Q1038 3 978 3 Q924 3 817 -2 Q795 70 780 103 Q724 230 722 233 L644 366 Q596 460 566 483 Q530 511 465 511 L416 511 L416 327 Q416 183 437 142 Q449 116 493 105 Q499 103 539 95 L539 -4 Q375 4 294 4 Q211 4 47 -4 Z M392 -455 L506 -145 L759 -145 L562 -455 L392 -455 Z " />
<glyph glyph-name="kgreenlandic" unicode="&#x138;" horiz-adv-x="1149" d="M47 -4 L47 95 Q68 99 79 101 Q134 110 154 128 Q189 158 189 327 L189 648 Q189 827 157 863 Q137 884 62 884 L62 983 Q263 991 392 1008 Q416 901 416 730 L416 619 L432 619 Q490 619 531 636 Q569 651 620 701 L715 793 Q739 817 739 844 Q739 866 709 878 Q697 883 660 892 L660 987 Q812 979 889 979 Q963 979 1114 987 L1114 888 Q1033 875 990 849 Q960 830 914 784 Q906 776 884 752 Q867 734 865 732 L739 606 L924 297 Q1008 157 1062 126 Q1098 105 1161 95 L1161 -4 Q1038 3 978 3 Q924 3 817 -2 Q795 70 780 103 Q724 230 722 233 L644 366 Q596 460 566 483 Q530 511 465 511 L416 511 L416 327 Q416 183 437 142 Q449 116 494 105 Q498 104 539 95 L539 -4 Q375 4 294 4 Q211 4 47 -4 Z " />
<glyph glyph-name="Lacute" unicode="&#x139;" horiz-adv-x="1085" d="M45 -4 L45 96 Q73 101 87 104 Q139 113 157 128 Q194 159 194 325 L194 1088 Q194 1232 169 1272 Q154 1295 106 1306 Q104 1306 70 1313 Q57 1315 45 1318 L45 1417 Q224 1409 314 1409 Q404 1409 583 1417 L583 1318 Q555 1312 542 1310 Q489 1301 471 1285 Q434 1255 434 1088 L434 251 Q434 198 457 174 Q479 150 530 150 L714 150 Q810 150 851 166 Q897 184 911 247 Q918 279 925 337 L1066 337 L1063 0 L352 0 Q182 0 45 -4 Z M247 1556 L406 1831 L681 1831 L419 1556 L247 1556 Z " />
<glyph glyph-name="lacute" unicode="&#x13a;" horiz-adv-x="605" d="M47 -4 L47 95 Q64 98 73 100 Q135 110 154 127 Q189 158 189 327 L189 1091 Q189 1230 169 1277 Q156 1309 120 1315 Q106 1318 67 1318 L67 1417 Q263 1431 416 1483 L416 327 Q416 182 440 141 Q454 116 505 105 Q508 104 539 99 Q549 97 558 95 L558 -4 Q388 4 303 4 Q217 4 47 -4 Z M189 1597 L348 1871 L623 1871 L361 1597 L189 1597 Z " />
<glyph glyph-name="Lcommaaccent" unicode="&#x13b;" horiz-adv-x="1085" d="M45 -4 L45 96 Q73 101 87 104 Q139 113 157 128 Q194 159 194 325 L194 1088 Q194 1232 169 1272 Q154 1295 106 1306 Q104 1306 70 1313 Q57 1315 45 1318 L45 1417 Q224 1409 314 1409 Q404 1409 583 1417 L583 1318 Q555 1312 542 1310 Q489 1301 471 1285 Q434 1255 434 1088 L434 251 Q434 198 457 174 Q479 150 530 150 L714 150 Q810 150 851 166 Q897 184 911 247 Q918 279 925 337 L1066 337 L1063 0 L352 0 Q182 0 45 -4 Z M330 -455 L444 -145 L697 -145 L500 -455 L330 -455 Z " />
<glyph glyph-name="lcommaaccent" unicode="&#x13c;" horiz-adv-x="605" d="M47 -4 L47 95 Q64 98 73 100 Q135 110 154 127 Q189 158 189 327 L189 1091 Q189 1230 169 1277 Q156 1309 120 1315 Q106 1318 67 1318 L67 1417 Q263 1431 416 1483 L416 327 Q416 182 440 141 Q454 116 505 105 Q508 104 539 99 Q549 97 558 95 L558 -4 Q388 4 303 4 Q217 4 47 -4 Z M74 -455 L188 -145 L441 -145 L244 -455 L74 -455 Z " />
<glyph glyph-name="Lcaron" unicode="&#x13d;" horiz-adv-x="1105" d="M45 -4 L45 96 Q73 101 87 104 Q139 113 157 128 Q194 159 194 325 L194 1088 Q194 1232 169 1272 Q154 1295 106 1306 Q104 1306 70 1313 Q57 1315 45 1318 L45 1417 Q224 1409 314 1409 Q404 1409 583 1417 L583 1318 Q555 1312 542 1310 Q489 1301 471 1285 Q434 1255 434 1088 L434 251 Q434 198 457 174 Q479 150 530 150 L714 150 Q810 150 851 166 Q897 184 911 247 Q918 279 925 337 L1066 337 L1063 0 L352 0 Q182 0 45 -4 Z M700 999 L763 1488 L994 1488 L860 999 L700 999 Z " />
<glyph glyph-name="lcaron" unicode="&#x13e;" horiz-adv-x="832" d="M47 -4 L47 95 Q64 98 73 100 Q135 110 154 127 Q189 158 189 327 L189 1091 Q189 1230 169 1277 Q156 1309 120 1315 Q106 1318 67 1318 L67 1417 Q263 1431 416 1483 L416 327 Q416 182 440 141 Q454 116 505 105 Q508 104 539 99 Q549 97 558 95 L558 -4 Q388 4 303 4 Q217 4 47 -4 Z M597 999 L660 1488 L891 1488 L757 999 L597 999 Z " />
<glyph glyph-name="Ldot" unicode="&#x13f;" horiz-adv-x="1085" d="M45 -4 L45 96 Q73 101 87 104 Q139 113 157 128 Q194 159 194 325 L194 1088 Q194 1232 169 1272 Q154 1295 106 1306 Q104 1306 70 1313 Q57 1315 45 1318 L45 1417 Q224 1409 314 1409 Q404 1409 583 1417 L583 1318 Q555 1312 542 1310 Q489 1301 471 1285 Q434 1255 434 1088 L434 251 Q434 198 457 174 Q479 150 530 150 L714 150 Q810 150 851 166 Q897 184 911 247 Q918 279 925 337 L1066 337 L1063 0 L352 0 Q182 0 45 -4 Z M786 897 Q855 897 901 845 Q940 801 940 746 Q940 682 890 636 Q845 596 783 596 Q711 596 665 648 Q626 691 626 748 Q626 811 676 857 Q720 897 786 897 Z " />
<glyph glyph-name="ldot" unicode="&#x140;" horiz-adv-x="838" d="M47 -4 L47 95 Q64 98 73 100 Q135 110 154 127 Q189 158 189 327 L189 1091 Q189 1230 169 1277 Q156 1309 120 1315 Q106 1318 67 1318 L67 1417 Q263 1431 416 1483 L416 327 Q416 182 440 141 Q454 116 505 105 Q508 104 539 99 Q549 97 558 95 L558 -4 Q388 4 303 4 Q217 4 47 -4 Z M725 797 Q794 797 840 745 Q879 701 879 646 Q879 582 829 536 Q784 496 722 496 Q650 496 604 548 Q565 591 565 648 Q565 711 615 757 Q659 797 725 797 Z " />
<glyph glyph-name="Lslash" unicode="&#x141;" horiz-adv-x="1085" d="M45 -4 L45 96 Q73 101 86 104 Q139 113 157 128 Q194 159 194 325 L194 442 L13 322 L13 479 L194 600 L194 1088 Q194 1232 169 1272 Q155 1295 106 1306 Q105 1306 70 1313 Q57 1315 45 1318 L45 1417 Q224 1409 314 1409 Q404 1409 583 1417 L583 1318 Q555 1312 541 1310 Q489 1301 471 1285 Q434 1255 434 1088 L434 746 L825 1008 L825 850 L434 588 L434 251 Q434 198 457 174 Q479 150 530 150 L714 150 Q810 150 851 166 Q897 184 910 247 Q917 277 925 337 L1066 337 L1063 0 L352 0 Q182 0 45 -4 Z " />
<glyph glyph-name="lslash" unicode="&#x142;" horiz-adv-x="628" d="M61 -4 L61 95 Q79 98 87 100 Q149 110 168 128 Q203 159 203 327 L203 595 L12 470 L12 622 L203 747 L203 1091 Q203 1229 183 1277 Q170 1309 134 1315 Q120 1318 81 1318 L81 1417 Q278 1431 430 1483 L430 889 L621 1014 L621 862 L430 737 L430 327 Q430 182 454 141 Q468 116 519 105 Q523 104 553 99 Q563 97 572 95 L572 -4 Q402 4 317 4 Q231 4 61 -4 Z " />
<glyph glyph-name="Nacute" unicode="&#x143;" horiz-adv-x="1467" d="M45 -4 L45 95 Q73 101 87 103 Q139 113 157 128 Q194 159 194 325 L194 1090 Q194 1232 169 1272 Q154 1295 106 1306 Q104 1306 70 1313 Q57 1315 45 1318 L45 1417 Q214 1409 297 1409 Q359 1409 479 1413 L885 694 Q911 649 1088 292 Q1082 449 1082 605 L1082 1091 Q1082 1232 1057 1272 Q1043 1295 994 1306 Q993 1306 959 1313 Q946 1315 934 1318 L934 1417 Q1098 1409 1180 1409 Q1263 1409 1428 1417 L1428 1318 Q1400 1312 1386 1310 Q1333 1301 1314 1285 Q1277 1254 1277 1091 L1277 0 L1045 -13 L563 835 Q557 845 463 1033 Q411 1139 383 1192 Q389 1007 389 863 L389 325 Q389 182 414 141 Q429 118 477 107 Q487 105 497 103 Q511 101 538 95 L538 -4 Q374 4 292 4 Q210 4 45 -4 Z M628 1556 L787 1831 L1062 1831 L800 1556 L628 1556 Z " />
<glyph glyph-name="nacute" unicode="&#x144;" horiz-adv-x="1227" d="M47 -4 L47 95 Q68 99 79 101 Q134 110 154 128 Q189 158 189 327 L189 648 Q189 827 157 863 Q137 884 62 884 L62 983 Q257 991 383 1008 Q398 934 402 834 Q553 1009 749 1009 Q942 1009 1011 874 Q1049 799 1049 634 L1049 327 Q1049 182 1072 141 Q1086 116 1134 106 Q1143 104 1153 102 Q1165 100 1188 95 L1188 -4 Q1025 4 942 4 Q862 4 699 -4 L699 95 Q753 105 773 114 Q808 131 815 192 Q822 258 822 327 L822 618 Q822 741 801 789 Q770 860 683 860 Q566 860 462 727 Q428 683 420 645 Q416 621 416 582 L416 327 Q416 183 437 142 Q449 116 494 105 Q498 104 539 95 L539 -4 Q375 4 294 4 Q211 4 47 -4 Z M499 1147 L658 1421 L933 1421 L671 1147 L499 1147 Z " />
<glyph glyph-name="Ncommaaccent" unicode="&#x145;" horiz-adv-x="1467" d="M45 -4 L45 95 Q73 101 87 103 Q139 113 157 128 Q194 159 194 325 L194 1090 Q194 1232 169 1272 Q154 1295 106 1306 Q104 1306 70 1313 Q57 1315 45 1318 L45 1417 Q214 1409 297 1409 Q359 1409 479 1413 L885 694 Q911 649 1088 292 Q1082 449 1082 605 L1082 1091 Q1082 1232 1057 1272 Q1043 1295 994 1306 Q993 1306 959 1313 Q946 1315 934 1318 L934 1417 Q1098 1409 1180 1409 Q1263 1409 1428 1417 L1428 1318 Q1400 1312 1386 1310 Q1333 1301 1314 1285 Q1277 1254 1277 1091 L1277 0 L1045 -13 L563 835 Q557 845 463 1033 Q411 1139 383 1192 Q389 1007 389 863 L389 325 Q389 182 414 141 Q429 118 477 107 Q487 105 497 103 Q511 101 538 95 L538 -4 Q374 4 292 4 Q210 4 45 -4 Z M511 -455 L625 -145 L878 -145 L681 -455 L511 -455 Z " />
<glyph glyph-name="ncommaaccent" unicode="&#x146;" horiz-adv-x="1227" d="M47 -4 L47 95 Q68 99 79 101 Q134 110 154 128 Q189 158 189 327 L189 648 Q189 827 157 863 Q137 884 62 884 L62 983 Q257 991 383 1008 Q398 934 402 834 Q553 1009 749 1009 Q942 1009 1011 874 Q1049 799 1049 634 L1049 327 Q1049 182 1072 141 Q1086 116 1134 106 Q1143 104 1153 102 Q1165 100 1188 95 L1188 -4 Q1025 4 942 4 Q862 4 699 -4 L699 95 Q753 105 773 114 Q808 131 815 192 Q822 258 822 327 L822 618 Q822 741 801 789 Q770 860 683 860 Q566 860 462 727 Q428 683 420 645 Q416 621 416 582 L416 327 Q416 183 437 142 Q449 116 494 105 Q498 104 539 95 L539 -4 Q375 4 294 4 Q211 4 47 -4 Z M393 -455 L507 -145 L760 -145 L563 -455 L393 -455 Z " />
<glyph glyph-name="Ncaron" unicode="&#x147;" horiz-adv-x="1467" d="M45 -4 L45 95 Q73 101 87 103 Q139 113 157 128 Q194 159 194 325 L194 1090 Q194 1232 169 1272 Q154 1295 106 1306 Q104 1306 70 1313 Q57 1315 45 1318 L45 1417 Q214 1409 297 1409 Q359 1409 479 1413 L885 694 Q911 649 1088 292 Q1082 449 1082 605 L1082 1091 Q1082 1232 1057 1272 Q1043 1295 994 1306 Q993 1306 959 1313 Q946 1315 934 1318 L934 1417 Q1098 1409 1180 1409 Q1263 1409 1428 1417 L1428 1318 Q1400 1312 1386 1310 Q1333 1301 1314 1285 Q1277 1254 1277 1091 L1277 0 L1045 -13 L563 835 Q557 845 463 1033 Q411 1139 383 1192 Q389 1007 389 863 L389 325 Q389 182 414 141 Q429 118 477 107 Q487 105 497 103 Q511 101 538 95 L538 -4 Q374 4 292 4 Q210 4 45 -4 Z M761 1668 L934 1831 L1118 1831 L895 1556 L627 1556 L404 1831 L587 1831 L761 1668 Z " />
<glyph glyph-name="ncaron" unicode="&#x148;" horiz-adv-x="1227" d="M47 -4 L47 95 Q68 99 79 101 Q134 110 154 128 Q189 158 189 327 L189 648 Q189 827 157 863 Q137 884 62 884 L62 983 Q257 991 383 1008 Q398 934 402 834 Q553 1009 749 1009 Q942 1009 1011 874 Q1049 799 1049 634 L1049 327 Q1049 182 1072 141 Q1086 116 1134 106 Q1143 104 1153 102 Q1165 100 1188 95 L1188 -4 Q1025 4 942 4 Q862 4 699 -4 L699 95 Q753 105 773 114 Q808 131 815 192 Q822 258 822 327 L822 618 Q822 741 801 789 Q770 860 683 860 Q566 860 462 727 Q428 683 420 645 Q416 621 416 582 L416 327 Q416 183 437 142 Q449 116 494 105 Q498 104 539 95 L539 -4 Q375 4 294 4 Q211 4 47 -4 Z M575 1259 L748 1421 L932 1421 L709 1147 L441 1147 L218 1421 L401 1421 L575 1259 Z " />
<glyph glyph-name="napostrophe" unicode="&#x149;" horiz-adv-x="1227" d="M47 -4 L47 95 Q68 99 79 101 Q129 109 148.5 123.5 Q168 138 176 171 Q189 223 189 327 L189 648 Q189 827 157 863 Q138 884 62 884 L62 983 Q256 991 383 1008 Q398 934 402 834 Q553 1009 749 1009 Q943 1009 1012 874 Q1050 800 1050 634 L1050 327 Q1050 182 1073 141 Q1087 116 1134 106 Q1144 104 1154 102 Q1165 100 1188 95 L1188 -4 Q1025 4 943 4 Q862 4 699 -4 L699 95 Q753 105 773 114 Q809 131 816 192 Q823 257 823 327 L823 618 Q823 741 802 789 Q770 860 683 860 Q566 860 462 727 Q428 683 420 645 Q416 623 416 582 L416 327 Q416 164 443 131 Q460 111 539 95 L539 -4 Q375 4 294 4 Q211 4 47 -4 Z M-31 1058 L24 1488 L254 1488 L117 1058 L-31 1058 Z " />
<glyph glyph-name="Eng" unicode="&#x14a;" horiz-adv-x="1467" d="M45 -4 L45 95 Q73 101 87 103 Q139 113 157 128 Q194 159 194 325 L194 1090 Q194 1232 169 1272 Q154 1295 106 1306 Q104 1306 70 1313 Q57 1315 45 1318 L45 1417 Q214 1409 297 1409 Q359 1409 479 1413 L885 694 Q911 649 1088 292 Q1082 449 1082 605 L1082 1091 Q1082 1232 1057 1272 Q1043 1295 994 1306 Q993 1306 959 1313 Q946 1315 934 1318 L934 1417 Q1098 1409 1180 1409 Q1263 1409 1428 1417 L1428 1318 Q1400 1312 1386 1310 Q1333 1301 1314 1285 Q1277 1254 1277 1091 L1277 121 Q1277 -170 1231 -295 Q1162 -478 905 -478 Q786 -478 701 -449 L722 -288 Q805 -339 886 -339 Q1024 -339 1056 -222 Q1074 -155 1079 -4 L1040 -4 L563 835 Q557 845 463 1033 Q411 1139 383 1192 Q389 1007 389 863 L389 325 Q389 182 414 141 Q429 118 477 107 Q487 105 497 103 Q511 101 538 95 L538 -4 Q374 4 292 4 Q210 4 45 -4 Z " />
<glyph glyph-name="eng" unicode="&#x14b;" horiz-adv-x="1219" d="M47 -4 L47 95 Q68 99 79 101 Q134 110 154 128 Q189 158 189 327 L189 648 Q189 827 157 863 Q137 884 62 884 L62 983 Q257 991 383 1008 Q398 934 402 834 Q553 1009 749 1009 Q942 1009 1011 874 Q1049 799 1049 634 L1049 168 Q1049 -147 1002 -282 Q933 -478 667 -478 Q545 -478 456 -449 L477 -288 Q565 -339 645 -339 Q772 -339 800 -208 Q822 -110 822 114 L822 618 Q822 741 801 789 Q770 860 683 860 Q566 860 462 727 Q428 683 420 645 Q416 621 416 582 L416 327 Q416 183 437 142 Q449 116 494 105 Q498 104 539 95 L539 -4 Q375 4 294 4 Q211 4 47 -4 Z " />
<glyph glyph-name="Omacron" unicode="&#x14c;" horiz-adv-x="1406" d="M714 1439 Q923 1439 1067 1335 Q1213 1228 1276 1018 Q1316 881 1316 706 Q1316 391 1181 195 Q1029 -26 704 -26 Q378 -26 226 195 Q91 391 91 704 Q91 1026 226 1218 Q381 1439 714 1439 Z M709 1293 Q517 1293 426 1129 Q340 973 340 703 Q340 440 426 284 Q516 120 703 120 Q827 120 913 198 Q1067 337 1067 707 Q1067 977 981 1129 Q888 1293 709 1293 Z M386 1627 L386 1767 L1020 1767 L1020 1627 L386 1627 Z " />
<glyph glyph-name="omacron" unicode="&#x14d;" horiz-adv-x="1111" d="M563 1009 Q781 1009 909 863 Q1028 726 1028 492 Q1028 258 909 120 Q782 -26 556 -26 Q330 -26 203 121 Q84 259 84 490 Q84 729 203 863 Q334 1009 563 1009 Z M560 870 Q431 870 371 753 Q318 648 318 491 Q318 336 370 231 Q429 113 556 113 Q683 113 742 231 Q794 337 794 492 Q794 651 742 753 Q681 870 560 870 Z M239 1211 L239 1351 L873 1351 L873 1211 L239 1211 Z " />
<glyph glyph-name="Obreve" unicode="&#x14e;" horiz-adv-x="1406" d="M714 1439 Q923 1439 1067 1335 Q1213 1228 1276 1018 Q1316 881 1316 706 Q1316 391 1181 195 Q1029 -26 704 -26 Q378 -26 226 195 Q91 391 91 704 Q91 1026 226 1218 Q381 1439 714 1439 Z M709 1293 Q517 1293 426 1129 Q340 973 340 703 Q340 440 426 284 Q516 120 703 120 Q827 120 913 198 Q1067 337 1067 707 Q1067 977 981 1129 Q888 1293 709 1293 Z M356 1843 L527 1843 Q534 1779 558 1747 Q598 1692 704 1692 Q817 1692 856 1757 Q874 1787 880 1843 L1051 1843 Q1044 1543 704 1543 Q363 1543 356 1843 Z " />
<glyph glyph-name="obreve" unicode="&#x14f;" horiz-adv-x="1111" d="M563 1009 Q781 1009 909 863 Q1028 726 1028 492 Q1028 258 909 120 Q782 -26 556 -26 Q330 -26 203 121 Q84 259 84 490 Q84 729 203 863 Q334 1009 563 1009 Z M560 870 Q431 870 371 753 Q318 648 318 491 Q318 336 370 231 Q429 113 556 113 Q683 113 742 231 Q794 337 794 492 Q794 651 742 753 Q681 870 560 870 Z M208 1434 L379 1434 Q386 1370 410 1337 Q449 1282 556 1282 Q670 1282 708 1347 Q726 1378 732 1434 L903 1434 Q896 1133 556 1133 Q215 1133 208 1434 Z " />
<glyph glyph-name="Ohungarumlaut" unicode="&#x150;" horiz-adv-x="1406" d="M714 1439 Q923 1439 1067 1335 Q1213 1228 1276 1018 Q1316 881 1316 706 Q1316 391 1181 195 Q1029 -26 704 -26 Q378 -26 226 195 Q91 391 91 704 Q91 1026 226 1218 Q381 1439 714 1439 Z M709 1293 Q517 1293 426 1129 Q340 973 340 703 Q340 440 426 284 Q516 120 703 120 Q827 120 913 198 Q1067 337 1067 707 Q1067 977 981 1129 Q888 1293 709 1293 Z M428 1556 L565 1831 L823 1831 L594 1556 L428 1556 Z M780 1556 L917 1831 L1175 1831 L946 1556 L780 1556 Z " />
<glyph glyph-name="ohungarumlaut" unicode="&#x151;" horiz-adv-x="1111" d="M563 1009 Q781 1009 909 863 Q1028 726 1028 492 Q1028 258 909 120 Q782 -26 556 -26 Q330 -26 203 121 Q84 259 84 490 Q84 729 203 863 Q334 1009 563 1009 Z M560 870 Q431 870 371 753 Q318 648 318 491 Q318 336 370 231 Q429 113 556 113 Q683 113 742 231 Q794 337 794 492 Q794 651 742 753 Q681 870 560 870 Z M281 1147 L418 1421 L676 1421 L447 1147 L281 1147 Z M633 1147 L770 1421 L1028 1421 L799 1147 L633 1147 Z " />
<glyph glyph-name="Racute" unicode="&#x154;" horiz-adv-x="1247" d="M434 606 L434 325 Q434 181 459 141 Q473 118 522 107 Q532 105 542 103 Q555 101 583 95 L583 -4 Q404 4 314 4 Q224 4 45 -4 L45 95 Q72 101 86 103 Q139 113 157 128 Q194 158 194 323 L194 1076 Q194 1231 171 1272 Q157 1295 111 1306 Q102 1308 93 1310 Q80 1312 54 1318 L54 1417 Q189 1413 397 1413 L600 1413 Q886 1413 1009 1325 Q1151 1223 1151 1018 Q1151 835 1031 736 Q982 696 870 658 Q924 615 953 570 Q976 534 1016 446 L1100 263 Q1146 163 1201 129 Q1233 109 1321 95 L1321 -4 Q1170 2 1102 2 Q1046 2 954 0 Q936 90 890 193 L819 353 Q744 521 707 567 Q676 606 609 606 L434 606 Z M434 733 L626 733 Q781 733 845 802 Q907 868 907 1003 Q907 1144 839 1207 Q776 1267 618 1267 L434 1267 L434 733 Z M493 1556 L652 1831 L927 1831 L665 1556 L493 1556 Z " />
<glyph glyph-name="racute" unicode="&#x155;" horiz-adv-x="830" d="M47 -4 L47 95 Q68 99 79 101 Q134 110 154 128 Q189 159 189 327 L189 649 Q189 796 169 843 Q156 874 121 881 Q105 884 62 884 L62 983 Q257 991 383 1008 Q398 929 402 824 Q456 914 490 946 Q556 1009 647 1009 Q723 1009 815 977 L811 719 L674 719 Q672 727 667 770 Q655 857 588 857 Q514 857 457 728 Q426 659 420 608 Q416 574 416 527 L416 325 Q416 178 452 140 Q474 116 551 105 Q565 103 631 95 L631 -4 Q435 4 334 4 Q241 4 47 -4 Z M349 1147 L508 1421 L783 1421 L521 1147 L349 1147 Z " />
<glyph glyph-name="Rcommaaccent" unicode="&#x156;" horiz-adv-x="1247" d="M434 606 L434 325 Q434 181 459 141 Q473 118 522 107 Q532 105 542 103 Q555 101 583 95 L583 -4 Q404 4 314 4 Q224 4 45 -4 L45 95 Q72 101 86 103 Q139 113 157 128 Q194 158 194 323 L194 1076 Q194 1231 171 1272 Q157 1295 111 1306 Q102 1308 93 1310 Q80 1312 54 1318 L54 1417 Q189 1413 397 1413 L600 1413 Q886 1413 1009 1325 Q1151 1223 1151 1018 Q1151 835 1031 736 Q982 696 870 658 Q924 615 953 570 Q976 534 1016 446 L1100 263 Q1146 163 1201 129 Q1233 109 1321 95 L1321 -4 Q1170 2 1102 2 Q1046 2 954 0 Q936 90 890 193 L819 353 Q744 521 707 567 Q676 606 609 606 L434 606 Z M434 733 L626 733 Q781 733 845 802 Q907 868 907 1003 Q907 1144 839 1207 Q776 1267 618 1267 L434 1267 L434 733 Z M447 -455 L561 -145 L814 -145 L617 -455 L447 -455 Z " />
<glyph glyph-name="rcommaaccent" unicode="&#x157;" horiz-adv-x="830" d="M47 -4 L47 95 Q68 99 79 101 Q134 110 154 128 Q189 159 189 327 L189 649 Q189 796 169 843 Q156 874 121 881 Q105 884 62 884 L62 983 Q257 991 383 1008 Q398 929 402 824 Q456 914 490 946 Q556 1009 647 1009 Q723 1009 815 977 L811 719 L674 719 Q672 727 667 770 Q655 857 588 857 Q514 857 457 728 Q426 659 420 608 Q416 574 416 527 L416 325 Q416 178 452 140 Q474 116 551 105 Q565 103 631 95 L631 -4 Q435 4 334 4 Q241 4 47 -4 Z M99 -455 L213 -145 L466 -145 L269 -455 L99 -455 Z " />
<glyph glyph-name="Rcaron" unicode="&#x158;" horiz-adv-x="1247" d="M434 606 L434 325 Q434 181 459 141 Q473 118 522 107 Q532 105 542 103 Q555 101 583 95 L583 -4 Q404 4 314 4 Q224 4 45 -4 L45 95 Q72 101 86 103 Q139 113 157 128 Q194 158 194 323 L194 1076 Q194 1231 171 1272 Q157 1295 111 1306 Q102 1308 93 1310 Q80 1312 54 1318 L54 1417 Q189 1413 397 1413 L600 1413 Q886 1413 1009 1325 Q1151 1223 1151 1018 Q1151 835 1031 736 Q982 696 870 658 Q924 615 953 570 Q976 534 1016 446 L1100 263 Q1146 163 1201 129 Q1233 109 1321 95 L1321 -4 Q1170 2 1102 2 Q1046 2 954 0 Q936 90 890 193 L819 353 Q744 521 707 567 Q676 606 609 606 L434 606 Z M434 733 L626 733 Q781 733 845 802 Q907 868 907 1003 Q907 1144 839 1207 Q776 1267 618 1267 L434 1267 L434 733 Z M597 1668 L770 1831 L954 1831 L731 1556 L463 1556 L240 1831 L423 1831 L597 1668 Z " />
<glyph glyph-name="rcaron" unicode="&#x159;" horiz-adv-x="831" d="M47 -4 L47 95 Q68 99 79 101 Q134 110 154 128 Q189 159 189 327 L189 649 Q189 796 169 843 Q156 874 121 881 Q105 884 62 884 L62 983 Q257 991 383 1008 Q398 929 402 824 Q456 914 490 946 Q556 1009 647 1009 Q723 1009 815 977 L811 719 L674 719 Q672 727 667 770 Q655 857 588 857 Q514 857 457 728 Q426 659 420 608 Q416 574 416 527 L416 325 Q416 178 452 140 Q474 116 551 105 Q565 103 631 95 L631 -4 Q435 4 334 4 Q241 4 47 -4 Z M456 1259 L629 1421 L813 1421 L590 1147 L322 1147 L99 1421 L282 1421 L456 1259 Z " />
<glyph glyph-name="Sacute" unicode="&#x15a;" horiz-adv-x="1059" d="M56 26 L59 337 L196 337 Q209 243 238 197 Q287 120 475 120 Q760 120 760 341 Q760 424 723 478 Q691 525 635 554 Q580 583 495 618 Q271 710 180 796 Q80 890 80 1053 Q80 1244 201 1344 Q316 1439 540 1439 Q718 1439 904 1392 L900 1097 L761 1097 Q748 1181 723 1222 Q681 1293 542 1293 Q307 1293 307 1089 Q307 994 365 945 Q406 909 463 882 Q526 853 607 817 Q768 748 832 701 Q987 587 987 373 Q987 175 854 73 Q775 12 676 -7 Q581 -26 467 -26 Q232 -26 56 26 Z M439 1556 L598 1831 L873 1831 L611 1556 L439 1556 Z " />
<glyph glyph-name="sacute" unicode="&#x15b;" horiz-adv-x="921" d="M79 17 L82 296 L219 296 Q228 213 253 173 Q294 110 428 110 Q651 110 651 242 Q651 301 602 335 Q558 364 413 413 Q233 473 162 541 Q96 605 96 714 Q96 863 199 939 Q294 1008 468 1008 Q617 1008 797 968 L794 702 L656 702 Q649 772 631 805 Q593 873 472 873 Q393 873 351 844 Q304 811 304 749 Q304 681 369 648 Q403 630 546 579 Q677 532 727 501 Q807 452 837 385 Q859 335 859 268 Q859 115 752 45 Q644 -26 431 -26 Q255 -26 79 17 Z M371 1147 L530 1421 L805 1421 L543 1147 L371 1147 Z " />
<glyph glyph-name="Scircumflex" unicode="&#x15c;" horiz-adv-x="1059" d="M56 26 L59 337 L196 337 Q209 243 238 197 Q287 120 475 120 Q760 120 760 341 Q760 424 723 478 Q691 525 635 554 Q580 583 495 618 Q271 710 180 796 Q80 890 80 1053 Q80 1244 201 1344 Q316 1439 540 1439 Q718 1439 904 1392 L900 1097 L761 1097 Q748 1181 723 1222 Q681 1293 542 1293 Q307 1293 307 1089 Q307 994 365 945 Q406 909 463 882 Q526 853 607 817 Q768 748 832 701 Q987 587 987 373 Q987 175 854 73 Q775 12 676 -7 Q581 -26 467 -26 Q232 -26 56 26 Z M547 1719 L373 1556 L190 1556 L413 1831 L681 1831 L904 1556 L720 1556 L547 1719 Z " />
<glyph glyph-name="scircumflex" unicode="&#x15d;" horiz-adv-x="921" d="M79 17 L82 296 L219 296 Q228 213 253 173 Q294 110 428 110 Q651 110 651 242 Q651 301 602 335 Q558 364 413 413 Q233 473 162 541 Q96 605 96 714 Q96 863 199 939 Q294 1008 468 1008 Q617 1008 797 968 L794 702 L656 702 Q649 772 631 805 Q593 873 472 873 Q393 873 351 844 Q304 811 304 749 Q304 681 369 648 Q403 630 546 579 Q677 532 727 501 Q807 452 837 385 Q859 335 859 268 Q859 115 752 45 Q644 -26 431 -26 Q255 -26 79 17 Z M506 1309 L332 1147 L149 1147 L372 1421 L640 1421 L863 1147 L679 1147 L506 1309 Z " />
<glyph glyph-name="Scedilla" unicode="&#x15e;" horiz-adv-x="1059" d="M56 26 L59 337 L196 337 Q209 243 238 197 Q287 120 475 120 Q760 120 760 341 Q760 424 723 478 Q691 525 635 554 Q580 583 495 618 Q271 709 180 795 Q80 890 80 1053 Q80 1244 201 1344 Q316 1439 540 1439 Q718 1439 904 1392 L900 1097 L761 1097 Q748 1181 723 1222 Q681 1293 542 1293 Q307 1293 307 1089 Q307 994 365 944 Q406 909 463 882 Q526 852 607 817 Q768 747 832 701 Q987 587 987 372 Q987 113 762 19 Q682 -14 554 -23 L478 -136 Q580 -144 630 -168 Q722 -210 722 -330 Q722 -434 646 -488 Q576 -537 458 -537 Q352 -537 252 -507 L277 -404 Q362 -437 422 -437 Q526 -437 526 -332 Q526 -212 402 -212 Q378 -212 346 -216 L332 -181 L433 -26 Q215 -21 56 26 Z " />
<glyph glyph-name="scedilla" unicode="&#x15f;" horiz-adv-x="921" d="M79 17 L82 296 L219 296 Q228 213 253 173 Q294 110 428 110 Q651 110 651 242 Q651 301 602 335 Q558 365 413 413 Q233 473 162 541 Q96 605 96 714 Q96 863 199 939 Q294 1008 468 1008 Q617 1008 797 968 L794 702 L656 702 Q649 772 631 805 Q593 873 472 873 Q393 873 351 844 Q304 811 304 749 Q304 681 369 648 Q404 630 546 579 Q678 531 727 501 Q807 452 837 385 Q859 335 859 268 Q859 6 522 -23 L445 -136 Q547 -144 597 -168 Q689 -210 689 -330 Q689 -435 613 -488 Q543 -537 425 -537 Q319 -537 219 -507 L244 -404 Q328 -437 389 -437 Q493 -437 493 -332 Q493 -211 369 -211 Q347 -211 313 -216 L298 -181 L400 -26 Q237 -22 79 17 Z " />
<glyph glyph-name="Scaron" unicode="&#x160;" horiz-adv-x="1059" d="M56 26 L59 337 L196 337 Q209 243 238 197 Q287 120 475 120 Q760 120 760 341 Q760 424 723 478 Q691 525 635 554 Q580 583 495 618 Q271 710 180 796 Q80 890 80 1053 Q80 1244 201 1344 Q316 1439 540 1439 Q718 1439 904 1392 L900 1097 L761 1097 Q748 1181 723 1222 Q681 1293 542 1293 Q307 1293 307 1089 Q307 994 365 945 Q406 909 463 882 Q526 853 607 817 Q768 748 832 701 Q987 587 987 373 Q987 175 854 73 Q775 12 676 -7 Q581 -26 467 -26 Q232 -26 56 26 Z M553 1668 L726 1831 L910 1831 L687 1556 L419 1556 L196 1831 L379 1831 L553 1668 Z " />
<glyph glyph-name="scaron" unicode="&#x161;" horiz-adv-x="921" d="M79 17 L82 296 L219 296 Q228 213 253 173 Q294 110 428 110 Q651 110 651 242 Q651 301 602 335 Q558 364 413 413 Q233 473 162 541 Q96 605 96 714 Q96 863 199 939 Q294 1008 468 1008 Q617 1008 797 968 L794 702 L656 702 Q649 772 631 805 Q593 873 472 873 Q393 873 351 844 Q304 811 304 749 Q304 681 369 648 Q403 630 546 579 Q677 532 727 501 Q807 452 837 385 Q859 335 859 268 Q859 115 752 45 Q644 -26 431 -26 Q255 -26 79 17 Z M494 1259 L667 1421 L851 1421 L628 1147 L360 1147 L137 1421 L320 1421 L494 1259 Z " />
<glyph glyph-name="Tcommaaccent" unicode="&#x162;" horiz-adv-x="1248" d="M285 -4 L285 95 Q324 101 343 103 Q424 113 449 126 Q504 155 504 325 L504 1269 L358 1269 Q235 1269 204 1216 Q187 1188 171 1076 L36 1076 L39 1413 L1208 1413 L1212 1076 L1077 1076 Q1059 1188 1041 1216 Q1007 1269 876 1269 L743 1269 L743 325 Q743 180 780 141 Q801 118 875 107 Q889 105 904 103 Q923 101 962 95 L962 -4 Q736 4 623 4 Q511 4 285 -4 Z M381 -455 L495 -145 L748 -145 L551 -455 L381 -455 Z " />
<glyph glyph-name="tcommaaccent" unicode="&#x163;" horiz-adv-x="749" d="M181 837 L8 837 L14 983 L44 983 Q175 983 218 1066 Q254 1137 276 1309 L408 1309 L408 983 L720 983 L714 837 L408 837 L408 352 Q408 219 430 171 Q458 113 537 113 Q617 113 697 143 L716 4 Q604 -26 474 -26 Q286 -26 224 79 Q181 152 181 327 L181 837 Z M161 -455 L275 -145 L528 -145 L331 -455 L161 -455 Z " />
<glyph glyph-name="Tcaron" unicode="&#x164;" horiz-adv-x="1248" d="M285 -4 L285 95 Q324 101 343 103 Q424 113 449 126 Q504 155 504 325 L504 1269 L358 1269 Q235 1269 204 1216 Q187 1188 171 1076 L36 1076 L39 1413 L1208 1413 L1212 1076 L1077 1076 Q1059 1188 1041 1216 Q1007 1269 876 1269 L743 1269 L743 325 Q743 180 780 141 Q801 118 875 107 Q889 105 904 103 Q923 101 962 95 L962 -4 Q736 4 623 4 Q511 4 285 -4 Z M624 1668 L797 1831 L981 1831 L758 1556 L490 1556 L267 1831 L450 1831 L624 1668 Z " />
<glyph glyph-name="tcaron" unicode="&#x165;" horiz-adv-x="851" d="M181 837 L8 837 L14 983 L44 983 Q175 983 218 1066 Q254 1137 276 1309 L408 1309 L408 983 L720 983 L714 837 L408 837 L408 352 Q408 219 430 171 Q458 113 537 113 Q617 113 697 143 L716 4 Q604 -26 474 -26 Q286 -26 224 79 Q181 152 181 327 L181 837 Z M616 1154 L679 1643 L910 1643 L776 1154 L616 1154 Z " />
<glyph glyph-name="Tbar" unicode="&#x166;" horiz-adv-x="1248" d="M504 793 L144 793 L144 901 L504 901 L504 1269 L358 1269 Q235 1269 204 1216 Q187 1188 171 1076 L36 1076 L39 1413 L1209 1413 L1212 1076 L1077 1076 Q1059 1188 1041 1216 Q1007 1269 876 1269 L743 1269 L743 901 L1104 901 L1104 793 L743 793 L743 325 Q743 180 780 141 Q801 118 875 107 Q889 105 904 103 Q923 101 962 95 L962 -4 Q736 4 623 4 Q511 4 285 -4 L285 95 Q324 101 343 103 Q424 113 449 127 Q504 156 504 325 L504 793 Z " />
<glyph glyph-name="tbar" unicode="&#x167;" horiz-adv-x="749" d="M181 837 L8 837 L14 983 L44 983 Q175 983 218 1066 Q254 1138 276 1309 L408 1309 L408 983 L719 983 L713 837 L408 837 L408 672 L662 672 L662 558 L408 558 L408 352 Q408 219 430 172 Q458 113 537 113 Q616 113 696 143 L715 4 Q603 -26 474 -26 Q286 -26 224 79 Q181 152 181 327 L181 558 L22 558 L22 672 L181 672 L181 837 Z " />
<glyph glyph-name="Utilde" unicode="&#x168;" horiz-adv-x="1417" d="M37 1318 L37 1417 Q216 1409 306 1409 Q396 1409 575 1417 L575 1318 Q547 1312 534 1310 Q481 1301 463 1285 Q426 1255 426 1088 L426 526 Q426 315 468 238 Q534 119 730 119 Q941 119 1001 260 Q1033 335 1033 526 L1033 1088 Q1033 1232 1008 1272 Q993 1295 945 1306 Q944 1306 909 1313 Q896 1315 884 1318 L884 1417 Q1050 1409 1132 1409 Q1215 1409 1381 1417 L1381 1318 Q1353 1312 1340 1310 Q1287 1301 1269 1285 Q1232 1254 1232 1088 L1232 536 Q1232 403 1222 336 Q1192 141 1058 54 Q932 -27 721 -27 Q345 -27 236 194 Q198 269 189 384 Q186 426 186 515 L186 1088 Q186 1232 161 1272 Q146 1295 98 1306 Q96 1306 62 1313 Q49 1315 37 1318 Z M515 1560 L358 1560 Q383 1685 420 1745 Q483 1845 592 1845 Q650 1845 702 1817 Q730 1802 784 1755 Q842 1703 869 1703 Q908 1703 927 1761 Q935 1788 942 1834 L1100 1834 Q1087 1717 1053 1654 Q995 1546 863 1546 Q790 1546 735 1585 Q723 1594 671 1640 Q616 1688 591 1688 Q557 1688 534 1632 Q527 1615 515 1560 Z " />
<glyph glyph-name="utilde" unicode="&#x169;" horiz-adv-x="1174" d="M37 884 L37 983 Q267 991 402 1008 L402 374 Q402 250 424 196 Q453 124 540 124 Q681 124 770 270 L770 649 Q770 796 749 843 Q735 874 698 881 Q681 884 635 884 L635 983 Q858 991 997 1008 L997 327 Q997 187 1019 145 Q1034 117 1085 105 Q1094 103 1139 95 L1139 -4 Q1005 2 945 2 Q896 2 815 0 Q799 42 790 119 Q659 -26 477 -26 Q281 -26 212 121 Q175 199 175 376 L175 649 Q175 829 140 863 Q119 884 37 884 Z M373 1150 L216 1150 Q241 1275 278 1334 Q341 1435 450 1435 Q507 1435 560 1407 Q588 1392 642 1345 Q700 1293 727 1293 Q766 1293 785 1351 Q793 1378 800 1424 L958 1424 Q945 1307 911 1244 Q852 1136 721 1136 Q648 1136 593 1175 Q581 1184 529 1229 Q474 1278 449 1278 Q415 1278 392 1222 Q386 1205 373 1150 Z " />
<glyph glyph-name="Umacron" unicode="&#x16a;" horiz-adv-x="1417" d="M37 1318 L37 1417 Q216 1409 306 1409 Q396 1409 575 1417 L575 1318 Q547 1312 534 1310 Q481 1301 463 1285 Q426 1255 426 1088 L426 526 Q426 315 468 238 Q534 119 730 119 Q941 119 1001 260 Q1033 335 1033 526 L1033 1088 Q1033 1232 1008 1272 Q993 1295 945 1306 Q944 1306 909 1313 Q896 1315 884 1318 L884 1417 Q1050 1409 1132 1409 Q1215 1409 1381 1417 L1381 1318 Q1353 1312 1340 1310 Q1287 1301 1269 1285 Q1232 1254 1232 1088 L1232 536 Q1232 403 1222 336 Q1192 141 1058 54 Q932 -27 721 -27 Q345 -27 236 194 Q198 269 189 384 Q186 426 186 515 L186 1088 Q186 1232 161 1272 Q146 1295 98 1306 Q96 1306 62 1313 Q49 1315 37 1318 Z M410 1627 L410 1767 L1044 1767 L1044 1627 L410 1627 Z " />
<glyph glyph-name="umacron" unicode="&#x16b;" horiz-adv-x="1174" d="M37 884 L37 983 Q267 991 402 1008 L402 374 Q402 250 424 196 Q453 124 540 124 Q681 124 770 270 L770 649 Q770 796 749 843 Q735 874 698 881 Q681 884 635 884 L635 983 Q858 991 997 1008 L997 327 Q997 187 1019 145 Q1034 117 1085 105 Q1094 103 1139 95 L1139 -4 Q1005 2 945 2 Q896 2 815 0 Q799 42 790 119 Q659 -26 477 -26 Q281 -26 212 121 Q175 199 175 376 L175 649 Q175 829 140 863 Q119 884 37 884 Z M253 1211 L253 1351 L887 1351 L887 1211 L253 1211 Z " />
<glyph glyph-name="Ubreve" unicode="&#x16c;" horiz-adv-x="1417" d="M37 1318 L37 1417 Q216 1409 306 1409 Q396 1409 575 1417 L575 1318 Q547 1312 534 1310 Q481 1301 463 1285 Q426 1255 426 1088 L426 526 Q426 315 468 238 Q534 119 730 119 Q941 119 1001 260 Q1033 335 1033 526 L1033 1088 Q1033 1232 1008 1272 Q993 1295 945 1306 Q944 1306 909 1313 Q896 1315 884 1318 L884 1417 Q1050 1409 1132 1409 Q1215 1409 1381 1417 L1381 1318 Q1353 1312 1340 1310 Q1287 1301 1269 1285 Q1232 1254 1232 1088 L1232 536 Q1232 403 1222 336 Q1192 141 1058 54 Q932 -27 721 -27 Q345 -27 236 194 Q198 269 189 384 Q186 426 186 515 L186 1088 Q186 1232 161 1272 Q146 1295 98 1306 Q96 1306 62 1313 Q49 1315 37 1318 Z M381 1843 L552 1843 Q559 1779 583 1747 Q623 1692 729 1692 Q842 1692 881 1757 Q899 1787 905 1843 L1076 1843 Q1069 1543 729 1543 Q388 1543 381 1843 Z " />
<glyph glyph-name="ubreve" unicode="&#x16d;" horiz-adv-x="1174" d="M37 884 L37 983 Q267 991 402 1008 L402 374 Q402 250 424 196 Q453 124 540 124 Q681 124 770 270 L770 649 Q770 796 749 843 Q735 874 698 881 Q681 884 635 884 L635 983 Q858 991 997 1008 L997 327 Q997 187 1019 145 Q1034 117 1085 105 Q1094 103 1139 95 L1139 -4 Q1005 2 945 2 Q896 2 815 0 Q799 42 790 119 Q659 -26 477 -26 Q281 -26 212 121 Q175 199 175 376 L175 649 Q175 829 140 863 Q119 884 37 884 Z M230 1434 L401 1434 Q408 1370 432 1337 Q471 1282 578 1282 Q692 1282 730 1347 Q748 1378 754 1434 L925 1434 Q918 1133 578 1133 Q237 1133 230 1434 Z " />
<glyph glyph-name="Uring" unicode="&#x16e;" horiz-adv-x="1417" d="M37 1318 L37 1417 Q216 1409 306 1409 Q396 1409 575 1417 L575 1318 Q547 1312 534 1310 Q481 1301 463 1285 Q426 1255 426 1088 L426 526 Q426 315 468 238 Q534 119 730 119 Q941 119 1001 260 Q1033 335 1033 526 L1033 1088 Q1033 1232 1008 1272 Q993 1295 945 1306 Q944 1306 909 1313 Q896 1315 884 1318 L884 1417 Q1050 1409 1132 1409 Q1215 1409 1381 1417 L1381 1318 Q1353 1312 1340 1310 Q1287 1301 1269 1285 Q1232 1254 1232 1088 L1232 536 Q1232 403 1222 336 Q1192 141 1058 54 Q932 -27 721 -27 Q345 -27 236 194 Q198 269 189 384 Q186 426 186 515 L186 1088 Q186 1232 161 1272 Q146 1295 98 1306 Q96 1306 62 1313 Q49 1315 37 1318 Z M738 1948 Q842 1948 906 1888 Q968 1830 968 1743 Q968 1657 906 1598 Q841 1537 734 1537 Q627 1537 562 1598 Q500 1657 500 1743 Q500 1832 562 1888 Q627 1948 738 1948 Z M735 1874 Q688 1874 661 1836 Q637 1801 637 1742 Q637 1684 661 1649 Q688 1611 734 1611 Q780 1611 807 1649 Q831 1683 831 1742 Q831 1803 807 1836 Q780 1874 735 1874 Z " />
<glyph glyph-name="uring" unicode="&#x16f;" horiz-adv-x="1174" d="M37 884 L37 983 Q267 991 402 1008 L402 374 Q402 250 424 196 Q453 124 540 124 Q681 124 770 270 L770 649 Q770 796 749 843 Q735 874 698 881 Q681 884 635 884 L635 983 Q858 991 997 1008 L997 327 Q997 187 1019 145 Q1034 117 1085 105 Q1094 103 1139 95 L1139 -4 Q1005 2 945 2 Q896 2 815 0 Q799 42 790 119 Q659 -26 477 -26 Q281 -26 212 121 Q175 199 175 376 L175 649 Q175 829 140 863 Q119 884 37 884 Z M580 1537 Q684 1537 748 1477 Q810 1419 810 1332 Q810 1246 748 1187 Q683 1126 576 1126 Q469 1126 404 1187 Q342 1246 342 1332 Q342 1421 404 1477 Q469 1537 580 1537 Z M577 1463 Q530 1463 503 1425 Q479 1391 479 1331 Q479 1273 503 1238 Q529 1200 576 1200 Q622 1200 649 1238 Q673 1272 673 1331 Q673 1392 649 1425 Q621 1463 577 1463 Z " />
<glyph glyph-name="Uhungarumlaut" unicode="&#x170;" horiz-adv-x="1417" d="M37 1318 L37 1417 Q216 1409 306 1409 Q396 1409 575 1417 L575 1318 Q547 1312 534 1310 Q481 1301 463 1285 Q426 1255 426 1088 L426 526 Q426 315 468 238 Q534 119 730 119 Q941 119 1001 260 Q1033 335 1033 526 L1033 1088 Q1033 1232 1008 1272 Q993 1295 945 1306 Q944 1306 909 1313 Q896 1315 884 1318 L884 1417 Q1050 1409 1132 1409 Q1215 1409 1381 1417 L1381 1318 Q1353 1312 1340 1310 Q1287 1301 1269 1285 Q1232 1254 1232 1088 L1232 536 Q1232 403 1222 336 Q1192 141 1058 54 Q932 -27 721 -27 Q345 -27 236 194 Q198 269 189 384 Q186 426 186 515 L186 1088 Q186 1232 161 1272 Q146 1295 98 1306 Q96 1306 62 1313 Q49 1315 37 1318 Z M459 1556 L596 1831 L854 1831 L625 1556 L459 1556 Z M811 1556 L948 1831 L1206 1831 L977 1556 L811 1556 Z " />
<glyph glyph-name="uhungarumlaut" unicode="&#x171;" horiz-adv-x="1174" d="M37 884 L37 983 Q267 991 402 1008 L402 374 Q402 250 424 196 Q453 124 540 124 Q681 124 770 270 L770 649 Q770 796 749 843 Q735 874 698 881 Q681 884 635 884 L635 983 Q858 991 997 1008 L997 327 Q997 187 1019 145 Q1034 117 1085 105 Q1094 103 1139 95 L1139 -4 Q1005 2 945 2 Q896 2 815 0 Q799 42 790 119 Q659 -26 477 -26 Q281 -26 212 121 Q175 199 175 376 L175 649 Q175 829 140 863 Q119 884 37 884 Z M297 1147 L434 1421 L692 1421 L463 1147 L297 1147 Z M649 1147 L786 1421 L1044 1421 L815 1147 L649 1147 Z " />
<glyph glyph-name="Uogonek" unicode="&#x172;" horiz-adv-x="1417" d="M37 1318 L37 1417 Q216 1409 306 1409 Q396 1409 575 1417 L575 1318 Q547 1312 534 1310 Q481 1301 463 1285 Q426 1255 426 1088 L426 526 Q426 315 468 238 Q535 119 730 119 Q941 119 1001 260 Q1033 334 1033 526 L1033 1088 Q1033 1232 1008 1272 Q993 1295 945 1306 Q944 1306 909 1313 Q896 1315 884 1318 L884 1417 Q1050 1409 1132 1409 Q1215 1409 1381 1417 L1381 1318 Q1353 1312 1340 1310 Q1287 1301 1269 1285 Q1232 1254 1232 1088 L1232 536 Q1232 365 1209 273 Q1159 66 939 1 Q846 -59 785 -122 Q700 -210 700 -311 Q700 -390 743 -419 Q775 -442 835 -442 Q905 -442 975 -411 L993 -511 Q901 -542 804 -542 Q656 -542 577 -483 Q504 -429 504 -326 Q504 -149 727 -27 Q437 -26 300 105 Q212 189 192 353 Q186 406 186 515 L186 1088 Q186 1232 161 1272 Q146 1295 98 1306 Q96 1306 62 1313 Q49 1315 37 1318 Z " />
<glyph glyph-name="uogonek" unicode="&#x173;" horiz-adv-x="1174" d="M37 884 L37 983 Q267 991 402 1008 L402 374 Q402 250 424 196 Q453 124 540 124 Q681 124 770 270 L770 649 Q770 796 749 843 Q735 874 698 881 Q681 884 635 884 L635 983 Q858 991 997 1008 L997 327 Q997 187 1019 145 Q1034 117 1085 105 Q1094 103 1139 95 L1139 -4 Q1028 -83 988 -125 Q903 -211 903 -312 Q903 -390 946 -419 Q978 -442 1038 -442 Q1108 -442 1178 -411 L1196 -511 Q1105 -542 1007 -542 Q859 -542 780 -483 Q707 -429 707 -326 Q707 -182 850 -79 Q902 -41 993 2 Q961 2 944 2 Q902 2 815 0 Q799 42 790 119 Q658 -26 477 -26 Q281 -26 212 121 Q175 199 175 376 L175 649 Q175 829 140 863 Q119 884 37 884 Z " />
<glyph glyph-name="Wcircumflex" unicode="&#x174;" horiz-adv-x="1982" d="M473 0 L152 1126 Q119 1244 83 1277 Q55 1302 -34 1318 L-34 1417 Q136 1409 221 1409 Q307 1409 477 1417 L477 1318 Q460 1314 451 1312 Q402 1301 385 1289 Q367 1274 367 1246 Q367 1217 381 1161 L499 678 Q543 498 598 244 Q668 529 704 663 L907 1413 L1110 1413 L1308 669 Q1347 523 1414 244 L1438 357 Q1483 569 1506 666 L1624 1161 Q1637 1214 1637 1246 Q1637 1281 1608 1295 Q1588 1305 1524 1318 L1524 1417 Q1689 1409 1773 1409 Q1853 1409 2017 1417 L2017 1318 Q1934 1301 1908 1281 Q1865 1249 1835 1143 L1508 0 L1283 0 L1097 689 Q1053 854 1015 1010 L990 1116 L964 1011 Q916 817 881 691 L691 0 L473 0 Z M991 1719 L817 1556 L634 1556 L857 1831 L1125 1831 L1348 1556 L1164 1556 L991 1719 Z " />
<glyph glyph-name="wcircumflex" unicode="&#x175;" horiz-adv-x="1565" d="M371 0 L128 725 Q94 827 61 852 Q35 873 -49 884 L-49 983 Q110 975 189 975 Q269 975 428 983 L428 884 Q372 876 349 865 Q326 854 326 831 Q326 810 344 751 L418 487 L437 416 L457 345 L474 280 L490 222 Q537 429 563 523 L690 983 L898 983 L1025 509 Q1048 426 1094 222 L1111 282 L1128 342 L1147 406 L1163 464 L1242 740 Q1260 803 1260 834 Q1260 858 1235 868 Q1218 875 1157 884 L1157 983 Q1308 975 1384 975 Q1460 975 1612 983 L1612 884 Q1518 870 1495 848 Q1469 824 1431 714 L1183 0 L970 0 L839 489 Q814 584 779 747 Q737 557 717 487 L582 0 L371 0 Z M792 1309 L618 1147 L435 1147 L658 1421 L926 1421 L1149 1147 L965 1147 L792 1309 Z " />
<glyph glyph-name="Ycircumflex" unicode="&#x176;" horiz-adv-x="1138" d="M273 -4 L273 95 Q306 101 323 103 Q381 112 403 128 Q446 158 446 325 L446 542 L158 1126 Q101 1243 66 1274 Q38 1300 -52 1318 L-52 1417 Q120 1409 206 1409 Q291 1409 463 1417 L463 1318 Q405 1306 384 1297 Q354 1284 354 1253 Q354 1224 387 1154 L486 946 Q516 882 585 720 Q637 842 685 943 L778 1138 Q818 1223 818 1259 Q818 1285 790 1298 Q777 1304 717 1318 L717 1417 Q877 1409 957 1409 Q1037 1409 1197 1417 L1197 1318 Q1110 1301 1081 1279 Q1047 1253 986 1131 L686 543 L686 325 Q686 180 714 141 Q732 118 787 107 Q793 106 829 100 Q844 98 859 95 L859 -4 Q664 4 566 4 Q468 4 273 -4 Z M597 1719 L423 1556 L240 1556 L463 1831 L731 1831 L954 1556 L770 1556 L597 1719 Z " />
<glyph glyph-name="ycircumflex" unicode="&#x177;" horiz-adv-x="1025" d="M398 0 L141 716 Q102 826 77 848 Q53 871 -39 884 L-39 983 Q120 975 199 975 Q278 975 437 983 L438 884 Q374 874 355 865 Q335 856 335 834 Q335 807 359 735 L541 155 L707 730 Q731 814 731 833 Q731 861 698 871 Q680 876 625 884 L625 983 Q776 975 851 975 Q928 975 1080 983 L1080 884 Q995 872 970 853 Q933 825 902 727 L687 47 Q597 -237 526 -336 Q424 -477 216 -477 Q123 -477 49 -455 L71 -297 Q148 -338 225 -338 Q294 -338 337 -303 Q400 -252 464 -63 L486 0 L398 0 Z M544 1309 L370 1147 L187 1147 L410 1421 L678 1421 L901 1147 L717 1147 L544 1309 Z " />
<glyph glyph-name="Zacute" unicode="&#x179;" horiz-adv-x="1090" d="M20 0 L16 119 L764 1263 L393 1263 Q272 1263 240 1216 Q224 1192 207 1088 L66 1088 L70 1413 L1025 1413 L1036 1293 L282 150 L727 150 Q861 150 893 198 Q912 228 926 337 L1067 337 L1063 0 L20 0 Z M464 1556 L623 1831 L898 1831 L636 1556 L464 1556 Z " />
<glyph glyph-name="zacute" unicode="&#x17a;" horiz-adv-x="965" d="M47 0 L45 111 L630 845 L360 845 Q278 845 255 808 Q243 788 228 693 L91 693 L95 983 L892 983 L896 871 L312 138 L620 138 Q713 138 735 177 Q746 197 762 296 L900 296 L900 0 L47 0 Z M422 1147 L581 1421 L856 1421 L594 1147 L422 1147 Z " />
<glyph glyph-name="Zdotaccent" unicode="&#x17b;" horiz-adv-x="1090" d="M20 0 L16 119 L764 1263 L393 1263 Q272 1263 240 1216 Q224 1192 207 1088 L66 1088 L70 1413 L1025 1413 L1036 1293 L282 150 L727 150 Q861 150 893 198 Q912 228 926 337 L1067 337 L1063 0 L20 0 Z M605 1831 Q666 1831 707 1791 Q747 1751 747 1695 Q747 1639 707 1599 Q666 1559 606 1559 Q546 1559 505 1599 Q464 1639 464 1697 Q464 1752 505 1791 Q547 1831 605 1831 Z " />
<glyph glyph-name="zdotaccent" unicode="&#x17c;" horiz-adv-x="965" d="M47 0 L45 111 L630 845 L360 845 Q278 845 255 808 Q243 788 228 693 L91 693 L95 983 L892 983 L896 871 L312 138 L620 138 Q713 138 735 177 Q746 197 762 296 L900 296 L900 0 L47 0 Z M534 1416 Q595 1416 636 1376 Q676 1336 676 1280 Q676 1224 636 1184 Q595 1144 535 1144 Q474 1144 434 1184 Q393 1224 393 1282 Q393 1337 434 1376 Q476 1416 534 1416 Z " />
<glyph glyph-name="Zcaron" unicode="&#x17d;" horiz-adv-x="1090" d="M20 0 L16 119 L764 1263 L393 1263 Q272 1263 240 1216 Q224 1192 207 1088 L66 1088 L70 1413 L1025 1413 L1036 1293 L282 150 L727 150 Q861 150 893 198 Q912 228 926 337 L1067 337 L1063 0 L20 0 Z M593 1668 L766 1831 L950 1831 L727 1556 L459 1556 L236 1831 L419 1831 L593 1668 Z " />
<glyph glyph-name="zcaron" unicode="&#x17e;" horiz-adv-x="965" d="M47 0 L45 111 L630 845 L360 845 Q278 845 255 808 Q243 788 228 693 L91 693 L95 983 L892 983 L896 871 L312 138 L620 138 Q713 138 735 177 Q746 197 762 296 L900 296 L900 0 L47 0 Z M515 1259 L688 1421 L872 1421 L649 1147 L381 1147 L158 1421 L341 1421 L515 1259 Z " />
<glyph glyph-name="Ohorn" unicode="&#x1a0;" horiz-adv-x="1522" d="M714 1439 Q923 1439 1067 1335 Q1213 1228 1276 1018 Q1316 881 1316 706 Q1316 391 1181 195 Q1029 -26 704 -26 Q378 -26 226 195 Q91 391 91 704 Q91 1026 226 1218 Q381 1439 714 1439 Z M709 1293 Q517 1293 426 1129 Q340 973 340 703 Q340 440 426 284 Q516 120 703 120 Q827 120 913 198 Q1067 337 1067 707 Q1067 977 981 1129 Q888 1293 709 1293 Z M1336 1350 Q1240 1381 1240 1479 Q1240 1535 1275 1573 Q1315 1616 1383 1616 Q1456 1616 1496 1571 Q1528 1535 1528 1479 Q1528 1398 1444 1257 Q1422 1220 1348 1112 L1247 1112 Q1294 1201 1336 1350 Z " />
<glyph glyph-name="ohorn" unicode="&#x1a1;" horiz-adv-x="1257" d="M563 1009 Q781 1009 909 863 Q1028 726 1028 492 Q1028 258 909 120 Q782 -26 556 -26 Q330 -26 203 121 Q84 259 84 490 Q84 729 203 863 Q334 1009 563 1009 Z M560 870 Q431 870 371 753 Q318 648 318 491 Q318 336 370 231 Q429 113 556 113 Q683 113 742 231 Q794 337 794 492 Q794 651 742 753 Q681 870 560 870 Z M1085 966 Q989 997 989 1095 Q989 1151 1024 1189 Q1064 1232 1132 1232 Q1205 1232 1245 1187 Q1277 1151 1277 1095 Q1277 1014 1193 873 Q1172 839 1096 728 L996 728 Q1043 817 1085 966 Z " />
<glyph glyph-name="Uhorn" unicode="&#x1af;" horiz-adv-x="1683" d="M37 1318 L37 1417 Q216 1409 306 1409 Q396 1409 575 1417 L575 1318 Q547 1312 534 1310 Q481 1301 463 1285 Q426 1255 426 1088 L426 526 Q426 315 468 238 Q534 119 730 119 Q941 119 1001 260 Q1033 335 1033 526 L1033 1088 Q1033 1232 1008 1272 Q993 1295 945 1306 Q944 1306 909 1313 Q896 1315 884 1318 L884 1417 Q1050 1409 1132 1409 Q1215 1409 1381 1417 L1381 1318 Q1353 1312 1340 1310 Q1287 1301 1269 1285 Q1232 1254 1232 1088 L1232 536 Q1232 403 1222 336 Q1192 141 1058 54 Q932 -27 721 -27 Q345 -27 236 194 Q198 269 189 384 Q186 426 186 515 L186 1088 Q186 1232 161 1272 Q146 1295 98 1306 Q96 1306 62 1313 Q49 1315 37 1318 Z M1498 1350 Q1402 1381 1402 1479 Q1402 1535 1437 1573 Q1477 1616 1545 1616 Q1618 1616 1658 1571 Q1690 1535 1690 1478 Q1690 1404 1623 1287 Q1587 1223 1522 1130 L1510 1112 L1409 1112 Q1452 1194 1498 1350 Z " />
<glyph glyph-name="uhorn" unicode="&#x1b0;" horiz-adv-x="1315" d="M37 884 L37 983 Q267 991 402 1008 L402 374 Q402 250 424 196 Q453 124 540 124 Q681 124 770 270 L770 649 Q770 796 749 843 Q735 874 698 881 Q681 884 635 884 L635 983 Q858 991 997 1008 L997 327 Q997 187 1019 145 Q1034 117 1085 105 Q1094 103 1139 95 L1139 -4 Q1005 2 945 2 Q896 2 815 0 Q799 42 790 119 Q659 -26 477 -26 Q281 -26 212 121 Q175 199 175 376 L175 649 Q175 829 140 863 Q119 884 37 884 Z M1143 951 Q1047 982 1047 1079 Q1047 1135 1082 1174 Q1122 1217 1190 1217 Q1263 1217 1303 1172 Q1335 1136 1335 1079 Q1335 999 1251 858 Q1221 808 1155 713 L1054 713 Q1102 804 1143 951 Z " />
<glyph glyph-name="uni01CD" unicode="&#x1cd;" horiz-adv-x="1457" d="M988 412 L431 412 L375 255 Q355 200 355 165 Q355 127 392 113 Q410 107 468 95 L468 -4 Q304 4 222 4 Q141 4 -22 -4 L-22 95 Q75 112 103 136 Q135 163 177 278 L619 1413 L846 1413 L1281 279 Q1314 191 1332 165 Q1358 126 1411 111 Q1436 104 1484 95 L1484 -4 Q1307 4 1219 4 Q1129 4 951 -4 L951 95 Q1018 109 1035 117 Q1064 130 1064 163 Q1064 197 1046 248 L988 412 Z M936 558 L711 1186 L483 558 L936 558 Z M728 1668 L901 1831 L1085 1831 L862 1556 L594 1556 L371 1831 L554 1831 L728 1668 Z " />
<glyph glyph-name="uni01CE" unicode="&#x1ce;" horiz-adv-x="1097" d="M692 619 L692 647 Q692 738 674 785 Q640 873 504 873 Q397 873 351 826 Q321 796 310 727 L173 727 L170 968 Q351 1009 508 1009 Q682 1009 771 960 Q891 895 912 758 Q920 702 920 575 L920 327 Q920 182 944 142 Q958 117 1008 105 Q1016 103 1062 95 L1062 -4 Q926 2 862 2 Q817 2 736 0 Q720 43 712 127 Q606 -26 389 -26 Q238 -26 156 46 Q76 116 76 257 Q76 514 357 586 Q459 612 692 619 Z M693 502 Q558 497 472 479 Q304 442 304 271 Q304 106 451 106 Q577 106 650 206 Q683 252 690 306 Q693 331 693 381 L693 502 Z M537 1259 L710 1421 L894 1421 L671 1147 L403 1147 L180 1421 L363 1421 L537 1259 Z " />
<glyph glyph-name="uni01D3" unicode="&#x1d3;" horiz-adv-x="1417" d="M37 1318 L37 1417 Q216 1409 306 1409 Q396 1409 575 1417 L575 1318 Q547 1312 534 1310 Q481 1301 463 1285 Q426 1255 426 1088 L426 526 Q426 315 468 238 Q534 119 730 119 Q941 119 1001 260 Q1033 335 1033 526 L1033 1088 Q1033 1232 1008 1272 Q993 1295 945 1306 Q944 1306 909 1313 Q896 1315 884 1318 L884 1417 Q1050 1409 1132 1409 Q1215 1409 1381 1417 L1381 1318 Q1353 1312 1340 1310 Q1287 1301 1269 1285 Q1232 1254 1232 1088 L1232 536 Q1232 403 1222 336 Q1192 141 1058 54 Q932 -27 721 -27 Q345 -27 236 194 Q198 269 189 384 Q186 426 186 515 L186 1088 Q186 1232 161 1272 Q146 1295 98 1306 Q96 1306 62 1313 Q49 1315 37 1318 Z M727 1668 L900 1831 L1084 1831 L861 1556 L593 1556 L370 1831 L553 1831 L727 1668 Z " />
<glyph glyph-name="uni01D4" unicode="&#x1d4;" horiz-adv-x="1174" d="M37 884 L37 983 Q267 991 402 1008 L402 374 Q402 250 424 196 Q453 124 540 124 Q681 124 770 270 L770 649 Q770 796 749 843 Q735 874 698 881 Q681 884 635 884 L635 983 Q858 991 997 1008 L997 327 Q997 187 1019 145 Q1034 117 1085 105 Q1094 103 1139 95 L1139 -4 Q1005 2 945 2 Q896 2 815 0 Q799 42 790 119 Q659 -26 477 -26 Q281 -26 212 121 Q175 199 175 376 L175 649 Q175 829 140 863 Q119 884 37 884 Z M570 1259 L743 1421 L927 1421 L704 1147 L436 1147 L213 1421 L396 1421 L570 1259 Z " />
<glyph glyph-name="Gcaron" unicode="&#x1e6;" horiz-adv-x="1330" d="M765 636 L765 735 Q948 727 1047 727 Q1130 727 1308 735 L1308 636 Q1287 630 1276 628 Q1235 618 1221 602 Q1193 571 1193 406 L1193 53 Q1010 -26 753 -26 Q391 -26 229 188 Q91 371 91 688 Q91 1089 294 1288 Q448 1439 741 1439 Q948 1439 1168 1384 L1165 1076 L1023 1076 Q1011 1165 983 1208 Q926 1293 750 1293 Q542 1293 449 1156 Q340 994 340 698 Q340 437 426 286 Q520 120 764 120 Q856 120 963 155 L963 406 Q963 552 930 590 Q910 613 846 624 Q843 624 798 631 Q782 633 765 636 Z M757 1668 L930 1831 L1114 1831 L891 1556 L623 1556 L400 1831 L583 1831 L757 1668 Z " />
<glyph glyph-name="gcaron" unicode="&#x1e7;" horiz-adv-x="1117" d="M730 90 Q687 45 657 25 Q579 -28 470 -28 Q339 -28 243 44 Q84 163 84 464 Q84 725 218 875 Q337 1009 566 1009 Q633 1009 858 994 Q909 991 1068 987 L1068 888 Q996 874 979 850 Q957 817 957 668 L957 102 Q957 -82 938 -186 Q885 -478 492 -478 Q320 -478 172 -431 L195 -256 Q323 -339 486 -339 Q645 -339 695 -241 Q730 -174 730 1 L730 90 Z M730 830 Q645 870 557 870 Q430 870 372 752 Q318 642 318 466 Q318 301 366 207 Q415 111 520 111 Q631 111 693 231 Q730 303 730 431 L730 830 Z M637 1259 L810 1421 L994 1421 L771 1147 L503 1147 L280 1421 L463 1421 L637 1259 Z " />
<glyph glyph-name="uni01F4" unicode="&#x1f4;" horiz-adv-x="1330" d="M765 636 L765 735 Q948 727 1047 727 Q1130 727 1308 735 L1308 636 Q1287 630 1276 628 Q1235 618 1221 602 Q1193 571 1193 406 L1193 53 Q1010 -26 753 -26 Q391 -26 229 188 Q91 371 91 688 Q91 1089 294 1288 Q448 1439 741 1439 Q948 1439 1168 1384 L1165 1076 L1023 1076 Q1011 1165 983 1208 Q926 1293 750 1293 Q542 1293 449 1156 Q340 994 340 698 Q340 437 426 286 Q520 120 764 120 Q856 120 963 155 L963 406 Q963 552 930 590 Q910 613 846 624 Q843 624 798 631 Q782 633 765 636 Z M608 1556 L767 1831 L1042 1831 L780 1556 L608 1556 Z " />
<glyph glyph-name="uni01F5" unicode="&#x1f5;" horiz-adv-x="1117" d="M730 90 Q687 45 657 25 Q579 -28 470 -28 Q339 -28 243 44 Q84 163 84 464 Q84 725 218 875 Q337 1009 566 1009 Q633 1009 858 994 Q909 991 1068 987 L1068 888 Q996 874 979 850 Q957 817 957 668 L957 102 Q957 -82 938 -186 Q885 -478 492 -478 Q320 -478 172 -431 L195 -256 Q323 -339 486 -339 Q645 -339 695 -241 Q730 -174 730 1 L730 90 Z M730 830 Q645 870 557 870 Q430 870 372 752 Q318 642 318 466 Q318 301 366 207 Q415 111 520 111 Q631 111 693 231 Q730 303 730 431 L730 830 Z M505 1147 L664 1421 L939 1421 L677 1147 L505 1147 Z " />
<glyph glyph-name="Scommaaccent" unicode="&#x218;" horiz-adv-x="1059" d="M56 26 L59 337 L196 337 Q209 243 238 197 Q287 120 475 120 Q760 120 760 341 Q760 424 723 478 Q691 525 635 554 Q580 583 495 618 Q271 710 180 796 Q80 890 80 1053 Q80 1244 201 1344 Q316 1439 540 1439 Q718 1439 904 1392 L900 1097 L761 1097 Q748 1181 723 1222 Q681 1293 542 1293 Q307 1293 307 1089 Q307 994 365 945 Q406 909 463 882 Q526 853 607 817 Q768 748 832 701 Q987 587 987 373 Q987 175 854 73 Q775 12 676 -7 Q581 -26 467 -26 Q232 -26 56 26 Z M269 -455 L383 -145 L636 -145 L439 -455 L269 -455 Z " />
<glyph glyph-name="scommaaccent" unicode="&#x219;" horiz-adv-x="921" d="M79 17 L82 296 L219 296 Q228 213 253 173 Q294 110 428 110 Q651 110 651 242 Q651 301 602 335 Q558 364 413 413 Q233 473 162 541 Q96 605 96 714 Q96 863 199 939 Q294 1008 468 1008 Q617 1008 797 968 L794 702 L656 702 Q649 772 631 805 Q593 873 472 873 Q393 873 351 844 Q304 811 304 749 Q304 681 369 648 Q403 630 546 579 Q677 532 727 501 Q807 452 837 385 Q859 335 859 268 Q859 115 752 45 Q644 -26 431 -26 Q255 -26 79 17 Z M246 -455 L360 -145 L613 -145 L416 -455 L246 -455 Z " />
<glyph glyph-name="uni021A" unicode="&#x21a;" horiz-adv-x="1248" d="M285 -4 L285 95 Q324 101 343 103 Q424 113 449 126 Q504 155 504 325 L504 1269 L358 1269 Q235 1269 204 1216 Q187 1188 171 1076 L36 1076 L39 1413 L1208 1413 L1212 1076 L1077 1076 Q1059 1188 1041 1216 Q1007 1269 876 1269 L743 1269 L743 325 Q743 180 780 141 Q801 118 875 107 Q889 105 904 103 Q923 101 962 95 L962 -4 Q736 4 623 4 Q511 4 285 -4 Z M381 -455 L495 -145 L748 -145 L551 -455 L381 -455 Z " />
<glyph glyph-name="uni021B" unicode="&#x21b;" horiz-adv-x="749" d="M181 837 L8 837 L14 983 L44 983 Q175 983 218 1066 Q254 1137 276 1309 L408 1309 L408 983 L720 983 L714 837 L408 837 L408 352 Q408 219 430 171 Q458 113 537 113 Q617 113 697 143 L716 4 Q604 -26 474 -26 Q286 -26 224 79 Q181 152 181 327 L181 837 Z M161 -455 L275 -145 L528 -145 L331 -455 L161 -455 Z " />
<glyph glyph-name="afii57929" unicode="&#x2bc;" horiz-adv-x="544" d="M231 1170 Q127 1203 127 1310 Q127 1371 165 1413 Q209 1461 284 1461 Q365 1461 409 1412 Q444 1372 444 1310 Q444 1220 336 1068 Q301 1020 246 955 Q225 929 212 912 L100 912 Q187 1050 231 1170 Z " />
<glyph glyph-name="uni02C9" unicode="&#x2c9;" horiz-adv-x="1024" d="M195 1211 L195 1351 L829 1351 L829 1211 L195 1211 Z " />
<glyph glyph-name="dexia_keraia" unicode="&#x374;" horiz-adv-x="387" d="M34 863 L110 1417 L347 1417 L205 863 L34 863 Z " />
<glyph glyph-name="aristeri_karaia" unicode="&#x375;" horiz-adv-x="466" d="M21 -289 L153 354 L390 354 L199 -289 L21 -289 Z " />
<glyph glyph-name="iotasubscript" unicode="&#x37a;" horiz-adv-x="1012" d="M398 0 L595 0 L595 -81 Q595 -167 617 -197 Q643 -234 704 -234 Q752 -234 831 -210 L852 -309 Q758 -342 653 -342 Q504 -342 447 -270 Q398 -210 398 -96 L398 0 Z " />
<glyph glyph-name="erotimatico" unicode="&#x37e;" horiz-adv-x="544" d="M262 -17 Q158 16 158 123 Q158 185 196 226 Q240 274 316 274 Q396 274 440 225 Q475 185 475 125 Q475 27 353 -156 Q340 -175 216 -341 L89 -341 Q206 -159 262 -17 Z M319 1010 Q388 1010 434 958 Q473 914 473 859 Q473 795 423 749 Q378 709 316 709 Q244 709 197 761 Q159 804 159 860 Q159 924 209 970 Q253 1010 319 1010 Z " />
<glyph glyph-name="tonos" unicode="&#x384;" horiz-adv-x="1024" d="M421 1146 L524 1455 L790 1455 L593 1146 L421 1146 Z " />
<glyph glyph-name="dialytikatonos" unicode="&#x385;" horiz-adv-x="1007" d="M384 1136 L443 1464 L669 1464 L525 1136 L384 1136 Z M238 1392 Q287 1392 321 1359 Q354 1326 354 1281 Q354 1235 321 1202 Q287 1169 238 1169 Q188 1169 154 1202 Q121 1235 121 1282 Q121 1327 154 1359 Q189 1392 238 1392 Z M770 1392 Q819 1392 853 1359 Q886 1326 886 1281 Q886 1235 853 1202 Q819 1169 770 1169 Q720 1169 686 1202 Q653 1235 653 1282 Q653 1327 686 1359 Q721 1392 770 1392 Z " />
<glyph glyph-name="Alphatonos" unicode="&#x386;" horiz-adv-x="1487" d="M1005 412 L448 412 L392 255 Q372 200 372 165 Q372 127 409 113 Q427 107 485 95 L485 -4 Q321 4 239 4 Q158 4 -5 -4 L-5 95 Q92 112 120 136 Q152 163 194 278 L636 1413 L863 1413 L1298 279 Q1331 191 1349 165 Q1375 126 1428 111 Q1453 104 1501 95 L1501 -4 Q1324 4 1236 4 Q1146 4 968 -4 L968 95 Q1035 109 1052 117 Q1081 130 1081 163 Q1081 197 1063 248 L1005 412 Z M953 558 L728 1186 L500 558 L953 558 Z M66 863 L142 1417 L379 1417 L237 863 L66 863 Z " />
<glyph glyph-name="uni0387" unicode="&#x387;" horiz-adv-x="543" d="M275 797 Q344 797 390 745 Q429 701 429 646 Q429 582 379 536 Q334 496 272 496 Q200 496 154 548 Q115 591 115 648 Q115 711 165 757 Q209 797 275 797 Z " />
</font>
</svg>
