<?xml version="1.0" standalone="no"?>
<!DOCTYPE svg PUBLIC "-//W3C//DTD SVG 1.1//EN" "http://www.w3.org/Graphics/SVG/1.1/DTD/svg11.dtd" >
<svg xmlns="http://www.w3.org/2000/svg">
<metadata>
Created by FontForge 20120702 at Thu Oct 04 10:51:32 2012

2011 by (URW)++ Design &#38; Development
</metadata>
<defs>
<font id="E+HSans-Bold" horiz-adv-x="1180" vert-adv-y="2048" >
  <font-face 
    font-family="E+H Sans"
    font-weight="700"
    font-stretch="normal"
    units-per-em="2048"
    panose-1="2 11 7 4 5 2 2 2 2 4"
    ascent="1638"
    descent="-410"
    x-height="983"
    cap-height="1413"
    bbox="-324 -580 2734 2320"
    underline-thickness="95"
    underline-position="-325"
    unicode-range="U+0020-FB04"
  />
<missing-glyph horiz-adv-x="1709" vert-adv-y="2457" 
d="M982 405h-151v66q0 84 -15 122q-16 42 -56 84q-20 21 -78 80q-89 88 -135 159q-64 96 -64 207q0 88 42 162q87 153 361 153q152 0 313 -45l-29 -154q-148 70 -267 70q-231 0 -231 -190q0 -94 57 -180q30 -47 136 -159q81 -86 101 -141q16 -46 16 -138v-96zM904 234
q58 0 97 -45q33 -37 33 -85q0 -56 -42 -95q-38 -35 -90 -35q-61 0 -100 45q-32 37 -32 86q0 54 42 94q37 35 92 35zM123 -459v2196h1464v-2196h-1464zM246 -336h1218v1950h-1218v-1950z" />
    <glyph glyph-name="fi" unicode="fi" horiz-adv-x="1318" vert-adv-y="2457" 
d="M165 782h-180l18 201h162v134q0 180 72 267q91 112 290 112q115 0 239 -40l-46 -201q-83 52 -149 52q-72 0 -99 -62q-17 -41 -17 -127v-135h257l-18 -201h-239v-782h-290v782zM889 0v983h290v-983h-290zM1034 1457q72 0 121 -49q49 -48 49 -115t-49 -116
q-48 -49 -121 -49q-74 0 -122 49q-49 49 -49 117q0 67 49 114q50 49 122 49z" />
    <glyph glyph-name="fl" unicode="fl" horiz-adv-x="1291" vert-adv-y="2457" 
d="M166 782h-184l21 201h163v126q0 185 85 276q105 111 349 111q168 0 345 -35l208 43v-1504h-290v1266q-114 42 -211 42q-125 0 -168 -63q-29 -43 -29 -135v-127h257l-21 -201h-236v-782h-289v782z" />
    <glyph glyph-name="ff" unicode="ff" horiz-adv-x="1395" vert-adv-y="2457" 
d="M165 782h-180l18 201h162v134q0 180 72 267q91 112 290 112q115 0 239 -40l-46 -201q-83 52 -149 52q-72 0 -99 -62q-17 -41 -17 -127v-135h170l-18 -201h-152v-782h-290v782zM861 782h-159l18 201h141v134q0 180 72 267q91 112 290 112q115 0 239 -40l-46 -201
q-83 52 -149 52q-72 0 -99 -62q-17 -41 -17 -127v-135h257l-18 -201h-239v-782h-290v782z" />
    <glyph glyph-name="ffi" unicode="ffi" horiz-adv-x="2008" vert-adv-y="2457" 
d="M165 782h-180l18 201h162v134q0 180 72 267q91 112 290 112q115 0 239 -40l-46 -201q-83 52 -149 52q-72 0 -99 -62q-17 -41 -17 -127v-135h170l-18 -201h-152v-782h-290v782zM856 782h-159l18 201h141v134q0 180 72 267q91 112 290 112q115 0 239 -40l-46 -201
q-83 52 -148 52q-73 0 -100 -62q-17 -41 -17 -127v-135h257l-18 -201h-239v-782h-290v782zM1579 0v599q0 205 -12 384h302v-983h-290zM1725 1465q72 0 121 -49q49 -48 49 -116q0 -66 -49 -115t-121 -49q-73 0 -122 49t-49 117q0 67 49 114q50 49 122 49z" />
    <glyph glyph-name="ffl" unicode="ffl" horiz-adv-x="1982" vert-adv-y="2457" 
d="M165 782h-180l18 201h162v134q0 180 72 267q91 112 290 112q115 0 239 -40l-46 -201q-83 52 -149 52q-72 0 -99 -62q-17 -41 -17 -127v-135h170l-18 -201h-152v-782h-290v782zM856 782h-162l21 201h141v126q0 185 86 276q105 111 349 111q168 0 345 -35l207 43v-1504
h-290v1266q-112 42 -210 42q-126 0 -168 -63q-29 -43 -29 -135v-127h257l-21 -201h-236v-782h-290v782z" />
    <glyph glyph-name="f_t" unicode="ft" horiz-adv-x="1442" vert-adv-y="2457" 
d="M165 782h-180l18 201h162v134q0 180 72 267q91 112 290 112q115 0 239 -40l-46 -201q-83 52 -149 52q-72 0 -99 -62q-17 -41 -17 -127v-135h170l-18 -201h-152v-782h-290v782zM859 782h-157l18 201h147l17 268l265 57v-325h282l-18 -201h-264v-384q0 -135 19 -177
q24 -55 101 -55q85 0 170 44l22 -199q-127 -39 -282 -39q-133 0 -198 37q-86 48 -109 168q-13 69 -13 188v417z" />
    <glyph glyph-name="f_f_t" unicode="fft" horiz-adv-x="2128" vert-adv-y="2457" 
d="M165 782h-180l18 201h162v134q0 180 72 267q91 112 290 112q115 0 239 -40l-46 -201q-83 52 -149 52q-72 0 -99 -62q-17 -41 -17 -127v-135h170l-18 -201h-152v-782h-290v782zM856 782h-159l18 201h141v134q0 180 72 267q91 112 290 112q115 0 239 -40l-46 -201
q-83 52 -148 52q-73 0 -100 -62q-17 -41 -17 -127v-135h171l-18 -201h-153v-782h-290v782zM1546 782h-157l18 201h147l17 268l265 57v-325h282l-18 -201h-264v-384q0 -135 19 -177q24 -55 101 -55q85 0 170 44l22 -199q-127 -39 -283 -39q-132 0 -197 37q-86 49 -109 168
q-13 69 -13 188v417z" />
    <glyph glyph-name="f_f_f" unicode="fff" horiz-adv-x="2082" vert-adv-y="2457" 
d="M165 782h-180l18 201h162v134q0 180 72 267q91 112 290 112q115 0 239 -40l-46 -201q-83 52 -149 52q-72 0 -99 -62q-17 -41 -17 -127v-135h170l-18 -201h-152v-782h-290v782zM856 782h-159l18 201h141v134q0 180 72 267q91 112 290 112q115 0 239 -40l-46 -201
q-83 52 -148 52q-73 0 -100 -62q-17 -41 -17 -127v-135h171l-18 -201h-153v-782h-290v782zM1547 782h-158l17 201h141v134q0 180 72 267q91 112 290 112q115 0 239 -40l-46 -201q-83 52 -149 52q-72 0 -99 -62q-17 -41 -17 -127v-135h257l-18 -201h-239v-782h-290v782z" />
    <glyph glyph-name=".notdef" horiz-adv-x="1709" vert-adv-y="2457" 
d="M982 405h-151v66q0 84 -15 122q-16 42 -56 84q-20 21 -78 80q-89 88 -135 159q-64 96 -64 207q0 88 42 162q87 153 361 153q152 0 313 -45l-29 -154q-148 70 -267 70q-231 0 -231 -190q0 -94 57 -180q30 -47 136 -159q81 -86 101 -141q16 -46 16 -138v-96zM904 234
q58 0 97 -45q33 -37 33 -85q0 -56 -42 -95q-38 -35 -90 -35q-61 0 -100 45q-32 37 -32 86q0 54 42 94q37 35 92 35zM123 -459v2196h1464v-2196h-1464zM246 -336h1218v1950h-1218v-1950z" />
    <glyph glyph-name="glyph1" horiz-adv-x="0" vert-adv-y="0" 
 />
    <glyph glyph-name="glyph2" horiz-adv-x="492" vert-adv-y="2457" 
 />
    <glyph glyph-name="space" unicode=" " horiz-adv-x="492" vert-adv-y="2457" 
 />
    <glyph glyph-name="exclam" unicode="!" horiz-adv-x="746" vert-adv-y="2457" 
d="M245 448l-39 965h336l-40 -965h-257zM376 323q81 0 134 -61q45 -51 45 -115q0 -76 -58 -129q-51 -47 -124 -47q-84 0 -137 61q-45 51 -45 116q0 73 58 128q51 47 127 47z" />
    <glyph glyph-name="quotedbl" unicode="&#x22;" horiz-adv-x="963" vert-adv-y="2457" 
d="M142 825l-33 588h308l-33 -588h-242zM578 825l-32 588h308l-33 -588h-243z" />
    <glyph glyph-name="numbersign" unicode="#" vert-adv-y="2457" 
d="M236 585l32 225h-156l24 159h155l58 399h249l-57 -399h173l59 399h248l-57 -399h157l-24 -159h-156l-32 -226h157l-25 -158h-154l-56 -382h-249l54 382h-172l-56 -382h-249l55 382h-157l24 159h155zM486 585h174l31 225h-173z" />
    <glyph glyph-name="dollar" unicode="$" vert-adv-y="2457" 
d="M516 -205v182q-277 5 -457 83l40 232q198 -106 417 -113v428q-184 70 -270 125q-105 69 -148 149q-38 72 -38 162q0 150 94 250q114 122 362 140v180h145v-180q167 -11 326 -61l-51 -226q-161 74 -275 84v-404q203 -81 274 -128q101 -67 143 -148q39 -75 39 -172
q0 -148 -88 -248q-90 -103 -262 -134q-42 -8 -106 -14v-187h-145zM516 886v339q-57 -13 -91 -35q-61 -39 -61 -121q0 -83 65 -132q24 -17 87 -51zM661 551v-358q60 16 89 36q63 43 63 130t-59 138q-29 26 -93 54z" />
    <glyph glyph-name="percent" unicode="%" horiz-adv-x="1951" vert-adv-y="2457" 
d="M458 1442q191 0 292 -112q88 -97 88 -268t-88 -269q-101 -112 -298 -112q-198 0 -299 112q-88 98 -88 267q0 173 88 270q102 112 305 112zM454 1288q-121 0 -121 -228q0 -224 119 -224q118 0 118 226t-116 226zM529 0l640 1413h253l-640 -1413h-253zM1505 732
q191 0 292 -112q88 -98 88 -269q0 -169 -88 -269q-99 -112 -298 -112t-298 112q-88 100 -88 268q0 173 88 270q101 112 304 112zM1501 577q-120 0 -120 -228q0 -225 118 -225t118 227q0 226 -116 226z" />
    <glyph glyph-name="ampersand" unicode="&#x26;" horiz-adv-x="1410" vert-adv-y="2457" 
d="M389 790q-126 164 -126 315t105 242q108 95 307 95q197 0 302 -99q88 -84 88 -223q0 -180 -157 -295q-42 -31 -150 -86l257 -302q53 74 91 165q17 40 59 174h266q-85 -306 -267 -505l269 -271h-368l-91 106q-72 -50 -109 -71q-120 -65 -299 -65q-226 0 -355 102
q-131 104 -131 295q0 189 141 314q66 59 168 109zM635 882q60 35 93 67q71 66 71 177q0 71 -34 111q-35 42 -99 42q-68 0 -104 -46q-33 -41 -33 -113t46 -151q14 -25 60 -87zM519 638q-48 -35 -81 -74q-56 -65 -56 -171q0 -128 75 -190q63 -52 154 -52q105 0 235 103z" />
    <glyph glyph-name="quotesingle" unicode="'" horiz-adv-x="479" vert-adv-y="2457" 
d="M118 825l-32 588h308l-33 -588h-243z" />
    <glyph glyph-name="parenleft" unicode="(" horiz-adv-x="888" vert-adv-y="2457" 
d="M751 -335l-185 -99q-123 154 -207 355q-125 302 -125 669q0 390 144 711q78 175 188 312l185 -99q-221 -394 -221 -924q0 -528 221 -925z" />
    <glyph glyph-name="parenright" unicode=")" horiz-adv-x="888" vert-adv-y="2457" 
d="M137 1514l184 99q125 -154 208 -355q125 -302 125 -668q0 -391 -144 -712q-78 -175 -189 -312l-184 99q221 398 221 925t-221 924z" />
    <glyph glyph-name="asterisk" unicode="*" horiz-adv-x="1149" vert-adv-y="2457" 
d="M452 1287l-19 309h283l-19 -309l296 106l64 -221l-318 -67l213 -256l-212 -151l-166 272l-165 -272l-212 151l213 256l-318 67l64 221z" />
    <glyph glyph-name="plus" unicode="+" vert-adv-y="2457" 
d="M86 602l23 220h347v376h275v-376h363l-23 -220h-340v-374h-275v374h-370z" />
    <glyph glyph-name="comma" unicode="," horiz-adv-x="568" vert-adv-y="2457" 
d="M69 -305l106 609h310l-187 -609h-229z" />
    <glyph glyph-name="hyphen" unicode="-" horiz-adv-x="838" vert-adv-y="2457" 
d="M108 529v224h622v-224h-622z" />
    <glyph glyph-name="period" unicode="." horiz-adv-x="566" vert-adv-y="2457" 
d="M286 323q81 0 134 -61q45 -51 45 -115q0 -76 -58 -129q-51 -47 -124 -47q-84 0 -137 61q-45 51 -45 116q0 73 58 128q51 47 127 47z" />
    <glyph glyph-name="slash" unicode="/" horiz-adv-x="987" vert-adv-y="2457" 
d="M29 0l631 1413h298l-632 -1413h-297z" />
    <glyph glyph-name="zero" unicode="0" vert-adv-y="2457" 
d="M597 1441q168 0 287 -81q218 -148 218 -655q0 -374 -114 -548q-124 -187 -397 -187q-297 0 -418 221q-94 172 -94 516q0 374 114 546q124 188 404 188zM593 1240q-119 0 -167 -149q-38 -119 -38 -383q0 -292 46 -411q50 -126 157 -126q115 0 164 149q38 117 38 386
q0 291 -46 408q-50 126 -154 126z" />
    <glyph glyph-name="one" unicode="1" vert-adv-y="2457" 
d="M479 207v978l-267 -42v204l357 75h209v-1215h251v-207h-817v207h267z" />
    <glyph glyph-name="two" unicode="2" vert-adv-y="2457" 
d="M87 0v184l420 481q90 103 152 206q54 90 54 186q0 182 -192 182q-130 0 -329 -96l-41 221q191 77 400 77q252 0 371 -121q97 -98 97 -260q0 -159 -96 -301q-74 -109 -187 -236l-288 -324h603v-199h-964z" />
    <glyph glyph-name="three" unicode="3" vert-adv-y="2457" 
d="M284 640v206q75 -7 114 -7q269 0 269 215q0 97 -49 140q-50 45 -157 45q-128 0 -297 -75l-52 206q195 71 397 71q237 0 358 -102q104 -88 104 -252q0 -144 -93 -231q-42 -38 -129 -79q116 -38 169 -81q114 -96 114 -256q0 -285 -334 -395q-166 -55 -565 -75l-18 201
q240 8 367 39q112 27 174 86q66 64 66 152q0 64 -36 116q-58 85 -255 85q-56 0 -147 -9z" />
    <glyph glyph-name="four" unicode="4" vert-adv-y="2457" 
d="M683 319h-657v195l422 899h280l-423 -899h378v468h273v-468h202v-195h-202v-319h-273v319z" />
    <glyph glyph-name="five" unicode="5" vert-adv-y="2457" 
d="M145 -30l-17 201q253 14 374 48q247 71 247 276q0 219 -240 219q-87 0 -202 -36l-156 24l30 711h773v-209h-512l-14 -302l33 2q89 5 133 5q222 0 337 -99q127 -109 127 -315q0 -328 -364 -447q-173 -57 -549 -78z" />
    <glyph glyph-name="six" unicode="6" vert-adv-y="2457" 
d="M894 1441v-201q-222 -22 -345 -119q-125 -100 -163 -312q46 50 74 69q96 65 223 65q211 0 326 -139q99 -120 99 -323q0 -228 -116 -362q-129 -149 -388 -149q-299 0 -428 205q-89 141 -89 433q0 327 144 531q137 193 424 265q88 21 239 37zM606 745q-100 0 -153 -77
q-56 -81 -56 -213q0 -117 43 -194q49 -90 158 -90t158 91q42 80 42 200q0 122 -45 198q-49 85 -147 85z" />
    <glyph glyph-name="seven" unicode="7" vert-adv-y="2457" 
d="M760 1205h-620v208h938v-138l-530 -1275h-327z" />
    <glyph glyph-name="eight" unicode="8" vert-adv-y="2457" 
d="M336 730q-86 43 -129 78q-111 92 -111 242q0 181 129 284q133 107 364 107q230 0 365 -107q128 -102 128 -284q0 -158 -126 -253q-38 -29 -114 -67q115 -40 172 -86q125 -104 125 -279q0 -189 -147 -293q-144 -102 -403 -102t-403 102q-147 104 -147 294q0 186 142 290
q52 38 155 74zM591 1242q-97 0 -149 -52q-53 -53 -53 -150q0 -96 52 -150q51 -52 146 -52q97 0 147 52q53 54 53 150q0 98 -52 150q-53 52 -144 52zM592 636q-251 0 -251 -233q0 -117 67 -175q68 -59 181 -59t181 59q67 58 67 176q0 119 -67 175q-68 57 -178 57z" />
    <glyph glyph-name="nine" unicode="9" vert-adv-y="2457" 
d="M210 -29l-17 200q185 17 270 44q192 59 275 228q35 71 54 180q-119 -115 -293 -115q-213 0 -328 137q-95 112 -95 305q0 214 110 342q128 149 388 149q302 0 429 -208q88 -143 88 -430q0 -497 -320 -691q-145 -88 -396 -123q-66 -9 -165 -18zM582 1240q-112 0 -160 -85
q-43 -74 -43 -185q0 -108 41 -180q47 -84 151 -84q101 0 154 72q56 75 56 198q0 110 -43 181q-50 83 -156 83z" />
    <glyph glyph-name="colon" unicode=":" horiz-adv-x="566" vert-adv-y="2457" 
d="M286 323q81 0 134 -61q45 -51 45 -115q0 -76 -58 -129q-51 -47 -124 -47q-84 0 -137 61q-45 51 -45 116q0 73 58 128q51 47 127 47zM286 1012q81 0 134 -61q45 -51 45 -115q0 -75 -58 -129q-51 -47 -124 -47q-84 0 -137 61q-45 51 -45 116q0 74 58 128q51 47 127 47z" />
    <glyph glyph-name="semicolon" unicode=";" horiz-adv-x="569" vert-adv-y="2457" 
d="M69 -305l106 609h310l-187 -609h-229zM329 1012q81 0 134 -61q45 -51 45 -115q0 -75 -58 -129q-51 -47 -124 -47q-84 0 -137 61q-45 50 -45 116q0 74 58 128q51 47 127 47z" />
    <glyph glyph-name="less" unicode="&#x3c;" vert-adv-y="2457" 
d="M474 700l589 -254v-277l-956 479v105l956 489v-277z" />
    <glyph glyph-name="equal" unicode="=" vert-adv-y="2457" 
d="M87 383l23 220h983l-23 -220h-983zM87 820l23 221h983l-23 -221h-983z" />
    <glyph glyph-name="greater" unicode="&#x3e;" vert-adv-y="2457" 
d="M705 711l-589 255v276l956 -479v-105l-956 -489v277z" />
    <glyph glyph-name="question" unicode="?" horiz-adv-x="947" vert-adv-y="2457" 
d="M553 446h-274v59q0 98 13 140q19 57 122 162q93 95 128 148q47 71 47 144q0 145 -177 145q-129 0 -304 -82l-28 225q174 54 379 54q229 0 341 -99q96 -85 96 -232q0 -123 -71 -225q-38 -55 -138 -156q-97 -100 -116 -138q-18 -35 -18 -111v-34zM423 323q81 0 134 -61
q45 -51 45 -115q0 -76 -58 -129q-51 -47 -124 -47q-84 0 -137 61q-45 50 -45 116q0 74 58 128q51 47 127 47z" />
    <glyph glyph-name="at" unicode="@" horiz-adv-x="1752" vert-adv-y="2457" 
d="M1118 945h169l-88 -414q-15 -71 -15 -116q0 -81 61 -81q76 0 141 79q93 111 93 294q0 233 -132 372q-70 73 -174 113q-128 49 -269 49q-273 0 -443 -180q-181 -193 -181 -533q0 -316 155 -462q168 -158 522 -158q274 0 560 72l-8 -114q-271 -65 -561 -65q-846 0 -846 721
q0 376 221 602q218 223 579 223q242 0 433 -101q181 -96 261 -276q53 -119 53 -262q0 -196 -93 -333q-126 -183 -340 -183q-111 0 -164 57q-26 30 -42 77q-36 -39 -67 -63q-89 -71 -196 -71q-106 0 -175 58q-79 67 -79 200q0 124 53 241q66 148 174 217q89 57 192 57
q125 0 184 -90zM932 822q-84 0 -149 -139q-52 -111 -52 -229q0 -111 64 -111q82 0 153 123q70 121 70 238q0 51 -19 81q-24 37 -67 37z" />
    <glyph glyph-name="A" unicode="A" horiz-adv-x="1340" vert-adv-y="2457" 
d="M943 335h-567l-128 -335h-304l569 1413h316l567 -1413h-325zM870 534l-130 356q-35 98 -81 247q-37 -128 -78 -238l-132 -365h421z" />
    <glyph glyph-name="B" unicode="B" horiz-adv-x="1295" vert-adv-y="2457" 
d="M147 0v1413h503q284 0 402 -77q133 -87 133 -271q0 -146 -91 -234q-50 -49 -151 -82q128 -38 186 -93q93 -88 93 -253q0 -234 -185 -334q-128 -69 -397 -69h-493zM454 838h143q150 0 201 29q77 44 77 168q0 106 -58 146q-47 33 -179 33h-184v-376zM454 199h162
q153 0 216 43q73 50 73 171q0 151 -97 199q-60 30 -246 30h-108v-443z" />
    <glyph glyph-name="C" unicode="C" horiz-adv-x="1133" vert-adv-y="2457" 
d="M1071 251l29 -231q-168 -48 -376 -48q-350 0 -511 212q-139 184 -139 504q0 381 188 582q159 171 457 171q194 0 352 -66l-52 -226q-60 36 -88 49q-89 41 -192 41q-181 0 -266 -154q-82 -150 -82 -389q0 -235 76 -373q82 -149 291 -149q155 0 313 77z" />
    <glyph glyph-name="D" unicode="D" horiz-adv-x="1355" vert-adv-y="2457" 
d="M147 0v1413h439q194 0 323 -43q190 -62 282 -244q89 -174 89 -420q0 -378 -193 -556q-107 -98 -275 -132q-92 -18 -231 -18h-434zM454 207h89q131 0 202 28q218 86 218 476q0 298 -134 420q-63 57 -169 71q-35 4 -128 4h-78v-999z" />
    <glyph glyph-name="E" unicode="E" horiz-adv-x="1165" vert-adv-y="2457" 
d="M147 0v1413h955v-207h-648v-370h492v-195h-492v-434h664v-207h-971z" />
    <glyph glyph-name="F" unicode="F" horiz-adv-x="1103" vert-adv-y="2457" 
d="M147 0v1413h921v-207h-614v-383h469v-199h-469v-624h-307z" />
    <glyph glyph-name="G" unicode="G" horiz-adv-x="1358" vert-adv-y="2457" 
d="M702 594v186h547v-703q-230 -105 -498 -105q-364 0 -533 218q-144 185 -144 494q0 385 206 584q180 173 493 173q204 0 403 -72l-56 -224q-181 94 -332 94q-214 0 -307 -152q-90 -147 -90 -399q0 -227 73 -359q86 -155 299 -155q89 0 180 33v387h-241z" />
    <glyph glyph-name="H" unicode="H" horiz-adv-x="1427" vert-adv-y="2457" 
d="M147 0v1413h307v-572h519v572h307v-1413h-307v634h-519v-634h-307z" />
    <glyph glyph-name="I" unicode="I" horiz-adv-x="632" vert-adv-y="2457" 
d="M162 0v1413h307v-1413h-307z" />
    <glyph glyph-name="J" unicode="J" horiz-adv-x="657" vert-adv-y="2457" 
d="M188 1413h307v-1140q0 -205 -18 -328q-60 -415 -492 -415q-100 0 -205 18l22 211q93 -27 171 -27q143 0 185 135q30 98 30 355v1191z" />
    <glyph glyph-name="K" unicode="K" horiz-adv-x="1280" vert-adv-y="2457" 
d="M147 0v1413h307v-596l506 596h328l-548 -628l592 -785h-357l-521 716v-716h-307z" />
    <glyph glyph-name="L" unicode="L" horiz-adv-x="1063" vert-adv-y="2457" 
d="M147 0v1413h307v-1206h600v-207h-907z" />
    <glyph glyph-name="M" unicode="M" horiz-adv-x="1828" vert-adv-y="2457" 
d="M102 0l146 1413h377l204 -700q57 -194 91 -358q44 219 92 378l203 680h362l148 -1413h-292l-68 681q-20 196 -30 451q-78 -331 -107 -429l-213 -703h-215l-194 639q-52 173 -123 492q-10 -167 -22 -309l-11 -141l-67 -681h-281z" />
    <glyph glyph-name="N" unicode="N" horiz-adv-x="1424" vert-adv-y="2457" 
d="M147 0v1413h302l354 -635q69 -124 161 -294l43 -81q-8 141 -8 421v589h278v-1413h-296l-355 640q-33 61 -209 386q8 -189 8 -365v-661h-278z" />
    <glyph glyph-name="O" unicode="O" horiz-adv-x="1428" vert-adv-y="2457" 
d="M724 1441q328 0 491 -223q138 -189 138 -511q0 -321 -138 -512q-162 -223 -501 -223q-340 0 -502 223q-138 190 -138 509q0 324 138 514q163 223 512 223zM719 1239q-168 0 -247 -142q-81 -145 -81 -394q0 -242 81 -387q79 -142 242 -142q162 0 241 142q81 146 81 390
q0 249 -81 391t-236 142z" />
    <glyph glyph-name="P" unicode="P" horiz-adv-x="1199" vert-adv-y="2457" 
d="M147 0v1413h424q171 0 272 -24q170 -40 255 -173q62 -97 62 -237q0 -242 -160 -361q-126 -93 -376 -93h-170v-525h-307zM454 724h139q141 0 197 55q61 61 61 188q0 140 -70 200q-55 47 -181 47h-146v-490z" />
    <glyph glyph-name="Q" unicode="Q" horiz-adv-x="1431" vert-adv-y="2457" 
d="M1075 66q-150 -94 -375 -94q-325 0 -488 223q-138 190 -138 512q0 321 138 511q163 223 502 223t501 -223q138 -190 138 -509q0 -294 -116 -483q106 -32 213 -86l-21 -236q-252 121 -354 162zM719 1239q-168 0 -247 -142q-81 -145 -81 -394q0 -242 81 -387
q79 -142 242 -142q162 0 241 142q81 146 81 390q0 249 -81 391t-236 142z" />
    <glyph glyph-name="R" unicode="R" horiz-adv-x="1271" vert-adv-y="2457" 
d="M147 0v1413h446q290 0 418 -81q165 -104 165 -328q0 -192 -116 -297q-51 -46 -167 -91q63 -50 95 -92q34 -44 86 -143l202 -381h-332l-183 378q-64 132 -86 159q-30 37 -94 37h-127v-574h-307zM454 745h169q131 0 188 58q56 59 56 178q0 128 -64 184q-55 49 -180 49h-169
v-469z" />
    <glyph glyph-name="S" unicode="S" horiz-adv-x="1087" vert-adv-y="2457" 
d="M50 52l40 234q208 -112 404 -112q235 0 235 180q0 70 -30 114q-26 38 -74 64q-51 29 -126 60q-158 67 -233 118q-114 77 -157 172q-33 70 -33 157q0 197 134 305q120 97 342 97q186 0 380 -64l-55 -226q-66 33 -115 51q-97 37 -189 37q-193 0 -193 -170q0 -82 52 -129
q39 -34 89 -59q50 -24 122 -57q144 -65 207 -107q108 -74 150 -170q33 -75 33 -169q0 -199 -131 -303q-79 -63 -181 -83q-98 -20 -210 -20q-279 0 -461 80z" />
    <glyph glyph-name="T" unicode="T" horiz-adv-x="1186" vert-adv-y="2457" 
d="M439 0v1206h-400v207h1107v-207h-400v-1206h-307z" />
    <glyph glyph-name="U" unicode="U" horiz-adv-x="1335" vert-adv-y="2457" 
d="M137 1413h307v-915q0 -163 32 -222q54 -102 206 -102q165 0 214 119q24 57 24 205v915h278v-928q0 -119 -10 -182q-29 -178 -172 -258q-129 -73 -347 -73q-377 0 -484 208q-36 71 -45 181q-3 39 -3 124v928z" />
    <glyph glyph-name="V" unicode="V" horiz-adv-x="1196" vert-adv-y="2457" 
d="M453 0l-503 1413h319l237 -680q41 -118 105 -368q69 251 110 370l234 678h292l-498 -1413h-296z" />
    <glyph glyph-name="W" unicode="W" horiz-adv-x="1819" vert-adv-y="2457" 
d="M379 0l-381 1413h297l143 -549q12 -44 56 -262l30 -150l20 -105q18 79 64 295q64 266 74 302l129 469h219l130 -469q55 -201 144 -615q62 410 113 608l122 476h283l-385 -1413h-275l-157 595q-52 197 -91 428q-58 -302 -105 -477l-145 -546h-285z" />
    <glyph glyph-name="X" unicode="X" horiz-adv-x="1236" vert-adv-y="2457" 
d="M432 753l-243 393q-35 56 -175 267h354l170 -277q53 -86 99 -174q51 101 94 170l174 281h326q-133 -190 -164 -238l-283 -439l270 -440q31 -51 191 -296h-354l-204 332q-18 30 -58 101l-24 44l-24 41l-18 -31q-46 -80 -81 -135l-224 -352h-332q173 247 182 261z" />
    <glyph glyph-name="Y" unicode="Y" horiz-adv-x="1126" vert-adv-y="2457" 
d="M409 0v536l-471 877h340l200 -379q33 -64 102 -224q72 171 111 244l190 359h308l-473 -877v-536h-307z" />
    <glyph glyph-name="Z" unicode="Z" horiz-adv-x="1105" vert-adv-y="2457" 
d="M8 0v172l710 1034h-632v207h974l11 -164l-716 -1042h745v-207h-1092z" />
    <glyph glyph-name="bracketleft" unicode="[" horiz-adv-x="885" vert-adv-y="2457" 
d="M742 1543v-171h-190v-1565h190v-171h-483v1907h483z" />
    <glyph glyph-name="backslash" unicode="\" horiz-adv-x="987" vert-adv-y="2457" 
d="M661 0l-632 1413h297l632 -1413h-297z" />
    <glyph glyph-name="bracketright" unicode="]" horiz-adv-x="885" vert-adv-y="2457" 
d="M144 -364v171h189v1565h-189v171h483v-1907h-483z" />
    <glyph glyph-name="asciicircum" unicode="^" vert-adv-y="2457" 
d="M589 1058l-244 -396h-334l494 775h168l494 -775h-334z" />
    <glyph glyph-name="underscore" unicode="_" vert-adv-y="2457" 
d="M-39 -418v148h1259v-148h-1259z" />
    <glyph glyph-name="grave" unicode="`" horiz-adv-x="1024" vert-adv-y="2457" 
d="M469 1148l-292 296h331l180 -296h-219z" />
    <glyph glyph-name="a" unicode="a" horiz-adv-x="1110" vert-adv-y="2457" 
d="M687 625v17q0 71 -21 108q-38 68 -167 68q-116 0 -262 -72l-49 202q163 63 354 63q299 0 394 -152q36 -56 43 -157q2 -34 2 -127v-275q0 -176 20 -300h-269q-8 59 -14 121q-41 -52 -81 -81q-95 -68 -247 -68q-173 0 -259 88q-71 74 -71 204q0 256 265 328q107 29 362 33z
M691 474q-125 -2 -200 -18q-140 -29 -140 -168q0 -134 128 -134q107 0 170 81q31 40 38 88q4 23 4 68v83z" />
    <glyph glyph-name="b" unicode="b" horiz-adv-x="1160" vert-adv-y="2457" 
d="M425 920q107 91 261 91q200 0 306 -141q100 -133 100 -359q0 -241 -97 -373q-122 -166 -406 -166q-234 0 -470 99q16 133 16 395v647q0 153 -11 329l301 62v-584zM425 210q69 -44 150 -44q218 0 218 339q0 139 -47 227q-45 85 -132 85q-101 0 -156 -107q-33 -65 -33 -189
v-311z" />
    <glyph glyph-name="c" unicode="c" horiz-adv-x="872" vert-adv-y="2457" 
d="M818 220l24 -211q-111 -37 -266 -37q-174 0 -276 53q-232 120 -232 459q0 271 151 413q120 114 333 114q170 0 281 -58l-53 -208q-81 72 -189 72q-115 0 -169 -90q-55 -91 -55 -240q0 -321 251 -321q101 0 200 54z" />
    <glyph glyph-name="d" unicode="d" horiz-adv-x="1160" vert-adv-y="2457" 
d="M735 981v132q0 155 -11 329l301 62v-1210q0 -175 20 -294h-262q-10 53 -16 111q-113 -139 -302 -139q-192 0 -298 134q-99 125 -99 347q0 244 113 393q126 165 367 165q93 0 187 -30zM735 769q-69 48 -142 48q-126 0 -180 -110q-46 -95 -46 -238q0 -303 178 -303
q102 0 157 108q33 64 33 188v307z" />
    <glyph glyph-name="e" unicode="e" horiz-adv-x="1089" vert-adv-y="2457" 
d="M1020 423h-660q8 -107 33 -153q61 -110 267 -110q137 0 290 59l23 -210q-161 -37 -357 -37q-201 0 -309 49q-239 107 -239 443q0 232 109 375q129 172 396 172q451 0 451 -477q0 -31 -4 -111zM768 596q-8 98 -28 141q-43 90 -165 90q-189 0 -213 -231h406z" />
    <glyph glyph-name="f" unicode="f" horiz-adv-x="700" vert-adv-y="2457" 
d="M165 782h-180l18 201h162v134q0 180 72 267q91 112 290 112q115 0 239 -40l-46 -201q-83 52 -149 52q-72 0 -99 -62q-17 -41 -17 -127v-135h257l-18 -201h-239v-782h-290v782z" />
    <glyph glyph-name="g" unicode="g" horiz-adv-x="1142" vert-adv-y="2457" 
d="M722 68q-106 -96 -257 -96q-200 0 -301 135q-96 130 -96 350q0 280 150 428q128 126 379 126q199 0 434 -63q-19 -167 -19 -388v-405q0 -154 -15 -260q-54 -381 -517 -381q-197 0 -339 48l24 206q157 -69 312 -69q152 0 206 94q39 67 39 201v74zM722 779q-65 38 -136 38
q-219 0 -219 -344q0 -307 171 -307q99 0 152 108q32 65 32 188v317z" />
    <glyph glyph-name="h" unicode="h" horiz-adv-x="1188" vert-adv-y="2457" 
d="M134 0v1113q0 149 -11 329l301 62v-629q141 136 315 136q196 0 273 -128q46 -77 46 -252v-631h-290v569q0 117 -16 160q-27 68 -103 68q-104 0 -186 -119q-30 -43 -36 -84q-3 -21 -3 -64v-530h-290z" />
    <glyph glyph-name="i" unicode="i" horiz-adv-x="569" vert-adv-y="2457" 
d="M141 0v983h290v-983h-290zM286 1457q72 0 121 -49q49 -48 49 -115t-49 -116q-48 -49 -121 -49q-74 0 -122 49q-49 49 -49 117q0 67 49 114q50 49 122 49z" />
    <glyph glyph-name="j" unicode="j" horiz-adv-x="574" vert-adv-y="2457" 
d="M144 983h290v-770q0 -198 -17 -314q-57 -385 -456 -385q-77 0 -170 13l22 193q76 -21 141 -21q124 0 161 116q29 90 29 324v844zM288 1457q73 0 122 -49q49 -48 49 -115t-49 -116t-121 -49q-74 0 -122 49q-49 49 -49 117q0 67 49 114q50 49 121 49z" />
    <glyph glyph-name="k" unicode="k" horiz-adv-x="1048" vert-adv-y="2457" 
d="M134 0v1113q0 149 -11 329l301 62v-892l372 371h294l-400 -380l440 -603h-323l-383 545v-545h-290z" />
    <glyph glyph-name="l" unicode="l" horiz-adv-x="568" vert-adv-y="2457" 
d="M139 0v1113q0 149 -11 329l301 62v-1504h-290z" />
    <glyph glyph-name="m" unicode="m" horiz-adv-x="1765" vert-adv-y="2457" 
d="M134 0v596q0 177 -11 387h259l16 -136q140 164 324 164q139 0 219 -72q44 -40 61 -95q136 167 329 167q185 0 260 -128q44 -77 44 -252v-631h-290v569q0 117 -15 159q-23 69 -91 69q-96 0 -173 -119q-36 -56 -36 -144v-534h-290v569q0 117 -15 159q-23 69 -91 69
q-96 0 -174 -119q-27 -42 -33 -84q-3 -24 -3 -63v-531h-290z" />
    <glyph glyph-name="n" unicode="n" horiz-adv-x="1186" vert-adv-y="2457" 
d="M134 0v596q0 177 -11 387h259l16 -136q145 164 340 164t272 -128q46 -77 46 -252v-631h-290v569q0 118 -16 160q-27 68 -103 68q-103 0 -184 -119q-29 -42 -35 -84q-4 -25 -4 -63v-531h-290z" />
    <glyph glyph-name="o" unicode="o" horiz-adv-x="1143" vert-adv-y="2457" 
d="M579 1011q234 0 370 -145q126 -136 126 -374q0 -236 -126 -374q-133 -146 -377 -146q-245 0 -378 146q-126 138 -126 371q0 242 126 377q136 145 385 145zM575 817q-106 0 -159 -95q-49 -87 -49 -232q0 -141 48 -229q53 -95 157 -95q103 0 155 95q49 89 49 231
q0 144 -49 230q-53 95 -152 95z" />
    <glyph glyph-name="p" unicode="p" horiz-adv-x="1160" vert-adv-y="2457" 
d="M425 5v-464h-290v1055q0 200 -12 387h257l16 -101q113 129 292 129q208 0 312 -151q92 -132 92 -353q0 -237 -96 -368q-62 -85 -172 -128q-98 -39 -209 -39q-96 0 -190 33zM425 217q74 -51 153 -51q122 0 171 106q44 93 44 230q0 134 -44 224q-43 91 -138 91
q-99 0 -153 -108q-33 -64 -33 -183v-309z" />
    <glyph glyph-name="q" unicode="q" horiz-adv-x="1155" vert-adv-y="2457" 
d="M734 67q-103 -95 -260 -95q-201 0 -307 135q-99 126 -99 344q0 275 141 423q130 137 388 137q195 0 446 -63q-19 -169 -19 -392v-1015h-290v526zM734 779q-66 38 -139 38q-125 0 -179 -106q-49 -95 -49 -245q0 -300 178 -300q102 0 157 108q32 63 32 188v317z" />
    <glyph glyph-name="r" unicode="r" horiz-adv-x="774" vert-adv-y="2457" 
d="M135 0v600q0 213 -12 383h276q7 -64 12 -129q52 72 84 99q70 58 163 58q53 0 113 -13l-32 -243q-73 29 -122 29q-95 0 -153 -118q-39 -80 -39 -201v-465h-290z" />
    <glyph glyph-name="s" unicode="s" horiz-adv-x="877" vert-adv-y="2457" 
d="M50 27l35 206q71 -30 113 -43q91 -27 191 -27q159 0 159 93q0 40 -39 70q-35 28 -161 85q-151 67 -212 129q-68 69 -68 181q0 153 110 225q98 65 267 65q154 0 306 -57l-53 -208q-31 24 -71 40q-83 35 -159 35q-124 0 -124 -79q0 -43 45 -74q34 -23 158 -83
q156 -74 210 -129q67 -68 67 -182q0 -302 -403 -302q-198 0 -371 55z" />
    <glyph glyph-name="t" unicode="t" horiz-adv-x="746" vert-adv-y="2457" 
d="M164 782h-179l18 201h169l17 268l265 57v-325h282l-18 -201h-264v-384q0 -135 19 -177q24 -55 100 -55q82 0 165 42l26 -197q-127 -39 -281 -39q-132 0 -197 37q-86 49 -109 168q-13 70 -13 188v417z" />
    <glyph glyph-name="u" unicode="u" horiz-adv-x="1158" vert-adv-y="2457" 
d="M127 983h290v-559q0 -121 18 -168q27 -71 102 -71q119 0 196 127v671h290v-691q0 -165 20 -292h-275q-11 53 -19 110q-126 -138 -306 -138q-195 0 -271 137q-45 83 -45 266v608z" />
    <glyph glyph-name="v" unicode="v" horiz-adv-x="1032" vert-adv-y="2457" 
d="M360 0l-371 983h312l137 -381q41 -115 97 -307q50 180 101 324l131 364h276l-385 -983h-298z" />
    <glyph glyph-name="w" unicode="w" horiz-adv-x="1574" vert-adv-y="2457" 
d="M336 0l-335 983h306l118 -377q12 -38 46 -168l17 -67l16 -60l14 60l14 57q33 139 43 173l110 382h243l106 -388q5 -18 39 -163l15 -64l13 -57q11 43 31 125q23 96 45 168l118 379h279l-346 -983h-279l-111 423q-22 82 -52 224l-13 -57q-30 -129 -43 -175l-115 -415h-279z
" />
    <glyph glyph-name="x" unicode="x" horiz-adv-x="1062" vert-adv-y="2457" 
d="M366 514l-357 469h332l105 -138q50 -67 103 -147q51 79 110 157l97 128h304l-365 -469l389 -514h-332l-125 169q-67 90 -116 164q-50 -82 -109 -161l-130 -172h-306z" />
    <glyph glyph-name="y" unicode="y" horiz-adv-x="1033" vert-adv-y="2457" 
d="M393 0l-402 983h315l147 -411q38 -105 87 -253l24 -71l40 152q28 107 44 165l118 418h276l-277 -859q-107 -331 -173 -430q-72 -106 -180 -148q-83 -32 -197 -32q-84 0 -168 13l21 195q59 -23 124 -23q174 0 262 236l24 65h-85z" />
    <glyph glyph-name="z" unicode="z" horiz-adv-x="934" vert-adv-y="2457" 
d="M20 0l-14 155l503 633h-444v195h797l16 -158l-501 -630h528v-195h-885z" />
    <glyph glyph-name="braceleft" unicode="{" horiz-adv-x="894" vert-adv-y="2457" 
d="M408 646q96 -44 123 -80q28 -38 34 -98q2 -20 2 -140v-264q0 -108 10 -171q12 -78 67 -102q43 -18 130 -18h41v-137h-183q-134 0 -212 27q-107 38 -133 158q-14 64 -14 235v315q0 121 -8 156q-18 74 -126 74h-24v93h24q80 0 109 37q18 24 23 78q2 16 2 115v199
q0 171 14 235q26 120 133 158q79 27 212 27h183v-137h-41q-88 0 -130 -19q-56 -23 -67 -101q-10 -63 -10 -172v-147q0 -144 -9 -177q-18 -68 -82 -106q-3 -2 -68 -38z" />
    <glyph glyph-name="bar" unicode="|" vert-adv-y="2457" 
d="M446 -418v1831h284v-1831h-284z" />
    <glyph glyph-name="braceright" unicode="}" horiz-adv-x="894" vert-adv-y="2457" 
d="M486 646q-24 13 -36 19q-80 44 -101 89q-20 41 -21 92q-1 32 -1 121v147q0 109 -10 172q-11 78 -67 101q-42 19 -130 19h-41v137h183q133 0 212 -27q107 -38 133 -158q14 -65 14 -235v-199q0 -121 8 -156q18 -74 126 -74h24v-93h-24q-81 0 -109 -37q-18 -24 -23 -78
q-2 -16 -2 -115v-315q0 -170 -14 -235q-26 -120 -133 -158q-78 -27 -212 -27h-183v137h41q88 0 130 18q55 24 67 102q10 63 10 171v264q0 143 9 177q18 69 79 105q20 12 71 36z" />
    <glyph glyph-name="asciitilde" unicode="~" vert-adv-y="2457" 
d="M297 537l-200 44q72 308 328 308q84 0 148 -35q29 -16 105 -66q56 -37 91 -37q73 0 116 138l201 -44q-72 -308 -329 -308q-84 0 -155 39q-30 17 -100 63q-53 36 -89 36q-72 0 -116 -138z" />
    <glyph glyph-name="Adieresis" unicode="&#xc4;" horiz-adv-x="1340" vert-adv-y="2457" 
d="M943 335h-567l-128 -335h-304l569 1413h316l567 -1413h-325zM870 534l-130 356q-35 98 -81 247q-37 -128 -78 -238l-132 -365h421zM448 1874q68 0 115 -46q46 -46 46 -109q0 -64 -46 -110t-114 -46q-70 0 -116 46t-46 111q0 63 46 108q48 46 115 46zM892 1874
q68 0 115 -46q46 -46 46 -109q0 -64 -46 -110t-115 -46t-115 46t-46 111q0 63 46 108q48 46 115 46z" />
    <glyph glyph-name="Aring" unicode="&#xc5;" horiz-adv-x="1340" vert-adv-y="2457" 
d="M943 335h-567l-128 -335h-304l569 1413h316l567 -1413h-325zM870 534l-130 356q-35 98 -81 247q-37 -128 -78 -238l-132 -365h421zM674 2003q118 0 191 -63q75 -64 75 -162t-76 -165q-75 -66 -194 -66q-118 0 -193 66q-76 67 -76 164q0 101 75 163q75 63 198 63z
M672 1915q-101 0 -101 -141q0 -139 99 -139q100 0 100 140t-98 140z" />
    <glyph glyph-name="Ccedilla" unicode="&#xc7;" horiz-adv-x="1133" vert-adv-y="2457" 
d="M1071 251l29 -231q-168 -48 -382 -48q-22 0 -36 1l-83 -121q103 -10 156 -37q91 -46 91 -165q0 -103 -76 -164q-73 -57 -206 -57q-112 0 -220 39l34 117q80 -37 138 -37q96 0 96 107q0 119 -118 119q-18 0 -45 -3l-16 43l118 173q-477 93 -477 701q0 381 188 582
q159 171 457 171q192 0 352 -66l-52 -226q-56 35 -88 49q-90 41 -192 41q-181 0 -266 -154q-82 -150 -82 -389q0 -235 76 -373q82 -149 291 -149q155 0 313 77z" />
    <glyph glyph-name="Eacute" unicode="&#xc9;" horiz-adv-x="1165" vert-adv-y="2457" 
d="M147 0v1413h955v-207h-648v-370h492v-195h-492v-434h664v-207h-971zM487 1566l180 297h331l-291 -297h-220z" />
    <glyph glyph-name="Ntilde" unicode="&#xd1;" horiz-adv-x="1424" vert-adv-y="2457" 
d="M147 0v1413h302l354 -635q69 -124 161 -294l43 -81q-8 141 -8 421v589h278v-1413h-296l-355 640q-33 61 -209 386q8 -189 8 -365v-661h-278zM508 1568h-190q23 141 68 213q69 112 196 112q65 0 121 -29q28 -15 88 -73q56 -54 83 -54q53 0 68 143h193q-13 -136 -53 -209
q-63 -117 -207 -117q-87 0 -149 48q-17 12 -67 62q-47 46 -71 46q-37 0 -60 -59q-6 -18 -20 -83z" />
    <glyph glyph-name="Odieresis" unicode="&#xd6;" horiz-adv-x="1428" vert-adv-y="2457" 
d="M724 1441q328 0 491 -223q138 -189 138 -511q0 -321 -138 -512q-162 -223 -501 -223q-340 0 -502 223q-138 190 -138 509q0 324 138 514q163 223 512 223zM719 1239q-168 0 -247 -142q-81 -145 -81 -394q0 -242 81 -387q79 -142 242 -142q162 0 241 142q81 146 81 390
q0 249 -81 391t-236 142zM492 1874q68 0 115 -46q46 -46 46 -109q0 -64 -46 -110t-114 -46q-70 0 -116 46t-46 111q0 63 46 108q48 46 115 46zM936 1874q68 0 115 -46q46 -46 46 -109q0 -64 -46 -110t-115 -46t-115 46t-46 111q0 63 46 108q48 46 115 46z" />
    <glyph glyph-name="Udieresis" unicode="&#xdc;" horiz-adv-x="1335" vert-adv-y="2457" 
d="M137 1413h307v-915q0 -163 32 -222q54 -102 206 -102q165 0 214 119q24 57 24 205v915h278v-928q0 -119 -10 -182q-29 -178 -172 -258q-129 -73 -347 -73q-377 0 -484 208q-36 71 -45 181q-3 39 -3 124v928zM446 1874q68 0 115 -46q46 -46 46 -109q0 -64 -46 -110
t-114 -46q-70 0 -116 46t-46 111q0 63 46 108q48 46 115 46zM890 1874q68 0 115 -46q46 -46 46 -109q0 -64 -46 -110t-115 -46t-115 46t-46 111q0 63 46 108q48 46 115 46z" />
    <glyph glyph-name="aacute" unicode="&#xe1;" horiz-adv-x="1110" vert-adv-y="2457" 
d="M687 625v17q0 71 -21 108q-38 68 -167 68q-116 0 -262 -72l-49 202q163 63 354 63q299 0 394 -152q36 -56 43 -157q2 -34 2 -127v-275q0 -176 20 -300h-269q-8 59 -14 121q-41 -52 -81 -81q-95 -68 -247 -68q-173 0 -259 88q-71 74 -71 204q0 256 265 328q107 29 362 33z
M691 474q-125 -2 -200 -18q-140 -29 -140 -168q0 -134 128 -134q107 0 170 81q31 40 38 88q4 23 4 68v83zM411 1148l180 296h331l-291 -296h-220z" />
    <glyph glyph-name="agrave" unicode="&#xe0;" horiz-adv-x="1110" vert-adv-y="2457" 
d="M687 625v17q0 71 -21 108q-38 68 -167 68q-116 0 -262 -72l-49 202q163 63 354 63q299 0 394 -152q36 -56 43 -157q2 -34 2 -127v-275q0 -176 20 -300h-269q-8 59 -14 121q-41 -52 -81 -81q-95 -68 -247 -68q-173 0 -259 88q-71 74 -71 204q0 256 265 328q107 29 362 33z
M691 474q-125 -2 -200 -18q-140 -29 -140 -168q0 -134 128 -134q107 0 170 81q31 40 38 88q4 23 4 68v83zM526 1148l-292 296h331l180 -296h-219z" />
    <glyph glyph-name="acircumflex" unicode="&#xe2;" horiz-adv-x="1110" vert-adv-y="2457" 
d="M687 625v17q0 71 -21 108q-38 68 -167 68q-116 0 -262 -72l-49 202q163 63 354 63q299 0 394 -152q36 -56 43 -157q2 -34 2 -127v-275q0 -176 20 -300h-269q-8 59 -14 121q-41 -52 -81 -81q-95 -68 -247 -68q-173 0 -259 88q-71 74 -71 204q0 256 265 328q107 29 362 33z
M691 474q-125 -2 -200 -18q-140 -29 -140 -168q0 -134 128 -134q107 0 170 81q31 40 38 88q4 23 4 68v83zM555 1315l-172 -167h-228l235 296h331l235 -296h-228z" />
    <glyph glyph-name="adieresis" unicode="&#xe4;" horiz-adv-x="1110" vert-adv-y="2457" 
d="M687 625v17q0 71 -21 108q-38 68 -167 68q-116 0 -262 -72l-49 202q163 63 354 63q299 0 394 -152q36 -56 43 -157q2 -34 2 -127v-275q0 -176 20 -300h-269q-8 59 -14 121q-41 -52 -81 -81q-95 -68 -247 -68q-173 0 -259 88q-71 74 -71 204q0 256 265 328q107 29 362 33z
M691 474q-125 -2 -200 -18q-140 -29 -140 -168q0 -134 128 -134q107 0 170 81q31 40 38 88q4 23 4 68v83zM369 1448q69 0 115 -46t46 -109q0 -64 -46 -110t-114 -46q-70 0 -116 46t-46 111q0 63 46 108q48 46 115 46zM786 1448q69 0 115 -46t46 -109q0 -64 -46 -110
t-114 -46q-70 0 -116 46t-46 111q0 63 46 108q47 46 115 46z" />
    <glyph glyph-name="atilde" unicode="&#xe3;" horiz-adv-x="1110" vert-adv-y="2457" 
d="M687 625v17q0 71 -21 108q-38 68 -167 68q-116 0 -262 -72l-49 202q163 63 354 63q299 0 394 -152q36 -56 43 -157q2 -34 2 -127v-275q0 -176 20 -300h-269q-8 59 -14 121q-41 -52 -81 -81q-95 -68 -247 -68q-173 0 -259 88q-71 74 -71 204q0 256 265 328q107 29 362 33z
M691 474q-125 -2 -200 -18q-140 -29 -140 -168q0 -134 128 -134q107 0 170 81q31 40 38 88q4 23 4 68v83zM350 1149h-190q23 141 68 213q70 112 196 112q65 0 121 -29q30 -16 88 -73q56 -54 83 -54q53 0 68 143h193q-13 -136 -53 -209q-63 -117 -207 -117q-87 0 -149 48
q-17 13 -67 62q-47 46 -71 46q-37 0 -60 -59q-6 -19 -20 -83z" />
    <glyph glyph-name="aring" unicode="&#xe5;" horiz-adv-x="1110" vert-adv-y="2457" 
d="M687 625v17q0 71 -21 108q-38 68 -167 68q-116 0 -262 -72l-49 202q163 63 354 63q299 0 394 -152q36 -56 43 -157q2 -34 2 -127v-275q0 -176 20 -300h-269q-8 59 -14 121q-41 -52 -81 -81q-95 -68 -247 -68q-173 0 -259 88q-71 74 -71 204q0 256 265 328q107 29 362 33z
M691 474q-125 -2 -200 -18q-140 -29 -140 -168q0 -134 128 -134q107 0 170 81q31 40 38 88q4 23 4 68v83zM588 1584q118 0 191 -62q75 -64 75 -163q0 -98 -76 -164q-75 -66 -194 -66q-118 0 -193 66q-76 67 -76 164q0 100 75 163q74 62 198 62zM586 1496q-101 0 -101 -140
q0 -139 99 -139q100 0 100 139q0 140 -98 140z" />
    <glyph glyph-name="ccedilla" unicode="&#xe7;" horiz-adv-x="872" vert-adv-y="2457" 
d="M818 220l24 -211q-107 -34 -282 -36l-83 -121q103 -10 156 -37q91 -46 91 -165q0 -103 -76 -164q-73 -57 -206 -57q-111 0 -220 39l34 117q80 -37 138 -37q96 0 96 107q0 119 -118 119q-17 0 -45 -3l-16 43l116 171q-100 16 -177 72q-182 130 -182 427q0 271 151 413
q120 114 333 114q170 0 281 -58l-53 -208q-81 72 -189 72q-115 0 -169 -90q-55 -91 -55 -240q0 -320 251 -320q102 0 200 53z" />
    <glyph glyph-name="eacute" unicode="&#xe9;" horiz-adv-x="1089" vert-adv-y="2457" 
d="M1020 423h-660q8 -107 33 -153q61 -110 267 -110q137 0 290 59l23 -210q-161 -37 -357 -37q-201 0 -309 49q-239 107 -239 443q0 232 109 375q129 172 396 172q451 0 451 -477q0 -31 -4 -111zM768 596q-8 98 -28 141q-43 90 -165 90q-189 0 -213 -231h406zM422 1148
l180 296h331l-291 -296h-220z" />
    <glyph glyph-name="egrave" unicode="&#xe8;" horiz-adv-x="1089" vert-adv-y="2457" 
d="M1020 423h-660q8 -107 33 -153q61 -110 267 -110q137 0 290 59l23 -210q-161 -37 -357 -37q-201 0 -309 49q-239 107 -239 443q0 232 109 375q129 172 396 172q451 0 451 -477q0 -31 -4 -111zM768 596q-8 98 -28 141q-43 90 -165 90q-189 0 -213 -231h406zM511 1148
l-292 296h331l180 -296h-219z" />
    <glyph glyph-name="ecircumflex" unicode="&#xea;" horiz-adv-x="1089" vert-adv-y="2457" 
d="M1020 423h-660q8 -107 33 -153q61 -110 267 -110q137 0 290 59l23 -210q-161 -37 -357 -37q-201 0 -309 49q-239 107 -239 443q0 232 109 375q129 172 396 172q451 0 451 -477q0 -31 -4 -111zM768 596q-8 98 -28 141q-43 90 -165 90q-189 0 -213 -231h406zM571 1315
l-172 -167h-228l235 296h331l235 -296h-228z" />
    <glyph glyph-name="edieresis" unicode="&#xeb;" horiz-adv-x="1089" vert-adv-y="2457" 
d="M1020 423h-660q8 -107 33 -153q61 -110 267 -110q137 0 290 59l23 -210q-161 -37 -357 -37q-201 0 -309 49q-239 107 -239 443q0 232 109 375q129 172 396 172q451 0 451 -477q0 -31 -4 -111zM768 596q-8 98 -28 141q-43 90 -165 90q-189 0 -213 -231h406zM368 1448
q69 0 115 -46t46 -109q0 -64 -46 -110t-114 -46q-70 0 -116 46t-46 111q0 63 46 108q48 46 115 46zM785 1448q69 0 115 -46t46 -109q0 -64 -46 -110t-114 -46q-70 0 -116 46t-46 111q0 63 46 108q47 46 115 46z" />
    <glyph glyph-name="iacute" unicode="&#xed;" horiz-adv-x="567" vert-adv-y="2457" 
d="M140 0v983h290v-983h-290zM129 1148l180 296h331l-291 -296h-220z" />
    <glyph glyph-name="igrave" unicode="&#xec;" horiz-adv-x="567" vert-adv-y="2457" 
d="M140 0v983h290v-983h-290zM232 1148l-292 296h331l180 -296h-219z" />
    <glyph glyph-name="icircumflex" unicode="&#xee;" horiz-adv-x="567" vert-adv-y="2457" 
d="M139 0v983h290v-983h-290zM283 1315l-172 -167h-228l235 296h331l235 -296h-228z" />
    <glyph glyph-name="idieresis" unicode="&#xef;" horiz-adv-x="567" vert-adv-y="2457" 
d="M139 0v983h290v-983h-290zM77 1448q69 0 115 -46t46 -109q0 -64 -46 -110t-114 -46q-70 0 -116 46t-46 111q0 63 46 108q48 46 115 46zM494 1448q69 0 115 -46t46 -109q0 -64 -46 -110t-114 -46q-70 0 -116 46t-46 111q0 63 46 108q47 46 115 46z" />
    <glyph glyph-name="ntilde" unicode="&#xf1;" horiz-adv-x="1186" vert-adv-y="2457" 
d="M134 0v596q0 177 -11 387h259l16 -136q145 164 340 164t272 -128q46 -77 46 -252v-631h-290v569q0 118 -16 160q-27 68 -103 68q-103 0 -184 -119q-29 -42 -35 -84q-4 -25 -4 -63v-531h-290zM373 1149h-190q23 141 68 213q70 112 196 112q65 0 121 -29q30 -16 88 -73
q56 -54 83 -54q53 0 68 143h193q-13 -136 -53 -209q-63 -117 -207 -117q-87 0 -149 48q-17 13 -67 62q-47 46 -71 46q-37 0 -60 -59q-6 -19 -20 -83z" />
    <glyph glyph-name="oacute" unicode="&#xf3;" horiz-adv-x="1143" vert-adv-y="2457" 
d="M579 1011q234 0 370 -145q126 -136 126 -374q0 -236 -126 -374q-133 -146 -377 -146q-245 0 -378 146q-126 138 -126 371q0 242 126 377q136 145 385 145zM575 817q-106 0 -159 -95q-49 -87 -49 -232q0 -141 48 -229q53 -95 157 -95q103 0 155 95q49 89 49 231
q0 144 -49 230q-53 95 -152 95zM405 1148l180 296h331l-291 -296h-220z" />
    <glyph glyph-name="ograve" unicode="&#xf2;" horiz-adv-x="1143" vert-adv-y="2457" 
d="M579 1011q234 0 370 -145q126 -136 126 -374q0 -236 -126 -374q-133 -146 -377 -146q-245 0 -378 146q-126 138 -126 371q0 242 126 377q136 145 385 145zM575 817q-106 0 -159 -95q-49 -87 -49 -232q0 -141 48 -229q53 -95 157 -95q103 0 155 95q49 89 49 231
q0 144 -49 230q-53 95 -152 95zM528 1148l-292 296h331l180 -296h-219z" />
    <glyph glyph-name="ocircumflex" unicode="&#xf4;" horiz-adv-x="1143" vert-adv-y="2457" 
d="M579 1011q234 0 370 -145q126 -136 126 -374q0 -236 -126 -374q-133 -146 -377 -146q-245 0 -378 146q-126 138 -126 371q0 242 126 377q136 145 385 145zM575 817q-106 0 -159 -95q-49 -87 -49 -232q0 -141 48 -229q53 -95 157 -95q103 0 155 95q49 89 49 231
q0 144 -49 230q-53 95 -152 95zM571 1315l-172 -167h-228l235 296h331l235 -296h-228z" />
    <glyph glyph-name="odieresis" unicode="&#xf6;" horiz-adv-x="1143" vert-adv-y="2457" 
d="M579 1011q234 0 370 -145q126 -136 126 -374q0 -236 -126 -374q-133 -146 -377 -146q-245 0 -378 146q-126 138 -126 371q0 242 126 377q136 145 385 145zM575 817q-106 0 -159 -95q-49 -87 -49 -232q0 -141 48 -229q53 -95 157 -95q103 0 155 95q49 89 49 231
q0 144 -49 230q-53 95 -152 95zM363 1448q69 0 115 -46t46 -109q0 -64 -46 -110t-114 -46q-70 0 -116 46t-46 111q0 63 46 108q48 46 115 46zM780 1448q69 0 115 -46t46 -109q0 -64 -46 -110t-114 -46q-70 0 -116 46t-46 111q0 63 46 108q47 46 115 46z" />
    <glyph glyph-name="otilde" unicode="&#xf5;" horiz-adv-x="1143" vert-adv-y="2457" 
d="M579 1011q234 0 370 -145q126 -136 126 -374q0 -236 -126 -374q-133 -146 -377 -146q-245 0 -378 146q-126 138 -126 371q0 242 126 377q136 145 385 145zM575 817q-106 0 -159 -95q-49 -87 -49 -232q0 -141 48 -229q53 -95 157 -95q103 0 155 95q49 89 49 231
q0 144 -49 230q-53 95 -152 95zM353 1149h-190q23 141 68 213q70 112 196 112q65 0 121 -29q30 -16 88 -73q56 -54 83 -54q53 0 68 143h193q-13 -136 -53 -209q-63 -117 -207 -117q-87 0 -149 48q-17 13 -67 62q-47 46 -71 46q-37 0 -60 -59q-6 -19 -20 -83z" />
    <glyph glyph-name="uacute" unicode="&#xfa;" horiz-adv-x="1158" vert-adv-y="2457" 
d="M127 983h290v-559q0 -121 18 -168q27 -71 102 -71q119 0 196 127v671h290v-691q0 -165 20 -292h-275q-11 53 -19 110q-126 -138 -306 -138q-195 0 -271 137q-45 83 -45 266v608zM438 1148l180 296h331l-291 -296h-220z" />
    <glyph glyph-name="ugrave" unicode="&#xf9;" horiz-adv-x="1158" vert-adv-y="2457" 
d="M127 983h290v-559q0 -121 18 -168q27 -71 102 -71q119 0 196 127v671h290v-691q0 -165 20 -292h-275q-11 53 -19 110q-126 -138 -306 -138q-195 0 -271 137q-45 83 -45 266v608zM536 1148l-292 296h331l180 -296h-219z" />
    <glyph glyph-name="ucircumflex" unicode="&#xfb;" horiz-adv-x="1158" vert-adv-y="2457" 
d="M127 983h290v-559q0 -121 18 -168q27 -71 102 -71q119 0 196 127v671h290v-691q0 -165 20 -292h-275q-11 53 -19 110q-126 -138 -306 -138q-195 0 -271 137q-45 83 -45 266v608zM578 1315l-172 -167h-228l235 296h331l235 -296h-228z" />
    <glyph glyph-name="udieresis" unicode="&#xfc;" horiz-adv-x="1158" vert-adv-y="2457" 
d="M127 983h290v-559q0 -121 18 -168q27 -71 102 -71q119 0 196 127v671h290v-691q0 -165 20 -292h-275q-11 53 -19 110q-126 -138 -306 -138q-195 0 -271 137q-45 83 -45 266v608zM370 1448q69 0 115 -46t46 -109q0 -64 -46 -110t-114 -46q-70 0 -116 46t-46 111
q0 63 46 108q48 46 115 46zM787 1448q69 0 115 -46t46 -109q0 -64 -46 -110t-114 -46q-70 0 -116 46t-46 111q0 63 46 108q47 46 115 46z" />
    <glyph glyph-name="dagger" unicode="&#x2020;" horiz-adv-x="1158" vert-adv-y="2457" 
d="M426 756h-338l14 220h324v437h305v-437h340l-15 -220h-325v-1138h-305v1138z" />
    <glyph glyph-name="degree" unicode="&#xb0;" horiz-adv-x="593" vert-adv-y="2457" 
d="M299 1487q110 0 181 -65q74 -67 74 -171q0 -103 -74 -171q-71 -65 -184 -65t-184 65q-74 68 -74 170q0 106 74 172q73 65 187 65zM298 1394q-55 0 -85 -35q-33 -39 -33 -108t33 -108q30 -35 83 -35t83 35q33 39 33 108q0 70 -33 108q-30 35 -81 35z" />
    <glyph glyph-name="cent" unicode="&#xa2;" vert-adv-y="2457" 
d="M650 167v210q-178 11 -277 72q-208 131 -208 437q0 211 98 346q101 141 277 171q43 7 110 12v198h145v-199q132 -13 210 -55l-53 -208q-64 58 -157 70v-648q65 3 105 15t90 39l24 -211q-86 -28 -219 -37v-212h-145zM650 1215q-67 -16 -108 -63q-78 -90 -78 -263
q0 -262 186 -307v633z" />
    <glyph glyph-name="sterling" unicode="&#xa3;" vert-adv-y="2457" 
d="M261 605h-188l16 195h169v153q0 132 23 212q39 140 169 213q110 63 283 63q172 0 344 -49l-50 -210q-153 57 -254 57q-133 0 -181 -100q-32 -65 -32 -192v-147h273l-18 -195h-255v-404h582l-16 -201h-1022l17 201h140v404z" />
    <glyph glyph-name="section" unicode="&#xa7;" horiz-adv-x="1181" vert-adv-y="2457" 
d="M118 -137l64 213q194 -102 353 -102q82 0 128 26q51 29 51 103q0 68 -47 99q-41 27 -194 69q-135 38 -196 71q-159 86 -159 252q0 105 67 182q36 42 105 92q-56 45 -78 77q-42 62 -42 153q0 98 53 183q101 160 373 160q175 0 364 -63l-62 -196q-159 70 -283 70
q-156 0 -156 -129q0 -69 46 -99q33 -22 74 -35q41 -12 115 -33q193 -54 267 -124q47 -45 69 -116q12 -40 12 -79q0 -106 -67 -185q-27 -31 -94 -84q59 -48 81 -81q41 -63 41 -155q0 -158 -116 -255q-110 -92 -326 -92q-226 0 -443 78zM715 425q65 65 65 150q0 81 -45 118
q-29 24 -71 38l-95 32l-120 42q-27 -27 -40 -47q-29 -42 -29 -106q0 -80 46 -117q31 -24 65 -36l95 -31z" />
    <glyph glyph-name="bullet" unicode="&#x2022;" vert-adv-y="2457" 
d="M385 986h499q58 0 85 -30q20 -23 20 -56q0 -19 -2 -33l-71 -501q-8 -57 -35 -81q-28 -24 -86 -24h-499q-105 0 -105 86q0 18 2 32l71 502q8 57 36 81q27 24 85 24z" />
    <glyph glyph-name="paragraph" unicode="&#xb6;" horiz-adv-x="1513" vert-adv-y="2457" 
d="M550 -443v1079h-50q-70 0 -98 3q-97 9 -179 74q-79 62 -116 163q-27 74 -27 150q0 158 96 267q91 104 245 116q48 4 212 4h612v-1856h-254v1650h-187v-1650h-254z" />
    <glyph glyph-name="germandbls" unicode="&#xdf;" horiz-adv-x="1240" vert-adv-y="2457" 
d="M139 0v926q0 185 20 270q71 300 451 300q258 0 374 -115q95 -93 95 -227q0 -94 -61 -177q-21 -30 -81 -87q-43 -42 -43 -84q0 -49 42 -87q9 -8 77 -56q96 -68 134 -130q48 -78 48 -191q0 -177 -104 -275q-100 -95 -298 -95q-94 0 -192 21l23 204q86 -31 162 -31
q126 0 126 148q0 48 -19 81q-17 29 -68 69q-118 93 -157 142q-55 71 -55 148q0 57 28 104q19 31 74 84q50 50 66 81q21 39 21 95q0 80 -40 129q-45 55 -137 55q-129 0 -169 -101q-27 -69 -27 -226v-975h-290z" />
    <glyph glyph-name="registered" unicode="&#xae;" horiz-adv-x="1278" vert-adv-y="2457" 
d="M439 760v537h200q248 0 248 -153q0 -79 -61 -121q-24 -17 -74 -33q44 -36 76 -92l77 -138h-154l-78 144q-25 49 -34 61q-11 16 -27 16h-19v-221h-154zM593 1041h55q84 0 84 94q0 51 -24 74q-17 17 -63 17h-52v-185zM647 1607q240 0 409 -157q179 -168 179 -423t-179 -424
q-168 -157 -417 -157q-248 0 -416 157q-93 88 -140 209q-40 102 -40 213q0 168 84 307q84 140 237 214q126 61 283 61zM645 1488q-197 0 -319 -127q-123 -128 -123 -335q0 -203 123 -332q122 -126 313 -126q190 0 311 126q124 129 124 333q0 207 -124 334q-123 127 -305 127
z" />
    <glyph glyph-name="copyright" unicode="&#xa9;" horiz-adv-x="1758" vert-adv-y="2457" 
d="M1114 497l32 -119q-87 -38 -204 -38q-195 0 -297 103q-96 97 -96 270q0 196 123 300q101 86 274 86q95 0 179 -28l-36 -122q-67 26 -115 26q-89 0 -135 -74q-46 -73 -46 -184q0 -112 45 -181q45 -71 144 -71q62 0 132 32zM890 1488q332 0 556 -224q102 -102 160 -237
q64 -149 64 -316q0 -229 -117 -417q-111 -178 -296 -273q-168 -86 -378 -86q-345 0 -568 224q-102 102 -160 237q-64 148 -64 314q0 230 117 420q108 175 296 272q167 86 390 86zM887 1348q-280 0 -453 -189q-161 -176 -161 -450q0 -268 161 -445q173 -189 445 -189
q271 0 444 189q161 177 161 447q0 276 -161 448q-178 189 -436 189z" />
    <glyph glyph-name="trademark" unicode="&#x2122;" horiz-adv-x="1876" vert-adv-y="2457" 
d="M254 574v714h-253l9 125h728l-9 -125h-246v-714h-229zM796 574l63 839h300l113 -368q15 -50 45 -160q22 88 47 168l110 360h292l63 -839h-221l-28 380l-3 46q-4 58 -6 91l-11 -42q-18 -65 -24 -82l-124 -393h-202l-115 355q-9 25 -21 71q-15 54 -28 94l-2 -40l-3 -53
l-4 -58l-27 -369h-214z" />
    <glyph glyph-name="acute" unicode="&#xb4;" horiz-adv-x="1024" vert-adv-y="2457" 
d="M336 1148l180 296h331l-291 -296h-220z" />
    <glyph glyph-name="dieresis" unicode="&#xa8;" horiz-adv-x="1024" vert-adv-y="2457" 
d="M304 1448q69 0 115 -46t46 -109q0 -64 -46 -110t-114 -46q-70 0 -116 46t-46 111q0 63 46 108q48 46 115 46zM721 1448q69 0 115 -46t46 -109q0 -64 -46 -110t-114 -46q-70 0 -116 46t-46 111q0 63 46 108q47 46 115 46z" />
    <glyph glyph-name="notequal" unicode="&#x2260;" vert-adv-y="2457" 
d="M87 383l23 220h294l103 217h-420l23 221h504l115 241l221 -105l-64 -136h207l-22 -221h-292l-103 -217h417l-22 -220h-501l-118 -246l-222 104l68 142h-211z" />
    <glyph glyph-name="AE" unicode="&#xc6;" horiz-adv-x="1839" vert-adv-y="2457" 
d="M822 335h-482l-179 -335h-318q173 295 215 373l405 743q41 75 151 297h1163v-207h-648v-370h492v-195h-492v-434h664v-207h-971v335zM822 542v664h-26l-346 -664h372z" />
    <glyph glyph-name="Oslash" unicode="&#xd8;" horiz-adv-x="1441" vert-adv-y="2457" 
d="M79 73l114 139q-50 77 -76 150q-51 143 -51 344q0 323 139 513q164 222 501 222q253 0 407 -118l102 124l129 -108l-113 -139q51 -79 77 -153q50 -146 50 -342q0 -320 -140 -511q-162 -222 -504 -222q-242 0 -401 116l-101 -124zM410 470l533 650q-83 119 -232 119
q-166 0 -246 -141q-82 -146 -82 -394q0 -114 27 -234zM481 290q33 -43 63 -66q67 -50 168 -50q167 0 247 141q82 147 82 386q0 100 -26 240z" />
    <glyph glyph-name="infinity" unicode="&#x221e;" horiz-adv-x="1615" vert-adv-y="2457" 
d="M807 555q-56 -64 -105 -100q-115 -86 -272 -86q-183 0 -284 103q-91 94 -91 242q0 149 91 243q101 103 284 103q167 0 288 -97q42 -34 89 -87q56 64 104 99q117 85 273 85q184 0 284 -103q92 -94 92 -243q0 -148 -92 -242q-101 -103 -284 -103q-166 0 -289 98
q-39 31 -88 88zM719 715q-74 80 -111 110q-85 70 -163 70q-71 0 -114 -48q-42 -48 -42 -132q0 -85 43 -134q42 -47 110 -47q92 0 182 84q11 10 57 59zM894 715q23 -23 77 -78q99 -103 199 -103q70 0 113 47q43 49 43 134q0 84 -42 132q-43 48 -115 48q-86 0 -178 -82
q-2 -1 -97 -98z" />
    <glyph glyph-name="plusminus" unicode="&#xb1;" vert-adv-y="2457" 
d="M86 661l23 221h347v347h275v-347h363l-23 -221h-340v-343h-275v343h-370zM86 0l23 220h985l-23 -220h-985z" />
    <glyph glyph-name="lessequal" unicode="&#x2264;" vert-adv-y="2457" 
d="M109 0v195h956v-195h-956zM467 773l598 -236v-234l-956 418v105l956 415v-231z" />
    <glyph glyph-name="greaterequal" unicode="&#x2265;" vert-adv-y="2457" 
d="M116 0v195h956v-195h-956zM714 771l-598 237v233l956 -417v-105l-956 -416v232z" />
    <glyph glyph-name="yen" unicode="&#xa5;" vert-adv-y="2457" 
d="M435 0v295h-341v140h341v92l-11 20h-330v140h257l-363 726h333l188 -379q34 -68 97 -225q57 150 105 245l180 359h300l-365 -726h257v-140h-330l-11 -20v-92h341v-140h-341v-295h-307z" />
    <glyph glyph-name="mu" unicode="&#xb5;" vert-adv-y="2457" 
d="M134 -503v1486h292v-619q0 -86 14 -129q20 -64 83 -64q97 0 222 159v653h291v-983h-277l-9 122q-117 -145 -239 -145q-38 0 -85 18v-451z" />
    <glyph glyph-name="partialdiff" unicode="&#x2202;" vert-adv-y="2457" 
d="M722 955q-67 163 -189 258q-108 84 -283 110l32 160q197 -23 309 -69q104 -43 206 -127q141 -117 220 -335q76 -207 76 -446q0 -178 -53 -286q-123 -249 -452 -249q-243 0 -377 142q-125 132 -125 363q0 229 126 364q75 80 183 117q73 25 150 25q96 0 177 -27zM593 788
q-106 0 -159 -91q-49 -83 -49 -222q0 -136 49 -220q53 -90 156 -90t155 91q49 84 49 219q0 140 -48 222q-54 91 -153 91z" />
    <glyph glyph-name="summation" unicode="&#x2211;" vert-adv-y="2457" 
d="M1159 1568v-207h-777l450 -798l-471 -884h822v-207h-1166v230l464 859l-446 781v226h1124z" />
    <glyph glyph-name="product" unicode="&#x220f;" horiz-adv-x="1615" vert-adv-y="2457" 
d="M1064 1361h-513v-1889h-307v2096h1127v-2096h-307v1889z" />
    <glyph glyph-name="pi" unicode="&#x3c0;" horiz-adv-x="1183" vert-adv-y="2457" 
d="M173 0v782h-147l17 201h1131l-17 -201h-147v-782h-290v782h-257v-782h-290z" />
    <glyph glyph-name="integral" unicode="&#x222b;" vert-adv-y="2457" 
d="M204 -459l46 197q56 -24 94 -24q66 0 85 59q14 42 14 229v995q0 178 6 269q12 164 91 244q73 74 217 74q103 0 218 -31l-46 -197q-56 23 -94 23q-66 0 -85 -59q-14 -41 -14 -228v-996q0 -181 -7 -272q-23 -314 -309 -314q-103 0 -216 31z" />
    <glyph glyph-name="ordfeminine" unicode="&#xaa;" horiz-adv-x="808" vert-adv-y="2457" 
d="M456 1209v17q0 45 -13 68q-21 35 -83 35q-83 0 -189 -41l-29 117q126 34 246 34q200 0 264 -93q23 -34 27 -95q2 -23 2 -78v-327h-185l-8 52q-30 -27 -52 -39q-54 -29 -144 -29q-119 0 -177 60q-42 44 -42 114q0 142 165 184q59 15 218 21zM461 1121q-57 -2 -96 -11
q-77 -16 -77 -92q0 -80 70 -80q51 0 81 38q22 27 22 87v58z" />
    <glyph glyph-name="ordmasculine" unicode="&#xba;" horiz-adv-x="809" vert-adv-y="2457" 
d="M410 1439q153 0 240 -84q80 -78 80 -221q0 -142 -80 -220q-87 -84 -246 -84t-245 84q-80 78 -80 219q0 143 80 222q86 84 251 84zM407 1330q-57 0 -86 -56q-26 -51 -26 -141q0 -87 26 -138q29 -56 84 -56q54 0 83 56q27 52 27 139q0 90 -27 140q-30 56 -81 56z" />
    <glyph glyph-name="uni2126" unicode="&#x2126;" horiz-adv-x="1525" vert-adv-y="2457" 
d="M80 0v195h343q-31 23 -46 35q-121 91 -180 171q-115 155 -115 368q0 282 170 468q188 205 509 205q320 0 507 -205q169 -186 169 -469q0 -253 -166 -428q-41 -44 -173 -145h341v-195h-589v185q270 201 270 560q0 203 -82 339q-95 156 -278 156t-279 -156
q-82 -135 -82 -339q0 -357 272 -560v-185h-591z" />
    <glyph glyph-name="ae" unicode="&#xe6;" horiz-adv-x="1710" vert-adv-y="2457" 
d="M806 132q-151 -160 -407 -160q-177 0 -267 93q-74 76 -74 200q0 156 112 249q103 84 327 99q58 4 187 5v25q0 77 -27 115q-42 59 -163 59q-108 0 -256 -70l-52 201q166 63 352 63q229 0 337 -112q118 112 321 112q448 0 448 -480q0 -38 -4 -108h-659q7 -107 33 -153
q61 -110 267 -110q135 0 290 58l23 -210q-159 -36 -358 -36q-231 0 -350 82q-39 27 -80 78zM690 465q-125 -1 -201 -15q-140 -27 -140 -164q0 -132 128 -132q106 0 169 81q44 56 44 155v75zM1389 596q-9 99 -29 141q-42 90 -164 90q-189 0 -214 -231h407z" />
    <glyph glyph-name="oslash" unicode="&#xf8;" horiz-adv-x="1175" vert-adv-y="2457" 
d="M83 41l88 101q-108 138 -108 350q0 237 130 373q139 146 383 146q175 0 298 -71l86 98l121 -97l-88 -100q108 -138 108 -351q0 -236 -130 -372q-138 -146 -386 -146q-169 0 -293 70l-85 -98zM375 371l342 393q-55 53 -133 53q-112 0 -169 -95q-53 -87 -53 -233
q0 -39 13 -118zM448 218q58 -52 132 -52q113 0 169 95q53 88 53 229q0 40 -13 121z" />
    <glyph glyph-name="questiondown" unicode="&#xbf;" horiz-adv-x="947" vert-adv-y="2457" 
d="M395 529h274v-80q0 -98 -14 -140q-19 -57 -122 -162q-93 -96 -128 -148q-47 -70 -47 -145q0 -144 177 -144q131 0 305 82l28 -225q-173 -53 -378 -53q-231 0 -343 99q-96 85 -96 231q0 125 71 225q39 57 138 157q98 100 117 137q18 35 18 111v55zM527 1013q84 0 137 -61
q45 -51 45 -116q0 -74 -58 -128q-52 -47 -127 -47q-81 0 -134 61q-45 51 -45 115q0 75 58 129q51 47 124 47z" />
    <glyph glyph-name="exclamdown" unicode="&#xa1;" horiz-adv-x="746" vert-adv-y="2457" 
d="M501 529l40 -988h-337l40 988h257zM373 1013q84 0 137 -61q45 -51 45 -116q0 -74 -58 -128q-51 -47 -127 -47q-81 0 -134 61q-45 51 -45 115q0 75 58 129q51 47 124 47z" />
    <glyph glyph-name="logicalnot" unicode="&#xac;" vert-adv-y="2457" 
d="M117 616v195h916v-607h-284v412h-632z" />
    <glyph glyph-name="radical" unicode="&#x221a;" vert-adv-y="2457" 
d="M314 0l-163 581h-144v208h364l56 -218q17 -68 50 -234l12 -58q46 217 104 426l305 1113h628v-216h-386l-459 -1602h-367z" />
    <glyph glyph-name="florin" unicode="&#x192;" vert-adv-y="2457" 
d="M372 605h-193l17 195h218l48 233q45 215 123 297q102 107 290 107q117 0 246 -32l-35 -214q-94 44 -153 44q-77 0 -110 -71q-24 -50 -41 -130l-50 -234h241l-17 -195h-265l-140 -660q-39 -184 -110 -253q-97 -95 -302 -95q-123 0 -242 24l32 208q103 -30 162 -30
q81 0 112 67q22 47 41 135z" />
    <glyph glyph-name="approxequal" unicode="&#x2248;" vert-adv-y="2457" 
d="M290 756l-200 45q72 307 328 307q83 0 148 -35q29 -16 105 -66q56 -37 91 -37q74 0 116 138l201 -44q-72 -308 -329 -308q-84 0 -155 39q-30 17 -100 63q-53 36 -89 36q-73 0 -116 -138zM290 317l-200 45q72 307 328 307q83 0 148 -35q30 -16 105 -66q55 -37 91 -37
q74 0 116 138l201 -44q-72 -308 -329 -308q-82 0 -153 38q-32 17 -102 64q-53 36 -90 36q-72 0 -115 -138z" />
    <glyph glyph-name="Delta" unicode="&#x2206;" vert-adv-y="2457" 
d="M1306 0h-1432l550 1413h333zM904 204l-251 676q-34 94 -83 241q-32 -107 -80 -235l-250 -682h664z" />
    <glyph glyph-name="guillemotleft" unicode="&#xab;" horiz-adv-x="1032" vert-adv-y="2457" 
d="M349 563l184 -324l-110 -92l-371 400v32l371 400l110 -92zM806 563l183 -324l-110 -92l-371 400v32l371 400l110 -92z" />
    <glyph glyph-name="guillemotright" unicode="&#xbb;" horiz-adv-x="1032" vert-adv-y="2457" 
d="M226 563l-184 324l110 92l371 -400v-32l-371 -400l-110 92zM682 563l-184 324l111 92l370 -400v-32l-370 -400l-111 92z" />
    <glyph glyph-name="ellipsis" unicode="&#x2026;" horiz-adv-x="1713" vert-adv-y="2457" 
d="M286 323q81 0 134 -61q45 -51 45 -115q0 -76 -58 -129q-51 -47 -124 -47q-84 0 -137 61q-45 51 -45 116q0 73 58 128q51 47 127 47zM859 323q81 0 134 -61q45 -51 45 -115q0 -76 -58 -129q-51 -47 -124 -47q-84 0 -137 61q-45 51 -45 116q0 73 58 128q51 47 127 47z
M1433 323q81 0 134 -61q45 -51 45 -115q0 -76 -58 -129q-51 -47 -124 -47q-84 0 -137 61q-45 51 -45 116q0 73 58 128q51 47 127 47z" />
    <glyph glyph-name="glyph172" vert-adv-y="1180" 
 />
    <glyph glyph-name="Agrave" unicode="&#xc0;" horiz-adv-x="1340" vert-adv-y="2457" 
d="M943 335h-567l-128 -335h-304l569 1413h316l567 -1413h-325zM870 534l-130 356q-35 98 -81 247q-37 -128 -78 -238l-132 -365h421zM613 1566l-292 297h331l180 -297h-219z" />
    <glyph glyph-name="Atilde" unicode="&#xc3;" horiz-adv-x="1340" vert-adv-y="2457" 
d="M943 335h-567l-128 -335h-304l569 1413h316l567 -1413h-325zM870 534l-130 356q-35 98 -81 247q-37 -128 -78 -238l-132 -365h421zM451 1568h-190q23 141 68 213q69 112 196 112q65 0 121 -29q28 -15 88 -73q56 -54 83 -54q53 0 68 143h193q-13 -136 -53 -209
q-63 -117 -207 -117q-87 0 -149 48q-17 12 -67 62q-47 46 -71 46q-37 0 -60 -59q-6 -18 -20 -83z" />
    <glyph glyph-name="Otilde" unicode="&#xd5;" horiz-adv-x="1428" vert-adv-y="2457" 
d="M724 1441q328 0 491 -223q138 -189 138 -511q0 -321 -138 -512q-162 -223 -501 -223q-340 0 -502 223q-138 190 -138 509q0 324 138 514q163 223 512 223zM719 1239q-168 0 -247 -142q-81 -145 -81 -394q0 -242 81 -387q79 -142 242 -142q162 0 241 142q81 146 81 390
q0 249 -81 391t-236 142zM495 1568h-190q23 141 68 213q69 112 196 112q65 0 121 -29q28 -15 88 -73q56 -54 83 -54q53 0 68 143h193q-13 -136 -53 -209q-63 -117 -207 -117q-87 0 -149 48q-17 12 -67 62q-47 46 -71 46q-37 0 -60 -59q-6 -18 -20 -83z" />
    <glyph glyph-name="OE" unicode="&#x152;" horiz-adv-x="1905" vert-adv-y="2457" 
d="M1859 0h-946q-234 0 -310 11q-183 26 -295 113q-122 94 -184 267q-49 138 -49 314q0 248 105 430q115 200 339 251q106 25 215 26q49 1 179 1h930v-207h-648v-370h491v-195h-491v-434h664v-207zM888 201v1005h-70q-145 0 -212 -28q-103 -43 -162 -176q-52 -119 -52 -302
q0 -268 119 -403q63 -71 167 -89q42 -7 139 -7h71z" />
    <glyph glyph-name="oe" unicode="&#x153;" horiz-adv-x="1798" vert-adv-y="2457" 
d="M917 111q-41 -41 -69 -62q-109 -77 -286 -77q-233 0 -368 146q-126 136 -126 374t126 374q135 145 370 145q179 0 285 -75q30 -22 79 -75q48 54 92 82q107 68 268 68q153 0 262 -64q182 -108 182 -413q0 -27 -4 -111h-659q6 -106 33 -153q60 -110 267 -110q134 0 289 58
l24 -210q-159 -36 -358 -36q-210 0 -328 72q-40 24 -79 67zM575 818q-106 0 -159 -95q-49 -87 -49 -232q0 -141 48 -229q53 -96 157 -96q103 0 155 95q49 89 49 231q0 146 -49 231q-53 95 -152 95zM1477 596q-8 98 -29 141q-43 90 -164 90q-190 0 -214 -231h407z" />
    <glyph glyph-name="endash" unicode="&#x2013;" horiz-adv-x="1179" vert-adv-y="2457" 
d="M108 529v224h964v-224h-964z" />
    <glyph glyph-name="emdash" unicode="&#x2014;" horiz-adv-x="1024" vert-adv-y="2457" 
d="M-125 529v224h1275v-224h-1275z" />
    <glyph glyph-name="quotedblleft" unicode="&#x201c;" horiz-adv-x="886" vert-adv-y="2457" 
d="M429 1500l-111 -573h-307l193 573h225zM831 1500l-112 -573h-306l193 573h225z" />
    <glyph glyph-name="quotedblright" unicode="&#x201d;" horiz-adv-x="886" vert-adv-y="2457" 
d="M54 927l111 573h307l-194 -573h-224zM456 927l111 573h307l-194 -573h-224z" />
    <glyph glyph-name="quoteleft" unicode="&#x2018;" horiz-adv-x="484" vert-adv-y="2457" 
d="M429 1500l-111 -573h-307l193 573h225z" />
    <glyph glyph-name="quoteright" unicode="&#x2019;" horiz-adv-x="484" vert-adv-y="2457" 
d="M54 927l111 573h307l-194 -573h-224z" />
    <glyph glyph-name="divide" unicode="&#xf7;" vert-adv-y="2457" 
d="M594 1274q71 0 121 -56q43 -48 43 -104q0 -66 -55 -117q-47 -43 -112 -43q-75 0 -125 56q-43 48 -43 105q0 64 55 115q48 44 116 44zM86 602l23 220h985l-23 -220h-985zM594 469q71 0 121 -56q43 -48 43 -103q0 -66 -55 -117q-47 -43 -112 -43q-75 0 -125 56
q-43 48 -43 104q0 64 55 116q47 43 116 43z" />
    <glyph glyph-name="lozenge" unicode="&#x25ca;" vert-adv-y="2457" 
d="M1 707l589 753l589 -753l-589 -754zM343 707l247 -334l247 334l-247 333z" />
    <glyph glyph-name="ydieresis" unicode="&#xff;" horiz-adv-x="1033" vert-adv-y="2457" 
d="M393 0l-402 983h315l147 -411q38 -105 87 -253l24 -71l40 152q28 107 44 165l118 418h276l-277 -859q-107 -331 -173 -430q-72 -106 -180 -148q-83 -32 -197 -32q-84 0 -168 13l21 195q59 -23 124 -23q174 0 262 236l24 65h-85zM309 1448q69 0 115 -46t46 -109
q0 -64 -46 -110t-114 -46q-70 0 -116 46t-46 111q0 63 46 108q48 46 115 46zM726 1448q69 0 115 -46t46 -109q0 -64 -46 -110t-114 -46q-70 0 -116 46t-46 111q0 63 46 108q47 46 115 46z" />
    <glyph glyph-name="Ydieresis" unicode="&#x178;" horiz-adv-x="1126" vert-adv-y="2457" 
d="M409 0v536l-471 877h340l200 -379q33 -64 102 -224q72 171 111 244l190 359h308l-473 -877v-536h-307zM341 1874q68 0 115 -46q46 -46 46 -109q0 -64 -46 -110t-114 -46q-70 0 -116 46t-46 111q0 63 46 108q48 46 115 46zM785 1874q68 0 115 -46q46 -46 46 -109
q0 -64 -46 -110t-115 -46t-115 46t-46 111q0 63 46 108q48 46 115 46z" />
    <glyph glyph-name="fraction" unicode="&#x2044;" horiz-adv-x="287" vert-adv-y="2457" 
d="M-324 0l726 1413h208l-725 -1413h-209z" />
    <glyph glyph-name="Euro" unicode="&#x20ac;" vert-adv-y="2457" 
d="M-4 462l60 140h108q-4 55 -4 105h-158l60 140h107q27 196 105 334q146 260 498 260q223 0 395 -90l-78 -207q-61 37 -98 53q-95 43 -195 43q-182 0 -257 -169q-40 -91 -57 -224h507l-60 -140h-455q0 -70 3 -105h425l-60 -140h-345q24 -105 60 -166q73 -125 260 -125
q112 0 205 41q39 17 104 56l7 -243q-42 -17 -99 -29q-126 -26 -243 -26q-369 0 -520 252q-53 90 -86 240h-189z" />
    <glyph glyph-name="guilsinglleft" unicode="&#x2039;" horiz-adv-x="575" vert-adv-y="2457" 
d="M350 563l184 -324l-110 -92l-371 400v32l371 400l110 -92z" />
    <glyph glyph-name="guilsinglright" unicode="&#x203a;" horiz-adv-x="575" vert-adv-y="2457" 
d="M226 563l-184 324l110 92l371 -400v-32l-371 -400l-110 92z" />
    <glyph glyph-name="daggerdbl" unicode="&#x2021;" horiz-adv-x="1158" vert-adv-y="2457" 
d="M426 756h-338l14 220h324v437h305v-437h339l-15 -220h-324v-410h339l-15 -220h-324v-508h-305v508h-338l14 220h324v410z" />
    <glyph glyph-name="periodcentered" unicode="&#xb7;" horiz-adv-x="566" vert-adv-y="2457" 
d="M286 816q81 0 134 -61q45 -51 45 -115q0 -76 -58 -129q-51 -47 -124 -47q-84 0 -137 61q-45 51 -45 116q0 74 58 128q51 47 127 47z" />
    <glyph glyph-name="quotesinglbase" unicode="&#x201a;" horiz-adv-x="484" vert-adv-y="2457" 
d="M8 -268l111 572h307l-194 -572h-224z" />
    <glyph glyph-name="quotedblbase" unicode="&#x201e;" horiz-adv-x="886" vert-adv-y="2457" 
d="M8 -268l111 572h307l-194 -572h-224zM410 -268l111 572h307l-194 -572h-224z" />
    <glyph glyph-name="perthousand" unicode="&#x2030;" horiz-adv-x="2800" vert-adv-y="2457" 
d="M458 1442q191 0 292 -112q88 -97 88 -268t-88 -269q-101 -112 -298 -112q-198 0 -299 112q-88 98 -88 267q0 173 88 270q102 112 305 112zM454 1288q-121 0 -121 -228q0 -224 119 -224q118 0 118 226t-116 226zM526 0l640 1413h252l-639 -1413h-253zM1500 732
q190 0 292 -112q88 -97 88 -269q0 -169 -88 -269q-99 -112 -301 -112q-198 0 -297 112q-88 100 -88 268q0 172 88 270q102 112 306 112zM1495 577q-120 0 -120 -228q0 -225 118 -225q119 0 119 226q0 101 -27 162q-30 65 -90 65zM2354 732q191 0 292 -112q88 -98 88 -269
q0 -169 -88 -269q-99 -112 -301 -112q-197 0 -296 112q-88 100 -88 268q0 173 88 270q101 112 305 112zM2346 577q-124 0 -124 -228q0 -225 122 -225t122 227q0 226 -120 226z" />
    <glyph glyph-name="Acircumflex" unicode="&#xc2;" horiz-adv-x="1340" vert-adv-y="2457" 
d="M943 335h-567l-128 -335h-304l569 1413h316l567 -1413h-325zM870 534l-130 356q-35 98 -81 247q-37 -128 -78 -238l-132 -365h421zM669 1734l-172 -168h-228l235 297h331l235 -297h-228z" />
    <glyph glyph-name="Ecircumflex" unicode="&#xca;" horiz-adv-x="1165" vert-adv-y="2457" 
d="M147 0v1413h955v-207h-648v-370h492v-195h-492v-434h664v-207h-971zM631 1734l-172 -168h-228l235 297h331l235 -297h-228z" />
    <glyph glyph-name="Aacute" unicode="&#xc1;" horiz-adv-x="1340" vert-adv-y="2457" 
d="M943 335h-567l-128 -335h-304l569 1413h316l567 -1413h-325zM870 534l-130 356q-35 98 -81 247q-37 -128 -78 -238l-132 -365h421zM540 1566l180 297h331l-291 -297h-220z" />
    <glyph glyph-name="Edieresis" unicode="&#xcb;" horiz-adv-x="1165" vert-adv-y="2457" 
d="M147 0v1413h955v-207h-648v-370h492v-195h-492v-434h664v-207h-971zM413 1874q68 0 115 -46q46 -46 46 -109q0 -64 -46 -110t-114 -46q-70 0 -116 46t-46 111q0 63 46 108q48 46 115 46zM857 1874q68 0 115 -46q46 -46 46 -109q0 -64 -46 -110t-115 -46t-115 46t-46 111
q0 63 46 108q48 46 115 46z" />
    <glyph glyph-name="Egrave" unicode="&#xc8;" horiz-adv-x="1165" vert-adv-y="2457" 
d="M147 0v1413h955v-207h-648v-370h492v-195h-492v-434h664v-207h-971zM592 1566l-292 297h331l180 -297h-219z" />
    <glyph glyph-name="Iacute" unicode="&#xcd;" horiz-adv-x="632" vert-adv-y="2457" 
d="M160 0v1413h307v-1413h-307zM166 1566l180 297h331l-291 -297h-220z" />
    <glyph glyph-name="Icircumflex" unicode="&#xce;" horiz-adv-x="632" vert-adv-y="2457" 
d="M162 0v1413h307v-1413h-307zM315 1734l-172 -168h-228l235 297h331l235 -297h-228z" />
    <glyph glyph-name="Idieresis" unicode="&#xcf;" horiz-adv-x="632" vert-adv-y="2457" 
d="M162 0v1413h307v-1413h-307zM95 1874q68 0 115 -46q46 -46 46 -109q0 -64 -46 -110t-114 -46q-70 0 -116 46t-46 111q0 63 46 108q48 46 115 46zM539 1874q68 0 115 -46q46 -46 46 -109q0 -64 -46 -110t-115 -46t-115 46t-46 111q0 63 46 108q48 46 115 46z" />
    <glyph glyph-name="Igrave" unicode="&#xcc;" horiz-adv-x="632" vert-adv-y="2457" 
d="M163 0v1413h307v-1413h-307zM255 1566l-292 297h331l180 -297h-219z" />
    <glyph glyph-name="Oacute" unicode="&#xd3;" horiz-adv-x="1428" vert-adv-y="2457" 
d="M724 1441q328 0 491 -223q138 -189 138 -511q0 -321 -138 -512q-162 -223 -501 -223q-340 0 -502 223q-138 190 -138 509q0 324 138 514q163 223 512 223zM719 1239q-168 0 -247 -142q-81 -145 -81 -394q0 -242 81 -387q79 -142 242 -142q162 0 241 142q81 146 81 390
q0 249 -81 391t-236 142zM542 1566l180 297h331l-291 -297h-220z" />
    <glyph glyph-name="Ocircumflex" unicode="&#xd4;" horiz-adv-x="1428" vert-adv-y="2457" 
d="M724 1441q328 0 491 -223q138 -189 138 -511q0 -321 -138 -512q-162 -223 -501 -223q-340 0 -502 223q-138 190 -138 509q0 324 138 514q163 223 512 223zM719 1239q-168 0 -247 -142q-81 -145 -81 -394q0 -242 81 -387q79 -142 242 -142q162 0 241 142q81 146 81 390
q0 249 -81 391t-236 142zM713 1734l-172 -168h-228l235 297h331l235 -297h-228z" />
    <glyph glyph-name="glyph210" horiz-adv-x="492" vert-adv-y="2457" 
 />
    <glyph glyph-name="Ograve" unicode="&#xd2;" horiz-adv-x="1428" vert-adv-y="2457" 
d="M724 1441q328 0 491 -223q138 -189 138 -511q0 -321 -138 -512q-162 -223 -501 -223q-340 0 -502 223q-138 190 -138 509q0 324 138 514q163 223 512 223zM719 1239q-168 0 -247 -142q-81 -145 -81 -394q0 -242 81 -387q79 -142 242 -142q162 0 241 142q81 146 81 390
q0 249 -81 391t-236 142zM671 1566l-292 297h331l180 -297h-219z" />
    <glyph glyph-name="Uacute" unicode="&#xda;" horiz-adv-x="1335" vert-adv-y="2457" 
d="M137 1413h307v-915q0 -163 32 -222q54 -102 206 -102q165 0 214 119q24 57 24 205v915h278v-928q0 -119 -10 -182q-29 -178 -172 -258q-129 -73 -347 -73q-377 0 -484 208q-36 71 -45 181q-3 39 -3 124v928zM538 1566l180 297h331l-291 -297h-220z" />
    <glyph glyph-name="Ucircumflex" unicode="&#xdb;" horiz-adv-x="1335" vert-adv-y="2457" 
d="M137 1413h307v-915q0 -163 32 -222q54 -102 206 -102q165 0 214 119q24 57 24 205v915h278v-928q0 -119 -10 -182q-29 -178 -172 -258q-129 -73 -347 -73q-377 0 -484 208q-36 71 -45 181q-3 39 -3 124v928zM667 1734l-172 -168h-228l235 297h331l235 -297h-228z" />
    <glyph glyph-name="Ugrave" unicode="&#xd9;" horiz-adv-x="1335" vert-adv-y="2457" 
d="M137 1413h307v-915q0 -163 32 -222q54 -102 206 -102q165 0 214 119q24 57 24 205v915h278v-928q0 -119 -10 -182q-29 -178 -172 -258q-129 -73 -347 -73q-377 0 -484 208q-36 71 -45 181q-3 39 -3 124v928zM625 1566l-292 297h331l180 -297h-219z" />
    <glyph glyph-name="dotlessi" unicode="&#x131;" horiz-adv-x="567" vert-adv-y="2457" 
d="M139 0v983h290v-983h-290z" />
    <glyph glyph-name="circumflex" unicode="&#x2c6;" horiz-adv-x="1024" vert-adv-y="2457" 
d="M511 1315l-172 -167h-228l235 296h331l235 -296h-228z" />
    <glyph glyph-name="tilde" unicode="&#x2dc;" horiz-adv-x="1024" vert-adv-y="2457" 
d="M293 1149h-190q23 141 68 213q70 112 196 112q65 0 121 -29q30 -16 88 -73q56 -54 83 -54q53 0 68 143h193q-13 -136 -53 -209q-63 -117 -207 -117q-87 0 -149 48q-17 13 -67 62q-47 46 -71 46q-37 0 -60 -59q-6 -19 -20 -83z" />
    <glyph glyph-name="macron" unicode="&#xaf;" horiz-adv-x="1024" vert-adv-y="2457" 
d="M153 1202v174h717v-174h-717z" />
    <glyph glyph-name="breve" unicode="&#x2d8;" horiz-adv-x="1024" vert-adv-y="2457" 
d="M120 1465h203q8 -60 30 -95q41 -61 159 -61q125 0 165 72q17 31 24 84h203q-3 -126 -48 -197q-46 -71 -125 -103q-84 -35 -219 -35q-180 0 -269 62q-94 65 -116 186q-6 35 -7 87z" />
    <glyph glyph-name="dotaccent" unicode="&#x2d9;" horiz-adv-x="1024" vert-adv-y="2457" 
d="M512 1457q72 0 121 -49q49 -48 49 -115t-49 -116q-48 -49 -121 -49q-74 0 -122 49q-49 49 -49 117q0 67 49 114q50 49 122 49z" />
    <glyph glyph-name="ring" unicode="&#x2da;" horiz-adv-x="1024" vert-adv-y="2457" 
d="M515 1584q118 0 191 -62q75 -64 75 -163q0 -98 -76 -164q-75 -66 -194 -66q-118 0 -193 66q-76 67 -76 164q0 100 75 163q74 62 198 62zM513 1496q-101 0 -101 -140q0 -139 99 -139q100 0 100 139q0 140 -98 140z" />
    <glyph glyph-name="cedilla" unicode="&#xb8;" horiz-adv-x="1024" vert-adv-y="2457" 
d="M488 1h140l-102 -149q103 -10 156 -37q91 -46 91 -165q0 -103 -76 -164q-73 -57 -205 -57q-112 0 -221 39l34 117q80 -37 138 -37q96 0 96 107q0 119 -118 119q-18 0 -45 -3l-16 43z" />
    <glyph glyph-name="hungarumlaut" unicode="&#x2dd;" horiz-adv-x="1024" vert-adv-y="2457" 
d="M180 1148l161 296h305l-259 -296h-207zM591 1148l161 296h305l-259 -296h-207z" />
    <glyph glyph-name="ogonek" unicode="&#x2db;" horiz-adv-x="1024" vert-adv-y="2457" 
d="M590 0h166q-114 -96 -150 -135q-88 -98 -88 -202q0 -70 36 -99q31 -25 95 -25q72 0 149 35l21 -122q-98 -32 -204 -32q-164 0 -252 66q-79 59 -79 167q0 211 306 347z" />
    <glyph glyph-name="caron" unicode="&#x2c7;" horiz-adv-x="1024" vert-adv-y="2457" 
d="M512 1277l172 167h228l-235 -296h-331l-235 296h228z" />
    <glyph glyph-name="uni00A0" unicode="&#xa0;" horiz-adv-x="492" vert-adv-y="2457" 
 />
    <glyph glyph-name="currency" unicode="&#xa4;" vert-adv-y="2457" 
d="M157 76l-134 128l177 187q-8 13 -12 20q-74 119 -74 241q0 107 49 198q4 7 37 61l-177 188l134 127l179 -189q48 29 84 43q71 26 170 26q115 0 194 -36q24 -11 60 -33l178 189l134 -127l-177 -187q8 -14 12 -20q72 -120 72 -241q0 -106 -48 -199q-7 -13 -36 -61l177 -187
l-134 -128l-178 190q-44 -27 -75 -40q-73 -29 -179 -29q-114 0 -192 35q-26 11 -62 33zM592 938q-110 0 -168 -82q-54 -77 -54 -206q0 -125 54 -202q58 -83 164 -83q107 0 165 83q54 77 54 204q0 128 -54 203q-59 83 -161 83z" />
    <glyph glyph-name="brokenbar" unicode="&#xa6;" vert-adv-y="2457" 
d="M446 831v582h284v-582h-284zM446 0v550h284v-550h-284z" />
    <glyph glyph-name="uni00AD" unicode="&#xad;" horiz-adv-x="838" vert-adv-y="2457" 
d="M108 529v224h622v-224h-622z" />
    <glyph glyph-name="twosuperior" unicode="&#xb2;" horiz-adv-x="792" vert-adv-y="2457" 
d="M48 770v129l273 281q130 134 130 218q0 39 -23 63q-28 29 -82 29q-79 0 -226 -66l-34 155q130 55 280 55q318 0 318 -233q0 -102 -64 -187q-44 -59 -121 -138l-160 -164h366v-142h-657z" />
    <glyph glyph-name="threesuperior" unicode="&#xb3;" horiz-adv-x="794" vert-adv-y="2457" 
d="M52 808l41 157q128 -71 235 -71q152 0 152 131q0 72 -49 101q-38 23 -120 23q-21 0 -109 -7v145q69 -6 89 -6q153 0 153 115q0 98 -114 98q-78 0 -204 -58l-43 145q144 53 279 53q315 0 315 -220q0 -83 -47 -131q-21 -20 -67 -45q51 -18 79 -40q74 -57 74 -170
q0 -275 -379 -275q-170 0 -285 55z" />
    <glyph glyph-name="onesuperior" unicode="&#xb9;" horiz-adv-x="558" vert-adv-y="2457" 
d="M192 770v682l-172 -24v145l241 45h160v-848h-229z" />
    <glyph glyph-name="onequarter" unicode="&#xbc;" horiz-adv-x="1822" vert-adv-y="2457" 
d="M242 565v682l-172 -24v145l241 45h160v-848h-229zM343 0l726 1413h208l-725 -1413h-209zM1421 186h-423v134l275 528h224l-273 -522h197v241h212v-241h130v-140h-130v-186h-212v186z" />
    <glyph glyph-name="onehalf" unicode="&#xbd;" horiz-adv-x="1822" vert-adv-y="2457" 
d="M248 565v682l-172 -24v145l241 45h160v-848h-229zM329 0l725 1413h209l-726 -1413h-208zM1037 0v129l273 281q130 134 130 218q0 39 -23 63q-28 29 -82 29q-79 0 -226 -66l-34 155q130 55 280 55q318 0 318 -233q0 -102 -64 -187q-46 -61 -121 -138l-160 -164h366v-142
h-657z" />
    <glyph glyph-name="threequarters" unicode="&#xbe;" horiz-adv-x="1822" vert-adv-y="2457" 
d="M29 603l41 157q129 -71 235 -71q152 0 152 131q0 72 -49 101q-38 23 -120 23q-16 0 -109 -7v145q71 -6 89 -6q153 0 153 115q0 98 -114 98q-76 0 -204 -58l-43 146q144 52 279 52q315 0 315 -220q0 -83 -47 -130q-21 -21 -67 -46q51 -18 79 -40q74 -56 74 -170
q0 -275 -379 -275q-171 0 -285 55zM439 0l726 1413h208l-725 -1413h-209zM1438 186h-423v134l275 528h223l-272 -522h197v241h212v-241h131v-140h-131v-186h-212v186z" />
    <glyph glyph-name="Eth" unicode="&#xd0;" horiz-adv-x="1379" vert-adv-y="2457" 
d="M170 0v643h-162l12 181h150v589h438q195 0 324 -43q190 -63 282 -244q88 -175 88 -421q0 -376 -193 -555q-106 -98 -274 -132q-92 -18 -232 -18h-433zM476 207h90q130 0 202 28q217 86 217 476q0 298 -134 420q-63 57 -168 71q-36 4 -129 4h-78v-382h293l-14 -181h-279
v-436z" />
    <glyph glyph-name="multiply" unicode="&#xd7;" vert-adv-y="2457" 
d="M421 713l-291 285l171 169l290 -285l286 280l171 -169l-286 -280l290 -285l-170 -169l-291 285l-285 -281l-171 169z" />
    <glyph glyph-name="Yacute" unicode="&#xdd;" horiz-adv-x="1126" vert-adv-y="2457" 
d="M409 0v536l-471 877h340l200 -379q33 -64 102 -224q72 171 111 244l190 359h308l-473 -877v-536h-307zM437 1566l180 297h331l-291 -297h-220z" />
    <glyph glyph-name="Thorn" unicode="&#xde;" horiz-adv-x="1191" vert-adv-y="2457" 
d="M454 313v-313h-307v1413h307v-215h113q171 0 272 -24q170 -39 255 -171q62 -97 62 -235q0 -242 -160 -361q-125 -94 -376 -94h-166zM454 512h135q141 0 197 55q61 60 61 188q0 139 -70 198q-54 46 -181 46h-142v-487z" />
    <glyph glyph-name="eth" unicode="&#xf0;" horiz-adv-x="1147" vert-adv-y="2457" 
d="M706 955q-55 133 -138 217l-193 -135l-93 112l162 112q-99 45 -210 62l32 160q215 -25 360 -91l178 125l93 -112l-137 -95q111 -90 184 -226q67 -125 103 -293q30 -138 30 -285q0 -177 -53 -285q-122 -249 -452 -249q-243 0 -377 142q-125 132 -125 362q0 228 126 364
q132 142 350 142q76 0 160 -27zM577 788q-106 0 -159 -91q-49 -83 -49 -222q0 -135 49 -219q53 -90 155 -90q104 0 156 91q49 83 49 218q0 140 -48 222q-54 91 -153 91z" />
    <glyph glyph-name="yacute" unicode="&#xfd;" horiz-adv-x="1033" vert-adv-y="2457" 
d="M393 0l-402 983h315l147 -411q38 -105 87 -253l24 -71l40 152q28 107 44 165l118 418h276l-277 -859q-107 -331 -173 -430q-72 -106 -180 -148q-83 -32 -197 -32q-84 0 -168 13l21 195q59 -23 124 -23q174 0 262 236l24 65h-85zM392 1148l180 296h331l-291 -296h-220z
" />
    <glyph glyph-name="thorn" unicode="&#xfe;" horiz-adv-x="1160" vert-adv-y="2457" 
d="M425 5v-464h-290v1572q0 149 -11 329l301 62v-591q109 98 263 98q208 0 313 -151q91 -132 91 -352q0 -238 -96 -369q-62 -85 -171 -128q-99 -39 -208 -39q-101 0 -192 33zM425 217q75 -51 154 -51q121 0 171 106q43 93 43 231q0 133 -43 223q-44 91 -138 91
q-99 0 -154 -108q-33 -64 -33 -183v-309z" />
    <glyph glyph-name="Amacron" unicode="&#x100;" horiz-adv-x="1340" vert-adv-y="2457" 
d="M943 335h-567l-128 -335h-304l569 1413h316l567 -1413h-325zM870 534l-130 356q-35 98 -81 247q-37 -128 -78 -238l-132 -365h421zM311 1633v174h717v-174h-717z" />
    <glyph glyph-name="amacron" unicode="&#x101;" horiz-adv-x="1110" vert-adv-y="2457" 
d="M687 625v17q0 71 -21 108q-38 68 -167 68q-116 0 -262 -72l-49 202q163 63 354 63q299 0 394 -152q36 -56 43 -157q2 -34 2 -127v-275q0 -176 20 -300h-269q-8 59 -14 121q-41 -52 -81 -81q-95 -68 -247 -68q-173 0 -259 88q-71 74 -71 204q0 256 265 328q107 29 362 33z
M691 474q-125 -2 -200 -18q-140 -29 -140 -168q0 -134 128 -134q107 0 170 81q31 40 38 88q4 23 4 68v83zM224 1202v174h717v-174h-717z" />
    <glyph glyph-name="Abreve" unicode="&#x102;" horiz-adv-x="1340" vert-adv-y="2457" 
d="M943 335h-567l-128 -335h-304l569 1413h316l567 -1413h-325zM870 534l-130 356q-35 98 -81 247q-37 -128 -78 -238l-132 -365h421zM278 1884h203q8 -60 30 -95q41 -61 159 -61q125 0 165 72q17 31 24 84h203q-3 -126 -48 -197q-46 -71 -125 -103q-84 -35 -219 -35
q-180 0 -269 62q-94 65 -116 186q-6 35 -7 87z" />
    <glyph glyph-name="abreve" unicode="&#x103;" horiz-adv-x="1110" vert-adv-y="2457" 
d="M687 625v17q0 71 -21 108q-38 68 -167 68q-116 0 -262 -72l-49 202q163 63 354 63q299 0 394 -152q36 -56 43 -157q2 -34 2 -127v-275q0 -176 20 -300h-269q-8 59 -14 121q-41 -52 -81 -81q-95 -68 -247 -68q-173 0 -259 88q-71 74 -71 204q0 256 265 328q107 29 362 33z
M691 474q-125 -2 -200 -18q-140 -29 -140 -168q0 -134 128 -134q107 0 170 81q31 40 38 88q4 23 4 68v83zM168 1465h203q8 -60 30 -95q41 -61 159 -61q125 0 165 72q17 31 24 84h203q-3 -126 -48 -197q-46 -71 -125 -103q-84 -35 -219 -35q-180 0 -269 62q-94 65 -116 186
q-6 35 -7 87z" />
    <glyph glyph-name="Aogonek" unicode="&#x104;" horiz-adv-x="1340" vert-adv-y="2457" 
d="M943 335h-567l-128 -335h-304l569 1413h316l567 -1413q-117 -99 -149 -135q-88 -98 -88 -202q0 -70 36 -99q30 -25 95 -25q72 0 149 35l21 -122q-98 -32 -204 -32q-164 0 -252 66q-79 59 -79 167q0 211 306 347h-160zM870 534l-130 356q-35 98 -81 247q-45 -148 -78 -238
l-132 -365h421z" />
    <glyph glyph-name="aogonek" unicode="&#x105;" horiz-adv-x="1110" vert-adv-y="2457" 
d="M687 625v17q0 71 -21 108q-38 68 -167 68q-116 0 -262 -72l-49 202q163 63 354 63q299 0 394 -152q36 -56 43 -157q2 -34 2 -127v-275q0 -173 20 -300q-110 -91 -149 -135q-89 -98 -89 -202q0 -70 36 -99q31 -25 95 -25q72 0 149 35l21 -122q-97 -32 -204 -32
q-164 0 -252 66q-79 59 -79 167q0 210 312 347h-109q-8 59 -14 121q-41 -52 -81 -81q-94 -68 -247 -68q-173 0 -259 88q-71 74 -71 204q0 256 265 328q113 31 362 33zM691 474q-138 -4 -200 -18q-140 -30 -140 -168q0 -134 128 -134q107 0 170 81q31 40 38 88q4 23 4 68v83z
" />
    <glyph glyph-name="Cacute" unicode="&#x106;" horiz-adv-x="1133" vert-adv-y="2457" 
d="M1071 251l29 -231q-168 -48 -376 -48q-350 0 -511 212q-139 184 -139 504q0 381 188 582q159 171 457 171q194 0 352 -66l-52 -226q-60 36 -88 49q-89 41 -192 41q-181 0 -266 -154q-82 -150 -82 -389q0 -235 76 -373q82 -149 291 -149q155 0 313 77zM545 1566l180 297
h331l-291 -297h-220z" />
    <glyph glyph-name="cacute" unicode="&#x107;" horiz-adv-x="872" vert-adv-y="2457" 
d="M818 220l24 -211q-111 -37 -266 -37q-174 0 -276 53q-232 120 -232 459q0 271 151 413q120 114 333 114q170 0 281 -58l-53 -208q-81 72 -189 72q-115 0 -169 -90q-55 -91 -55 -240q0 -321 251 -321q101 0 200 54zM384 1148l180 296h331l-291 -296h-220z" />
    <glyph glyph-name="Ccircumflex" unicode="&#x108;" horiz-adv-x="1133" vert-adv-y="2457" 
d="M1071 251l29 -231q-168 -48 -376 -48q-350 0 -511 212q-139 184 -139 504q0 381 188 582q159 171 457 171q194 0 352 -66l-52 -226q-60 36 -88 49q-89 41 -192 41q-181 0 -266 -154q-82 -150 -82 -389q0 -235 76 -373q82 -149 291 -149q155 0 313 77zM704 1734l-172 -168
h-228l235 297h331l235 -297h-228z" />
    <glyph glyph-name="ccircumflex" unicode="&#x109;" horiz-adv-x="872" vert-adv-y="2457" 
d="M818 220l24 -211q-111 -37 -266 -37q-174 0 -276 53q-232 120 -232 459q0 271 151 413q120 114 333 114q170 0 281 -58l-53 -208q-81 72 -189 72q-115 0 -169 -90q-55 -91 -55 -240q0 -321 251 -321q101 0 200 54zM533 1315l-172 -167h-228l235 296h331l235 -296h-228z
" />
    <glyph glyph-name="Cdotaccent" unicode="&#x10a;" horiz-adv-x="1133" vert-adv-y="2457" 
d="M1071 251l29 -231q-168 -48 -376 -48q-350 0 -511 212q-139 184 -139 504q0 381 188 582q159 171 457 171q194 0 352 -66l-52 -226q-60 36 -88 49q-89 41 -192 41q-181 0 -266 -154q-82 -150 -82 -389q0 -235 76 -373q82 -149 291 -149q155 0 313 77zM719 1883
q72 0 121 -49q49 -48 49 -115t-49 -116t-121 -49q-73 0 -122 49t-49 117q0 67 49 114q50 49 122 49z" />
    <glyph glyph-name="cdotaccent" unicode="&#x10b;" horiz-adv-x="872" vert-adv-y="2457" 
d="M818 220l24 -211q-111 -37 -266 -37q-174 0 -276 53q-232 120 -232 459q0 271 151 413q120 114 333 114q170 0 281 -58l-53 -208q-81 72 -189 72q-115 0 -169 -90q-55 -91 -55 -240q0 -321 251 -321q101 0 200 54zM557 1457q72 0 121 -49q49 -48 49 -115t-49 -116
q-48 -49 -121 -49q-74 0 -122 49q-49 49 -49 117q0 67 49 114q50 49 122 49z" />
    <glyph glyph-name="Ccaron" unicode="&#x10c;" horiz-adv-x="1133" vert-adv-y="2457" 
d="M1071 251l29 -231q-168 -48 -376 -48q-350 0 -511 212q-139 184 -139 504q0 381 188 582q159 171 457 171q194 0 352 -66l-52 -226q-60 36 -88 49q-89 41 -192 41q-181 0 -266 -154q-82 -150 -82 -389q0 -235 76 -373q82 -149 291 -149q155 0 313 77zM705 1695l172 168
h228l-235 -297h-331l-235 297h228z" />
    <glyph glyph-name="ccaron" unicode="&#x10d;" horiz-adv-x="872" vert-adv-y="2457" 
d="M818 220l24 -211q-111 -37 -266 -37q-174 0 -276 53q-232 120 -232 459q0 271 151 413q120 114 333 114q170 0 281 -58l-53 -208q-81 72 -189 72q-115 0 -169 -90q-55 -91 -55 -240q0 -321 251 -321q101 0 200 54zM536 1277l172 167h228l-235 -296h-331l-235 296h228z
" />
    <glyph glyph-name="Dcaron" unicode="&#x10e;" horiz-adv-x="1355" vert-adv-y="2457" 
d="M147 0v1413h439q194 0 323 -43q190 -62 282 -244q89 -174 89 -420q0 -378 -193 -556q-107 -98 -275 -132q-92 -18 -231 -18h-434zM454 207h89q131 0 202 28q218 86 218 476q0 298 -134 420q-63 57 -169 71q-35 4 -128 4h-78v-999zM602 1695l172 168h228l-235 -297h-331
l-235 297h228z" />
    <glyph glyph-name="dcaron" unicode="&#x10f;" horiz-adv-x="1461" vert-adv-y="2457" 
d="M735 981v132q0 155 -11 329l301 62v-1210q0 -175 20 -294h-262q-10 53 -16 111q-113 -139 -302 -139q-192 0 -298 134q-99 125 -99 347q0 244 113 393q126 165 367 165q93 0 187 -30zM735 769q-69 48 -142 48q-126 0 -180 -110q-46 -95 -46 -238q0 -303 178 -303
q102 0 157 108q33 64 33 188v307zM1156 962l73 530h283l-145 -530h-211z" />
    <glyph glyph-name="Dcroat" unicode="&#x110;" horiz-adv-x="1379" vert-adv-y="2457" 
d="M170 0v643h-162l12 181h150v589h438q195 0 324 -43q190 -63 282 -244q88 -175 88 -421q0 -376 -193 -555q-106 -98 -274 -132q-92 -18 -232 -18h-433zM476 207h90q130 0 202 28q217 86 217 476q0 298 -134 420q-63 57 -168 71q-36 4 -129 4h-78v-382h293l-14 -181h-279
v-436z" />
    <glyph glyph-name="dcroat" unicode="&#x111;" horiz-adv-x="1160" vert-adv-y="2457" 
d="M735 981v139h-274v159h271v13q-1 52 -8 150l301 61v-224h142v-159h-142v-826q0 -175 20 -294h-262q-10 53 -16 111q-113 -139 -302 -139q-192 0 -298 134q-99 125 -99 347q0 244 113 393q126 165 367 165q93 0 187 -30zM735 769q-69 48 -142 48q-126 0 -180 -110
q-46 -95 -46 -238q0 -303 178 -303q102 0 157 108q33 64 33 188v307z" />
    <glyph glyph-name="Emacron" unicode="&#x112;" horiz-adv-x="1165" vert-adv-y="2457" 
d="M147 0v1413h955v-207h-648v-370h492v-195h-492v-434h664v-207h-971zM274 1633v174h717v-174h-717z" />
    <glyph glyph-name="emacron" unicode="&#x113;" horiz-adv-x="1089" vert-adv-y="2457" 
d="M1020 423h-660q8 -107 33 -153q61 -110 267 -110q137 0 290 59l23 -210q-161 -37 -357 -37q-201 0 -309 49q-239 107 -239 443q0 232 109 375q129 172 396 172q451 0 451 -477q0 -31 -4 -111zM768 596q-8 98 -28 141q-43 90 -165 90q-189 0 -213 -231h406zM208 1202v174
h717v-174h-717z" />
    <glyph glyph-name="Ebreve" unicode="&#x114;" horiz-adv-x="1165" vert-adv-y="2457" 
d="M147 0v1413h955v-207h-648v-370h492v-195h-492v-434h664v-207h-971zM254 1884h203q8 -60 30 -95q41 -61 159 -61q125 0 165 72q17 31 24 84h203q-3 -126 -48 -197q-46 -71 -125 -103q-84 -35 -219 -35q-180 0 -269 62q-94 65 -116 186q-6 35 -7 87z" />
    <glyph glyph-name="ebreve" unicode="&#x115;" horiz-adv-x="1089" vert-adv-y="2457" 
d="M1020 423h-660q8 -107 33 -153q61 -110 267 -110q137 0 290 59l23 -210q-161 -37 -357 -37q-201 0 -309 49q-239 107 -239 443q0 232 109 375q129 172 396 172q451 0 451 -477q0 -31 -4 -111zM768 596q-8 98 -28 141q-43 90 -165 90q-189 0 -213 -231h406zM189 1465h203
q8 -60 30 -95q41 -61 159 -61q125 0 165 72q17 31 24 84h203q-3 -126 -48 -197q-46 -71 -125 -103q-84 -35 -219 -35q-180 0 -269 62q-94 65 -116 186q-6 35 -7 87z" />
    <glyph glyph-name="Edotaccent" unicode="&#x116;" horiz-adv-x="1165" vert-adv-y="2457" 
d="M147 0v1413h955v-207h-648v-370h492v-195h-492v-434h664v-207h-971zM656 1883q72 0 121 -49q49 -48 49 -115t-49 -116t-121 -49q-73 0 -122 49t-49 117q0 67 49 114q50 49 122 49z" />
    <glyph glyph-name="edotaccent" unicode="&#x117;" horiz-adv-x="1089" vert-adv-y="2457" 
d="M1020 423h-660q8 -107 33 -153q61 -110 267 -110q137 0 290 59l23 -210q-161 -37 -357 -37q-201 0 -309 49q-239 107 -239 443q0 232 109 375q129 172 396 172q451 0 451 -477q0 -31 -4 -111zM768 596q-8 98 -28 141q-43 90 -165 90q-189 0 -213 -231h406zM599 1457
q72 0 121 -49q49 -48 49 -115t-49 -116q-48 -49 -121 -49q-74 0 -122 49q-49 49 -49 117q0 67 49 114q50 49 122 49z" />
    <glyph glyph-name="Eogonek" unicode="&#x118;" horiz-adv-x="1165" vert-adv-y="2457" 
d="M147 0v1413h955v-207h-648v-370h492v-195h-492v-434h664v-207q-108 -88 -149 -135q-89 -98 -89 -202q0 -70 36 -99q31 -25 95 -25q72 0 150 35l21 -122q-98 -32 -204 -32q-165 0 -253 66q-79 59 -79 167q0 209 307 347h-806z" />
    <glyph glyph-name="eogonek" unicode="&#x119;" horiz-adv-x="1089" vert-adv-y="2457" 
d="M1020 423h-660q8 -107 33 -153q61 -110 267 -110q134 0 290 59l23 -210q-94 -21 -212 -31q-57 -43 -125 -117q-86 -93 -86 -198q0 -70 36 -99q31 -25 95 -25q72 0 150 35l21 -122q-98 -32 -204 -32q-165 0 -253 66q-79 59 -79 167q0 189 249 320q-196 10 -294 67
q-203 117 -203 424q0 232 109 376q129 171 396 171q451 0 451 -479q0 -34 -4 -109zM768 596q-8 98 -28 141q-43 90 -165 90q-189 0 -213 -231h406z" />
    <glyph glyph-name="Ecaron" unicode="&#x11a;" horiz-adv-x="1165" vert-adv-y="2457" 
d="M147 0v1413h955v-207h-648v-370h492v-195h-492v-434h664v-207h-971zM637 1695l172 168h228l-235 -297h-331l-235 297h228z" />
    <glyph glyph-name="ecaron" unicode="&#x11b;" horiz-adv-x="1089" vert-adv-y="2457" 
d="M1020 423h-660q8 -107 33 -153q61 -110 267 -110q137 0 290 59l23 -210q-161 -37 -357 -37q-201 0 -309 49q-239 107 -239 443q0 232 109 375q129 172 396 172q451 0 451 -477q0 -31 -4 -111zM768 596q-8 98 -28 141q-43 90 -165 90q-189 0 -213 -231h406zM594 1277
l172 167h228l-235 -296h-331l-235 296h228z" />
    <glyph glyph-name="Gcircumflex" unicode="&#x11c;" horiz-adv-x="1358" vert-adv-y="2457" 
d="M702 594v186h547v-703q-230 -105 -498 -105q-364 0 -533 218q-144 185 -144 494q0 385 206 584q180 173 493 173q204 0 403 -72l-56 -224q-181 94 -332 94q-214 0 -307 -152q-90 -147 -90 -399q0 -227 73 -359q86 -155 299 -155q89 0 180 33v387h-241zM767 1734
l-172 -168h-228l235 297h331l235 -297h-228z" />
    <glyph glyph-name="gcircumflex" unicode="&#x11d;" horiz-adv-x="1142" vert-adv-y="2457" 
d="M722 68q-106 -96 -257 -96q-200 0 -301 135q-96 130 -96 350q0 280 150 428q128 126 379 126q199 0 434 -63q-19 -167 -19 -388v-405q0 -154 -15 -260q-54 -381 -517 -381q-197 0 -339 48l24 206q157 -69 312 -69q152 0 206 94q39 67 39 201v74zM722 779q-65 38 -136 38
q-219 0 -219 -344q0 -307 171 -307q99 0 152 108q32 65 32 188v317zM612 1315l-172 -167h-228l235 296h331l235 -296h-228z" />
    <glyph glyph-name="Gbreve" unicode="&#x11e;" horiz-adv-x="1358" vert-adv-y="2457" 
d="M702 594v186h547v-703q-230 -105 -498 -105q-364 0 -533 218q-144 185 -144 494q0 385 206 584q180 173 493 173q204 0 403 -72l-56 -224q-181 94 -332 94q-214 0 -307 -152q-90 -147 -90 -399q0 -227 73 -359q86 -155 299 -155q89 0 180 33v387h-241zM347 1884h203
q8 -60 30 -95q41 -61 159 -61q125 0 165 72q17 31 24 84h203q-3 -126 -48 -197q-46 -71 -125 -103q-84 -35 -219 -35q-180 0 -269 62q-94 65 -116 186q-6 35 -7 87z" />
    <glyph glyph-name="gbreve" unicode="&#x11f;" horiz-adv-x="1142" vert-adv-y="2457" 
d="M722 68q-106 -96 -257 -96q-200 0 -301 135q-96 130 -96 350q0 280 150 428q128 126 379 126q199 0 434 -63q-19 -167 -19 -388v-405q0 -154 -15 -260q-54 -381 -517 -381q-197 0 -339 48l24 206q157 -69 312 -69q152 0 206 94q39 67 39 201v74zM722 779q-65 38 -136 38
q-219 0 -219 -344q0 -307 171 -307q99 0 152 108q32 65 32 188v317zM219 1465h203q8 -60 30 -95q41 -61 159 -61q125 0 165 72q17 31 24 84h203q-3 -126 -48 -197q-46 -71 -125 -103q-84 -35 -219 -35q-180 0 -269 62q-94 65 -116 186q-6 35 -7 87z" />
    <glyph glyph-name="Gdotaccent" unicode="&#x120;" horiz-adv-x="1358" vert-adv-y="2457" 
d="M702 594v186h547v-703q-230 -105 -498 -105q-364 0 -533 218q-144 185 -144 494q0 385 206 584q180 173 493 173q204 0 403 -72l-56 -224q-181 94 -332 94q-214 0 -307 -152q-90 -147 -90 -399q0 -227 73 -359q86 -155 299 -155q89 0 180 33v387h-241zM751 1883
q72 0 121 -49q49 -48 49 -115t-49 -116t-121 -49q-73 0 -122 49t-49 117q0 67 49 114q50 49 122 49z" />
    <glyph glyph-name="gdotaccent" unicode="&#x121;" horiz-adv-x="1142" vert-adv-y="2457" 
d="M722 68q-106 -96 -257 -96q-200 0 -301 135q-96 130 -96 350q0 280 150 428q128 126 379 126q199 0 434 -63q-19 -167 -19 -388v-405q0 -154 -15 -260q-54 -381 -517 -381q-197 0 -339 48l24 206q157 -69 312 -69q152 0 206 94q39 67 39 201v74zM722 779q-65 38 -136 38
q-219 0 -219 -344q0 -307 171 -307q99 0 152 108q32 65 32 188v317zM624 1457q72 0 121 -49q49 -48 49 -115t-49 -116q-48 -49 -121 -49q-74 0 -122 49q-49 49 -49 117q0 67 49 114q50 49 122 49z" />
    <glyph glyph-name="Gcommaaccent" unicode="&#x122;" horiz-adv-x="1358" vert-adv-y="2457" 
d="M702 594v186h547v-703q-230 -105 -498 -105q-364 0 -533 218q-144 185 -144 494q0 385 206 584q180 173 493 173q204 0 403 -72l-56 -224q-181 94 -332 94q-214 0 -307 -152q-90 -147 -90 -399q0 -227 73 -359q86 -155 299 -155q89 0 180 33v387h-241zM455 -457l136 313
h310l-227 -313h-219z" />
    <glyph glyph-name="gcommaaccent" unicode="&#x123;" horiz-adv-x="1142" vert-adv-y="2457" 
d="M722 68q-106 -96 -257 -96q-200 0 -301 135q-96 130 -96 350q0 280 150 428q128 126 379 126q199 0 434 -63q-19 -167 -19 -388v-405q0 -154 -15 -260q-54 -381 -517 -381q-197 0 -339 48l24 206q157 -69 312 -69q152 0 206 94q39 67 39 201v74zM722 779q-65 38 -136 38
q-219 0 -219 -344q0 -307 171 -307q99 0 152 108q32 65 32 188v317zM444 1148l292 296h219l-180 -296h-331z" />
    <glyph glyph-name="Hcircumflex" unicode="&#x124;" horiz-adv-x="1427" vert-adv-y="2457" 
d="M147 0v1413h307v-572h519v572h307v-1413h-307v634h-519v-634h-307zM713 1734l-172 -168h-228l235 297h331l235 -297h-228z" />
    <glyph glyph-name="hcircumflex" unicode="&#x125;" horiz-adv-x="1188" vert-adv-y="2457" 
d="M135 0v1113q0 149 -11 329l301 62v-629q141 136 315 136q196 0 273 -128q46 -77 46 -252v-631h-290v569q0 117 -16 160q-27 68 -103 68q-104 0 -186 -119q-30 -43 -36 -84q-3 -21 -3 -64v-530h-290zM345 1775l-172 -168h-228l235 297h331l235 -297h-228z" />
    <glyph glyph-name="Hbar" unicode="&#x126;" horiz-adv-x="1442" vert-adv-y="2457" 
d="M155 0v1002h-153v159h153v252h307v-252h518v252h307v-252h154v-159h-154v-1002h-307v610h-518v-610h-307zM462 811h518v191h-518v-191z" />
    <glyph glyph-name="hbar" unicode="&#x127;" horiz-adv-x="1188" vert-adv-y="2457" 
d="M135 0v1120h-142v159h138v29q-1 60 -7 134l301 61v-224h274v-159h-274v-245q141 136 315 136q196 0 273 -128q46 -77 46 -252v-631h-290v569q0 117 -17 160q-26 68 -103 68q-103 0 -185 -119q-30 -43 -36 -84q-3 -19 -3 -64v-530h-290z" />
    <glyph glyph-name="Itilde" unicode="&#x128;" horiz-adv-x="632" vert-adv-y="2457" 
d="M162 0v1413h307v-1413h-307zM97 1568h-190q23 141 68 213q69 112 196 112q65 0 121 -29q28 -15 88 -73q56 -54 83 -54q53 0 68 143h193q-13 -136 -53 -209q-63 -117 -207 -117q-87 0 -149 48q-17 12 -67 62q-47 46 -71 46q-37 0 -60 -59q-6 -18 -20 -83z" />
    <glyph glyph-name="itilde" unicode="&#x129;" horiz-adv-x="567" vert-adv-y="2457" 
d="M139 0v983h290v-983h-290zM65 1149h-190q23 141 68 213q70 112 196 112q65 0 121 -29q30 -16 88 -73q56 -54 83 -54q53 0 68 143h193q-13 -136 -53 -209q-63 -117 -207 -117q-87 0 -149 48q-17 13 -67 62q-47 46 -71 46q-37 0 -60 -59q-6 -19 -20 -83z" />
    <glyph glyph-name="Imacron" unicode="&#x12a;" horiz-adv-x="632" vert-adv-y="2457" 
d="M162 0v1413h307v-1413h-307zM-43 1633v174h717v-174h-717z" />
    <glyph glyph-name="imacron" unicode="&#x12b;" horiz-adv-x="567" vert-adv-y="2457" 
d="M139 0v983h290v-983h-290zM-75 1202v174h717v-174h-717z" />
    <glyph glyph-name="Ibreve" unicode="&#x12c;" horiz-adv-x="632" vert-adv-y="2457" 
d="M163 0v1413h307v-1413h-307zM-76 1884h203q8 -60 30 -95q41 -61 159 -61q125 0 165 72q17 31 24 84h203q-3 -126 -48 -197q-46 -71 -125 -103q-84 -35 -219 -35q-180 0 -269 62q-94 65 -116 186q-6 35 -7 87z" />
    <glyph glyph-name="ibreve" unicode="&#x12d;" horiz-adv-x="567" vert-adv-y="2457" 
d="M140 0v983h290v-983h-290zM-108 1465h203q8 -60 30 -95q41 -61 159 -61q125 0 165 72q17 31 24 84h203q-3 -126 -48 -197q-46 -71 -125 -103q-84 -35 -219 -35q-180 0 -269 62q-94 65 -116 186q-6 35 -7 87z" />
    <glyph glyph-name="Iogonek" unicode="&#x12e;" horiz-adv-x="632" vert-adv-y="2457" 
d="M162 0v1413h307v-1413q-111 -92 -149 -135q-88 -97 -88 -202q0 -70 36 -99q30 -25 94 -25q72 0 150 35l21 -122q-98 -32 -204 -32q-164 0 -252 66q-79 59 -79 167q0 209 306 347h-142z" />
    <glyph glyph-name="iogonek" unicode="&#x12f;" horiz-adv-x="569" vert-adv-y="2457" 
d="M141 0v983h290v-983q-111 -92 -149 -135q-89 -98 -89 -202q0 -70 36 -99q31 -25 95 -25q72 0 150 35l20 -122q-97 -32 -203 -32q-165 0 -253 66q-79 59 -79 167q0 210 308 347h-126zM285 1457q73 0 122 -49t49 -115q0 -67 -49 -116q-48 -49 -121 -49q-74 0 -122 49
q-49 49 -49 117q0 67 49 114q50 49 121 49z" />
    <glyph glyph-name="Idotaccent" unicode="&#x130;" horiz-adv-x="632" vert-adv-y="2457" 
d="M162 0v1413h307v-1413h-307zM316 1883q72 0 121 -49q49 -48 49 -115t-49 -116t-121 -49q-73 0 -122 49t-49 117q0 67 49 114q50 49 122 49z" />
    <glyph glyph-name="IJ" unicode="&#x132;" horiz-adv-x="1289" vert-adv-y="2457" 
d="M162 0v1413h307v-1413h-307zM819 1413h307v-1140q0 -205 -18 -328q-60 -415 -492 -415q-100 0 -205 18l22 211q93 -27 171 -27q143 0 185 135q30 98 30 355v1191z" />
    <glyph glyph-name="ij" unicode="&#x133;" horiz-adv-x="1143" vert-adv-y="2457" 
d="M141 0v983h290v-983h-290zM286 1457q72 0 121 -49q49 -48 49 -115t-49 -116q-48 -49 -121 -49q-74 0 -122 49q-49 49 -49 117q0 67 49 114q50 49 122 49zM713 983h290v-770q0 -198 -17 -314q-57 -385 -456 -385q-77 0 -170 13l22 193q76 -21 141 -21q124 0 161 116
q29 90 29 324v844zM857 1457q73 0 122 -49q49 -48 49 -115t-49 -116t-121 -49q-74 0 -122 49q-49 49 -49 117q0 67 49 114q50 49 121 49z" />
    <glyph glyph-name="Jcircumflex" unicode="&#x134;" horiz-adv-x="657" vert-adv-y="2457" 
d="M188 1413h307v-1140q0 -205 -18 -328q-60 -415 -492 -415q-100 0 -205 18l22 211q93 -27 171 -27q143 0 185 135q30 98 30 355v1191zM328 1734l-172 -168h-228l235 297h331l235 -297h-228z" />
    <glyph glyph-name="jcircumflex" unicode="&#x135;" horiz-adv-x="574" vert-adv-y="2457" 
d="M143 983h290v-782q0 -194 -17 -307q-57 -380 -455 -380q-85 0 -178 14l21 192q80 -21 150 -21q123 0 160 112q29 87 29 316v856zM286 1315l-172 -167h-228l235 296h331l235 -296h-228z" />
    <glyph glyph-name="Kcommaaccent" unicode="&#x136;" horiz-adv-x="1280" vert-adv-y="2457" 
d="M147 0v1413h307v-596l506 596h328l-548 -628l592 -785h-357l-521 716v-716h-307zM413 -457l136 313h310l-227 -313h-219z" />
    <glyph glyph-name="kcommaaccent" unicode="&#x137;" horiz-adv-x="1048" vert-adv-y="2457" 
d="M134 0v1113q0 149 -11 329l301 62v-892l372 371h294l-400 -380l440 -603h-323l-383 545v-545h-290zM309 -457l136 313h310l-227 -313h-219z" />
    <glyph glyph-name="kgreenlandic" unicode="&#x138;" horiz-adv-x="1048" vert-adv-y="2457" 
d="M134 0v654q0 149 -11 329h301v-371l372 371h294l-400 -380l440 -603h-323l-383 545v-545h-290z" />
    <glyph glyph-name="Lacute" unicode="&#x139;" horiz-adv-x="1063" vert-adv-y="2457" 
d="M147 0v1413h307v-1206h600v-207h-907zM203 1566l180 297h331l-291 -297h-220z" />
    <glyph glyph-name="lacute" unicode="&#x13a;" horiz-adv-x="568" vert-adv-y="2457" 
d="M139 0v1113q0 149 -11 329l301 62v-1504h-290zM163 1607l180 296h331l-291 -296h-220z" />
    <glyph glyph-name="Lcommaaccent" unicode="&#x13b;" horiz-adv-x="1063" vert-adv-y="2457" 
d="M147 0v1413h307v-1206h600v-207h-907zM321 -457l136 313h310l-227 -313h-219z" />
    <glyph glyph-name="lcommaaccent" unicode="&#x13c;" horiz-adv-x="568" vert-adv-y="2457" 
d="M139 0v1113q0 149 -11 329l301 62v-1504h-290zM-3 -457l136 313h310l-227 -313h-219z" />
    <glyph glyph-name="Lcaron" unicode="&#x13d;" horiz-adv-x="1063" vert-adv-y="2457" 
d="M147 0v1413h307v-1206h600v-207h-907zM621 962l73 530h283l-145 -530h-211z" />
    <glyph glyph-name="lcaron" unicode="&#x13e;" horiz-adv-x="869" vert-adv-y="2457" 
d="M139 0v1113q0 149 -11 329l301 62v-1504h-290zM564 962l73 530h283l-145 -530h-211z" />
    <glyph glyph-name="Ldot" unicode="&#x13f;" horiz-adv-x="1063" vert-adv-y="2457" 
d="M147 0v1413h307v-1206h600v-207h-907zM792 869q81 0 134 -61q45 -51 45 -115q0 -76 -58 -129q-51 -47 -124 -47q-84 0 -137 61q-45 51 -45 116q0 74 58 128q51 47 127 47z" />
    <glyph glyph-name="ldot" unicode="&#x140;" horiz-adv-x="928" vert-adv-y="2457" 
d="M139 0v1113q0 149 -11 329l301 62v-1504h-290zM751 816q81 0 134 -61q45 -51 45 -115q0 -76 -58 -129q-51 -47 -124 -47q-84 0 -137 61q-45 51 -45 116q0 74 58 128q51 47 127 47z" />
    <glyph glyph-name="Lslash" unicode="&#x141;" horiz-adv-x="1083" vert-adv-y="2457" 
d="M168 0v402l-146 -92v215l146 89v799h307v-625l394 236v-227l-394 -225v-365h600v-207h-907z" />
    <glyph glyph-name="lslash" unicode="&#x142;" horiz-adv-x="722" vert-adv-y="2457" 
d="M216 0v525l-190 -114v216l190 114v372q0 155 -11 329l301 62v-596l201 120v-217l-201 -119v-692h-290z" />
    <glyph glyph-name="Nacute" unicode="&#x143;" horiz-adv-x="1424" vert-adv-y="2457" 
d="M147 0v1413h302l354 -635q69 -124 161 -294l43 -81q-8 141 -8 421v589h278v-1413h-296l-355 640q-33 61 -209 386q8 -189 8 -365v-661h-278zM573 1566l180 297h331l-291 -297h-220z" />
    <glyph glyph-name="nacute" unicode="&#x144;" horiz-adv-x="1186" vert-adv-y="2457" 
d="M134 0v596q0 177 -11 387h259l16 -136q145 164 340 164t272 -128q46 -77 46 -252v-631h-290v569q0 118 -16 160q-27 68 -103 68q-103 0 -184 -119q-29 -42 -35 -84q-4 -25 -4 -63v-531h-290zM461 1148l180 296h331l-291 -296h-220z" />
    <glyph glyph-name="Ncommaaccent" unicode="&#x145;" horiz-adv-x="1424" vert-adv-y="2457" 
d="M147 0v1413h302l354 -635q69 -124 161 -294l43 -81q-8 141 -8 421v589h278v-1413h-296l-355 640q-33 61 -209 386q8 -189 8 -365v-661h-278zM487 -457l136 313h310l-227 -313h-219z" />
    <glyph glyph-name="ncommaaccent" unicode="&#x146;" horiz-adv-x="1186" vert-adv-y="2457" 
d="M134 0v596q0 177 -11 387h259l16 -136q145 164 340 164t272 -128q46 -77 46 -252v-631h-290v569q0 118 -16 160q-27 68 -103 68q-103 0 -184 -119q-29 -42 -35 -84q-4 -25 -4 -63v-531h-290zM315 -457l136 313h310l-227 -313h-219z" />
    <glyph glyph-name="Ncaron" unicode="&#x147;" horiz-adv-x="1424" vert-adv-y="2457" 
d="M147 0v1413h302l354 -635q69 -124 161 -294l43 -81q-8 141 -8 421v589h278v-1413h-296l-355 640q-33 61 -209 386q8 -189 8 -365v-661h-278zM720 1695l172 168h228l-235 -297h-331l-235 297h228z" />
    <glyph glyph-name="ncaron" unicode="&#x148;" horiz-adv-x="1186" vert-adv-y="2457" 
d="M134 0v596q0 177 -11 387h259l16 -136q145 164 340 164t272 -128q46 -77 46 -252v-631h-290v569q0 118 -16 160q-27 68 -103 68q-103 0 -184 -119q-29 -42 -35 -84q-4 -25 -4 -63v-531h-290zM590 1277l172 167h228l-235 -296h-331l-235 296h228z" />
    <glyph glyph-name="napostrophe" unicode="&#x149;" horiz-adv-x="1186" vert-adv-y="2457" 
d="M134 0v596q0 202 -11 387h259l16 -136q145 164 340 164t272 -128q46 -77 46 -252v-631h-290v569q0 117 -16 160q-27 68 -103 68q-103 0 -184 -119q-30 -43 -36 -84q-3 -23 -3 -63v-531h-290zM5 1064l59 428h284l-132 -428h-211z" />
    <glyph glyph-name="Eng" unicode="&#x14a;" horiz-adv-x="1424" vert-adv-y="2457" 
d="M147 0v1413h302l354 -635q69 -124 161 -294l43 -81q-8 141 -8 421v589h278v-1212q0 -194 -17 -307q-57 -380 -455 -380q-84 0 -178 14l21 193q79 -22 150 -22q121 0 163 94q34 78 34 180v27h-16l-353 640q-34 61 -209 386q8 -189 8 -365v-661h-278z" />
    <glyph glyph-name="eng" unicode="&#x14b;" horiz-adv-x="1186" vert-adv-y="2457" 
d="M134 0v596q0 177 -11 387h259l16 -136q145 164 340 164t272 -128q46 -77 46 -252v-430q0 -194 -17 -307q-57 -380 -455 -380q-84 0 -178 14l22 193q77 -22 149 -22q123 0 160 112q29 87 29 316v442q0 118 -16 160q-27 68 -103 68q-103 0 -184 -119q-29 -42 -35 -84
q-4 -25 -4 -63v-531h-290z" />
    <glyph glyph-name="Omacron" unicode="&#x14c;" horiz-adv-x="1428" vert-adv-y="2457" 
d="M724 1441q328 0 491 -223q138 -189 138 -511q0 -321 -138 -512q-162 -223 -501 -223q-340 0 -502 223q-138 190 -138 509q0 324 138 514q163 223 512 223zM719 1239q-168 0 -247 -142q-81 -145 -81 -394q0 -242 81 -387q79 -142 242 -142q162 0 241 142q81 146 81 390
q0 249 -81 391t-236 142zM355 1633v174h717v-174h-717z" />
    <glyph glyph-name="omacron" unicode="&#x14d;" horiz-adv-x="1143" vert-adv-y="2457" 
d="M579 1011q234 0 370 -145q126 -136 126 -374q0 -236 -126 -374q-133 -146 -377 -146q-245 0 -378 146q-126 138 -126 371q0 242 126 377q136 145 385 145zM575 817q-106 0 -159 -95q-49 -87 -49 -232q0 -141 48 -229q53 -95 157 -95q103 0 155 95q49 89 49 231
q0 144 -49 230q-53 95 -152 95zM213 1202v174h717v-174h-717z" />
    <glyph glyph-name="Obreve" unicode="&#x14e;" horiz-adv-x="1428" vert-adv-y="2457" 
d="M724 1441q328 0 491 -223q138 -189 138 -511q0 -321 -138 -512q-162 -223 -501 -223q-340 0 -502 223q-138 190 -138 509q0 324 138 514q163 223 512 223zM719 1239q-168 0 -247 -142q-81 -145 -81 -394q0 -242 81 -387q79 -142 242 -142q162 0 241 142q81 146 81 390
q0 249 -81 391t-236 142zM322 1884h203q8 -60 30 -95q41 -61 159 -61q125 0 165 72q17 31 24 84h203q-3 -126 -48 -197q-46 -71 -125 -103q-84 -35 -219 -35q-180 0 -269 62q-94 65 -116 186q-6 35 -7 87z" />
    <glyph glyph-name="obreve" unicode="&#x14f;" horiz-adv-x="1143" vert-adv-y="2457" 
d="M579 1011q234 0 370 -145q126 -136 126 -374q0 -236 -126 -374q-133 -146 -377 -146q-245 0 -378 146q-126 138 -126 371q0 242 126 377q136 145 385 145zM575 817q-106 0 -159 -95q-49 -87 -49 -232q0 -141 48 -229q53 -95 157 -95q103 0 155 95q49 89 49 231
q0 144 -49 230q-53 95 -152 95zM180 1465h203q8 -60 30 -95q41 -61 159 -61q125 0 165 72q17 31 24 84h203q-3 -126 -48 -197q-46 -71 -125 -103q-84 -35 -219 -35q-180 0 -269 62q-94 65 -116 186q-6 35 -7 87z" />
    <glyph glyph-name="Ohungarumlaut" unicode="&#x150;" horiz-adv-x="1428" vert-adv-y="2457" 
d="M724 1441q328 0 491 -223q138 -189 138 -511q0 -321 -138 -512q-162 -223 -501 -223q-340 0 -502 223q-138 190 -138 509q0 324 138 514q163 223 512 223zM719 1239q-168 0 -247 -142q-81 -145 -81 -394q0 -242 81 -387q79 -142 242 -142q162 0 241 142q81 146 81 390
q0 249 -81 391t-236 142zM382 1566l161 297h305l-259 -297h-207zM793 1566l161 297h305l-259 -297h-207z" />
    <glyph glyph-name="ohungarumlaut" unicode="&#x151;" horiz-adv-x="1143" vert-adv-y="2457" 
d="M579 1011q234 0 370 -145q126 -136 126 -374q0 -236 -126 -374q-133 -146 -377 -146q-245 0 -378 146q-126 138 -126 371q0 242 126 377q136 145 385 145zM575 817q-106 0 -159 -95q-49 -87 -49 -232q0 -141 48 -229q53 -95 157 -95q103 0 155 95q49 89 49 231
q0 144 -49 230q-53 95 -152 95zM240 1148l161 296h305l-259 -296h-207zM651 1148l161 296h305l-259 -296h-207z" />
    <glyph glyph-name="Racute" unicode="&#x154;" horiz-adv-x="1271" vert-adv-y="2457" 
d="M147 0v1413h446q290 0 418 -81q165 -104 165 -328q0 -192 -116 -297q-51 -46 -167 -91q63 -50 95 -92q34 -44 86 -143l202 -381h-332l-183 378q-64 132 -86 159q-30 37 -94 37h-127v-574h-307zM454 745h169q131 0 188 58q56 59 56 178q0 128 -64 184q-55 49 -180 49h-169
v-469zM468 1566l180 297h331l-291 -297h-220z" />
    <glyph glyph-name="racute" unicode="&#x155;" horiz-adv-x="774" vert-adv-y="2457" 
d="M135 0v600q0 213 -12 383h276q7 -64 12 -129q52 72 84 99q70 58 163 58q53 0 113 -13l-32 -243q-73 29 -122 29q-95 0 -153 -118q-39 -80 -39 -201v-465h-290zM312 1148l180 296h331l-291 -296h-220z" />
    <glyph glyph-name="Rcommaaccent" unicode="&#x156;" horiz-adv-x="1271" vert-adv-y="2457" 
d="M147 0v1413h446q290 0 418 -81q165 -104 165 -328q0 -192 -116 -297q-51 -46 -167 -91q63 -50 95 -92q34 -44 86 -143l202 -381h-332l-183 378q-64 132 -86 159q-30 37 -94 37h-127v-574h-307zM454 745h169q131 0 188 58q56 59 56 178q0 128 -64 184q-55 49 -180 49h-169
v-469zM411 -457l136 313h310l-227 -313h-219z" />
    <glyph glyph-name="rcommaaccent" unicode="&#x157;" horiz-adv-x="774" vert-adv-y="2457" 
d="M135 0v600q0 213 -12 383h276q7 -64 12 -129q52 72 84 99q70 58 163 58q53 0 113 -13l-32 -243q-73 29 -122 29q-95 0 -153 -118q-39 -80 -39 -201v-465h-290zM12 -457l136 313h310l-227 -313h-219z" />
    <glyph glyph-name="Rcaron" unicode="&#x158;" horiz-adv-x="1271" vert-adv-y="2457" 
d="M147 0v1413h446q290 0 418 -81q165 -104 165 -328q0 -192 -116 -297q-51 -46 -167 -91q63 -50 95 -92q34 -44 86 -143l202 -381h-332l-183 378q-64 132 -86 159q-30 37 -94 37h-127v-574h-307zM454 745h169q131 0 188 58q56 59 56 178q0 128 -64 184q-55 49 -180 49h-169
v-469zM613 1695l172 168h228l-235 -297h-331l-235 297h228z" />
    <glyph glyph-name="rcaron" unicode="&#x159;" horiz-adv-x="774" vert-adv-y="2457" 
d="M135 0v600q0 213 -12 383h276q7 -64 12 -129q52 72 84 99q70 58 163 58q53 0 113 -13l-32 -243q-73 29 -122 29q-95 0 -153 -118q-39 -80 -39 -201v-465h-290zM448 1277l172 167h228l-235 -296h-331l-235 296h228z" />
    <glyph glyph-name="Sacute" unicode="&#x15a;" horiz-adv-x="1087" vert-adv-y="2457" 
d="M50 52l40 234q208 -112 404 -112q235 0 235 180q0 70 -30 114q-26 38 -74 64q-51 29 -126 60q-158 67 -233 118q-114 77 -157 172q-33 70 -33 157q0 197 134 305q120 97 342 97q186 0 380 -64l-55 -226q-66 33 -115 51q-97 37 -189 37q-193 0 -193 -170q0 -82 52 -129
q39 -34 89 -59q50 -24 122 -57q144 -65 207 -107q108 -74 150 -170q33 -75 33 -169q0 -199 -131 -303q-79 -63 -181 -83q-98 -20 -210 -20q-279 0 -461 80zM423 1566l180 297h331l-291 -297h-220z" />
    <glyph glyph-name="sacute" unicode="&#x15b;" horiz-adv-x="877" vert-adv-y="2457" 
d="M50 27l35 206q71 -30 113 -43q91 -27 191 -27q159 0 159 93q0 40 -39 70q-35 28 -161 85q-151 67 -212 129q-68 69 -68 181q0 153 110 225q98 65 267 65q154 0 306 -57l-53 -208q-31 24 -71 40q-83 35 -159 35q-124 0 -124 -79q0 -43 45 -74q34 -23 158 -83
q156 -74 210 -129q67 -68 67 -182q0 -302 -403 -302q-198 0 -371 55zM294 1148l180 296h331l-291 -296h-220z" />
    <glyph glyph-name="Scircumflex" unicode="&#x15c;" horiz-adv-x="1087" vert-adv-y="2457" 
d="M50 52l40 234q208 -112 404 -112q235 0 235 180q0 70 -30 114q-26 38 -74 64q-51 29 -126 60q-158 67 -233 118q-114 77 -157 172q-33 70 -33 157q0 197 134 305q120 97 342 97q186 0 380 -64l-55 -226q-66 33 -115 51q-97 37 -189 37q-193 0 -193 -170q0 -82 52 -129
q39 -34 89 -59q50 -24 122 -57q144 -65 207 -107q108 -74 150 -170q33 -75 33 -169q0 -199 -131 -303q-79 -63 -181 -83q-98 -20 -210 -20q-279 0 -461 80zM566 1734l-172 -168h-228l235 297h331l235 -297h-228z" />
    <glyph glyph-name="scircumflex" unicode="&#x15d;" horiz-adv-x="877" vert-adv-y="2457" 
d="M50 27l35 206q71 -30 113 -43q91 -27 191 -27q159 0 159 93q0 40 -39 70q-35 28 -161 85q-151 67 -212 129q-68 69 -68 181q0 153 110 225q98 65 267 65q154 0 306 -57l-53 -208q-31 24 -71 40q-83 35 -159 35q-124 0 -124 -79q0 -43 45 -74q34 -23 158 -83
q156 -74 210 -129q67 -68 67 -182q0 -302 -403 -302q-198 0 -371 55zM474 1315l-172 -167h-228l235 296h331l235 -296h-228z" />
    <glyph glyph-name="Scedilla" unicode="&#x15e;" horiz-adv-x="1087" vert-adv-y="2457" 
d="M50 52l40 234q206 -111 404 -111q235 0 235 180q0 70 -30 114q-26 38 -74 64q-51 28 -126 60q-158 67 -233 117q-114 78 -157 172q-33 70 -33 157q0 195 134 305q118 97 342 97q186 0 380 -64l-55 -226q-66 33 -115 51q-97 37 -189 37q-193 0 -193 -170q0 -82 52 -129
q39 -34 89 -59q49 -24 122 -57q143 -64 207 -107q108 -74 150 -170q33 -75 33 -169q0 -269 -236 -363q-79 -32 -213 -40l-84 -123q103 -11 156 -37q91 -46 91 -165q0 -103 -76 -164q-73 -57 -206 -57q-111 0 -220 39l34 117q80 -37 138 -37q96 0 96 107q0 119 -119 119
q-18 0 -44 -3l-16 43l109 160q-239 11 -393 78z" />
    <glyph glyph-name="scedilla" unicode="&#x15f;" horiz-adv-x="877" vert-adv-y="2457" 
d="M50 27l35 206q163 -70 304 -70q159 0 159 93q0 40 -39 70q-35 28 -161 85q-151 67 -212 129q-68 69 -68 181q0 153 110 225q97 65 267 65q154 0 306 -57l-53 -208q-31 24 -71 40q-82 35 -159 35q-124 0 -124 -79q0 -43 45 -74q33 -23 158 -83q155 -74 210 -129
q67 -67 67 -182q0 -272 -328 -299l-84 -123q103 -10 156 -37q91 -46 91 -166q0 -102 -76 -163q-72 -57 -206 -57q-111 0 -220 39l34 117q80 -37 138 -37q96 0 96 107q0 119 -118 119q-19 0 -45 -3l-16 43l109 160q-167 10 -305 53z" />
    <glyph glyph-name="Scaron" unicode="&#x160;" horiz-adv-x="1087" vert-adv-y="2457" 
d="M50 52l40 234q208 -112 404 -112q235 0 235 180q0 70 -30 114q-26 38 -74 64q-51 29 -126 60q-158 67 -233 118q-114 77 -157 172q-33 70 -33 157q0 197 134 305q120 97 342 97q186 0 380 -64l-55 -226q-66 33 -115 51q-97 37 -189 37q-193 0 -193 -170q0 -82 52 -129
q39 -34 89 -59q50 -24 122 -57q144 -65 207 -107q108 -74 150 -170q33 -75 33 -169q0 -199 -131 -303q-79 -63 -181 -83q-98 -20 -210 -20q-279 0 -461 80zM567 1695l172 168h228l-235 -297h-331l-235 297h228z" />
    <glyph glyph-name="scaron" unicode="&#x161;" horiz-adv-x="877" vert-adv-y="2457" 
d="M43 27l35 206q71 -30 113 -43q91 -27 191 -27q159 0 159 93q0 40 -39 70q-35 28 -161 85q-151 67 -212 129q-68 69 -68 181q0 153 110 225q98 65 267 65q154 0 306 -57l-53 -208q-31 24 -71 40q-83 35 -159 35q-124 0 -124 -79q0 -43 45 -74q34 -23 158 -83
q156 -74 210 -129q67 -68 67 -182q0 -302 -403 -302q-198 0 -371 55zM445 1277l172 167h228l-235 -296h-331l-235 296h228z" />
    <glyph glyph-name="Tcommaaccent" unicode="&#x162;" horiz-adv-x="1186" vert-adv-y="2457" 
d="M439 0v1206h-400v207h1107v-207h-400v-1206h-307zM313 -457l136 313h310l-227 -313h-219z" />
    <glyph glyph-name="tcommaaccent" unicode="&#x163;" horiz-adv-x="746" vert-adv-y="2457" 
d="M164 782h-179l18 201h169l17 268l265 57v-325h282l-18 -201h-264v-384q0 -135 19 -177q24 -55 100 -55q82 0 165 42l26 -197q-127 -39 -281 -39q-132 0 -197 37q-86 49 -109 168q-13 70 -13 188v417zM127 -457l136 313h310l-227 -313h-219z" />
    <glyph glyph-name="Tcaron" unicode="&#x164;" horiz-adv-x="1186" vert-adv-y="2457" 
d="M439 0v1206h-400v207h1107v-207h-400v-1206h-307zM593 1695l172 168h228l-235 -297h-331l-235 297h228z" />
    <glyph glyph-name="tcaron" unicode="&#x165;" horiz-adv-x="938" vert-adv-y="2457" 
d="M164 782h-179l18 201h169l17 268l265 57v-325h282l-18 -201h-264v-384q0 -135 19 -177q24 -55 100 -55q82 0 165 42l26 -197q-127 -39 -281 -39q-132 0 -197 37q-86 49 -109 168q-13 70 -13 188v417zM634 1140l73 530h283l-145 -530h-211z" />
    <glyph glyph-name="Tbar" unicode="&#x166;" horiz-adv-x="1186" vert-adv-y="2457" 
d="M439 741h-347v172h347v293h-400v207h1107v-207h-400v-293h347v-172h-347v-741h-307v741z" />
    <glyph glyph-name="tbar" unicode="&#x167;" horiz-adv-x="746" vert-adv-y="2457" 
d="M164 782h-179l18 201h169l17 268l265 57v-325h282l-18 -201h-264v-154h223v-160h-223v-89q0 -116 19 -158q24 -55 100 -55q81 0 165 42l26 -197q-127 -39 -281 -39q-132 0 -197 37q-86 49 -109 168q-13 70 -13 188v103h-160v160h160v154z" />
    <glyph glyph-name="Utilde" unicode="&#x168;" horiz-adv-x="1335" vert-adv-y="2457" 
d="M137 1413h307v-915q0 -163 32 -222q54 -102 206 -102q165 0 214 119q24 57 24 205v915h278v-928q0 -119 -10 -182q-29 -178 -172 -258q-129 -73 -347 -73q-377 0 -484 208q-36 71 -45 181q-3 39 -3 124v928zM464 1568h-190q23 141 68 213q69 112 196 112q65 0 121 -29
q28 -15 88 -73q56 -54 83 -54q53 0 68 143h193q-13 -136 -53 -209q-63 -117 -207 -117q-87 0 -149 48q-17 12 -67 62q-47 46 -71 46q-37 0 -60 -59q-6 -18 -20 -83z" />
    <glyph glyph-name="utilde" unicode="&#x169;" horiz-adv-x="1158" vert-adv-y="2457" 
d="M127 983h290v-559q0 -121 18 -168q27 -71 102 -71q119 0 196 127v671h290v-691q0 -165 20 -292h-275q-11 53 -19 110q-126 -138 -306 -138q-195 0 -271 137q-45 83 -45 266v608zM360 1149h-190q23 141 68 213q70 112 196 112q65 0 121 -29q30 -16 88 -73q56 -54 83 -54
q53 0 68 143h193q-13 -136 -53 -209q-63 -117 -207 -117q-87 0 -149 48q-17 13 -67 62q-47 46 -71 46q-37 0 -60 -59q-6 -19 -20 -83z" />
    <glyph glyph-name="Umacron" unicode="&#x16a;" horiz-adv-x="1335" vert-adv-y="2457" 
d="M137 1413h307v-915q0 -163 32 -222q54 -102 206 -102q165 0 214 119q24 57 24 205v915h278v-928q0 -119 -10 -182q-29 -178 -172 -258q-129 -73 -347 -73q-377 0 -484 208q-36 71 -45 181q-3 39 -3 124v928zM309 1633v174h717v-174h-717z" />
    <glyph glyph-name="umacron" unicode="&#x16b;" horiz-adv-x="1158" vert-adv-y="2457" 
d="M127 983h290v-559q0 -121 18 -168q27 -71 102 -71q119 0 196 127v671h290v-691q0 -165 20 -292h-275q-11 53 -19 110q-126 -138 -306 -138q-195 0 -271 137q-45 83 -45 266v608zM220 1202v174h717v-174h-717z" />
    <glyph glyph-name="Ubreve" unicode="&#x16c;" horiz-adv-x="1335" vert-adv-y="2457" 
d="M137 1413h307v-915q0 -163 32 -222q54 -102 206 -102q165 0 214 119q24 57 24 205v915h278v-928q0 -119 -10 -182q-29 -178 -172 -258q-129 -73 -347 -73q-377 0 -484 208q-36 71 -45 181q-3 39 -3 124v928zM276 1884h203q8 -60 30 -95q41 -61 159 -61q125 0 165 72
q17 31 24 84h203q-3 -126 -48 -197q-46 -71 -125 -103q-84 -35 -219 -35q-180 0 -269 62q-94 65 -116 186q-6 35 -7 87z" />
    <glyph glyph-name="ubreve" unicode="&#x16d;" horiz-adv-x="1158" vert-adv-y="2457" 
d="M127 983h290v-559q0 -121 18 -168q27 -71 102 -71q119 0 196 127v671h290v-691q0 -165 20 -292h-275q-11 53 -19 110q-126 -138 -306 -138q-195 0 -271 137q-45 83 -45 266v608zM187 1465h203q8 -60 30 -95q41 -61 159 -61q125 0 165 72q17 31 24 84h203
q-3 -126 -48 -197q-46 -71 -125 -103q-84 -35 -219 -35q-180 0 -269 62q-94 65 -116 186q-6 35 -7 87z" />
    <glyph glyph-name="Uring" unicode="&#x16e;" horiz-adv-x="1335" vert-adv-y="2457" 
d="M137 1413h307v-915q0 -163 32 -222q54 -102 206 -102q165 0 214 119q24 57 24 205v915h278v-928q0 -119 -10 -182q-29 -178 -172 -258q-129 -73 -347 -73q-377 0 -484 208q-36 71 -45 181q-3 39 -3 124v928zM671 2003q118 0 191 -63q75 -64 75 -162t-76 -165
q-75 -66 -194 -66q-118 0 -193 66q-76 67 -76 164q0 101 75 163q75 63 198 63zM669 1915q-101 0 -101 -141q0 -139 99 -139q100 0 100 140t-98 140z" />
    <glyph glyph-name="uring" unicode="&#x16f;" horiz-adv-x="1158" vert-adv-y="2457" 
d="M127 983h290v-559q0 -121 18 -168q27 -71 102 -71q119 0 196 127v671h290v-691q0 -165 20 -292h-275q-11 53 -19 110q-126 -138 -306 -138q-195 0 -271 137q-45 83 -45 266v608zM582 1584q118 0 191 -62q75 -64 75 -163q0 -98 -76 -164q-75 -66 -194 -66q-118 0 -193 66
q-76 67 -76 164q0 100 75 163q74 62 198 62zM580 1496q-101 0 -101 -140q0 -139 99 -139q100 0 100 139q0 140 -98 140z" />
    <glyph glyph-name="Uhungarumlaut" unicode="&#x170;" horiz-adv-x="1335" vert-adv-y="2457" 
d="M137 1413h307v-915q0 -163 32 -222q54 -102 206 -102q165 0 214 119q24 57 24 205v915h278v-928q0 -119 -10 -182q-29 -178 -172 -258q-129 -73 -347 -73q-377 0 -484 208q-36 71 -45 181q-3 39 -3 124v928zM336 1566l161 297h305l-259 -297h-207zM747 1566l161 297h305
l-259 -297h-207z" />
    <glyph glyph-name="uhungarumlaut" unicode="&#x171;" horiz-adv-x="1158" vert-adv-y="2457" 
d="M127 983h290v-559q0 -121 18 -168q27 -71 102 -71q119 0 196 127v671h290v-691q0 -165 20 -292h-275q-11 53 -19 110q-126 -138 -306 -138q-195 0 -271 137q-45 83 -45 266v608zM247 1148l161 296h305l-259 -296h-207zM658 1148l161 296h305l-259 -296h-207z" />
    <glyph glyph-name="Uogonek" unicode="&#x172;" horiz-adv-x="1335" vert-adv-y="2457" 
d="M137 1413h307v-915q0 -163 32 -222q54 -101 206 -101q166 0 214 118q24 58 24 205v915h278v-928q0 -119 -10 -182q-28 -172 -160 -251q-49 -30 -120 -51q-113 -97 -146 -134q-89 -98 -89 -204q0 -71 36 -99q31 -25 95 -25q72 0 150 35l21 -122q-98 -32 -204 -32
q-165 0 -253 66q-79 59 -79 168q0 187 243 318q-299 2 -433 124q-87 80 -106 236q-6 49 -6 153v928z" />
    <glyph glyph-name="uogonek" unicode="&#x173;" horiz-adv-x="1158" vert-adv-y="2457" 
d="M127 983h290v-559q0 -121 18 -168q27 -71 102 -71q119 0 196 127v671h290v-691q0 -165 20 -292q-112 -93 -150 -135q-88 -97 -88 -202q0 -70 36 -99q30 -25 95 -25q72 0 149 35l21 -122q-98 -32 -204 -32q-164 0 -252 66q-79 59 -79 167q0 213 313 347h-116
q-11 53 -19 110q-126 -138 -306 -138q-195 0 -271 137q-45 83 -45 266v608z" />
    <glyph glyph-name="Wcircumflex" unicode="&#x174;" horiz-adv-x="1819" vert-adv-y="2457" 
d="M379 0l-381 1413h297l143 -549q12 -44 56 -262l30 -150l20 -105q18 79 64 295q64 266 74 302l129 469h219l130 -469q55 -201 144 -615q62 410 113 608l122 476h283l-385 -1413h-275l-157 595q-52 197 -91 428q-58 -302 -105 -477l-145 -546h-285zM909 1734l-172 -168
h-228l235 297h331l235 -297h-228z" />
    <glyph glyph-name="wcircumflex" unicode="&#x175;" horiz-adv-x="1574" vert-adv-y="2457" 
d="M336 0l-335 983h306l118 -377q12 -38 46 -168l17 -67l16 -60l14 60l14 57q33 139 43 173l110 382h243l106 -388q5 -18 39 -163l15 -64l13 -57q11 43 31 125q23 96 45 168l118 379h279l-346 -983h-279l-111 423q-22 82 -52 224l-13 -57q-30 -129 -43 -175l-115 -415h-279z
M787 1315l-172 -167h-228l235 296h331l235 -296h-228z" />
    <glyph glyph-name="Ycircumflex" unicode="&#x176;" horiz-adv-x="1126" vert-adv-y="2457" 
d="M409 0v536l-471 877h340l200 -379q33 -64 102 -224q72 171 111 244l190 359h308l-473 -877v-536h-307zM562 1734l-172 -168h-228l235 297h331l235 -297h-228z" />
    <glyph glyph-name="ycircumflex" unicode="&#x177;" horiz-adv-x="1033" vert-adv-y="2457" 
d="M393 0l-402 983h315l147 -411q38 -105 87 -253l24 -71l40 152q28 107 44 165l118 418h276l-277 -859q-107 -331 -173 -430q-72 -106 -180 -148q-83 -32 -197 -32q-84 0 -168 13l21 195q59 -23 124 -23q174 0 262 236l24 65h-85zM534 1315l-172 -167h-228l235 296h331
l235 -296h-228z" />
    <glyph glyph-name="Zacute" unicode="&#x179;" horiz-adv-x="1105" vert-adv-y="2457" 
d="M8 0v172l710 1034h-632v207h974l11 -164l-716 -1042h745v-207h-1092zM448 1566l180 297h331l-291 -297h-220z" />
    <glyph glyph-name="zacute" unicode="&#x17a;" horiz-adv-x="934" vert-adv-y="2457" 
d="M20 0l-14 155l503 633h-444v195h797l16 -158l-501 -630h528v-195h-885zM350 1148l180 296h331l-291 -296h-220z" />
    <glyph glyph-name="Zdotaccent" unicode="&#x17b;" horiz-adv-x="1105" vert-adv-y="2457" 
d="M8 0v172l710 1034h-632v207h974l11 -164l-716 -1042h745v-207h-1092zM629 1883q72 0 121 -49q49 -48 49 -115t-49 -116t-121 -49q-73 0 -122 49t-49 117q0 67 49 114q50 49 122 49z" />
    <glyph glyph-name="zdotaccent" unicode="&#x17c;" horiz-adv-x="934" vert-adv-y="2457" 
d="M20 0l-14 155l503 633h-444v195h797l16 -158l-501 -630h528v-195h-885zM511 1457q72 0 121 -49q49 -48 49 -115t-49 -116q-48 -49 -121 -49q-74 0 -122 49q-49 49 -49 117q0 67 49 114q50 49 122 49z" />
    <glyph glyph-name="Zcaron" unicode="&#x17d;" horiz-adv-x="1105" vert-adv-y="2457" 
d="M8 0v172l710 1034h-632v207h974l11 -164l-716 -1042h745v-207h-1092zM604 1695l172 168h228l-235 -297h-331l-235 297h228z" />
    <glyph glyph-name="zcaron" unicode="&#x17e;" horiz-adv-x="934" vert-adv-y="2457" 
d="M20 0l-14 155l503 633h-444v195h797l16 -158l-501 -630h528v-195h-885zM497 1277l172 167h228l-235 -296h-331l-235 296h228z" />
    <glyph glyph-name="Ohorn" unicode="&#x1a0;" horiz-adv-x="1571" vert-adv-y="2457" 
d="M724 1441q328 0 491 -223q138 -189 138 -511q0 -321 -138 -512q-162 -223 -501 -223q-340 0 -502 223q-138 190 -138 509q0 324 138 514q163 223 512 223zM719 1239q-168 0 -247 -142q-81 -145 -81 -394q0 -242 81 -387q79 -142 242 -142q162 0 241 142q81 146 81 390
q0 249 -81 391t-236 142zM1262 1187l73 413h287l-181 -413h-179z" />
    <glyph glyph-name="ohorn" unicode="&#x1a1;" horiz-adv-x="1339" vert-adv-y="2457" 
d="M579 1011q234 0 370 -145q126 -136 126 -374q0 -236 -126 -374q-133 -146 -377 -146q-245 0 -378 146q-126 138 -126 371q0 242 126 377q136 145 385 145zM575 817q-106 0 -159 -95q-49 -87 -49 -232q0 -141 48 -229q53 -95 157 -95q103 0 155 95q49 89 49 231
q0 144 -49 230q-53 95 -152 95zM1041 762l72 413h287l-181 -413h-178z" />
    <glyph glyph-name="Uhorn" unicode="&#x1af;" horiz-adv-x="1554" vert-adv-y="2457" 
d="M137 1413h307v-915q0 -163 32 -222q54 -102 206 -102q165 0 214 119q24 57 24 205v915h278v-928q0 -119 -10 -182q-29 -178 -172 -258q-129 -73 -347 -73q-377 0 -484 208q-36 71 -45 181q-3 39 -3 124v928zM1264 1187l73 413h287l-181 -413h-179z" />
    <glyph glyph-name="uhorn" unicode="&#x1b0;" horiz-adv-x="1374" vert-adv-y="2457" 
d="M127 983h290v-559q0 -121 18 -168q27 -71 102 -71q119 0 196 127v671h290v-691q0 -165 20 -292h-275q-11 53 -19 110q-126 -138 -306 -138q-195 0 -271 137q-45 83 -45 266v608zM1089 762l73 413h286l-180 -413h-179z" />
    <glyph glyph-name="uni01CD" unicode="&#x1cd;" horiz-adv-x="1340" vert-adv-y="2457" 
d="M943 335h-567l-128 -335h-304l569 1413h316l567 -1413h-325zM870 534l-130 356q-35 98 -81 247q-37 -128 -78 -238l-132 -365h421zM670 1695l172 168h228l-235 -297h-331l-235 297h228z" />
    <glyph glyph-name="uni01CE" unicode="&#x1ce;" horiz-adv-x="1110" vert-adv-y="2457" 
d="M687 625v17q0 71 -21 108q-38 68 -167 68q-116 0 -262 -72l-49 202q163 63 354 63q299 0 394 -152q36 -56 43 -157q2 -34 2 -127v-275q0 -176 20 -300h-269q-8 59 -14 121q-41 -52 -81 -81q-95 -68 -247 -68q-173 0 -259 88q-71 74 -71 204q0 256 265 328q107 29 362 33z
M691 474q-125 -2 -200 -18q-140 -29 -140 -168q0 -134 128 -134q107 0 170 81q31 40 38 88q4 23 4 68v83zM565 1277l172 167h228l-235 -296h-331l-235 296h228z" />
    <glyph glyph-name="uni01D3" unicode="&#x1d3;" horiz-adv-x="1335" vert-adv-y="2457" 
d="M137 1413h307v-915q0 -163 32 -222q54 -102 206 -102q165 0 214 119q24 57 24 205v915h278v-928q0 -119 -10 -182q-29 -178 -172 -258q-129 -73 -347 -73q-377 0 -484 208q-36 71 -45 181q-3 39 -3 124v928zM668 1695l172 168h228l-235 -297h-331l-235 297h228z" />
    <glyph glyph-name="uni01D4" unicode="&#x1d4;" horiz-adv-x="1158" vert-adv-y="2457" 
d="M127 983h290v-559q0 -121 18 -168q27 -71 102 -71q119 0 196 127v671h290v-691q0 -165 20 -292h-275q-11 53 -19 110q-126 -138 -306 -138q-195 0 -271 137q-45 83 -45 266v608zM579 1277l172 167h228l-235 -296h-331l-235 296h228z" />
    <glyph glyph-name="Gcaron" unicode="&#x1e6;" horiz-adv-x="1358" vert-adv-y="2457" 
d="M702 594v186h547v-703q-230 -105 -498 -105q-364 0 -533 218q-144 185 -144 494q0 385 206 584q180 173 493 173q204 0 403 -72l-56 -224q-181 94 -332 94q-214 0 -307 -152q-90 -147 -90 -399q0 -227 73 -359q86 -155 299 -155q89 0 180 33v387h-241zM741 1695l172 168
h228l-235 -297h-331l-235 297h228z" />
    <glyph glyph-name="gcaron" unicode="&#x1e7;" horiz-adv-x="1142" vert-adv-y="2457" 
d="M722 68q-106 -96 -257 -96q-200 0 -301 135q-96 130 -96 350q0 280 150 428q128 126 379 126q199 0 434 -63q-19 -167 -19 -388v-405q0 -154 -15 -260q-54 -381 -517 -381q-197 0 -339 48l24 206q157 -69 312 -69q152 0 206 94q39 67 39 201v74zM722 779q-65 38 -136 38
q-219 0 -219 -344q0 -307 171 -307q99 0 152 108q32 65 32 188v317zM613 1277l172 167h228l-235 -296h-331l-235 296h228z" />
    <glyph glyph-name="uni01F4" unicode="&#x1f4;" horiz-adv-x="1358" vert-adv-y="2457" 
d="M702 594v186h547v-703q-230 -105 -498 -105q-364 0 -533 218q-144 185 -144 494q0 385 206 584q180 173 493 173q204 0 403 -72l-56 -224q-181 94 -332 94q-214 0 -307 -152q-90 -147 -90 -399q0 -227 73 -359q86 -155 299 -155q89 0 180 33v387h-241zM596 1566l180 297
h331l-291 -297h-220z" />
    <glyph glyph-name="uni01F5" unicode="&#x1f5;" horiz-adv-x="1142" vert-adv-y="2457" 
d="M722 68q-106 -96 -257 -96q-200 0 -301 135q-96 130 -96 350q0 280 150 428q128 126 379 126q199 0 434 -63q-19 -167 -19 -388v-405q0 -154 -15 -260q-54 -381 -517 -381q-197 0 -339 48l24 206q157 -69 312 -69q152 0 206 94q39 67 39 201v74zM722 779q-65 38 -136 38
q-219 0 -219 -344q0 -307 171 -307q99 0 152 108q32 65 32 188v317zM463 1148l180 296h331l-291 -296h-220z" />
    <glyph glyph-name="Scommaaccent" unicode="&#x218;" horiz-adv-x="1087" vert-adv-y="2457" 
d="M50 52l40 234q208 -112 404 -112q235 0 235 180q0 70 -30 114q-26 38 -74 64q-51 29 -126 60q-158 67 -233 118q-114 77 -157 172q-33 70 -33 157q0 197 134 305q120 97 342 97q186 0 380 -64l-55 -226q-66 33 -115 51q-97 37 -189 37q-193 0 -193 -170q0 -82 52 -129
q39 -34 89 -59q50 -24 122 -57q144 -65 207 -107q108 -74 150 -170q33 -75 33 -169q0 -199 -131 -303q-79 -63 -181 -83q-98 -20 -210 -20q-279 0 -461 80zM213 -457l136 313h310l-227 -313h-219z" />
    <glyph glyph-name="scommaaccent" unicode="&#x219;" horiz-adv-x="877" vert-adv-y="2457" 
d="M50 27l35 206q71 -30 113 -43q91 -27 191 -27q159 0 159 93q0 40 -39 70q-35 28 -161 85q-151 67 -212 129q-68 69 -68 181q0 153 110 225q98 65 267 65q154 0 306 -57l-53 -208q-31 24 -71 40q-83 35 -159 35q-124 0 -124 -79q0 -43 45 -74q34 -23 158 -83
q156 -74 210 -129q67 -68 67 -182q0 -302 -403 -302q-198 0 -371 55zM145 -457l136 313h310l-227 -313h-219z" />
    <glyph glyph-name="uni021A" unicode="&#x21a;" horiz-adv-x="1186" vert-adv-y="2457" 
d="M439 0v1206h-400v207h1107v-207h-400v-1206h-307zM313 -457l136 313h310l-227 -313h-219z" />
    <glyph glyph-name="uni021B" unicode="&#x21b;" horiz-adv-x="746" vert-adv-y="2457" 
d="M164 782h-179l18 201h169l17 268l265 57v-325h282l-18 -201h-264v-384q0 -135 19 -177q24 -55 100 -55q82 0 165 42l26 -197q-127 -39 -281 -39q-132 0 -197 37q-86 49 -109 168q-13 70 -13 188v417zM127 -457l136 313h310l-227 -313h-219z" />
    <glyph glyph-name="afii57929" unicode="&#x2bc;" horiz-adv-x="484" vert-adv-y="2457" 
d="M54 927l111 573h307l-194 -573h-224z" />
    <glyph glyph-name="uni02C9" unicode="&#x2c9;" horiz-adv-x="1024" vert-adv-y="2457" 
d="M153 1202v174h717v-174h-717z" />
    <glyph glyph-name="dexia_keraia" unicode="&#x374;" horiz-adv-x="548" vert-adv-y="2457" 
d="M70 733l142 680h307l-210 -680h-239z" />
    <glyph glyph-name="aristeri_karaia" unicode="&#x375;" horiz-adv-x="548" vert-adv-y="2457" 
d="M28 -300l142 680h307l-210 -680h-239z" />
    <glyph glyph-name="iotasubscript" unicode="&#x37a;" horiz-adv-x="1018" vert-adv-y="2457" 
d="M387 0h241v-71q0 -89 18 -121q23 -40 82 -40q45 0 140 30l24 -122q-99 -39 -217 -39q-156 0 -223 66q-65 65 -65 191v106z" />
    <glyph glyph-name="erotimatico" unicode="&#x37e;" horiz-adv-x="569" vert-adv-y="2457" 
d="M69 -305l106 609h310l-187 -609h-229zM329 1012q81 0 134 -61q45 -51 45 -115q0 -75 -58 -129q-51 -47 -124 -47q-84 0 -137 61q-45 50 -45 116q0 74 58 128q51 47 127 47z" />
    <glyph glyph-name="tonos" unicode="&#x384;" horiz-adv-x="1024" vert-adv-y="2457" 
d="M405 1143l114 344h326l-221 -344h-219z" />
    <glyph glyph-name="dialytikatonos" unicode="&#x385;" horiz-adv-x="1024" vert-adv-y="2457" 
d="M190 1445q65 0 112 -53q39 -44 39 -99q0 -63 -51 -111q-43 -41 -103 -41q-69 0 -115 53q-39 45 -39 100q0 62 51 110q44 41 106 41zM840 1445q65 0 111 -53q40 -45 40 -99q0 -63 -51 -111q-43 -41 -103 -41q-69 0 -115 53q-39 45 -39 100q0 62 51 110q44 41 106 41z
M358 1118l80 400h283l-185 -400h-178z" />
    <glyph glyph-name="Alphatonos" unicode="&#x386;" horiz-adv-x="1508" vert-adv-y="2457" 
d="M1100 335h-567l-128 -335h-304l569 1413h316l567 -1413h-325zM1027 534l-130 356q-37 103 -81 247q-41 -137 -78 -238l-133 -365h422zM7 847l82 566h300l-160 -566h-222z" />
    <glyph glyph-name="uni0387" unicode="&#x387;" horiz-adv-x="566" vert-adv-y="2457" 
d="M286 816q81 0 134 -61q45 -51 45 -115q0 -76 -58 -129q-51 -47 -124 -47q-84 0 -137 61q-45 51 -45 116q0 74 58 128q51 47 127 47z" />
    <glyph glyph-name="Epsilontonos" unicode="&#x388;" horiz-adv-x="1548" vert-adv-y="2457" 
d="M7 847l82 566h300l-160 -566h-222zM530 0v1413h955v-207h-648v-370h492v-195h-492v-434h664v-207h-971z" />
    <glyph glyph-name="Etatonos" unicode="&#x389;" horiz-adv-x="1810" vert-adv-y="2457" 
d="M7 847l82 566h300l-160 -566h-222zM530 0v1413h307v-572h518v572h307v-1413h-307v634h-518v-634h-307z" />
    <glyph glyph-name="Iotatonos" unicode="&#x38a;" horiz-adv-x="1015" vert-adv-y="2457" 
d="M7 847l82 566h300l-160 -566h-222zM545 0v1413h307v-1413h-307z" />
    <glyph glyph-name="Omicrontonos" unicode="&#x38c;" horiz-adv-x="1784" vert-adv-y="2457" 
d="M7 847l82 566h300l-160 -566h-222zM1080 1441q328 0 491 -223q138 -189 138 -511q0 -321 -138 -512q-162 -223 -501 -223q-340 0 -502 223q-138 190 -138 509q0 324 138 514q163 223 512 223zM1075 1239q-168 0 -247 -142q-81 -145 -81 -394q0 -242 81 -387
q79 -142 242 -142q162 0 241 142q81 146 81 390q0 249 -81 391t-236 142z" />
    <glyph glyph-name="Upsilontonos" unicode="&#x38e;" horiz-adv-x="1634" vert-adv-y="2457" 
d="M7 847l82 566h300l-160 -566h-222zM917 0v536l-471 877h340l200 -379q33 -62 102 -224q76 177 111 244l190 359h309l-474 -877v-536h-307z" />
    <glyph glyph-name="Omegatonos" unicode="&#x38f;" horiz-adv-x="1885" vert-adv-y="2457" 
d="M7 847l82 566h300l-160 -566h-222zM439 0v207h399v65q-169 56 -255 142q-146 145 -146 390q0 301 183 469q182 168 501 168q318 0 500 -168q183 -168 183 -469q0 -266 -170 -413q-80 -69 -230 -119v-65h398v-207h-592v395q104 42 169 105q108 106 108 310q0 175 -82 292
q-97 137 -284 137t-284 -137q-82 -117 -82 -292q0 -216 126 -326q59 -52 151 -89v-395h-593z" />
    <glyph glyph-name="iotadieresistonos" unicode="&#x390;" horiz-adv-x="661" vert-adv-y="2457" 
d="M134 983h290v-580q0 -142 14 -181q20 -56 91 -56q54 0 111 40l29 -196q-106 -38 -233 -38q-199 0 -262 111q-40 69 -40 265v635zM-13 1445q65 0 112 -53q39 -44 39 -99q0 -63 -51 -111q-43 -41 -103 -41q-69 0 -115 53q-39 45 -39 100q0 62 51 110q44 41 106 41z
M637 1445q65 0 111 -53q40 -45 40 -99q0 -63 -51 -111q-43 -41 -103 -41q-69 0 -115 53q-39 45 -39 100q0 62 51 110q44 41 106 41zM155 1118l80 400h283l-185 -400h-178z" />
    <glyph glyph-name="Alpha" unicode="&#x391;" horiz-adv-x="1340" vert-adv-y="2457" 
d="M943 335h-567l-128 -335h-304l569 1413h316l567 -1413h-325zM870 534l-130 356q-35 98 -81 247q-37 -128 -78 -238l-132 -365h421z" />
    <glyph glyph-name="Beta" unicode="&#x392;" horiz-adv-x="1295" vert-adv-y="2457" 
d="M147 0v1413h503q284 0 402 -77q133 -87 133 -271q0 -146 -91 -234q-50 -49 -151 -82q128 -38 186 -93q93 -88 93 -253q0 -234 -185 -334q-128 -69 -397 -69h-493zM454 838h143q150 0 201 29q77 44 77 168q0 106 -58 146q-47 33 -179 33h-184v-376zM454 199h162
q153 0 216 43q73 50 73 171q0 151 -97 199q-60 30 -246 30h-108v-443z" />
    <glyph glyph-name="Gamma" unicode="&#x393;" horiz-adv-x="1085" vert-adv-y="2457" 
d="M147 0v1413h892v-207h-585v-1206h-307z" />
    <glyph glyph-name="uni0394" unicode="&#x394;" horiz-adv-x="1371" vert-adv-y="2457" 
d="M1412 0h-1452l569 1413h316zM1010 207l-254 683q-33 89 -81 248q-40 -137 -78 -238l-256 -693h669z" />
    <glyph glyph-name="Epsilon" unicode="&#x395;" horiz-adv-x="1165" vert-adv-y="2457" 
d="M147 0v1413h955v-207h-648v-370h492v-195h-492v-434h664v-207h-971z" />
    <glyph glyph-name="Zeta" unicode="&#x396;" horiz-adv-x="1105" vert-adv-y="2457" 
d="M8 0v172l710 1034h-632v207h974l11 -164l-716 -1042h745v-207h-1092z" />
    <glyph glyph-name="Eta" unicode="&#x397;" horiz-adv-x="1427" vert-adv-y="2457" 
d="M147 0v1413h307v-572h519v572h307v-1413h-307v634h-519v-634h-307z" />
    <glyph glyph-name="Theta" unicode="&#x398;" horiz-adv-x="1443" vert-adv-y="2457" 
d="M494 625v197h454v-197h-454zM732 1441q332 0 496 -223q140 -190 140 -511t-140 -512q-164 -223 -507 -223t-507 223q-140 190 -140 509q0 325 140 514q165 223 518 223zM726 1239q-171 0 -252 -142q-83 -145 -83 -394q0 -241 83 -387q81 -142 247 -142t247 142
q83 145 83 390q0 250 -83 391q-83 142 -242 142z" />
    <glyph glyph-name="Iota" unicode="&#x399;" horiz-adv-x="632" vert-adv-y="2457" 
d="M162 0v1413h307v-1413h-307z" />
    <glyph glyph-name="Kappa" unicode="&#x39a;" horiz-adv-x="1280" vert-adv-y="2457" 
d="M147 0v1413h307v-596l506 596h328l-548 -628l592 -785h-357l-521 716v-716h-307z" />
    <glyph glyph-name="Lambda" unicode="&#x39b;" horiz-adv-x="1301" vert-adv-y="2457" 
d="M-42 0l535 1413h316l534 -1413h-325l-304 890q-31 90 -75 247q-37 -138 -71 -238l-306 -899h-304z" />
    <glyph glyph-name="Mu" unicode="&#x39c;" horiz-adv-x="1828" vert-adv-y="2457" 
d="M102 0l146 1413h377l204 -700q57 -194 91 -358q44 219 92 378l203 680h362l148 -1413h-292l-68 681q-20 196 -30 451q-78 -331 -107 -429l-213 -703h-215l-194 639q-52 173 -123 492q-10 -167 -22 -309l-11 -141l-67 -681h-281z" />
    <glyph glyph-name="Nu" unicode="&#x39d;" horiz-adv-x="1424" vert-adv-y="2457" 
d="M147 0v1413h302l354 -635q69 -124 161 -294l43 -81q-8 141 -8 421v589h278v-1413h-296l-355 640q-33 61 -209 386q8 -189 8 -365v-661h-278z" />
    <glyph glyph-name="Xi" unicode="&#x39e;" horiz-adv-x="1167" vert-adv-y="2457" 
d="M76 0v207h1015v-207h-1015zM199 623v207h769v-207h-769zM98 1206v207h971v-207h-971z" />
    <glyph glyph-name="Omicron" unicode="&#x39f;" horiz-adv-x="1428" vert-adv-y="2457" 
d="M724 1441q328 0 491 -223q138 -189 138 -511q0 -321 -138 -512q-162 -223 -501 -223q-340 0 -502 223q-138 190 -138 509q0 324 138 514q163 223 512 223zM719 1239q-168 0 -247 -142q-81 -145 -81 -394q0 -242 81 -387q79 -142 242 -142q162 0 241 142q81 146 81 390
q0 249 -81 391t-236 142z" />
    <glyph glyph-name="Pi" unicode="&#x3a0;" horiz-adv-x="1434" vert-adv-y="2457" 
d="M183 0v1206h-144v207h1356v-207h-144v-1206h-307v1206h-454v-1206h-307z" />
    <glyph glyph-name="Rho" unicode="&#x3a1;" horiz-adv-x="1199" vert-adv-y="2457" 
d="M147 0v1413h424q171 0 272 -24q170 -40 255 -173q62 -97 62 -237q0 -242 -160 -361q-126 -93 -376 -93h-170v-525h-307zM454 724h139q141 0 197 55q61 61 61 188q0 140 -70 200q-55 47 -181 47h-146v-490z" />
    <glyph glyph-name="Sigma" unicode="&#x3a3;" horiz-adv-x="1115" vert-adv-y="2457" 
d="M38 0l-4 163l392 582l-347 504l12 164h947v-207h-611l316 -459l-350 -540h680v-207h-1035z" />
    <glyph glyph-name="Tau" unicode="&#x3a4;" horiz-adv-x="1186" vert-adv-y="2457" 
d="M439 0v1206h-400v207h1107v-207h-400v-1206h-307z" />
    <glyph glyph-name="Upsilon" unicode="&#x3a5;" horiz-adv-x="1126" vert-adv-y="2457" 
d="M409 0v536l-471 877h340l200 -379q33 -64 102 -224q72 171 111 244l190 359h308l-473 -877v-536h-307z" />
    <glyph glyph-name="Phi" unicode="&#x3a6;" horiz-adv-x="1691" vert-adv-y="2457" 
d="M702 -55v181q-628 65 -628 581t628 581v180h285v-179q629 -66 629 -582q0 -518 -629 -581v-181h-285zM702 321v772q-123 -27 -189 -77q-132 -99 -132 -310q0 -204 133 -303q72 -54 188 -82zM987 321q137 32 212 102q110 100 110 284q0 207 -137 308q-69 51 -185 79v-773z
" />
    <glyph glyph-name="Chi" unicode="&#x3a7;" horiz-adv-x="1236" vert-adv-y="2457" 
d="M432 753l-243 393q-35 56 -175 267h354l170 -277q53 -86 99 -174q51 101 94 170l174 281h326q-133 -190 -164 -238l-283 -439l270 -440q31 -51 191 -296h-354l-204 332q-18 30 -58 101l-24 44l-24 41l-18 -31q-46 -80 -81 -135l-224 -352h-332q173 247 182 261z" />
    <glyph glyph-name="Psi" unicode="&#x3a8;" horiz-adv-x="1692" vert-adv-y="2457" 
d="M696 0v336q-128 5 -199 18q-259 49 -341 237q-36 83 -40 196q-2 46 -2 105v521h299v-529q0 -148 25 -213q38 -95 154 -121q39 -9 104 -10v873h299v-873q143 4 207 58q54 45 68 146q8 61 8 140v529h299v-521q0 -156 -20 -235q-60 -234 -334 -297q-79 -18 -228 -24v-336
h-299z" />
    <glyph glyph-name="uni03A9" unicode="&#x3a9;" horiz-adv-x="1528" vert-adv-y="2457" 
d="M77 0v207h398v65q-168 56 -254 142q-146 145 -146 390q0 301 183 469q182 168 500 168t500 -168q183 -168 183 -469q0 -266 -170 -413q-80 -69 -230 -119v-65h398v-207h-592v395q104 42 168 105q109 106 109 310q0 175 -82 292q-97 137 -284 137t-284 -137
q-82 -117 -82 -292q0 -216 126 -326q60 -52 151 -89v-395h-592z" />
    <glyph glyph-name="Iotadieresis" unicode="&#x3aa;" horiz-adv-x="632" vert-adv-y="2457" 
d="M162 0v1413h307v-1413h-307zM94 1874q68 0 115 -46q46 -46 46 -109q0 -64 -46 -110t-114 -46q-70 0 -116 46t-46 111q0 63 46 108q48 46 115 46zM538 1874q68 0 115 -46q46 -46 46 -109q0 -64 -46 -110t-115 -46t-115 46t-46 111q0 63 46 108q48 46 115 46z" />
    <glyph glyph-name="Upsilondieresis" unicode="&#x3ab;" horiz-adv-x="1126" vert-adv-y="2457" 
d="M409 0v536l-471 877h340l200 -379q33 -64 102 -224q72 171 111 244l190 359h308l-473 -877v-536h-307zM363 1874q68 0 115 -46q46 -46 46 -109q0 -64 -46 -110t-114 -46q-70 0 -116 46t-46 111q0 63 46 108q48 46 115 46zM807 1874q68 0 115 -46q46 -46 46 -109
q0 -64 -46 -110t-115 -46t-115 46t-46 111q0 63 46 108q48 46 115 46z" />
    <glyph glyph-name="alphatonos" unicode="&#x3ac;" horiz-adv-x="1163" vert-adv-y="2457" 
d="M993 462q42 -228 117 -462h-242l-42 144q-45 -64 -87 -95q-102 -77 -258 -77q-214 0 -317 134q-96 125 -96 353q0 268 121 418q107 134 312 134q159 0 257 -83q38 -32 75 -89q3 20 5 30q11 68 12 114h237q-45 -322 -94 -521zM760 459q-41 358 -209 358q-100 0 -143 -103
q-41 -99 -41 -250q0 -298 183 -298q115 0 171 139q20 51 31 106q9 44 8 48zM464 1143l114 344h326l-221 -344h-219z" />
    <glyph glyph-name="epsilontonos" unicode="&#x3ad;" horiz-adv-x="951" vert-adv-y="2457" 
d="M896 219l23 -210q-165 -37 -357 -37q-229 0 -350 64q-69 37 -107 106q-34 63 -34 142q0 124 79 194q20 18 75 47q-52 41 -74 75q-38 59 -38 136q0 88 55 156q98 119 367 119q180 0 356 -54l-50 -196q-120 64 -261 64q-181 0 -181 -118q0 -63 41 -94q30 -22 110 -22h209
v-180h-223q-102 0 -135 -25q-39 -30 -39 -98q0 -72 46 -102q48 -32 181 -32q153 0 307 65zM419 1143l114 344h326l-221 -344h-219z" />
    <glyph glyph-name="etatonos" unicode="&#x3ae;" horiz-adv-x="1186" vert-adv-y="2457" 
d="M134 0v596q0 177 -11 387h259l17 -136q144 164 339 164t272 -128q46 -77 46 -252v-1090h-290v1028q0 118 -16 160q-27 69 -103 69q-102 0 -184 -119q-29 -42 -35 -85q-4 -25 -4 -63v-531h-290zM509 1143l114 344h326l-221 -344h-219z" />
    <glyph glyph-name="iotatonos" unicode="&#x3af;" horiz-adv-x="661" vert-adv-y="2457" 
d="M134 983h290v-580q0 -142 14 -181q20 -56 91 -56q54 0 111 40l29 -196q-106 -38 -233 -38q-199 0 -262 111q-40 69 -40 265v635zM170 1143l114 344h326l-221 -344h-219z" />
    <glyph glyph-name="upsilondieresistonos" unicode="&#x3b0;" horiz-adv-x="1152" vert-adv-y="2457" 
d="M112 983h290v-578q0 -110 35 -164q36 -56 124 -56q93 0 129 67q29 52 29 153v578h290v-495q0 -135 -9 -202q-22 -176 -136 -249q-100 -65 -304 -65q-203 0 -303 65q-113 73 -136 249q-9 67 -9 202v495zM239 1445q65 0 112 -53q39 -44 39 -99q0 -63 -51 -111
q-43 -41 -103 -41q-69 0 -115 53q-39 45 -39 100q0 62 51 110q44 41 106 41zM889 1445q65 0 111 -53q40 -45 40 -99q0 -63 -51 -111q-43 -41 -103 -41q-69 0 -115 53q-39 45 -39 100q0 62 51 110q44 41 106 41zM407 1118l80 400h283l-185 -400h-178z" />
    <glyph glyph-name="alpha" unicode="&#x3b1;" horiz-adv-x="1163" vert-adv-y="2457" 
d="M993 462q42 -228 117 -462h-242l-42 144q-45 -64 -87 -95q-102 -77 -258 -77q-214 0 -317 134q-96 125 -96 353q0 268 121 418q107 134 312 134q159 0 257 -83q38 -32 75 -89q3 20 5 30q11 68 12 114h237q-45 -322 -94 -521zM760 459q-41 358 -209 358q-100 0 -143 -103
q-41 -99 -41 -250q0 -298 183 -298q115 0 171 139q20 51 31 106q9 44 8 48z" />
    <glyph glyph-name="beta" unicode="&#x3b2;" horiz-adv-x="1219" vert-adv-y="2457" 
d="M135 -459v1320q0 226 21 317q38 163 164 248q105 70 295 70q254 0 373 -126q92 -96 92 -248q0 -143 -80 -231q-32 -35 -103 -82q111 -43 163 -104q92 -108 92 -287q0 -197 -104 -309q-61 -67 -159 -101q-96 -34 -198 -34q-152 0 -266 43v-476h-290zM425 234
q97 -66 218 -66q218 0 218 262q0 154 -77 211q-38 28 -117 34q-25 1 -88 2v180q98 0 149 54q63 66 63 183q0 208 -174 208q-120 0 -163 -107q-29 -72 -29 -268v-693z" />
    <glyph glyph-name="gamma" unicode="&#x3b3;" horiz-adv-x="1031" vert-adv-y="2457" 
d="M365 -2l-382 985h313l152 -411q37 -100 88 -277q45 167 93 297l143 391h276l-393 -981v-461h-290v457z" />
    <glyph glyph-name="delta" unicode="&#x3b4;" horiz-adv-x="1145" vert-adv-y="2457" 
d="M383 888q-78 59 -104 91q-73 88 -73 204q0 156 121 237q114 76 302 76q149 0 321 -48l-46 -206q-143 65 -261 65q-161 0 -161 -114q0 -56 39 -100q29 -31 112 -73q136 -67 194 -105q138 -88 197 -206q52 -105 52 -251q0 -220 -126 -349q-135 -137 -378 -137t-377 137
q-127 129 -127 344q0 222 150 346q59 49 165 89zM575 754q-106 0 -159 -85q-49 -79 -49 -210q0 -129 48 -208q53 -85 157 -85t156 85q49 80 49 209q0 131 -49 209q-53 85 -153 85z" />
    <glyph glyph-name="epsilon" unicode="&#x3b5;" horiz-adv-x="951" vert-adv-y="2457" 
d="M896 219l23 -210q-165 -37 -357 -37q-229 0 -350 64q-69 37 -107 106q-34 63 -34 142q0 124 79 194q20 18 75 47q-52 41 -74 75q-38 59 -38 136q0 88 55 156q98 119 367 119q180 0 356 -54l-50 -196q-120 64 -261 64q-181 0 -181 -118q0 -63 41 -94q30 -22 110 -22h209
v-180h-223q-102 0 -135 -25q-39 -30 -39 -98q0 -72 46 -102q48 -32 181 -32q153 0 307 65z" />
    <glyph glyph-name="zeta" unicode="&#x3b6;" horiz-adv-x="882" vert-adv-y="2457" 
d="M101 1294l16 200q208 -23 441 -23h290v-220q-472 -444 -472 -835q0 -105 42 -158q31 -41 137 -71q162 -45 222 -86q89 -62 89 -207q0 -156 -108 -353h-283q115 204 115 321q0 50 -27 74q-25 23 -95 38q-197 40 -263 86q-128 88 -128 318q0 284 191 558q90 129 292 340
h-106q-177 0 -353 18z" />
    <glyph glyph-name="eta" unicode="&#x3b7;" horiz-adv-x="1186" vert-adv-y="2457" 
d="M134 0v596q0 177 -11 387h259l17 -136q144 164 339 164t272 -128q46 -77 46 -252v-1090h-290v1028q0 118 -16 160q-27 69 -103 69q-102 0 -184 -119q-29 -42 -35 -85q-4 -25 -4 -63v-531h-290z" />
    <glyph glyph-name="theta" unicode="&#x3b8;" horiz-adv-x="1190" vert-adv-y="2457" 
d="M604 1496q160 0 280 -96q234 -187 234 -666q0 -232 -52 -386q-127 -376 -470 -376q-259 0 -392 211q-131 206 -131 547q0 354 131 555q137 211 400 211zM368 845h454q-11 178 -50 291q-58 164 -177 164q-117 0 -176 -165q-37 -104 -51 -290zM367 650q9 -181 47 -302
q35 -113 101 -157q36 -24 81 -24q68 0 113 54q101 123 114 429h-456z" />
    <glyph glyph-name="iota" unicode="&#x3b9;" horiz-adv-x="661" vert-adv-y="2457" 
d="M134 983h290v-580q0 -142 14 -181q20 -56 91 -56q54 0 111 40l29 -196q-106 -38 -233 -38q-199 0 -262 111q-40 69 -40 265v635z" />
    <glyph glyph-name="kappa" unicode="&#x3ba;" horiz-adv-x="1092" vert-adv-y="2457" 
d="M134 0v596q0 177 -11 387h301v-411l359 411h297l-392 -423l433 -560h-324l-373 502v-502h-290z" />
    <glyph glyph-name="lambda" unicode="&#x3bb;" horiz-adv-x="1054" vert-adv-y="2457" 
d="M-33 0l431 985q-52 112 -88 167q-57 88 -161 175l213 179q91 -79 163 -187q83 -125 163 -331l384 -988h-302l-178 487q-4 11 -78 228l-18 -53l-22 -65q-56 -156 -62 -173l-167 -424h-278z" />
    <glyph glyph-name="uni03BC" unicode="&#x3bc;" horiz-adv-x="1170" vert-adv-y="2457" 
d="M139 983h290v-530q0 -137 23 -191q34 -78 121 -78q103 0 173 128v671h290v-691q0 -169 20 -292h-263q-10 49 -16 95q-34 -48 -57 -68q-67 -56 -176 -56q-57 0 -115 22v-452h-290v1442z" />
    <glyph glyph-name="nu" unicode="&#x3bd;" horiz-adv-x="1032" vert-adv-y="2457" 
d="M360 0l-371 983h312l137 -381q41 -115 97 -307q50 180 101 324l131 364h276l-385 -983h-298z" />
    <glyph glyph-name="xi" unicode="&#x3be;" horiz-adv-x="955" vert-adv-y="2457" 
d="M103 1294l16 199q210 -22 446 -22h336v-207h-69q-174 0 -255 -26q-128 -42 -128 -175q0 -109 74 -151q59 -34 186 -34h152v-195h-163q-96 0 -147 -16q-92 -29 -135 -105q-38 -67 -38 -153q0 -98 45 -151q35 -40 152 -70q180 -45 246 -86q98 -62 98 -207q0 -156 -109 -354
h-282q115 205 115 320q0 51 -30 75q-27 23 -104 38q-136 26 -200 46q-230 73 -230 359q0 200 104 307q47 48 149 96q-83 50 -107 78q-65 75 -65 172q0 105 72 173q40 38 122 73q-124 2 -251 16z" />
    <glyph glyph-name="omicron" unicode="&#x3bf;" horiz-adv-x="1143" vert-adv-y="2457" 
d="M579 1011q234 0 370 -145q126 -136 126 -374q0 -236 -126 -374q-133 -146 -377 -146q-245 0 -378 146q-126 138 -126 371q0 242 126 377q136 145 385 145zM575 817q-106 0 -159 -95q-49 -87 -49 -232q0 -141 48 -229q53 -95 157 -95q103 0 155 95q49 89 49 231
q0 144 -49 230q-53 95 -152 95z" />
    <glyph glyph-name="rho" unicode="&#x3c1;" horiz-adv-x="1139" vert-adv-y="2457" 
d="M107 -459v885q0 155 13 231q61 354 465 354q249 0 371 -137q115 -129 115 -367q0 -237 -96 -368q-63 -85 -173 -128q-98 -39 -206 -39q-99 0 -199 41v-472h-290zM397 226q34 -26 51 -35q47 -25 108 -25q122 0 172 107q44 93 44 228q0 128 -42 219q-45 97 -148 97
q-126 0 -167 -137q-18 -62 -18 -183v-271z" />
    <glyph glyph-name="uni03C2" unicode="&#x3c2;" horiz-adv-x="874" vert-adv-y="2457" 
d="M409 -459q115 205 115 321q0 51 -24 77q-23 25 -85 40q-179 42 -237 89q-115 93 -115 345q0 258 90 411q110 187 400 187q165 0 275 -58l-53 -208q-80 72 -189 72q-223 0 -223 -356q0 -138 36 -193q29 -43 123 -74q148 -48 198 -89q80 -63 80 -212q0 -156 -109 -352h-282
z" />
    <glyph glyph-name="sigma" unicode="&#x3c3;" horiz-adv-x="1149" vert-adv-y="2457" 
d="M900 799q70 -66 98 -113q58 -95 58 -233q0 -205 -117 -338q-126 -143 -366 -143q-241 0 -377 143q-127 134 -127 365q0 303 213 433q115 70 300 70h566l-19 -196zM578 788q-106 0 -160 -89q-50 -82 -50 -219t49 -222q53 -92 158 -92q103 0 156 92q48 86 48 223
q0 138 -48 218q-54 89 -153 89z" />
    <glyph glyph-name="tau" unicode="&#x3c4;" horiz-adv-x="907" vert-adv-y="2457" 
d="M248 782h-255l17 201h880l-17 -201h-335v-384q0 -134 19 -177q24 -55 100 -55q81 0 165 42l26 -197q-127 -39 -281 -39q-132 0 -197 37q-86 48 -109 168q-13 69 -13 188v417z" />
    <glyph glyph-name="upsilon" unicode="&#x3c5;" horiz-adv-x="1152" vert-adv-y="2457" 
d="M128 983h290v-578q0 -110 35 -164q36 -56 124 -56q93 0 129 67q29 52 29 153v578h290v-495q0 -135 -9 -202q-22 -176 -136 -249q-100 -65 -304 -65q-203 0 -303 65q-113 73 -136 249q-9 67 -9 202v495z" />
    <glyph glyph-name="phi" unicode="&#x3c6;" horiz-adv-x="1510" vert-adv-y="2457" 
d="M598 177l-2 379q0 187 32 275q64 179 329 179q228 0 354 -136q125 -135 125 -361q0 -349 -293 -476q-109 -47 -268 -58l5 -438h-281v439q-158 12 -290 88q-235 136 -235 413q0 196 115 331q48 56 148 127l115 -196q-45 -47 -62 -84q-32 -70 -32 -173q0 -167 105 -246
q62 -47 135 -63zM872 173q111 15 167 58q98 76 98 265q0 321 -162 321q-76 0 -98 -61q-11 -32 -11 -116v-50z" />
    <glyph glyph-name="chi" unicode="&#x3c7;" horiz-adv-x="978" vert-adv-y="2457" 
d="M339 337l-39 91q-15 36 -82 157q-88 160 -207 247l226 197q143 -136 263 -401l31 -68q28 74 77 181l110 242h299l-378 -649l61 -138q15 -34 110 -223q98 -197 140 -259q27 -40 70 -89l-244 -157q-112 142 -290 549l-41 93q-23 -81 -84 -226l-150 -358l-308 -13z" />
    <glyph glyph-name="psi" unicode="&#x3c8;" horiz-adv-x="1483" vert-adv-y="2457" 
d="M611 -459l2 436q-185 14 -292 60q-137 58 -195 164q-49 90 -49 241q0 224 91 567l269 -54q-69 -271 -69 -493q0 -118 38 -177q52 -82 208 -101l3 771h250l3 -771q87 10 148 45q97 55 97 233q0 217 -69 493l268 54q92 -343 92 -567q0 -208 -103 -313q-127 -130 -432 -151
l2 -437h-262z" />
    <glyph glyph-name="omega" unicode="&#x3c9;" horiz-adv-x="1484" vert-adv-y="2457" 
d="M743 128q-35 -57 -65 -85q-75 -71 -212 -71q-391 0 -391 475q0 170 62 361q29 88 78 201l266 -56q-115 -258 -115 -500q0 -280 135 -280q75 0 103 81q16 48 16 168v259h245v-259q0 -130 21 -179q29 -70 98 -70q135 0 135 279q0 246 -115 501l266 56q49 -113 78 -201
q62 -191 62 -361q0 -475 -391 -475q-138 0 -212 71q-29 28 -64 85z" />
    <glyph glyph-name="iotadieresis" unicode="&#x3ca;" horiz-adv-x="661" vert-adv-y="2457" 
d="M134 983h290v-580q0 -142 14 -181q20 -56 91 -56q54 0 111 40l29 -196q-106 -38 -233 -38q-199 0 -262 111q-40 69 -40 265v635zM100 1448q68 0 115 -46q46 -46 46 -109q0 -64 -46 -110t-114 -46q-70 0 -116 46t-46 111q0 63 46 108q48 46 115 46zM544 1448q68 0 115 -46
q46 -46 46 -109q0 -64 -46 -110t-115 -46t-115 46t-46 111q0 63 46 108q48 46 115 46z" />
    <glyph glyph-name="upsilondieresis" unicode="&#x3cb;" horiz-adv-x="1152" vert-adv-y="2457" 
d="M128 983h290v-578q0 -110 35 -164q36 -56 124 -56q93 0 129 67q29 52 29 153v578h290v-495q0 -135 -9 -202q-22 -176 -136 -249q-100 -65 -304 -65q-203 0 -303 65q-113 73 -136 249q-9 67 -9 202v495zM368 1448q69 0 115 -46t46 -109q0 -64 -46 -110t-114 -46
q-70 0 -116 46t-46 111q0 63 46 108q48 46 115 46zM785 1448q69 0 115 -46t46 -109q0 -64 -46 -110t-114 -46q-70 0 -116 46t-46 111q0 63 46 108q47 46 115 46z" />
    <glyph glyph-name="omicrontonos" unicode="&#x3cc;" horiz-adv-x="1143" vert-adv-y="2457" 
d="M579 1011q234 0 370 -145q126 -136 126 -374q0 -236 -126 -374q-133 -146 -377 -146q-245 0 -378 146q-126 138 -126 371q0 242 126 377q136 145 385 145zM575 817q-106 0 -159 -95q-49 -87 -49 -232q0 -141 48 -229q53 -95 157 -95q103 0 155 95q49 89 49 231
q0 144 -49 230q-53 95 -152 95zM442 1143l114 344h326l-221 -344h-219z" />
    <glyph glyph-name="upsilontonos" unicode="&#x3cd;" horiz-adv-x="1152" vert-adv-y="2457" 
d="M128 983h290v-578q0 -110 35 -164q36 -56 124 -56q93 0 129 67q29 52 29 153v578h290v-495q0 -135 -9 -202q-22 -176 -136 -249q-100 -65 -304 -65q-203 0 -303 65q-113 73 -136 249q-9 67 -9 202v495zM472 1143l114 344h326l-221 -344h-219z" />
    <glyph glyph-name="omegatonos" unicode="&#x3ce;" horiz-adv-x="1484" vert-adv-y="2457" 
d="M743 128q-35 -57 -65 -85q-75 -71 -212 -71q-391 0 -391 475q0 170 62 361q29 88 78 201l266 -56q-115 -258 -115 -500q0 -280 135 -280q75 0 103 81q16 48 16 168v259h245v-259q0 -130 21 -179q29 -70 98 -70q135 0 135 279q0 246 -115 501l266 56q49 -113 78 -201
q62 -191 62 -361q0 -475 -391 -475q-138 0 -212 71q-29 28 -64 85zM622 1143l114 344h326l-221 -344h-219z" />
    <glyph glyph-name="afii10023" unicode="&#x401;" horiz-adv-x="1165" vert-adv-y="2457" 
d="M147 0v1413h955v-207h-648v-370h492v-195h-492v-434h664v-207h-971zM391 1874q68 0 115 -46q46 -46 46 -109q0 -64 -46 -110t-114 -46q-70 0 -116 46t-46 111q0 63 46 108q48 46 115 46zM835 1874q68 0 115 -46q46 -46 46 -109q0 -64 -46 -110t-115 -46t-115 46t-46 111
q0 63 46 108q48 46 115 46z" />
    <glyph glyph-name="afii10051" unicode="&#x402;" horiz-adv-x="1563" vert-adv-y="2457" 
d="M329 0v1206h-303v207h1087v-207h-477v-377q64 43 109 65q118 56 271 56q261 0 361 -158q41 -66 54 -163q7 -53 7 -152v-264q0 -198 -18 -313q-59 -386 -472 -386q-77 0 -170 13l21 193q76 -21 142 -21q124 0 161 116q29 90 29 324v296q0 155 -27 217q-41 96 -175 96
q-114 0 -209 -78q-50 -43 -84 -99v-571h-307z" />
    <glyph glyph-name="afii10052" unicode="&#x403;" horiz-adv-x="1085" vert-adv-y="2457" 
d="M147 0v1413h892v-207h-585v-1206h-307zM454 1566l180 297h331l-291 -297h-220z" />
    <glyph glyph-name="afii10053" unicode="&#x404;" horiz-adv-x="1169" vert-adv-y="2457" 
d="M978 833v-202h-584q9 -156 48 -250q45 -111 126 -160q77 -47 204 -47q164 0 336 77l29 -231q-179 -48 -398 -48q-360 0 -523 212q-142 184 -142 504q0 382 191 583q163 170 468 170q206 0 375 -66l-52 -226q-67 37 -96 49q-96 41 -207 41q-297 0 -353 -406h578z" />
    <glyph glyph-name="afii10054" unicode="&#x405;" horiz-adv-x="1087" vert-adv-y="2457" 
d="M50 52l40 234q208 -112 404 -112q235 0 235 180q0 70 -30 114q-26 38 -74 64q-51 29 -126 60q-158 67 -233 118q-114 77 -157 172q-33 70 -33 157q0 197 134 305q120 97 342 97q186 0 380 -64l-55 -226q-66 33 -115 51q-97 37 -189 37q-193 0 -193 -170q0 -82 52 -129
q39 -34 89 -59q50 -24 122 -57q144 -65 207 -107q108 -74 150 -170q33 -75 33 -169q0 -199 -131 -303q-79 -63 -181 -83q-98 -20 -210 -20q-279 0 -461 80z" />
    <glyph glyph-name="afii10055" unicode="&#x406;" horiz-adv-x="632" vert-adv-y="2457" 
d="M162 0v1413h307v-1413h-307z" />
    <glyph glyph-name="afii10056" unicode="&#x407;" horiz-adv-x="632" vert-adv-y="2457" 
d="M162 0v1413h307v-1413h-307zM94 1874q68 0 115 -46q46 -46 46 -109q0 -64 -46 -110t-114 -46q-70 0 -116 46t-46 111q0 63 46 108q48 46 115 46zM538 1874q68 0 115 -46q46 -46 46 -109q0 -64 -46 -110t-115 -46t-115 46t-46 111q0 63 46 108q48 46 115 46z" />
    <glyph glyph-name="afii10057" unicode="&#x408;" horiz-adv-x="657" vert-adv-y="2457" 
d="M188 1413h307v-1140q0 -205 -18 -328q-60 -415 -492 -415q-100 0 -205 18l22 211q93 -27 171 -27q143 0 185 135q30 98 30 355v1191z" />
    <glyph glyph-name="afii10058" unicode="&#x409;" horiz-adv-x="2017" vert-adv-y="2457" 
d="M903 0v1206h-366v-72q0 -22 -12 -337q-19 -497 -103 -651q-44 -83 -120 -117q-63 -29 -183 -29h-134l17 209h60q62 0 87 23q60 57 82 302q27 314 27 628v251h952v-534h178q291 0 419 -88q159 -109 159 -352q0 -260 -185 -366q-126 -73 -393 -73h-485zM1210 199h132
q162 0 227 47q80 56 80 199q0 145 -88 199q-65 39 -218 39h-133v-484z" />
    <glyph glyph-name="afii10059" unicode="&#x40a;" horiz-adv-x="2088" vert-adv-y="2457" 
d="M973 0v644h-519v-644h-307v1413h307v-562h519v562h307v-534h178q292 0 420 -90q84 -58 122 -144q37 -84 37 -209q0 -257 -184 -363q-127 -73 -395 -73h-485zM1280 199h133q164 0 227 45q80 57 80 199q0 145 -88 199q-67 41 -218 41h-134v-484z" />
    <glyph glyph-name="afii10060" unicode="&#x40b;" horiz-adv-x="1563" vert-adv-y="2457" 
d="M329 0v1206h-303v207h1087v-207h-477v-377q64 43 109 65q118 56 271 56q261 0 361 -158q41 -66 54 -163q7 -53 7 -152v-477h-307v435q0 155 -27 217q-41 96 -175 96q-114 0 -209 -78q-50 -43 -84 -99v-571h-307z" />
    <glyph glyph-name="afii10061" unicode="&#x40c;" horiz-adv-x="1320" vert-adv-y="2457" 
d="M147 0v1413h307v-586h64q89 0 141 75q31 43 118 240q72 162 136 210q80 61 267 61h107l-17 -209h-71q-61 0 -91 -21q-34 -24 -73 -107q-11 -25 -49 -117q-38 -94 -76 -140q-24 -29 -67 -58q78 -35 133 -102q52 -62 134 -221l228 -438h-340l-173 336q-61 127 -83 162
q-51 85 -101 117q-46 29 -107 29h-80v-644h-307zM585 1566l180 297h331l-291 -297h-220z" />
    <glyph glyph-name="uni040D" unicode="&#x40d;" horiz-adv-x="1376" vert-adv-y="2457" 
d="M147 0v1413h280v-659q0 -130 -6 -292l38 62l40 68q63 105 100 164l349 544l26 113h254v-1413h-280v634q0 142 4 262l2 61q-47 -77 -65 -108q-52 -89 -86 -143l-376 -586l-26 -120h-254zM663 1566l-292 297h331l180 -297h-219z" />
    <glyph glyph-name="afii10062" unicode="&#x40e;" horiz-adv-x="1119" vert-adv-y="2457" 
d="M417 509l-483 904h324l223 -431q45 -88 95 -218q47 124 117 263l182 386h309l-724 -1413h-311zM167 1884h203q8 -60 30 -95q41 -61 159 -61q125 0 165 72q17 31 24 84h203q-3 -126 -48 -197q-46 -71 -125 -103q-84 -35 -219 -35q-180 0 -269 62q-94 65 -116 186
q-6 35 -7 87z" />
    <glyph glyph-name="afii10145" unicode="&#x40f;" horiz-adv-x="1396" vert-adv-y="2457" 
d="M147 0v1413h307v-1206h487v1206h307v-1413h-397l-34 -355h-239l-33 355h-398z" />
    <glyph glyph-name="afii10017" unicode="&#x410;" horiz-adv-x="1340" vert-adv-y="2457" 
d="M943 335h-567l-128 -335h-304l569 1413h316l567 -1413h-325zM870 534l-130 356q-35 98 -81 247q-37 -128 -78 -238l-132 -365h421z" />
    <glyph glyph-name="afii10018" unicode="&#x411;" horiz-adv-x="1284" vert-adv-y="2457" 
d="M147 0v1413h919v-207h-612v-327h178q292 0 421 -88q84 -58 121 -144q37 -85 37 -210q0 -258 -184 -364q-127 -73 -395 -73h-485zM454 199h133q164 0 227 45q80 58 80 199q0 147 -88 201q-64 39 -218 39h-134v-484z" />
    <glyph glyph-name="afii10019" unicode="&#x412;" horiz-adv-x="1295" vert-adv-y="2457" 
d="M147 0v1413h503q284 0 402 -77q133 -87 133 -271q0 -146 -91 -234q-50 -49 -151 -82q128 -38 186 -93q93 -88 93 -253q0 -234 -185 -334q-128 -69 -397 -69h-493zM454 838h143q150 0 201 29q77 44 77 168q0 106 -58 146q-47 33 -179 33h-184v-376zM454 199h162
q153 0 216 43q73 50 73 171q0 151 -97 199q-60 30 -246 30h-108v-443z" />
    <glyph glyph-name="afii10020" unicode="&#x413;" horiz-adv-x="1085" vert-adv-y="2457" 
d="M147 0v1413h892v-207h-585v-1206h-307z" />
    <glyph glyph-name="afii10021" unicode="&#x414;" horiz-adv-x="1394" vert-adv-y="2457" 
d="M1070 0h-799l-40 -355h-244v562h143q57 107 90 340q38 269 38 619v247h949v-1206h146v-562h-243zM900 207v999h-363v-72q0 -202 -18 -435q-20 -258 -91 -492h472z" />
    <glyph glyph-name="afii10022" unicode="&#x415;" horiz-adv-x="1165" vert-adv-y="2457" 
d="M147 0v1413h955v-207h-648v-370h492v-195h-492v-434h664v-207h-971z" />
    <glyph glyph-name="afii10024" unicode="&#x416;" horiz-adv-x="1953" vert-adv-y="2457" 
d="M823 0v644h-34q-95 0 -159 -78q-39 -47 -75 -116q-9 -16 -56 -114l-173 -336h-340l228 438q82 159 134 221q55 67 133 102q-55 36 -85 82q-29 44 -86 185q-40 99 -77 140q-32 36 -108 36h-71l-17 209h107q155 0 235 -41q67 -33 120 -131q24 -46 104 -226q50 -112 97 -153
q38 -35 106 -35h17v586h307v-586h16q51 0 87 20q43 24 92 118q14 26 81 177q72 162 136 210q79 61 267 61h107l-17 -209h-72q-61 0 -90 -21q-34 -24 -73 -107q-12 -25 -49 -117q-38 -94 -76 -140q-24 -29 -68 -58q79 -35 134 -102q51 -62 134 -221l228 -438h-341l-172 336
q-62 127 -83 162q-52 85 -101 117q-46 29 -107 29h-33v-644h-307z" />
    <glyph glyph-name="afii10025" unicode="&#x417;" horiz-adv-x="1219" vert-adv-y="2457" 
d="M271 635v202h187q157 0 225 44q86 54 86 177q0 98 -59 138q-64 43 -191 43q-163 0 -373 -90l-52 226q235 66 465 66q267 0 402 -104q115 -89 115 -253q0 -139 -88 -226q-40 -39 -119 -80q108 -38 163 -90q103 -95 103 -265q0 -225 -156 -338q-158 -114 -459 -114
q-279 0 -468 71l40 236q203 -103 420 -103q172 0 248 66q68 59 68 174q0 138 -101 187q-68 33 -236 33h-220z" />
    <glyph glyph-name="afii10026" unicode="&#x418;" horiz-adv-x="1376" vert-adv-y="2457" 
d="M147 0v1413h280v-659q0 -130 -6 -292l38 62l40 68q63 105 100 164l349 544l26 113h254v-1413h-280v634q0 142 4 262l2 61q-47 -77 -65 -108q-52 -89 -86 -143l-376 -586l-26 -120h-254z" />
    <glyph glyph-name="afii10027" unicode="&#x419;" horiz-adv-x="1376" vert-adv-y="2457" 
d="M147 0v1413h280v-659q0 -130 -6 -292l38 62l40 68q63 105 100 164l349 544l26 113h254v-1413h-280v634q0 142 4 262l2 61q-47 -77 -65 -108q-52 -89 -86 -143l-376 -586l-26 -120h-254zM296 1884h203q8 -60 30 -95q41 -61 159 -61q125 0 165 72q17 31 24 84h203
q-3 -126 -48 -197q-46 -71 -125 -103q-84 -35 -219 -35q-180 0 -269 62q-94 65 -116 186q-6 35 -7 87z" />
    <glyph glyph-name="afii10028" unicode="&#x41a;" horiz-adv-x="1320" vert-adv-y="2457" 
d="M147 0v1413h307v-586h64q89 0 141 75q31 43 118 240q72 162 136 210q80 61 267 61h107l-17 -209h-71q-61 0 -91 -21q-34 -24 -73 -107q-11 -25 -49 -117q-38 -94 -76 -140q-24 -29 -67 -58q78 -35 133 -102q52 -62 134 -221l228 -438h-340l-173 336q-61 127 -83 162
q-51 85 -101 117q-46 29 -107 29h-80v-644h-307z" />
    <glyph glyph-name="afii10029" unicode="&#x41b;" horiz-adv-x="1357" vert-adv-y="2457" 
d="M-15 0l17 209h60q62 0 87 24q60 56 82 301q27 313 27 628v251h952v-1413h-307v1206h-366v-72q0 -22 -12 -337q-19 -496 -103 -651q-45 -83 -120 -117q-63 -29 -183 -29h-134z" />
    <glyph glyph-name="afii10030" unicode="&#x41c;" horiz-adv-x="1828" vert-adv-y="2457" 
d="M102 0l146 1413h377l204 -700q57 -194 91 -358q44 219 92 378l203 680h362l148 -1413h-292l-68 681q-20 196 -30 451q-78 -331 -107 -429l-213 -703h-215l-194 639q-52 173 -123 492q-10 -167 -22 -309l-11 -141l-67 -681h-281z" />
    <glyph glyph-name="afii10031" unicode="&#x41d;" horiz-adv-x="1427" vert-adv-y="2457" 
d="M147 0v1413h307v-572h519v572h307v-1413h-307v634h-519v-634h-307z" />
    <glyph glyph-name="afii10032" unicode="&#x41e;" horiz-adv-x="1428" vert-adv-y="2457" 
d="M724 1441q328 0 491 -223q138 -189 138 -511q0 -321 -138 -512q-162 -223 -501 -223q-340 0 -502 223q-138 190 -138 509q0 324 138 514q163 223 512 223zM719 1239q-168 0 -247 -142q-81 -145 -81 -394q0 -242 81 -387q79 -142 242 -142q162 0 241 142q81 146 81 390
q0 249 -81 391t-236 142z" />
    <glyph glyph-name="afii10033" unicode="&#x41f;" horiz-adv-x="1403" vert-adv-y="2457" 
d="M147 0v1413h1109v-1413h-307v1206h-495v-1206h-307z" />
    <glyph glyph-name="afii10034" unicode="&#x420;" horiz-adv-x="1199" vert-adv-y="2457" 
d="M147 0v1413h424q171 0 272 -24q170 -40 255 -173q62 -97 62 -237q0 -242 -160 -361q-126 -93 -376 -93h-170v-525h-307zM454 724h139q141 0 197 55q61 61 61 188q0 140 -70 200q-55 47 -181 47h-146v-490z" />
    <glyph glyph-name="afii10035" unicode="&#x421;" horiz-adv-x="1133" vert-adv-y="2457" 
d="M1071 251l29 -231q-168 -48 -376 -48q-350 0 -511 212q-139 184 -139 504q0 381 188 582q159 171 457 171q194 0 352 -66l-52 -226q-60 36 -88 49q-89 41 -192 41q-181 0 -266 -154q-82 -150 -82 -389q0 -235 76 -373q82 -149 291 -149q155 0 313 77z" />
    <glyph glyph-name="afii10036" unicode="&#x422;" horiz-adv-x="1186" vert-adv-y="2457" 
d="M439 0v1206h-400v207h1107v-207h-400v-1206h-307z" />
    <glyph glyph-name="afii10037" unicode="&#x423;" horiz-adv-x="1119" vert-adv-y="2457" 
d="M417 509l-483 904h324l223 -431q45 -88 95 -218q47 124 117 263l182 386h309l-724 -1413h-311z" />
    <glyph glyph-name="afii10038" unicode="&#x424;" horiz-adv-x="1691" vert-adv-y="2457" 
d="M702 -55v181q-628 65 -628 581t628 581v180h285v-179q629 -66 629 -582q0 -518 -629 -581v-181h-285zM702 321v772q-123 -27 -189 -77q-132 -99 -132 -310q0 -204 133 -303q72 -54 188 -82zM987 321q137 32 212 102q110 100 110 284q0 207 -137 308q-69 51 -185 79v-773z
" />
    <glyph glyph-name="afii10039" unicode="&#x425;" horiz-adv-x="1236" vert-adv-y="2457" 
d="M432 753l-243 393q-35 56 -175 267h354l170 -277q53 -86 99 -174q51 101 94 170l174 281h326q-133 -190 -164 -238l-283 -439l270 -440q31 -51 191 -296h-354l-204 332q-18 30 -58 101l-24 44l-24 41l-18 -31q-46 -80 -81 -135l-224 -352h-332q173 247 182 261z" />
    <glyph glyph-name="afii10040" unicode="&#x426;" horiz-adv-x="1432" vert-adv-y="2457" 
d="M147 0v1413h307v-1206h487v1206h307v-1206h146v-562h-243l-40 355h-964z" />
    <glyph glyph-name="afii10041" unicode="&#x427;" horiz-adv-x="1316" vert-adv-y="2457" 
d="M862 0v511q-59 -39 -97 -57q-103 -49 -243 -49q-253 0 -349 146q-61 92 -61 289v573h307v-513q0 -143 27 -199q38 -82 161 -82q160 0 255 132v662h307v-1413h-307z" />
    <glyph glyph-name="afii10042" unicode="&#x428;" horiz-adv-x="2024" vert-adv-y="2457" 
d="M147 0v1413h307v-1206h404v1206h307v-1206h405v1206h307v-1413h-1730z" />
    <glyph glyph-name="afii10043" unicode="&#x429;" horiz-adv-x="2061" vert-adv-y="2457" 
d="M147 0v1413h307v-1206h404v1206h307v-1206h404v1206h307v-1206h147v-562h-245l-39 355h-1592z" />
    <glyph glyph-name="afii10044" unicode="&#x42a;" horiz-adv-x="1468" vert-adv-y="2457" 
d="M354 0v1206h-371v207h678v-534h178q292 0 420 -88q84 -58 121 -144q37 -85 37 -211q0 -256 -184 -363q-126 -73 -394 -73h-485zM661 199h132q165 0 228 45q79 57 79 199q0 146 -88 201q-64 39 -217 39h-134v-484z" />
    <glyph glyph-name="afii10045" unicode="&#x42b;" horiz-adv-x="1846" vert-adv-y="2457" 
d="M1392 0v1413h307v-1413h-307zM147 0v1413h307v-534h178q291 0 420 -88q84 -58 121 -144q37 -84 37 -210q0 -257 -184 -364q-127 -73 -394 -73h-485zM454 199h133q164 0 227 45q79 58 79 200q0 145 -88 200q-64 39 -217 39h-134v-484z" />
    <glyph glyph-name="afii10046" unicode="&#x42c;" horiz-adv-x="1261" vert-adv-y="2457" 
d="M147 0v1413h307v-534h178q291 0 420 -88q84 -58 121 -144q37 -84 37 -210q0 -257 -184 -364q-127 -73 -394 -73h-485zM454 199h133q164 0 227 45q79 58 79 200q0 145 -88 200q-64 39 -217 39h-134v-484z" />
    <glyph glyph-name="afii10047" unicode="&#x42d;" horiz-adv-x="1169" vert-adv-y="2457" 
d="M191 631v202h578q-48 406 -349 406q-112 0 -210 -41q-29 -12 -97 -49l-52 226q171 66 379 66q331 0 495 -206q160 -200 160 -548q0 -319 -142 -503q-164 -212 -525 -212q-217 0 -396 48l29 231q172 -77 336 -77q172 0 259 92q104 110 119 365h-584z" />
    <glyph glyph-name="afii10048" unicode="&#x42e;" horiz-adv-x="2085" vert-adv-y="2457" 
d="M147 0v1413h307v-572h332q22 191 90 317q152 284 520 284q328 0 483 -224q133 -194 133 -512q0 -319 -133 -513q-153 -222 -483 -222q-570 0 -614 663h-328v-634h-307zM1401 1240q-155 0 -229 -143q-75 -146 -75 -395q0 -241 75 -387q73 -142 224 -142t224 142
q75 147 75 391q0 249 -75 391q-76 143 -219 143z" />
    <glyph glyph-name="afii10049" unicode="&#x42f;" horiz-adv-x="1280" vert-adv-y="2457" 
d="M825 574h-139q-42 0 -64 -11q-27 -14 -62 -75q-10 -20 -54 -110l-183 -378h-320l202 381q58 109 96 155q29 35 85 80q-130 50 -186 110q-97 104 -97 278q0 247 198 347q124 62 385 62h446v-1413h-307v574zM825 745v469h-168q-137 0 -192 -59q-53 -58 -53 -174
q0 -132 69 -189q56 -47 175 -47h169z" />
    <glyph glyph-name="afii10065" unicode="&#x430;" horiz-adv-x="1110" vert-adv-y="2457" 
d="M687 625v17q0 71 -21 108q-38 68 -167 68q-116 0 -262 -72l-49 202q163 63 354 63q299 0 394 -152q36 -56 43 -157q2 -34 2 -127v-275q0 -176 20 -300h-269q-8 59 -14 121q-41 -52 -81 -81q-95 -68 -247 -68q-173 0 -259 88q-71 74 -71 204q0 256 265 328q107 29 362 33z
M691 474q-125 -2 -200 -18q-140 -29 -140 -168q0 -134 128 -134q107 0 170 81q31 40 38 88q4 23 4 68v83z" />
    <glyph glyph-name="afii10066" unicode="&#x431;" horiz-adv-x="1137" vert-adv-y="2457" 
d="M395 917q27 23 55 41q80 51 196 51q129 0 228 -59q199 -119 199 -471q0 -241 -118 -370q-128 -138 -370 -138q-297 0 -408 197q-72 128 -72 423q0 404 67 596q64 181 232 244q125 46 349 57q58 3 207 5l-18 -199q-232 -3 -314 -18q-131 -23 -180 -108q-41 -71 -50 -187
q0 -8 -2 -43q0 -6 -1 -21zM397 525v-42q0 -130 36 -211q48 -107 152 -107q103 0 148 97q41 91 41 221q0 139 -42 232q-22 49 -69 78q-35 22 -79 22q-102 0 -154 -106q-33 -66 -33 -184z" />
    <glyph glyph-name="afii10067" unicode="&#x432;" horiz-adv-x="1145" vert-adv-y="2457" 
d="M134 0v983h526q212 0 300 -52q101 -59 101 -184q0 -98 -67 -160q-32 -30 -109 -59q92 -26 133 -64q69 -62 69 -178q0 -166 -138 -237q-96 -49 -296 -49h-519zM424 592h141q109 0 146 17q56 26 56 104q0 62 -42 84q-35 18 -127 18h-174v-223zM424 168h154q111 0 157 24
q53 27 53 100q0 89 -72 116q-44 16 -180 16h-112v-256z" />
    <glyph glyph-name="afii10068" unicode="&#x433;" horiz-adv-x="913" vert-adv-y="2457" 
d="M135 0v983h738l-16 -201h-432v-782h-290z" />
    <glyph glyph-name="afii10069" unicode="&#x434;" horiz-adv-x="1225" vert-adv-y="2457" 
d="M932 0h-687l-39 -328h-229v523h136q72 71 110 199q44 146 44 354v235h791v-788h142v-523h-227zM768 195v593h-244v-43q0 -200 -31 -334q-24 -109 -89 -216h364z" />
    <glyph glyph-name="afii10070" unicode="&#x435;" horiz-adv-x="1089" vert-adv-y="2457" 
d="M1020 423h-660q8 -107 33 -153q61 -110 267 -110q137 0 290 59l23 -210q-161 -37 -357 -37q-201 0 -309 49q-239 107 -239 443q0 232 109 375q129 172 396 172q451 0 451 -477q0 -31 -4 -111zM768 596q-8 98 -28 141q-43 90 -165 90q-189 0 -213 -231h406z" />
    <glyph glyph-name="afii10072" unicode="&#x436;" horiz-adv-x="1525" vert-adv-y="2457" 
d="M624 0v423h-30q-73 0 -127 -65q-39 -48 -117 -200l-83 -158h-293l139 262q77 147 130 206q34 39 109 75q-42 34 -88 121q-40 76 -61 95q-32 29 -109 29h-53l-16 195h78q147 0 222 -37q64 -31 113 -115q21 -38 74 -152q26 -58 46 -75q17 -15 51 -15h15v394h278v-394h15
q45 0 67 34q13 19 64 129q60 132 123 177q76 54 252 54h78l-16 -195h-53q-82 0 -115 -35q-18 -19 -55 -89q-32 -61 -49 -83q-14 -18 -39 -38q75 -36 109 -75q53 -59 130 -206l139 -262h-293l-83 158q-77 152 -117 200q-54 65 -127 65h-30v-423h-278z" />
    <glyph glyph-name="afii10073" unicode="&#x437;" horiz-adv-x="945" vert-adv-y="2457" 
d="M192 411v180h209q87 0 117 27q35 32 35 89q0 118 -182 118q-141 0 -261 -64l-50 196q177 54 357 54q185 0 297 -62q68 -37 102 -108q23 -48 23 -105q0 -77 -38 -136q-23 -34 -75 -75q70 -40 93 -65q61 -68 61 -177q0 -113 -69 -191q-67 -75 -202 -102q-87 -18 -226 -18
q-191 0 -351 37l24 210q153 -65 307 -65q132 0 180 32q46 30 46 102q0 75 -48 104q-32 19 -126 19h-223z" />
    <glyph glyph-name="afii10074" unicode="&#x438;" horiz-adv-x="1166" vert-adv-y="2457" 
d="M134 0v983h274v-580l349 499l18 81h256v-983h-274v600l-349 -500l-18 -100h-256z" />
    <glyph glyph-name="afii10075" unicode="&#x439;" horiz-adv-x="1166" vert-adv-y="2457" 
d="M134 0v983h274v-580l349 499l18 81h256v-983h-274v600l-349 -500l-18 -100h-256zM191 1465h203q8 -60 30 -95q41 -61 159 -61q125 0 165 72q17 31 24 84h203q-3 -126 -48 -197q-46 -71 -125 -103q-84 -35 -219 -35q-180 0 -269 62q-94 65 -116 186q-6 35 -7 87z" />
    <glyph glyph-name="afii10076" unicode="&#x43a;" horiz-adv-x="1103" vert-adv-y="2457" 
d="M135 0v983h290v-394h74q45 0 67 34q13 19 64 129q60 131 123 177q77 54 252 54h78l-16 -195h-53q-82 0 -115 -35q-18 -19 -55 -89q-46 -88 -88 -121q75 -37 109 -75q53 -59 130 -206l139 -262h-293l-83 157q-78 153 -117 201q-54 65 -127 65h-89v-423h-290z" />
    <glyph glyph-name="afii10077" unicode="&#x43b;" horiz-adv-x="1158" vert-adv-y="2457" 
d="M19 0l15 195h42q50 0 72 17q48 38 70 205q23 174 23 423v143h783v-983h-290v788h-237v-53q0 -183 -24 -356q-31 -235 -127 -315q-77 -64 -246 -64h-81z" />
    <glyph glyph-name="afii10078" unicode="&#x43c;" horiz-adv-x="1529" vert-adv-y="2457" 
d="M91 0l108 983h366l138 -449q27 -90 65 -250l13 55q28 116 54 199l137 445h361l109 -983h-287l-42 494q-9 113 -18 256l-14 -53q-33 -123 -60 -211l-153 -486h-206l-156 497q-30 94 -71 253q-9 -146 -19 -261l-41 -489h-284z" />
    <glyph glyph-name="afii10079" unicode="&#x43d;" horiz-adv-x="1179" vert-adv-y="2457" 
d="M134 0v983h290v-370h330v370h290v-983h-290v412h-330v-412h-290z" />
    <glyph glyph-name="afii10080" unicode="&#x43e;" horiz-adv-x="1143" vert-adv-y="2457" 
d="M579 1011q234 0 370 -145q126 -136 126 -374q0 -236 -126 -374q-133 -146 -377 -146q-245 0 -378 146q-126 138 -126 371q0 242 126 377q136 145 385 145zM575 817q-106 0 -159 -95q-49 -87 -49 -232q0 -141 48 -229q53 -95 157 -95q103 0 155 95q49 89 49 231
q0 144 -49 230q-53 95 -152 95z" />
    <glyph glyph-name="afii10081" unicode="&#x43f;" horiz-adv-x="1171" vert-adv-y="2457" 
d="M134 0v983h902v-983h-290v782h-322v-782h-290z" />
    <glyph glyph-name="afii10082" unicode="&#x440;" horiz-adv-x="1160" vert-adv-y="2457" 
d="M425 5v-464h-290v1055q0 200 -12 387h257l16 -101q113 129 292 129q208 0 312 -151q92 -132 92 -353q0 -237 -96 -368q-62 -85 -172 -128q-98 -39 -209 -39q-96 0 -190 33zM425 217q74 -51 153 -51q122 0 171 106q44 93 44 230q0 134 -44 224q-43 91 -138 91
q-99 0 -153 -108q-33 -64 -33 -183v-309z" />
    <glyph glyph-name="afii10083" unicode="&#x441;" horiz-adv-x="872" vert-adv-y="2457" 
d="M818 220l24 -211q-111 -37 -266 -37q-174 0 -276 53q-232 120 -232 459q0 271 151 413q120 114 333 114q170 0 281 -58l-53 -208q-81 72 -189 72q-115 0 -169 -90q-55 -91 -55 -240q0 -321 251 -321q101 0 200 54z" />
    <glyph glyph-name="afii10084" unicode="&#x442;" horiz-adv-x="897" vert-adv-y="2457" 
d="M302 0v782h-291l17 201h861l-17 -201h-280v-782h-290z" />
    <glyph glyph-name="afii10085" unicode="&#x443;" horiz-adv-x="1033" vert-adv-y="2457" 
d="M393 0l-402 983h315l147 -411q38 -105 87 -253l24 -71l40 152q28 107 44 165l118 418h276l-277 -859q-107 -331 -173 -430q-72 -106 -180 -148q-83 -32 -197 -32q-84 0 -168 13l21 195q59 -23 124 -23q174 0 262 236l24 65h-85z" />
    <glyph glyph-name="afii10086" unicode="&#x444;" horiz-adv-x="1607" vert-adv-y="2457" 
d="M671 -459v530q-83 -99 -217 -99q-126 0 -221 72q-166 124 -166 448q0 223 85 361q50 81 134 123q74 36 163 36q140 0 222 -100v559h257l2 -563q86 104 226 104q132 0 225 -76q158 -128 158 -444q0 -234 -91 -369q-50 -76 -137 -117q-74 -34 -158 -34q-133 0 -218 99v-530
h-264zM671 448v82q0 125 -33 193q-46 95 -122 95q-80 0 -120 -92q-38 -89 -38 -234t38 -234q40 -92 120 -92q83 0 128 109q27 64 27 173zM935 529v-81q0 -119 33 -187q46 -95 121 -95q82 0 121 92q38 90 38 234t-38 234q-39 92 -121 92q-81 0 -127 -108q-27 -65 -27 -181z
" />
    <glyph glyph-name="afii10087" unicode="&#x445;" horiz-adv-x="1062" vert-adv-y="2457" 
d="M366 514l-357 469h332l105 -138q50 -67 103 -147q51 79 110 157l97 128h304l-365 -469l389 -514h-332l-125 169q-67 90 -116 164q-50 -82 -109 -161l-130 -172h-306z" />
    <glyph glyph-name="afii10088" unicode="&#x446;" horiz-adv-x="1186" vert-adv-y="2457" 
d="M134 0v983h290v-788h316v788h290v-788h142v-523h-227l-42 328h-769z" />
    <glyph glyph-name="afii10089" unicode="&#x447;" horiz-adv-x="1122" vert-adv-y="2457" 
d="M698 0v350q-108 -56 -248 -56q-250 0 -324 159q-36 77 -36 276v254h290v-293q0 -101 24 -143q33 -58 125 -58q89 0 169 63v431h290v-983h-290z" />
    <glyph glyph-name="afii10090" unicode="&#x448;" horiz-adv-x="1664" vert-adv-y="2457" 
d="M134 0v983h290v-788h263v788h290v-788h262v788h290v-983h-1395z" />
    <glyph glyph-name="afii10091" unicode="&#x449;" horiz-adv-x="1688" vert-adv-y="2457" 
d="M134 0v983h290v-788h263v788h290v-788h263v788h290v-788h142v-523h-228l-41 328h-1269z" />
    <glyph glyph-name="afii10092" unicode="&#x44a;" horiz-adv-x="1240" vert-adv-y="2457" 
d="M279 0v782h-309l20 201h579v-344h189q224 0 320 -67q118 -82 118 -253q0 -184 -139 -264q-96 -55 -299 -55h-479zM569 173h115q113 0 159 27q54 31 54 118q0 99 -63 126q-48 22 -150 22h-115v-293z" />
    <glyph glyph-name="afii10093" unicode="&#x44b;" horiz-adv-x="1624" vert-adv-y="2457" 
d="M1199 0v983h290v-983h-290zM134 0v983h290v-344h189q224 0 320 -67q118 -82 118 -253q0 -184 -139 -264q-96 -55 -299 -55h-479zM424 173h115q113 0 159 27q54 31 54 118q0 99 -63 126q-48 22 -150 22h-115v-293z" />
    <glyph glyph-name="afii10094" unicode="&#x44c;" horiz-adv-x="1096" vert-adv-y="2457" 
d="M134 0v983h290v-344h189q224 0 320 -67q118 -82 118 -253q0 -184 -139 -264q-96 -55 -299 -55h-479zM424 173h115q113 0 159 27q54 31 54 118q0 99 -63 126q-48 22 -150 22h-115v-293z" />
    <glyph glyph-name="afii10095" unicode="&#x44d;" horiz-adv-x="946" vert-adv-y="2457" 
d="M172 415v180h404q-38 228 -231 228q-134 0 -243 -62l-49 196q156 53 324 53q227 0 348 -111q153 -141 153 -416q0 -256 -139 -389q-76 -72 -173 -98q-92 -24 -207 -24q-175 0 -334 36l24 211q148 -65 272 -65q165 0 227 133q21 45 31 128h-407z" />
    <glyph glyph-name="afii10096" unicode="&#x44e;" horiz-adv-x="1668" vert-adv-y="2457" 
d="M134 0v983h290v-373h220q22 138 94 231q133 171 377 171q235 0 362 -145q121 -139 121 -376q0 -236 -121 -374q-127 -146 -360 -146q-305 0 -424 241q-42 85 -54 203h-215v-415h-290zM1120 818q-98 0 -147 -95q-46 -89 -46 -235q0 -139 45 -227q49 -96 145 -96t145 96
q45 88 45 229q0 146 -45 233q-50 95 -142 95z" />
    <glyph glyph-name="afii10097" unicode="&#x44f;" horiz-adv-x="1156" vert-adv-y="2457" 
d="M732 351h-79q-56 0 -96 -38q-34 -33 -101 -138l-112 -175h-284l103 162q8 13 69 93q50 65 104 110q-250 57 -250 299q0 185 130 263q92 56 300 56h506v-983h-290v351zM732 525v285h-183q-92 0 -127 -33q-37 -36 -37 -107q0 -81 46 -118q34 -27 114 -27h187z" />
    <glyph glyph-name="afii10071" unicode="&#x451;" horiz-adv-x="1089" vert-adv-y="2457" 
d="M1020 423h-660q8 -107 33 -153q61 -110 267 -110q137 0 290 59l23 -210q-161 -37 -357 -37q-201 0 -309 49q-239 107 -239 443q0 232 109 375q129 172 396 172q451 0 451 -477q0 -31 -4 -111zM768 596q-8 98 -28 141q-43 90 -165 90q-189 0 -213 -231h406zM363 1448
q69 0 115 -46t46 -109q0 -64 -46 -110t-114 -46q-70 0 -116 46t-46 111q0 63 46 108q48 46 115 46zM780 1448q69 0 115 -46t46 -109q0 -64 -46 -110t-114 -46q-70 0 -116 46t-46 111q0 63 46 108q47 46 115 46z" />
    <glyph glyph-name="afii10099" unicode="&#x452;" horiz-adv-x="1188" vert-adv-y="2457" 
d="M135 0v1120h-142v159h138v29q-1 60 -7 134l301 61v-224h274v-159h-274v-245q141 136 315 136q196 0 273 -128q46 -77 46 -252v-418q0 -197 -17 -313q-57 -386 -457 -386q-76 0 -169 13l22 193q75 -21 141 -21q123 0 161 116q29 90 29 324v430q0 117 -17 160
q-26 68 -103 68q-103 0 -185 -119q-30 -43 -36 -84q-3 -19 -3 -64v-530h-290z" />
    <glyph glyph-name="afii10100" unicode="&#x453;" horiz-adv-x="913" vert-adv-y="2457" 
d="M135 0v983h738l-16 -201h-432v-782h-290zM365 1148l180 296h331l-291 -296h-220z" />
    <glyph glyph-name="afii10101" unicode="&#x454;" horiz-adv-x="937" vert-adv-y="2457" 
d="M774 595v-180h-402q13 -100 43 -151q64 -110 207 -110q125 0 275 65l24 -211q-161 -36 -339 -36q-176 0 -279 53q-235 120 -235 457q0 275 155 417q122 111 349 111q166 0 321 -53l-50 -196q-107 62 -237 62q-190 0 -231 -228h399z" />
    <glyph glyph-name="afii10102" unicode="&#x455;" horiz-adv-x="877" vert-adv-y="2457" 
d="M50 27l35 206q71 -30 113 -43q91 -27 191 -27q159 0 159 93q0 40 -39 70q-35 28 -161 85q-151 67 -212 129q-68 69 -68 181q0 153 110 225q98 65 267 65q154 0 306 -57l-53 -208q-31 24 -71 40q-83 35 -159 35q-124 0 -124 -79q0 -43 45 -74q34 -23 158 -83
q156 -74 210 -129q67 -68 67 -182q0 -302 -403 -302q-198 0 -371 55z" />
    <glyph glyph-name="afii10103" unicode="&#x456;" horiz-adv-x="569" vert-adv-y="2457" 
d="M141 0v983h290v-983h-290zM286 1457q72 0 121 -49q49 -48 49 -115t-49 -116q-48 -49 -121 -49q-74 0 -122 49q-49 49 -49 117q0 67 49 114q50 49 122 49z" />
    <glyph glyph-name="afii10104" unicode="&#x457;" horiz-adv-x="567" vert-adv-y="2457" 
d="M139 0v983h290v-983h-290zM75 1448q69 0 115 -46t46 -109q0 -64 -46 -110t-114 -46q-70 0 -116 46t-46 111q0 63 46 108q48 46 115 46zM492 1448q69 0 115 -46t46 -109q0 -64 -46 -110t-114 -46q-70 0 -116 46t-46 111q0 63 46 108q47 46 115 46z" />
    <glyph glyph-name="afii10105" unicode="&#x458;" horiz-adv-x="574" vert-adv-y="2457" 
d="M144 983h290v-770q0 -198 -17 -314q-57 -385 -456 -385q-77 0 -170 13l22 193q76 -21 141 -21q124 0 161 116q29 90 29 324v844zM288 1457q73 0 122 -49q49 -48 49 -115t-49 -116t-121 -49q-74 0 -122 49q-49 49 -49 117q0 67 49 114q50 49 121 49z" />
    <glyph glyph-name="afii10106" unicode="&#x459;" horiz-adv-x="1695" vert-adv-y="2457" 
d="M733 0v788h-237v-53q0 -184 -24 -357q-31 -233 -127 -314q-77 -64 -246 -64h-81l15 195h42q51 0 72 17q93 72 93 628v143h783v-344h189q224 0 319 -67q119 -82 119 -254q0 -182 -139 -263q-96 -55 -299 -55h-479zM1023 173h115q113 0 159 26q54 30 54 119q0 98 -63 126
q-48 22 -150 22h-115v-293z" />
    <glyph glyph-name="afii10107" unicode="&#x45a;" horiz-adv-x="1704" vert-adv-y="2457" 
d="M742 0v427h-318v-427h-290v983h290v-361h318v361h290v-344h189q226 0 320 -66q118 -84 118 -254q0 -184 -139 -264q-96 -55 -299 -55h-479zM1032 173h115q113 0 159 27q54 31 54 119q0 99 -63 126q-47 21 -150 21h-115v-293z" />
    <glyph glyph-name="afii10108" unicode="&#x45b;" horiz-adv-x="1188" vert-adv-y="2457" 
d="M135 0v1120h-142v159h138v29q-1 60 -7 134l301 61v-224h274v-159h-274v-245q141 136 315 136q196 0 273 -128q46 -77 46 -252v-631h-290v569q0 117 -17 160q-26 68 -103 68q-103 0 -185 -119q-30 -43 -36 -84q-3 -19 -3 -64v-530h-290z" />
    <glyph glyph-name="afii10109" unicode="&#x45c;" horiz-adv-x="1103" vert-adv-y="2457" 
d="M135 0v983h290v-394h74q45 0 67 34q13 19 64 129q60 131 123 177q77 54 252 54h78l-16 -195h-53q-82 0 -115 -35q-18 -19 -55 -89q-46 -88 -88 -121q75 -37 109 -75q53 -59 130 -206l139 -262h-293l-83 157q-78 153 -117 201q-54 65 -127 65h-89v-423h-290zM461 1148
l180 296h331l-291 -296h-220z" />
    <glyph glyph-name="uni045D" unicode="&#x45d;" horiz-adv-x="1166" vert-adv-y="2457" 
d="M134 0v983h274v-580l349 499l18 81h256v-983h-274v600l-349 -500l-18 -100h-256zM540 1148l-292 296h331l180 -296h-219z" />
    <glyph glyph-name="afii10110" unicode="&#x45e;" horiz-adv-x="1033" vert-adv-y="2457" 
d="M393 0l-402 983h315l147 -411q38 -105 87 -253l24 -71l40 152q28 107 44 165l118 418h276l-277 -859q-107 -331 -173 -430q-72 -106 -180 -148q-83 -32 -197 -32q-84 0 -168 13l21 195q59 -23 124 -23q174 0 262 236l24 65h-85zM139 1465h203q8 -60 30 -95
q41 -61 159 -61q125 0 165 72q17 31 24 84h203q-3 -126 -48 -197q-46 -71 -125 -103q-84 -35 -219 -35q-180 0 -269 62q-94 65 -116 186q-6 35 -7 87z" />
    <glyph glyph-name="afii10193" unicode="&#x45f;" horiz-adv-x="1165" vert-adv-y="2457" 
d="M135 0v983h290v-788h316v788h290v-983h-306l-34 -328h-216l-33 328h-307z" />
    <glyph glyph-name="uni0462" unicode="&#x462;" horiz-adv-x="1464" vert-adv-y="2457" 
d="M329 0v1197h-303v207h1087v-207h-477v-318h179q292 0 421 -89q83 -58 121 -144q37 -84 37 -209q0 -257 -184 -364q-126 -73 -395 -73h-486zM636 199h133q165 0 228 45q80 58 80 198q0 148 -88 202q-65 40 -219 40h-134v-485z" />
    <glyph glyph-name="uni0463" unicode="&#x463;" horiz-adv-x="1160" vert-adv-y="2457" 
d="M135 1120h-142v159h139q-3 81 -8 163l301 61v-224h274v-159h-274v-200q107 91 261 91q199 0 305 -141q100 -133 100 -360q0 -240 -97 -372q-122 -166 -406 -166q-234 0 -469 99q16 132 16 395v654zM425 210q70 -44 150 -44q217 0 217 340q0 138 -47 226q-45 85 -132 85
q-101 0 -155 -107q-33 -65 -33 -189v-311z" />
    <glyph glyph-name="afii10050" unicode="&#x490;" horiz-adv-x="1109" vert-adv-y="2457" 
d="M147 0v1413h635v355h258l45 -562h-631v-1206h-307z" />
    <glyph glyph-name="afii10098" unicode="&#x491;" horiz-adv-x="918" vert-adv-y="2457" 
d="M140 0v983h496v329h242l44 -530h-492v-782h-290z" />
    <glyph glyph-name="uni0492" unicode="&#x492;" horiz-adv-x="1083" vert-adv-y="2457" 
d="M145 0v416h-161v172h161v825h892l-2 -207h-583v-618h336v-172h-336v-416h-307z" />
    <glyph glyph-name="uni0493" unicode="&#x493;" horiz-adv-x="913" vert-adv-y="2457" 
d="M134 0v268h-141v181h141v534h738l-16 -201h-432v-333h284v-181h-284v-268h-290z" />
    <glyph glyph-name="uni0496" unicode="&#x496;" horiz-adv-x="2001" vert-adv-y="2457" 
d="M823 0v644h-34q-95 0 -159 -78q-39 -47 -75 -116q-9 -16 -56 -114l-173 -336h-340l228 438q82 159 134 221q55 67 133 102q-55 36 -85 82q-29 44 -86 185q-40 99 -77 140q-32 36 -108 36h-71l-17 209h107q155 0 235 -41q67 -33 120 -131q24 -46 104 -226q50 -112 97 -153
q38 -35 106 -35h17v586h307v-586h16q90 0 142 75q30 43 118 240q72 162 136 210q79 61 267 61h107l-17 -209h-72q-61 0 -90 -21q-34 -24 -73 -107q-12 -25 -49 -117q-38 -94 -76 -140q-24 -29 -68 -58q79 -35 134 -102q52 -63 134 -221l120 -231h158v-562h-243l-40 355h-108
l-172 336q-62 127 -83 162q-52 85 -101 117q-46 29 -107 29h-33v-644h-307z" />
    <glyph glyph-name="uni0497" unicode="&#x497;" horiz-adv-x="1587" vert-adv-y="2457" 
d="M624 0v424h-30q-73 0 -127 -65q-39 -49 -117 -201l-83 -158h-293l139 263q77 146 130 205q34 39 109 75q-42 34 -88 121q-40 76 -61 95q-32 29 -109 29h-53l-16 195h78q147 0 222 -37q64 -31 113 -115q21 -38 74 -152q26 -58 46 -75q17 -15 51 -15h15v394h278v-394h15
q45 0 67 34q13 19 64 129q60 132 123 177q76 54 252 54h78l-16 -195h-53q-82 0 -115 -35q-18 -19 -55 -89q-32 -61 -49 -83q-14 -17 -39 -38q75 -36 109 -75q47 -52 130 -205l37 -68h153v-523h-227l-41 328h-76l-83 158q-77 152 -117 201q-54 65 -127 65h-30v-424h-278z" />
    <glyph glyph-name="uni049A" unicode="&#x49a;" horiz-adv-x="1352" vert-adv-y="2457" 
d="M147 0v1413h307v-586h64q89 0 141 75q33 46 119 240q45 102 74 143q55 79 139 106q68 22 189 22h107l-17 -209h-71q-61 0 -91 -21q-33 -24 -73 -107q-11 -25 -49 -117q-40 -98 -85 -147q-20 -21 -58 -51q81 -42 119 -85q59 -65 148 -238l120 -231h141v-562h-243l-40 355
h-90l-173 336q-61 127 -83 162q-51 85 -101 117q-46 29 -107 29h-80v-644h-307z" />
    <glyph glyph-name="uni049B" unicode="&#x49b;" horiz-adv-x="1144" vert-adv-y="2457" 
d="M135 0v983h290v-394h74q45 0 67 34q13 19 64 129q60 131 123 177q76 54 251 54h79l-16 -195h-53q-82 0 -115 -35q-19 -19 -55 -89q-46 -88 -89 -121q76 -37 110 -75q47 -53 130 -206l37 -67h131v-523h-227l-41 328h-54l-83 158q-77 151 -117 200q-53 65 -127 65h-89v-423
h-290z" />
    <glyph glyph-name="uni049C" unicode="&#x49c;" horiz-adv-x="1385" vert-adv-y="2457" 
d="M147 0v1413h307v-585h80v267h172v-208q32 34 54 74q15 27 82 181q70 160 136 209q81 62 266 62h107l-17 -209h-71q-61 0 -91 -21q-33 -24 -73 -108q-11 -24 -49 -116q-38 -94 -76 -138q-23 -27 -67 -60q81 -42 119 -85q58 -64 148 -238l228 -438h-340l-173 336
q-70 145 -105 194q-22 33 -54 57q-17 13 -24 18v-216h-172v255h-80v-644h-307z" />
    <glyph glyph-name="uni049D" unicode="&#x49d;" horiz-adv-x="1197" vert-adv-y="2457" 
d="M134 0v983h290v-393h67v210h160v-150q28 34 55 94q53 118 103 165q46 44 117 61q56 13 156 13h79l-17 -195h-52q-64 0 -94 -18q-27 -16 -57 -70q-10 -17 -38 -71q-29 -55 -70 -91q63 -31 97 -67q51 -55 132 -208l139 -263h-298l-78 158q-70 141 -103 186q-32 44 -71 59
v-210h-160v231h-67v-424h-290z" />
    <glyph glyph-name="uni04A2" unicode="&#x4a2;" horiz-adv-x="1457" vert-adv-y="2457" 
d="M147 0v1413h307v-572h519v572h307v-1206h140v-562h-243l-40 355h-164v634h-519v-634h-307z" />
    <glyph glyph-name="uni04A3" unicode="&#x4a3;" horiz-adv-x="1197" vert-adv-y="2457" 
d="M134 0v983h290v-370h330v370h290v-788h139v-523h-227l-41 328h-161v412h-330v-412h-290z" />
    <glyph glyph-name="uni04AE" unicode="&#x4ae;" horiz-adv-x="1126" vert-adv-y="2457" 
d="M409 0v536l-471 877h340l200 -379q33 -64 102 -224q72 171 111 244l190 359h308l-473 -877v-536h-307z" />
    <glyph glyph-name="uni04AF" unicode="&#x4af;" horiz-adv-x="1032" vert-adv-y="2457" 
d="M365 -459v443l-384 999h312l143 -386q41 -113 98 -310q55 197 105 331l135 365h276l-394 -994v-448h-291z" />
    <glyph glyph-name="uni04B0" unicode="&#x4b0;" horiz-adv-x="1126" vert-adv-y="2457" 
d="M409 0v407h-254v172h230l-447 834h340l200 -379q33 -64 102 -224q72 172 110 244l191 359h308l-450 -834h232v-172h-255v-407h-307z" />
    <glyph glyph-name="uni04B1" unicode="&#x4b1;" horiz-adv-x="1032" vert-adv-y="2457" 
d="M365 -459v278h-207v181h201l-378 983h312l143 -386q42 -112 99 -310q55 196 105 331l134 365h276l-389 -983h212v-181h-216v-278h-292z" />
    <glyph glyph-name="uni04B2" unicode="&#x4b2;" horiz-adv-x="1288" vert-adv-y="2457" 
d="M432 753l-243 393q-35 56 -175 267h354l170 -277q53 -86 99 -174q51 101 94 170l174 281h326q-133 -190 -164 -238l-283 -439l323 -529h176v-562h-243l-40 355h-109l-204 332q-18 30 -58 101l-24 44l-24 41l-18 -31q-46 -80 -81 -135l-224 -352h-332q173 247 182 261z
" />
    <glyph glyph-name="uni04B3" unicode="&#x4b3;" horiz-adv-x="1114" vert-adv-y="2457" 
d="M366 514l-357 469h332l105 -138q50 -67 103 -147q51 79 110 157l97 128h304l-365 -469l239 -319h190v-523h-228l-41 328h-103l-125 169q-67 90 -116 164q-49 -81 -109 -161l-130 -172h-306z" />
    <glyph glyph-name="uni04B6" unicode="&#x4b6;" horiz-adv-x="1347" vert-adv-y="2457" 
d="M862 0v511q-59 -39 -97 -57q-104 -49 -243 -49q-253 0 -349 146q-61 92 -61 289v573h307v-513q0 -143 27 -199q38 -82 161 -82q160 0 255 132v662h307v-1206h140v-562h-243l-40 355h-164z" />
    <glyph glyph-name="uni04B7" unicode="&#x4b7;" horiz-adv-x="1140" vert-adv-y="2457" 
d="M698 0v350q-107 -56 -248 -56q-250 0 -324 159q-36 77 -36 276v254h290v-293q0 -101 24 -143q33 -58 125 -58q90 0 169 63v431h290v-788h139v-523h-227l-41 328h-161z" />
    <glyph glyph-name="uni04B8" unicode="&#x4b8;" horiz-adv-x="1359" vert-adv-y="2457" 
d="M905 0v538q-80 -62 -165 -95v-242l-172 1v205q-103 0 -175 13q-188 34 -247 184q-34 88 -34 236v573h307v-513q0 -162 39 -218q28 -41 110 -59v284l172 -1v-255q87 39 165 138v624h307v-1413h-307z" />
    <glyph glyph-name="uni04B9" unicode="&#x4b9;" horiz-adv-x="1218" vert-adv-y="2457" 
d="M794 0v342q-8 -4 -29 -15q-29 -16 -102 -25v-201h-160v192q-214 2 -317 91q-74 64 -90 197q-6 55 -6 149v253h290v-292q0 -115 41 -158q26 -26 82 -38v236h160v-234q53 10 131 55v431h290v-983h-290z" />
    <glyph glyph-name="uni04BA" unicode="&#x4ba;" horiz-adv-x="1367" vert-adv-y="2457" 
d="M147 0v1413h307v-584q64 43 109 65q118 56 271 56q261 0 361 -158q41 -66 54 -163q7 -53 7 -152v-477h-307v435q0 155 -26 217q-41 96 -176 96q-114 0 -209 -78q-50 -42 -84 -99v-571h-307z" />
    <glyph glyph-name="uni04BB" unicode="&#x4bb;" horiz-adv-x="1188" vert-adv-y="2457" 
d="M134 0v1113q0 149 -11 329l301 62v-629q141 136 315 136q196 0 273 -128q46 -77 46 -252v-631h-290v569q0 117 -16 160q-27 68 -103 68q-104 0 -186 -119q-30 -43 -36 -84q-3 -21 -3 -64v-530h-290z" />
    <glyph glyph-name="uni04C0" unicode="&#x4c0;" horiz-adv-x="632" vert-adv-y="2457" 
d="M162 0v1413h307v-1413h-307z" />
    <glyph glyph-name="uni04CF" unicode="&#x4cf;" horiz-adv-x="632" vert-adv-y="2457" 
d="M162 0v1413h307v-1413h-307z" />
    <glyph glyph-name="uni04D8" unicode="&#x4d8;" horiz-adv-x="1456" vert-adv-y="2457" 
d="M1064 625h-991q4 157 17 248q85 568 646 568q340 0 506 -223q142 -191 142 -512q0 -320 -142 -511q-88 -120 -216 -170q-136 -53 -318 -53q-302 0 -526 154l68 212q103 -64 157 -92q139 -72 298 -72q158 0 238 88q107 119 121 363zM1060 829q-18 147 -49 215
q-86 195 -283 195q-288 0 -332 -410h664z" />
    <glyph glyph-name="afii10846" unicode="&#x4d9;" horiz-adv-x="1143" vert-adv-y="2457" 
d="M776 415h-685q0 158 23 253q46 188 194 277q107 65 265 65q245 0 377 -147q125 -139 125 -374q0 -244 -139 -377q-88 -84 -202 -113q-110 -27 -241 -27q-187 0 -348 37l23 210q155 -59 295 -59q144 0 211 51q84 65 102 204zM776 588q-35 238 -206 238q-177 0 -206 -238
h412z" />
    <glyph glyph-name="uni04E8" unicode="&#x4e8;" horiz-adv-x="1456" vert-adv-y="2457" 
d="M728 1441q347 0 514 -223q142 -190 142 -511t-142 -511q-166 -224 -518 -224q-344 0 -510 224q-142 190 -142 520q0 312 142 501q167 224 514 224zM396 829h665q-51 410 -333 410q-210 0 -293 -228q-29 -78 -39 -182zM392 625q13 -153 47 -237q87 -214 289 -214
q302 0 336 451h-672z" />
    <glyph glyph-name="uni04E9" unicode="&#x4e9;" horiz-adv-x="1162" vert-adv-y="2457" 
d="M581 1011q246 0 384 -145q128 -136 128 -374t-128 -374q-137 -146 -383 -146q-248 0 -386 145q-128 137 -128 382q0 232 128 367q139 145 385 145zM366 582h429q-32 244 -215 244q-180 0 -214 -244zM366 406q31 -250 215 -250q187 0 214 250h-429z" />
    <glyph glyph-name="Wdieresis" unicode="&#x1e84;" horiz-adv-x="1819" vert-adv-y="2457" 
d="M379 0l-381 1413h297l143 -549q12 -44 56 -262l30 -150l20 -105q18 79 64 295q64 266 74 302l129 469h219l130 -469q55 -201 144 -615q62 410 113 608l122 476h283l-385 -1413h-275l-157 595q-52 197 -91 428q-58 -302 -105 -477l-145 -546h-285zM688 1874q69 0 115 -46
t46 -109q0 -64 -46 -110t-115 -46t-115 46t-46 111q0 63 46 108q47 46 115 46zM1132 1874q68 0 115 -46q46 -46 46 -109q0 -64 -46 -110t-115 -46t-115 46t-46 111q0 63 46 108q48 46 115 46z" />
    <glyph glyph-name="wdieresis" unicode="&#x1e85;" horiz-adv-x="1574" vert-adv-y="2457" 
d="M336 0l-335 983h306l118 -377q12 -38 46 -168l17 -67l16 -60l14 60l14 57q33 139 43 173l110 382h243l106 -388q5 -18 39 -163l15 -64l13 -57q11 43 31 125q23 96 45 168l118 379h279l-346 -983h-279l-111 423q-22 82 -52 224l-13 -57q-30 -129 -43 -175l-115 -415h-279z
M579 1448q69 0 115 -46t46 -109q0 -64 -46 -110t-115 -46t-115 46t-46 111q0 63 46 108q47 46 115 46zM996 1448q69 0 115 -46t46 -109q0 -64 -46 -110t-114 -46q-70 0 -116 46t-46 111q0 63 46 108q48 46 115 46z" />
    <glyph glyph-name="uni1EA0" unicode="&#x1ea0;" horiz-adv-x="1340" vert-adv-y="2457" 
d="M943 335h-567l-128 -335h-304l569 1413h316l567 -1413h-325zM870 534l-130 356q-35 98 -81 247q-37 -128 -78 -238l-132 -365h421zM670 -130q73 0 122 -49q49 -48 49 -116q0 -67 -49 -115q-48 -49 -121 -49t-122 49q-49 48 -49 117q0 67 49 114q50 49 121 49z" />
    <glyph glyph-name="uni1EA1" unicode="&#x1ea1;" horiz-adv-x="1110" vert-adv-y="2457" 
d="M687 625v17q0 71 -21 108q-38 68 -167 68q-116 0 -262 -72l-49 202q163 63 354 63q299 0 394 -152q36 -56 43 -157q2 -34 2 -127v-275q0 -176 20 -300h-269q-8 59 -14 121q-41 -52 -81 -81q-95 -68 -247 -68q-173 0 -259 88q-71 74 -71 204q0 256 265 328q107 29 362 33z
M691 474q-125 -2 -200 -18q-140 -29 -140 -168q0 -134 128 -134q107 0 170 81q31 40 38 88q4 23 4 68v83zM531 -130q72 0 121 -49q49 -48 49 -116q0 -67 -49 -115q-48 -49 -121 -49q-74 0 -122 49q-49 48 -49 117q0 67 49 114q50 49 122 49z" />
    <glyph glyph-name="uni1EA2" unicode="&#x1ea2;" horiz-adv-x="1340" vert-adv-y="2457" 
d="M943 335h-567l-128 -335h-304l569 1413h316l567 -1413h-325zM870 534l-130 356q-35 98 -81 247q-37 -128 -78 -238l-132 -365h421zM583 1515v150q84 2 111 17q45 24 45 75q0 81 -93 81q-63 0 -141 -37l-34 117q109 39 222 39q129 0 204 -50q76 -51 76 -143
q0 -103 -91 -142q-56 -24 -156 -32l-6 -75h-137z" />
    <glyph glyph-name="uni1EA3" unicode="&#x1ea3;" horiz-adv-x="1110" vert-adv-y="2457" 
d="M687 625v17q0 71 -21 108q-38 68 -167 68q-116 0 -262 -72l-49 202q163 63 354 63q299 0 394 -152q36 -56 43 -157q2 -34 2 -127v-275q0 -176 20 -300h-269q-8 59 -14 121q-41 -52 -81 -81q-95 -68 -247 -68q-173 0 -259 88q-71 74 -71 204q0 256 265 328q107 29 362 33z
M691 474q-125 -2 -200 -18q-140 -29 -140 -168q0 -134 128 -134q107 0 170 81q31 40 38 88q4 23 4 68v83zM481 1097v150q85 3 111 16q45 24 45 76q0 81 -93 81q-63 0 -141 -38l-34 118q109 39 223 39q128 0 203 -50q76 -51 76 -143q0 -103 -91 -142q-55 -24 -156 -32l-6 -75
h-137z" />
    <glyph glyph-name="uni1EA4" unicode="&#x1ea4;" horiz-adv-x="1340" vert-adv-y="2457" 
d="M943 335h-567l-128 -335h-304l569 1413h316l567 -1413h-325zM870 534l-130 356q-35 98 -81 247q-37 -128 -78 -238l-132 -365h421zM670 1734l-141 -168h-228l213 297h312l213 -297h-228zM962 1726l100 285h299l-228 -285h-171z" />
    <glyph glyph-name="uni1EA5" unicode="&#x1ea5;" horiz-adv-x="1110" vert-adv-y="2457" 
d="M687 625v17q0 71 -21 108q-38 68 -167 68q-116 0 -262 -72l-49 202q163 63 354 63q299 0 394 -152q36 -56 43 -157q2 -34 2 -127v-275q0 -176 20 -300h-269q-8 59 -14 121q-41 -52 -81 -81q-95 -68 -247 -68q-173 0 -259 88q-71 74 -71 204q0 256 265 328q107 29 362 33z
M691 474q-125 -2 -200 -18q-140 -29 -140 -168q0 -134 128 -134q107 0 170 81q31 40 38 88q4 23 4 68v83zM566 1315l-141 -167h-228l212 296h313l213 -296h-228zM858 1308l99 285h300l-229 -285h-170z" />
    <glyph glyph-name="uni1EA6" unicode="&#x1ea6;" horiz-adv-x="1340" vert-adv-y="2457" 
d="M943 335h-567l-128 -335h-304l569 1413h316l567 -1413h-325zM870 534l-130 356q-35 98 -81 247q-37 -128 -78 -238l-132 -365h421zM670 1734l-141 -168h-228l213 297h312l213 -297h-228zM1100 1726l-228 285h299l100 -285h-171z" />
    <glyph glyph-name="uni1EA7" unicode="&#x1ea7;" horiz-adv-x="1110" vert-adv-y="2457" 
d="M687 625v17q0 71 -21 108q-38 68 -167 68q-116 0 -262 -72l-49 202q163 63 354 63q299 0 394 -152q36 -56 43 -157q2 -34 2 -127v-275q0 -176 20 -300h-269q-8 59 -14 121q-41 -52 -81 -81q-95 -68 -247 -68q-173 0 -259 88q-71 74 -71 204q0 256 265 328q107 29 362 33z
M691 474q-125 -2 -200 -18q-140 -29 -140 -168q0 -134 128 -134q107 0 170 81q31 40 38 88q4 23 4 68v83zM550 1315l-142 -167h-227l212 296h313l213 -296h-228zM980 1308l-229 285h300l99 -285h-170z" />
    <glyph glyph-name="uni1EA8" unicode="&#x1ea8;" horiz-adv-x="1340" vert-adv-y="2457" 
d="M943 335h-567l-128 -335h-304l569 1413h316l567 -1413h-325zM870 534l-130 356q-35 98 -81 247q-37 -128 -78 -238l-132 -365h421zM670 1734l-141 -168h-228l213 297h312l213 -297h-228zM966 1684v136q69 1 95 16q41 22 41 73q0 78 -88 78q-54 0 -125 -34l-34 117
q103 36 208 36q126 0 199 -49q74 -51 74 -141q0 -101 -87 -140q-52 -24 -149 -31v-61h-134z" />
    <glyph glyph-name="uni1EA9" unicode="&#x1ea9;" horiz-adv-x="1110" vert-adv-y="2457" 
d="M687 625v17q0 71 -21 108q-38 68 -167 68q-116 0 -262 -72l-49 202q163 63 354 63q299 0 394 -152q36 -56 43 -157q2 -34 2 -127v-275q0 -176 20 -300h-269q-8 59 -14 121q-41 -52 -81 -81q-95 -68 -247 -68q-173 0 -259 88q-71 74 -71 204q0 256 265 328q107 29 362 33z
M691 474q-125 -2 -200 -18q-140 -29 -140 -168q0 -134 128 -134q107 0 170 81q31 40 38 88q4 23 4 68v83zM545 1315l-141 -167h-228l213 296h313l212 -296h-228zM841 1265v136q71 2 96 16q41 23 41 72q0 79 -88 79q-54 0 -125 -34l-34 117q102 36 208 36q125 0 199 -50
t74 -140q0 -101 -87 -140q-53 -24 -150 -31v-61h-134z" />
    <glyph glyph-name="uni1EAA" unicode="&#x1eaa;" horiz-adv-x="1340" vert-adv-y="2457" 
d="M943 335h-567l-128 -335h-304l569 1413h316l567 -1413h-325zM870 534l-130 356q-35 98 -81 247q-37 -128 -78 -238l-132 -365h421zM673 1675l-173 -168h-227l235 297h331l235 -297h-228zM474 1885h-170q22 122 61 182q62 95 175 95q58 0 108 -25q26 -13 79 -62
q50 -46 74 -46q48 0 62 122h171q-12 -117 -47 -178q-56 -100 -185 -100q-77 0 -133 40q-14 10 -60 54q-42 39 -64 39q-33 0 -53 -51q-7 -17 -18 -70z" />
    <glyph glyph-name="uni1EAB" unicode="&#x1eab;" horiz-adv-x="1110" vert-adv-y="2457" 
d="M687 625v17q0 71 -21 108q-38 68 -167 68q-116 0 -262 -72l-49 202q163 63 354 63q299 0 394 -152q36 -56 43 -157q2 -34 2 -127v-275q0 -176 20 -300h-269q-8 59 -14 121q-41 -52 -81 -81q-95 -68 -247 -68q-173 0 -259 88q-71 74 -71 204q0 256 265 328q107 29 362 33z
M691 474q-125 -2 -200 -18q-140 -29 -140 -168q0 -134 128 -134q107 0 170 81q31 40 38 88q4 23 4 68v83zM533 1284l-173 -168h-227l235 297h331l235 -297h-228zM333 1494h-169q21 120 61 181q62 95 174 95q59 0 109 -25q25 -13 79 -62q50 -46 74 -46q33 0 49 52q7 24 13 70
h171q-11 -116 -47 -178q-56 -99 -185 -99q-78 0 -133 40q-14 10 -60 54q-42 39 -64 39q-47 0 -72 -121z" />
    <glyph glyph-name="uni1EAC" unicode="&#x1eac;" horiz-adv-x="1340" vert-adv-y="2457" 
d="M943 335h-567l-128 -335h-304l569 1413h316l567 -1413h-325zM870 534l-130 356q-35 98 -81 247q-37 -128 -78 -238l-132 -365h421zM670 1734l-173 -168h-228l236 297h330l236 -297h-228zM671 -130q72 0 121 -49q49 -48 49 -116q0 -67 -49 -115q-48 -49 -121 -49
q-74 0 -122 49q-49 48 -49 117q0 67 49 114q50 49 122 49z" />
    <glyph glyph-name="uni1EAD" unicode="&#x1ead;" horiz-adv-x="1110" vert-adv-y="2457" 
d="M687 625v17q0 71 -21 108q-38 68 -167 68q-116 0 -262 -72l-49 202q163 63 354 63q299 0 394 -152q36 -56 43 -157q2 -34 2 -127v-275q0 -176 20 -300h-269q-8 59 -14 121q-41 -52 -81 -81q-95 -68 -247 -68q-173 0 -259 88q-71 74 -71 204q0 256 265 328q107 29 362 33z
M691 474q-125 -2 -200 -18q-140 -29 -140 -168q0 -134 128 -134q107 0 170 81q31 40 38 88q4 23 4 68v83zM555 1315l-172 -167h-228l235 296h331l235 -296h-228zM531 -130q72 0 121 -49q49 -48 49 -116q0 -67 -49 -115q-48 -49 -121 -49q-74 0 -122 49q-49 48 -49 117
q0 67 49 114q50 49 122 49z" />
    <glyph glyph-name="uni1EAE" unicode="&#x1eae;" horiz-adv-x="1340" vert-adv-y="2457" 
d="M943 335h-567l-128 -335h-304l569 1413h316l567 -1413h-325zM870 534l-130 356q-35 98 -81 247q-37 -128 -78 -238l-132 -365h421zM278 1884h203q8 -60 30 -95q41 -61 159 -61q125 0 165 72q18 31 24 84h203q-3 -126 -48 -197q-46 -71 -125 -103q-84 -35 -219 -35
q-179 0 -269 62q-94 65 -115 186q-7 35 -8 87zM549 1913l164 297h332l-292 -297h-204z" />
    <glyph glyph-name="uni1EAF" unicode="&#x1eaf;" horiz-adv-x="1110" vert-adv-y="2457" 
d="M687 625v17q0 71 -21 108q-38 68 -167 68q-116 0 -262 -72l-49 202q163 63 354 63q299 0 394 -152q36 -56 43 -157q2 -34 2 -127v-275q0 -176 20 -300h-269q-8 59 -14 121q-41 -52 -81 -81q-95 -68 -247 -68q-173 0 -259 88q-71 74 -71 204q0 256 265 328q107 29 362 33z
M691 474q-125 -2 -200 -18q-140 -29 -140 -168q0 -134 128 -134q107 0 170 81q31 40 38 88q4 23 4 68v83zM168 1465h203q8 -60 30 -95q41 -61 159 -61q125 0 165 72q17 31 24 84h203q-3 -126 -48 -197q-46 -71 -125 -103q-84 -35 -219 -35q-180 0 -269 62q-94 65 -116 186
q-6 35 -7 87zM445 1495l165 296h332l-292 -296h-205z" />
    <glyph glyph-name="uni1EB0" unicode="&#x1eb0;" horiz-adv-x="1340" vert-adv-y="2457" 
d="M943 335h-567l-128 -335h-304l569 1413h316l567 -1413h-325zM870 534l-130 356q-35 98 -81 247q-37 -128 -78 -238l-132 -365h421zM278 1884h203q8 -60 30 -95q41 -61 159 -61q125 0 165 72q18 31 24 84h203q-3 -126 -48 -197q-46 -71 -125 -103q-84 -35 -219 -35
q-179 0 -269 62q-94 65 -115 186q-7 35 -8 87zM578 1913l-291 297h331l165 -297h-205z" />
    <glyph glyph-name="uni1EB1" unicode="&#x1eb1;" horiz-adv-x="1110" vert-adv-y="2457" 
d="M687 625v17q0 71 -21 108q-38 68 -167 68q-116 0 -262 -72l-49 202q163 63 354 63q299 0 394 -152q36 -56 43 -157q2 -34 2 -127v-275q0 -176 20 -300h-269q-8 59 -14 121q-41 -52 -81 -81q-95 -68 -247 -68q-173 0 -259 88q-71 74 -71 204q0 256 265 328q107 29 362 33z
M691 474q-125 -2 -200 -18q-140 -29 -140 -168q0 -134 128 -134q107 0 170 81q31 40 38 88q4 23 4 68v83zM168 1465h203q8 -60 30 -95q41 -61 159 -61q125 0 165 72q17 31 24 84h203q-3 -126 -48 -197q-46 -71 -125 -103q-84 -35 -219 -35q-180 0 -269 62q-94 65 -116 186
q-6 35 -7 87zM475 1495l-292 296h332l164 -296h-204z" />
    <glyph glyph-name="uni1EB2" unicode="&#x1eb2;" horiz-adv-x="1340" vert-adv-y="2457" 
d="M943 335h-567l-128 -335h-304l569 1413h316l567 -1413h-325zM870 534l-130 356q-35 98 -81 247q-37 -128 -78 -238l-132 -365h421zM278 1884h203q8 -60 30 -95q41 -61 159 -61q125 0 165 72q18 31 24 84h203q-3 -126 -48 -197q-46 -71 -125 -103q-84 -35 -219 -35
q-179 0 -269 62q-94 65 -115 186q-7 35 -8 87zM567 1878v150q85 3 111 17q45 24 45 75q0 81 -94 81q-61 0 -140 -37l-34 117q109 39 223 39q128 0 203 -50q76 -51 76 -143q0 -103 -91 -142q-53 -23 -156 -32l-6 -75h-137z" />
    <glyph glyph-name="uni1EB3" unicode="&#x1eb3;" horiz-adv-x="1110" vert-adv-y="2457" 
d="M687 625v17q0 71 -21 108q-38 68 -167 68q-116 0 -262 -72l-49 202q163 63 354 63q299 0 394 -152q36 -56 43 -157q2 -34 2 -127v-275q0 -176 20 -300h-269q-8 59 -14 121q-41 -52 -81 -81q-95 -68 -247 -68q-173 0 -259 88q-71 74 -71 204q0 256 265 328q107 29 362 33z
M691 474q-125 -2 -200 -18q-140 -29 -140 -168q0 -134 128 -134q107 0 170 81q31 40 38 88q4 23 4 68v83zM168 1465h203q8 -60 30 -95q41 -61 159 -61q125 0 165 72q17 31 24 84h203q-3 -126 -48 -197q-46 -71 -125 -103q-84 -35 -219 -35q-180 0 -269 62q-94 65 -116 186
q-6 35 -7 87zM475 1460v150q85 3 111 17q45 23 45 75q0 81 -94 81q-61 0 -140 -37l-34 117q110 39 223 39q128 0 203 -50q76 -51 76 -143q0 -102 -91 -142q-53 -23 -156 -32l-5 -75h-138z" />
    <glyph glyph-name="uni1EB4" unicode="&#x1eb4;" horiz-adv-x="1340" vert-adv-y="2457" 
d="M943 335h-567l-128 -335h-304l569 1413h316l567 -1413h-325zM870 534l-130 356q-35 98 -81 247q-37 -128 -78 -238l-132 -365h421zM278 1878h203q8 -60 30 -95q41 -61 159 -61q126 0 165 72q17 31 24 84h203q-3 -126 -48 -197q-46 -71 -125 -103q-84 -35 -219 -35
q-179 0 -269 62q-94 65 -115 186q-7 35 -8 87zM475 1973h-180q24 133 64 198q66 105 185 105q62 0 114 -27q26 -14 83 -68q53 -50 78 -50q49 0 64 133h182q-12 -127 -50 -195q-59 -109 -194 -109q-83 0 -142 44q-14 11 -63 58q-43 43 -66 43q-35 0 -57 -55q-6 -18 -18 -77z
" />
    <glyph glyph-name="uni1EB5" unicode="&#x1eb5;" horiz-adv-x="1110" vert-adv-y="2457" 
d="M687 625v17q0 71 -21 108q-38 68 -167 68q-116 0 -262 -72l-49 202q163 63 354 63q299 0 394 -152q36 -56 43 -157q2 -34 2 -127v-275q0 -176 20 -300h-269q-8 59 -14 121q-41 -52 -81 -81q-95 -68 -247 -68q-173 0 -259 88q-71 74 -71 204q0 256 265 328q107 29 362 33z
M691 474q-125 -2 -200 -18q-140 -29 -140 -168q0 -134 128 -134q107 0 170 81q31 40 38 88q4 23 4 68v83zM168 1465h203q8 -60 30 -95q41 -61 159 -61q125 0 165 72q17 31 24 84h203q-3 -126 -48 -197q-46 -71 -125 -103q-84 -35 -219 -35q-180 0 -269 62q-94 65 -116 186
q-6 35 -7 87zM365 1571h-179q22 131 64 198q65 104 184 104q62 0 114 -27q28 -15 84 -68q52 -50 77 -50q51 0 65 133h181q-13 -129 -49 -195q-60 -108 -195 -108q-82 0 -141 44q-16 12 -63 59q-44 42 -66 42q-50 0 -76 -132z" />
    <glyph glyph-name="uni1EB6" unicode="&#x1eb6;" horiz-adv-x="1340" vert-adv-y="2457" 
d="M943 335h-567l-128 -335h-304l569 1413h316l567 -1413h-325zM870 534l-130 356q-35 98 -81 247q-37 -128 -78 -238l-132 -365h421zM278 1884h203q8 -60 30 -95q41 -61 159 -61q125 0 165 72q18 31 24 84h203q-3 -126 -48 -197q-46 -71 -125 -103q-84 -35 -219 -35
q-179 0 -269 62q-94 65 -115 186q-7 35 -8 87zM671 -130q72 0 121 -49q49 -48 49 -116q0 -67 -49 -115q-48 -49 -121 -49q-74 0 -122 49q-49 48 -49 117q0 67 49 114q50 49 122 49z" />
    </font>
</defs>
</svg>
