<?xml version="1.0" standalone="no"?>
<!DOCTYPE svg PUBLIC "-//W3C//DTD SVG 1.1//EN" "http://www.w3.org/Graphics/SVG/1.1/DTD/svg11.dtd" >
<svg xmlns="http://www.w3.org/2000/svg">
<metadata>
Created by FontForge 20120702 at Thu Oct 04 10:50:33 2012

2011 by (URW)++ Design &#38; Development
</metadata>
<defs>
<font id="E+HSans-Italic" horiz-adv-x="1180" vert-adv-y="2048" >
  <font-face 
    font-family="E+H Sans"
    font-weight="400"
    font-style="italic"
    font-stretch="normal"
    units-per-em="2048"
    panose-1="2 11 4 4 5 2 2 9 2 4"
    ascent="1638"
    descent="-410"
    x-height="983"
    cap-height="1413"
    bbox="-350 -523 2284 2241"
    underline-thickness="95"
    underline-position="-325"
    slope="10"
    unicode-range="U+0020-FB04"
  />
<missing-glyph horiz-adv-x="1709" vert-adv-y="2457" 
d="M982 405h-151v66q0 84 -15 122q-16 42 -56 84q-20 21 -78 80q-89 88 -135 159q-64 96 -64 207q0 88 42 162q87 153 361 153q152 0 313 -45l-29 -154q-148 70 -267 70q-231 0 -231 -190q0 -94 57 -180q30 -47 136 -159q81 -86 101 -141q16 -46 16 -138v-96zM904 234
q58 0 97 -45q33 -37 33 -85q0 -56 -42 -95q-38 -35 -90 -35q-61 0 -100 45q-32 37 -32 86q0 54 42 94q37 35 92 35zM123 -459v2196h1464v-2196h-1464zM246 -336h1218v1950h-1218v-1950z" />
    <glyph glyph-name="fi" unicode="fi" horiz-adv-x="1201" vert-adv-y="2457" 
d="M261 850h-172l31 133h164l29 159q32 184 110 259q84 81 233 81q108 0 219 -34l-59 -140q-70 48 -147 48q-86 0 -130 -61q-32 -45 -51 -149l-28 -163h247l-31 -133h-239l-144 -801q-32 -181 -58 -257q-44 -134 -139 -205q-84 -63 -218 -63q-72 0 -150 16l44 130
q60 -20 120 -20q104 0 151 106q39 85 73 281zM765 0l173 983h176l-174 -983h-175zM1075 1394q48 0 83 -36q34 -35 34 -85t-34 -85q-34 -36 -84 -36t-85 36q-34 35 -34 85q0 51 34 85q36 36 86 36z" />
    <glyph glyph-name="fl" unicode="fl" horiz-adv-x="1166" vert-adv-y="2457" 
d="M261 850h-172l31 133h164l27 150q30 170 127 255q109 94 316 94q117 0 248 -26l165 33l-262 -1489h-175l234 1326q-106 30 -211 30q-138 0 -202 -68q-46 -50 -66 -163l-25 -142h247l-31 -133h-239l-144 -801q-32 -181 -58 -257q-89 -268 -357 -268q-72 0 -150 16l44 130
q59 -20 120 -20q104 0 151 106q39 86 73 281z" />
    <glyph glyph-name="ff" unicode="ff" horiz-adv-x="1288" vert-adv-y="2457" 
d="M261 850h-172l31 133h164l29 159q32 184 110 259q84 81 233 81q108 0 219 -34l-59 -140q-70 48 -147 48q-86 0 -130 -61q-32 -45 -51 -149l-28 -163h192l-31 -133h-184l-144 -801q-32 -181 -58 -257q-44 -134 -139 -205q-84 -63 -218 -63q-72 0 -150 16l44 130
q60 -20 120 -20q104 0 151 106q39 85 73 281zM898 850h-168l31 133h159l29 159q33 184 110 259q84 81 233 81q108 0 219 -34l-58 -140q-71 48 -148 48q-86 0 -130 -61q-32 -45 -50 -149l-29 -163h247l-31 -133h-239l-143 -801q-33 -181 -58 -257q-45 -134 -140 -205
q-84 -63 -218 -63q-72 0 -150 16l44 130q60 -20 121 -20q103 0 151 106q38 84 73 281z" />
    <glyph glyph-name="ffi" unicode="ffi" horiz-adv-x="1825" vert-adv-y="2457" 
d="M261 850h-172l31 133h164l29 159q32 184 110 259q84 81 233 81q108 0 219 -34l-59 -140q-70 48 -147 48q-86 0 -130 -61q-32 -45 -51 -149l-28 -163h192l-31 -133h-184l-144 -801q-32 -181 -58 -257q-44 -134 -139 -205q-84 -63 -218 -63q-72 0 -150 16l44 130
q60 -20 120 -20q104 0 151 106q39 85 73 281zM885 850h-167l31 133h159l28 159q33 184 111 259q84 81 233 81q108 0 219 -34l-59 -140q-70 48 -147 48q-86 0 -130 -61q-32 -45 -51 -149l-29 -163h248l-31 -133h-239l-144 -801q-32 -181 -58 -257q-45 -134 -139 -205
q-84 -63 -219 -63q-71 0 -149 16l44 130q60 -20 120 -20q103 0 151 106q38 85 73 281zM1389 0l173 983h175l-173 -983h-175zM1699 1394q49 0 83 -36q34 -35 34 -85t-34 -85q-34 -36 -85 -36q-50 0 -84 36q-34 35 -34 85q0 51 34 85q35 36 86 36z" />
    <glyph glyph-name="ffl" unicode="ffl" horiz-adv-x="1790" vert-adv-y="2457" 
d="M261 850h-172l31 133h164l29 159q32 184 110 259q84 81 233 81q108 0 219 -34l-59 -140q-70 48 -147 48q-86 0 -130 -61q-32 -45 -51 -149l-28 -163h192l-31 -133h-184l-144 -801q-32 -181 -58 -257q-44 -134 -139 -205q-84 -63 -218 -63q-72 0 -150 16l44 130
q60 -20 120 -20q104 0 151 106q39 85 73 281zM885 850h-167l31 133h159l27 150q30 170 127 255q109 94 315 94q118 0 249 -26l165 33l-262 -1489h-175l234 1326q-107 30 -211 30q-138 0 -202 -68q-46 -50 -66 -163l-25 -142h247l-31 -133h-239l-144 -801q-32 -182 -57 -257
q-90 -268 -359 -268q-71 0 -149 16l44 130q59 -20 120 -20q104 0 151 106q39 86 73 281z" />
    <glyph glyph-name="f_t" unicode="ft" horiz-adv-x="1323" vert-adv-y="2457" 
d="M261 850h-172l31 133h164l29 159q32 184 110 259q84 81 233 81q108 0 219 -34l-59 -140q-70 48 -147 48q-86 0 -130 -61q-32 -45 -51 -149l-28 -163h192l-31 -133h-184l-144 -801q-32 -181 -58 -257q-44 -134 -139 -205q-84 -63 -218 -63q-72 0 -150 16l44 130
q60 -20 120 -20q104 0 151 106q39 85 73 281zM897 850h-166l31 133h160l59 256l166 40l-52 -296h255l-31 -133h-247l-84 -474q-20 -111 -20 -175q0 -48 21 -73q23 -26 82 -26q76 0 151 40l-2 -137q-98 -31 -209 -31q-127 0 -180 55q-45 46 -45 134q0 63 25 204z" />
    <glyph glyph-name="f_f_t" unicode="fft" horiz-adv-x="1947" vert-adv-y="2457" 
d="M261 850h-172l31 133h164l29 159q32 184 110 259q84 81 233 81q108 0 219 -34l-59 -140q-70 48 -147 48q-86 0 -130 -61q-32 -45 -51 -149l-28 -163h192l-31 -133h-184l-144 -801q-32 -181 -58 -257q-44 -134 -139 -205q-84 -63 -218 -63q-72 0 -150 16l44 130
q60 -20 120 -20q104 0 151 106q39 85 73 281zM885 850h-167l31 133h159l29 159q32 184 110 259q84 81 233 81q108 0 219 -34l-59 -140q-70 48 -147 48q-86 0 -130 -61q-32 -45 -51 -149l-28 -163h192l-31 -133h-184l-144 -801q-32 -181 -58 -257q-44 -134 -139 -205
q-84 -63 -219 -63q-71 0 -149 16l44 130q60 -20 120 -20q104 0 151 106q38 85 73 281zM1521 850h-166l31 133h160l59 256l166 40l-52 -296h255l-31 -133h-247l-84 -474q-20 -111 -20 -175q0 -48 21 -73q23 -26 83 -26q75 0 150 40l-2 -137q-98 -31 -209 -31q-127 0 -180 55
q-45 46 -45 134q0 63 25 204z" />
    <glyph glyph-name="f_f_f" unicode="fff" horiz-adv-x="1900" vert-adv-y="2457" 
d="M261 850h-172l31 133h164l29 159q32 184 110 259q84 81 233 81q108 0 219 -34l-59 -140q-70 48 -147 48q-86 0 -130 -61q-32 -45 -51 -149l-28 -163h192l-31 -133h-184l-144 -801q-32 -181 -58 -257q-44 -134 -139 -205q-84 -63 -218 -63q-72 0 -150 16l44 130
q60 -20 120 -20q104 0 151 106q39 85 73 281zM884 850h-167l31 133h159l28 159q33 184 111 259q84 81 233 81q109 0 218 -34l-58 -140q-70 48 -147 48q-86 0 -130 -61q-32 -45 -51 -149l-29 -163h193l-31 -133h-184l-144 -801q-32 -182 -58 -257q-89 -268 -358 -268
q-71 0 -149 16l44 130q59 -20 120 -20q103 0 151 106q38 84 73 281zM1509 850h-167l31 133h159l29 159q33 185 110 259q84 81 233 81q108 0 219 -34l-59 -140q-70 48 -147 48q-86 0 -130 -61q-32 -45 -51 -149l-29 -163h248l-31 -133h-239l-144 -801q-32 -181 -58 -257
q-45 -134 -139 -205q-84 -63 -219 -63q-71 0 -149 16l44 130q60 -20 120 -20q103 0 151 106q38 84 73 281z" />
    <glyph glyph-name=".notdef" horiz-adv-x="1709" vert-adv-y="2457" 
d="M982 405h-151v66q0 84 -15 122q-16 42 -56 84q-20 21 -78 80q-89 88 -135 159q-64 96 -64 207q0 88 42 162q87 153 361 153q152 0 313 -45l-29 -154q-148 70 -267 70q-231 0 -231 -190q0 -94 57 -180q30 -47 136 -159q81 -86 101 -141q16 -46 16 -138v-96zM904 234
q58 0 97 -45q33 -37 33 -85q0 -56 -42 -95q-38 -35 -90 -35q-61 0 -100 45q-32 37 -32 86q0 54 42 94q37 35 92 35zM123 -459v2196h1464v-2196h-1464zM246 -336h1218v1950h-1218v-1950z" />
    <glyph glyph-name="glyph1" horiz-adv-x="0" vert-adv-y="0" 
 />
    <glyph glyph-name="glyph2" horiz-adv-x="1709" vert-adv-y="2457" 
 />
    <glyph glyph-name="space" unicode=" " horiz-adv-x="492" vert-adv-y="2457" 
 />
    <glyph glyph-name="exclam" unicode="!" horiz-adv-x="653" vert-adv-y="2457" 
d="M242 407l142 1006h209l-214 -1006h-137zM259 234q58 0 97 -45q33 -38 33 -85q0 -56 -42 -95q-38 -35 -90 -35q-60 0 -99 45q-33 37 -33 86q0 54 42 94q37 35 92 35z" />
    <glyph glyph-name="quotedbl" unicode="&#x22;" horiz-adv-x="547" vert-adv-y="2457" 
d="M125 872l72 541h182l-117 -541h-137zM420 872l72 541h182l-118 -541h-136z" />
    <glyph glyph-name="numbersign" unicode="#" vert-adv-y="2457" 
d="M349 585l40 227h-199l24 134h198l59 338h162l-59 -338h198l59 338h162l-59 -338h194l-23 -134h-195l-40 -227h195l-24 -134h-194l-57 -325h-162l57 325h-198l-57 -325h-162l57 325h-198l23 134h199zM511 585h198l40 227h-198z" />
    <glyph glyph-name="dollar" unicode="$" vert-adv-y="2457" 
d="M484 123l97 544q-111 56 -171 97q-83 57 -117 114q-37 63 -37 150q0 132 75 230q115 150 382 162l33 182h117l-32 -184q149 -11 295 -58l-72 -150q-127 68 -246 78l-87 -490q149 -77 195 -112q70 -54 101 -114q32 -63 32 -149q0 -148 -81 -254q-118 -154 -388 -173
l-34 -192h-117l33 189q-243 7 -418 84l60 156q171 -107 380 -110zM604 132q260 46 260 261q0 97 -74 159q-29 24 -100 62zM613 854l77 431q-86 -14 -131 -38q-118 -65 -118 -192q0 -86 87 -150q32 -23 85 -51z" />
    <glyph glyph-name="percent" unicode="%" horiz-adv-x="1688" vert-adv-y="2457" 
d="M574 1442q132 0 201 -80q62 -73 62 -190q0 -96 -28 -195q-41 -142 -137 -216q-82 -63 -202 -63q-131 0 -200 74q-68 72 -68 197q0 102 33 207q83 266 339 266zM571 1346q-103 0 -158 -138q-50 -124 -50 -262q0 -152 108 -152q101 0 156 137q50 126 50 264q0 151 -106 151
zM428 0l758 1413h150l-758 -1413h-150zM1287 715q132 0 201 -80q62 -73 62 -189q0 -97 -28 -196q-41 -142 -137 -216q-82 -63 -203 -63q-131 0 -200 74q-68 72 -68 197q0 103 33 207q83 266 340 266zM1283 619q-103 0 -158 -137q-50 -125 -50 -263q0 -152 109 -152
q101 0 156 137q50 125 50 264q0 151 -107 151z" />
    <glyph glyph-name="ampersand" unicode="&#x26;" horiz-adv-x="1346" vert-adv-y="2457" 
d="M446 779q-83 166 -83 290q0 173 107 276q101 97 273 97q169 0 252 -92q61 -68 61 -180q0 -163 -135 -281q-62 -53 -170 -104q-20 -9 -71 -32l253 -395q123 162 225 456l170 -1q-130 -369 -322 -569l166 -244h-229l-77 120q-66 -49 -114 -75q-134 -74 -297 -74
q-179 0 -279 85q-104 88 -104 246q0 131 70 242q82 129 304 235zM621 849q108 52 164 104q54 50 80 126q16 48 16 97q0 146 -135 146q-92 0 -149 -64q-55 -63 -55 -169q0 -88 42 -174q9 -19 37 -66zM505 682q-87 -48 -137 -98q-102 -103 -102 -268q0 -109 60 -166
q62 -58 169 -58q108 0 220 74q39 25 84 61z" />
    <glyph glyph-name="quotesingle" unicode="'" horiz-adv-x="265" vert-adv-y="2457" 
d="M132 872l72 541h183l-118 -541h-137z" />
    <glyph glyph-name="parenleft" unicode="(" horiz-adv-x="791" vert-adv-y="2457" 
d="M499 -313l-117 -64q-53 102 -87 226q-59 219 -59 441q0 460 207 877q115 231 262 399l110 -69q-158 -228 -271 -538q-71 -194 -108 -464q-18 -129 -18 -242q0 -321 81 -566z" />
    <glyph glyph-name="parenright" unicode=")" horiz-adv-x="791" vert-adv-y="2457" 
d="M328 1502l117 64q54 -102 88 -227q59 -219 59 -440q0 -461 -207 -877q-116 -233 -263 -399l-110 69q159 229 272 538q72 197 109 476q17 124 17 233q0 314 -82 563z" />
    <glyph glyph-name="asterisk" unicode="*" horiz-adv-x="1095" vert-adv-y="2457" 
d="M621 1266l37 341l179 -33l-82 -333l338 62l17 -163l-345 -17l163 -321l-156 -64l-118 319l-220 -260l-126 115l264 246l-318 134l71 147z" />
    <glyph glyph-name="plus" unicode="+" vert-adv-y="2457" 
d="M136 637l24 140h402l77 433h156l-77 -433h402l-24 -140h-402l-76 -431h-157l77 431h-402z" />
    <glyph glyph-name="comma" unicode="," horiz-adv-x="526" vert-adv-y="2457" 
d="M-27 -293l170 517h195l-225 -517h-140z" />
    <glyph glyph-name="hyphen" unicode="-" horiz-adv-x="799" vert-adv-y="2457" 
d="M141 572l26 149h545l-26 -149h-545z" />
    <glyph glyph-name="period" unicode="." horiz-adv-x="525" vert-adv-y="2457" 
d="M196 234q58 0 97 -45q33 -38 33 -85q0 -56 -42 -95q-38 -35 -90 -35q-60 0 -99 45q-33 37 -33 86q0 54 42 94q37 35 92 35z" />
    <glyph glyph-name="slash" unicode="/" horiz-adv-x="940" vert-adv-y="2457" 
d="M-21 0l881 1413h176l-880 -1413h-177z" />
    <glyph glyph-name="zero" unicode="0" vert-adv-y="2457" 
d="M742 1439q191 0 291 -107q100 -106 100 -312q0 -203 -64 -481q-71 -312 -209 -441q-134 -127 -342 -127q-396 0 -396 425q0 200 64 476q74 318 214 446q132 121 342 121zM738 1308q-148 0 -237 -130q-82 -118 -138 -409q-49 -255 -49 -399q0 -268 208 -268q142 0 233 129
q80 116 137 412q49 252 49 400q0 265 -203 265z" />
    <glyph glyph-name="one" unicode="1" vert-adv-y="2457" 
d="M489 135l200 1129l-300 -78l24 136l349 101h137l-228 -1288h268l-23 -135h-736l23 135h286z" />
    <glyph glyph-name="two" unicode="2" vert-adv-y="2457" 
d="M65 0l23 133l472 502q165 175 225 275q62 104 62 217q0 82 -49 128q-54 50 -152 50q-127 0 -296 -81l-8 147q172 68 326 68q182 0 278 -80q93 -78 93 -228q0 -149 -95 -290q-82 -121 -252 -295l-401 -413h613l-23 -133h-816z" />
    <glyph glyph-name="three" unicode="3" vert-adv-y="2457" 
d="M334 687l25 145q55 -5 103 -5q199 0 301 105q85 87 85 214q0 159 -212 159q-124 0 -293 -75l-12 144q167 65 337 65q165 0 263 -64q108 -70 108 -217q0 -150 -97 -254q-67 -71 -207 -123q103 -29 154 -69q98 -75 98 -223q0 -165 -120 -295q-136 -147 -426 -195
q-120 -19 -348 -28l12 133q319 5 470 76q212 100 212 316q0 114 -83 160q-75 42 -211 42q-64 0 -159 -11z" />
    <glyph glyph-name="four" unicode="4" vert-adv-y="2457" 
d="M698 356h-625l23 132l585 925h174l-585 -925h451l88 495h169l-87 -495h189l-23 -132h-189l-63 -356h-170z" />
    <glyph glyph-name="five" unicode="5" vert-adv-y="2457" 
d="M98 -29l12 133q329 14 489 95q226 113 226 346q0 114 -66 160q-61 42 -184 42q-86 0 -208 -30l-116 13l146 683h677l-24 -141h-518l-89 -406q114 12 177 12q185 0 282 -64q115 -77 115 -255q0 -180 -109 -315q-142 -175 -460 -237q-129 -24 -350 -36z" />
    <glyph glyph-name="six" unicode="6" vert-adv-y="2457" 
d="M1030 1439l-23 -133q-260 -36 -412 -176q-147 -137 -220 -391q53 62 95 91q104 73 241 73q158 0 248 -89q98 -95 98 -261q0 -107 -37 -219q-56 -170 -184 -267q-125 -96 -302 -96q-202 0 -305 111q-93 100 -93 292q0 231 86 462q132 357 433 503q154 74 375 100zM665 772
q-162 0 -259 -138q-84 -120 -84 -296q0 -236 210 -236q177 0 266 173q67 130 67 274q0 108 -53 166q-53 57 -147 57z" />
    <glyph glyph-name="seven" unicode="7" vert-adv-y="2457" 
d="M976 1272h-652l24 141h843l-15 -85l-772 -1328h-198z" />
    <glyph glyph-name="eight" unicode="8" vert-adv-y="2457" 
d="M410 750q-52 30 -79 58q-80 78 -80 199q0 99 44 192q59 126 186 188q106 52 254 52q202 0 308 -100q84 -79 84 -215q0 -263 -271 -382q74 -33 112 -64q102 -83 102 -239q0 -109 -48 -213q-116 -255 -502 -255q-449 0 -449 330q0 134 67 247q67 112 186 168q31 14 86 34z
M736 1305q-167 0 -243 -110q-59 -84 -59 -211q0 -91 61 -139q52 -40 150 -40q166 0 244 118q55 82 55 198q0 184 -208 184zM624 671q-195 0 -284 -111q-37 -46 -58 -121q-19 -66 -19 -134q0 -200 258 -200q190 0 280 113q36 45 57 118q20 68 20 138q0 197 -254 197z" />
    <glyph glyph-name="nine" unicode="9" vert-adv-y="2457" 
d="M162 -27l12 133q170 15 275 54q314 117 429 531q-53 -56 -91 -80q-101 -64 -224 -64q-161 0 -258 83q-108 93 -108 268q0 121 48 239q61 148 190 231q112 71 272 71q188 0 297 -93q114 -99 114 -299q0 -233 -85 -465q-130 -357 -419 -500q-178 -88 -452 -109zM709 1308
q-166 0 -251 -147q-70 -120 -70 -267q0 -216 206 -216q158 0 253 129q44 61 66 153q15 61 15 120q0 107 -47 162q-57 66 -172 66z" />
    <glyph glyph-name="colon" unicode=":" horiz-adv-x="525" vert-adv-y="2457" 
d="M196 234q58 0 97 -45q33 -38 33 -85q0 -56 -42 -95q-38 -35 -90 -35q-60 0 -99 45q-33 37 -33 86q0 54 42 94q37 35 92 35zM334 1009q58 0 96 -45q33 -38 33 -85q0 -56 -42 -95q-38 -35 -90 -35q-60 0 -99 45q-33 37 -33 86q0 54 43 94q36 35 92 35z" />
    <glyph glyph-name="semicolon" unicode=";" horiz-adv-x="527" vert-adv-y="2457" 
d="M-26 -293l170 517h195l-225 -517h-140zM341 1009q59 0 97 -45q33 -38 33 -85q0 -56 -42 -95q-38 -35 -90 -35q-60 0 -99 45q-33 37 -33 86q0 54 42 94q37 35 92 35z" />
    <glyph glyph-name="less" unicode="&#x3c;" vert-adv-y="2457" 
d="M364 696l619 -361l-28 -164l-779 483l17 98l950 487l-30 -177z" />
    <glyph glyph-name="equal" unicode="=" vert-adv-y="2457" 
d="M106 462l24 140h960l-24 -140h-960zM167 811l24 140h960l-24 -140h-960z" />
    <glyph glyph-name="greater" unicode="&#x3e;" vert-adv-y="2457" 
d="M891 714l-619 361l28 164l779 -483l-17 -98l-950 -487l30 177z" />
    <glyph glyph-name="question" unicode="?" horiz-adv-x="886" vert-adv-y="2457" 
d="M445 405h-146l17 96q17 92 40 138q29 55 127 145q151 138 194 209q53 88 53 171q0 145 -195 145q-114 0 -270 -70l-2 154q155 45 294 45q176 0 268 -70q90 -68 90 -203q0 -140 -103 -263q-54 -63 -240 -223q-59 -51 -82 -94q-19 -37 -33 -114zM328 234q58 0 97 -45
q33 -38 33 -85q0 -56 -42 -95q-38 -35 -90 -35q-60 0 -99 45q-33 37 -33 86q0 54 42 94q37 35 92 35z" />
    <glyph glyph-name="at" unicode="@" horiz-adv-x="1789" vert-adv-y="2457" 
d="M1164 950h133l-99 -485q-12 -59 -12 -99q0 -74 71 -74q78 0 148 67q127 123 127 333q0 145 -59 273q-69 148 -221 220q-142 67 -317 67q-284 0 -457 -195t-173 -518q0 -342 183 -499q86 -75 195 -103q137 -36 302 -36q276 0 518 74l-5 -110q-220 -65 -528 -65
q-300 0 -476 88q-346 172 -346 644q0 391 234 616q214 205 556 205q264 0 458 -118q176 -107 248 -296q43 -111 43 -237q0 -193 -94 -326q-128 -182 -349 -182q-121 0 -158 71q-13 23 -22 71q-35 -45 -67 -73q-82 -72 -199 -72q-109 0 -169 58q-72 70 -72 207q0 143 58 271
q109 243 333 243q134 0 199 -99zM964 869q-103 0 -178 -139q-68 -126 -68 -269q0 -79 28 -121q30 -45 85 -45q109 0 187 143q77 140 77 275q0 68 -33 109q-39 47 -98 47z" />
    <glyph glyph-name="A" unicode="A" horiz-adv-x="1252" vert-adv-y="2457" 
d="M890 421h-565l-228 -421h-191l781 1413h190l281 -1413h-191zM867 554l-75 414q-3 15 -25 161q-11 72 -16 106q-89 -181 -128 -253l-229 -428h473z" />
    <glyph glyph-name="B" unicode="B" horiz-adv-x="1214" vert-adv-y="2457" 
d="M101 0l249 1413h403q228 0 323 -67q107 -75 107 -225q0 -165 -106 -272q-67 -69 -181 -97q94 -28 137 -68q78 -71 78 -221q0 -140 -65 -252q-66 -114 -189 -164q-112 -47 -296 -47h-460zM429 814h181q130 0 196 16q98 24 150 121q36 68 36 154q0 110 -72 149
q-49 26 -188 26h-220zM308 133h208q132 0 213 23q98 28 148 132q40 85 40 188q0 131 -89 174q-66 32 -244 32h-178z" />
    <glyph glyph-name="C" unicode="C" horiz-adv-x="1059" vert-adv-y="2457" 
d="M953 180l3 -155q-170 -51 -345 -51q-493 0 -493 506q0 253 96 497q182 462 606 462q168 0 335 -64l-63 -154q-132 84 -264 84q-248 0 -393 -287q-59 -116 -93 -277q-30 -140 -30 -262q0 -371 312 -371q158 0 329 72z" />
    <glyph glyph-name="D" unicode="D" horiz-adv-x="1289" vert-adv-y="2457" 
d="M101 0l249 1413h331q265 0 397 -109q163 -134 163 -437q0 -250 -107 -476q-105 -222 -304 -321q-142 -70 -357 -70h-372zM309 135h151q269 0 414 178q86 106 135 285q38 139 38 273q0 249 -120 340q-67 51 -179 62q-44 5 -128 5h-108z" />
    <glyph glyph-name="E" unicode="E" horiz-adv-x="1096" vert-adv-y="2457" 
d="M101 0l249 1413h841l-23 -135h-656l-85 -475h499l-23 -132h-498l-96 -536h661l-23 -135h-846z" />
    <glyph glyph-name="F" unicode="F" horiz-adv-x="1049" vert-adv-y="2457" 
d="M101 0l249 1413h811l-23 -135h-626l-86 -479h470l-22 -133h-470l-118 -666h-185z" />
    <glyph glyph-name="G" unicode="G" horiz-adv-x="1275" vert-adv-y="2457" 
d="M705 656l22 128h459l-131 -739q-163 -71 -388 -71q-269 0 -404 120q-72 65 -108 170q-36 108 -36 228q0 253 102 501q99 238 294 354q152 92 361 92q178 0 369 -66l-72 -150q-149 82 -295 82q-181 0 -297 -97q-146 -122 -217 -376q-51 -180 -51 -352q0 -204 102 -297
q82 -76 252 -76q108 0 222 43l90 506h-274z" />
    <glyph glyph-name="H" unicode="H" horiz-adv-x="1370" vert-adv-y="2457" 
d="M101 0l249 1413h185l-108 -608h626l107 608h185l-249 -1413h-185l119 670h-626l-118 -670h-185z" />
    <glyph glyph-name="I" unicode="I" horiz-adv-x="569" vert-adv-y="2457" 
d="M105 0l249 1413h185l-249 -1413h-185z" />
    <glyph glyph-name="J" unicode="J" horiz-adv-x="604" vert-adv-y="2457" 
d="M390 1413h184l-208 -1180q-36 -204 -60 -291q-104 -374 -457 -374q-99 0 -197 24l45 138q80 -28 154 -28q166 0 237 161q47 106 93 367z" />
    <glyph glyph-name="K" unicode="K" horiz-adv-x="1177" vert-adv-y="2457" 
d="M101 0l249 1413h185l-109 -616l696 616h206l-719 -633l539 -780h-214l-514 761l-134 -761h-185z" />
    <glyph glyph-name="L" unicode="L" horiz-adv-x="1014" vert-adv-y="2457" 
d="M101 0l249 1413h185l-226 -1278h628l-23 -135h-813z" />
    <glyph glyph-name="M" unicode="M" horiz-adv-x="1780" vert-adv-y="2457" 
d="M62 0l403 1413h226l123 -906q14 -107 22 -291q81 205 136 316l435 881h232l-94 -1413h-172l59 843q2 33 16 200q10 112 18 202q-38 -86 -92 -202q-18 -41 -40 -89q-31 -70 -45 -99l-417 -855h-144l-113 841q-1 6 -22 207q-12 132 -19 197l-48 -183l-30 -112l-24 -89
l-245 -861h-165z" />
    <glyph glyph-name="N" unicode="N" horiz-adv-x="1393" vert-adv-y="2457" 
d="M101 0l249 1413h221l299 -811q21 -56 66 -184l34 -93l29 -83q10 79 32 208q23 133 32 184l139 779h167l-250 -1413h-205l-318 876q-33 90 -91 256l-27 79q-17 -126 -53 -332l-158 -879h-166z" />
    <glyph glyph-name="O" unicode="O" horiz-adv-x="1360" vert-adv-y="2457" 
d="M830 1439q145 0 260 -60q125 -66 181 -208q47 -120 47 -269q0 -179 -55 -368q-84 -284 -258 -426q-163 -134 -392 -134q-230 0 -356 122q-139 135 -139 412q0 188 59 382q169 549 653 549zM830 1305q-269 0 -407 -294q-48 -103 -80 -256q-31 -151 -31 -281
q0 -174 81 -275q73 -91 218 -91q265 0 403 294q48 104 80 261q31 150 31 274q0 157 -67 258q-74 110 -228 110z" />
    <glyph glyph-name="P" unicode="P" horiz-adv-x="1157" vert-adv-y="2457" 
d="M101 0l249 1413h383q218 0 319 -79q53 -42 82 -115q30 -77 30 -165q0 -123 -54 -245q-114 -256 -484 -256h-243l-97 -553h-185zM406 686h165q150 0 224 33q87 39 133 137q44 94 44 199q0 136 -74 184q-62 41 -202 41h-184z" />
    <glyph glyph-name="Q" unicode="Q" horiz-adv-x="1360" vert-adv-y="2457" 
d="M1284 82l-41 -165q-103 70 -231 151l-33 21q-164 -115 -367 -115q-229 0 -355 122q-139 135 -139 411q0 190 59 383q86 281 260 420q161 129 386 129q243 0 370 -138q59 -65 90 -165q35 -112 35 -234q0 -242 -89 -466q-52 -131 -142 -244q121 -56 197 -110zM830 1305
q-269 0 -407 -294q-48 -103 -80 -256q-31 -151 -31 -281q0 -174 81 -275q73 -91 218 -91q265 0 403 294q48 104 80 261q31 150 31 274q0 157 -67 258q-74 110 -228 110z" />
    <glyph glyph-name="R" unicode="R" horiz-adv-x="1210" vert-adv-y="2457" 
d="M101 0l249 1413h359q258 0 359 -75q109 -81 109 -251q0 -197 -122 -320q-67 -67 -161 -101q-25 -8 -66 -20q49 -42 70 -87q20 -40 44 -124l129 -435h-202l-95 355q-49 181 -75 223q-23 36 -91 36h-214l-108 -614h-185zM416 737h210q201 0 284 105q75 96 75 243
q0 107 -64 154q-57 41 -200 41h-209z" />
    <glyph glyph-name="S" unicode="S" horiz-adv-x="1015" vert-adv-y="2457" 
d="M-26 59l60 155q163 -106 356 -106q164 0 254 70q93 74 93 211q0 85 -47 139q-33 37 -76 63q-36 22 -103 58q-151 83 -227 152q-98 89 -98 233q0 187 124 297q122 108 343 108q172 0 346 -61l-72 -150q-135 77 -264 77q-140 0 -216 -66t-76 -176q0 -83 60 -139
q42 -40 181 -117q161 -90 227 -158q83 -86 83 -233q0 -209 -135 -326q-134 -116 -392 -116q-240 0 -421 85z" />
    <glyph glyph-name="T" unicode="T" horiz-adv-x="1131" vert-adv-y="2457" 
d="M386 0l226 1278h-396l23 135h967l-23 -135h-386l-226 -1278h-185z" />
    <glyph glyph-name="U" unicode="U" horiz-adv-x="1279" vert-adv-y="2457" 
d="M341 1413h185l-154 -870q-29 -165 -29 -236q0 -199 243 -199q196 0 276 134q43 72 78 268l159 903h164l-167 -955q-23 -126 -37 -170q-53 -168 -177 -241t-304 -73q-216 0 -326 102q-89 83 -89 229q0 102 33 286z" />
    <glyph glyph-name="V" unicode="V" horiz-adv-x="1127" vert-adv-y="2457" 
d="M386 0l-221 1413h184l119 -844q4 -27 22 -198l10 -99l9 -80l42 91l43 94q83 180 92 197l416 839h186l-718 -1413h-184z" />
    <glyph glyph-name="W" unicode="W" horiz-adv-x="1803" vert-adv-y="2457" 
d="M335 0l-136 1413h177l59 -759q1 -4 12 -216q7 -152 12 -248q41 97 108 264l30 72q19 45 37 90q25 61 27 64l333 733h140l69 -740q2 -16 16 -230l8 -137l7 -122q64 162 103 264q70 185 88 225l323 740h181l-635 -1413h-185l-64 735q-18 209 -21 428q-126 -321 -180 -441
l-325 -722h-184z" />
    <glyph glyph-name="X" unicode="X" horiz-adv-x="1147" vert-adv-y="2457" 
d="M508 755l-149 375q-40 101 -119 283h203l141 -367q20 -54 60 -168q100 138 123 169l280 366h200q-137 -167 -207 -257l-327 -422l160 -405q41 -105 137 -329h-203l-165 429q-17 44 -65 178q-23 -30 -59 -80q-59 -79 -62 -84l-341 -443h-202q155 188 225 279z" />
    <glyph glyph-name="Y" unicode="Y" horiz-adv-x="1044" vert-adv-y="2457" 
d="M343 0l93 530l-289 883h192l145 -461q7 -22 41 -140q20 -69 32 -110q31 48 79 122q57 90 88 135l309 454h191l-603 -883l-94 -530h-184z" />
    <glyph glyph-name="Z" unicode="Z" horiz-adv-x="1052" vert-adv-y="2457" 
d="M-40 0l19 112l933 1166h-667l23 135h878l-8 -110l-936 -1168h747l-23 -135h-966z" />
    <glyph glyph-name="bracketleft" unicode="[" horiz-adv-x="788" vert-adv-y="2457" 
d="M851 1542l-17 -97h-206l-301 -1701h206l-16 -99h-383l334 1897h383z" />
    <glyph glyph-name="backslash" unicode="\" horiz-adv-x="940" vert-adv-y="2457" 
d="M674 0l-495 1413h163l495 -1413h-163z" />
    <glyph glyph-name="bracketright" unicode="]" horiz-adv-x="788" vert-adv-y="2457" 
d="M-28 -355l17 99h206l301 1701h-206l16 97h383l-334 -1897h-383z" />
    <glyph glyph-name="asciicircum" unicode="^" vert-adv-y="2457" 
d="M718 1207l-377 -506h-194l568 738h73l309 -738h-184z" />
    <glyph glyph-name="underscore" unicode="_" vert-adv-y="2457" 
d="M-131 -419l20 115h1121l-20 -115h-1121z" />
    <glyph glyph-name="grave" unicode="`" horiz-adv-x="1024" vert-adv-y="2457" 
d="M621 1146l-188 262h222l94 -262h-128z" />
    <glyph glyph-name="a" unicode="a" horiz-adv-x="1073" vert-adv-y="2457" 
d="M679 132q-131 -158 -294 -158q-145 0 -226 86q-82 86 -82 261q0 170 63 333q139 355 492 355q176 0 363 -61q-42 -159 -77 -354l-59 -331q-26 -150 -29 -263h-157q0 43 6 132zM787 840q-74 41 -165 41q-184 0 -281 -211q-36 -79 -59 -189q-20 -96 -20 -175
q0 -204 153 -204q124 0 217 117q40 50 58 107q10 28 20 87z" />
    <glyph glyph-name="b" unicode="b" horiz-adv-x="1085" vert-adv-y="2457" 
d="M420 892q124 117 271 117q153 0 232 -95q77 -92 77 -267q0 -128 -40 -267q-51 -179 -162 -282q-133 -124 -333 -124q-201 0 -382 78q36 133 79 374l129 724q20 113 42 300l192 39zM287 141q78 -39 178 -39q183 0 280 210q70 153 70 336q0 233 -159 233q-121 0 -213 -116
q-40 -51 -59 -107q-9 -27 -20 -88z" />
    <glyph glyph-name="c" unicode="c" horiz-adv-x="830" vert-adv-y="2457" 
d="M704 152l4 -142q-102 -36 -243 -36q-186 0 -278 88q-101 96 -101 278q0 139 46 284q70 216 217 315q106 70 253 70q151 0 256 -55l-68 -140q-72 67 -175 67q-164 0 -263 -187q-40 -76 -63 -182q-18 -88 -18 -167q0 -243 221 -243q98 0 212 50z" />
    <glyph glyph-name="d" unicode="d" horiz-adv-x="1085" vert-adv-y="2457" 
d="M819 960l35 190q21 116 41 300l193 39l-216 -1226q-26 -149 -30 -263h-157q1 65 7 133q-50 -58 -91 -89q-95 -70 -213 -70q-143 0 -225 90q-80 88 -80 257q0 130 40 266q64 212 202 324q120 98 282 98q114 0 212 -49zM795 819q-73 62 -165 62q-183 0 -286 -218
q-76 -161 -76 -345q0 -106 41 -161t118 -55q123 0 217 117q40 51 59 107q9 26 20 87z" />
    <glyph glyph-name="e" unicode="e" horiz-adv-x="998" vert-adv-y="2457" 
d="M271 407q-4 -52 -4 -69q0 -102 44 -160q60 -78 219 -78q147 0 281 69l6 -140q-132 -55 -320 -55q-411 0 -411 378q0 148 50 289q130 368 488 368q161 0 246 -71q80 -67 80 -190q0 -160 -138 -235q-95 -52 -320 -83q-121 -17 -221 -23zM288 532q218 15 344 51
q96 28 125 78q20 34 20 84q0 139 -157 139q-172 0 -264 -163q-40 -70 -68 -189z" />
    <glyph glyph-name="f" unicode="f" horiz-adv-x="652" vert-adv-y="2457" 
d="M261 850h-172l31 133h164l29 159q32 184 110 259q84 81 233 81q108 0 219 -34l-59 -140q-70 48 -147 48q-86 0 -130 -61q-32 -45 -51 -149l-28 -163h247l-31 -133h-239l-144 -801q-32 -181 -58 -257q-44 -134 -139 -205q-84 -63 -218 -63q-72 0 -150 16l44 130
q60 -20 120 -20q104 0 151 106q39 85 73 281z" />
    <glyph glyph-name="g" unicode="g" horiz-adv-x="1060" vert-adv-y="2457" 
d="M657 103q-47 -47 -83 -71q-86 -58 -190 -58q-145 0 -226 86q-82 86 -82 261q0 170 64 333q69 178 194 269q116 86 297 86q177 0 364 -61q-42 -158 -77 -354l-70 -399q-51 -294 -105 -414q-114 -257 -440 -257q-162 0 -281 40l38 146q123 -60 256 -60q173 0 249 136
q53 95 83 264zM787 840q-75 41 -166 41q-184 0 -281 -211q-36 -78 -59 -189q-20 -97 -20 -176q0 -203 154 -203q123 0 217 117q40 50 59 107q9 28 19 87z" />
    <glyph glyph-name="h" unicode="h" horiz-adv-x="1135" vert-adv-y="2457" 
d="M87 0l203 1150q20 113 42 300l193 39l-116 -652q172 172 359 172q123 0 184 -61q56 -54 56 -144q0 -64 -22 -192l-108 -612h-176l112 631q15 84 15 122q0 118 -118 118q-125 0 -263 -132q-51 -48 -67 -88q-7 -19 -16 -69l-103 -582h-175z" />
    <glyph glyph-name="i" unicode="i" horiz-adv-x="525" vert-adv-y="2457" 
d="M89 0l173 983h176l-174 -983h-175zM399 1394q48 0 83 -36q34 -35 34 -85t-34 -85q-34 -36 -84 -36t-85 36q-34 35 -34 85q0 51 34 85q36 36 86 36z" />
    <glyph glyph-name="j" unicode="j" horiz-adv-x="527" vert-adv-y="2457" 
d="M263 983h175l-166 -934q-32 -182 -58 -257q-90 -268 -367 -268q-71 0 -152 16l44 130q62 -20 123 -20q109 0 159 106q39 85 74 281zM400 1394q49 0 83 -36q34 -35 34 -85t-34 -85q-34 -36 -85 -36q-50 0 -84 36q-34 35 -34 85q0 51 34 85q35 36 86 36z" />
    <glyph glyph-name="k" unicode="k" horiz-adv-x="957" vert-adv-y="2457" 
d="M87 0l203 1150q20 113 42 300l193 39l-155 -876l464 370h210l-499 -382l379 -601h-202l-356 585l-104 -585h-175z" />
    <glyph glyph-name="l" unicode="l" horiz-adv-x="525" vert-adv-y="2457" 
d="M88 0l203 1150q20 113 42 300l193 39l-263 -1489h-175z" />
    <glyph glyph-name="m" unicode="m" horiz-adv-x="1675" vert-adv-y="2457" 
d="M87 0l114 646q31 170 50 337h162l-14 -159q170 185 343 185q205 0 221 -201q176 201 357 201q114 0 174 -58q55 -53 55 -144q0 -65 -24 -202l-107 -605h-175l112 631q15 87 15 129q0 111 -102 111q-115 0 -246 -132q-46 -47 -62 -87q-8 -22 -15 -59l-105 -593h-175
l112 631q14 81 14 131q0 109 -99 109q-117 0 -248 -132q-46 -47 -61 -87q-9 -22 -16 -61l-105 -591h-175z" />
    <glyph glyph-name="n" unicode="n" horiz-adv-x="1130" vert-adv-y="2457" 
d="M87 0l114 646q31 170 50 337h162l-14 -158q175 184 359 184q118 0 182 -56q62 -54 62 -151q0 -67 -22 -190l-108 -612h-175l110 620q16 91 16 139q0 112 -117 112q-122 0 -259 -132q-48 -46 -64 -87q-9 -24 -16 -61l-105 -591h-175z" />
    <glyph glyph-name="o" unicode="o" horiz-adv-x="1081" vert-adv-y="2457" 
d="M620 1009q173 0 273 -107q98 -104 98 -284q0 -132 -44 -266q-61 -190 -206 -294q-118 -84 -273 -84q-181 0 -281 107q-97 104 -97 287q0 140 49 281q60 173 197 273q120 87 284 87zM611 881q-174 0 -267 -201q-69 -148 -69 -319q0 -259 199 -259q171 0 264 203
q68 150 68 317q0 259 -195 259z" />
    <glyph glyph-name="p" unicode="p" horiz-adv-x="1085" vert-adv-y="2457" 
d="M265 15l-84 -474h-175l195 1105q30 171 50 337h163l-7 -103q127 129 288 129q303 0 303 -367q0 -155 -50 -300q-63 -185 -191 -280q-118 -88 -278 -88q-108 0 -214 41zM290 163q36 -26 57 -36q51 -25 119 -25q177 0 274 202q73 154 73 340q0 237 -163 237
q-114 0 -208 -117q-57 -71 -76 -178z" />
    <glyph glyph-name="q" unicode="q" horiz-adv-x="1071" vert-adv-y="2457" 
d="M667 103q-119 -129 -272 -129q-146 0 -231 85q-87 88 -87 266q0 171 62 327q70 175 198 267q123 90 300 90q180 0 368 -61q-44 -175 -76 -356l-186 -1051h-175zM797 840q-70 41 -161 41q-190 0 -293 -213q-38 -78 -61 -185q-20 -94 -20 -174q0 -207 164 -207
q124 0 218 117q42 53 59 107q5 15 18 87z" />
    <glyph glyph-name="r" unicode="r" horiz-adv-x="717" vert-adv-y="2457" 
d="M87 0l117 659q32 183 47 324h168q-7 -80 -19 -161q59 79 97 113q82 74 182 74q53 0 113 -16l-55 -153q-56 27 -100 27q-94 0 -192 -137q-52 -72 -70 -124q-11 -31 -18 -75l-95 -531h-175z" />
    <glyph glyph-name="s" unicode="s" horiz-adv-x="831" vert-adv-y="2457" 
d="M0 28l55 144q112 -70 257 -70q122 0 180 54q51 47 51 119q0 53 -39 92q-31 31 -134 87q-116 62 -166 112q-63 62 -63 157q0 130 95 211q88 75 259 75q145 0 272 -52l-69 -139q-84 63 -196 63q-90 0 -140 -40q-48 -38 -48 -95q0 -55 50 -95q36 -30 126 -79
q122 -67 164 -110q62 -63 62 -156q0 -148 -97 -241q-96 -91 -300 -91q-182 0 -319 54z" />
    <glyph glyph-name="t" unicode="t" horiz-adv-x="686" vert-adv-y="2457" 
d="M260 850h-171l31 133h166l59 256l165 40l-51 -296h255l-31 -133h-247l-85 -474q-19 -107 -19 -175q0 -49 21 -73q23 -26 83 -26q74 0 149 40l-1 -137q-98 -31 -209 -31q-127 0 -180 55q-45 46 -45 134q0 66 25 204z" />
    <glyph glyph-name="u" unicode="u" horiz-adv-x="1092" vert-adv-y="2457" 
d="M251 983h176l-106 -597q-16 -90 -16 -145q0 -132 126 -132q143 0 274 161l126 713h175l-129 -727q-23 -132 -28 -256h-158q-1 35 -1 52q0 24 2 70q-41 -43 -75 -68q-105 -80 -229 -80t-194 62q-66 60 -66 174q0 74 27 225z" />
    <glyph glyph-name="v" unicode="v" horiz-adv-x="936" vert-adv-y="2457" 
d="M292 0l-164 983h177l71 -479q8 -53 21 -154l12 -90l8 -61l36 74l40 85q47 98 70 144l244 481h175l-520 -983h-170z" />
    <glyph glyph-name="w" unicode="w" horiz-adv-x="1467" vert-adv-y="2457" 
d="M271 0l-135 983h176l53 -472q5 -47 16 -157l7 -72l8 -77l35 81l28 63l33 75l36 84l216 475h158l43 -461l6 -71l8 -101q8 -92 12 -145q23 51 60 134l49 106l37 82l213 456h176l-489 -983h-165l-47 518q-2 20 -10 125q-5 76 -10 132l-32 -73l-26 -58q-54 -122 -60 -136
l-231 -508h-165z" />
    <glyph glyph-name="x" unicode="x" horiz-adv-x="982" vert-adv-y="2457" 
d="M401 514l-239 469h188l109 -213q2 -5 38 -78l16 -33l12 -25q71 86 119 140l183 209h177l-409 -469l261 -514h-188l-122 240q-36 73 -62 127l-14 28q-18 -21 -53 -63q-38 -47 -70 -83l-218 -249h-177z" />
    <glyph glyph-name="y" unicode="y" horiz-adv-x="917" vert-adv-y="2457" 
d="M291 0l-178 983h178l75 -498q5 -38 23 -168l11 -75l14 -103q70 155 82 182q49 112 71 158l231 504h175l-489 -1005q-121 -250 -178 -317q-114 -136 -292 -136q-64 0 -130 12l42 131q49 -17 102 -17q83 0 143 60q72 71 149 223l33 66h-62z" />
    <glyph glyph-name="z" unicode="z" horiz-adv-x="882" vert-adv-y="2457" 
d="M-33 0l12 109l664 742h-484l22 132h685l-8 -109l-664 -742h546l-22 -132h-751z" />
    <glyph glyph-name="braceleft" unicode="{" horiz-adv-x="798" vert-adv-y="2457" 
d="M363 650q60 -29 79 -45q43 -37 43 -118q0 -24 -25 -167l-43 -245q-29 -166 -29 -225q0 -63 33 -90q38 -30 122 -30h48l-15 -85h-120q-122 0 -183 40q-65 43 -65 158q0 71 29 239l45 253q25 141 25 177q0 57 -43 84q-31 19 -80 19h-32l12 71h32q81 0 128 50q24 26 36 64.5
t34 166.5l35 201q24 139 46 200q37 102 119 140q76 34 196 34h121l-15 -85h-47q-132 0 -177 -73q-35 -58 -72 -273l-23 -129q-26 -149 -41 -184q-33 -80 -106 -117q-12 -6 -67 -31z" />
    <glyph glyph-name="bar" unicode="|" vert-adv-y="2457" 
d="M506 -419v1832h164v-1832h-164z" />
    <glyph glyph-name="braceright" unicode="}" horiz-adv-x="798" vert-adv-y="2457" 
d="M492 651q-59 29 -79 46q-43 36 -43 117q0 28 24 167l23 131q30 169 30 225q0 63 -33 90q-38 30 -123 30h-47l14 85h121q121 0 183 -40q65 -43 65 -157q0 -69 -30 -240l-24 -138q-25 -142 -25 -177q0 -57 43 -84q31 -20 80 -20h32l-13 -71h-31q-82 0 -128 -49
q-30 -33 -48 -110q-6 -25 -22 -122l-56 -315q-24 -139 -46 -200q-36 -102 -119 -140q-75 -34 -195 -34h-121l14 85h48q132 0 176 73q35 58 73 273l43 244q25 147 41 184q33 80 105 116q11 5 68 31z" />
    <glyph glyph-name="asciitilde" unicode="~" vert-adv-y="2457" 
d="M321 560l-111 33q37 94 82 154q82 108 211 108q72 0 119 -28q26 -16 75 -60q47 -41 59 -50q25 -19 57 -19q86 0 160 157l111 -33q-39 -97 -79 -151q-83 -111 -218 -111q-81 0 -143 47q-22 18 -85 74q-40 36 -80 36q-86 0 -158 -157z" />
    <glyph glyph-name="Adieresis" unicode="&#xc4;" horiz-adv-x="1252" vert-adv-y="2457" 
d="M890 421h-565l-228 -421h-191l781 1413h190l281 -1413h-191zM867 554l-75 414q-3 15 -25 161q-11 72 -16 106q-89 -181 -128 -253l-229 -428h473zM621 1791q47 0 80 -33q33 -32 33 -79q0 -45 -33 -78q-32 -33 -80 -33q-47 0 -80 33t-33 80q0 45 33 77q34 33 80 33z
M987 1791q47 0 80 -33q33 -32 33 -79q0 -46 -33 -78q-33 -33 -80 -33q-48 0 -80 33q-33 33 -33 80q0 45 33 77q33 33 80 33z" />
    <glyph glyph-name="Aring" unicode="&#xc5;" horiz-adv-x="1252" vert-adv-y="2457" 
d="M890 421h-565l-228 -421h-191l781 1413h190l281 -1413h-191zM867 554l-75 414q-3 15 -25 161q-11 72 -16 106q-89 -181 -128 -253l-229 -428h473zM814 1915q96 0 153 -59q52 -54 52 -134t-52 -134q-57 -58 -156 -58t-155 58q-53 54 -53 134q0 82 52 134q59 59 159 59z
M813 1850q-47 0 -74 -40q-22 -33 -22 -88q0 -54 22 -87q27 -40 72 -40q46 0 73 40q22 33 22 88t-22 87q-28 40 -71 40z" />
    <glyph glyph-name="Ccedilla" unicode="&#xc7;" horiz-adv-x="1059" vert-adv-y="2457" 
d="M953 180l3 -155q-170 -51 -335 -51q-13 0 -49 2l-85 -105q83 -7 119 -23q87 -37 87 -139q0 -109 -76 -170q-69 -56 -197 -56q-105 0 -196 25l35 94q78 -30 140 -30q70 0 102 44q27 36 27 91q0 89 -110 89q-25 0 -60 -4l-8 30l129 164q-361 68 -361 494q0 254 96 497
q182 462 606 462q167 0 335 -64l-63 -154q-128 84 -264 84q-248 0 -393 -287q-59 -116 -93 -277q-30 -140 -30 -262q0 -371 312 -371q158 0 329 72z" />
    <glyph glyph-name="Eacute" unicode="&#xc9;" horiz-adv-x="1096" vert-adv-y="2457" 
d="M101 0l249 1413h841l-23 -135h-656l-85 -475h499l-23 -132h-498l-96 -536h661l-23 -135h-846zM697 1550l185 262h232l-279 -262h-138z" />
    <glyph glyph-name="Ntilde" unicode="&#xd1;" horiz-adv-x="1393" vert-adv-y="2457" 
d="M101 0l249 1413h221l299 -811q21 -56 66 -184l34 -93l29 -83q10 79 32 208q23 133 32 184l139 779h167l-250 -1413h-205l-318 876q-33 90 -91 256l-27 79q-17 -126 -53 -332l-158 -879h-166zM678 1555h-128q41 113 82 168q70 94 161 94q51 0 97 -27q25 -15 67 -56
q52 -51 78 -51q40 0 70 57q12 24 27 67h129q-29 -105 -68 -163q-68 -103 -183 -103q-64 0 -108 35q-9 7 -53 49q-52 50 -78 50q-43 0 -93 -120z" />
    <glyph glyph-name="Odieresis" unicode="&#xd6;" horiz-adv-x="1360" vert-adv-y="2457" 
d="M830 1439q145 0 260 -60q125 -66 181 -208q47 -120 47 -269q0 -179 -55 -368q-84 -284 -258 -426q-163 -134 -392 -134q-230 0 -356 122q-139 135 -139 412q0 188 59 382q169 549 653 549zM830 1305q-269 0 -407 -294q-48 -103 -80 -256q-31 -151 -31 -281
q0 -174 81 -275q73 -91 218 -91q265 0 403 294q48 104 80 261q31 150 31 274q0 157 -67 258q-74 110 -228 110zM703 1791q47 0 80 -33t33 -79q0 -45 -33 -78q-32 -33 -80 -33q-47 0 -80 33q-33 32 -33 80q0 45 33 77q33 33 80 33zM1069 1791q47 0 80 -33q33 -32 33 -79
q0 -46 -33 -78q-33 -33 -80 -33q-48 0 -80 33q-33 33 -33 80q0 45 33 77q33 33 80 33z" />
    <glyph glyph-name="Udieresis" unicode="&#xdc;" horiz-adv-x="1279" vert-adv-y="2457" 
d="M341 1413h185l-154 -870q-29 -165 -29 -236q0 -199 243 -199q196 0 276 134q43 72 78 268l159 903h164l-167 -955q-23 -126 -37 -170q-53 -168 -177 -241t-304 -73q-216 0 -326 102q-89 83 -89 229q0 102 33 286zM657 1791q47 0 80 -33q33 -32 33 -79q0 -45 -33 -78
q-32 -33 -80 -33t-80 33q-33 32 -33 80q0 45 33 77q33 33 80 33zM1023 1791q47 0 80 -33q33 -32 33 -79q0 -46 -33 -78q-32 -33 -80 -33t-80 33q-33 33 -33 80q0 45 33 77q33 33 80 33z" />
    <glyph glyph-name="aacute" unicode="&#xe1;" horiz-adv-x="1073" vert-adv-y="2457" 
d="M679 132q-131 -158 -294 -158q-145 0 -226 86q-82 86 -82 261q0 170 63 333q139 355 492 355q176 0 363 -61q-42 -159 -77 -354l-59 -331q-26 -150 -29 -263h-157q0 43 6 132zM787 840q-74 41 -165 41q-184 0 -281 -211q-36 -79 -59 -189q-20 -96 -20 -175
q0 -204 153 -204q124 0 217 117q40 50 58 107q10 28 20 87zM571 1146l185 262h232l-279 -262h-138z" />
    <glyph glyph-name="agrave" unicode="&#xe0;" horiz-adv-x="1073" vert-adv-y="2457" 
d="M679 132q-131 -158 -294 -158q-145 0 -226 86q-82 86 -82 261q0 170 63 333q139 355 492 355q176 0 363 -61q-42 -159 -77 -354l-59 -331q-26 -150 -29 -263h-157q0 43 6 132zM787 840q-74 41 -165 41q-184 0 -281 -211q-36 -79 -59 -189q-20 -96 -20 -175
q0 -204 153 -204q124 0 217 117q40 50 58 107q10 28 20 87zM671 1146l-188 262h222l94 -262h-128z" />
    <glyph glyph-name="acircumflex" unicode="&#xe2;" horiz-adv-x="1073" vert-adv-y="2457" 
d="M679 132q-131 -158 -294 -158q-145 0 -226 86q-82 86 -82 261q0 170 63 333q139 355 492 355q176 0 363 -61q-42 -159 -77 -354l-59 -331q-26 -150 -29 -263h-157q0 43 6 132zM787 840q-74 41 -165 41q-184 0 -281 -211q-36 -79 -59 -189q-20 -96 -20 -175
q0 -204 153 -204q124 0 217 117q40 50 58 107q10 28 20 87zM684 1306l-197 -160h-152l253 262h216l162 -262h-141z" />
    <glyph glyph-name="adieresis" unicode="&#xe4;" horiz-adv-x="1073" vert-adv-y="2457" 
d="M679 132q-131 -158 -294 -158q-145 0 -226 86q-82 86 -82 261q0 170 63 333q139 355 492 355q176 0 363 -61q-42 -159 -77 -354l-59 -331q-26 -150 -29 -263h-157q0 43 6 132zM787 840q-74 41 -165 41q-184 0 -281 -211q-36 -79 -59 -189q-20 -96 -20 -175
q0 -204 153 -204q124 0 217 117q40 50 58 107q10 28 20 87zM502 1384q47 0 80 -33q33 -32 33 -79q0 -45 -33 -78t-80 -33t-80 33t-33 80q0 45 33 77q33 33 80 33zM847 1384q47 0 80 -33q33 -32 33 -79q0 -45 -33 -78q-32 -33 -80 -33t-80 33q-33 33 -33 80q0 46 33 77
q33 33 80 33z" />
    <glyph glyph-name="atilde" unicode="&#xe3;" horiz-adv-x="1073" vert-adv-y="2457" 
d="M679 132q-131 -158 -294 -158q-145 0 -226 86q-82 86 -82 261q0 170 63 333q139 355 492 355q176 0 363 -61q-42 -159 -77 -354l-59 -331q-26 -150 -29 -263h-157q0 43 6 132zM787 840q-74 41 -165 41q-184 0 -281 -211q-36 -79 -59 -189q-20 -96 -20 -175
q0 -204 153 -204q124 0 217 117q40 50 58 107q10 28 20 87zM447 1150h-128q42 114 82 168q70 94 162 94q79 0 163 -83q52 -51 79 -51q40 0 69 57q11 23 27 67h129q-29 -104 -68 -163q-68 -103 -182 -103q-65 0 -109 34q-9 8 -53 49q-52 50 -78 50q-43 0 -93 -119z" />
    <glyph glyph-name="aring" unicode="&#xe5;" horiz-adv-x="1073" vert-adv-y="2457" 
d="M679 132q-131 -158 -294 -158q-145 0 -226 86q-82 86 -82 261q0 170 63 333q139 355 492 355q176 0 363 -61q-42 -159 -77 -354l-59 -331q-26 -150 -29 -263h-157q0 43 6 132zM787 840q-74 41 -165 41q-184 0 -281 -211q-36 -79 -59 -189q-20 -96 -20 -175
q0 -204 153 -204q124 0 217 117q40 50 58 107q10 28 20 87zM713 1510q96 0 153 -58q52 -54 52 -135q0 -80 -52 -133q-57 -58 -156 -58t-155 58q-53 53 -53 133q0 82 52 135q59 58 159 58zM711 1445q-47 0 -73 -40q-22 -33 -22 -87t22 -87q27 -40 72 -40t72 40q22 33 22 87
q0 55 -22 87q-27 40 -71 40z" />
    <glyph glyph-name="ccedilla" unicode="&#xe7;" horiz-adv-x="830" vert-adv-y="2457" 
d="M701 152l4 -142q-102 -36 -239 -36q-7 0 -30 1l-84 -104q83 -7 118 -23q87 -37 87 -139q0 -109 -76 -170q-69 -56 -196 -56q-105 0 -196 25l35 94q78 -30 140 -30q69 0 101 44q27 36 27 91q0 89 -109 89q-25 0 -61 -4l-8 30l129 164q-86 16 -146 65q-114 93 -114 291
q0 137 46 282q70 217 217 315q106 70 253 70q151 0 256 -55l-68 -140q-72 67 -175 67q-164 0 -263 -187q-40 -76 -63 -182q-18 -88 -18 -167q0 -243 221 -243q98 0 212 50z" />
    <glyph glyph-name="eacute" unicode="&#xe9;" horiz-adv-x="998" vert-adv-y="2457" 
d="M271 407q-4 -52 -4 -69q0 -102 44 -160q60 -78 219 -78q147 0 281 69l6 -140q-132 -55 -320 -55q-411 0 -411 378q0 148 50 289q130 368 488 368q161 0 246 -71q80 -67 80 -190q0 -160 -138 -235q-95 -52 -320 -83q-121 -17 -221 -23zM288 532q218 15 344 51
q96 28 125 78q20 34 20 84q0 139 -157 139q-172 0 -264 -163q-40 -70 -68 -189zM539 1146l185 262h232l-279 -262h-138z" />
    <glyph glyph-name="egrave" unicode="&#xe8;" horiz-adv-x="998" vert-adv-y="2457" 
d="M271 407q-4 -52 -4 -69q0 -102 44 -160q60 -78 219 -78q147 0 281 69l6 -140q-132 -55 -320 -55q-411 0 -411 378q0 148 50 289q130 368 488 368q161 0 246 -71q80 -67 80 -190q0 -160 -138 -235q-95 -52 -320 -83q-121 -17 -221 -23zM288 532q218 15 344 51
q96 28 125 78q20 34 20 84q0 139 -157 139q-172 0 -264 -163q-40 -70 -68 -189zM626 1146l-188 262h222l94 -262h-128z" />
    <glyph glyph-name="ecircumflex" unicode="&#xea;" horiz-adv-x="998" vert-adv-y="2457" 
d="M271 407q-4 -52 -4 -69q0 -102 44 -160q60 -78 219 -78q147 0 281 69l6 -140q-132 -55 -320 -55q-411 0 -411 378q0 148 50 289q130 368 488 368q161 0 246 -71q80 -67 80 -190q0 -160 -138 -235q-95 -52 -320 -83q-121 -17 -221 -23zM288 532q218 15 344 51
q96 28 125 78q20 34 20 84q0 139 -157 139q-172 0 -264 -163q-40 -70 -68 -189zM662 1306l-197 -160h-152l253 262h216l162 -262h-141z" />
    <glyph glyph-name="edieresis" unicode="&#xeb;" horiz-adv-x="998" vert-adv-y="2457" 
d="M271 407q-4 -52 -4 -69q0 -102 44 -160q60 -78 219 -78q147 0 281 69l6 -140q-132 -55 -320 -55q-411 0 -411 378q0 148 50 289q130 368 488 368q161 0 246 -71q80 -67 80 -190q0 -160 -138 -235q-95 -52 -320 -83q-121 -17 -221 -23zM288 532q218 15 344 51
q96 28 125 78q20 34 20 84q0 139 -157 139q-172 0 -264 -163q-40 -70 -68 -189zM481 1384q47 0 80 -33q33 -32 33 -79q0 -45 -33 -78t-80 -33t-80 33t-33 80q0 45 33 77q33 33 80 33zM826 1384q47 0 80 -33q33 -32 33 -79q0 -45 -33 -78q-32 -33 -80 -33t-80 33
q-33 33 -33 80q0 46 33 77q33 33 80 33z" />
    <glyph glyph-name="iacute" unicode="&#xed;" horiz-adv-x="525" vert-adv-y="2457" 
d="M88 0l173 983h176l-174 -983h-175zM281 1146l185 262h232l-279 -262h-138z" />
    <glyph glyph-name="igrave" unicode="&#xec;" horiz-adv-x="525" vert-adv-y="2457" 
d="M88 0l173 983h176l-174 -983h-175zM341 1146l-188 262h222l94 -262h-128z" />
    <glyph glyph-name="icircumflex" unicode="&#xee;" horiz-adv-x="525" vert-adv-y="2457" 
d="M89 0l173 983h176l-174 -983h-175zM397 1306l-197 -160h-152l253 262h216l162 -262h-141z" />
    <glyph glyph-name="idieresis" unicode="&#xef;" horiz-adv-x="525" vert-adv-y="2457" 
d="M82 0l173 983h176l-174 -983h-175zM212 1384q47 0 80 -33q33 -32 33 -79q0 -45 -33 -78q-32 -33 -80 -33q-47 0 -80 33t-33 80q0 46 33 77q33 33 80 33zM557 1384q48 0 81 -33q32 -32 32 -79q0 -45 -32 -78q-33 -33 -81 -33t-81 33q-32 33 -32 80q0 46 32 77q34 33 81 33
z" />
    <glyph glyph-name="ntilde" unicode="&#xf1;" horiz-adv-x="1130" vert-adv-y="2457" 
d="M87 0l114 646q31 170 50 337h162l-14 -158q175 184 359 184q118 0 182 -56q62 -54 62 -151q0 -67 -22 -190l-108 -612h-175l110 620q16 91 16 139q0 112 -117 112q-122 0 -259 -132q-48 -46 -64 -87q-9 -24 -16 -61l-105 -591h-175zM443 1150h-128q42 114 82 168
q70 94 162 94q79 0 163 -83q52 -51 79 -51q40 0 69 57q11 23 27 67h129q-29 -104 -68 -163q-68 -103 -182 -103q-65 0 -109 34q-9 8 -53 49q-52 50 -78 50q-43 0 -93 -119z" />
    <glyph glyph-name="oacute" unicode="&#xf3;" horiz-adv-x="1081" vert-adv-y="2457" 
d="M620 1009q173 0 273 -107q98 -104 98 -284q0 -132 -44 -266q-61 -190 -206 -294q-118 -84 -273 -84q-181 0 -281 107q-97 104 -97 287q0 140 49 281q60 173 197 273q120 87 284 87zM611 881q-174 0 -267 -201q-69 -148 -69 -319q0 -259 199 -259q171 0 264 203
q68 150 68 317q0 259 -195 259zM574 1146l185 262h232l-279 -262h-138z" />
    <glyph glyph-name="ograve" unicode="&#xf2;" horiz-adv-x="1081" vert-adv-y="2457" 
d="M620 1009q173 0 273 -107q98 -104 98 -284q0 -132 -44 -266q-61 -190 -206 -294q-118 -84 -273 -84q-181 0 -281 107q-97 104 -97 287q0 140 49 281q60 173 197 273q120 87 284 87zM611 881q-174 0 -267 -201q-69 -148 -69 -319q0 -259 199 -259q171 0 264 203
q68 150 68 317q0 259 -195 259zM653 1146l-188 262h222l94 -262h-128z" />
    <glyph glyph-name="ocircumflex" unicode="&#xf4;" horiz-adv-x="1081" vert-adv-y="2457" 
d="M620 1009q173 0 273 -107q98 -104 98 -284q0 -132 -44 -266q-61 -190 -206 -294q-118 -84 -273 -84q-181 0 -281 107q-97 104 -97 287q0 140 49 281q60 173 197 273q120 87 284 87zM611 881q-174 0 -267 -201q-69 -148 -69 -319q0 -259 199 -259q171 0 264 203
q68 150 68 317q0 259 -195 259zM681 1306l-197 -160h-152l253 262h216l162 -262h-141z" />
    <glyph glyph-name="odieresis" unicode="&#xf6;" horiz-adv-x="1081" vert-adv-y="2457" 
d="M620 1009q173 0 273 -107q98 -104 98 -284q0 -132 -44 -266q-61 -190 -206 -294q-118 -84 -273 -84q-181 0 -281 107q-97 104 -97 287q0 140 49 281q60 173 197 273q120 87 284 87zM611 881q-174 0 -267 -201q-69 -148 -69 -319q0 -259 199 -259q171 0 264 203
q68 150 68 317q0 259 -195 259zM503 1384q47 0 80 -33q33 -32 33 -79q0 -45 -33 -78t-80 -33t-80 33t-33 80q0 45 33 77q33 33 80 33zM848 1384q47 0 80 -33q33 -32 33 -79q0 -45 -33 -78q-32 -33 -80 -33t-80 33q-33 33 -33 80q0 46 33 77q33 33 80 33z" />
    <glyph glyph-name="otilde" unicode="&#xf5;" horiz-adv-x="1081" vert-adv-y="2457" 
d="M620 1009q173 0 273 -107q98 -104 98 -284q0 -132 -44 -266q-61 -190 -206 -294q-118 -84 -273 -84q-181 0 -281 107q-97 104 -97 287q0 140 49 281q60 173 197 273q120 87 284 87zM611 881q-174 0 -267 -201q-69 -148 -69 -319q0 -259 199 -259q171 0 264 203
q68 150 68 317q0 259 -195 259zM434 1150h-128q42 114 82 168q70 94 162 94q79 0 163 -83q52 -51 79 -51q40 0 69 57q11 23 27 67h129q-29 -104 -68 -163q-68 -103 -182 -103q-65 0 -109 34q-9 8 -53 49q-52 50 -78 50q-43 0 -93 -119z" />
    <glyph glyph-name="uacute" unicode="&#xfa;" horiz-adv-x="1092" vert-adv-y="2457" 
d="M251 983h176l-106 -597q-16 -90 -16 -145q0 -132 126 -132q143 0 274 161l126 713h175l-129 -727q-23 -132 -28 -256h-158q-1 35 -1 52q0 24 2 70q-41 -43 -75 -68q-105 -80 -229 -80t-194 62q-66 60 -66 174q0 74 27 225zM543 1146l185 262h232l-279 -262h-138z" />
    <glyph glyph-name="ugrave" unicode="&#xf9;" horiz-adv-x="1092" vert-adv-y="2457" 
d="M251 983h176l-106 -597q-16 -90 -16 -145q0 -132 126 -132q143 0 274 161l126 713h175l-129 -727q-23 -132 -28 -256h-158q-1 35 -1 52q0 24 2 70q-41 -43 -75 -68q-105 -80 -229 -80t-194 62q-66 60 -66 174q0 74 27 225zM632 1146l-188 262h222l94 -262h-128z" />
    <glyph glyph-name="ucircumflex" unicode="&#xfb;" horiz-adv-x="1092" vert-adv-y="2457" 
d="M251 983h176l-106 -597q-16 -90 -16 -145q0 -132 126 -132q143 0 274 161l126 713h175l-129 -727q-23 -132 -28 -256h-158q-1 35 -1 52q0 24 2 70q-41 -43 -75 -68q-105 -80 -229 -80t-194 62q-66 60 -66 174q0 74 27 225zM677 1306l-197 -160h-152l253 262h216l162 -262
h-141z" />
    <glyph glyph-name="udieresis" unicode="&#xfc;" horiz-adv-x="1092" vert-adv-y="2457" 
d="M251 983h176l-106 -597q-16 -90 -16 -145q0 -132 126 -132q143 0 274 161l126 713h175l-129 -727q-23 -132 -28 -256h-158q-1 35 -1 52q0 24 2 70q-41 -43 -75 -68q-105 -80 -229 -80t-194 62q-66 60 -66 174q0 74 27 225zM500 1384q47 0 80 -33q33 -32 33 -79
q0 -45 -33 -78t-80 -33t-80 33t-33 80q0 45 33 77q33 33 80 33zM845 1384q47 0 80 -33q33 -32 33 -79q0 -45 -33 -78q-32 -33 -80 -33t-80 33q-33 33 -33 80q0 46 33 77q33 33 80 33z" />
    <glyph glyph-name="dagger" unicode="&#x2020;" horiz-adv-x="1094" vert-adv-y="2457" 
d="M512 806h-326l24 140h326l83 467h180l-83 -467h328l-24 -140h-328l-214 -1213h-180z" />
    <glyph glyph-name="degree" unicode="&#xb0;" horiz-adv-x="493" vert-adv-y="2457" 
d="M393 1525q98 0 164 -62q67 -64 67 -157t-67 -158q-65 -62 -167 -62t-167 62q-67 64 -67 157q0 95 67 158q67 62 170 62zM392 1446q-51 0 -82 -36q-32 -38 -32 -106q0 -66 32 -103q30 -36 80 -36q51 0 81 36q32 38 32 105q0 66 -32 104q-31 36 -79 36z" />
    <glyph glyph-name="cent" unicode="&#xa2;" vert-adv-y="2457" 
d="M560 180l36 207q-122 12 -190 52q-157 92 -157 309q0 189 81 363q137 294 448 306l33 185h117l-33 -189q124 -13 206 -50l-69 -139q-59 47 -159 64l-138 -776q101 8 212 50l3 -143q-94 -28 -236 -34l-36 -205h-118zM619 518l137 767q-102 -23 -172 -100
q-83 -91 -122 -233q-28 -103 -28 -196q0 -204 185 -238z" />
    <glyph glyph-name="sterling" unicode="&#xa3;" vert-adv-y="2457" 
d="M337 648h-184l31 132h176l33 183q26 147 56 216q111 260 434 260q155 0 320 -47l-61 -147q-134 60 -247 60q-157 0 -238 -113q-56 -77 -84 -234l-32 -178h272l-32 -132h-262l-91 -509h598l-34 -139h-923l34 139h143z" />
    <glyph glyph-name="section" unicode="&#xa7;" horiz-adv-x="1175" vert-adv-y="2457" 
d="M107 -142l61 149q54 -36 99 -57q92 -43 191 -43q118 0 181 65q56 57 56 146q0 76 -51 115q-35 26 -161 72q-152 55 -210 111q-59 57 -59 157q0 136 100 231q37 35 115 81q-75 76 -75 191q0 166 110 266q106 97 290 97q135 0 292 -52l-61 -148q-119 70 -227 70
q-115 0 -177 -65q-54 -57 -54 -146q0 -76 50 -115q36 -28 155 -72q154 -57 210 -111q59 -57 59 -158q0 -191 -211 -311q78 -76 78 -191q0 -166 -112 -266q-108 -97 -293 -97q-169 0 -356 81zM708 383q59 33 95 88q36 56 36 124q0 65 -43 104q-25 23 -55 37q-28 13 -90 39
l-143 59q-132 -82 -132 -213q0 -65 43 -104q32 -29 147 -76z" />
    <glyph glyph-name="bullet" unicode="&#x2022;" vert-adv-y="2457" 
d="M408 986h499q58 0 85 -30q20 -23 20 -56q0 -19 -2 -33l-71 -501q-8 -57 -35 -81q-28 -24 -86 -24h-499q-105 0 -105 86q0 18 2 32l71 502q8 57 36 81q27 24 85 24z" />
    <glyph glyph-name="paragraph" unicode="&#xb6;" horiz-adv-x="1322" vert-adv-y="2457" 
d="M401 -403l193 1094h-70q-67 0 -89 3q-78 10 -140 74q-79 82 -79 227q0 143 87 262q93 128 251 150q42 6 221 6h419l-320 -1816h-150l296 1680h-173l-296 -1680h-150z" />
    <glyph glyph-name="germandbls" unicode="&#xdf;" horiz-adv-x="1132" vert-adv-y="2457" 
d="M-281 -460l44 130q59 -20 120 -20q104 0 151 106q39 86 73 281l172 964q27 150 50 211q102 270 402 270q170 0 265 -75q88 -70 88 -202q0 -119 -62 -195q-36 -43 -148 -113q-51 -32 -68 -55q-24 -33 -24 -74t24 -73q17 -23 99 -85q76 -59 106 -105q41 -62 41 -146
q0 -86 -31 -169q-81 -216 -339 -216q-100 0 -204 24l50 138q75 -34 156 -34q96 0 147 82q40 64 40 149q0 55 -26 89q-20 27 -77 69q-84 60 -113 97q-47 60 -47 132q0 79 39 138q32 48 125 112q86 58 109 101q29 54 29 126q0 157 -172 157q-142 0 -208 -109q-47 -77 -80 -267
l-166 -929q-32 -181 -58 -257q-89 -268 -357 -268q-72 0 -150 16z" />
    <glyph glyph-name="registered" unicode="&#xae;" horiz-adv-x="1212" vert-adv-y="2457" 
d="M529 756v544h179q216 0 216 -151q0 -120 -134 -149q35 -26 63 -79l87 -165h-114l-71 135q-35 69 -46 83q-12 16 -31 16h-42v-234h-107zM636 1046h65q114 0 114 102q0 49 -30 72q-23 18 -91 18h-58v-192zM707 1579q227 0 385 -150q167 -159 167 -405t-167 -406
q-157 -150 -392 -150q-234 0 -391 150q-168 160 -168 404q0 163 78 295q78 133 221 204q118 58 267 58zM706 1490q-197 0 -321 -130q-125 -131 -125 -339q0 -133 61 -245q61 -113 175 -170q94 -48 204 -48q191 0 315 129q125 131 125 336t-125 337q-61 64 -142 97
q-83 33 -167 33z" />
    <glyph glyph-name="copyright" unicode="&#xa9;" horiz-adv-x="1716" vert-adv-y="2457" 
d="M1110 471l12 -93q-75 -28 -172 -28q-160 0 -251 91q-96 96 -96 273q0 207 118 308q87 76 229 76q96 0 166 -25l-24 -91q-75 30 -139 30q-97 0 -150 -78q-55 -82 -55 -211t55 -209q53 -76 157 -76q75 0 150 33zM908 1468q320 0 534 -217q215 -217 215 -540
q0 -321 -215 -539q-214 -217 -545 -217t-545 217q-98 99 -153 230q-62 145 -62 308q0 226 112 410q103 171 284 265q160 83 375 83zM906 1369q-290 0 -471 -197q-168 -184 -168 -462q0 -274 168 -459q181 -197 462 -197q282 0 462 197q168 184 168 460q0 283 -168 461
q-186 197 -453 197z" />
    <glyph glyph-name="trademark" unicode="&#x2122;" horiz-adv-x="1691" vert-adv-y="2457" 
d="M278 568l132 750h-245l19 95h638l-19 -95h-243l-132 -750h-150zM722 568l208 845h194l72 -434q11 -63 27 -187q55 121 92 193l216 428h197l-91 -845h-152l54 472q6 58 20 171l-31 -62q-40 -82 -49 -101l-244 -480h-111l-79 465q-2 13 -8 56q-5 43 -18 123l-41 -174
l-114 -470h-142z" />
    <glyph glyph-name="acute" unicode="&#xb4;" horiz-adv-x="1024" vert-adv-y="2457" 
d="M501 1146l185 262h232l-279 -262h-138z" />
    <glyph glyph-name="dieresis" unicode="&#xa8;" horiz-adv-x="1024" vert-adv-y="2457" 
d="M477 1384q47 0 80 -33q33 -32 33 -79q0 -45 -33 -78t-80 -33t-80 33t-33 80q0 45 33 77q33 33 80 33zM822 1384q47 0 80 -33q33 -32 33 -79q0 -45 -33 -78q-32 -33 -80 -33t-80 33q-33 33 -33 80q0 46 33 77q33 33 80 33z" />
    <glyph glyph-name="notequal" unicode="&#x2260;" vert-adv-y="2457" 
d="M106 462l24 140h351l129 209h-443l24 140h504l140 225l119 -64l-101 -161h298l-24 -140h-359l-130 -209h452l-24 -140h-513l-131 -213l-119 64l93 149h-290z" />
    <glyph glyph-name="AE" unicode="&#xc6;" horiz-adv-x="1674" vert-adv-y="2457" 
d="M754 419h-449l-286 -419h-212q90 122 209 291l601 852q25 35 96 145q28 42 83 125h973l-23 -135h-656l-85 -475h499l-23 -132h-498l-96 -536h661l-23 -135h-846zM777 554l128 724h-15l-495 -724h382z" />
    <glyph glyph-name="Oslash" unicode="&#xd8;" horiz-adv-x="1360" vert-adv-y="2457" 
d="M175 215q-57 128 -57 302q0 180 59 373q86 280 260 419q161 130 384 130q241 0 377 -146l147 155l84 -79l-167 -175q56 -129 56 -302q0 -168 -56 -358q-83 -284 -257 -426q-163 -134 -392 -134q-243 0 -373 142l-149 -156l-84 79zM324 376l752 787q-72 142 -252 142
q-257 0 -395 -279q-49 -100 -81 -245q-34 -153 -34 -280q0 -63 10 -125zM361 247q77 -139 251 -139q261 0 399 290q48 100 79 249q32 148 32 258q0 57 -9 128z" />
    <glyph glyph-name="infinity" unicode="&#x221e;" horiz-adv-x="1311" vert-adv-y="2457" 
d="M696 614q-45 -67 -83 -104q-101 -98 -246 -98q-142 0 -230 84q-89 86 -89 225q0 138 89 224q89 85 230 85q154 0 260 -113q30 -31 69 -89q45 67 84 104q102 98 245 98q142 0 231 -85t89 -224t-89 -225q-88 -84 -231 -84q-154 0 -260 113q-30 31 -69 89zM647 721
q-132 218 -277 218q-77 0 -125 -59q-49 -60 -49 -159t49 -160q48 -58 124 -58q109 0 200 109q21 25 53 73zM746 721q61 -92 91 -124q86 -94 186 -94q77 0 125 58q49 61 49 160t-49 159q-48 59 -126 59q-106 0 -198 -108q-24 -29 -54 -73q-25 -37 -24 -37z" />
    <glyph glyph-name="plusminus" unicode="&#xb1;" vert-adv-y="2457" 
d="M139 657l24 140h401l76 424h157l-76 -424h402l-24 -140h-402l-75 -420h-156l75 420h-402zM23 0l24 140h960l-24 -140h-960z" />
    <glyph glyph-name="lessequal" unicode="&#x2264;" vert-adv-y="2457" 
d="M61 0l23 131h864l-23 -131h-864zM365 721l623 -356l-25 -149l-783 463l18 98l946 462l-28 -162z" />
    <glyph glyph-name="greaterequal" unicode="&#x2265;" vert-adv-y="2457" 
d="M82 0l23 131h864l-23 -131h-864zM898 734l-623 356l25 149l783 -463l-18 -98l-946 -462l28 162z" />
    <glyph glyph-name="yen" unicode="&#xa5;" vert-adv-y="2457" 
d="M398 0l53 299h-354l19 111h353l22 114l-7 19h-343l18 111h290l-251 759h190l148 -461q30 -93 75 -254q22 35 77 119q74 113 95 143l311 453h189l-521 -759h290l-18 -111h-345l-14 -19l-21 -114h355l-19 -111h-355l-53 -299h-184z" />
    <glyph glyph-name="mu" unicode="&#xb5;" vert-adv-y="2457" 
d="M26 -493l260 1476h180l-104 -588q-23 -133 -23 -176q0 -122 103 -122q136 0 322 228l116 658h178l-173 -983h-171l18 147q-50 -50 -80 -76q-122 -102 -252 -102q-57 0 -108 27l-78 -445z" />
    <glyph glyph-name="partialdiff" unicode="&#x2202;" vert-adv-y="2457" 
d="M465 1331l37 109q222 -28 335 -125q106 -91 154 -247q54 -173 54 -375q0 -325 -133 -512q-147 -207 -392 -207q-175 0 -275 104q-103 106 -103 289q0 128 43 260q60 184 202 287q117 86 263 86q119 0 197 -60q-37 152 -109 247q-58 75 -165 115q-57 22 -108 29zM665 870
q-174 0 -269 -199q-69 -144 -69 -308q0 -261 198 -261q172 0 266 200q69 146 69 308q0 260 -195 260z" />
    <glyph glyph-name="summation" unicode="&#x2211;" vert-adv-y="2457" 
d="M1301 1566l-23 -135h-834l338 -869l-656 -950h850l-23 -135h-1042l29 170l637 916l-328 838l28 165h1024z" />
    <glyph glyph-name="product" unicode="&#x220f;" horiz-adv-x="1311" vert-adv-y="2457" 
d="M1145 1431h-645l-345 -1954h-185l368 2089h1015l-368 -2089h-185z" />
    <glyph glyph-name="pi" unicode="&#x3c0;" horiz-adv-x="1116" vert-adv-y="2457" 
d="M109 0l151 850h-138l28 133h992l-27 -133h-137l-151 -850h-175l150 850h-367l-151 -850h-175z" />
    <glyph glyph-name="integral" unicode="&#x222b;" vert-adv-y="2457" 
d="M100 -470l46 135q46 -16 83 -16q82 0 118 70q21 43 45 181l221 1235q27 153 51 231q70 228 299 228q70 0 139 -19l-46 -136q-46 15 -83 15q-81 0 -117 -70q-22 -42 -46 -179l-221 -1236q-27 -153 -52 -236q-69 -223 -298 -223q-70 0 -139 20z" />
    <glyph glyph-name="ordfeminine" unicode="&#xaa;" horiz-adv-x="742" vert-adv-y="2457" 
d="M583 1194l1 9q7 39 7 70q0 78 -99 78q-82 0 -180 -39l-3 88q101 34 201 34q227 0 227 -164q0 -47 -17 -145l-53 -297h-127l2 55q-80 -71 -188 -71q-179 0 -179 150q0 151 159 201q76 24 249 31zM572 1124q-108 -6 -156 -25q-89 -34 -89 -136q0 -71 72 -71q43 0 87 30
q57 39 73 129z" />
    <glyph glyph-name="ordmasculine" unicode="&#xba;" horiz-adv-x="744" vert-adv-y="2457" 
d="M526 1434q120 0 184 -65q63 -65 63 -182q0 -156 -81 -261q-87 -114 -247 -114q-124 0 -187 64q-65 65 -65 182q0 164 87 269q88 107 246 107zM527 1354q-92 0 -143 -120q-40 -94 -40 -203q0 -139 99 -139q90 0 141 120q40 94 40 205q0 137 -97 137z" />
    <glyph glyph-name="uni2126" unicode="&#x2126;" horiz-adv-x="1420" vert-adv-y="2457" 
d="M31 0l23 133h332q-105 96 -150 163q-98 145 -98 342q0 267 155 494q211 311 562 311q171 0 294 -78q135 -86 192 -267q34 -109 34 -242q0 -348 -244 -569q-68 -62 -160 -118q-34 -20 -58 -36h331l-23 -133h-515l19 114q159 84 267 207q107 123 153 293q38 139 38 264
q0 183 -75 303q-80 127 -256 127q-174 0 -305 -129t-186 -341q-34 -134 -34 -260q0 -176 100 -321q57 -84 139 -143l-19 -114h-516z" />
    <glyph glyph-name="ae" unicode="&#xe6;" horiz-adv-x="1584" vert-adv-y="2457" 
d="M726 171q-160 -197 -399 -197q-278 0 -278 243q0 152 101 250q110 109 360 129q54 4 197 9l6 32q11 64 11 108q0 67 -35 99q-42 37 -133 37q-114 0 -258 -76l-21 135q150 69 298 69q234 0 293 -147q51 53 95 81q104 66 248 66q160 0 245 -71q80 -67 80 -190
q0 -160 -138 -235q-95 -52 -320 -83q-122 -17 -222 -23q-3 -53 -3 -69q0 -102 45 -160q59 -78 218 -78q147 0 281 69l6 -140q-134 -55 -318 -55q-173 0 -270 73q-56 43 -89 124zM691 488q-200 -4 -290 -32q-169 -53 -169 -224q0 -134 135 -134q131 0 226 107q59 66 78 171z
M874 532q218 15 343 51q97 28 126 78q20 34 20 84q0 139 -158 139q-171 0 -263 -163q-39 -69 -68 -189z" />
    <glyph glyph-name="oslash" unicode="&#xf8;" horiz-adv-x="1081" vert-adv-y="2457" 
d="M136 156q-45 94 -45 217q0 135 49 276q60 173 197 273q119 87 277 87q167 0 268 -97l113 115l76 -73l-125 -127q45 -94 45 -216q0 -125 -44 -259q-62 -190 -206 -294q-118 -84 -271 -84q-165 0 -270 96l-113 -114l-77 73zM283 307l487 490q-53 84 -162 84
q-190 0 -283 -248q-46 -124 -46 -258q0 -31 4 -68zM312 186q54 -84 162 -84q169 0 262 199q67 145 67 295q0 30 -3 81z" />
    <glyph glyph-name="questiondown" unicode="&#xbf;" horiz-adv-x="886" vert-adv-y="2457" 
d="M450 574h146l-20 -113q-17 -93 -40 -138q-28 -55 -126 -144q-152 -139 -195 -210q-53 -88 -53 -171q0 -145 196 -145q111 0 270 69l1 -153q-158 -45 -293 -45q-359 0 -359 273q0 141 103 263q56 66 241 224q58 49 80 92q20 38 34 115zM569 1005q60 0 99 -45
q33 -37 33 -86q0 -55 -42 -94q-37 -35 -92 -35q-59 0 -97 45q-33 38 -33 85q0 55 42 95q37 35 90 35z" />
    <glyph glyph-name="exclamdown" unicode="&#xa1;" horiz-adv-x="653" vert-adv-y="2457" 
d="M411 576l-147 -1035h-209l219 1035h137zM399 1009q57 0 96 -45q33 -38 33 -85q0 -55 -42 -95q-37 -35 -90 -35q-60 0 -99 45q-33 37 -33 86q0 54 43 94q36 35 92 35z" />
    <glyph glyph-name="logicalnot" unicode="&#xac;" vert-adv-y="2457" 
d="M177 642l23 131h829l-98 -559h-159l75 428h-670z" />
    <glyph glyph-name="radical" unicode="&#x221a;" vert-adv-y="2457" 
d="M313 0l-50 622h-165l21 123h292l25 -323q2 -31 8 -143l3 -55l3 -58l26 66l25 63q56 141 69 170l559 1278h513l-21 -126h-375l-720 -1617h-213z" />
    <glyph glyph-name="florin" unicode="&#x192;" vert-adv-y="2457" 
d="M507 649h-193l21 131h194l57 319q29 157 94 233q84 95 240 95q91 0 194 -32l-18 -138q-88 36 -149 36q-100 0 -141 -78q-29 -57 -49 -169l-48 -266h268l-23 -131h-267l-134 -756q-30 -167 -86 -231q-78 -89 -270 -89q-85 0 -170 21l18 132q77 -19 127 -19q109 0 153 63
q35 52 58 184z" />
    <glyph glyph-name="approxequal" unicode="&#x2248;" vert-adv-y="2457" 
d="M334 753l-110 34q36 93 82 154q82 107 210 107q73 0 120 -28q26 -16 75 -60q45 -40 58 -50q26 -19 59 -19q88 0 159 157l111 -33q-37 -94 -79 -151q-84 -111 -218 -111q-81 0 -143 47q-22 18 -86 74q-40 36 -79 36q-86 0 -159 -157zM267 366l-111 34q40 98 82 154
q82 107 213 107q70 0 117 -28q25 -15 75 -60q46 -40 59 -50q25 -19 58 -19q85 0 159 157l111 -33q-36 -92 -79 -151q-83 -111 -216 -111q-82 0 -144 47q-23 17 -86 74q-40 36 -80 36q-85 0 -158 -157z" />
    <glyph glyph-name="Delta" unicode="&#x2206;" vert-adv-y="2457" 
d="M1104 0h-1216l763 1413h190zM902 128l-146 857l-13 78q-20 116 -30 186q-50 -102 -133 -259l-451 -862h773z" />
    <glyph glyph-name="guillemotleft" unicode="&#xab;" horiz-adv-x="817" vert-adv-y="2457" 
d="M602 565l121 -315l-69 -45l-244 361l4 20l370 361l52 -64zM259 565l121 -315l-69 -45l-244 361l3 20l371 361l52 -64z" />
    <glyph glyph-name="guillemotright" unicode="&#xbb;" horiz-adv-x="817" vert-adv-y="2457" 
d="M245 587l-121 315l69 45l244 -361l-4 -20l-370 -361l-52 64zM588 587l-121 315l69 45l244 -361l-4 -20l-370 -361l-52 64z" />
    <glyph glyph-name="ellipsis" unicode="&#x2026;" horiz-adv-x="1593" vert-adv-y="2457" 
d="M205 234q58 0 97 -45q33 -38 33 -85q0 -56 -42 -95q-38 -35 -90 -35q-60 0 -99 45q-33 37 -33 86q0 54 42 94q37 35 92 35zM730 234q59 0 97 -45q33 -38 33 -85q0 -56 -42 -95q-37 -35 -90 -35q-60 0 -99 45q-33 37 -33 86q0 54 42 94q37 35 92 35zM1255 234q59 0 97 -45
q33 -38 33 -85q0 -56 -42 -95q-37 -35 -90 -35q-60 0 -99 45q-33 37 -33 86q0 54 42 94q37 35 92 35z" />
    <glyph glyph-name="glyph172" vert-adv-y="1180" 
 />
    <glyph glyph-name="Agrave" unicode="&#xc0;" horiz-adv-x="1252" vert-adv-y="2457" 
d="M890 421h-565l-228 -421h-191l781 1413h190l281 -1413h-191zM867 554l-75 414q-3 15 -25 161q-11 72 -16 106q-89 -181 -128 -253l-229 -428h473zM750 1550l-188 262h222l94 -262h-128z" />
    <glyph glyph-name="Atilde" unicode="&#xc3;" horiz-adv-x="1252" vert-adv-y="2457" 
d="M890 421h-565l-228 -421h-191l781 1413h190l281 -1413h-191zM867 554l-75 414q-3 15 -25 161q-11 72 -16 106q-89 -181 -128 -253l-229 -428h473zM577 1555h-128q41 113 82 168q70 94 161 94q51 0 97 -27q25 -15 67 -56q52 -51 78 -51q40 0 70 57q12 24 27 67h129
q-29 -105 -68 -163q-68 -103 -183 -103q-64 0 -108 35q-9 7 -53 49q-52 50 -78 50q-43 0 -93 -120z" />
    <glyph glyph-name="Otilde" unicode="&#xd5;" horiz-adv-x="1360" vert-adv-y="2457" 
d="M830 1439q145 0 260 -60q125 -66 181 -208q47 -120 47 -269q0 -179 -55 -368q-84 -284 -258 -426q-163 -134 -392 -134q-230 0 -356 122q-139 135 -139 412q0 188 59 382q169 549 653 549zM830 1305q-269 0 -407 -294q-48 -103 -80 -256q-31 -151 -31 -281
q0 -174 81 -275q73 -91 218 -91q265 0 403 294q48 104 80 261q31 150 31 274q0 157 -67 258q-74 110 -228 110zM659 1555h-128q41 113 82 168q70 94 161 94q51 0 97 -27q25 -15 67 -56q52 -51 78 -51q40 0 70 57q12 24 27 67h129q-29 -105 -68 -163q-68 -103 -183 -103
q-64 0 -108 35q-9 7 -53 49q-52 50 -78 50q-43 0 -93 -120z" />
    <glyph glyph-name="OE" unicode="&#x152;" horiz-adv-x="1780" vert-adv-y="2457" 
d="M1631 0h-827q-169 0 -223 2.5t-107 13.5q-196 41 -279 188q-71 127 -71 314q0 205 67 402q68 201 195 331q120 123 334 152q76 10 282 10h873l-23 -135h-656l-85 -475h497l-22 -132h-497l-96 -536h661zM808 133l203 1145h-98q-136 0 -198 -15q-176 -43 -283 -251
q-53 -103 -86 -265q-28 -139 -28 -258q0 -128 50 -218q58 -105 175 -128q48 -10 167 -10h98z" />
    <glyph glyph-name="oe" unicode="&#x153;" horiz-adv-x="1687" vert-adv-y="2457" 
d="M833 171q-48 -61 -94 -100q-113 -97 -273 -97q-179 0 -279 107q-97 104 -97 286q0 140 49 282q59 173 197 273q119 87 275 87q238 0 316 -205q52 72 101 111q115 94 288 94q157 0 243 -71q80 -66 80 -190q0 -160 -138 -235q-95 -52 -320 -83q-122 -17 -222 -23
q-3 -50 -3 -69q0 -102 44 -160q60 -78 219 -78q147 0 281 69l6 -140q-132 -55 -317 -55q-170 0 -262 68q-56 42 -94 129zM610 881q-173 0 -266 -201q-69 -148 -69 -319q0 -259 198 -259q171 0 264 203q68 150 68 317q0 259 -195 259zM977 532q217 15 343 51q97 28 126 78
q20 34 20 84q0 139 -158 139q-171 0 -263 -163q-39 -69 -68 -189z" />
    <glyph glyph-name="endash" unicode="&#x2013;" horiz-adv-x="1149" vert-adv-y="2457" 
d="M147 572l26 149h885l-26 -149h-885z" />
    <glyph glyph-name="emdash" unicode="&#x2014;" horiz-adv-x="1024" vert-adv-y="2457" 
d="M-98 572l26 149h1250l-26 -149h-1250z" />
    <glyph glyph-name="quotedblleft" unicode="&#x201c;" horiz-adv-x="651" vert-adv-y="2457" 
d="M486 1486l-188 -488h-185l245 488h128zM780 1486l-187 -488h-185l245 488h127z" />
    <glyph glyph-name="quotedblright" unicode="&#x201d;" horiz-adv-x="651" vert-adv-y="2457" 
d="M136 998l188 488h185l-245 -488h-128zM431 998l187 488h185l-245 -488h-127z" />
    <glyph glyph-name="quoteleft" unicode="&#x2018;" horiz-adv-x="346" vert-adv-y="2457" 
d="M481 1486l-188 -488h-185l245 488h128z" />
    <glyph glyph-name="quoteright" unicode="&#x2019;" horiz-adv-x="346" vert-adv-y="2457" 
d="M131 998l188 488h185l-245 -488h-128z" />
    <glyph glyph-name="divide" unicode="&#xf7;" vert-adv-y="2457" 
d="M690 1161q51 0 87 -41q30 -35 30 -77q0 -49 -39 -86q-33 -32 -80 -32q-55 0 -91 41q-30 35 -30 78q0 47 39 85q34 32 84 32zM573 493q51 0 87 -41q30 -35 30 -77q0 -49 -39 -86q-33 -32 -81 -32q-54 0 -90 41q-30 35 -30 78q0 48 39 85q34 32 84 32zM136 637l24 140h960
l-24 -140h-960z" />
    <glyph glyph-name="lozenge" unicode="&#x25ca;" vert-adv-y="2457" 
d="M97 707l530 774l531 -774l-531 -775zM295 707l332 -500l333 500l-333 500z" />
    <glyph glyph-name="ydieresis" unicode="&#xff;" horiz-adv-x="917" vert-adv-y="2457" 
d="M291 0l-178 983h178l75 -498q5 -38 23 -168l11 -75l14 -103q70 155 82 182q49 112 71 158l231 504h175l-489 -1005q-121 -250 -178 -317q-114 -136 -292 -136q-64 0 -130 12l42 131q49 -17 102 -17q83 0 143 60q72 71 149 223l33 66h-62zM383 1384q48 0 80 -33
q33 -32 33 -79q0 -45 -33 -78q-32 -33 -80 -33q-47 0 -80 33t-33 80q0 45 33 77q33 33 80 33zM728 1384q47 0 80 -33q33 -32 33 -79q0 -45 -33 -78q-32 -33 -80 -33t-81 33q-32 33 -32 80q0 46 32 77q34 33 81 33z" />
    <glyph glyph-name="Ydieresis" unicode="&#x178;" horiz-adv-x="1044" vert-adv-y="2457" 
d="M343 0l93 530l-289 883h192l145 -461q7 -22 41 -140q20 -69 32 -110q31 48 79 122q57 90 88 135l309 454h191l-603 -883l-94 -530h-184zM527 1791q47 0 80 -33q33 -32 33 -79q0 -45 -33 -78q-32 -33 -80 -33q-47 0 -80 33t-33 80q0 45 33 77q34 33 80 33zM893 1791
q47 0 80 -33q33 -32 33 -79q0 -46 -33 -78q-33 -33 -80 -33q-48 0 -80 33q-33 33 -33 80q0 45 33 77q33 33 80 33z" />
    <glyph glyph-name="fraction" unicode="&#x2044;" horiz-adv-x="287" vert-adv-y="2457" 
d="M-350 0l923 1413h139l-922 -1413h-140z" />
    <glyph glyph-name="currency" unicode="&#xa4;" vert-adv-y="2457" 
d="M182 132l-93 88l170 184q-31 46 -42 65q-49 93 -49 205t49 204q11 18 42 65l-170 184l93 88l169 -186q116 78 246 78q131 0 246 -78l169 186l93 -88l-170 -184q32 -48 41 -65q49 -92 49 -204q0 -113 -49 -205q-9 -16 -41 -65l170 -184l-93 -88l-169 186
q-115 -78 -246 -78t-246 78zM600 1007q-118 0 -188 -102q-63 -91 -63 -233q0 -139 63 -230q70 -102 184 -102q115 0 185 102q63 91 63 232q0 142 -63 231q-72 102 -181 102z" />
    <glyph glyph-name="currency" unicode="&#x20ac;" vert-adv-y="2457" 
d="M182 132l-93 88l170 184q-31 46 -42 65q-49 93 -49 205t49 204q11 18 42 65l-170 184l93 88l169 -186q116 78 246 78q131 0 246 -78l169 186l93 -88l-170 -184q32 -48 41 -65q49 -92 49 -204q0 -113 -49 -205q-9 -16 -41 -65l170 -184l-93 -88l-169 186
q-115 -78 -246 -78t-246 78zM600 1007q-118 0 -188 -102q-63 -91 -63 -233q0 -139 63 -230q70 -102 184 -102q115 0 185 102q63 91 63 232q0 142 -63 231q-72 102 -181 102z" />
    <glyph glyph-name="guilsinglleft" unicode="&#x2039;" horiz-adv-x="463" vert-adv-y="2457" 
d="M254 565l121 -315l-69 -45l-244 361l3 20l371 361l52 -64z" />
    <glyph glyph-name="guilsinglright" unicode="&#x203a;" horiz-adv-x="463" vert-adv-y="2457" 
d="M240 587l-121 315l69 45l244 -361l-4 -20l-370 -361l-52 64z" />
    <glyph glyph-name="daggerdbl" unicode="&#x2021;" horiz-adv-x="1094" vert-adv-y="2457" 
d="M512 806h-326l24 140h326l83 467h180l-83 -467h327l-24 -140h-327l-96 -538h327l-24 -140h-327l-94 -535h-180l94 535h-326l24 140h326z" />
    <glyph glyph-name="periodcentered" unicode="&#xb7;" horiz-adv-x="525" vert-adv-y="2457" 
d="M293 781q58 0 97 -45q33 -38 33 -85q0 -56 -42 -95q-38 -35 -90 -35q-60 0 -99 45q-33 37 -33 86q0 54 42 94q37 35 92 35z" />
    <glyph glyph-name="quotesinglbase" unicode="&#x201a;" horiz-adv-x="346" vert-adv-y="2457" 
d="M-133 -264l188 488h185l-245 -488h-128z" />
    <glyph glyph-name="quotedblbase" unicode="&#x201e;" horiz-adv-x="651" vert-adv-y="2457" 
d="M-128 -264l188 488h185l-245 -488h-128zM167 -264l187 488h185l-245 -488h-127z" />
    <glyph glyph-name="perthousand" unicode="&#x2030;" horiz-adv-x="2403" vert-adv-y="2457" 
d="M585 1442q132 0 201 -80q62 -73 62 -190q0 -96 -28 -195q-41 -142 -137 -216q-82 -63 -202 -63q-131 0 -200 74q-68 72 -68 197q0 102 33 207q83 266 339 266zM582 1346q-103 0 -158 -138q-50 -124 -50 -262q0 -152 108 -152q101 0 156 137q50 126 50 264q0 151 -106 151
zM439 0l758 1413h150l-758 -1413h-150zM1298 715q132 0 201 -80q62 -73 62 -189q0 -97 -28 -196q-41 -142 -137 -216q-82 -63 -203 -63q-131 0 -200 74q-68 72 -68 197q0 103 33 207q83 266 340 266zM1294 619q-103 0 -158 -137q-50 -125 -50 -263q0 -152 109 -152
q101 0 156 137q50 125 50 264q0 151 -107 151zM2003 715q132 0 201 -80q62 -73 62 -188q0 -98 -28 -197q-40 -142 -137 -215q-82 -64 -202 -64q-131 0 -200 74q-68 72 -68 197q0 103 33 207q83 266 339 266zM1999 619q-102 0 -157 -137q-50 -125 -50 -263q0 -152 108 -152
q101 0 156 137q50 126 50 264q0 151 -107 151z" />
    <glyph glyph-name="Acircumflex" unicode="&#xc2;" horiz-adv-x="1252" vert-adv-y="2457" 
d="M890 421h-565l-228 -421h-191l781 1413h190l281 -1413h-191zM867 554l-75 414q-3 15 -25 161q-11 72 -16 106q-89 -181 -128 -253l-229 -428h473zM812 1710l-197 -160h-152l253 262h216l162 -262h-141z" />
    <glyph glyph-name="Ecircumflex" unicode="&#xca;" horiz-adv-x="1096" vert-adv-y="2457" 
d="M101 0l249 1413h841l-23 -135h-656l-85 -475h499l-23 -132h-498l-96 -536h661l-23 -135h-846zM796 1710l-197 -160h-152l253 262h216l162 -262h-141z" />
    <glyph glyph-name="Aacute" unicode="&#xc1;" horiz-adv-x="1252" vert-adv-y="2457" 
d="M890 421h-565l-228 -421h-191l781 1413h190l281 -1413h-191zM867 554l-75 414q-3 15 -25 161q-11 72 -16 106q-89 -181 -128 -253l-229 -428h473zM714 1550l185 262h232l-279 -262h-138z" />
    <glyph glyph-name="Edieresis" unicode="&#xcb;" horiz-adv-x="1096" vert-adv-y="2457" 
d="M101 0l249 1413h841l-23 -135h-656l-85 -475h499l-23 -132h-498l-96 -536h661l-23 -135h-846zM616 1791q48 0 81 -33q32 -32 32 -79q0 -46 -32 -78q-33 -33 -81 -33q-47 0 -80 33t-33 80q0 45 33 77q34 33 80 33zM983 1791q47 0 80 -33q33 -32 33 -79q0 -46 -33 -78
q-32 -33 -80 -33t-81 33q-32 32 -32 80q0 45 32 77q34 33 81 33z" />
    <glyph glyph-name="Egrave" unicode="&#xc8;" horiz-adv-x="1096" vert-adv-y="2457" 
d="M101 0l249 1413h841l-23 -135h-656l-85 -475h499l-23 -132h-498l-96 -536h661l-23 -135h-846zM775 1550l-188 262h222l94 -262h-128z" />
    <glyph glyph-name="Iacute" unicode="&#xcd;" horiz-adv-x="569" vert-adv-y="2457" 
d="M105 0l249 1413h185l-249 -1413h-185zM379 1550l185 262h232l-279 -262h-138z" />
    <glyph glyph-name="Icircumflex" unicode="&#xce;" horiz-adv-x="569" vert-adv-y="2457" 
d="M105 0l249 1413h185l-249 -1413h-185zM489 1710l-197 -160h-152l253 262h216l162 -262h-141z" />
    <glyph glyph-name="Idieresis" unicode="&#xcf;" horiz-adv-x="569" vert-adv-y="2457" 
d="M105 0l249 1413h185l-249 -1413h-185zM301 1791q47 0 80 -33q33 -32 33 -79q0 -45 -33 -78q-32 -33 -80 -33q-47 0 -80 33q-33 32 -33 80q0 45 33 77q33 33 80 33zM667 1791q47 0 80 -33q33 -32 33 -79q0 -46 -33 -78q-33 -33 -80 -33q-48 0 -80 33q-33 33 -33 80
q0 45 33 77q33 33 80 33z" />
    <glyph glyph-name="Igrave" unicode="&#xcc;" horiz-adv-x="569" vert-adv-y="2457" 
d="M105 0l249 1413h185l-249 -1413h-185zM423 1550l-188 262h222l94 -262h-128z" />
    <glyph glyph-name="Oacute" unicode="&#xd3;" horiz-adv-x="1360" vert-adv-y="2457" 
d="M830 1439q145 0 260 -60q125 -66 181 -208q47 -120 47 -269q0 -179 -55 -368q-84 -284 -258 -426q-163 -134 -392 -134q-230 0 -356 122q-139 135 -139 412q0 188 59 382q169 549 653 549zM830 1305q-269 0 -407 -294q-48 -103 -80 -256q-31 -151 -31 -281
q0 -174 81 -275q73 -91 218 -91q265 0 403 294q48 104 80 261q31 150 31 274q0 157 -67 258q-74 110 -228 110zM780 1550l185 262h232l-279 -262h-138z" />
    <glyph glyph-name="Ocircumflex" unicode="&#xd4;" horiz-adv-x="1360" vert-adv-y="2457" 
d="M830 1439q145 0 260 -60q125 -66 181 -208q47 -120 47 -269q0 -179 -55 -368q-84 -284 -258 -426q-163 -134 -392 -134q-230 0 -356 122q-139 135 -139 412q0 188 59 382q169 549 653 549zM830 1305q-269 0 -407 -294q-48 -103 -80 -256q-31 -151 -31 -281
q0 -174 81 -275q73 -91 218 -91q265 0 403 294q48 104 80 261q31 150 31 274q0 157 -67 258q-74 110 -228 110zM882 1710l-197 -160h-152l253 262h216l162 -262h-141z" />
    <glyph glyph-name="glyph210" horiz-adv-x="1709" vert-adv-y="2457" 
 />
    <glyph glyph-name="Ograve" unicode="&#xd2;" horiz-adv-x="1360" vert-adv-y="2457" 
d="M830 1439q145 0 260 -60q125 -66 181 -208q47 -120 47 -269q0 -179 -55 -368q-84 -284 -258 -426q-163 -134 -392 -134q-230 0 -356 122q-139 135 -139 412q0 188 59 382q169 549 653 549zM830 1305q-269 0 -407 -294q-48 -103 -80 -256q-31 -151 -31 -281
q0 -174 81 -275q73 -91 218 -91q265 0 403 294q48 104 80 261q31 150 31 274q0 157 -67 258q-74 110 -228 110zM856 1550l-188 262h222l94 -262h-128z" />
    <glyph glyph-name="Uacute" unicode="&#xda;" horiz-adv-x="1279" vert-adv-y="2457" 
d="M341 1413h185l-154 -870q-29 -165 -29 -236q0 -199 243 -199q196 0 276 134q43 72 78 268l159 903h164l-167 -955q-23 -126 -37 -170q-53 -168 -177 -241t-304 -73q-216 0 -326 102q-89 83 -89 229q0 102 33 286zM717 1550l185 262h232l-279 -262h-138z" />
    <glyph glyph-name="Ucircumflex" unicode="&#xdb;" horiz-adv-x="1279" vert-adv-y="2457" 
d="M341 1413h185l-154 -870q-29 -165 -29 -236q0 -199 243 -199q196 0 276 134q43 72 78 268l159 903h164l-167 -955q-23 -126 -37 -170q-53 -168 -177 -241t-304 -73q-216 0 -326 102q-89 83 -89 229q0 102 33 286zM845 1710l-197 -160h-152l253 262h216l162 -262h-141z
" />
    <glyph glyph-name="Ugrave" unicode="&#xd9;" horiz-adv-x="1279" vert-adv-y="2457" 
d="M341 1413h185l-154 -870q-29 -165 -29 -236q0 -199 243 -199q196 0 276 134q43 72 78 268l159 903h164l-167 -955q-23 -126 -37 -170q-53 -168 -177 -241t-304 -73q-216 0 -326 102q-89 83 -89 229q0 102 33 286zM801 1550l-188 262h222l94 -262h-128z" />
    <glyph glyph-name="dotlessi" unicode="&#x131;" horiz-adv-x="525" vert-adv-y="2457" 
d="M88 0l173 983h176l-174 -983h-175z" />
    <glyph glyph-name="circumflex" unicode="&#x2c6;" horiz-adv-x="1024" vert-adv-y="2457" 
d="M655 1306l-197 -160h-152l253 262h216l162 -262h-141z" />
    <glyph glyph-name="tilde" unicode="&#x2dc;" horiz-adv-x="1024" vert-adv-y="2457" 
d="M423 1150h-128q42 114 82 168q70 94 162 94q79 0 163 -83q52 -51 79 -51q40 0 69 57q11 23 27 67h129q-29 -104 -68 -163q-68 -103 -182 -103q-65 0 -109 34q-9 8 -53 49q-52 50 -78 50q-43 0 -93 -119z" />
    <glyph glyph-name="macron" unicode="&#xaf;" horiz-adv-x="1024" vert-adv-y="2457" 
d="M362 1214l21 120h556l-21 -120h-556z" />
    <glyph glyph-name="breve" unicode="&#x2d8;" horiz-adv-x="1024" vert-adv-y="2457" 
d="M371 1415h141q-1 -21 -1 -31q0 -119 138 -119q102 0 149 62q23 30 39 88h146q-52 -281 -344 -281q-157 0 -226 78q-47 53 -47 140q0 23 5 63z" />
    <glyph glyph-name="dotaccent" unicode="&#x2d9;" horiz-adv-x="1024" vert-adv-y="2457" 
d="M650 1392q51 0 86 -35q34 -35 34 -84t-34 -84q-35 -35 -86 -35t-86 35t-35 86q0 48 35 82q36 35 86 35z" />
    <glyph glyph-name="ring" unicode="&#x2da;" horiz-adv-x="1024" vert-adv-y="2457" 
d="M660 1510q96 0 153 -58q52 -54 52 -135q0 -80 -52 -133q-57 -58 -156 -58t-155 58q-53 53 -53 133q0 82 52 135q59 58 159 58zM658 1445q-47 0 -73 -40q-22 -33 -22 -87t22 -87q27 -40 72 -40t72 40q22 33 22 87q0 55 -22 87q-27 40 -71 40z" />
    <glyph glyph-name="cedilla" unicode="&#xb8;" horiz-adv-x="1024" vert-adv-y="2457" 
d="M408 3h102l-107 -132q83 -7 119 -23q86 -37 86 -139q0 -109 -76 -170q-69 -56 -196 -56q-105 0 -196 25l35 94q78 -30 140 -30q69 0 101 44q27 36 27 91q0 89 -109 89q-25 0 -61 -4l-7 30z" />
    <glyph glyph-name="hungarumlaut" unicode="&#x2dd;" horiz-adv-x="1024" vert-adv-y="2457" 
d="M403 1146l162 262h217l-247 -262h-132zM702 1146l162 262h217l-247 -262h-132z" />
    <glyph glyph-name="ogonek" unicode="&#x2db;" horiz-adv-x="1024" vert-adv-y="2457" 
d="M495 0h141q-135 -85 -187 -132q-98 -89 -98 -206q0 -93 113 -93q68 0 137 29v-87q-85 -31 -180 -31q-236 0 -236 173q0 213 310 347z" />
    <glyph glyph-name="caron" unicode="&#x2c7;" horiz-adv-x="1024" vert-adv-y="2457" 
d="M645 1248l197 160h153l-253 -262h-216l-162 262h140z" />
    <glyph glyph-name="Lslash" unicode="&#x141;" horiz-adv-x="1030" vert-adv-y="2457" 
d="M117 0l77 436l-187 -120l26 150l187 118l146 829h185l-125 -703l468 294l-27 -158l-467 -286l-75 -425h628l-23 -135h-813z" />
    <glyph glyph-name="lslash" unicode="&#x142;" horiz-adv-x="569" vert-adv-y="2457" 
d="M111 0l108 614l-196 -124l25 144l196 123l81 455q17 92 33 238l190 39l-108 -611l200 125l-24 -143l-200 -125l-130 -735h-175z" />
    <glyph glyph-name="Scaron" unicode="&#x160;" horiz-adv-x="1015" vert-adv-y="2457" 
d="M-26 59l60 155q163 -106 356 -106q164 0 254 70q93 74 93 211q0 85 -47 139q-33 37 -76 63q-36 22 -103 58q-151 83 -227 152q-98 89 -98 233q0 187 124 297q122 108 343 108q172 0 346 -61l-72 -150q-135 77 -264 77q-140 0 -216 -66t-76 -176q0 -83 60 -139
q42 -40 181 -117q161 -90 227 -158q83 -86 83 -233q0 -209 -135 -326q-134 -116 -392 -116q-240 0 -421 85zM726 1652l197 160h153l-253 -262h-216l-162 262h140z" />
    <glyph glyph-name="scaron" unicode="&#x161;" horiz-adv-x="831" vert-adv-y="2457" 
d="M0 28l55 144q112 -70 257 -70q122 0 180 54q51 47 51 119q0 53 -39 92q-31 31 -134 87q-116 62 -166 112q-63 62 -63 157q0 130 95 211q88 75 259 75q145 0 272 -52l-69 -139q-84 63 -196 63q-90 0 -140 -40q-48 -38 -48 -95q0 -55 50 -95q36 -30 126 -79
q122 -67 164 -110q62 -63 62 -156q0 -148 -97 -241q-96 -91 -300 -91q-182 0 -319 54zM530 1248l197 160h153l-253 -262h-216l-162 262h140z" />
    <glyph glyph-name="Zcaron" unicode="&#x17d;" horiz-adv-x="1052" vert-adv-y="2457" 
d="M-40 0l19 112l933 1166h-667l23 135h878l-8 -110l-936 -1168h747l-23 -135h-966zM746 1652l197 160h153l-253 -262h-216l-162 262h140z" />
    <glyph glyph-name="zcaron" unicode="&#x17e;" horiz-adv-x="882" vert-adv-y="2457" 
d="M-33 0l12 109l664 742h-484l22 132h685l-8 -109l-664 -742h546l-22 -132h-751zM571 1248l197 160h153l-253 -262h-216l-162 262h140z" />
    <glyph glyph-name="brokenbar" unicode="&#xa6;" vert-adv-y="2457" 
d="M576 880l93 533h160l-94 -533h-159zM420 0l88 499h159l-88 -499h-159z" />
    <glyph glyph-name="Eth" unicode="&#xd0;" horiz-adv-x="1289" vert-adv-y="2457" 
d="M220 673h-141l25 126h138l108 614h331q266 0 398 -109q163 -134 163 -437q0 -251 -107 -476q-105 -222 -304 -321q-143 -70 -357 -70h-373zM405 673l-96 -538h151q270 0 414 178q86 106 136 285q38 139 38 273q0 249 -120 340q-67 51 -180 62q-44 5 -128 5h-108l-85 -479
h378l-26 -126h-374z" />
    <glyph glyph-name="eth" unicode="&#xf0;" horiz-adv-x="1080" vert-adv-y="2457" 
d="M795 940q-40 160 -112 253l-207 -118l-45 81l182 103q-95 57 -200 72l37 109q191 -24 300 -98l183 105l45 -82l-154 -87q169 -191 169 -586q0 -324 -133 -511q-147 -207 -392 -207q-175 0 -275 104q-103 106 -103 289q0 128 43 260q60 184 202 287q117 86 263 86
q119 0 197 -60zM613 870q-174 0 -269 -199q-69 -144 -69 -308q0 -261 198 -261q172 0 266 200q69 146 69 308q0 260 -195 260z" />
    <glyph glyph-name="Yacute" unicode="&#xdd;" horiz-adv-x="1044" vert-adv-y="2457" 
d="M343 0l93 530l-289 883h192l145 -461q7 -22 41 -140q20 -69 32 -110q31 48 79 122q57 90 88 135l309 454h191l-603 -883l-94 -530h-184zM612 1550l185 262h232l-279 -262h-138z" />
    <glyph glyph-name="yacute" unicode="&#xfd;" horiz-adv-x="917" vert-adv-y="2457" 
d="M291 0l-178 983h178l75 -498q5 -38 23 -168l11 -75l14 -103q70 155 82 182q49 112 71 158l231 504h175l-489 -1005q-121 -250 -178 -317q-114 -136 -292 -136q-64 0 -130 12l42 131q49 -17 102 -17q83 0 143 60q72 71 149 223l33 66h-62zM479 1146l185 262h232l-279 -262
h-138z" />
    <glyph glyph-name="Thorn" unicode="&#xde;" horiz-adv-x="1157" vert-adv-y="2457" 
d="M343 322l-57 -322h-185l249 1413h185l-41 -231h198q219 0 320 -79q53 -42 82 -115q31 -77 31 -165q0 -123 -54 -245q-115 -256 -486 -256h-242zM365 455h165q151 0 225 33q88 39 134 138q44 93 44 199q0 135 -75 184q-62 40 -203 40h-184z" />
    <glyph glyph-name="thorn" unicode="&#xfe;" horiz-adv-x="1085" vert-adv-y="2457" 
d="M265 15l-84 -474h-175l284 1609q20 111 42 300l193 39l-106 -596q123 116 274 116q305 0 305 -367q0 -155 -50 -300q-63 -185 -191 -280q-118 -88 -278 -88q-109 0 -214 41zM290 163q36 -26 57 -36q51 -25 119 -25q177 0 274 202q73 154 73 340q0 237 -163 237
q-114 0 -208 -117q-57 -71 -76 -178z" />
    <glyph glyph-name="minus" unicode="&#x2212;" vert-adv-y="2457" 
d="M136 637l24 140h960l-24 -140h-960z" />
    <glyph glyph-name="multiply" unicode="&#xd7;" vert-adv-y="2457" 
d="M530 708l-324 313l102 103l324 -313l323 312l102 -104l-323 -311l324 -313l-102 -103l-324 313l-323 -312l-101 104z" />
    <glyph glyph-name="onesuperior" unicode="&#xb9;" horiz-adv-x="512" vert-adv-y="2457" 
d="M261 770l129 731l-189 -46l17 102l230 61h112l-149 -848h-150z" />
    <glyph glyph-name="twosuperior" unicode="&#xb2;" horiz-adv-x="738" vert-adv-y="2457" 
d="M120 770l17 94l298 296q89 89 131 150q43 63 43 125q0 48 -31 74q-29 24 -79 24q-56 0 -117 -23q-27 -10 -89 -37l-10 113q117 46 229 46t178 -46q72 -50 72 -144q0 -97 -60 -180q-55 -76 -158 -175l-228 -218h373l-17 -99h-552z" />
    <glyph glyph-name="threesuperior" unicode="&#xb3;" horiz-adv-x="736" vert-adv-y="2457" 
d="M131 803l51 115q116 -65 207 -65q121 0 170 82q32 54 32 124q0 111 -165 111q-31 0 -115 -9l19 110q58 -4 93 -4q86 0 143 43q66 50 66 126q0 97 -126 97q-71 0 -199 -57l-13 109q122 48 233 48q256 0 256 -188q0 -149 -160 -211q51 -19 76 -42q50 -47 50 -135
q0 -129 -84 -213q-89 -91 -274 -91q-154 0 -260 50z" />
    <glyph glyph-name="onehalf" unicode="&#xbd;" horiz-adv-x="1779" vert-adv-y="2457" 
d="M349 565l129 731l-189 -46l17 102l231 61h112l-150 -848h-150zM334 0l922 1413h140l-923 -1413h-139zM994 0l16 94l299 296q86 86 130 150q43 62 43 125q0 98 -110 98q-70 0 -205 -60l-10 113q116 46 229 46q111 0 178 -46q71 -50 71 -144q0 -96 -60 -180
q-56 -78 -157 -175l-228 -218h373l-17 -99h-552z" />
    <glyph glyph-name="onequarter" unicode="&#xbc;" horiz-adv-x="1779" vert-adv-y="2457" 
d="M349 565l129 731l-189 -46l17 102l231 61h112l-150 -848h-150zM334 0l922 1413h140l-923 -1413h-139zM1395 208h-397l17 93l367 547h152l-363 -541h241l50 279h142l-49 -279h119l-17 -99h-120l-36 -208h-143z" />
    <glyph glyph-name="threequarters" unicode="&#xbe;" horiz-adv-x="1779" vert-adv-y="2457" 
d="M100 598l51 115q117 -65 207 -65q121 0 169 82q32 53 32 125q0 110 -165 110q-24 0 -114 -8l19 109q55 -4 93 -4q86 0 142 43q66 50 66 126q0 97 -125 97q-69 0 -199 -56l-13 108q122 48 233 48q110 0 177 -39q79 -47 79 -148q0 -150 -160 -212q51 -18 76 -42
q50 -47 50 -135q0 -128 -84 -213q-89 -91 -274 -91q-152 0 -260 50zM398 0l923 1413h140l-923 -1413h-140zM1407 208h-397l16 93l368 547h151l-362 -541h241l50 279h142l-50 -279h120l-17 -99h-120l-37 -208h-142z" />
    <glyph glyph-name="glyph247" horiz-adv-x="1709" vert-adv-y="2457" 
 />
    <glyph glyph-name="Gbreve" unicode="&#x11e;" horiz-adv-x="1275" vert-adv-y="2457" 
d="M705 656l22 128h459l-131 -739q-163 -71 -388 -71q-269 0 -404 120q-72 65 -108 170q-36 108 -36 228q0 253 102 501q99 238 294 354q152 92 361 92q178 0 369 -66l-72 -150q-149 82 -295 82q-181 0 -297 -97q-146 -122 -217 -376q-51 -180 -51 -352q0 -204 102 -297
q82 -76 252 -76q108 0 222 43l90 506h-274zM586 1819h141q-1 -20 -1 -31q0 -118 138 -118q102 0 150 62q22 29 38 87h146q-53 -280 -344 -280q-157 0 -226 78q-47 53 -47 140q0 23 5 62z" />
    <glyph glyph-name="gbreve" unicode="&#x11f;" horiz-adv-x="1060" vert-adv-y="2457" 
d="M657 103q-47 -47 -83 -71q-86 -58 -190 -58q-145 0 -226 86q-82 86 -82 261q0 170 64 333q69 178 194 269q116 86 297 86q177 0 364 -61q-42 -158 -77 -354l-70 -399q-51 -294 -105 -414q-114 -257 -440 -257q-162 0 -281 40l38 146q123 -60 256 -60q173 0 249 136
q53 95 83 264zM787 840q-75 41 -166 41q-184 0 -281 -211q-36 -78 -59 -189q-20 -97 -20 -176q0 -203 154 -203q123 0 217 117q40 50 59 107q9 28 19 87zM398 1415h141q-1 -21 -1 -31q0 -119 138 -119q102 0 149 62q23 30 39 88h146q-52 -281 -344 -281q-157 0 -226 78
q-47 53 -47 140q0 23 5 63z" />
    <glyph glyph-name="glyph250" horiz-adv-x="1709" vert-adv-y="2457" 
 />
    <glyph glyph-name="Scedilla" unicode="&#x15e;" horiz-adv-x="1015" vert-adv-y="2457" 
d="M-26 58l60 156q163 -106 356 -106q164 0 254 70q93 74 93 211q0 85 -47 139q-33 37 -76 63q-36 22 -103 58q-151 83 -227 152q-98 89 -98 233q0 187 124 297q122 108 343 108q172 0 346 -61l-72 -150q-135 77 -264 77q-140 0 -216 -66t-76 -176q0 -83 60 -139
q42 -40 181 -117q161 -90 227 -158q83 -86 83 -233q0 -151 -77 -261q-112 -160 -403 -180l-85 -104q83 -7 118 -23q87 -37 87 -139q0 -109 -76 -170q-69 -56 -196 -56q-105 0 -196 25l35 94q78 -30 140 -30q69 0 101 44q27 36 27 91q0 89 -109 89q-26 0 -61 -4l-7 30
l121 153q-211 12 -367 83z" />
    <glyph glyph-name="scedilla" unicode="&#x15f;" horiz-adv-x="831" vert-adv-y="2457" 
d="M0 28l55 143q113 -69 257 -69q122 0 180 54q51 47 51 119q0 53 -39 92q-31 31 -134 87q-116 62 -166 112q-63 62 -63 157q0 130 95 211q88 75 259 75q145 0 272 -52l-69 -139q-84 63 -196 63q-90 0 -140 -40q-48 -38 -48 -95q0 -54 50 -95q37 -30 126 -79
q122 -67 164 -110q62 -63 62 -156q0 -102 -51 -184q-65 -104 -198 -133q-43 -9 -102 -13l-85 -105q84 -7 119 -23q87 -37 87 -139q0 -109 -76 -170q-69 -56 -196 -56q-106 0 -197 25l35 94q78 -30 141 -30q69 0 101 44q27 36 27 91q0 89 -110 89q-26 0 -60 -4l-8 30l121 154
q-152 8 -264 52z" />
    <glyph glyph-name="Cacute" unicode="&#x106;" horiz-adv-x="1059" vert-adv-y="2457" 
d="M953 180l3 -155q-170 -51 -345 -51q-493 0 -493 506q0 253 96 497q182 462 606 462q168 0 335 -64l-63 -154q-132 84 -264 84q-248 0 -393 -287q-59 -116 -93 -277q-30 -140 -30 -262q0 -371 312 -371q158 0 329 72zM709 1550l185 262h232l-279 -262h-138z" />
    <glyph glyph-name="cacute" unicode="&#x107;" horiz-adv-x="830" vert-adv-y="2457" 
d="M704 152l4 -142q-102 -36 -243 -36q-186 0 -278 88q-101 96 -101 278q0 139 46 284q70 216 217 315q106 70 253 70q151 0 256 -55l-68 -140q-72 67 -175 67q-164 0 -263 -187q-40 -76 -63 -182q-18 -88 -18 -167q0 -243 221 -243q98 0 212 50zM517 1146l185 262h232
l-279 -262h-138z" />
    <glyph glyph-name="Ccaron" unicode="&#x10c;" horiz-adv-x="1059" vert-adv-y="2457" 
d="M953 180l3 -155q-170 -51 -345 -51q-493 0 -493 506q0 253 96 497q182 462 606 462q168 0 335 -64l-63 -154q-132 84 -264 84q-248 0 -393 -287q-59 -116 -93 -277q-30 -140 -30 -262q0 -371 312 -371q158 0 329 72zM832 1652l197 160h153l-253 -262h-216l-162 262h140z
" />
    <glyph glyph-name="ccaron" unicode="&#x10d;" horiz-adv-x="830" vert-adv-y="2457" 
d="M704 152l4 -142q-102 -36 -243 -36q-186 0 -278 88q-101 96 -101 278q0 139 46 284q70 216 217 315q106 70 253 70q151 0 256 -55l-68 -140q-72 67 -175 67q-164 0 -263 -187q-40 -76 -63 -182q-18 -88 -18 -167q0 -243 221 -243q98 0 212 50zM614 1248l197 160h153
l-253 -262h-216l-162 262h140z" />
    <glyph glyph-name="glyph257" horiz-adv-x="1709" vert-adv-y="2457" 
 />
    <glyph glyph-name="uni00A0" unicode="&#xa0;" horiz-adv-x="492" vert-adv-y="2457" 
 />
    <glyph glyph-name="uni00AD" unicode="&#xad;" horiz-adv-x="799" vert-adv-y="2457" 
d="M141 572l26 149h545l-26 -149h-545z" />
    <glyph glyph-name="Amacron" unicode="&#x100;" horiz-adv-x="1252" vert-adv-y="2457" 
d="M890 421h-565l-228 -421h-191l781 1413h190l281 -1413h-191zM867 554l-75 414q-3 15 -25 161q-11 72 -16 106q-89 -181 -128 -253l-229 -428h473zM510 1623l21 120h556l-21 -120h-556z" />
    <glyph glyph-name="amacron" unicode="&#x101;" horiz-adv-x="1073" vert-adv-y="2457" 
d="M679 132q-131 -158 -294 -158q-145 0 -226 86q-82 86 -82 261q0 170 63 333q139 355 492 355q176 0 363 -61q-42 -159 -77 -354l-59 -331q-26 -150 -29 -263h-157q0 43 6 132zM787 840q-74 41 -165 41q-184 0 -281 -211q-36 -79 -59 -189q-20 -96 -20 -175
q0 -204 153 -204q124 0 217 117q40 50 58 107q10 28 20 87zM384 1214l21 120h556l-21 -120h-556z" />
    <glyph glyph-name="Abreve" unicode="&#x102;" horiz-adv-x="1252" vert-adv-y="2457" 
d="M890 421h-565l-228 -421h-191l781 1413h190l281 -1413h-191zM867 554l-75 414q-3 15 -25 161q-11 72 -16 106q-89 -181 -128 -253l-229 -428h473zM524 1819h141q-1 -20 -1 -31q0 -118 138 -118q102 0 150 62q22 29 38 87h146q-53 -280 -344 -280q-157 0 -226 78
q-47 53 -47 140q0 23 5 62z" />
    <glyph glyph-name="abreve" unicode="&#x103;" horiz-adv-x="1073" vert-adv-y="2457" 
d="M679 132q-131 -158 -294 -158q-145 0 -226 86q-82 86 -82 261q0 170 63 333q139 355 492 355q176 0 363 -61q-42 -159 -77 -354l-59 -331q-26 -150 -29 -263h-157q0 43 6 132zM787 840q-74 41 -165 41q-184 0 -281 -211q-36 -79 -59 -189q-20 -96 -20 -175
q0 -204 153 -204q124 0 217 117q40 50 58 107q10 28 20 87zM395 1415h141q-1 -21 -1 -31q0 -119 138 -119q102 0 149 62q23 30 39 88h146q-52 -281 -344 -281q-157 0 -226 78q-47 53 -47 140q0 23 5 63z" />
    <glyph glyph-name="Aogonek" unicode="&#x104;" horiz-adv-x="1252" vert-adv-y="2457" 
d="M890 421h-565l-228 -421h-191l781 1413h190l281 -1413q-20 -13 -31 -20q-143 -91 -192 -151q-62 -76 -62 -166q0 -94 113 -94q69 0 137 29v-87q-85 -31 -180 -31q-236 0 -236 173q0 213 311 347h-51zM867 554l-75 414q-13 74 -41 267q-23 -45 -50 -101q-37 -76 -78 -152
l-229 -428h473z" />
    <glyph glyph-name="aogonek" unicode="&#x105;" horiz-adv-x="1073" vert-adv-y="2457" 
d="M684 139q-55 -67 -101 -101q-90 -64 -198 -64q-145 0 -226 86q-82 86 -82 261q0 170 63 333q139 355 492 355q176 0 363 -61q-41 -153 -77 -354l-59 -331q-26 -150 -29 -263q-147 -90 -187 -125q-98 -84 -98 -208q0 -98 114 -98q68 0 136 29v-87q-85 -31 -180 -31
q-236 0 -236 179q0 132 108 225q70 61 199 113q0 20 -3 65v25q0 18 1 52zM787 840q-74 41 -165 41q-184 0 -281 -211q-36 -79 -59 -189q-20 -96 -20 -175q0 -204 153 -204q124 0 217 117q40 50 58 107q10 28 20 87z" />
    <glyph glyph-name="Ccircumflex" unicode="&#x108;" horiz-adv-x="1059" vert-adv-y="2457" 
d="M953 180l3 -155q-170 -51 -345 -51q-493 0 -493 506q0 253 96 497q182 462 606 462q168 0 335 -64l-63 -154q-132 84 -264 84q-248 0 -393 -287q-59 -116 -93 -277q-30 -140 -30 -262q0 -371 312 -371q158 0 329 72zM845 1710l-197 -160h-152l253 262h216l162 -262h-141z
" />
    <glyph glyph-name="ccircumflex" unicode="&#x109;" horiz-adv-x="830" vert-adv-y="2457" 
d="M704 152l4 -142q-102 -36 -243 -36q-186 0 -278 88q-101 96 -101 278q0 139 46 284q70 216 217 315q106 70 253 70q151 0 256 -55l-68 -140q-72 67 -175 67q-164 0 -263 -187q-40 -76 -63 -182q-18 -88 -18 -167q0 -243 221 -243q98 0 212 50zM625 1306l-197 -160h-152
l253 262h216l162 -262h-141z" />
    <glyph glyph-name="Cdotaccent" unicode="&#x10a;" horiz-adv-x="1059" vert-adv-y="2457" 
d="M953 180l3 -155q-170 -51 -345 -51q-493 0 -493 506q0 253 96 497q182 462 606 462q168 0 335 -64l-63 -154q-132 84 -264 84q-248 0 -393 -287q-59 -116 -93 -277q-30 -140 -30 -262q0 -371 312 -371q158 0 329 72zM840 1799q51 0 86 -35q34 -35 34 -84t-34 -84
q-35 -35 -86 -35t-86 35t-35 86q0 48 35 82q36 35 86 35z" />
    <glyph glyph-name="cdotaccent" unicode="&#x10b;" horiz-adv-x="830" vert-adv-y="2457" 
d="M704 152l4 -142q-102 -36 -243 -36q-186 0 -278 88q-101 96 -101 278q0 139 46 284q70 216 217 315q106 70 253 70q151 0 256 -55l-68 -140q-72 67 -175 67q-164 0 -263 -187q-40 -76 -63 -182q-18 -88 -18 -167q0 -243 221 -243q98 0 212 50zM639 1392q51 0 86 -35
q34 -35 34 -84t-34 -84q-35 -35 -86 -35t-86 35t-35 86q0 48 35 82q36 35 86 35z" />
    <glyph glyph-name="Dcaron" unicode="&#x10e;" horiz-adv-x="1289" vert-adv-y="2457" 
d="M101 0l249 1413h331q265 0 397 -109q163 -134 163 -437q0 -250 -107 -476q-105 -222 -304 -321q-142 -70 -357 -70h-372zM309 135h151q269 0 414 178q86 106 135 285q38 139 38 273q0 249 -120 340q-67 51 -179 62q-44 5 -128 5h-108zM739 1652l197 160h153l-253 -262
h-216l-162 262h140z" />
    <glyph glyph-name="dcaron" unicode="&#x10f;" horiz-adv-x="1258" vert-adv-y="2457" 
d="M819 960l35 190q21 116 41 300l193 39l-216 -1226q-26 -149 -30 -263h-157q1 65 7 133q-50 -58 -91 -89q-95 -70 -213 -70q-143 0 -225 90q-80 88 -80 257q0 130 40 266q64 212 202 324q120 98 282 98q114 0 212 -49zM795 819q-73 62 -165 62q-183 0 -286 -218
q-76 -161 -76 -345q0 -106 41 -161t118 -55q123 0 217 117q40 51 59 107q9 26 20 87zM1173 1020l135 466h187l-187 -466h-135z" />
    <glyph glyph-name="Dcroat" unicode="&#x110;" horiz-adv-x="1289" vert-adv-y="2457" 
d="M220 673h-141l25 126h138l108 614h331q266 0 398 -109q163 -134 163 -437q0 -251 -107 -476q-105 -222 -304 -321q-143 -70 -357 -70h-373zM405 673l-96 -538h151q270 0 414 178q86 106 136 285q38 139 38 273q0 249 -120 340q-67 51 -180 62q-44 5 -128 5h-108l-85 -479
h378l-26 -126h-374z" />
    <glyph glyph-name="dcroat" unicode="&#x111;" horiz-adv-x="1085" vert-adv-y="2457" 
d="M819 960l32 178h-263l19 117h264q17 103 27 195l190 39l-41 -234h133l-19 -117h-134l-155 -875q-26 -148 -30 -263h-157q1 65 7 133q-50 -58 -91 -89q-95 -70 -213 -70q-143 0 -225 90q-80 88 -80 257q0 130 40 266q64 212 202 324q120 98 282 98q114 0 212 -49zM795 819
q-73 62 -165 62q-183 0 -286 -218q-76 -161 -76 -345q0 -106 41 -161t118 -55q123 0 217 117q40 51 59 107q9 26 20 87z" />
    <glyph glyph-name="Emacron" unicode="&#x112;" horiz-adv-x="1096" vert-adv-y="2457" 
d="M101 0l249 1413h841l-23 -135h-656l-85 -475h499l-23 -132h-498l-96 -536h661l-23 -135h-846zM512 1623l21 120h556l-21 -120h-556z" />
    <glyph glyph-name="emacron" unicode="&#x113;" horiz-adv-x="998" vert-adv-y="2457" 
d="M271 407q-4 -52 -4 -69q0 -102 44 -160q60 -78 219 -78q147 0 281 69l6 -140q-132 -55 -320 -55q-411 0 -411 378q0 148 50 289q130 368 488 368q161 0 246 -71q80 -67 80 -190q0 -160 -138 -235q-95 -52 -320 -83q-121 -17 -221 -23zM288 532q218 15 344 51
q96 28 125 78q20 34 20 84q0 139 -157 139q-172 0 -264 -163q-40 -70 -68 -189zM342 1214l21 120h556l-21 -120h-556z" />
    <glyph glyph-name="Ebreve" unicode="&#x114;" horiz-adv-x="1096" vert-adv-y="2457" 
d="M101 0l249 1413h841l-23 -135h-656l-85 -475h499l-23 -132h-498l-96 -536h661l-23 -135h-846zM519 1819h141q-1 -20 -1 -31q0 -118 138 -118q102 0 150 62q22 29 38 87h146q-53 -280 -344 -280q-157 0 -226 78q-47 53 -47 140q0 23 5 62z" />
    <glyph glyph-name="ebreve" unicode="&#x115;" horiz-adv-x="998" vert-adv-y="2457" 
d="M271 407q-4 -52 -4 -69q0 -102 44 -160q60 -78 219 -78q147 0 281 69l6 -140q-132 -55 -320 -55q-411 0 -411 378q0 148 50 289q130 368 488 368q161 0 246 -71q80 -67 80 -190q0 -160 -138 -235q-95 -52 -320 -83q-121 -17 -221 -23zM288 532q218 15 344 51
q96 28 125 78q20 34 20 84q0 139 -157 139q-172 0 -264 -163q-40 -70 -68 -189zM352 1415h141q-1 -21 -1 -31q0 -119 138 -119q102 0 149 62q23 30 39 88h146q-52 -281 -344 -281q-157 0 -226 78q-47 53 -47 140q0 23 5 63z" />
    <glyph glyph-name="Edotaccent" unicode="&#x116;" horiz-adv-x="1096" vert-adv-y="2457" 
d="M101 0l249 1413h841l-23 -135h-656l-85 -475h499l-23 -132h-498l-96 -536h661l-23 -135h-846zM816 1799q51 0 86 -35q34 -35 34 -84t-34 -84q-35 -35 -86 -35t-86 35t-35 86q0 48 35 82q36 35 86 35z" />
    <glyph glyph-name="edotaccent" unicode="&#x117;" horiz-adv-x="998" vert-adv-y="2457" 
d="M271 407q-4 -52 -4 -69q0 -102 44 -160q60 -78 219 -78q147 0 281 69l6 -140q-132 -55 -320 -55q-411 0 -411 378q0 148 50 289q130 368 488 368q161 0 246 -71q80 -67 80 -190q0 -160 -138 -235q-95 -52 -320 -83q-121 -17 -221 -23zM288 532q218 15 344 51
q96 28 125 78q20 34 20 84q0 139 -157 139q-172 0 -264 -163q-40 -70 -68 -189zM647 1392q51 0 86 -35q34 -35 34 -84t-34 -84q-35 -35 -86 -35t-86 35t-35 86q0 48 35 82q36 35 86 35z" />
    <glyph glyph-name="Eogonek" unicode="&#x118;" horiz-adv-x="1096" vert-adv-y="2457" 
d="M101 0l249 1413h841l-23 -135h-656l-85 -475h499l-23 -132h-498l-96 -536h661l-23 -135q-143 -91 -187 -132q-98 -92 -98 -206q0 -93 112 -93q69 0 137 29l1 -87q-85 -31 -180 -31q-236 0 -236 173q0 211 310 347h-705z" />
    <glyph glyph-name="eogonek" unicode="&#x119;" horiz-adv-x="998" vert-adv-y="2457" 
d="M271 407q-4 -47 -4 -68q0 -103 44 -161q60 -78 219 -78q145 0 281 68l6 -140q-75 -31 -184 -45q-18 -12 -86 -55q-85 -54 -131 -127q-42 -67 -42 -139q0 -93 113 -93q69 0 137 29v-87q-86 -31 -180 -31q-236 0 -236 172q0 197 256 323q-378 16 -378 377q0 148 50 289
q130 368 488 368q161 0 246 -71q80 -67 80 -190q0 -160 -138 -235q-140 -76 -541 -106zM288 532q224 16 344 51q96 28 125 78q20 34 20 84q0 139 -157 139q-172 0 -264 -163q-40 -70 -68 -189z" />
    <glyph glyph-name="Ecaron" unicode="&#x11a;" horiz-adv-x="1096" vert-adv-y="2457" 
d="M101 0l249 1413h841l-23 -135h-656l-85 -475h499l-23 -132h-498l-96 -536h661l-23 -135h-846zM802 1652l197 160h153l-253 -262h-216l-162 262h140z" />
    <glyph glyph-name="ecaron" unicode="&#x11b;" horiz-adv-x="998" vert-adv-y="2457" 
d="M271 407q-4 -52 -4 -69q0 -102 44 -160q60 -78 219 -78q147 0 281 69l6 -140q-132 -55 -320 -55q-411 0 -411 378q0 148 50 289q130 368 488 368q161 0 246 -71q80 -67 80 -190q0 -160 -138 -235q-95 -52 -320 -83q-121 -17 -221 -23zM288 532q218 15 344 51
q96 28 125 78q20 34 20 84q0 139 -157 139q-172 0 -264 -163q-40 -70 -68 -189zM632 1248l197 160h153l-253 -262h-216l-162 262h140z" />
    <glyph glyph-name="Gcircumflex" unicode="&#x11c;" horiz-adv-x="1275" vert-adv-y="2457" 
d="M705 656l22 128h459l-131 -739q-163 -71 -388 -71q-269 0 -404 120q-72 65 -108 170q-36 108 -36 228q0 253 102 501q99 238 294 354q152 92 361 92q178 0 369 -66l-72 -150q-149 82 -295 82q-181 0 -297 -97q-146 -122 -217 -376q-51 -180 -51 -352q0 -204 102 -297
q82 -76 252 -76q108 0 222 43l90 506h-274zM905 1710l-197 -160h-152l253 262h216l162 -262h-141z" />
    <glyph glyph-name="gcircumflex" unicode="&#x11d;" horiz-adv-x="1060" vert-adv-y="2457" 
d="M657 103q-47 -47 -83 -71q-86 -58 -190 -58q-145 0 -226 86q-82 86 -82 261q0 170 64 333q69 178 194 269q116 86 297 86q177 0 364 -61q-42 -158 -77 -354l-70 -399q-51 -294 -105 -414q-114 -257 -440 -257q-162 0 -281 40l38 146q123 -60 256 -60q173 0 249 136
q53 95 83 264zM787 840q-75 41 -166 41q-184 0 -281 -211q-36 -78 -59 -189q-20 -97 -20 -176q0 -203 154 -203q123 0 217 117q40 50 59 107q9 28 19 87zM687 1306l-197 -160h-152l253 262h216l162 -262h-141z" />
    <glyph glyph-name="Gdotaccent" unicode="&#x120;" horiz-adv-x="1275" vert-adv-y="2457" 
d="M705 656l22 128h459l-131 -739q-163 -71 -388 -71q-269 0 -404 120q-72 65 -108 170q-36 108 -36 228q0 253 102 501q99 238 294 354q152 92 361 92q178 0 369 -66l-72 -150q-149 82 -295 82q-181 0 -297 -97q-146 -122 -217 -376q-51 -180 -51 -352q0 -204 102 -297
q82 -76 252 -76q108 0 222 43l90 506h-274zM880 1799q51 0 86 -35q34 -35 34 -84t-34 -84q-35 -35 -86 -35t-86 35t-35 86q0 48 35 82q36 35 86 35z" />
    <glyph glyph-name="gdotaccent" unicode="&#x121;" horiz-adv-x="1060" vert-adv-y="2457" 
d="M657 103q-47 -47 -83 -71q-86 -58 -190 -58q-145 0 -226 86q-82 86 -82 261q0 170 64 333q69 178 194 269q116 86 297 86q177 0 364 -61q-42 -158 -77 -354l-70 -399q-51 -294 -105 -414q-114 -257 -440 -257q-162 0 -281 40l38 146q123 -60 256 -60q173 0 249 136
q53 95 83 264zM787 840q-75 41 -166 41q-184 0 -281 -211q-36 -78 -59 -189q-20 -97 -20 -176q0 -203 154 -203q123 0 217 117q40 50 59 107q9 28 19 87zM675 1392q51 0 86 -35q34 -35 34 -84t-34 -84q-35 -35 -86 -35t-86 35t-35 86q0 48 35 82q36 35 86 35z" />
    <glyph glyph-name="Gcommaaccent" unicode="&#x122;" horiz-adv-x="1275" vert-adv-y="2457" 
d="M705 656l22 128h459l-131 -739q-163 -71 -388 -71q-269 0 -404 120q-72 65 -108 170q-36 108 -36 228q0 253 102 501q99 238 294 354q152 92 361 92q178 0 369 -66l-72 -150q-149 82 -295 82q-181 0 -297 -97q-146 -122 -217 -376q-51 -180 -51 -352q0 -204 102 -297
q82 -76 252 -76q108 0 222 43l90 506h-274zM348 -453l149 308h209l-224 -308h-134z" />
    <glyph glyph-name="gcommaaccent" unicode="&#x123;" horiz-adv-x="1060" vert-adv-y="2457" 
d="M657 103q-47 -47 -83 -71q-86 -58 -190 -58q-145 0 -226 86q-82 86 -82 261q0 170 64 333q69 178 194 269q116 86 297 86q177 0 364 -61q-42 -158 -77 -354l-70 -399q-51 -294 -105 -414q-114 -257 -440 -257q-162 0 -281 40l38 146q123 -60 256 -60q173 0 249 136
q53 95 83 264zM787 840q-75 41 -166 41q-184 0 -281 -211q-36 -78 -59 -189q-20 -97 -20 -176q0 -203 154 -203q123 0 217 117q40 50 59 107q9 28 19 87zM577 1146l279 262h133l-185 -262h-227z" />
    <glyph glyph-name="Hcircumflex" unicode="&#x124;" horiz-adv-x="1370" vert-adv-y="2457" 
d="M101 0l249 1413h185l-108 -608h626l107 608h185l-249 -1413h-185l119 670h-626l-118 -670h-185zM890 1710l-197 -160h-152l253 262h216l162 -262h-141z" />
    <glyph glyph-name="hcircumflex" unicode="&#x125;" horiz-adv-x="1135" vert-adv-y="2457" 
d="M87 0l203 1150q20 113 42 300l193 39l-116 -652q172 172 359 172q123 0 184 -61q56 -54 56 -144q0 -64 -22 -192l-108 -612h-176l112 631q15 84 15 122q0 118 -118 118q-125 0 -263 -132q-51 -48 -67 -88q-7 -19 -16 -69l-103 -582h-175zM516 1751l-197 -160h-152
l253 262h216l162 -262h-141z" />
    <glyph glyph-name="Hbar" unicode="&#x126;" horiz-adv-x="1384" vert-adv-y="2457" 
d="M108 0l179 1010h-145l19 117h146l50 286h185l-51 -286h626l50 286h185l-51 -286h146l-20 -117h-145l-179 -1010h-185l117 662h-625l-117 -662h-185zM433 795h625l39 215h-625z" />
    <glyph glyph-name="hbar" unicode="&#x127;" horiz-adv-x="1135" vert-adv-y="2457" 
d="M87 0l201 1138h-136l19 117h136q14 96 25 195l193 39l-42 -234h261l-19 -117h-262l-54 -301q172 172 357 172q123 0 186 -61q56 -53 56 -144q0 -64 -22 -192l-108 -612h-176l112 631q15 84 15 122q0 118 -118 118q-125 0 -263 -132q-51 -48 -67 -88q-7 -19 -16 -69
l-103 -582h-175z" />
    <glyph glyph-name="Itilde" unicode="&#x128;" horiz-adv-x="569" vert-adv-y="2457" 
d="M105 0l249 1413h185l-249 -1413h-185zM266 1555h-128q41 113 82 168q70 94 161 94q51 0 97 -27q25 -15 67 -56q52 -51 78 -51q40 0 70 57q12 24 27 67h129q-29 -105 -68 -163q-68 -103 -183 -103q-64 0 -108 35q-9 7 -53 49q-52 50 -78 50q-43 0 -93 -120z" />
    <glyph glyph-name="itilde" unicode="&#x129;" horiz-adv-x="525" vert-adv-y="2457" 
d="M88 0l173 983h176l-174 -983h-175zM173 1150h-128q42 114 82 168q70 94 162 94q79 0 163 -83q52 -51 79 -51q40 0 69 57q11 23 27 67h129q-29 -104 -68 -163q-68 -103 -182 -103q-65 0 -109 34q-9 8 -53 49q-52 50 -78 50q-43 0 -93 -119z" />
    <glyph glyph-name="Imacron" unicode="&#x12a;" horiz-adv-x="569" vert-adv-y="2457" 
d="M105 0l249 1413h185l-249 -1413h-185zM196 1623l21 120h556l-21 -120h-556z" />
    <glyph glyph-name="imacron" unicode="&#x12b;" horiz-adv-x="525" vert-adv-y="2457" 
d="M85 0l173 983h176l-174 -983h-175zM96 1214l21 120h556l-21 -120h-556z" />
    <glyph glyph-name="Ibreve" unicode="&#x12c;" horiz-adv-x="569" vert-adv-y="2457" 
d="M105 0l249 1413h185l-249 -1413h-185zM204 1819h141q-1 -20 -1 -31q0 -118 138 -118q102 0 150 62q22 29 38 87h146q-53 -280 -344 -280q-157 0 -226 78q-47 53 -47 140q0 23 5 62z" />
    <glyph glyph-name="ibreve" unicode="&#x12d;" horiz-adv-x="525" vert-adv-y="2457" 
d="M87 0l173 983h176l-174 -983h-175zM107 1415h141q-1 -21 -1 -31q0 -119 138 -119q102 0 149 62q23 30 39 88h146q-52 -281 -344 -281q-157 0 -226 78q-47 53 -47 140q0 23 5 63z" />
    <glyph glyph-name="Iogonek" unicode="&#x12e;" horiz-adv-x="569" vert-adv-y="2457" 
d="M105 0l249 1413h185l-249 -1413q-123 -76 -187 -132q-98 -88 -98 -206q0 -93 113 -93q68 0 137 29v-87q-85 -31 -180 -31q-236 0 -236 173q0 212 307 347h-41z" />
    <glyph glyph-name="iogonek" unicode="&#x12f;" horiz-adv-x="525" vert-adv-y="2457" 
d="M89 0l173 983h175l-173 -983q-127 -78 -187 -132q-98 -89 -98 -206q0 -93 113 -93q68 0 137 29v-87q-85 -31 -180 -31q-236 0 -236 172q0 130 109 226q71 63 203 122h-36zM399 1394q48 0 83 -36q34 -35 34 -85t-34 -85q-34 -36 -85 -36q-50 0 -84 36q-34 35 -34 85
q0 51 34 85q35 36 86 36z" />
    <glyph glyph-name="Idotaccent" unicode="&#x130;" horiz-adv-x="569" vert-adv-y="2457" 
d="M105 0l249 1413h185l-249 -1413h-185zM485 1799q51 0 86 -35q34 -35 34 -84t-34 -84q-35 -35 -86 -35t-86 35t-35 86q0 48 35 82q36 35 86 35z" />
    <glyph glyph-name="IJ" unicode="&#x132;" horiz-adv-x="1172" vert-adv-y="2457" 
d="M105 0l249 1413h185l-249 -1413h-185zM958 1413h184l-208 -1180q-36 -204 -60 -291q-104 -374 -457 -374q-99 0 -197 24l45 138q80 -28 154 -28q166 0 237 161q47 106 93 367z" />
    <glyph glyph-name="ij" unicode="&#x133;" horiz-adv-x="1052" vert-adv-y="2457" 
d="M89 0l173 983h176l-174 -983h-175zM399 1394q48 0 83 -36q34 -35 34 -85t-34 -85q-34 -36 -84 -36t-85 36q-34 35 -34 85q0 51 34 85q36 36 86 36zM789 983h175l-166 -934q-32 -182 -58 -257q-90 -268 -367 -268q-71 0 -152 16l44 130q62 -20 123 -20q109 0 159 106
q39 85 74 281zM926 1394q49 0 83 -36q34 -35 34 -85t-34 -85q-34 -36 -85 -36q-50 0 -84 36q-34 35 -34 85q0 51 34 85q35 36 86 36z" />
    <glyph glyph-name="Jcircumflex" unicode="&#x134;" horiz-adv-x="604" vert-adv-y="2457" 
d="M390 1413h184l-208 -1180q-36 -204 -60 -291q-104 -374 -457 -374q-99 0 -197 24l45 138q80 -28 154 -28q166 0 237 161q47 106 93 367zM507 1710l-197 -160h-152l253 262h216l162 -262h-141z" />
    <glyph glyph-name="jcircumflex" unicode="&#x135;" horiz-adv-x="527" vert-adv-y="2457" 
d="M263 983h175l-166 -934q-32 -182 -58 -257q-90 -268 -367 -268q-71 0 -152 16l44 130q62 -20 123 -20q109 0 159 106q39 85 74 281zM394 1306l-197 -160h-152l253 262h216l162 -262h-141z" />
    <glyph glyph-name="Kcommaaccent" unicode="&#x136;" horiz-adv-x="1177" vert-adv-y="2457" 
d="M101 0l249 1413h185l-109 -616l696 616h206l-719 -633l539 -780h-214l-514 761l-134 -761h-185zM323 -453l149 308h209l-224 -308h-134z" />
    <glyph glyph-name="kcommaaccent" unicode="&#x137;" horiz-adv-x="957" vert-adv-y="2457" 
d="M87 0l203 1150q20 113 42 300l193 39l-155 -876l464 370h210l-499 -382l379 -601h-202l-356 585l-104 -585h-175zM206 -453l149 308h209l-224 -308h-134z" />
    <glyph glyph-name="kgreenlandic" unicode="&#x138;" horiz-adv-x="957" vert-adv-y="2457" 
d="M87 0l121 683q20 116 41 300h187l-66 -370l464 370h210l-499 -382l379 -601h-202l-356 585l-104 -585h-175z" />
    <glyph glyph-name="Lacute" unicode="&#x139;" horiz-adv-x="1014" vert-adv-y="2457" 
d="M101 0l249 1413h185l-226 -1278h628l-23 -135h-813zM404 1550l185 262h232l-279 -262h-138z" />
    <glyph glyph-name="lacute" unicode="&#x13a;" horiz-adv-x="525" vert-adv-y="2457" 
d="M88 0l203 1150q20 113 42 300l193 39l-263 -1489h-175zM357 1591l185 262h232l-279 -262h-138z" />
    <glyph glyph-name="Lcommaaccent" unicode="&#x13b;" horiz-adv-x="1014" vert-adv-y="2457" 
d="M101 0l249 1413h185l-226 -1278h628l-23 -135h-813zM236 -453l149 308h209l-224 -308h-134z" />
    <glyph glyph-name="lcommaaccent" unicode="&#x13c;" horiz-adv-x="525" vert-adv-y="2457" 
d="M88 0l203 1150q20 113 42 300l193 39l-263 -1489h-175zM-92 -453l149 308h209l-224 -308h-134z" />
    <glyph glyph-name="Lcaron" unicode="&#x13d;" horiz-adv-x="1014" vert-adv-y="2457" 
d="M101 0l249 1413h185l-226 -1278h628l-23 -135h-813zM651 1020l135 466h187l-187 -466h-135z" />
    <glyph glyph-name="lcaron" unicode="&#x13e;" horiz-adv-x="698" vert-adv-y="2457" 
d="M88 0l203 1150q20 113 42 300l193 39l-263 -1489h-175zM611 1020l135 466h187l-187 -466h-135z" />
    <glyph glyph-name="Ldot" unicode="&#x13f;" horiz-adv-x="1014" vert-adv-y="2457" 
d="M101 0l249 1413h185l-226 -1278h628l-23 -135h-813zM764 826q58 0 97 -45q33 -38 33 -85q0 -56 -42 -95q-38 -35 -90 -35q-60 0 -99 45q-33 37 -33 86q0 54 42 94q37 35 92 35z" />
    <glyph glyph-name="ldot" unicode="&#x140;" horiz-adv-x="773" vert-adv-y="2457" 
d="M88 0l203 1150q20 113 42 300l193 39l-263 -1489h-175zM682 781q58 0 97 -45q33 -38 33 -85q0 -56 -42 -95q-38 -35 -90 -35q-60 0 -99 45q-33 37 -33 86q0 54 42 94q37 35 92 35z" />
    <glyph glyph-name="Nacute" unicode="&#x143;" horiz-adv-x="1393" vert-adv-y="2457" 
d="M101 0l249 1413h221l299 -811q21 -56 66 -184l34 -93l29 -83q10 79 32 208q23 133 32 184l139 779h167l-250 -1413h-205l-318 876q-33 90 -91 256l-27 79q-17 -126 -53 -332l-158 -879h-166zM780 1550l185 262h232l-279 -262h-138z" />
    <glyph glyph-name="nacute" unicode="&#x144;" horiz-adv-x="1130" vert-adv-y="2457" 
d="M87 0l114 646q31 170 50 337h162l-14 -158q175 184 359 184q118 0 182 -56q62 -54 62 -151q0 -67 -22 -190l-108 -612h-175l110 620q16 91 16 139q0 112 -117 112q-122 0 -259 -132q-48 -46 -64 -87q-9 -24 -16 -61l-105 -591h-175zM563 1146l185 262h232l-279 -262h-138
z" />
    <glyph glyph-name="Ncommaaccent" unicode="&#x145;" horiz-adv-x="1393" vert-adv-y="2457" 
d="M101 0l249 1413h221l299 -811q21 -56 66 -184l34 -93l29 -83q10 79 32 208q23 133 32 184l139 779h167l-250 -1413h-205l-318 876q-33 90 -91 256l-27 79q-17 -126 -53 -332l-158 -879h-166zM356 -453l149 308h209l-224 -308h-134z" />
    <glyph glyph-name="ncommaaccent" unicode="&#x146;" horiz-adv-x="1130" vert-adv-y="2457" 
d="M87 0l114 646q31 170 50 337h162l-14 -158q175 184 359 184q118 0 182 -56q62 -54 62 -151q0 -67 -22 -190l-108 -612h-175l110 620q16 91 16 139q0 112 -117 112q-122 0 -259 -132q-48 -46 -64 -87q-9 -24 -16 -61l-105 -591h-175zM230 -453l149 308h209l-224 -308h-134
z" />
    <glyph glyph-name="Ncaron" unicode="&#x147;" horiz-adv-x="1393" vert-adv-y="2457" 
d="M101 0l249 1413h221l299 -811q21 -56 66 -184l34 -93l29 -83q10 79 32 208q23 133 32 184l139 779h167l-250 -1413h-205l-318 876q-33 90 -91 256l-27 79q-17 -126 -53 -332l-158 -879h-166zM914 1652l197 160h153l-253 -262h-216l-162 262h140z" />
    <glyph glyph-name="ncaron" unicode="&#x148;" horiz-adv-x="1130" vert-adv-y="2457" 
d="M87 0l114 646q31 170 50 337h162l-14 -158q175 184 359 184q118 0 182 -56q62 -54 62 -151q0 -67 -22 -190l-108 -612h-175l110 620q16 91 16 139q0 112 -117 112q-122 0 -259 -132q-48 -46 -64 -87q-9 -24 -16 -61l-105 -591h-175zM645 1248l197 160h153l-253 -262h-216
l-162 262h140z" />
    <glyph glyph-name="napostrophe" unicode="&#x149;" horiz-adv-x="1130" vert-adv-y="2457" 
d="M87 0l114 646q31 170 50 337h162l-14 -158q175 184 359 184q118 0 182 -56q62 -54 62 -151q0 -67 -22 -190l-108 -612h-175l110 620q16 91 16 139q0 112 -117 112q-122 0 -259 -132q-48 -46 -64 -87q-9 -24 -16 -61l-105 -591h-175zM107 1055l126 431h189l-178 -431h-137
z" />
    <glyph glyph-name="Eng" unicode="&#x14a;" horiz-adv-x="1393" vert-adv-y="2457" 
d="M101 0l249 1413h221l299 -811q21 -56 66 -184l34 -93l29 -83q10 79 32 208q23 133 32 184l139 779h167l-245 -1384q-30 -166 -58 -245q-91 -260 -365 -260q-71 0 -151 16l44 130q60 -20 123 -20q88 0 139 63q54 68 96 287h-38l-318 876q-33 90 -91 256l-27 79
q-17 -126 -53 -332l-158 -879h-166z" />
    <glyph glyph-name="eng" unicode="&#x14b;" horiz-adv-x="1130" vert-adv-y="2457" 
d="M87 0l114 646q31 170 50 337h162l-14 -158q175 184 359 184q118 0 182 -56q62 -54 62 -150q0 -70 -22 -191l-100 -563q-33 -181 -58 -257q-91 -268 -368 -268q-71 0 -152 16l45 130q60 -20 123 -20q109 0 158 106q40 85 75 281l104 583q16 90 16 139q0 112 -117 112
q-122 0 -259 -132q-48 -46 -64 -87q-9 -24 -16 -61l-105 -591h-175z" />
    <glyph glyph-name="Omacron" unicode="&#x14c;" horiz-adv-x="1360" vert-adv-y="2457" 
d="M830 1439q145 0 260 -60q125 -66 181 -208q47 -120 47 -269q0 -179 -55 -368q-84 -284 -258 -426q-163 -134 -392 -134q-230 0 -356 122q-139 135 -139 412q0 188 59 382q169 549 653 549zM830 1305q-269 0 -407 -294q-48 -103 -80 -256q-31 -151 -31 -281
q0 -174 81 -275q73 -91 218 -91q265 0 403 294q48 104 80 261q31 150 31 274q0 157 -67 258q-74 110 -228 110zM592 1623l21 120h556l-21 -120h-556z" />
    <glyph glyph-name="omacron" unicode="&#x14d;" horiz-adv-x="1081" vert-adv-y="2457" 
d="M620 1009q173 0 273 -107q98 -104 98 -284q0 -132 -44 -266q-61 -190 -206 -294q-118 -84 -273 -84q-181 0 -281 107q-97 104 -97 287q0 140 49 281q60 173 197 273q120 87 284 87zM611 881q-174 0 -267 -201q-69 -148 -69 -319q0 -259 199 -259q171 0 264 203
q68 150 68 317q0 259 -195 259zM368 1214l21 120h556l-21 -120h-556z" />
    <glyph glyph-name="Obreve" unicode="&#x14e;" horiz-adv-x="1360" vert-adv-y="2457" 
d="M830 1439q145 0 260 -60q125 -66 181 -208q47 -120 47 -269q0 -179 -55 -368q-84 -284 -258 -426q-163 -134 -392 -134q-230 0 -356 122q-139 135 -139 412q0 188 59 382q169 549 653 549zM830 1305q-269 0 -407 -294q-48 -103 -80 -256q-31 -151 -31 -281
q0 -174 81 -275q73 -91 218 -91q265 0 403 294q48 104 80 261q31 150 31 274q0 157 -67 258q-74 110 -228 110zM623 1819h141q-1 -20 -1 -31q0 -118 138 -118q102 0 150 62q22 29 38 87h146q-53 -280 -344 -280q-157 0 -226 78q-47 53 -47 140q0 23 5 62z" />
    <glyph glyph-name="obreve" unicode="&#x14f;" horiz-adv-x="1081" vert-adv-y="2457" 
d="M620 1009q173 0 273 -107q98 -104 98 -284q0 -132 -44 -266q-61 -190 -206 -294q-118 -84 -273 -84q-181 0 -281 107q-97 104 -97 287q0 140 49 281q60 173 197 273q120 87 284 87zM611 881q-174 0 -267 -201q-69 -148 -69 -319q0 -259 199 -259q171 0 264 203
q68 150 68 317q0 259 -195 259zM399 1415h141q-1 -21 -1 -31q0 -119 138 -119q102 0 149 62q23 30 39 88h146q-52 -281 -344 -281q-157 0 -226 78q-47 53 -47 140q0 23 5 63z" />
    <glyph glyph-name="Ohungarumlaut" unicode="&#x150;" horiz-adv-x="1360" vert-adv-y="2457" 
d="M830 1439q145 0 260 -60q125 -66 181 -208q47 -120 47 -269q0 -179 -55 -368q-84 -284 -258 -426q-163 -134 -392 -134q-230 0 -356 122q-139 135 -139 412q0 188 59 382q169 549 653 549zM830 1305q-269 0 -407 -294q-48 -103 -80 -256q-31 -151 -31 -281
q0 -174 81 -275q73 -91 218 -91q265 0 403 294q48 104 80 261q31 150 31 274q0 157 -67 258q-74 110 -228 110zM652 1550l162 262h217l-247 -262h-132zM951 1550l162 262h217l-247 -262h-132z" />
    <glyph glyph-name="ohungarumlaut" unicode="&#x151;" horiz-adv-x="1081" vert-adv-y="2457" 
d="M620 1009q173 0 273 -107q98 -104 98 -284q0 -132 -44 -266q-61 -190 -206 -294q-118 -84 -273 -84q-181 0 -281 107q-97 104 -97 287q0 140 49 281q60 173 197 273q120 87 284 87zM611 881q-174 0 -267 -201q-69 -148 -69 -319q0 -259 199 -259q171 0 264 203
q68 150 68 317q0 259 -195 259zM419 1146l162 262h217l-247 -262h-132zM718 1146l162 262h217l-247 -262h-132z" />
    <glyph glyph-name="Racute" unicode="&#x154;" horiz-adv-x="1210" vert-adv-y="2457" 
d="M101 0l249 1413h359q258 0 359 -75q109 -81 109 -251q0 -197 -122 -320q-67 -67 -161 -101q-25 -8 -66 -20q49 -42 70 -87q20 -40 44 -124l129 -435h-202l-95 355q-49 181 -75 223q-23 36 -91 36h-214l-108 -614h-185zM416 737h210q201 0 284 105q75 96 75 243
q0 107 -64 154q-57 41 -200 41h-209zM656 1550l185 262h232l-279 -262h-138z" />
    <glyph glyph-name="racute" unicode="&#x155;" horiz-adv-x="717" vert-adv-y="2457" 
d="M87 0l117 659q32 183 47 324h168q-7 -80 -19 -161q59 79 97 113q82 74 182 74q53 0 113 -16l-55 -153q-56 27 -100 27q-94 0 -192 -137q-52 -72 -70 -124q-11 -31 -18 -75l-95 -531h-175zM445 1146l185 262h232l-279 -262h-138z" />
    <glyph glyph-name="Rcommaaccent" unicode="&#x156;" horiz-adv-x="1210" vert-adv-y="2457" 
d="M101 0l249 1413h359q258 0 359 -75q109 -81 109 -251q0 -197 -122 -320q-67 -67 -161 -101q-25 -8 -66 -20q49 -42 70 -87q20 -40 44 -124l129 -435h-202l-95 355q-49 181 -75 223q-23 36 -91 36h-214l-108 -614h-185zM416 737h210q201 0 284 105q75 96 75 243
q0 107 -64 154q-57 41 -200 41h-209zM314 -453l149 308h209l-224 -308h-134z" />
    <glyph glyph-name="rcommaaccent" unicode="&#x157;" horiz-adv-x="717" vert-adv-y="2457" 
d="M87 0l117 659q32 183 47 324h168q-7 -80 -19 -161q59 79 97 113q82 74 182 74q53 0 113 -16l-55 -153q-56 27 -100 27q-94 0 -192 -137q-52 -72 -70 -124q-11 -31 -18 -75l-95 -531h-175zM-80 -453l149 308h209l-224 -308h-134z" />
    <glyph glyph-name="Rcaron" unicode="&#x158;" horiz-adv-x="1210" vert-adv-y="2457" 
d="M101 0l249 1413h359q258 0 359 -75q109 -81 109 -251q0 -197 -122 -320q-67 -67 -161 -101q-25 -8 -66 -20q49 -42 70 -87q20 -40 44 -124l129 -435h-202l-95 355q-49 181 -75 223q-23 36 -91 36h-214l-108 -614h-185zM416 737h210q201 0 284 105q75 96 75 243
q0 107 -64 154q-57 41 -200 41h-209zM763 1652l197 160h153l-253 -262h-216l-162 262h140z" />
    <glyph glyph-name="rcaron" unicode="&#x159;" horiz-adv-x="717" vert-adv-y="2457" 
d="M87 0l117 659q32 183 47 324h168q-7 -80 -19 -161q59 79 97 113q82 74 182 74q53 0 113 -16l-55 -153q-56 27 -100 27q-94 0 -192 -137q-52 -72 -70 -124q-11 -31 -18 -75l-95 -531h-175zM530 1248l197 160h153l-253 -262h-216l-162 262h140z" />
    <glyph glyph-name="Sacute" unicode="&#x15a;" horiz-adv-x="1015" vert-adv-y="2457" 
d="M-26 59l60 155q163 -106 356 -106q164 0 254 70q93 74 93 211q0 85 -47 139q-33 37 -76 63q-36 22 -103 58q-151 83 -227 152q-98 89 -98 233q0 187 124 297q122 108 343 108q172 0 346 -61l-72 -150q-135 77 -264 77q-140 0 -216 -66t-76 -176q0 -83 60 -139
q42 -40 181 -117q161 -90 227 -158q83 -86 83 -233q0 -209 -135 -326q-134 -116 -392 -116q-240 0 -421 85zM601 1550l185 262h232l-279 -262h-138z" />
    <glyph glyph-name="sacute" unicode="&#x15b;" horiz-adv-x="831" vert-adv-y="2457" 
d="M0 28l55 144q112 -70 257 -70q122 0 180 54q51 47 51 119q0 53 -39 92q-31 31 -134 87q-116 62 -166 112q-63 62 -63 157q0 130 95 211q88 75 259 75q145 0 272 -52l-69 -139q-84 63 -196 63q-90 0 -140 -40q-48 -38 -48 -95q0 -55 50 -95q36 -30 126 -79
q122 -67 164 -110q62 -63 62 -156q0 -148 -97 -241q-96 -91 -300 -91q-182 0 -319 54zM425 1146l185 262h232l-279 -262h-138z" />
    <glyph glyph-name="Scircumflex" unicode="&#x15c;" horiz-adv-x="1015" vert-adv-y="2457" 
d="M-26 59l60 155q163 -106 356 -106q164 0 254 70q93 74 93 211q0 85 -47 139q-33 37 -76 63q-36 22 -103 58q-151 83 -227 152q-98 89 -98 233q0 187 124 297q122 108 343 108q172 0 346 -61l-72 -150q-135 77 -264 77q-140 0 -216 -66t-76 -176q0 -83 60 -139
q42 -40 181 -117q161 -90 227 -158q83 -86 83 -233q0 -209 -135 -326q-134 -116 -392 -116q-240 0 -421 85zM722 1710l-197 -160h-152l253 262h216l162 -262h-141z" />
    <glyph glyph-name="scircumflex" unicode="&#x15d;" horiz-adv-x="831" vert-adv-y="2457" 
d="M0 28l55 144q112 -70 257 -70q122 0 180 54q51 47 51 119q0 53 -39 92q-31 31 -134 87q-116 62 -166 112q-63 62 -63 157q0 130 95 211q88 75 259 75q145 0 272 -52l-69 -139q-84 63 -196 63q-90 0 -140 -40q-48 -38 -48 -95q0 -55 50 -95q36 -30 126 -79
q122 -67 164 -110q62 -63 62 -156q0 -148 -97 -241q-96 -91 -300 -91q-182 0 -319 54zM558 1306l-197 -160h-152l253 262h216l162 -262h-141z" />
    <glyph glyph-name="Tcommaaccent" unicode="&#x162;" horiz-adv-x="1131" vert-adv-y="2457" 
d="M383 0l226 1278h-396l23 135h967l-23 -135h-386l-226 -1278h-185zM214 -453l149 308h209l-224 -308h-134z" />
    <glyph glyph-name="tcommaaccent" unicode="&#x163;" horiz-adv-x="686" vert-adv-y="2457" 
d="M261 850h-171l31 133h166l59 256l165 40l-51 -296h255l-31 -133h-247l-85 -474q-19 -107 -19 -175q0 -49 21 -73q23 -26 83 -26q74 0 149 40l-1 -137q-98 -31 -209 -31q-127 0 -180 55q-45 46 -45 134q0 66 25 204zM9 -453l149 308h209l-224 -308h-134z" />
    <glyph glyph-name="Tcaron" unicode="&#x164;" horiz-adv-x="1131" vert-adv-y="2457" 
d="M386 0l226 1278h-396l23 135h967l-23 -135h-386l-226 -1278h-185zM760 1652l197 160h153l-253 -262h-216l-162 262h140z" />
    <glyph glyph-name="tcaron" unicode="&#x165;" horiz-adv-x="743" vert-adv-y="2457" 
d="M260 850h-171l31 133h166l59 256l165 40l-51 -296h255l-31 -133h-247l-85 -474q-19 -107 -19 -175q0 -49 21 -73q23 -26 83 -26q74 0 149 40l-1 -137q-98 -31 -209 -31q-127 0 -180 55q-45 46 -45 134q0 66 25 204zM657 1140l135 466h187l-187 -466h-135z" />
    <glyph glyph-name="Tbar" unicode="&#x166;" horiz-adv-x="1131" vert-adv-y="2457" 
d="M532 823h-378l20 117h378l60 338h-396l23 135h967l-23 -135h-386l-60 -338h368l-20 -117h-368l-146 -823h-185z" />
    <glyph glyph-name="tbar" unicode="&#x167;" horiz-adv-x="686" vert-adv-y="2457" 
d="M261 850h-172l31 133h166l59 256l166 40l-52 -296h255l-31 -133h-247l-31 -175h214l-20 -115h-214l-35 -191q-18 -100 -18 -168q0 -48 21 -73q23 -26 82 -26q75 0 151 40l-2 -137q-98 -31 -209 -31q-127 0 -180 55q-45 45 -45 133q0 69 25 205l35 193h-171l20 115h171z
" />
    <glyph glyph-name="Utilde" unicode="&#x168;" horiz-adv-x="1279" vert-adv-y="2457" 
d="M341 1413h185l-154 -870q-29 -165 -29 -236q0 -199 243 -199q196 0 276 134q43 72 78 268l159 903h164l-167 -955q-23 -126 -37 -170q-53 -168 -177 -241t-304 -73q-216 0 -326 102q-89 83 -89 229q0 102 33 286zM622 1555h-128q41 113 82 168q70 94 161 94q51 0 97 -27
q25 -15 67 -56q52 -51 78 -51q40 0 70 57q12 24 27 67h129q-29 -105 -68 -163q-68 -103 -183 -103q-64 0 -108 35q-9 7 -53 49q-52 50 -78 50q-43 0 -93 -120z" />
    <glyph glyph-name="utilde" unicode="&#x169;" horiz-adv-x="1092" vert-adv-y="2457" 
d="M251 983h176l-106 -597q-16 -90 -16 -145q0 -132 126 -132q143 0 274 161l126 713h175l-129 -727q-23 -132 -28 -256h-158q-1 35 -1 52q0 24 2 70q-41 -43 -75 -68q-105 -80 -229 -80t-194 62q-66 60 -66 174q0 74 27 225zM457 1150h-128q42 114 82 168q70 94 162 94
q79 0 163 -83q52 -51 79 -51q40 0 69 57q11 23 27 67h129q-29 -104 -68 -163q-68 -103 -182 -103q-65 0 -109 34q-9 8 -53 49q-52 50 -78 50q-43 0 -93 -119z" />
    <glyph glyph-name="Umacron" unicode="&#x16a;" horiz-adv-x="1279" vert-adv-y="2457" 
d="M341 1413h185l-154 -870q-29 -165 -29 -236q0 -199 243 -199q196 0 276 134q43 72 78 268l159 903h164l-167 -955q-23 -126 -37 -170q-53 -168 -177 -241t-304 -73q-216 0 -326 102q-89 83 -89 229q0 102 33 286zM552 1623l21 120h556l-21 -120h-556z" />
    <glyph glyph-name="umacron" unicode="&#x16b;" horiz-adv-x="1092" vert-adv-y="2457" 
d="M251 983h176l-106 -597q-16 -90 -16 -145q0 -132 126 -132q143 0 274 161l126 713h175l-129 -727q-23 -132 -28 -256h-158q-1 35 -1 52q0 24 2 70q-41 -43 -75 -68q-105 -80 -229 -80t-194 62q-66 60 -66 174q0 74 27 225zM381 1214l21 120h556l-21 -120h-556z" />
    <glyph glyph-name="Ubreve" unicode="&#x16c;" horiz-adv-x="1279" vert-adv-y="2457" 
d="M341 1413h185l-154 -870q-29 -165 -29 -236q0 -199 243 -199q196 0 276 134q43 72 78 268l159 903h164l-167 -955q-23 -126 -37 -170q-53 -168 -177 -241t-304 -73q-216 0 -326 102q-89 83 -89 229q0 102 33 286zM558 1819h141q-1 -20 -1 -31q0 -118 138 -118
q102 0 150 62q22 29 38 87h146q-53 -280 -344 -280q-157 0 -226 78q-47 53 -47 140q0 23 5 62z" />
    <glyph glyph-name="ubreve" unicode="&#x16d;" horiz-adv-x="1092" vert-adv-y="2457" 
d="M251 983h176l-106 -597q-16 -90 -16 -145q0 -132 126 -132q143 0 274 161l126 713h175l-129 -727q-23 -132 -28 -256h-158q-1 35 -1 52q0 24 2 70q-41 -43 -75 -68q-105 -80 -229 -80t-194 62q-66 60 -66 174q0 74 27 225zM389 1415h141q-1 -21 -1 -31q0 -119 138 -119
q102 0 149 62q23 30 39 88h146q-52 -281 -344 -281q-157 0 -226 78q-47 53 -47 140q0 23 5 63z" />
    <glyph glyph-name="Uring" unicode="&#x16e;" horiz-adv-x="1279" vert-adv-y="2457" 
d="M341 1413h185l-154 -870q-29 -165 -29 -236q0 -199 243 -199q196 0 276 134q43 72 78 268l159 903h164l-167 -955q-23 -126 -37 -170q-53 -168 -177 -241t-304 -73q-216 0 -326 102q-89 83 -89 229q0 102 33 286zM850 1915q96 0 153 -59q52 -54 52 -134t-52 -134
q-57 -58 -156 -58t-155 58q-53 54 -53 134q0 82 52 134q59 59 159 59zM849 1850q-47 0 -74 -40q-22 -33 -22 -88q0 -54 22 -87q27 -40 72 -40q46 0 73 40q22 33 22 88t-22 87q-28 40 -71 40z" />
    <glyph glyph-name="uring" unicode="&#x16f;" horiz-adv-x="1092" vert-adv-y="2457" 
d="M251 983h176l-106 -597q-16 -90 -16 -145q0 -132 126 -132q143 0 274 161l126 713h175l-129 -727q-23 -132 -28 -256h-158q-1 35 -1 52q0 24 2 70q-41 -43 -75 -68q-105 -80 -229 -80t-194 62q-66 60 -66 174q0 74 27 225zM673 1510q96 0 153 -58q52 -54 52 -135
q0 -80 -52 -133q-57 -58 -156 -58t-155 58q-53 53 -53 133q0 82 52 135q59 58 159 58zM671 1445q-47 0 -73 -40q-22 -33 -22 -87t22 -87q27 -40 72 -40t72 40q22 33 22 87q0 55 -22 87q-27 40 -71 40z" />
    <glyph glyph-name="Uhungarumlaut" unicode="&#x170;" horiz-adv-x="1279" vert-adv-y="2457" 
d="M341 1413h185l-154 -870q-29 -165 -29 -236q0 -199 243 -199q196 0 276 134q43 72 78 268l159 903h164l-167 -955q-23 -126 -37 -170q-53 -168 -177 -241t-304 -73q-216 0 -326 102q-89 83 -89 229q0 102 33 286zM587 1550l162 262h217l-247 -262h-132zM886 1550l162 262
h217l-247 -262h-132z" />
    <glyph glyph-name="uhungarumlaut" unicode="&#x171;" horiz-adv-x="1093" vert-adv-y="2457" 
d="M251 983h176l-106 -597q-16 -90 -16 -145q0 -132 126 -132q143 0 274 161l126 713h175l-129 -727q-23 -132 -28 -256h-158q-1 35 -1 52q0 24 2 70q-41 -43 -75 -68q-105 -80 -229 -80t-194 62q-66 60 -66 174q0 74 27 225zM419 1146l162 262h217l-247 -262h-132z
M718 1146l162 262h217l-247 -262h-132z" />
    <glyph glyph-name="Uogonek" unicode="&#x172;" horiz-adv-x="1279" vert-adv-y="2457" 
d="M341 1413h185l-154 -870q-29 -165 -29 -236q0 -199 243 -199q196 0 276 134q43 72 78 267l159 904h164l-167 -955q-24 -136 -40 -182q-54 -156 -171 -227q-52 -32 -124 -52q-116 -67 -184 -129q-98 -90 -98 -206q0 -93 112 -93q70 0 137 29l1 -87q-85 -31 -180 -31
q-236 0 -236 172q0 196 254 322q-404 16 -404 332q0 100 33 285z" />
    <glyph glyph-name="uogonek" unicode="&#x173;" horiz-adv-x="1092" vert-adv-y="2457" 
d="M251 983h176l-106 -597q-16 -90 -16 -145q0 -132 126 -132q143 0 274 161l126 713h175l-129 -727q-23 -131 -28 -256q-145 -89 -187 -125q-53 -44 -79 -111q-19 -50 -19 -97q0 -98 114 -98q68 0 136 29v-87q-85 -31 -180 -31q-236 0 -236 178q0 134 111 227
q72 60 203 112q-8 65 -11 135q-43 -46 -78 -74q-106 -84 -235 -84q-124 0 -194 62q-66 60 -66 174q0 74 27 225z" />
    <glyph glyph-name="Wcircumflex" unicode="&#x174;" horiz-adv-x="1803" vert-adv-y="2457" 
d="M335 0l-136 1413h177l59 -759q1 -4 12 -216q7 -152 12 -248q41 97 108 264l30 72q19 45 37 90q25 61 27 64l333 733h140l69 -740q2 -16 16 -230l8 -137l7 -122q64 162 103 264q70 185 88 225l323 740h181l-635 -1413h-185l-64 735q-18 209 -21 428q-126 -321 -180 -441
l-325 -722h-184zM1103 1710l-197 -160h-152l253 262h216l162 -262h-141z" />
    <glyph glyph-name="wcircumflex" unicode="&#x175;" horiz-adv-x="1467" vert-adv-y="2457" 
d="M271 0l-135 983h176l53 -472q5 -47 16 -157l7 -72l8 -77l35 81l28 63l33 75l36 84l216 475h158l43 -461l6 -71l8 -101q8 -92 12 -145q23 51 60 134l49 106l37 82l213 456h176l-489 -983h-165l-47 518q-2 20 -10 125q-5 76 -10 132l-32 -73l-26 -58q-54 -122 -60 -136
l-231 -508h-165zM865 1306l-197 -160h-152l253 262h216l162 -262h-141z" />
    <glyph glyph-name="Ycircumflex" unicode="&#x176;" horiz-adv-x="1044" vert-adv-y="2457" 
d="M343 0l93 530l-289 883h192l145 -461q7 -22 41 -140q20 -69 32 -110q31 48 79 122q57 90 88 135l309 454h191l-603 -883l-94 -530h-184zM718 1710l-197 -160h-152l253 262h216l162 -262h-141z" />
    <glyph glyph-name="ycircumflex" unicode="&#x177;" horiz-adv-x="917" vert-adv-y="2457" 
d="M291 0l-178 983h178l75 -498q5 -38 23 -168l11 -75l14 -103q70 155 82 182q49 112 71 158l231 504h175l-489 -1005q-121 -250 -178 -317q-114 -136 -292 -136q-64 0 -130 12l42 131q49 -17 102 -17q83 0 143 60q72 71 149 223l33 66h-62zM573 1306l-197 -160h-152
l253 262h216l162 -262h-141z" />
    <glyph glyph-name="Zacute" unicode="&#x179;" horiz-adv-x="1052" vert-adv-y="2457" 
d="M-40 0l19 112l933 1166h-667l23 135h878l-8 -110l-936 -1168h747l-23 -135h-966zM628 1550l185 262h232l-279 -262h-138z" />
    <glyph glyph-name="zacute" unicode="&#x17a;" horiz-adv-x="882" vert-adv-y="2457" 
d="M-33 0l12 109l664 742h-484l22 132h685l-8 -109l-664 -742h546l-22 -132h-751zM450 1146l185 262h232l-279 -262h-138z" />
    <glyph glyph-name="Zdotaccent" unicode="&#x17b;" horiz-adv-x="1052" vert-adv-y="2457" 
d="M-40 0l19 112l933 1166h-667l23 135h878l-8 -110l-936 -1168h747l-23 -135h-966zM739 1799q51 0 86 -35q34 -35 34 -84t-34 -84q-35 -35 -86 -35t-86 35t-35 86q0 48 35 82q36 35 86 35z" />
    <glyph glyph-name="zdotaccent" unicode="&#x17c;" horiz-adv-x="882" vert-adv-y="2457" 
d="M-33 0l12 109l664 742h-484l22 132h685l-8 -109l-664 -742h546l-22 -132h-751zM567 1392q51 0 86 -35q34 -35 34 -84t-34 -84q-35 -35 -86 -35t-86 35t-35 86q0 48 35 82q36 35 86 35z" />
    <glyph glyph-name="Ohorn" unicode="&#x1a0;" horiz-adv-x="1399" vert-adv-y="2457" 
d="M830 1439q145 0 260 -60q125 -66 181 -208q47 -120 47 -269q0 -179 -55 -368q-84 -284 -258 -426q-163 -134 -392 -134q-230 0 -356 122q-139 135 -139 412q0 188 59 382q169 549 653 549zM830 1305q-269 0 -407 -294q-48 -103 -80 -256q-31 -151 -31 -281
q0 -174 81 -275q73 -91 218 -91q265 0 403 294q48 104 80 261q31 150 31 274q0 157 -67 258q-74 110 -228 110zM1256 1217l96 366h202l-194 -366h-104z" />
    <glyph glyph-name="ohorn" unicode="&#x1a1;" horiz-adv-x="1122" vert-adv-y="2457" 
d="M620 1009q173 0 273 -107q98 -104 98 -284q0 -132 -44 -266q-61 -190 -206 -294q-118 -84 -273 -84q-181 0 -281 107q-97 104 -97 287q0 140 49 281q60 173 197 273q120 87 284 87zM611 881q-174 0 -267 -201q-69 -148 -69 -319q0 -259 199 -259q171 0 264 203
q68 150 68 317q0 259 -195 259zM974 777l96 366h202l-195 -366h-103z" />
    <glyph glyph-name="Uhorn" unicode="&#x1af;" horiz-adv-x="1351" vert-adv-y="2457" 
d="M341 1413h185l-154 -870q-29 -165 -29 -236q0 -199 243 -199q196 0 276 134q43 72 78 268l159 903h164l-167 -955q-23 -126 -37 -170q-53 -168 -177 -241t-304 -73q-216 0 -326 102q-89 83 -89 229q0 102 33 286zM1312 1217l96 366h202l-194 -366h-104z" />
    <glyph glyph-name="uhorn" unicode="&#x1b0;" horiz-adv-x="1176" vert-adv-y="2457" 
d="M251 983h176l-106 -597q-16 -90 -16 -145q0 -132 126 -132q143 0 274 161l126 713h175l-129 -727q-23 -132 -28 -256h-158q-1 35 -1 52q0 24 2 70q-41 -43 -75 -68q-105 -80 -229 -80t-194 62q-66 60 -66 174q0 74 27 225zM1054 777l96 366h202l-195 -366h-103z" />
    <glyph glyph-name="uni01CD" unicode="&#x1cd;" horiz-adv-x="1252" vert-adv-y="2457" 
d="M890 421h-565l-228 -421h-191l781 1413h190l281 -1413h-191zM867 554l-75 414q-3 15 -25 161q-11 72 -16 106q-89 -181 -128 -253l-229 -428h473zM802 1652l197 160h153l-253 -262h-216l-162 262h140z" />
    <glyph glyph-name="uni01CE" unicode="&#x1ce;" horiz-adv-x="1073" vert-adv-y="2457" 
d="M679 132q-131 -158 -294 -158q-145 0 -226 86q-82 86 -82 261q0 170 63 333q139 355 492 355q176 0 363 -61q-42 -159 -77 -354l-59 -331q-26 -150 -29 -263h-157q0 43 6 132zM787 840q-74 41 -165 41q-184 0 -281 -211q-36 -79 -59 -189q-20 -96 -20 -175
q0 -204 153 -204q124 0 217 117q40 50 58 107q10 28 20 87zM670 1248l197 160h153l-253 -262h-216l-162 262h140z" />
    <glyph glyph-name="uni01D3" unicode="&#x1d3;" horiz-adv-x="1279" vert-adv-y="2457" 
d="M341 1413h185l-154 -870q-29 -165 -29 -236q0 -199 243 -199q196 0 276 134q43 72 78 268l159 903h164l-167 -955q-23 -126 -37 -170q-53 -168 -177 -241t-304 -73q-216 0 -326 102q-89 83 -89 229q0 102 33 286zM835 1652l197 160h153l-253 -262h-216l-162 262h140z" />
    <glyph glyph-name="uni01D4" unicode="&#x1d4;" horiz-adv-x="1093" vert-adv-y="2457" 
d="M251 983h176l-106 -597q-16 -90 -16 -145q0 -132 126 -132q143 0 274 161l126 713h175l-129 -727q-23 -132 -28 -256h-158q-1 35 -1 52q0 24 2 70q-41 -43 -75 -68q-105 -80 -229 -80t-194 62q-66 60 -66 174q0 74 27 225zM680 1248l197 160h153l-253 -262h-216l-162 262
h140z" />
    <glyph glyph-name="Gcaron" unicode="&#x1e6;" horiz-adv-x="1275" vert-adv-y="2457" 
d="M705 656l22 128h459l-131 -739q-163 -71 -388 -71q-269 0 -404 120q-72 65 -108 170q-36 108 -36 228q0 253 102 501q99 238 294 354q152 92 361 92q178 0 369 -66l-72 -150q-149 82 -295 82q-181 0 -297 -97q-146 -122 -217 -376q-51 -180 -51 -352q0 -204 102 -297
q82 -76 252 -76q108 0 222 43l90 506h-274zM870 1652l197 160h153l-253 -262h-216l-162 262h140z" />
    <glyph glyph-name="gcaron" unicode="&#x1e7;" horiz-adv-x="1060" vert-adv-y="2457" 
d="M657 103q-47 -47 -83 -71q-86 -58 -190 -58q-145 0 -226 86q-82 86 -82 261q0 170 64 333q69 178 194 269q116 86 297 86q177 0 364 -61q-42 -158 -77 -354l-70 -399q-51 -294 -105 -414q-114 -257 -440 -257q-162 0 -281 40l38 146q123 -60 256 -60q173 0 249 136
q53 95 83 264zM787 840q-75 41 -166 41q-184 0 -281 -211q-36 -78 -59 -189q-20 -97 -20 -176q0 -203 154 -203q123 0 217 117q40 50 59 107q9 28 19 87zM682 1248l197 160h153l-253 -262h-216l-162 262h140z" />
    <glyph glyph-name="uni01F4" unicode="&#x1f4;" horiz-adv-x="1275" vert-adv-y="2457" 
d="M705 656l22 128h459l-131 -739q-163 -71 -388 -71q-269 0 -404 120q-72 65 -108 170q-36 108 -36 228q0 253 102 501q99 238 294 354q152 92 361 92q178 0 369 -66l-72 -150q-149 82 -295 82q-181 0 -297 -97q-146 -122 -217 -376q-51 -180 -51 -352q0 -204 102 -297
q82 -76 252 -76q108 0 222 43l90 506h-274zM752 1550l185 262h232l-279 -262h-138z" />
    <glyph glyph-name="uni01F5" unicode="&#x1f5;" horiz-adv-x="1060" vert-adv-y="2457" 
d="M657 103q-47 -47 -83 -71q-86 -58 -190 -58q-145 0 -226 86q-82 86 -82 261q0 170 64 333q69 178 194 269q116 86 297 86q177 0 364 -61q-42 -158 -77 -354l-70 -399q-51 -294 -105 -414q-114 -257 -440 -257q-162 0 -281 40l38 146q123 -60 256 -60q173 0 249 136
q53 95 83 264zM787 840q-75 41 -166 41q-184 0 -281 -211q-36 -78 -59 -189q-20 -97 -20 -176q0 -203 154 -203q123 0 217 117q40 50 59 107q9 28 19 87zM586 1146l185 262h232l-279 -262h-138z" />
    <glyph glyph-name="Scommaaccent" unicode="&#x218;" horiz-adv-x="1015" vert-adv-y="2457" 
d="M-26 59l60 155q163 -106 356 -106q164 0 254 70q93 74 93 211q0 85 -47 139q-33 37 -76 63q-36 22 -103 58q-151 83 -227 152q-98 89 -98 233q0 187 124 297q122 108 343 108q172 0 346 -61l-72 -150q-135 77 -264 77q-140 0 -216 -66t-76 -176q0 -83 60 -139
q42 -40 181 -117q161 -90 227 -158q83 -86 83 -233q0 -209 -135 -326q-134 -116 -392 -116q-240 0 -421 85zM157 -453l149 308h209l-224 -308h-134z" />
    <glyph glyph-name="scommaaccent" unicode="&#x219;" horiz-adv-x="831" vert-adv-y="2457" 
d="M0 28l55 144q112 -70 257 -70q122 0 180 54q51 47 51 119q0 53 -39 92q-31 31 -134 87q-116 62 -166 112q-63 62 -63 157q0 130 95 211q88 75 259 75q145 0 272 -52l-69 -139q-84 63 -196 63q-90 0 -140 -40q-48 -38 -48 -95q0 -55 50 -95q36 -30 126 -79
q122 -67 164 -110q62 -63 62 -156q0 -148 -97 -241q-96 -91 -300 -91q-182 0 -319 54zM67 -453l149 308h209l-224 -308h-134z" />
    <glyph glyph-name="uni021A" unicode="&#x21a;" horiz-adv-x="1131" vert-adv-y="2457" 
d="M383 0l226 1278h-396l23 135h967l-23 -135h-386l-226 -1278h-185zM214 -453l149 308h209l-224 -308h-134z" />
    <glyph glyph-name="uni021B" unicode="&#x21b;" horiz-adv-x="686" vert-adv-y="2457" 
d="M261 850h-171l31 133h166l59 256l165 40l-51 -296h255l-31 -133h-247l-85 -474q-19 -107 -19 -175q0 -49 21 -73q23 -26 83 -26q74 0 149 40l-1 -137q-98 -31 -209 -31q-127 0 -180 55q-45 46 -45 134q0 66 25 204zM9 -453l149 308h209l-224 -308h-134z" />
    <glyph glyph-name="afii57929" unicode="&#x2bc;" horiz-adv-x="346" vert-adv-y="2457" 
d="M131 998l188 488h185l-245 -488h-128z" />
    <glyph glyph-name="uni02C9" unicode="&#x2c9;" horiz-adv-x="1024" vert-adv-y="2457" 
d="M362 1214l21 120h556l-21 -120h-556z" />
    <glyph glyph-name="dexia_keraia" unicode="&#x374;" horiz-adv-x="401" vert-adv-y="2457" 
d="M98 782l236 631h188l-289 -631h-135z" />
    <glyph glyph-name="aristeri_karaia" unicode="&#x375;" horiz-adv-x="401" vert-adv-y="2457" 
d="M-120 -275l236 631h188l-289 -631h-135z" />
    <glyph glyph-name="iotasubscript" unicode="&#x37a;" horiz-adv-x="1006" vert-adv-y="2457" 
d="M325 0h161l-13 -70q-10 -59 -10 -88q0 -77 94 -77q49 0 117 20l4 -85q-93 -29 -184 -29q-194 0 -194 150q0 43 13 111z" />
    <glyph glyph-name="erotimatico" unicode="&#x37e;" horiz-adv-x="527" vert-adv-y="2457" 
d="M-26 -293l170 517h195l-225 -517h-140zM341 1009q59 0 97 -45q33 -38 33 -85q0 -56 -42 -95q-38 -35 -90 -35q-60 0 -99 45q-33 37 -33 86q0 54 42 94q37 35 92 35z" />
    <glyph glyph-name="tonos" unicode="&#x384;" horiz-adv-x="1026" vert-adv-y="2457" 
d="M540 1132l157 320h211l-237 -320h-131z" />
    <glyph glyph-name="dialytikatonos" unicode="&#x385;" horiz-adv-x="1014" vert-adv-y="2457" 
d="M509 1132l121 325h195l-189 -325h-127zM398 1379q45 0 76 -31t31 -75q0 -43 -31 -74t-76 -31t-76 31t-31 76q0 43 31 73q32 31 76 31zM892 1379q45 0 76 -31t31 -75q0 -43 -31 -74t-76 -31t-76 31t-31 76q0 43 31 73q32 31 76 31z" />
    <glyph glyph-name="Alphatonos" unicode="&#x386;" horiz-adv-x="1252" vert-adv-y="2457" 
d="M890 421h-565l-228 -421h-191l781 1413h190l281 -1413h-191zM867 554l-75 414q-3 15 -25 161q-11 72 -16 106q-89 -181 -128 -253l-229 -428h473zM62 873l164 540h186l-220 -540h-130z" />
    <glyph glyph-name="uni0387" unicode="&#x387;" horiz-adv-x="525" vert-adv-y="2457" 
d="M293 781q58 0 97 -45q33 -38 33 -85q0 -56 -42 -95q-38 -35 -90 -35q-60 0 -99 45q-33 37 -33 86q0 54 42 94q37 35 92 35z" />
    <glyph glyph-name="Epsilontonos" unicode="&#x388;" horiz-adv-x="1374" vert-adv-y="2457" 
d="M87 873l164 540h186l-220 -540h-130zM379 0l249 1413h841l-23 -135h-656l-85 -475h499l-23 -132h-498l-96 -536h661l-23 -135h-846z" />
    <glyph glyph-name="Etatonos" unicode="&#x389;" horiz-adv-x="1648" vert-adv-y="2457" 
d="M87 873l164 540h186l-220 -540h-130zM379 0l249 1413h185l-108 -608h626l108 608h184l-249 -1413h-185l119 670h-626l-118 -670h-185z" />
    <glyph glyph-name="Iotatonos" unicode="&#x38a;" horiz-adv-x="847" vert-adv-y="2457" 
d="M87 873l164 540h186l-220 -540h-130zM384 0l249 1413h185l-250 -1413h-184z" />
    <glyph glyph-name="Omicrontonos" unicode="&#x38c;" horiz-adv-x="1639" vert-adv-y="2457" 
d="M87 873l164 540h186l-220 -540h-130zM1109 1439q145 0 259 -60q126 -67 182 -208q47 -120 47 -269q0 -179 -55 -368q-84 -285 -258 -426q-163 -134 -392 -134q-230 0 -356 122q-139 135 -139 412q0 188 59 382q169 549 653 549zM1108 1305q-268 0 -406 -294
q-48 -103 -80 -256q-31 -151 -31 -281q0 -174 81 -275q73 -91 218 -91q264 0 402 294q48 104 80 261q31 149 31 274q0 158 -67 258q-74 110 -228 110z" />
    <glyph glyph-name="Upsilontonos" unicode="&#x38e;" horiz-adv-x="1323" vert-adv-y="2457" 
d="M-9 873l164 540h186l-220 -540h-130zM620 0l94 530l-289 883h192l145 -461q7 -22 41 -140l16 -56l16 -54l40 61q100 157 127 196l308 454h191l-602 -883l-94 -530h-185z" />
    <glyph glyph-name="Omegatonos" unicode="&#x38f;" horiz-adv-x="1760" vert-adv-y="2457" 
d="M87 873l164 540h186l-220 -540h-130zM345 0l23 135h372l16 91q-131 64 -201 141q-113 126 -113 318q0 163 65 321q85 210 255 325q158 108 388 108q282 0 430 -159q126 -136 126 -363q0 -296 -177 -488q-118 -128 -341 -213l-14 -81h395l-23 -135h-532l50 289
q169 66 268 166q101 100 145 257q35 123 35 235q0 155 -84 249q-97 109 -278 109q-296 0 -436 -290q-79 -162 -79 -359q0 -160 108 -264q56 -55 160 -103l-50 -289h-508z" />
    <glyph glyph-name="iotadieresistonos" unicode="&#x390;" horiz-adv-x="576" vert-adv-y="2457" 
d="M258 983h175l-114 -642q-22 -136 -22 -160q0 -79 74 -79q44 0 95 24l14 -123q-84 -29 -175 -29q-185 0 -185 171q0 64 17 162zM296 1132l121 325h195l-189 -325h-127zM185 1379q45 0 76 -31t31 -75q0 -43 -31 -74t-76 -31t-76 31t-31 76q0 43 31 73q32 31 76 31z
M679 1379q45 0 76 -31t31 -75q0 -43 -31 -74t-76 -31t-76 31t-31 76q0 43 31 73q32 31 76 31z" />
    <glyph glyph-name="Alpha" unicode="&#x391;" horiz-adv-x="1252" vert-adv-y="2457" 
d="M890 421h-565l-228 -421h-191l781 1413h190l281 -1413h-191zM867 554l-75 414q-3 15 -25 161q-11 72 -16 106q-89 -181 -128 -253l-229 -428h473z" />
    <glyph glyph-name="Beta" unicode="&#x392;" horiz-adv-x="1214" vert-adv-y="2457" 
d="M101 0l249 1413h403q228 0 323 -67q107 -75 107 -225q0 -165 -106 -272q-67 -69 -181 -97q94 -28 137 -68q78 -71 78 -221q0 -140 -65 -252q-66 -114 -189 -164q-112 -47 -296 -47h-460zM429 814h181q130 0 196 16q98 24 150 121q36 68 36 154q0 110 -72 149
q-49 26 -188 26h-220zM308 133h208q132 0 213 23q98 28 148 132q40 85 40 188q0 131 -89 174q-66 32 -244 32h-178z" />
    <glyph glyph-name="Gamma" unicode="&#x393;" horiz-adv-x="984" vert-adv-y="2457" 
d="M101 0l249 1413h751l-23 -135h-566l-226 -1278h-185z" />
    <glyph glyph-name="uni0394" unicode="&#x394;" horiz-adv-x="1249" vert-adv-y="2457" 
d="M1164 0h-1252l781 1413h190zM948 135l-151 833q-5 24 -26 160l-8 60l-7 47l-24 -47l-26 -55q-66 -128 -78 -151l-456 -847h776z" />
    <glyph glyph-name="Epsilon" unicode="&#x395;" horiz-adv-x="1096" vert-adv-y="2457" 
d="M101 0l249 1413h841l-23 -135h-656l-85 -475h499l-23 -132h-498l-96 -536h661l-23 -135h-846z" />
    <glyph glyph-name="Zeta" unicode="&#x396;" horiz-adv-x="1052" vert-adv-y="2457" 
d="M-40 0l19 112l933 1166h-667l23 135h878l-8 -110l-936 -1168h747l-23 -135h-966z" />
    <glyph glyph-name="Eta" unicode="&#x397;" horiz-adv-x="1370" vert-adv-y="2457" 
d="M101 0l249 1413h185l-108 -608h626l107 608h185l-249 -1413h-185l119 670h-626l-118 -670h-185z" />
    <glyph glyph-name="Theta" unicode="&#x398;" horiz-adv-x="1365" vert-adv-y="2457" 
d="M439 651l25 138h541l-25 -138h-541zM833 1439q145 0 260 -60q127 -67 183 -208q47 -120 47 -269q0 -179 -56 -368q-84 -285 -258 -426q-164 -134 -393 -134q-231 0 -358 122q-140 135 -140 411q0 189 60 383q85 279 260 419q162 130 395 130zM832 1305q-270 0 -408 -294
q-48 -103 -80 -256q-32 -151 -32 -283q0 -172 82 -273q74 -91 219 -91q266 0 404 294q49 104 81 261q31 149 31 277q0 155 -67 255q-75 110 -230 110z" />
    <glyph glyph-name="Iota" unicode="&#x399;" horiz-adv-x="569" vert-adv-y="2457" 
d="M105 0l249 1413h185l-249 -1413h-185z" />
    <glyph glyph-name="Kappa" unicode="&#x39a;" horiz-adv-x="1177" vert-adv-y="2457" 
d="M101 0l249 1413h185l-109 -616l696 616h206l-719 -633l539 -780h-214l-514 761l-134 -761h-185z" />
    <glyph glyph-name="Lambda" unicode="&#x39b;" horiz-adv-x="1202" vert-adv-y="2457" 
d="M-85 0l754 1413h190l255 -1413h-192l-154 968q-5 28 -22 160l-8 60l-6 47q-87 -185 -123 -253l-504 -982h-190z" />
    <glyph glyph-name="Mu" unicode="&#x39c;" horiz-adv-x="1780" vert-adv-y="2457" 
d="M62 0l403 1413h226l123 -906q14 -107 22 -291q81 205 136 316l435 881h232l-94 -1413h-172l59 843q2 33 16 200q10 112 18 202q-38 -86 -92 -202q-18 -41 -40 -89q-31 -70 -45 -99l-417 -855h-144l-113 841q-1 6 -22 207q-12 132 -19 197l-48 -183l-30 -112l-24 -89
l-245 -861h-165z" />
    <glyph glyph-name="Nu" unicode="&#x39d;" horiz-adv-x="1393" vert-adv-y="2457" 
d="M101 0l249 1413h221l299 -811q21 -56 66 -184l34 -93l29 -83q10 79 32 208q23 133 32 184l139 779h167l-250 -1413h-205l-318 876q-33 90 -91 256l-27 79q-17 -126 -53 -332l-158 -879h-166z" />
    <glyph glyph-name="Xi" unicode="&#x39e;" horiz-adv-x="1026" vert-adv-y="2457" 
d="M-18 0l24 139h890l-24 -139h-890zM224 668l23 137h643l-23 -137h-643zM230 1274l24 139h844l-23 -139h-845z" />
    <glyph glyph-name="Omicron" unicode="&#x39f;" horiz-adv-x="1360" vert-adv-y="2457" 
d="M830 1439q145 0 260 -60q125 -66 181 -208q47 -120 47 -269q0 -179 -55 -368q-84 -284 -258 -426q-163 -134 -392 -134q-230 0 -356 122q-139 135 -139 412q0 188 59 382q169 549 653 549zM830 1305q-269 0 -407 -294q-48 -103 -80 -256q-31 -151 -31 -281
q0 -174 81 -275q73 -91 218 -91q265 0 403 294q48 104 80 261q31 150 31 274q0 157 -67 258q-74 110 -228 110z" />
    <glyph glyph-name="Pi" unicode="&#x3a0;" horiz-adv-x="1360" vert-adv-y="2457" 
d="M122 0l226 1278h-143l23 135h1229l-23 -135h-144l-226 -1278h-185l226 1278h-572l-226 -1278h-185z" />
    <glyph glyph-name="Rho" unicode="&#x3a1;" horiz-adv-x="1157" vert-adv-y="2457" 
d="M101 0l249 1413h383q218 0 319 -79q53 -42 82 -115q30 -77 30 -165q0 -123 -54 -245q-114 -256 -484 -256h-243l-97 -553h-185zM406 686h165q150 0 224 33q87 39 133 137q44 94 44 199q0 136 -74 184q-62 41 -202 41h-184z" />
    <glyph glyph-name="Sigma" unicode="&#x3a3;" horiz-adv-x="1019" vert-adv-y="2457" 
d="M-30 0l17 109l491 642l-251 552l29 110h859l-23 -135h-669l246 -532l-462 -611h710l-23 -135h-924z" />
    <glyph glyph-name="Tau" unicode="&#x3a4;" horiz-adv-x="1131" vert-adv-y="2457" 
d="M386 0l226 1278h-396l23 135h967l-23 -135h-386l-226 -1278h-185z" />
    <glyph glyph-name="Upsilon" unicode="&#x3a5;" horiz-adv-x="1044" vert-adv-y="2457" 
d="M343 0l93 530l-289 883h192l145 -461q7 -22 41 -140q20 -69 32 -110q31 48 79 122q57 90 88 135l309 454h191l-603 -883l-94 -530h-184z" />
    <glyph glyph-name="Phi" unicode="&#x3a6;" horiz-adv-x="1627" vert-adv-y="2457" 
d="M620 -58l33 183q-199 21 -318 99q-202 133 -202 405q0 195 103 353q184 281 623 311l31 178h178l-32 -182q533 -55 533 -501q0 -195 -105 -352q-134 -200 -411 -277q-104 -30 -223 -37l-32 -180h-178zM675 253l162 911q-106 -13 -172 -33q-172 -53 -265 -219
q-75 -134 -75 -296q0 -224 160 -310q63 -35 190 -53zM852 251q86 11 143 24q208 49 310 236q72 132 72 288q0 225 -166 312q-64 33 -197 51z" />
    <glyph glyph-name="Chi" unicode="&#x3a7;" horiz-adv-x="1147" vert-adv-y="2457" 
d="M508 755l-149 375q-40 101 -119 283h203l141 -367q20 -54 60 -168q100 138 123 169l280 366h200q-137 -167 -207 -257l-327 -422l160 -405q41 -105 137 -329h-203l-165 429q-17 44 -65 178q-23 -30 -59 -80q-59 -79 -62 -84l-341 -443h-202q155 188 225 279z" />
    <glyph glyph-name="Psi" unicode="&#x3a8;" horiz-adv-x="1546" vert-adv-y="2457" 
d="M594 0l65 368q-171 8 -261 43q-110 42 -162 154q-33 74 -33 177q0 97 30 271l71 400h182l-76 -435q-29 -169 -29 -252q0 -171 161 -211q39 -10 140 -15l162 913h182l-161 -912q104 1 156 12q151 34 213 170q37 82 72 279l78 451h183l-94 -537q-24 -135 -48 -201
q-64 -177 -201 -249q-98 -52 -284 -59q-35 -2 -99 -3l-64 -364h-183z" />
    <glyph glyph-name="uni03A9" unicode="&#x3a9;" horiz-adv-x="1481" vert-adv-y="2457" 
d="M67 0l23 135h372l16 91q-132 64 -201 141q-114 126 -114 319q0 162 65 320q86 210 255 325q159 108 388 108q283 0 431 -159q126 -136 126 -363q0 -296 -177 -488q-119 -129 -341 -213l-14 -81h395l-24 -135h-531l50 289q170 66 269 166q100 100 145 257q35 123 35 235
q0 155 -84 249q-97 109 -279 109q-296 0 -436 -290q-79 -163 -79 -358q0 -161 108 -265q56 -55 160 -103l-50 -289h-508z" />
    <glyph glyph-name="Iotadieresis" unicode="&#x3aa;" horiz-adv-x="569" vert-adv-y="2457" 
d="M105 0l249 1413h185l-249 -1413h-185zM301 1791q47 0 80 -33q33 -32 33 -79q0 -45 -33 -78q-32 -33 -80 -33q-47 0 -80 33q-33 32 -33 80q0 45 33 77q33 33 80 33zM667 1791q47 0 80 -33q33 -32 33 -79q0 -46 -33 -78q-33 -33 -80 -33q-48 0 -80 33q-33 33 -33 80
q0 45 33 77q33 33 80 33z" />
    <glyph glyph-name="Upsilondieresis" unicode="&#x3ab;" horiz-adv-x="1044" vert-adv-y="2457" 
d="M343 0l93 530l-289 883h192l145 -461q7 -22 41 -140q20 -69 32 -110q31 48 79 122q57 90 88 135l309 454h191l-603 -883l-94 -530h-184zM527 1791q47 0 80 -33q33 -32 33 -79q0 -45 -33 -78q-32 -33 -80 -33q-47 0 -80 33t-33 80q0 45 33 77q34 33 80 33zM893 1791
q47 0 80 -33q33 -32 33 -79q0 -46 -33 -78q-33 -33 -80 -33q-48 0 -80 33q-33 33 -33 80q0 45 33 77q33 33 80 33z" />
    <glyph glyph-name="alphatonos" unicode="&#x3ac;" horiz-adv-x="1106" vert-adv-y="2457" 
d="M762 171q-46 -69 -84 -102q-109 -95 -272 -95q-321 0 -321 361q0 143 46 287q124 387 434 387q184 0 262 -115q30 -44 48 -121q32 142 43 213h153q-64 -281 -163 -546q-10 -93 -10 -168q0 -134 27 -166q20 -23 92 -28l-14 -82h-64q-123 0 -152 48q-20 33 -25 127z
M783 506l1 47q0 328 -195 328q-153 0 -247 -219q-72 -169 -72 -344q0 -216 178 -216q147 0 238 152q45 75 73 158q24 72 24 94zM584 1132l157 320h211l-237 -320h-131z" />
    <glyph glyph-name="epsilontonos" unicode="&#x3ad;" horiz-adv-x="922" vert-adv-y="2457" 
d="M750 152l4 -143q-130 -35 -311 -35q-208 0 -297 64q-87 62 -87 190q0 103 54 183q46 69 132 102q17 7 49 17q-48 31 -70 63q-37 53 -37 130q0 141 109 219q93 67 270 67q170 0 330 -54l-67 -135q-110 63 -244 63q-121 0 -178 -57q-45 -45 -45 -121q0 -65 46 -100
q37 -28 131 -28h194l-22 -126h-223q-134 0 -187 -55q-61 -62 -61 -163q0 -65 39 -95q53 -40 179 -40q145 0 292 54zM539 1132l157 320h211l-237 -320h-131z" />
    <glyph glyph-name="etatonos" unicode="&#x3ae;" horiz-adv-x="1130" vert-adv-y="2457" 
d="M87 0l114 646q31 170 50 337h162l-14 -158q175 184 359 184q118 0 182 -56q62 -54 62 -150q0 -68 -22 -191l-188 -1071h-176l191 1079q16 91 16 141q0 110 -118 110q-121 0 -258 -132q-48 -46 -64 -87q-9 -24 -16 -61l-105 -591h-175zM580 1132l157 320h211l-237 -320
h-131z" />
    <glyph glyph-name="iotatonos" unicode="&#x3af;" horiz-adv-x="576" vert-adv-y="2457" 
d="M258 983h175l-114 -642q-22 -136 -22 -160q0 -79 74 -79q44 0 95 24l14 -123q-84 -29 -175 -29q-185 0 -185 171q0 64 17 162zM308 1132l157 320h211l-237 -320h-131z" />
    <glyph glyph-name="upsilondieresistonos" unicode="&#x3b0;" horiz-adv-x="1088" vert-adv-y="2457" 
d="M252 983h175l-104 -589q-14 -79 -14 -129q0 -79 38 -116q40 -40 131 -40q128 0 186 85q41 61 64 190l106 599h175l-107 -603q-20 -113 -35 -160q-42 -134 -144 -194q-89 -52 -255 -52q-187 0 -268 78q-66 63 -66 183q0 85 27 237zM545 1132l121 325h195l-189 -325h-127z
M434 1379q45 0 76 -31t31 -75q0 -43 -31 -74t-76 -31t-76 31t-31 76q0 43 31 73q32 31 76 31zM928 1379q45 0 76 -31t31 -75q0 -43 -31 -74t-76 -31t-76 31t-31 76q0 43 31 73q32 31 76 31z" />
    <glyph glyph-name="alpha" unicode="&#x3b1;" horiz-adv-x="1106" vert-adv-y="2457" 
d="M762 171q-46 -69 -84 -102q-109 -95 -272 -95q-321 0 -321 361q0 143 46 287q124 387 434 387q184 0 262 -115q30 -44 48 -121q32 142 43 213h153q-64 -281 -163 -546q-10 -93 -10 -168q0 -134 27 -166q20 -23 92 -28l-14 -82h-64q-123 0 -152 48q-20 33 -25 127z
M783 506l1 47q0 328 -195 328q-153 0 -247 -219q-72 -169 -72 -344q0 -216 178 -216q147 0 238 152q45 75 73 158q24 72 24 94z" />
    <glyph glyph-name="beta" unicode="&#x3b2;" horiz-adv-x="1116" vert-adv-y="2457" 
d="M261 17l-83 -473h-176l251 1421q34 193 60 260q55 143 161 206q87 51 220 51q195 0 296 -97q87 -83 87 -228q0 -157 -102 -262q-55 -57 -163 -104q192 -70 192 -313q0 -196 -111 -334q-63 -79 -157 -123q-99 -47 -215 -47q-148 0 -260 43zM286 165q85 -63 218 -63
q173 0 257 154q58 106 58 248q0 166 -106 206q-36 14 -135 15l20 113q138 7 208 74q49 48 76 132q18 58 18 115q0 91 -54 141q-57 54 -154 54q-126 0 -192 -122q-26 -48 -45 -128q-10 -43 -36 -188z" />
    <glyph glyph-name="gamma" unicode="&#x3b3;" horiz-adv-x="933" vert-adv-y="2457" 
d="M298 19l-188 964h182l98 -564q12 -72 31 -220q74 165 107 227l293 557h176l-522 -953l-86 -489h-176z" />
    <glyph glyph-name="delta" unicode="&#x3b4;" horiz-adv-x="1085" vert-adv-y="2457" 
d="M523 922q-53 32 -82 61q-73 71 -73 180q0 96 52 175q93 144 340 144q147 0 274 -43l-57 -141q-93 58 -221 58q-95 0 -152 -37q-70 -45 -70 -139q0 -61 42 -103q33 -34 75 -58l117 -68q112 -65 164 -155q55 -95 55 -232q0 -122 -41 -243q-58 -169 -197 -266
q-117 -81 -276 -81q-193 0 -296 119q-90 104 -90 264q0 167 71 305q82 159 238 225q50 20 127 35zM604 818q-172 0 -262 -175q-70 -136 -70 -290q0 -251 202 -251q173 0 263 186q65 134 65 282q0 248 -198 248z" />
    <glyph glyph-name="epsilon" unicode="&#x3b5;" horiz-adv-x="922" vert-adv-y="2457" 
d="M750 152l4 -143q-130 -35 -311 -35q-208 0 -297 64q-87 62 -87 190q0 103 54 183q46 69 132 102q17 7 49 17q-48 31 -70 63q-37 53 -37 130q0 141 109 219q93 67 270 67q170 0 330 -54l-67 -135q-110 63 -244 63q-121 0 -178 -57q-45 -45 -45 -121q0 -65 46 -100
q37 -28 131 -28h194l-22 -126h-223q-134 0 -187 -55q-61 -62 -61 -163q0 -65 39 -95q53 -40 179 -40q145 0 292 54z" />
    <glyph glyph-name="zeta" unicode="&#x3b6;" horiz-adv-x="814" vert-adv-y="2457" 
d="M286 1341l33 135q138 -19 367 -19h263l-31 -174q-286 -256 -425 -440q-126 -167 -184 -336q-44 -129 -44 -229q0 -82 48 -116q27 -20 141 -54q113 -33 150 -62q58 -44 58 -137q0 -100 -65 -231q-37 -73 -88 -137h-178q158 195 158 330q0 55 -42 78q-23 12 -110 34
q-127 33 -174 69q-83 62 -83 199q0 191 121 422q111 210 363 457q84 82 213 196h-154q-190 0 -337 15z" />
    <glyph glyph-name="eta" unicode="&#x3b7;" horiz-adv-x="1130" vert-adv-y="2457" 
d="M87 0l114 646q31 170 50 337h162l-14 -158q175 184 359 184q118 0 182 -56q62 -54 62 -150q0 -68 -22 -191l-188 -1071h-176l191 1079q16 91 16 141q0 110 -118 110q-121 0 -258 -132q-48 -46 -64 -87q-9 -24 -16 -61l-105 -591h-175z" />
    <glyph glyph-name="theta" unicode="&#x3b8;" horiz-adv-x="1077" vert-adv-y="2457" 
d="M698 1482q177 0 262 -140q85 -141 85 -351q0 -217 -62 -450q-78 -291 -225 -440q-124 -127 -289 -127q-180 0 -266 138q-88 140 -88 365q0 202 63 438q78 291 224 440q125 127 296 127zM335 809h517q15 116 15 206q0 334 -178 334q-231 0 -354 -540zM312 677
q-19 -141 -19 -238q0 -337 178 -337q157 0 266 257q54 128 94 318h-519z" />
    <glyph glyph-name="iota" unicode="&#x3b9;" horiz-adv-x="576" vert-adv-y="2457" 
d="M258 983h175l-114 -642q-22 -136 -22 -160q0 -79 74 -79q44 0 95 24l14 -123q-84 -29 -175 -29q-185 0 -185 171q0 64 17 162z" />
    <glyph glyph-name="kappa" unicode="&#x3ba;" horiz-adv-x="972" vert-adv-y="2457" 
d="M87 0l173 983h176l-75 -425l477 425h204l-508 -438l360 -545h-202l-336 526l-94 -526h-175z" />
    <glyph glyph-name="lambda" unicode="&#x3bb;" horiz-adv-x="935" vert-adv-y="2457" 
d="M-84 0l566 1008q-25 121 -49 179q-32 73 -79 117q-9 8 -51 44l125 135q76 -55 124 -141q54 -97 88 -294l182 -1048h-175l-89 599q-10 63 -24 180l-6 46l-23 -46l-28 -56q-50 -101 -68 -135l-318 -588h-175z" />
    <glyph glyph-name="uni03BC" unicode="&#x3bc;" horiz-adv-x="1104" vert-adv-y="2457" 
d="M261 983h176l-94 -532q-22 -122 -22 -171q0 -81 33 -120q41 -51 123 -51q121 0 240 161l126 713h175l-128 -727q-24 -133 -29 -256h-154q-1 26 -1 42q0 23 3 73q-40 -44 -66 -65q-94 -76 -209 -76q-98 0 -165 57l-87 -490h-175z" />
    <glyph glyph-name="nu" unicode="&#x3bd;" horiz-adv-x="936" vert-adv-y="2457" 
d="M292 0l-164 983h177l71 -479q8 -53 21 -154l12 -90l8 -61l36 74l40 85q47 98 70 144l244 481h175l-520 -983h-170z" />
    <glyph glyph-name="xi" unicode="&#x3be;" horiz-adv-x="905" vert-adv-y="2457" 
d="M290 1341l33 134q144 -18 381 -18h307l-23 -135h-46q-207 0 -325 -59q-82 -41 -122 -126q-28 -59 -28 -121q0 -174 246 -174h118l-22 -132h-106q-139 0 -218 -33q-120 -51 -174 -184q-41 -100 -41 -197q0 -92 57 -129q34 -22 161 -56q102 -28 125 -38q115 -49 115 -167
q0 -101 -65 -230q-37 -72 -87 -135h-178q157 193 157 326q0 58 -50 81q-25 12 -124 35q-136 30 -200 78q-96 70 -96 225q0 119 48 236q87 208 319 257q-66 31 -91 53q-71 64 -71 179q0 222 273 315q-142 0 -273 15z" />
    <glyph glyph-name="omicron" unicode="&#x3bf;" horiz-adv-x="1081" vert-adv-y="2457" 
d="M620 1009q173 0 273 -107q98 -104 98 -284q0 -132 -44 -266q-61 -190 -206 -294q-118 -84 -273 -84q-181 0 -281 107q-97 104 -97 287q0 140 49 281q60 173 197 273q120 87 284 87zM611 881q-174 0 -267 -201q-69 -148 -69 -319q0 -259 199 -259q171 0 264 203
q68 150 68 317q0 259 -195 259z" />
    <glyph glyph-name="rho" unicode="&#x3c1;" horiz-adv-x="1071" vert-adv-y="2457" 
d="M232 34l-86 -490h-176l174 982q19 112 33 155q103 328 424 328q189 0 290 -114q90 -102 90 -285q0 -228 -105 -402q-58 -96 -148 -156q-119 -78 -261 -78q-131 0 -235 60zM258 184q39 -33 56 -43q64 -39 151 -39q173 0 264 201q67 147 67 321q0 257 -193 257
q-157 0 -237 -182q-30 -69 -55 -218z" />
    <glyph glyph-name="uni03C2" unicode="&#x3c2;" horiz-adv-x="789" vert-adv-y="2457" 
d="M271 -459q159 195 159 340q0 55 -38 80q-19 12 -100 38q-115 36 -160 80q-71 71 -71 218q0 189 79 386q72 181 196 260q105 66 255 66q148 0 252 -55l-69 -140q-71 67 -175 67q-167 0 -263 -181q-36 -68 -63 -184q-27 -114 -27 -202q0 -62 25 -104q20 -36 105 -71
q20 -8 102 -38q125 -45 125 -182q0 -108 -66 -241q-36 -71 -88 -137h-178z" />
    <glyph glyph-name="sigma" unicode="&#x3c3;" horiz-adv-x="1079" vert-adv-y="2457" 
d="M862 858q110 -111 110 -281q0 -123 -43 -250q-61 -176 -196 -272q-113 -81 -265 -81q-179 0 -281 108q-98 103 -98 279q0 173 69 329q89 202 267 265q77 28 223 28h483l-33 -132zM597 854q-168 0 -258 -195q-65 -139 -65 -300q0 -257 197 -257q167 0 257 196
q66 143 66 300q0 256 -197 256z" />
    <glyph glyph-name="tau" unicode="&#x3c4;" horiz-adv-x="837" vert-adv-y="2457" 
d="M345 850h-272l28 133h783l-28 -133h-335l-85 -474q-19 -107 -19 -176q0 -48 21 -72q24 -26 84 -26q74 0 148 40l-1 -137q-99 -31 -209 -31q-225 0 -225 184q0 73 24 209z" />
    <glyph glyph-name="upsilon" unicode="&#x3c5;" horiz-adv-x="1088" vert-adv-y="2457" 
d="M252 983h175l-104 -589q-14 -79 -14 -129q0 -79 38 -116q40 -40 131 -40q128 0 186 85q41 61 64 190l106 599h175l-107 -603q-20 -113 -35 -160q-42 -134 -144 -194q-89 -52 -255 -52q-187 0 -268 78q-66 63 -66 183q0 85 27 237z" />
    <glyph glyph-name="phi" unicode="&#x3c6;" horiz-adv-x="1387" vert-adv-y="2457" 
d="M527 109l79 445q24 143 41 203q35 130 110 188t194 58q179 0 268 -115q80 -104 80 -273q0 -190 -81 -339q-151 -275 -542 -303l-75 -432h-173l75 431q-146 14 -249 86q-167 115 -167 339q0 359 339 553l56 -121q-215 -157 -215 -425q0 -178 116 -250q54 -32 144 -45z
M698 108q186 21 285 126q76 81 111 224q22 90 22 174q0 243 -157 243q-96 0 -134 -92q-16 -39 -41 -185z" />
    <glyph glyph-name="chi" unicode="&#x3c7;" horiz-adv-x="841" vert-adv-y="2457" 
d="M301 343l-48 213q-9 39 -36 123q-31 96 -70 143q-21 25 -57 52l125 142q66 -54 104 -118q45 -76 91 -285l28 -122q67 118 92 157l214 335h182l-441 -645l71 -284q51 -206 91 -311q29 -75 73 -129l-151 -116q-58 70 -95 191q-9 28 -73 283l-53 212q-43 -88 -95 -177
l-274 -464l-184 -4z" />
    <glyph glyph-name="psi" unicode="&#x3c8;" horiz-adv-x="1364" vert-adv-y="2457" 
d="M280 1002l161 -35q-169 -448 -169 -635q0 -137 118 -191q52 -23 143 -32l153 857h163l-151 -859q259 18 326 176q68 162 68 548q0 37 -1 136l173 35q4 -156 4 -197q0 -419 -86 -588q-63 -123 -209 -187q-106 -46 -298 -56l-75 -433h-167l77 437q-168 15 -253 62
q-168 93 -168 287q0 220 191 675z" />
    <glyph glyph-name="omega" unicode="&#x3c9;" horiz-adv-x="1387" vert-adv-y="2457" 
d="M630 127q-102 -153 -263 -153q-155 0 -228 103q-58 81 -58 229q0 313 252 696l155 -43q-102 -164 -152 -286q-78 -193 -78 -377q0 -194 138 -194q95 0 148 107q29 57 55 207l48 270h162l-48 -270q-21 -120 -21 -173q0 -71 40 -108q36 -33 94 -33q132 0 190 155
q46 124 46 309q0 188 -71 376l160 60q88 -226 88 -438q0 -274 -101 -428q-105 -162 -313 -162q-185 0 -243 153z" />
    <glyph glyph-name="iotadieresis" unicode="&#x3ca;" horiz-adv-x="576" vert-adv-y="2457" 
d="M256 983h175l-114 -642q-22 -136 -22 -160q0 -79 74 -79q44 0 95 24l14 -123q-84 -29 -175 -29q-185 0 -185 171q0 64 17 162zM251 1384q47 0 80 -33q33 -32 33 -79q0 -45 -33 -78q-32 -33 -80 -33q-47 0 -80 33t-33 80q0 45 33 77q34 33 80 33zM617 1384q47 0 80 -33
q33 -32 33 -79q0 -46 -33 -78q-33 -33 -80 -33q-48 0 -80 33q-33 33 -33 80q0 45 33 77q33 33 80 33z" />
    <glyph glyph-name="upsilondieresis" unicode="&#x3cb;" horiz-adv-x="1088" vert-adv-y="2457" 
d="M252 983h175l-104 -589q-14 -79 -14 -129q0 -79 38 -116q40 -40 131 -40q128 0 186 85q41 61 64 190l106 599h175l-107 -603q-20 -113 -35 -160q-42 -134 -144 -194q-89 -52 -255 -52q-187 0 -268 78q-66 63 -66 183q0 85 27 237zM509 1384q47 0 80 -33q33 -32 33 -79
q0 -45 -33 -78t-80 -33t-80 33t-33 80q0 45 33 77q33 33 80 33zM854 1384q47 0 80 -33q33 -32 33 -79q0 -46 -33 -78q-33 -33 -80 -33t-80 33t-33 80q0 45 33 77q33 33 80 33z" />
    <glyph glyph-name="omicrontonos" unicode="&#x3cc;" horiz-adv-x="1081" vert-adv-y="2457" 
d="M620 1009q173 0 273 -107q98 -104 98 -284q0 -132 -44 -266q-61 -190 -206 -294q-118 -84 -273 -84q-181 0 -281 107q-97 104 -97 287q0 140 49 281q60 173 197 273q120 87 284 87zM611 881q-174 0 -267 -201q-69 -148 -69 -319q0 -259 199 -259q171 0 264 203
q68 150 68 317q0 259 -195 259zM574 1146l185 262h232l-279 -262h-138z" />
    <glyph glyph-name="upsilontonos" unicode="&#x3cd;" horiz-adv-x="1088" vert-adv-y="2457" 
d="M252 983h175l-104 -589q-14 -79 -14 -129q0 -79 38 -116q40 -40 131 -40q128 0 186 85q41 61 64 190l106 599h175l-107 -603q-20 -113 -35 -160q-42 -134 -144 -194q-89 -52 -255 -52q-187 0 -268 78q-66 63 -66 183q0 85 27 237zM572 1132l157 320h211l-237 -320h-131z
" />
    <glyph glyph-name="omegatonos" unicode="&#x3ce;" horiz-adv-x="1387" vert-adv-y="2457" 
d="M630 127q-102 -153 -263 -153q-155 0 -228 103q-58 81 -58 229q0 313 252 696l155 -43q-102 -164 -152 -286q-78 -193 -78 -377q0 -194 138 -194q95 0 148 107q29 57 55 207l48 270h162l-48 -270q-21 -120 -21 -173q0 -71 40 -108q36 -33 94 -33q132 0 190 155
q46 124 46 309q0 188 -71 376l160 60q88 -226 88 -438q0 -274 -101 -428q-105 -162 -313 -162q-185 0 -243 153zM710 1132l157 320h211l-237 -320h-131z" />
    <glyph glyph-name="afii10023" unicode="&#x401;" horiz-adv-x="1096" vert-adv-y="2457" 
d="M101 0l249 1413h841l-23 -135h-656l-85 -475h499l-23 -132h-498l-96 -536h661l-23 -135h-846zM616 1791q48 0 81 -33q32 -32 32 -79q0 -46 -32 -78q-33 -33 -81 -33q-47 0 -80 33t-33 80q0 45 33 77q34 33 80 33zM983 1791q47 0 80 -33q33 -32 33 -79q0 -46 -33 -78
q-32 -33 -80 -33t-81 33q-32 32 -32 80q0 45 32 77q34 33 81 33z" />
    <glyph glyph-name="afii10051" unicode="&#x402;" horiz-adv-x="1458" vert-adv-y="2457" 
d="M247 0l226 1278h-292l23 135h909l-23 -135h-432l-87 -489q195 142 397 142q154 0 239 -69q102 -84 102 -244q0 -147 -54 -458q-72 -411 -152 -512q-99 -123 -302 -123q-114 0 -197 30l41 127q74 -36 152 -36q111 0 162 87q45 78 110 435q54 298 54 429q0 200 -209 200
q-194 0 -371 -168l-111 -629h-185z" />
    <glyph glyph-name="afii10052" unicode="&#x403;" horiz-adv-x="984" vert-adv-y="2457" 
d="M101 0l249 1413h751l-23 -135h-566l-226 -1278h-185zM631 1550l185 262h232l-279 -262h-138z" />
    <glyph glyph-name="afii10053" unicode="&#x404;" horiz-adv-x="1070" vert-adv-y="2457" 
d="M964 180l3 -155q-171 -51 -342 -51q-240 0 -363 115q-144 134 -144 397q0 244 92 487q91 239 246 359q138 107 345 107q181 0 365 -64l-63 -154q-148 84 -294 84q-142 0 -242 -93q-142 -131 -210 -410h625l-23 -134h-628q-19 -107 -19 -187q0 -190 85 -286
q77 -88 245 -88q153 0 322 73z" />
    <glyph glyph-name="afii10054" unicode="&#x405;" horiz-adv-x="1015" vert-adv-y="2457" 
d="M-26 59l60 155q163 -106 356 -106q164 0 254 70q93 74 93 211q0 85 -47 139q-33 37 -76 63q-36 22 -103 58q-151 83 -227 152q-98 89 -98 233q0 187 124 297q122 108 343 108q172 0 346 -61l-72 -150q-135 77 -264 77q-140 0 -216 -66t-76 -176q0 -83 60 -139
q42 -40 181 -117q161 -90 227 -158q83 -86 83 -233q0 -209 -135 -326q-134 -116 -392 -116q-240 0 -421 85z" />
    <glyph glyph-name="afii10055" unicode="&#x406;" horiz-adv-x="569" vert-adv-y="2457" 
d="M105 0l249 1413h185l-249 -1413h-185z" />
    <glyph glyph-name="afii10056" unicode="&#x407;" horiz-adv-x="569" vert-adv-y="2457" 
d="M105 0l249 1413h185l-249 -1413h-185zM301 1791q47 0 80 -33q33 -32 33 -79q0 -45 -33 -78q-32 -33 -80 -33q-47 0 -80 33q-33 32 -33 80q0 45 33 77q33 33 80 33zM667 1791q47 0 80 -33q33 -32 33 -79q0 -46 -33 -78q-33 -33 -80 -33q-48 0 -80 33q-33 33 -33 80
q0 45 33 77q33 33 80 33z" />
    <glyph glyph-name="afii10057" unicode="&#x408;" horiz-adv-x="604" vert-adv-y="2457" 
d="M390 1413h184l-208 -1180q-36 -204 -60 -291q-104 -374 -457 -374q-99 0 -197 24l45 138q80 -28 154 -28q166 0 237 161q47 106 93 367z" />
    <glyph glyph-name="afii10058" unicode="&#x409;" horiz-adv-x="1842" vert-adv-y="2457" 
d="M792 0l226 1278h-439l-22 -119q-33 -186 -96 -443q-115 -469 -217 -599q-57 -72 -124 -98q-50 -19 -131 -19h-77l35 136h45q76 0 126 70q69 95 147 406q80 321 126 582l38 219h797l-98 -556h209q242 0 343 -84q100 -85 100 -253q0 -150 -62 -283q-63 -136 -201 -192
q-111 -45 -294 -45h-431zM1000 133h182q116 0 142.5 2.5t68.5 16.5q100 35 146 142q48 110 48 235q0 111 -73 158q-59 38 -226 38h-183z" />
    <glyph glyph-name="afii10059" unicode="&#x40a;" horiz-adv-x="1964" vert-adv-y="2457" 
d="M914 0l124 699h-628l-124 -699h-185l249 1413h185l-102 -579h628l102 579h185l-98 -556h209q243 0 343 -84q100 -85 100 -250q0 -150 -62 -282q-64 -134 -200 -193q-112 -48 -295 -48h-431zM1122 133h183q131 0 209 25q98 31 146 140t48 232q0 112 -73 158
q-58 37 -225 37h-183z" />
    <glyph glyph-name="afii10060" unicode="&#x40b;" horiz-adv-x="1458" vert-adv-y="2457" 
d="M247 0l226 1278h-292l23 135h909l-23 -135h-432l-87 -489q195 143 403 143q176 0 262 -87q72 -74 72 -202q0 -89 -27 -242l-71 -401h-184l78 440q18 104 18 178q0 95 -51 138q-50 42 -157 42q-193 0 -371 -169l-111 -629h-185z" />
    <glyph glyph-name="afii10061" unicode="&#x40c;" horiz-adv-x="1230" vert-adv-y="2457" 
d="M101 0l249 1413h185l-108 -609h93q62 0 110 19q55 21 120 118q17 25 114 192q64 111 99 156q55 71 138 101q62 23 159 23h71l-37 -135h-40q-60 0 -94.5 -18t-74.5 -69q-35 -47 -116 -190q-60 -106 -117 -169q-37 -40 -90 -71q72 -27 114 -85q35 -51 67 -129
q12 -30 50 -151l126 -396h-208l-104 345q-36 131 -55 176q-40 98 -88 131q-39 26 -117 26h-142l-119 -678h-185zM722 1550l185 262h232l-279 -262h-138z" />
    <glyph glyph-name="uni040D" unicode="&#x40d;" horiz-adv-x="1335" vert-adv-y="2457" 
d="M101 0l249 1413h172l-145 -809q-22 -126 -52 -273q160 208 225 287l572 702l38 93h150l-249 -1413h-172l146 813q20 117 41 219l10 49l-34 -44l-44 -57q-67 -88 -102 -130l-618 -757l-37 -93h-150zM813 1550l-188 262h222l94 -262h-128z" />
    <glyph glyph-name="afii10062" unicode="&#x40e;" horiz-adv-x="1021" vert-adv-y="2457" 
d="M430 452l-311 961h190l184 -610q19 -61 39 -150l8 -35q57 109 111 202l348 593h189l-858 -1413h-190zM402 1819h141q-1 -20 -1 -31q0 -118 138 -118q102 0 150 62q22 29 38 87h146q-53 -280 -344 -280q-157 0 -226 78q-47 53 -47 140q0 23 5 62z" />
    <glyph glyph-name="afii10145" unicode="&#x40f;" horiz-adv-x="1332" vert-adv-y="2457" 
d="M101 0l249 1413h185l-226 -1278h587l227 1278h184l-249 -1413h-385l-89 -352h-133l36 352h-386z" />
    <glyph glyph-name="afii10017" unicode="&#x410;" horiz-adv-x="1252" vert-adv-y="2457" 
d="M890 421h-565l-228 -421h-191l781 1413h190l281 -1413h-191zM867 554l-75 414q-3 15 -25 161q-11 72 -16 106q-89 -181 -128 -253l-229 -428h473z" />
    <glyph glyph-name="afii10018" unicode="&#x411;" horiz-adv-x="1178" vert-adv-y="2457" 
d="M101 0l249 1413h793l-23 -135h-608l-75 -421h209q243 0 343 -84q101 -84 101 -250q0 -150 -62 -282q-64 -134 -201 -193q-112 -48 -295 -48h-431zM309 133h182q132 0 210 25q99 31 147 140t48 233q0 110 -73 157q-59 37 -226 37h-183z" />
    <glyph glyph-name="afii10019" unicode="&#x412;" horiz-adv-x="1214" vert-adv-y="2457" 
d="M101 0l249 1413h403q228 0 323 -67q107 -75 107 -225q0 -165 -106 -272q-67 -69 -181 -97q94 -28 137 -68q78 -71 78 -221q0 -140 -65 -252q-66 -114 -189 -164q-112 -47 -296 -47h-460zM429 814h181q130 0 196 16q98 24 150 121q36 68 36 154q0 110 -72 149
q-49 26 -188 26h-220zM308 133h208q132 0 213 23q98 28 148 132q40 85 40 188q0 131 -89 174q-66 32 -244 32h-178z" />
    <glyph glyph-name="afii10020" unicode="&#x413;" horiz-adv-x="984" vert-adv-y="2457" 
d="M101 0l249 1413h751l-23 -135h-566l-226 -1278h-185z" />
    <glyph glyph-name="afii10021" unicode="&#x414;" horiz-adv-x="1267" vert-adv-y="2457" 
d="M921 0h-851l-91 -353h-145l85 488h132q81 109 160 361q96 304 165 698l39 219h796l-226 -1278h132l-85 -488h-144zM800 135l203 1143h-444l-21 -119q-121 -667 -310 -1024h572z" />
    <glyph glyph-name="afii10022" unicode="&#x415;" horiz-adv-x="1096" vert-adv-y="2457" 
d="M101 0l249 1413h841l-23 -135h-656l-85 -475h499l-23 -132h-498l-96 -536h661l-23 -135h-846z" />
    <glyph glyph-name="afii10024" unicode="&#x416;" horiz-adv-x="1775" vert-adv-y="2457" 
d="M709 0l119 678h-75q-79 0 -126 -26q-61 -35 -135 -131q-33 -44 -116 -176l-224 -345h-214l264 396q161 243 254 311q50 37 129 62q-44 35 -70 93q-27 63 -59 212q-23 106 -57 157q-31 47 -119 47h-55l11 135h74q186 0 242 -95q25 -42 50 -141q6 -22 44 -187
q27 -115 73 -154q37 -31 122 -31h9l108 608h184l-107 -609h33q117 0 182 73q45 51 161 257q65 114 95 155q55 72 133 101q60 23 153 23h72l-38 -135h-36q-67 0 -106 -29t-95 -123q-15 -26 -71 -127q-61 -108 -118 -171q-34 -37 -103 -78q55 -21 97 -78q56 -74 120 -276
l126 -396h-201l-103 345q-36 131 -55 176q-40 98 -89 131q-38 26 -117 26h-63l-119 -678h-184z" />
    <glyph glyph-name="afii10025" unicode="&#x417;" horiz-adv-x="1196" vert-adv-y="2457" 
d="M312 681l23 134h213q126 0 196 27q91 36 144 120q45 71 45 152q0 92 -61 137q-73 54 -199 54q-160 0 -357 -84l-10 154q208 64 390 64q206 0 318 -90q103 -83 103 -228q0 -245 -281 -356q103 -29 148 -79q72 -79 72 -207q0 -115 -48 -221q-129 -284 -550 -284
q-240 0 -421 77l49 159q168 -102 366 -102q256 0 350 147q61 95 61 219q0 117 -79 167q-64 40 -226 40h-246z" />
    <glyph glyph-name="afii10026" unicode="&#x418;" horiz-adv-x="1335" vert-adv-y="2457" 
d="M101 0l249 1413h172l-145 -809q-22 -126 -52 -273q160 208 225 287l572 702l38 93h150l-249 -1413h-172l146 813q20 117 41 219l10 49l-34 -44l-44 -57q-67 -88 -102 -130l-618 -757l-37 -93h-150z" />
    <glyph glyph-name="afii10027" unicode="&#x419;" horiz-adv-x="1335" vert-adv-y="2457" 
d="M101 0l249 1413h172l-145 -809q-22 -126 -52 -273q160 208 225 287l572 702l38 93h150l-249 -1413h-172l146 813q20 117 41 219l10 49l-34 -44l-44 -57q-67 -88 -102 -130l-618 -757l-37 -93h-150zM583 1819h141q-1 -20 -1 -31q0 -118 138 -118q102 0 150 62q22 29 38 87
h146q-53 -280 -344 -280q-157 0 -226 78q-47 53 -47 140q0 23 5 62z" />
    <glyph glyph-name="afii10028" unicode="&#x41a;" horiz-adv-x="1230" vert-adv-y="2457" 
d="M101 0l249 1413h185l-108 -609h93q62 0 110 19q55 21 120 118q17 25 114 192q64 111 99 156q55 71 138 101q62 23 159 23h71l-37 -135h-40q-60 0 -94.5 -18t-74.5 -69q-35 -47 -116 -190q-60 -106 -117 -169q-37 -40 -90 -71q72 -27 114 -85q35 -51 67 -129
q12 -30 50 -151l126 -396h-208l-104 345q-36 131 -55 176q-40 98 -88 131q-39 26 -117 26h-142l-119 -678h-185z" />
    <glyph glyph-name="afii10029" unicode="&#x41b;" horiz-adv-x="1251" vert-adv-y="2457" 
d="M-88 0l35 135h45q76 0 126 70q69 95 147 405q79 313 126 583l38 220h796l-249 -1413h-184l226 1278h-439l-22 -119q-34 -193 -96 -446q-115 -467 -217 -596q-57 -72 -124 -98q-50 -19 -131 -19h-77z" />
    <glyph glyph-name="afii10030" unicode="&#x41c;" horiz-adv-x="1780" vert-adv-y="2457" 
d="M62 0l403 1413h226l123 -906q14 -107 22 -291q81 205 136 316l435 881h232l-94 -1413h-172l59 843q2 33 16 200q10 112 18 202q-38 -86 -92 -202q-18 -41 -40 -89q-31 -70 -45 -99l-417 -855h-144l-113 841q-1 6 -22 207q-12 132 -19 197l-48 -183l-30 -112l-24 -89
l-245 -861h-165z" />
    <glyph glyph-name="afii10031" unicode="&#x41d;" horiz-adv-x="1370" vert-adv-y="2457" 
d="M101 0l249 1413h185l-108 -608h626l107 608h185l-249 -1413h-185l119 670h-626l-118 -670h-185z" />
    <glyph glyph-name="afii10032" unicode="&#x41e;" horiz-adv-x="1360" vert-adv-y="2457" 
d="M830 1439q145 0 260 -60q125 -66 181 -208q47 -120 47 -269q0 -179 -55 -368q-84 -284 -258 -426q-163 -134 -392 -134q-230 0 -356 122q-139 135 -139 412q0 188 59 382q169 549 653 549zM830 1305q-269 0 -407 -294q-48 -103 -80 -256q-31 -151 -31 -281
q0 -174 81 -275q73 -91 218 -91q265 0 403 294q48 104 80 261q31 150 31 274q0 157 -67 258q-74 110 -228 110z" />
    <glyph glyph-name="afii10033" unicode="&#x41f;" horiz-adv-x="1353" vert-adv-y="2457" 
d="M101 0l249 1413h979l-249 -1413h-185l226 1278h-609l-226 -1278h-185z" />
    <glyph glyph-name="afii10034" unicode="&#x420;" horiz-adv-x="1157" vert-adv-y="2457" 
d="M101 0l249 1413h383q218 0 319 -79q53 -42 82 -115q30 -77 30 -165q0 -123 -54 -245q-114 -256 -484 -256h-243l-97 -553h-185zM406 686h165q150 0 224 33q87 39 133 137q44 94 44 199q0 136 -74 184q-62 41 -202 41h-184z" />
    <glyph glyph-name="afii10035" unicode="&#x421;" horiz-adv-x="1059" vert-adv-y="2457" 
d="M953 180l3 -155q-170 -51 -345 -51q-493 0 -493 506q0 253 96 497q182 462 606 462q168 0 335 -64l-63 -154q-132 84 -264 84q-248 0 -393 -287q-59 -116 -93 -277q-30 -140 -30 -262q0 -371 312 -371q158 0 329 72z" />
    <glyph glyph-name="afii10036" unicode="&#x422;" horiz-adv-x="1131" vert-adv-y="2457" 
d="M386 0l226 1278h-396l23 135h967l-23 -135h-386l-226 -1278h-185z" />
    <glyph glyph-name="afii10037" unicode="&#x423;" horiz-adv-x="1021" vert-adv-y="2457" 
d="M430 452l-311 961h190l184 -610q19 -61 39 -150l8 -35q57 109 111 202l348 593h189l-858 -1413h-190z" />
    <glyph glyph-name="afii10038" unicode="&#x424;" horiz-adv-x="1627" vert-adv-y="2457" 
d="M620 -58l33 183q-199 21 -318 99q-202 133 -202 405q0 195 103 353q184 281 623 311l31 178h178l-32 -182q533 -55 533 -501q0 -195 -105 -352q-134 -200 -411 -277q-104 -30 -223 -37l-32 -180h-178zM675 253l162 911q-106 -13 -172 -33q-172 -53 -265 -219
q-75 -134 -75 -296q0 -224 160 -310q63 -35 190 -53zM852 251q86 11 143 24q208 49 310 236q72 132 72 288q0 225 -166 312q-64 33 -197 51z" />
    <glyph glyph-name="afii10039" unicode="&#x425;" horiz-adv-x="1147" vert-adv-y="2457" 
d="M508 755l-149 375q-40 101 -119 283h203l141 -367q20 -54 60 -168q100 138 123 169l280 366h200q-137 -167 -207 -257l-327 -422l160 -405q41 -105 137 -329h-203l-165 429q-17 44 -65 178q-23 -30 -59 -80q-59 -79 -62 -84l-341 -443h-202q155 188 225 279z" />
    <glyph glyph-name="afii10040" unicode="&#x426;" horiz-adv-x="1354" vert-adv-y="2457" 
d="M101 0l249 1413h185l-226 -1278h588l226 1278h185l-226 -1278h132l-85 -487h-144l33 352h-917z" />
    <glyph glyph-name="afii10041" unicode="&#x427;" horiz-adv-x="1267" vert-adv-y="2457" 
d="M809 0l96 543q-166 -142 -367 -142q-165 0 -251 76q-82 71 -82 204q0 84 26 229l89 503h184l-99 -558q-16 -93 -16 -155q0 -163 194 -163q190 0 351 172l124 704h185l-249 -1413h-185z" />
    <glyph glyph-name="afii10042" unicode="&#x428;" horiz-adv-x="1907" vert-adv-y="2457" 
d="M101 0l249 1413h185l-226 -1278h489l226 1278h185l-226 -1278h489l226 1278h184l-249 -1413h-1532z" />
    <glyph glyph-name="afii10043" unicode="&#x429;" horiz-adv-x="1930" vert-adv-y="2457" 
d="M101 0l249 1413h185l-226 -1278h489l226 1278h185l-226 -1278h488l226 1278h185l-226 -1278h134l-85 -487h-148l36 352h-1492z" />
    <glyph glyph-name="afii10044" unicode="&#x42a;" horiz-adv-x="1326" vert-adv-y="2457" 
d="M276 0l226 1278h-365l23 135h550l-98 -556h209q242 0 343 -84q100 -84 100 -250q0 -150 -62 -282q-63 -134 -200 -193q-112 -48 -295 -48h-431zM484 133h182q132 0 211 25q98 31 146 140t48 232q0 111 -73 158q-59 37 -226 37h-183z" />
    <glyph glyph-name="afii10045" unicode="&#x42b;" horiz-adv-x="1641" vert-adv-y="2457" 
d="M101 0l249 1413h185l-98 -556h209q243 0 343 -84q101 -84 101 -250q0 -150 -62 -282q-64 -134 -201 -193q-112 -48 -295 -48h-431zM309 133h182q132 0 210 25q99 31 147 140t48 233q0 110 -73 157q-59 37 -226 37h-183zM1178 0l249 1413h185l-249 -1413h-185z" />
    <glyph glyph-name="afii10046" unicode="&#x42c;" horiz-adv-x="1151" vert-adv-y="2457" 
d="M101 0l249 1413h185l-98 -556h209q243 0 343 -84q101 -84 101 -250q0 -150 -62 -282q-64 -134 -201 -193q-112 -48 -295 -48h-431zM309 133h182q132 0 210 25q99 31 147 140t48 233q0 110 -73 157q-59 37 -226 37h-183z" />
    <glyph glyph-name="afii10047" unicode="&#x42d;" horiz-adv-x="1070" vert-adv-y="2457" 
d="M-52 25l49 159q149 -77 313 -77q385 0 492 561h-628l23 134h625q5 70 5 112q0 391 -296 391q-140 0 -305 -84l-10 154q171 64 326 64q227 0 338 -115q141 -147 141 -436q0 -176 -52 -364q-83 -298 -266 -437q-151 -113 -384 -113q-196 0 -371 51z" />
    <glyph glyph-name="afii10048" unicode="&#x42e;" horiz-adv-x="1918" vert-adv-y="2457" 
d="M101 0l249 1413h185l-108 -608h326q49 208 138 348q183 286 509 286q232 0 355 -138q58 -65 87 -166q34 -112 34 -234q0 -179 -54 -367q-81 -284 -248 -426q-158 -134 -379 -134t-343 122q-134 134 -134 406q0 72 12 168h-326l-118 -670h-185zM1407 1305
q-257 0 -389 -295q-45 -102 -76 -256q-30 -152 -30 -283q0 -170 75 -272q68 -91 206 -91q251 0 383 295q46 103 77 260q29 148 29 276q0 155 -62 256q-69 110 -213 110z" />
    <glyph glyph-name="afii10049" unicode="&#x42f;" horiz-adv-x="1212" vert-adv-y="2457" 
d="M862 609h-206q-42 0 -66 -9.5t-47 -35.5q-45 -49 -146 -213l-218 -351h-210l283 435q62 96 102 139q37 40 99 79q-105 36 -151 87q-80 88 -80 227q0 125 58 232q69 128 202 175q112 39 298 39h408l-249 -1413h-185zM884 737l96 543h-205q-146 0 -220 -42
q-73 -40 -110 -132q-31 -77 -31 -161q0 -124 82 -171q65 -37 182 -37h206z" />
    <glyph glyph-name="afii10065" unicode="&#x430;" horiz-adv-x="1073" vert-adv-y="2457" 
d="M679 132q-131 -158 -294 -158q-145 0 -226 86q-82 86 -82 261q0 170 63 333q139 355 492 355q176 0 363 -61q-42 -159 -77 -354l-59 -331q-26 -150 -29 -263h-157q0 43 6 132zM787 840q-74 41 -165 41q-184 0 -281 -211q-36 -79 -59 -189q-20 -96 -20 -175
q0 -204 153 -204q124 0 217 117q40 50 58 107q10 28 20 87z" />
    <glyph glyph-name="afii10066" unicode="&#x431;" horiz-adv-x="1063" vert-adv-y="2457" 
d="M360 887q48 45 85 68q86 53 196 53q156 0 242 -90q92 -97 92 -286q0 -143 -42 -279q-60 -192 -193 -293q-113 -85 -269 -85q-180 0 -280 101q-90 92 -90 252q0 228 106 622q56 206 126 315q90 138 235 182q99 29 276 29l132 -1h34l-34 -132h-32q-98 2 -118 2
q-164 0 -239 -39q-103 -54 -171 -231q-29 -74 -56 -188zM608 880q-95 0 -177 -71q-86 -75 -116 -205q-33 -145 -33 -260q0 -100 37 -163q47 -78 155 -78q159 0 246 199q70 159 70 337q0 113 -41 171q-48 70 -141 70z" />
    <glyph glyph-name="afii10067" unicode="&#x432;" horiz-adv-x="1059" vert-adv-y="2457" 
d="M774 516q68 -17 104 -41q80 -54 80 -173q0 -154 -107 -243q-102 -85 -336 -85q-169 0 -255 49q-175 100 -175 347q0 133 43 266q118 373 494 373q372 0 372 -250q0 -119 -84 -184q-47 -36 -136 -59zM298 577h242q93 0 143 9q75 13 112 77q23 39 23 87q0 69 -40 100
q-46 35 -146 35q-139 0 -215 -76q-75 -75 -119 -232zM274 455q-8 -58 -8 -103q0 -128 49 -190q50 -64 191 -64q164 0 222 66q47 55 47 141q0 92 -63 124q-51 26 -197 26h-241z" />
    <glyph glyph-name="afii10068" unicode="&#x433;" horiz-adv-x="892" vert-adv-y="2457" 
d="M697 172l16 -142q-134 -56 -328 -56q-180 0 -261 63q-77 59 -77 176q0 151 112 242q64 53 241 120q153 58 196 90q62 47 62 107q0 50 -38 78q-41 31 -120 31q-139 0 -280 -69l-16 144q133 53 322 53q308 0 308 -220q0 -130 -107 -218q-69 -57 -247 -124
q-160 -60 -202 -96q-55 -47 -55 -120q0 -68 39 -97q45 -32 147 -32q149 0 288 70z" />
    <glyph glyph-name="afii10069" unicode="&#x434;" horiz-adv-x="1055" vert-adv-y="2457" 
d="M847 856q15 146 15 213q0 151 -81 202q-72 46 -237 62q-72 7 -149 10l20 132q243 -2 381 -47q150 -48 198 -162q31 -72 31 -191q0 -200 -55 -505q-54 -301 -157 -431q-132 -166 -356 -166q-177 0 -278 107q-95 102 -95 280q0 137 44 279q59 190 188 287q109 83 250 83
q197 0 281 -153zM594 881q-169 0 -260 -207q-65 -149 -65 -312q0 -261 193 -261q165 0 255 206q65 151 65 317q0 257 -188 257z" />
    <glyph glyph-name="afii10070" unicode="&#x435;" horiz-adv-x="998" vert-adv-y="2457" 
d="M271 407q-4 -52 -4 -69q0 -102 44 -160q60 -78 219 -78q147 0 281 69l6 -140q-132 -55 -320 -55q-411 0 -411 378q0 148 50 289q130 368 488 368q161 0 246 -71q80 -67 80 -190q0 -160 -138 -235q-95 -52 -320 -83q-121 -17 -221 -23zM288 532q218 15 344 51
q96 28 125 78q20 34 20 84q0 139 -157 139q-172 0 -264 -163q-40 -70 -68 -189z" />
    <glyph glyph-name="afii10072" unicode="&#x436;" horiz-adv-x="1761" vert-adv-y="2457" 
d="M694 0l81 462h-152q-32 -167 -105 -291q-116 -197 -326 -197q-138 0 -239 36l32 142q79 -50 164 -50q129 0 214 147q49 85 77 201q31 124 31 219q0 85 -30 146q-32 66 -109 66q-86 0 -159 -65l-61 137q103 56 231 56q197 0 259 -156q38 -98 38 -220q0 -26 -3 -64h157
l74 414h168l-73 -414h162q30 148 93 252q114 188 315 188q134 0 237 -56l-69 -139q-72 67 -160 67q-129 0 -206 -185q-63 -151 -63 -331q0 -263 168 -263q83 0 202 51l3 -143q-114 -36 -232 -36q-121 0 -188 53q-120 92 -120 343q0 38 4 92h-165l-81 -462h-169z" />
    <glyph glyph-name="afii10073" unicode="&#x437;" horiz-adv-x="920" vert-adv-y="2457" 
d="M0 12l54 140q126 -54 263 -54q168 0 228 79q43 57 43 145q0 67 -40 100q-35 29 -128 29h-224l22 126h194q117 0 171 45q65 55 65 136q0 125 -180 125q-127 0 -257 -63l-21 135q157 54 306 54t238 -60q91 -60 91 -180q0 -167 -185 -239q63 -36 81 -59q49 -61 49 -163
q0 -159 -112 -251q-102 -83 -331 -83q-191 0 -327 38z" />
    <glyph glyph-name="afii10074" unicode="&#x438;" horiz-adv-x="1092" vert-adv-y="2457" 
d="M251 983h176l-106 -597q-16 -90 -16 -148q0 -129 126 -129q141 0 274 161l126 713h175l-129 -727q-23 -132 -28 -256h-158q-1 35 -1 51q0 24 2 71q-41 -43 -75 -68q-105 -80 -229 -80t-194 62q-66 60 -66 172q0 76 27 227z" />
    <glyph glyph-name="afii10075" unicode="&#x439;" horiz-adv-x="1092" vert-adv-y="2457" 
d="M251 983h176l-106 -597q-16 -90 -16 -148q0 -129 126 -129q141 0 274 161l126 713h175l-129 -727q-23 -132 -28 -256h-158q-1 35 -1 51q0 24 2 71q-41 -43 -75 -68q-105 -80 -229 -80t-194 62q-66 60 -66 172q0 76 27 227zM376 1415h141q-1 -21 -1 -31q0 -119 138 -119
q102 0 149 62q23 30 39 88h146q-52 -281 -344 -281q-157 0 -226 78q-47 53 -47 140q0 23 5 63z" />
    <glyph glyph-name="afii10076" unicode="&#x43a;" horiz-adv-x="1018" vert-adv-y="2457" 
d="M87 0l173 983h176l-73 -410h77q79 0 119 42q28 30 112 165q73 118 128 156q68 47 186 47h72l-33 -132h-45q-42 0 -65.5 -10t-48.5 -39q-24 -28 -82 -120q-63 -101 -127 -147q44 -24 71 -57q43 -52 91 -188l103 -290h-191l-75 238q-38 120 -73 168q-25 35 -59 45
q-22 6 -58 6h-122l-81 -457h-175z" />
    <glyph glyph-name="afii10077" unicode="&#x43b;" horiz-adv-x="1083" vert-adv-y="2457" 
d="M-68 0l27 131h41q78 0 127 56q100 111 193 640l27 156h649l-173 -983h-176l151 851h-309l-13 -71q-74 -416 -169 -599q-52 -99 -137 -145q-66 -36 -166 -36h-72z" />
    <glyph glyph-name="afii10078" unicode="&#x43c;" horiz-adv-x="1367" vert-adv-y="2457" 
d="M43 0l278 983h218l69 -560q12 -102 19 -237q58 143 107 243l268 554h226l-69 -983h-170l55 640q3 37 18 194q-13 -29 -38 -88q-30 -67 -54 -116l-305 -630h-134l-82 626q-7 57 -18 167l-4 41q-41 -165 -48 -193l-173 -641h-163z" />
    <glyph glyph-name="afii10079" unicode="&#x43d;" horiz-adv-x="1137" vert-adv-y="2457" 
d="M87 0l173 983h176l-71 -401h439l71 401h176l-174 -983h-175l79 449h-439l-80 -449h-175z" />
    <glyph glyph-name="afii10080" unicode="&#x43e;" horiz-adv-x="1081" vert-adv-y="2457" 
d="M620 1009q173 0 273 -107q98 -104 98 -284q0 -132 -44 -266q-61 -190 -206 -294q-118 -84 -273 -84q-181 0 -281 107q-97 104 -97 287q0 140 49 281q60 173 197 273q120 87 284 87zM611 881q-174 0 -267 -201q-69 -148 -69 -319q0 -259 199 -259q171 0 264 203
q68 150 68 317q0 259 -195 259z" />
    <glyph glyph-name="afii10081" unicode="&#x43f;" horiz-adv-x="1130" vert-adv-y="2457" 
d="M87 0l114 646q31 170 50 337h162l-14 -158q175 184 359 184q118 0 182 -56q62 -54 62 -150q0 -68 -22 -191l-108 -612h-175l110 620q16 91 16 141q0 110 -118 110q-121 0 -258 -132q-48 -46 -64 -87q-9 -24 -16 -61l-105 -591h-175z" />
    <glyph glyph-name="afii10082" unicode="&#x440;" horiz-adv-x="1085" vert-adv-y="2457" 
d="M265 15l-84 -474h-175l195 1105q30 171 50 337h163l-7 -103q127 129 288 129q303 0 303 -367q0 -155 -50 -300q-63 -185 -191 -280q-118 -88 -278 -88q-108 0 -214 41zM290 163q36 -26 57 -36q51 -25 119 -25q177 0 274 202q73 154 73 340q0 237 -163 237
q-114 0 -208 -117q-57 -71 -76 -178z" />
    <glyph glyph-name="afii10083" unicode="&#x441;" horiz-adv-x="830" vert-adv-y="2457" 
d="M704 152l4 -142q-102 -36 -243 -36q-186 0 -278 88q-101 96 -101 278q0 139 46 284q70 216 217 315q106 70 253 70q151 0 256 -55l-68 -140q-72 67 -175 67q-164 0 -263 -187q-40 -76 -63 -182q-18 -88 -18 -167q0 -243 221 -243q98 0 212 50z" />
    <glyph glyph-name="afii10084" unicode="&#x442;" horiz-adv-x="1675" vert-adv-y="2457" 
d="M87 0l114 646q31 170 50 337h162l-14 -159q170 185 343 185q205 0 221 -201q176 201 357 201q114 0 174 -58q55 -53 55 -142q0 -67 -24 -204l-107 -605h-175l112 631q15 87 15 131q0 109 -102 109q-115 0 -246 -132q-46 -47 -62 -87q-8 -22 -15 -59l-105 -593h-175
l112 631q14 81 14 133q0 107 -99 107q-117 0 -248 -132q-46 -47 -61 -87q-9 -22 -16 -61l-105 -591h-175z" />
    <glyph glyph-name="afii10085" unicode="&#x443;" horiz-adv-x="917" vert-adv-y="2457" 
d="M291 0l-178 983h178l75 -498q5 -38 23 -168l11 -75l14 -103q70 155 82 182q49 112 71 158l231 504h175l-489 -1005q-121 -250 -178 -317q-114 -136 -292 -136q-64 0 -130 12l42 131q49 -17 102 -17q83 0 143 60q72 71 149 223l33 66h-62z" />
    <glyph glyph-name="afii10086" unicode="&#x444;" horiz-adv-x="1522" vert-adv-y="2457" 
d="M515 -459l96 543q-102 -110 -237 -110q-161 0 -233 119q-56 94 -56 251q0 133 40 275q111 390 406 390q148 0 222 -118l100 566h154l-99 -565q105 117 239 117q95 0 169 -49q122 -82 122 -318q0 -133 -40 -275q-110 -393 -407 -393q-148 0 -220 129l-99 -562h-157z
M669 413l31 171q12 69 12 99q0 73 -36 130q-45 68 -120 68q-138 0 -218 -188q-31 -73 -51 -178q-21 -103 -21 -190q0 -91 30 -150q38 -73 116 -73q104 0 186 119q48 70 71 192zM849 545l-24 -132q-13 -72 -13 -108q0 -71 35 -129q44 -74 119 -74q138 0 217 188
q73 173 73 363q0 94 -25 149q-13 30 -41 51q-36 28 -79 28q-105 0 -188 -126q-35 -53 -53 -112q-9 -28 -21 -98z" />
    <glyph glyph-name="afii10087" unicode="&#x445;" horiz-adv-x="982" vert-adv-y="2457" 
d="M401 514l-239 469h188l109 -213q2 -5 38 -78l16 -33l12 -25q71 86 119 140l183 209h177l-409 -469l261 -514h-188l-122 240q-36 73 -62 127l-14 28q-18 -21 -53 -63q-38 -47 -70 -83l-218 -249h-177z" />
    <glyph glyph-name="afii10088" unicode="&#x446;" horiz-adv-x="1092" vert-adv-y="2457" 
d="M251 983h176l-106 -597q-16 -90 -16 -147q0 -130 126 -130q141 0 274 161l126 713h175l-129 -727q-23 -132 -28 -256q-53 -19 -53 -41q0 -15 45 -55q48 -43 48 -91q0 -99 -106 -140q-59 -23 -174 -30l-15 94q73 7 97 19q39 21 39 68q0 27 -19 54q-26 37 -26 59
q0 30 53 63h-47q-1 35 -1 51q0 24 2 71q-41 -43 -75 -68q-105 -80 -229 -80t-194 62q-66 60 -66 172q0 76 27 227z" />
    <glyph glyph-name="afii10089" unicode="&#x447;" horiz-adv-x="1081" vert-adv-y="2457" 
d="M646 0l71 404q-125 -87 -279 -87q-286 0 -286 243q0 77 24 215l37 208h176l-52 -294q-10 -55 -10 -104q0 -68 32 -102q37 -38 127 -38q138 0 258 112l75 426h175l-173 -983h-175z" />
    <glyph glyph-name="afii10090" unicode="&#x448;" horiz-adv-x="1557" vert-adv-y="2457" 
d="M251 983h176l-106 -597q-16 -90 -16 -147q0 -130 120 -130q118 0 218 135l130 739h176l-106 -597q-16 -88 -16 -147q0 -130 120 -130q118 0 217 135l131 739h175l-128 -727q-24 -132 -29 -256h-158q-1 32 -1 48q0 17 2 50q-110 -124 -259 -124q-187 0 -233 151
q-43 -48 -74 -74q-89 -77 -211 -77q-117 0 -186 62q-65 60 -65 172q0 76 27 227z" />
    <glyph glyph-name="afii10091" unicode="&#x449;" horiz-adv-x="1557" vert-adv-y="2457" 
d="M251 983h176l-106 -597q-16 -90 -16 -147q0 -130 120 -130q118 0 218 135l130 739h176l-106 -597q-16 -88 -16 -147q0 -130 120 -130q118 0 217 135l131 739h175l-128 -727q-24 -132 -29 -256q-53 -24 -53 -40t45 -56q48 -43 48 -91q0 -99 -105 -140q-60 -23 -175 -30
l-15 94q74 7 97 19q39 21 39 67q0 28 -19 55q-26 38 -26 59q0 32 53 63h-47q-1 32 -1 48q0 17 2 50q-110 -124 -259 -124q-187 0 -233 151q-43 -48 -74 -74q-89 -77 -211 -77q-117 0 -186 62q-65 60 -65 172q0 76 27 227z" />
    <glyph glyph-name="afii10092" unicode="&#x44a;" horiz-adv-x="1151" vert-adv-y="2457" 
d="M473 543q61 66 111 94q73 42 166 42q144 0 219 -78q71 -74 71 -208q0 -177 -112 -291q-126 -129 -382 -129q-181 0 -352 44q28 101 54 248l105 585h-291l29 133h460zM399 125q76 -31 155 -31q171 0 251 114q54 77 54 186q0 163 -141 163q-98 0 -194 -115
q-86 -102 -107 -216z" />
    <glyph glyph-name="afii10093" unicode="&#x44b;" horiz-adv-x="1452" vert-adv-y="2457" 
d="M358 543q61 65 111 94q74 42 166 42q144 0 220 -78q71 -74 71 -208q0 -177 -113 -291q-126 -129 -381 -129q-180 0 -353 44q28 96 55 248l127 718h175zM284 125q73 -31 156 -31q170 0 250 114q54 77 54 186q0 163 -141 163q-97 0 -194 -115q-85 -102 -106 -216zM1015 0
l174 983h175l-173 -983h-176z" />
    <glyph glyph-name="afii10094" unicode="&#x44c;" horiz-adv-x="1036" vert-adv-y="2457" 
d="M358 543q61 65 111 94q74 42 166 42q144 0 220 -78q71 -74 71 -208q0 -177 -113 -291q-126 -129 -381 -129q-180 0 -353 44q28 96 55 248l127 718h175zM284 125q74 -31 156 -31q170 0 250 114q54 77 54 186q0 163 -141 163q-97 0 -194 -115q-85 -102 -106 -216z" />
    <glyph glyph-name="afii10095" unicode="&#x44d;" horiz-adv-x="888" vert-adv-y="2457" 
d="M-26 12l54 140q125 -54 251 -54q187 0 281 184q25 47 55 169h-431l21 126h428q1 26 1 56q0 250 -219 250q-129 0 -247 -63l-20 135q138 54 288 54q174 0 266 -85q114 -104 114 -309q0 -143 -43 -284q-57 -185 -189 -280q-108 -77 -285 -77q-187 0 -325 38z" />
    <glyph glyph-name="afii10096" unicode="&#x44e;" horiz-adv-x="1493" vert-adv-y="2457" 
d="M87 0l173 983h176l-72 -402h206q37 146 107 241q140 187 365 187q172 0 267 -107q94 -107 94 -283q0 -131 -42 -266q-59 -190 -198 -294q-113 -85 -262 -85q-224 0 -312 175q-45 89 -45 231q0 33 4 70h-206l-80 -450h-175zM1041 881q-160 0 -249 -201q-64 -147 -64 -317
q0 -261 180 -261q159 0 246 203q64 151 64 318q0 258 -177 258z" />
    <glyph glyph-name="afii10097" unicode="&#x44f;" horiz-adv-x="1066" vert-adv-y="2457" 
d="M702 399h-189q-52 0 -82 -28q-21 -20 -103 -139l-160 -232h-192l179 255q61 86 101 127q20 20 54 42q-160 49 -160 241q0 152 94 237q61 56 165 72q57 9 124 9h447l-174 -983h-175zM724 522l58 338h-206q-137 0 -187 -49q-54 -53 -54 -146q0 -83 49 -116q40 -27 116 -27
h224z" />
    <glyph glyph-name="afii10071" unicode="&#x451;" horiz-adv-x="998" vert-adv-y="2457" 
d="M271 407q-4 -52 -4 -69q0 -102 44 -160q60 -78 219 -78q147 0 281 69l6 -140q-132 -55 -320 -55q-411 0 -411 378q0 148 50 289q130 368 488 368q161 0 246 -71q80 -67 80 -190q0 -160 -138 -235q-95 -52 -320 -83q-121 -17 -221 -23zM288 532q218 15 344 51
q96 28 125 78q20 34 20 84q0 139 -157 139q-172 0 -264 -163q-40 -70 -68 -189zM481 1384q47 0 80 -33q33 -32 33 -79q0 -45 -33 -78t-80 -33t-80 33t-33 80q0 45 33 77q33 33 80 33zM826 1384q47 0 80 -33q33 -32 33 -79q0 -45 -33 -78q-32 -33 -80 -33t-80 33
q-33 33 -33 80q0 46 33 77q33 33 80 33z" />
    <glyph glyph-name="afii10099" unicode="&#x452;" horiz-adv-x="1149" vert-adv-y="2457" 
d="M87 0l201 1135h-136l19 120h136q13 94 25 195l193 39l-42 -234h261l-19 -120h-262l-76 -426q81 121 155 190q119 110 255 110q105 0 165 -53q62 -56 62 -166q0 -147 -83 -571q-64 -322 -84 -391q-51 -176 -145 -241q-90 -62 -236 -62q-113 0 -195 30l45 141
q71 -50 151 -50q138 0 189 140q38 106 110 489q71 382 71 487q0 58 -30 88q-29 30 -77 30q-133 0 -303 -263q-91 -141 -118 -299l-57 -318h-175z" />
    <glyph glyph-name="afii10100" unicode="&#x453;" horiz-adv-x="892" vert-adv-y="2457" 
d="M697 172l16 -142q-134 -56 -328 -56q-180 0 -261 63q-77 59 -77 176q0 151 112 242q64 53 241 120q153 58 196 90q62 47 62 107q0 50 -38 78q-41 31 -120 31q-139 0 -280 -69l-16 144q133 53 322 53q308 0 308 -220q0 -130 -107 -218q-69 -57 -247 -124
q-160 -60 -202 -96q-55 -47 -55 -120q0 -68 39 -97q45 -32 147 -32q149 0 288 70zM485 1146l185 262h232l-279 -262h-138z" />
    <glyph glyph-name="afii10101" unicode="&#x454;" horiz-adv-x="885" vert-adv-y="2457" 
d="M732 589l-21 -126h-429q-10 -77 -10 -123q0 -104 55 -172q56 -70 178 -70q114 0 249 54l4 -143q-122 -35 -276 -35q-396 0 -396 374q0 136 46 277q124 384 480 384q164 0 291 -54l-68 -140q-90 68 -207 68q-222 0 -320 -294h424z" />
    <glyph glyph-name="afii10102" unicode="&#x455;" horiz-adv-x="831" vert-adv-y="2457" 
d="M0 28l55 144q112 -70 257 -70q122 0 180 54q51 47 51 119q0 53 -39 92q-31 31 -134 87q-116 62 -166 112q-63 62 -63 157q0 130 95 211q88 75 259 75q145 0 272 -52l-69 -139q-84 63 -196 63q-90 0 -140 -40q-48 -38 -48 -95q0 -55 50 -95q36 -30 126 -79
q122 -67 164 -110q62 -63 62 -156q0 -148 -97 -241q-96 -91 -300 -91q-182 0 -319 54z" />
    <glyph glyph-name="afii10103" unicode="&#x456;" horiz-adv-x="525" vert-adv-y="2457" 
d="M89 0l173 983h176l-174 -983h-175zM399 1394q48 0 83 -36q34 -35 34 -85t-34 -85q-34 -36 -84 -36t-85 36q-34 35 -34 85q0 51 34 85q36 36 86 36z" />
    <glyph glyph-name="afii10104" unicode="&#x457;" horiz-adv-x="525" vert-adv-y="2457" 
d="M82 0l173 983h176l-174 -983h-175zM212 1384q47 0 80 -33q33 -32 33 -79q0 -45 -33 -78t-80 -33t-80 33t-33 80q0 45 33 77q33 33 80 33zM557 1384q47 0 80 -33q33 -32 33 -79q0 -45 -33 -78q-32 -33 -80 -33t-80 33q-33 33 -33 80q0 46 33 77q33 33 80 33z" />
    <glyph glyph-name="afii10105" unicode="&#x458;" horiz-adv-x="527" vert-adv-y="2457" 
d="M263 983h175l-166 -934q-32 -182 -58 -257q-90 -268 -367 -268q-71 0 -152 16l44 130q62 -20 123 -20q109 0 159 106q39 85 74 281zM400 1394q49 0 83 -36q34 -35 34 -85t-34 -85q-34 -36 -85 -36q-50 0 -84 36q-34 35 -34 85q0 51 34 85q35 36 86 36z" />
    <glyph glyph-name="afii10106" unicode="&#x459;" horiz-adv-x="1597" vert-adv-y="2457" 
d="M918 543q61 65 111 94q73 41 166 41q144 0 220 -78q71 -74 71 -207q0 -177 -112 -292q-127 -128 -383 -128q-180 0 -352 44q28 101 55 248l104 586h-309l-13 -71q-74 -416 -169 -599q-52 -99 -137 -145q-66 -36 -166 -36h-72l27 131h41q78 0 127 56q100 111 193 640
l27 156h649zM844 125q74 -31 155 -31q171 0 251 114q54 77 54 186q0 163 -141 163q-98 0 -194 -115q-86 -102 -106 -217z" />
    <glyph glyph-name="afii10107" unicode="&#x45a;" horiz-adv-x="1616" vert-adv-y="2457" 
d="M937 544q61 65 111 94q73 41 166 41q145 0 220 -78q71 -74 71 -208q0 -177 -112 -292q-127 -128 -382 -128q-181 0 -353 44q27 96 55 248l39 216h-404l-86 -481h-175l173 983h176l-66 -370h404l66 370h175zM864 125q75 -31 154 -31q171 0 251 113q54 77 54 186
q0 163 -141 163q-97 0 -194 -115q-85 -102 -106 -216z" />
    <glyph glyph-name="afii10108" unicode="&#x45b;" horiz-adv-x="1135" vert-adv-y="2457" 
d="M87 0l201 1135h-136l19 120h136q14 96 25 195l193 39l-42 -234h261l-19 -120h-262l-54 -298q172 172 357 172q123 0 186 -61q56 -53 56 -143q0 -65 -22 -193l-108 -612h-176l112 631q15 84 15 123q0 117 -118 117q-125 0 -263 -132q-51 -48 -67 -88q-7 -19 -16 -69
l-103 -582h-175z" />
    <glyph glyph-name="afii10109" unicode="&#x45c;" horiz-adv-x="1018" vert-adv-y="2457" 
d="M87 0l173 983h176l-73 -410h77q79 0 119 42q28 30 112 165q73 118 128 156q68 47 186 47h72l-33 -132h-45q-42 0 -65.5 -10t-48.5 -39q-24 -28 -82 -120q-63 -101 -127 -147q44 -24 71 -57q43 -52 91 -188l103 -290h-191l-75 238q-38 120 -73 168q-25 35 -59 45
q-22 6 -58 6h-122l-81 -457h-175zM570 1146l185 262h232l-279 -262h-138z" />
    <glyph glyph-name="uni045D" unicode="&#x45d;" horiz-adv-x="1092" vert-adv-y="2457" 
d="M251 983h176l-106 -597q-16 -90 -16 -148q0 -129 126 -129q141 0 274 161l126 713h175l-129 -727q-23 -132 -28 -256h-158q-1 35 -1 51q0 24 2 71q-41 -43 -75 -68q-105 -80 -229 -80t-194 62q-66 60 -66 172q0 76 27 227zM626 1146l-188 262h222l94 -262h-128z" />
    <glyph glyph-name="afii10110" unicode="&#x45e;" horiz-adv-x="917" vert-adv-y="2457" 
d="M291 0l-178 983h178l75 -498q5 -38 23 -168l11 -75l14 -103q70 155 82 182q49 112 71 158l231 504h175l-489 -1005q-121 -250 -178 -317q-114 -136 -292 -136q-64 0 -130 12l42 131q49 -17 102 -17q83 0 143 60q72 71 149 223l33 66h-62zM273 1415h141q-1 -21 -1 -31
q0 -119 138 -119q102 0 149 62q23 30 39 88h146q-52 -281 -344 -281q-157 0 -226 78q-47 53 -47 140q0 23 5 63z" />
    <glyph glyph-name="afii10193" unicode="&#x45f;" horiz-adv-x="1092" vert-adv-y="2457" 
d="M251 983h176l-106 -597q-16 -90 -16 -147q0 -130 125 -130q142 0 275 161l126 713h175l-129 -727q-23 -132 -28 -256h-158q-1 35 -1 51q0 24 2 71q-66 -66 -116 -96q-48 -28 -103 -41q-16 -13 -16 -25q0 -16 46 -57q48 -42 48 -90q0 -99 -106 -140q-58 -22 -174 -30
l-15 94q73 6 97 19q39 20 39 67q0 28 -19 55q-27 37 -27 60q0 18 18 38q-236 20 -236 233q0 75 27 226z" />
    <glyph glyph-name="uni0462" unicode="&#x462;" horiz-adv-x="1317" vert-adv-y="2457" 
d="M263 0l226 1278h-308l23 135h934l-23 -135h-441l-75 -421h209q243 0 343 -84q101 -84 101 -250q0 -150 -62 -282q-64 -134 -201 -193q-112 -48 -295 -48h-431zM471 133h183q131 0 210 25q98 31 146 140t48 232q0 111 -73 158q-59 37 -225 37h-184z" />
    <glyph glyph-name="uni0463" unicode="&#x463;" horiz-adv-x="1085" vert-adv-y="2457" 
d="M420 892q124 117 271 117q153 0 232 -95q77 -91 77 -266q0 -129 -40 -268q-51 -179 -162 -282q-133 -124 -333 -124q-201 0 -382 78q36 133 79 374l127 715h-137l20 114h135q14 95 26 195l192 39l-41 -234h261l-20 -114h-260zM287 141q84 -39 174 -39q187 0 284 210
q70 153 70 336q0 233 -159 233q-121 0 -213 -116q-40 -51 -59 -107q-9 -27 -20 -88z" />
    <glyph glyph-name="afii10050" unicode="&#x490;" horiz-adv-x="1014" vert-adv-y="2457" 
d="M101 0l249 1413h591l62 352h148l-49 -487h-590l-226 -1278h-185z" />
    <glyph glyph-name="afii10098" unicode="&#x491;" horiz-adv-x="892" vert-adv-y="2457" 
d="M220 812l-16 144q133 53 315 53q5 0 26 -1l120 317h160l-182 -327q191 -35 191 -209q0 -130 -107 -219q-68 -56 -247 -123q-160 -60 -202 -96q-55 -47 -55 -120q0 -68 39 -97q45 -32 147 -32q149 0 288 70l16 -142q-134 -56 -328 -56q-180 0 -261 63q-77 59 -77 176
q0 151 112 242q64 53 241 120q153 58 196 90q62 47 62 107q0 50 -38 78q-41 31 -120 31q-139 0 -280 -69z" />
    <glyph glyph-name="uni0492" unicode="&#x492;" horiz-adv-x="973" vert-adv-y="2457" 
d="M91 0l80 452h-160l20 117h160l149 844h754l-29 -135h-563l-126 -709h300l-20 -117h-300l-81 -452h-184z" />
    <glyph glyph-name="uni0493" unicode="&#x493;" horiz-adv-x="892" vert-adv-y="2457" 
d="M130 597l55 96l230 -116q93 34 152 67q91 51 91 127q0 110 -159 110q-138 0 -279 -69l-16 144q133 53 322 53q308 0 308 -220q0 -123 -101 -208q-33 -28 -148 -84l153 -79l-54 -96l-234 118q-94 -35 -144 -65q-83 -51 -83 -143q0 -69 39 -98q45 -32 147 -32q149 0 288 70
l16 -142q-134 -56 -328 -56q-180 0 -261 63q-77 59 -77 176q0 143 104 232q42 36 127 75z" />
    <glyph glyph-name="uni0496" unicode="&#x496;" horiz-adv-x="1775" vert-adv-y="2457" 
d="M709 0l119 678h-75q-79 0 -126 -26q-61 -35 -135 -131q-33 -44 -116 -176l-224 -345h-214l264 396q161 243 254 311q50 37 129 62q-44 35 -70 93q-27 63 -59 212q-23 106 -57 157q-31 47 -119 47h-55l11 135h74q186 0 242 -95q25 -42 50 -141q6 -22 44 -187
q27 -115 73 -154q37 -31 122 -31h9l108 608h184l-107 -609h33q117 0 182 73q45 51 161 257q65 114 95 155q55 72 133 101q60 23 153 23h72l-38 -135h-36q-67 0 -106 -29t-95 -123q-15 -26 -71 -127q-61 -108 -118 -171q-34 -37 -103 -78q55 -21 97 -78q55 -73 120 -276
l84 -261h128l-84 -487h-144l33 352h-92l-103 345q-36 130 -55 176q-40 98 -89 131q-38 26 -117 26h-63l-119 -678h-184z" />
    <glyph glyph-name="uni0497" unicode="&#x497;" horiz-adv-x="1761" vert-adv-y="2457" 
d="M694 0l81 462h-152q-32 -167 -105 -291q-116 -197 -326 -197q-138 0 -239 36l32 142q79 -50 164 -50q129 0 214 147q49 85 77 201q31 124 31 219q0 85 -30 146q-32 66 -109 66q-86 0 -159 -65l-61 137q103 56 231 56q197 0 259 -156q38 -98 38 -220q0 -26 -3 -64h157
l74 414h168l-73 -414h162q30 148 93 252q114 188 315 188q134 0 237 -56l-69 -139q-72 67 -160 67q-129 0 -206 -185q-63 -150 -63 -331q0 -262 168 -262q85 0 202 50l3 -143q-7 -4 -11 -6q-46 -24 -46 -44q0 -16 47 -57q50 -42 50 -91q0 -98 -106 -139q-58 -22 -174 -30
l-15 94q74 6 97 19q40 20 40 67q0 28 -19 55q-27 37 -27 60q0 21 17 42q-54 -5 -96 -5q-297 0 -297 395q0 38 4 92h-165l-81 -462h-169z" />
    <glyph glyph-name="uni049A" unicode="&#x49a;" horiz-adv-x="1230" vert-adv-y="2457" 
d="M101 0l249 1413h185l-108 -609h93q62 0 110 19q55 21 120 118q17 25 114 192q64 111 99 156q55 71 138 101q62 23 159 23h71l-37 -135h-40q-60 0 -94.5 -18t-74.5 -69q-35 -47 -116 -190q-60 -106 -117 -169q-37 -40 -90 -71q72 -27 114 -85q35 -51 67 -129
q10 -26 50 -151l84 -261h103l-85 -486h-144l33 351h-73l-104 345q-36 130 -55 176q-40 98 -88 131q-39 26 -117 26h-142l-119 -678h-185z" />
    <glyph glyph-name="uni049B" unicode="&#x49b;" horiz-adv-x="1018" vert-adv-y="2457" 
d="M87 0l173 983h176l-73 -410h77q79 0 119 42q28 30 112 165q73 118 128 156q68 47 186 47h72l-33 -132h-45q-42 0 -65.5 -10t-48.5 -39q-24 -28 -82 -120q-63 -101 -127 -147q45 -24 71 -57q43 -52 91 -188l103 -290q-9 -4 -30 -14q-26 -11 -26 -27q0 -15 47 -56
q49 -42 49 -91q0 -98 -105 -139q-59 -22 -175 -30l-15 94q74 6 98 19q39 20 39 67q0 28 -19 55q-26 37 -26 59q0 33 52 63h-80l-75 238q-38 120 -73 168q-25 35 -59 45q-22 6 -58 6h-122l-81 -457h-175z" />
    <glyph glyph-name="uni049C" unicode="&#x49c;" horiz-adv-x="1249" vert-adv-y="2457" 
d="M101 0l249 1413h185l-108 -609h99l45 257h124l-41 -235q48 21 85 68q37 48 148 240q64 110 99 155q57 72 138 101q62 23 159 23h67l-37 -135h-40q-60 0 -94.5 -18t-74.5 -69q-36 -47 -116 -189q-61 -107 -117 -170q-37 -40 -90 -71q73 -27 113 -85q32 -46 62 -116
q15 -33 56 -164l126 -396h-204l-103 345q-40 139 -55 176q-40 95 -86 128q-22 16 -63 23l-46 -260h-124l47 266h-99l-119 -678h-185z" />
    <glyph glyph-name="uni049D" unicode="&#x49d;" horiz-adv-x="1041" vert-adv-y="2457" 
d="M87 0l173 983h176l-73 -410h71l40 226h122l-35 -196q32 28 50 49q17 20 90 136q71 112 123 148q67 47 184 47h72l-33 -132h-45q-42 0 -65.5 -10t-48.5 -39q-24 -27 -82 -120q-63 -101 -127 -147q44 -24 71 -57q43 -53 91 -187l103 -291h-191l-75 238q-38 121 -72 168
q-25 32 -71 45l-37 -209h-122l38 215h-71l-81 -457h-175z" />
    <glyph glyph-name="uni04A2" unicode="&#x4a2;" horiz-adv-x="1375" vert-adv-y="2457" 
d="M101 0l249 1413h185l-108 -608h626l107 608h185l-226 -1278h117l-85 -486h-144l33 351h-129l119 670h-626l-118 -670h-185z" />
    <glyph glyph-name="uni04A3" unicode="&#x4a3;" horiz-adv-x="1137" vert-adv-y="2457" 
d="M87 0l173 983h176l-71 -401h439l71 401h176l-174 -983q-11 -5 -30 -14q-27 -11 -27 -27t47 -56q50 -42 50 -91q0 -98 -106 -139q-58 -22 -174 -30l-15 94q74 6 97 19q40 20 40 67q0 28 -19 55q-27 37 -27 59q0 33 53 63h-64l79 449h-439l-80 -449h-175z" />
    <glyph glyph-name="uni04AE" unicode="&#x4ae;" horiz-adv-x="1044" vert-adv-y="2457" 
d="M343 0l93 530l-289 883h192l145 -461q7 -22 41 -140q20 -69 32 -110q31 48 79 122q57 90 88 135l309 454h191l-603 -883l-94 -530h-184z" />
    <glyph glyph-name="uni04AF" unicode="&#x4af;" horiz-adv-x="935" vert-adv-y="2457" 
d="M209 -459l80 453l-183 989h179l85 -491q15 -91 44 -317l32 67q125 253 127 257l257 484h174l-534 -988l-80 -454h-181z" />
    <glyph glyph-name="uni04B0" unicode="&#x4b0;" horiz-adv-x="1044" vert-adv-y="2457" 
d="M343 0l76 429h-230l19 117h223l-284 867h192l145 -460q7 -22 41 -140q20 -69 32 -110l40 61q98 153 127 196l309 453h191l-594 -867h225l-20 -117h-232l-76 -429h-184z" />
    <glyph glyph-name="uni04B1" unicode="&#x4b1;" horiz-adv-x="935" vert-adv-y="2457" 
d="M209 -459l59 333h-183l22 126h180l-181 983h179l85 -491q12 -73 44 -317l32 67q125 253 127 257l257 484h173l-531 -983h184l-22 -126h-185l-60 -333h-180z" />
    <glyph glyph-name="uni04B2" unicode="&#x4b2;" horiz-adv-x="1147" vert-adv-y="2457" 
d="M508 755l-149 375q-40 100 -119 283h203l141 -367q20 -54 60 -168q100 138 123 169l280 366h200q-138 -168 -207 -257l-327 -422l147 -372q31 -77 75 -183l18 -44h121l-85 -486h-144l33 351h-71l-165 429q-17 44 -65 178q-23 -30 -59 -80q-59 -79 -62 -84l-341 -443h-202
q154 187 225 278z" />
    <glyph glyph-name="uni04B3" unicode="&#x4b3;" horiz-adv-x="982" vert-adv-y="2457" 
d="M401 514l-239 469h188l109 -213q21 -43 39 -79q15 -32 27 -57q19 24 58 69q36 44 61 71l183 209h177l-409 -469l261 -514q-11 -5 -16 -7q-41 -18 -41 -34t47 -56q50 -42 50 -91q0 -98 -106 -139q-58 -22 -174 -30l-15 94q73 6 97 19q40 20 40 67q0 28 -19 55
q-27 37 -27 59q0 33 53 63h-77l-122 240q-32 62 -76 155q-24 -28 -53 -63q-28 -36 -70 -83l-218 -249h-177z" />
    <glyph glyph-name="uni04B6" unicode="&#x4b6;" horiz-adv-x="1276" vert-adv-y="2457" 
d="M809 0l96 543q-54 -46 -104 -75q-119 -67 -263 -67q-165 0 -251 76q-82 71 -82 204q0 84 26 229l89 503h184l-99 -558q-16 -93 -16 -155q0 -163 194 -163q190 0 351 172l124 704h185l-226 -1278h116l-85 -486h-143l33 351h-129z" />
    <glyph glyph-name="uni04B7" unicode="&#x4b7;" horiz-adv-x="1081" vert-adv-y="2457" 
d="M646 0l71 404q-125 -87 -279 -87q-286 0 -286 243q0 77 24 215l37 208h176l-52 -294q-10 -55 -10 -104q0 -68 32 -102q37 -38 127 -38q138 0 258 112l75 426h175l-173 -983q-11 -5 -30 -14q-27 -11 -27 -27q0 -15 47 -56q50 -42 50 -91q0 -98 -106 -139q-58 -22 -174 -30
l-15 94q74 7 97 19q40 20 40 67q0 28 -19 55q-27 37 -27 59q0 33 53 63h-64z" />
    <glyph glyph-name="uni04B8" unicode="&#x4b8;" horiz-adv-x="1280" vert-adv-y="2457" 
d="M821 0l97 543q-76 -62 -135 -90q-44 -22 -110 -38l-38 -216h-128l36 202q-338 5 -338 280q0 84 26 229l89 503h184l-99 -558q-16 -93 -16 -154q0 -107 81 -141q33 -14 96 -20l55 307h128l-53 -297q135 39 250 159l125 704h184l-249 -1413h-185z" />
    <glyph glyph-name="uni04B9" unicode="&#x4b9;" horiz-adv-x="1109" vert-adv-y="2457" 
d="M674 0l72 404q-93 -64 -196 -80l-33 -191h-122l32 185q-109 7 -165 39q-110 60 -110 204q0 77 24 214l37 208h176l-52 -294q-10 -54 -10 -103q0 -83 53 -114q24 -15 70 -23l43 243h122l-43 -240q106 22 200 105l75 426h176l-174 -983h-175z" />
    </font>
</defs>
</svg>
