<?xml version="1.0" standalone="no"?>
<!DOCTYPE svg PUBLIC "-//W3C//DTD SVG 1.1//EN" "http://www.w3.org/Graphics/SVG/1.1/DTD/svg11.dtd" >
<svg xmlns="http://www.w3.org/2000/svg">
<metadata>
Created by FontForge 20120702 at Thu Oct 04 10:51:07 2012

2011 by (URW)++ Design &#38; Development
</metadata>
<defs>
<font id="E+HSans-DemiItalic" horiz-adv-x="1180" vert-adv-y="2048" >
  <font-face 
    font-family="E+H Sans Demi"
    font-weight="600"
    font-style="italic"
    font-stretch="normal"
    units-per-em="2048"
    panose-1="2 11 6 4 5 2 2 9 2 4"
    ascent="1638"
    descent="-410"
    x-height="983"
    cap-height="1413"
    bbox="-372 -547 2461 2277"
    underline-thickness="95"
    underline-position="-325"
    slope="10"
    unicode-range="U+0020-FB04"
  />
<missing-glyph horiz-adv-x="1709" vert-adv-y="2457" 
d="M982 405h-151v66q0 84 -15 122q-16 42 -56 84q-20 21 -78 80q-89 88 -135 159q-64 96 -64 207q0 88 42 162q87 153 361 153q152 0 313 -45l-29 -154q-148 70 -267 70q-231 0 -231 -190q0 -94 57 -180q30 -47 136 -159q81 -86 101 -141q16 -46 16 -138v-96zM904 234
q58 0 97 -45q33 -37 33 -85q0 -56 -42 -95q-38 -35 -90 -35q-61 0 -100 45q-32 37 -32 86q0 54 42 94q37 35 92 35zM123 -459v2196h1464v-2196h-1464zM246 -336h1218v1950h-1218v-1950z" />
    <glyph glyph-name="fi" unicode="fi" horiz-adv-x="1244" vert-adv-y="2457" 
d="M240 819h-173l41 164h161l26 146q33 187 110 266q92 93 256 93q118 0 234 -37l-69 -167q-69 50 -141 50q-79 0 -119 -61q-28 -43 -45 -140l-27 -150h249l-42 -164h-236l-125 -711q-34 -192 -61 -276q-50 -154 -154 -237q-97 -76 -251 -76q-70 0 -163 15l49 159
q62 -20 122 -20q102 0 151 111q40 88 77 300zM772 0l173 983h226l-174 -983h-225zM1107 1423q59 0 99 -42q41 -42 41 -100t-41 -100q-40 -42 -100 -42q-61 0 -101 42q-41 42 -41 100q0 59 41 100q41 42 102 42z" />
    <glyph glyph-name="fl" unicode="fl" horiz-adv-x="1213" vert-adv-y="2457" 
d="M240 819h-173l41 164h161l24 139q32 177 130 264q114 102 337 102q142 0 285 -29l185 37l-263 -1496h-226l230 1299q-103 35 -205 35q-130 0 -188 -66q-42 -47 -60 -150l-24 -135h249l-42 -164h-236l-125 -711q-34 -192 -61 -276q-50 -155 -154 -237q-97 -76 -251 -76
q-70 0 -163 15l49 159q61 -20 122 -20q102 0 151 111q40 88 77 300z" />
    <glyph glyph-name="ff" unicode="ff" horiz-adv-x="1322" vert-adv-y="2457" 
d="M240 819h-173l41 164h161l26 146q33 187 110 266q92 93 256 93q118 0 234 -37l-69 -167q-69 50 -141 50q-79 0 -119 -61q-28 -43 -45 -140l-27 -150h179l-41 -164h-167l-125 -711q-34 -192 -61 -276q-50 -154 -154 -237q-97 -76 -251 -76q-70 0 -163 15l49 159
q62 -20 122 -20q102 0 151 111q40 88 77 300zM894 819h-164l42 164h151l26 146q33 187 111 266q91 93 256 93q118 0 233 -37l-68 -167q-70 50 -142 50q-79 0 -119 -62q-28 -43 -45 -139l-26 -150h248l-42 -164h-235l-126 -711q-34 -192 -61 -276q-50 -154 -154 -237
q-96 -76 -251 -76q-69 0 -163 15l50 159q61 -20 121 -20q102 0 152 111q39 88 76 300z" />
    <glyph glyph-name="ffi" unicode="ffi" horiz-adv-x="1889" vert-adv-y="2457" 
d="M240 819h-173l41 164h161l26 146q33 187 110 266q92 93 256 93q118 0 234 -37l-69 -167q-69 50 -141 50q-79 0 -119 -61q-28 -43 -45 -140l-27 -150h179l-41 -164h-167l-125 -711q-34 -192 -61 -276q-50 -154 -154 -237q-97 -76 -251 -76q-70 0 -163 15l49 159
q62 -20 122 -20q102 0 151 111q40 88 77 300zM886 819h-164l41 164h152l25 146q19 107 44 163q87 196 323 196q117 0 234 -37l-69 -167q-69 50 -141 50q-79 0 -119 -62q-29 -43 -46 -139l-26 -150h248l-41 -164h-236l-126 -711q-34 -192 -61 -276q-100 -313 -404 -313
q-70 0 -163 15l49 159q62 -20 122 -20q102 0 151 111q40 88 77 300zM1418 0l173 983h225l-173 -983h-225zM1753 1423q59 0 100 -42q40 -41 40 -100t-40 -100q-41 -42 -102 -42q-60 0 -100 42q-41 42 -41 100q0 59 41 100q42 42 102 42z" />
    <glyph glyph-name="ffl" unicode="ffl" horiz-adv-x="1859" vert-adv-y="2457" 
d="M240 819h-173l41 164h161l26 146q33 187 110 266q92 93 256 93q118 0 234 -37l-69 -167q-69 50 -141 50q-79 0 -119 -61q-28 -43 -45 -140l-27 -150h179l-41 -164h-167l-125 -711q-34 -192 -61 -276q-50 -154 -154 -237q-97 -76 -251 -76q-70 0 -163 15l49 159
q62 -20 122 -20q102 0 151 111q40 88 77 300zM886 819h-164l42 164h151l24 139q31 177 130 264q114 102 337 102q142 0 285 -29l186 37l-264 -1496h-226l229 1299q-102 35 -204 35q-130 0 -188 -66q-42 -46 -60 -150l-24 -135h248l-41 -164h-236l-125 -711
q-34 -192 -61 -276q-50 -155 -154 -237q-97 -76 -251 -76q-70 0 -163 15l49 159q61 -20 122 -20q102 0 151 111q40 88 77 300z" />
    <glyph glyph-name="f_t" unicode="ft" horiz-adv-x="1362" vert-adv-y="2457" 
d="M240 819h-173l41 164h161l26 146q33 187 110 266q92 93 256 93q118 0 234 -37l-69 -167q-69 50 -141 50q-79 0 -119 -61q-28 -43 -45 -140l-27 -150h179l-41 -164h-167l-125 -711q-34 -192 -61 -276q-50 -154 -154 -237q-97 -76 -251 -76q-70 0 -163 15l49 159
q62 -20 122 -20q102 0 151 111q40 88 77 300zM893 819h-161l42 164h153l61 262l214 47l-54 -309h263l-41 -164h-251l-75 -425q-18 -100 -18 -169q0 -46 21 -69q21 -24 77 -24q74 0 156 40l-5 -164q-116 -34 -242 -34q-132 0 -189 51q-54 48 -54 145q0 65 25 206z" />
    <glyph glyph-name="f_f_t" unicode="fft" horiz-adv-x="2008" vert-adv-y="2457" 
d="M240 819h-173l41 164h161l26 146q33 187 110 266q92 93 256 93q118 0 234 -37l-69 -167q-69 50 -141 50q-79 0 -119 -61q-28 -43 -45 -140l-27 -150h179l-41 -164h-167l-125 -711q-34 -192 -61 -276q-50 -154 -154 -237q-97 -76 -251 -76q-70 0 -163 15l49 159
q62 -20 122 -20q102 0 151 111q40 88 77 300zM886 819h-164l41 164h152l25 146q20 107 44 163q87 196 323 196q118 0 234 -37l-69 -167q-69 50 -141 50q-79 0 -119 -62q-29 -43 -45 -139l-27 -150h179l-42 -164h-166l-125 -711q-34 -192 -61 -276q-101 -313 -405 -313
q-70 0 -163 15l49 159q62 -20 122 -20q102 0 151 111q40 88 77 300zM1539 819h-161l42 164h153l61 262l214 47l-55 -309h264l-41 -164h-251l-75 -425q-18 -99 -18 -168q0 -47 21 -70q21 -24 77 -24q74 0 156 40l-5 -164q-116 -34 -242 -34q-132 0 -189 51q-54 48 -54 145
q0 65 25 206z" />
    <glyph glyph-name="f_f_f" unicode="fff" horiz-adv-x="1960" vert-adv-y="2457" 
d="M240 819h-173l41 164h161l26 146q33 187 110 266q92 93 256 93q118 0 234 -37l-69 -167q-69 50 -141 50q-79 0 -119 -61q-28 -43 -45 -140l-27 -150h179l-41 -164h-167l-125 -711q-34 -192 -61 -276q-50 -154 -154 -237q-97 -76 -251 -76q-70 0 -163 15l49 159
q62 -20 122 -20q102 0 151 111q40 88 77 300zM885 819h-164l42 164h151l26 146q33 186 111 266q91 93 255 93q118 0 234 -37l-68 -167q-70 50 -142 50q-79 0 -119 -62q-28 -43 -45 -139l-27 -150h179l-41 -164h-166l-126 -711q-35 -197 -61 -276q-52 -156 -154 -237
q-97 -76 -251 -76q-69 0 -163 15l49 159q63 -20 122 -20q102 0 151 111q40 88 77 300zM1532 819h-164l41 164h152l25 146q33 186 111 266q92 93 256 93q118 0 234 -37l-69 -167q-70 50 -142 50q-78 0 -118 -62q-29 -43 -45 -139l-27 -150h248l-41 -164h-236l-126 -711
q-33 -192 -61 -276q-50 -155 -154 -237q-96 -76 -250 -76q-70 0 -163 15l49 159q62 -20 122 -20q102 0 151 111q40 89 77 300z" />
    <glyph glyph-name=".notdef" horiz-adv-x="1709" vert-adv-y="2457" 
d="M982 405h-151v66q0 84 -15 122q-16 42 -56 84q-20 21 -78 80q-89 88 -135 159q-64 96 -64 207q0 88 42 162q87 153 361 153q152 0 313 -45l-29 -154q-148 70 -267 70q-231 0 -231 -190q0 -94 57 -180q30 -47 136 -159q81 -86 101 -141q16 -46 16 -138v-96zM904 234
q58 0 97 -45q33 -37 33 -85q0 -56 -42 -95q-38 -35 -90 -35q-61 0 -100 45q-32 37 -32 86q0 54 42 94q37 35 92 35zM123 -459v2196h1464v-2196h-1464zM246 -336h1218v1950h-1218v-1950z" />
    <glyph glyph-name="glyph1" horiz-adv-x="0" vert-adv-y="0" 
 />
    <glyph glyph-name="glyph2" horiz-adv-x="1709" vert-adv-y="2457" 
 />
    <glyph glyph-name="space" unicode=" " horiz-adv-x="492" vert-adv-y="2457" 
 />
    <glyph glyph-name="exclam" unicode="!" horiz-adv-x="697" vert-adv-y="2457" 
d="M241 426l137 987h265l-211 -987h-191zM286 275q68 0 114 -52q39 -44 39 -99q0 -65 -50 -111q-44 -40 -106 -40q-71 0 -118 52q-38 43 -38 100q0 63 50 110q44 40 109 40z" />
    <glyph glyph-name="quotedbl" unicode="&#x22;" horiz-adv-x="744" vert-adv-y="2457" 
d="M166 851l72 562h238l-127 -562h-183zM522 851l72 562h238l-127 -562h-183z" />
    <glyph glyph-name="numbersign" unicode="#" vert-adv-y="2457" 
d="M313 585l40 226h-178l26 145h177l62 353h204l-62 -353h185l62 353h202l-62 -353h176l-25 -145h-176l-40 -226h176l-26 -145h-176l-59 -338h-202l59 338h-185l-60 -338h-203l59 338h-177l26 145h177zM516 585h186l40 226h-186z" />
    <glyph glyph-name="dollar" unicode="$" vert-adv-y="2457" 
d="M481 150l87 488q-116 56 -185 105q-83 59 -119 120q-40 68 -40 157q0 136 80 237q121 152 402 165l32 185h129l-33 -187q166 -12 316 -59l-82 -185q-140 74 -262 86l-80 -451q149 -73 207 -116q77 -56 109 -120q34 -66 34 -154q0 -149 -87 -257q-122 -152 -407 -171
l-34 -193h-128l33 191q-254 7 -432 81l69 192q183 -110 391 -114zM611 160q227 44 227 230q0 84 -63 138q-28 24 -89 55zM608 870l69 387q-215 -41 -215 -206q0 -77 72 -133q28 -22 74 -48z" />
    <glyph glyph-name="percent" unicode="%" horiz-adv-x="1812" vert-adv-y="2457" 
d="M596 1442q153 0 229 -89q66 -77 66 -197q0 -93 -28 -185q-43 -145 -147 -218q-90 -63 -219 -63q-136 0 -215 66q-89 75 -89 224q0 102 37 204q92 258 366 258zM589 1319q-92 0 -142 -126q-46 -113 -46 -239q0 -142 98 -142q89 0 139 126q46 113 46 240q0 141 -95 141z
M441 0l811 1413h195l-811 -1413h-195zM1390 722q154 0 230 -89q66 -76 66 -197q0 -93 -28 -185q-42 -144 -147 -218q-90 -63 -219 -63q-137 0 -216 66q-89 76 -89 223q0 102 37 205q92 258 366 258zM1383 599q-92 0 -142 -126q-46 -113 -46 -238q0 -142 98 -142
q89 0 140 126q46 113 46 239q0 141 -96 141z" />
    <glyph glyph-name="ampersand" unicode="&#x26;" horiz-adv-x="1376" vert-adv-y="2457" 
d="M450 784q-79 155 -79 279q0 178 118 284q105 95 281 95q178 0 269 -89q73 -70 73 -189q0 -168 -136 -283q-63 -53 -170 -104q-19 -9 -67 -31l225 -352q64 78 119 181q34 65 97 222l212 -1q-138 -346 -334 -540l188 -256h-290l-74 114q-67 -49 -111 -74q-130 -70 -294 -70
q-192 0 -298 88q-107 89 -107 249q0 126 65 234q84 139 313 243zM663 864q94 47 146 96q88 84 88 209q0 133 -124 133q-85 0 -135 -62q-48 -59 -48 -154q0 -84 37 -157q7 -14 36 -65zM528 662q-81 -48 -126 -97q-86 -95 -86 -240q0 -105 58 -157q56 -50 149 -50q91 0 191 61
q40 24 87 60z" />
    <glyph glyph-name="quotesingle" unicode="'" horiz-adv-x="367" vert-adv-y="2457" 
d="M155 851l72 562h238l-126 -562h-184z" />
    <glyph glyph-name="parenleft" unicode="(" horiz-adv-x="837" vert-adv-y="2457" 
d="M546 -323l-145 -80q-169 292 -169 695q0 467 213 885q120 235 284 411l137 -84q-168 -235 -279 -551q-74 -208 -109 -474q-17 -127 -17 -242q0 -316 85 -560z" />
    <glyph glyph-name="parenright" unicode=")" horiz-adv-x="837" vert-adv-y="2457" 
d="M328 1508l144 80q169 -294 169 -695q0 -467 -213 -885q-120 -236 -284 -411l-137 83q127 179 218 396q94 220 137 429q50 248 50 447q0 316 -84 556z" />
    <glyph glyph-name="asterisk" unicode="*" horiz-adv-x="1121" vert-adv-y="2457" 
d="M610 1284l37 326l226 -40l-78 -318l325 57l21 -193l-335 -14l163 -307l-193 -86l-117 309l-215 -250l-153 147l259 232l-310 128l85 174z" />
    <glyph glyph-name="plus" unicode="+" vert-adv-y="2457" 
d="M130 620l31 177h378l72 408h209l-72 -408h378l-31 -177h-378l-72 -404h-208l71 404h-378z" />
    <glyph glyph-name="comma" unicode="," horiz-adv-x="546" vert-adv-y="2457" 
d="M-45 -298l190 559h244l-255 -559h-179z" />
    <glyph glyph-name="hyphen" unicode="-" horiz-adv-x="817" vert-adv-y="2457" 
d="M133 553l32 183h573l-32 -183h-573z" />
    <glyph glyph-name="period" unicode="." horiz-adv-x="545" vert-adv-y="2457" 
d="M211 275q68 0 114 -52q39 -44 39 -99q0 -65 -50 -111q-44 -40 -106 -40q-71 0 -118 52q-38 43 -38 100q0 63 50 110q44 40 109 40z" />
    <glyph glyph-name="slash" unicode="/" horiz-adv-x="962" vert-adv-y="2457" 
d="M-38 0l881 1413h233l-880 -1413h-234z" />
    <glyph glyph-name="zero" unicode="0" vert-adv-y="2457" 
d="M739 1439q204 0 308 -114q99 -110 99 -325q0 -202 -64 -469q-71 -296 -202 -425q-139 -136 -359 -136q-413 0 -413 440q0 205 64 470q74 306 212 433q136 126 355 126zM731 1276q-128 0 -208 -128q-71 -115 -123 -388q-46 -245 -46 -384q0 -243 175 -243q183 0 273 296
q38 124 72 336q26 164 26 271q0 240 -169 240z" />
    <glyph glyph-name="one" unicode="1" vert-adv-y="2457" 
d="M462 168l187 1060l-283 -62l29 167l354 89h168l-221 -1254h256l-30 -168h-762l29 168h273z" />
    <glyph glyph-name="two" unicode="2" vert-adv-y="2457" 
d="M41 0l27 157l482 492q151 154 221 266q59 95 59 200q0 76 -45 116q-48 43 -135 43q-128 0 -315 -87l-5 181q175 71 349 71q199 0 300 -85q97 -81 97 -232q0 -146 -97 -293q-51 -78 -119 -149q-58 -62 -146 -148l-372 -368h600l-29 -164h-872z" />
    <glyph glyph-name="three" unicode="3" vert-adv-y="2457" 
d="M327 665l31 174q63 -6 106 -6q173 0 263 88q81 79 81 204q0 149 -196 149q-122 0 -292 -74l-12 174q177 65 353 65q177 0 281 -69q109 -72 109 -222t-95 -251q-63 -68 -192 -118q101 -34 148 -74q91 -76 91 -217q0 -165 -122 -294q-139 -146 -439 -193q-128 -21 -367 -31
l15 164q317 10 455 71q207 92 207 290q0 104 -76 145q-69 37 -195 37q-60 0 -154 -12z" />
    <glyph glyph-name="four" unicode="4" vert-adv-y="2457" 
d="M675 339h-631l28 161l578 913h219l-578 -913h412l86 483h214l-85 -483h192l-28 -161h-192l-60 -339h-215z" />
    <glyph glyph-name="five" unicode="5" vert-adv-y="2457" 
d="M83 -30l15 164q182 10 275 27q231 42 335 163q82 95 82 223q0 104 -61 147q-55 39 -166 39q-86 0 -205 -34l-130 18l149 696h712l-30 -172h-508l-78 -359l30 3q89 7 136 7q397 0 397 -330q0 -185 -112 -320q-145 -175 -478 -235q-134 -25 -363 -37z" />
    <glyph glyph-name="six" unicode="6" vert-adv-y="2457" 
d="M1041 1439l-29 -164q-241 -28 -385 -150q-143 -120 -217 -354q52 57 87 81q102 69 232 69q157 0 248 -87q102 -96 102 -268q0 -112 -39 -229q-57 -175 -190 -273q-129 -94 -312 -94q-206 0 -318 109q-105 101 -105 305q0 232 83 456q135 362 451 504q158 71 392 95z
M658 758q-146 0 -232 -138q-72 -116 -72 -273q0 -214 183 -214q156 0 236 162q60 122 60 257q0 96 -44 150q-46 56 -131 56z" />
    <glyph glyph-name="seven" unicode="7" vert-adv-y="2457" 
d="M931 1241h-628l30 172h874l-19 -109l-756 -1304h-255z" />
    <glyph glyph-name="eight" unicode="8" vert-adv-y="2457" 
d="M399 747q-55 31 -88 62q-85 76 -85 201q0 101 47 193q122 236 457 236q205 0 320 -97q99 -85 99 -228q0 -173 -122 -280q-61 -53 -161 -95q80 -34 122 -67q109 -87 109 -242q0 -109 -50 -209q-124 -251 -520 -251q-232 0 -357 87q-121 86 -121 251q0 128 66 237t190 166
q34 15 94 36zM731 1274q-146 0 -216 -98q-55 -79 -55 -192q0 -83 55 -127q45 -37 134 -37q144 0 215 105q51 76 51 182q0 80 -47 123q-49 44 -137 44zM621 655q-174 0 -256 -102q-71 -89 -71 -229q0 -189 232 -189q171 0 255 105q71 89 71 229q0 186 -231 186z" />
    <glyph glyph-name="nine" unicode="9" vert-adv-y="2457" 
d="M147 -28l15 164q175 15 273 49q297 102 410 475q-49 -50 -84 -71q-99 -59 -217 -59q-164 0 -260 86q-104 94 -104 269q0 128 50 249q61 148 190 231q115 74 289 74q203 0 317 -101q115 -102 115 -310q0 -242 -92 -476q-136 -348 -429 -476q-191 -84 -473 -104zM711 1276
q-150 0 -227 -139q-61 -112 -61 -246q0 -198 180 -198q144 0 228 128q69 105 69 246q0 209 -189 209z" />
    <glyph glyph-name="colon" unicode=":" horiz-adv-x="545" vert-adv-y="2457" 
d="M211 275q68 0 114 -52q39 -44 39 -99q0 -65 -50 -111q-44 -40 -106 -40q-71 0 -118 52q-38 43 -38 100q0 63 50 110q44 40 109 40zM341 1011q69 0 115 -52q38 -44 38 -99q0 -65 -50 -111q-44 -40 -106 -40q-71 0 -117 52q-39 44 -39 100q0 63 50 110q44 40 109 40z" />
    <glyph glyph-name="semicolon" unicode=";" horiz-adv-x="547" vert-adv-y="2457" 
d="M-45 -298l190 559h244l-255 -559h-179zM355 1011q69 0 115 -52q38 -44 38 -99q0 -65 -50 -111q-44 -40 -106 -40q-71 0 -117 52q-39 44 -39 100q0 63 50 110q44 40 109 40z" />
    <glyph glyph-name="less" unicode="&#x3c;" vert-adv-y="2457" 
d="M434 694l576 -312l-37 -212l-810 481l18 102l980 487l-39 -226z" />
    <glyph glyph-name="equal" unicode="=" vert-adv-y="2457" 
d="M96 425l31 177h965l-31 -177h-965zM165 815l31 177h965l-31 -177h-965z" />
    <glyph glyph-name="greater" unicode="&#x3e;" vert-adv-y="2457" 
d="M821 716l-575 313l37 211l809 -481l-18 -101l-980 -488l40 226z" />
    <glyph glyph-name="question" unicode="?" horiz-adv-x="915" vert-adv-y="2457" 
d="M492 424h-204l15 79q16 95 39 139q27 55 136 153q147 132 188 200q48 80 48 154q0 130 -173 130q-121 0 -289 -75l5 186q161 49 324 49q186 0 283 -75q91 -70 91 -205q0 -125 -82 -238q-49 -68 -180 -180q-125 -107 -148 -139q-30 -41 -44 -126zM347 275q68 0 114 -52
q39 -44 39 -99q0 -65 -50 -111q-44 -40 -106 -40q-71 0 -118 52q-38 43 -38 100q0 63 50 110q44 40 109 40z" />
    <glyph glyph-name="at" unicode="@" horiz-adv-x="1771" vert-adv-y="2457" 
d="M1152 948h150l-94 -453q-13 -64 -13 -107q0 -77 67 -77q75 0 144 73q111 118 111 315q0 145 -58 268q-68 143 -216 214q-140 66 -313 66q-279 0 -450 -188q-177 -194 -177 -525t170 -482q165 -147 509 -147q268 0 538 73l-7 -112q-245 -65 -544 -65q-833 0 -833 726
q0 384 228 610q216 213 566 213q254 0 447 -111q178 -101 254 -286q48 -115 48 -249q0 -194 -94 -329q-127 -182 -345 -182q-116 0 -160 65q-19 27 -32 74q-36 -43 -66 -69q-84 -71 -198 -71q-107 0 -172 58q-75 68 -75 205q0 133 55 256q65 144 172 208q82 49 177 49
q129 0 192 -95zM958 848q-94 0 -164 -139q-60 -120 -60 -251q0 -71 25 -107q24 -34 65 -34q96 0 171 134q73 132 73 259q0 59 -27 96q-31 42 -83 42z" />
    <glyph glyph-name="A" unicode="A" horiz-adv-x="1278" vert-adv-y="2457" 
d="M890 382h-558l-206 -382h-246l791 1413h245l290 -1413h-245zM861 546l-69 387q-16 86 -39 258q-70 -148 -122 -246l-213 -399h443z" />
    <glyph glyph-name="B" unicode="B" horiz-adv-x="1241" vert-adv-y="2457" 
d="M84 0l249 1413h425q249 0 352 -70q110 -75 110 -231q0 -160 -105 -265q-67 -66 -183 -97q93 -30 137 -71q78 -74 78 -218q0 -139 -66 -250q-71 -118 -203 -167q-119 -44 -306 -44h-488zM468 825h161q119 0 178 14q88 21 133 105q35 65 35 146q0 101 -66 135
q-44 24 -166 24h-200zM351 164h183q196 0 270 64q95 83 95 249q0 123 -89 160q-63 27 -228 27h-143z" />
    <glyph glyph-name="C" unicode="C" horiz-adv-x="1084" vert-adv-y="2457" 
d="M977 213l-5 -190q-165 -49 -346 -49q-520 0 -520 513q0 256 95 491q185 461 632 461q184 0 344 -64l-76 -187q-129 86 -259 86q-239 0 -375 -277q-53 -108 -84 -258q-29 -135 -29 -251q0 -173 73 -264q69 -85 226 -85q155 0 324 74z" />
    <glyph glyph-name="D" unicode="D" horiz-adv-x="1308" vert-adv-y="2457" 
d="M84 0l249 1413h356q277 0 412 -104q172 -133 172 -442q0 -252 -107 -478q-107 -228 -310 -323q-141 -66 -355 -66h-417zM352 168h120q161 0 264 57q143 79 221 284q68 177 68 362q0 228 -109 312q-60 47 -160 58q-40 4 -123 4h-91z" />
    <glyph glyph-name="E" unicode="E" horiz-adv-x="1119" vert-adv-y="2457" 
d="M84 0l249 1413h882l-30 -168h-643l-75 -427h488l-28 -161h-489l-86 -489h653l-30 -168h-891z" />
    <glyph glyph-name="F" unicode="F" horiz-adv-x="1066" vert-adv-y="2457" 
d="M84 0l249 1413h850l-29 -168h-612l-77 -435h463l-29 -164h-463l-114 -646h-238z" />
    <glyph glyph-name="G" unicode="G" horiz-adv-x="1302" vert-adv-y="2457" 
d="M706 629l27 154h493l-129 -728q-186 -81 -422 -81q-283 0 -423 129q-73 67 -109 176q-35 108 -35 226q0 247 101 486q97 232 290 349q163 99 388 99q196 0 386 -68l-83 -184q-153 87 -296 87q-177 0 -288 -95q-134 -115 -200 -353q-50 -176 -50 -340q0 -181 89 -271
q76 -76 235 -76q95 0 201 37l80 453h-255z" />
    <glyph glyph-name="H" unicode="H" horiz-adv-x="1385" vert-adv-y="2457" 
d="M84 0l249 1413h239l-105 -592h567l105 592h238l-249 -1413h-238l115 653h-567l-116 -653h-238z" />
    <glyph glyph-name="I" unicode="I" horiz-adv-x="599" vert-adv-y="2457" 
d="M93 0l249 1413h239l-250 -1413h-238z" />
    <glyph glyph-name="J" unicode="J" horiz-adv-x="623" vert-adv-y="2457" 
d="M367 1413h239l-208 -1176q-37 -208 -63 -299q-113 -388 -491 -388q-103 0 -208 22l51 171q80 -28 158 -28q153 0 221 149q46 102 92 363z" />
    <glyph glyph-name="K" unicode="K" horiz-adv-x="1213" vert-adv-y="2457" 
d="M84 0l249 1413h239l-107 -602l644 602h263l-683 -631l496 -782h-270l-461 749l-132 -749h-238z" />
    <glyph glyph-name="L" unicode="L" horiz-adv-x="1029" vert-adv-y="2457" 
d="M84 0l249 1413h239l-220 -1245h606l-30 -168h-844z" />
    <glyph glyph-name="M" unicode="M" horiz-adv-x="1784" vert-adv-y="2457" 
d="M42 0l398 1413h288l100 -812q18 -142 24 -322q80 209 145 345l379 789h292l-100 -1413h-223l56 769q12 160 42 425q-38 -90 -89 -207q-66 -152 -89 -201l-376 -786h-175l-95 749q-12 94 -37 444q-44 -175 -77 -301l-29 -113l-217 -779h-217z" />
    <glyph glyph-name="N" unicode="N" horiz-adv-x="1396" vert-adv-y="2457" 
d="M84 0l249 1413h257l267 -730l36 -98l34 -97l32 -90l29 -82q11 95 46 298l18 106l123 693h213l-249 -1413h-245l-278 768q-23 65 -126 359q-19 -150 -54 -348l-138 -779h-214z" />
    <glyph glyph-name="O" unicode="O" horiz-adv-x="1378" vert-adv-y="2457" 
d="M836 1439q155 0 276 -64q133 -69 190 -219q45 -118 45 -261q0 -177 -55 -364q-83 -280 -258 -422q-167 -135 -407 -135q-241 0 -373 122q-147 136 -147 416q0 193 62 388q171 539 667 539zM831 1274q-245 0 -371 -277q-45 -99 -75 -247q-30 -145 -30 -268q0 -164 74 -258
q66 -85 199 -85q239 0 366 277q46 99 76 249q29 144 29 263q0 145 -59 239q-67 107 -209 107z" />
    <glyph glyph-name="P" unicode="P" horiz-adv-x="1167" vert-adv-y="2457" 
d="M84 0l249 1413h382q246 0 353 -78q61 -45 93 -120q34 -79 34 -171q0 -125 -55 -246q-117 -259 -496 -259h-226l-96 -539h-238zM446 703h151q127 0 193 30q80 37 121 128q39 88 39 184q0 122 -67 167q-54 37 -176 37h-164z" />
    <glyph glyph-name="Q" unicode="Q" horiz-adv-x="1378" vert-adv-y="2457" 
d="M1316 109l-51 -198q-44 27 -282 165q-165 -102 -359 -102q-238 0 -370 122q-147 136 -147 415q0 195 62 389q86 275 263 412q164 127 396 127q257 0 390 -143q65 -70 97 -178t32 -223q0 -239 -89 -462q-48 -123 -130 -227q111 -48 188 -97zM831 1274q-245 0 -371 -277
q-45 -99 -75 -247q-30 -145 -30 -268q0 -164 74 -258q66 -85 199 -85q239 0 366 277q46 99 76 249q29 144 29 263q0 145 -59 239q-67 107 -209 107z" />
    <glyph glyph-name="R" unicode="R" horiz-adv-x="1227" vert-adv-y="2457" 
d="M84 0l249 1413h380q268 0 375 -75q123 -86 123 -264q0 -189 -116 -312q-66 -70 -165 -108q-25 -9 -68 -22q49 -45 73 -90q22 -41 50 -132l128 -410h-258l-103 366q-45 160 -66 193q-23 37 -88 37h-170l-106 -596h-238zM453 741h192q176 0 250 95q71 92 71 233
q0 101 -63 145q-50 35 -173 35h-187z" />
    <glyph glyph-name="S" unicode="S" horiz-adv-x="1040" vert-adv-y="2457" 
d="M-25 56l69 191q173 -108 365 -108q152 0 233 66q77 64 77 180q0 78 -44 127q-30 33 -70 57q-32 18 -100 55q-150 81 -228 156q-99 96 -99 245q0 190 129 303q128 111 359 111q185 0 365 -62l-83 -185q-144 82 -273 82q-122 0 -189 -57q-70 -60 -70 -161q0 -77 56 -129
q41 -40 175 -113q157 -86 225 -158q85 -90 85 -238q0 -210 -140 -330q-134 -114 -405 -114q-257 0 -437 82z" />
    <glyph glyph-name="T" unicode="T" horiz-adv-x="1146" vert-adv-y="2457" 
d="M367 0l220 1245h-396l29 168h1018l-29 -168h-384l-220 -1245h-238z" />
    <glyph glyph-name="U" unicode="U" horiz-adv-x="1295" vert-adv-y="2457" 
d="M323 1413h239l-151 -856q-30 -169 -30 -235q0 -183 219 -183q179 0 253 126q38 65 69 239l160 909h214l-171 -974q-21 -118 -36 -164q-100 -301 -507 -301q-230 0 -344 102q-93 84 -93 232q0 94 37 304z" />
    <glyph glyph-name="V" unicode="V" horiz-adv-x="1146" vert-adv-y="2457" 
d="M371 0l-229 1413h239l115 -769q11 -75 39 -373q125 278 174 377l383 765h237l-725 -1413h-233z" />
    <glyph glyph-name="W" unicode="W" horiz-adv-x="1789" vert-adv-y="2457" 
d="M312 0l-129 1413h227l50 -663q2 -25 11 -237q4 -155 7 -251q38 93 111 278q102 245 109 261l274 612h174l57 -616q11 -121 25 -428l6 -119l47 130q108 301 156 414l266 619h228l-628 -1413h-224l-56 671q-17 207 -18 428q-111 -297 -182 -457l-284 -642h-227z" />
    <glyph glyph-name="X" unicode="X" horiz-adv-x="1175" vert-adv-y="2457" 
d="M489 754l-158 383q-33 83 -121 276h266l129 -326q35 -89 63 -170q77 111 122 169l251 327h259q-156 -187 -204 -249l-339 -429l171 -421q25 -62 135 -314h-265l-152 385q-17 41 -54 142l-14 40l-26 -36q-63 -85 -97 -129l-311 -402h-264q192 230 224 270z" />
    <glyph glyph-name="Y" unicode="Y" horiz-adv-x="1070" vert-adv-y="2457" 
d="M328 0l94 533l-295 880h253l137 -424q17 -52 53 -190l13 -47l35 56q84 136 124 194l280 411h247l-608 -880l-94 -533h-239z" />
    <glyph glyph-name="Z" unicode="Z" horiz-adv-x="1066" vert-adv-y="2457" 
d="M-56 0l24 140l899 1105h-636l29 168h910l-13 -135l-904 -1110h730l-29 -168h-1010z" />
    <glyph glyph-name="bracketleft" unicode="[" horiz-adv-x="834" vert-adv-y="2457" 
d="M883 1543l-22 -131h-196l-289 -1639h195l-23 -132h-423l335 1902h423z" />
    <glyph glyph-name="backslash" unicode="\" horiz-adv-x="962" vert-adv-y="2457" 
d="M661 0l-500 1413h217l499 -1413h-216z" />
    <glyph glyph-name="bracketright" unicode="]" horiz-adv-x="834" vert-adv-y="2457" 
d="M-14 -359l23 132h196l289 1639h-196l23 131h423l-335 -1902h-423z" />
    <glyph glyph-name="asciicircum" unicode="^" vert-adv-y="2457" 
d="M704 1139l-343 -456h-260l591 755h115l325 -755h-246z" />
    <glyph glyph-name="underscore" unicode="_" vert-adv-y="2457" 
d="M-155 -419l23 130h1169l-23 -130h-1169z" />
    <glyph glyph-name="grave" unicode="`" horiz-adv-x="1024" vert-adv-y="2457" 
d="M606 1146l-208 278h266l107 -278h-165z" />
    <glyph glyph-name="a" unicode="a" horiz-adv-x="1098" vert-adv-y="2457" 
d="M674 121q-53 -63 -100 -93q-83 -54 -187 -54q-145 0 -230 82q-93 90 -93 273q0 172 66 333q73 177 202 265q122 82 308 82q187 0 398 -61q-44 -161 -81 -370l-54 -301q-28 -161 -31 -277h-203q1 54 5 121zM773 812q-64 39 -147 39q-166 0 -253 -193q-32 -72 -53 -174
q-18 -90 -18 -163q0 -189 140 -189q111 0 192 113q50 69 72 190z" />
    <glyph glyph-name="b" unicode="b" horiz-adv-x="1111" vert-adv-y="2457" 
d="M456 905q115 104 259 104q156 0 240 -94q85 -95 85 -270q0 -131 -41 -270q-119 -401 -517 -401q-212 0 -415 87q38 133 82 383l120 679q24 139 46 323l245 50zM326 173q71 -41 160 -41q166 0 253 195q63 143 63 307q0 217 -144 217q-111 0 -193 -112q-51 -69 -72 -191z
" />
    <glyph glyph-name="c" unicode="c" horiz-adv-x="843" vert-adv-y="2457" 
d="M727 183l-5 -174q-102 -35 -240 -35q-193 0 -295 87q-114 97 -114 290q0 143 49 287q71 208 225 304q108 67 259 67q165 0 270 -56l-78 -170q-68 68 -172 68q-153 0 -242 -173q-73 -142 -73 -320q0 -226 209 -226q98 0 207 51z" />
    <glyph glyph-name="d" unicode="d" horiz-adv-x="1111" vert-adv-y="2457" 
d="M813 970l27 153q25 141 45 323l246 50l-215 -1219q-29 -161 -31 -277h-203q1 60 5 123q-127 -149 -298 -149q-151 0 -237 93q-84 90 -84 260q0 133 43 270q66 209 207 318q122 94 288 94q107 0 207 -39zM782 796q-68 55 -149 55q-167 0 -258 -201q-69 -150 -69 -320
q0 -97 37 -147q37 -51 108 -51q112 0 195 113q51 69 72 190z" />
    <glyph glyph-name="e" unicode="e" horiz-adv-x="1028" vert-adv-y="2457" 
d="M304 394q-2 -47 -2 -64q0 -202 258 -202q154 0 292 65v-169q-143 -50 -336 -50q-443 0 -443 385q0 147 51 287q134 363 507 363q177 0 273 -77q84 -68 84 -198q0 -168 -146 -243q-101 -52 -326 -80q-123 -14 -212 -17zM326 543q196 10 307 41q92 25 119 71q19 32 19 78
q0 125 -146 125q-154 0 -236 -141q-38 -64 -63 -174z" />
    <glyph glyph-name="f" unicode="f" horiz-adv-x="668" vert-adv-y="2457" 
d="M240 819h-173l41 164h161l26 146q33 187 110 266q92 93 256 93q118 0 234 -37l-69 -167q-69 50 -141 50q-79 0 -119 -61q-28 -43 -45 -140l-27 -150h249l-42 -164h-236l-125 -711q-34 -192 -61 -276q-50 -154 -154 -237q-97 -76 -251 -76q-70 0 -163 15l49 159
q62 -20 122 -20q102 0 151 111q40 88 77 300z" />
    <glyph glyph-name="g" unicode="g" horiz-adv-x="1089" vert-adv-y="2457" 
d="M645 87q-119 -114 -258 -114q-145 0 -230 82q-93 90 -93 273q0 172 67 334q72 177 201 264q123 83 308 83q188 0 399 -61q-46 -163 -82 -370l-71 -403q-28 -157 -52 -250q-57 -210 -181 -308q-125 -98 -340 -98q-180 0 -309 43l46 175q131 -64 272 -64q162 0 234 117
q51 83 78 235zM773 812q-64 39 -146 39q-167 0 -254 -194q-32 -71 -53 -174q-18 -90 -18 -164q0 -188 140 -188q111 0 193 113q50 69 71 191z" />
    <glyph glyph-name="h" unicode="h" horiz-adv-x="1151" vert-adv-y="2457" 
d="M70 0l198 1123q24 135 46 323l245 50l-113 -641q59 56 118 91q104 63 222 63q130 0 194 -64q59 -57 59 -152q0 -64 -21 -184l-108 -609h-225l107 603q14 82 14 124q0 109 -105 109q-113 0 -234 -125q-44 -46 -58 -87q-7 -20 -15 -65l-99 -559h-225z" />
    <glyph glyph-name="i" unicode="i" horiz-adv-x="546" vert-adv-y="2457" 
d="M74 0l173 983h226l-174 -983h-225zM409 1423q59 0 99 -42q41 -42 41 -100t-41 -100q-40 -42 -100 -42q-61 0 -101 42q-41 42 -41 100q0 59 41 100q41 42 102 42z" />
    <glyph glyph-name="j" unicode="j" horiz-adv-x="547" vert-adv-y="2457" 
d="M248 983h225l-155 -875q-34 -192 -61 -276q-103 -313 -423 -313q-71 0 -169 15l49 159q67 -20 128 -20q114 0 167 110q42 88 80 301zM410 1423q59 0 100 -42q40 -41 40 -100q0 -58 -40 -100q-41 -42 -101 -42t-101 42t-41 100q0 59 41 100q42 42 102 42z" />
    <glyph glyph-name="k" unicode="k" horiz-adv-x="990" vert-adv-y="2457" 
d="M70 0l198 1123q24 135 46 323l245 50l-155 -879l441 366h250l-478 -381l356 -602h-252l-325 572l-101 -572h-225z" />
    <glyph glyph-name="l" unicode="l" horiz-adv-x="546" vert-adv-y="2457" 
d="M73 0l198 1123q24 135 46 323l245 50l-264 -1496h-225z" />
    <glyph glyph-name="m" unicode="m" horiz-adv-x="1701" vert-adv-y="2457" 
d="M70 0l110 623q34 195 53 360h205l-12 -148q162 174 335 174q211 0 235 -189q167 189 348 189q118 0 183 -58q62 -55 62 -154q0 -66 -24 -202l-105 -595h-225l106 603q15 84 15 130q0 103 -91 103q-104 0 -218 -126q-41 -45 -55 -85q-8 -24 -14 -59l-100 -566h-226
l107 603q15 86 15 131q0 102 -89 102q-106 0 -221 -126q-40 -44 -54 -85q-8 -22 -15 -62l-99 -563h-226z" />
    <glyph glyph-name="n" unicode="n" horiz-adv-x="1148" vert-adv-y="2457" 
d="M70 0l110 623q34 195 53 360h205l-12 -148q167 174 351 174q123 0 192 -58q66 -56 66 -159q0 -66 -20 -183l-108 -609h-225l105 595q15 87 15 135q0 105 -104 105q-112 0 -231 -125q-42 -45 -57 -85q-9 -25 -15 -62l-99 -563h-226z" />
    <glyph glyph-name="o" unicode="o" horiz-adv-x="1103" vert-adv-y="2457" 
d="M631 1009q178 0 284 -101q113 -107 113 -296q0 -133 -45 -266q-65 -189 -220 -291q-121 -81 -282 -81q-187 0 -293 101q-112 107 -112 302q0 138 51 275q64 174 205 271q125 86 299 86zM617 851q-153 0 -238 -182q-65 -138 -65 -306q0 -231 176 -231q151 0 235 183
q65 139 65 305q0 231 -173 231z" />
    <glyph glyph-name="p" unicode="p" horiz-adv-x="1111" vert-adv-y="2457" 
d="M298 11l-83 -470h-225l191 1082q32 185 53 360h204l-5 -102q125 128 288 128t245 -108q73 -97 73 -271q0 -142 -46 -281q-124 -376 -484 -376q-104 0 -211 38zM329 188q73 -57 158 -57q162 0 248 189q66 145 66 311q0 220 -147 220q-106 0 -189 -112q-50 -69 -70 -181z
" />
    <glyph glyph-name="q" unicode="q" horiz-adv-x="1101" vert-adv-y="2457" 
d="M656 87q-114 -114 -260 -114q-151 0 -240 89q-92 91 -92 270q0 173 64 327q145 350 517 350q187 0 404 -61q-46 -174 -81 -372l-183 -1035h-225zM784 812q-64 39 -146 39q-172 0 -264 -197q-33 -70 -53 -168q-19 -89 -19 -164q0 -191 149 -191q113 0 195 113
q37 50 53 104q6 19 18 87z" />
    <glyph glyph-name="r" unicode="r" horiz-adv-x="739" vert-adv-y="2457" 
d="M70 0l112 632q34 196 51 351h215q-5 -72 -15 -146q60 74 98 106q80 66 174 66q56 0 112 -14l-64 -194q-60 27 -106 27q-93 0 -182 -128q-62 -90 -81 -199l-88 -501h-226z" />
    <glyph glyph-name="s" unicode="s" horiz-adv-x="846" vert-adv-y="2457" 
d="M-13 27l63 173q131 -68 267 -68q108 0 159 43q45 38 45 99q0 46 -36 80q-29 28 -135 86q-115 63 -164 114q-61 63 -61 159q0 135 101 219q94 77 273 77q153 0 291 -54l-78 -169q-89 65 -203 65q-76 0 -120 -32q-43 -31 -43 -83q0 -47 48 -85q35 -28 126 -79
q118 -68 163 -114q59 -61 59 -154q0 -148 -103 -241q-98 -89 -305 -89q-191 0 -347 53z" />
    <glyph glyph-name="t" unicode="t" horiz-adv-x="708" vert-adv-y="2457" 
d="M238 819h-172l42 164h164l61 262l214 47l-54 -309h263l-41 -164h-251l-75 -425q-18 -100 -18 -168q0 -47 21 -70q21 -24 77 -24q74 0 156 40l-5 -164q-115 -34 -242 -34q-132 0 -189 51q-54 48 -54 145q0 63 25 206z" />
    <glyph glyph-name="u" unicode="u" horiz-adv-x="1115" vert-adv-y="2457" 
d="M235 983h226l-101 -573q-17 -94 -17 -142q0 -123 110 -123q130 0 243 144l123 694h225l-125 -711q-26 -148 -30 -272h-210v50t1 66q-140 -142 -301 -142q-126 0 -198 64q-68 60 -68 178q0 73 26 218z" />
    <glyph glyph-name="v" unicode="v" horiz-adv-x="971" vert-adv-y="2457" 
d="M280 0l-175 983h232l69 -435q16 -107 40 -305q96 205 151 313l218 427h224l-533 -983h-226z" />
    <glyph glyph-name="w" unicode="w" horiz-adv-x="1500" vert-adv-y="2457" 
d="M258 0l-143 983h230l50 -428q6 -46 15 -163l7 -69l6 -70l30 72l26 60q66 156 71 166l196 432h195l38 -428q1 -4 12 -167l5 -70l4 -64q21 47 56 129q41 95 80 179l198 421h224l-498 -983h-215l-40 474q-2 18 -9 122q-4 72 -7 120l-28 -65q-58 -139 -79 -185l-209 -466
h-215z" />
    <glyph glyph-name="x" unicode="x" horiz-adv-x="1008" vert-adv-y="2457" 
d="M383 514l-250 469h247l93 -179q32 -60 70 -141q63 76 127 148l151 172h237l-422 -469l273 -514h-247l-107 208q-5 9 -23 42q-14 28 -57 117q-14 -18 -21 -26q-47 -59 -107 -127l-189 -214h-238z" />
    <glyph glyph-name="y" unicode="y" horiz-adv-x="961" vert-adv-y="2457" 
d="M295 0l-196 983h234l72 -458q16 -102 37 -248l12 -88l39 88l35 80q46 104 72 161l210 465h224l-456 -938q-141 -290 -206 -369q-129 -156 -338 -156q-72 0 -152 12l48 161q51 -19 108 -19q106 0 189 101q62 76 106 159l34 66h-72z" />
    <glyph glyph-name="z" unicode="z" horiz-adv-x="898" vert-adv-y="2457" 
d="M-47 0l13 130l633 692h-459l28 161h727l-10 -132l-631 -690h529l-28 -161h-802z" />
    <glyph glyph-name="braceleft" unicode="{" horiz-adv-x="844" vert-adv-y="2457" 
d="M398 648q60 -30 80 -47q42 -37 42 -115q0 -25 -24 -162l-45 -254q-25 -143 -25 -196q0 -70 36 -97t126 -27h44l-19 -109h-147q-125 0 -191 35q-81 44 -81 167q0 73 30 244l47 265q22 126 22 165q0 92 -116 92h-28l14 81h28q80 0 120 44q23 25 33 58.5t32 155.5l38 217
q26 148 49 206q41 106 136 142q79 30 202 30h148l-19 -109h-45q-132 0 -176 -64q-28 -41 -48 -129q-12 -51 -26 -128l-24 -137q-26 -148 -41 -182q-31 -74 -102 -111z" />
    <glyph glyph-name="bar" unicode="|" vert-adv-y="2457" 
d="M478 -419v1832h221v-1832h-221z" />
    <glyph glyph-name="braceright" unicode="}" horiz-adv-x="844" vert-adv-y="2457" 
d="M501 651q-59 30 -79 47q-42 36 -42 114q0 28 24 163l24 139q26 145 26 197q0 69 -36 96t-127 27h-44l19 109h148q125 0 191 -35q81 -44 81 -166q0 -72 -31 -245l-26 -150q-22 -125 -22 -165q0 -92 116 -92h28l-14 -81h-28q-80 0 -120 -44q-27 -29 -43 -95
q-5 -21 -22 -119l-59 -332q-26 -148 -48 -206q-41 -106 -136 -142q-79 -30 -202 -30h-148l19 109h44q132 0 177 64q28 41 48 129q12 53 25 128l45 253q26 146 41 181q31 74 102 112q11 6 69 34z" />
    <glyph glyph-name="asciitilde" unicode="~" vert-adv-y="2457" 
d="M318 549l-147 39q41 107 96 173q88 109 226 109q83 0 141 -39q25 -17 95 -73q44 -36 82 -36q81 0 150 148l146 -38q-43 -109 -93 -171q-91 -112 -230 -112q-81 0 -147 44q-26 17 -88 68q-44 36 -83 36q-79 0 -148 -148z" />
    <glyph glyph-name="Adieresis" unicode="&#xc4;" horiz-adv-x="1278" vert-adv-y="2457" 
d="M890 382h-558l-206 -382h-246l791 1413h245l290 -1413h-245zM861 546l-69 387q-16 86 -39 258q-70 -148 -122 -246l-213 -399h443zM616 1829q58 0 97 -39q39 -38 39 -92q0 -55 -39 -93q-39 -39 -96 -39q-59 0 -98 39q-39 38 -39 94q0 53 39 91q40 39 97 39zM1019 1829
q57 0 97 -39q39 -38 39 -92t-39 -93t-97 -39t-97 39q-39 38 -39 94q0 53 39 91q40 39 97 39z" />
    <glyph glyph-name="Aring" unicode="&#xc5;" horiz-adv-x="1278" vert-adv-y="2457" 
d="M890 382h-558l-206 -382h-246l791 1413h245l290 -1413h-245zM861 546l-69 387q-16 86 -39 258q-70 -148 -122 -246l-213 -399h443zM829 1955q106 0 170 -60q63 -59 63 -148q0 -88 -63 -147q-66 -62 -174 -62t-173 62q-64 60 -64 147q0 90 63 148q66 60 178 60zM827 1879
q-98 0 -98 -133q0 -60 24 -94q26 -38 72 -38q47 0 73 38q24 34 24 95t-24 94q-27 38 -71 38z" />
    <glyph glyph-name="Ccedilla" unicode="&#xc7;" horiz-adv-x="1084" vert-adv-y="2457" 
d="M977 213l-5 -190q-163 -50 -336 -50q-12 0 -45 1l-93 -112q84 -8 123 -27q84 -40 84 -142q0 -113 -82 -178q-73 -57 -208 -57q-112 0 -204 32l44 104q73 -34 134 -34q66 0 96 46q26 38 26 92q0 88 -104 88q-19 0 -53 -4l-7 36l136 168q-377 70 -377 500q0 257 95 492
q185 461 631 461q183 0 345 -64l-76 -187q-126 86 -259 86q-239 0 -375 -278q-53 -108 -84 -258q-29 -135 -29 -251q0 -173 73 -264q69 -85 226 -85q154 0 324 75z" />
    <glyph glyph-name="Eacute" unicode="&#xc9;" horiz-adv-x="1119" vert-adv-y="2457" 
d="M84 0l249 1413h882l-30 -168h-643l-75 -427h488l-28 -161h-489l-86 -489h653l-30 -168h-891zM678 1558l205 277h278l-306 -277h-177z" />
    <glyph glyph-name="Ntilde" unicode="&#xd1;" horiz-adv-x="1396" vert-adv-y="2457" 
d="M84 0l249 1413h257l267 -730l36 -98l34 -97l32 -90l29 -82q11 95 46 298l18 106l123 693h213l-249 -1413h-245l-278 768q-23 65 -126 359q-19 -150 -54 -348l-138 -779h-214zM671 1561h-155q43 124 91 188q76 102 182 102q56 0 104 -28q26 -15 72 -64q49 -52 76 -52
q52 0 94 133h157q-33 -120 -76 -184q-74 -109 -201 -109q-72 0 -121 40q-11 9 -55 55q-45 48 -70 48q-47 0 -98 -129z" />
    <glyph glyph-name="Odieresis" unicode="&#xd6;" horiz-adv-x="1378" vert-adv-y="2457" 
d="M836 1439q155 0 276 -64q133 -69 190 -219q45 -118 45 -261q0 -177 -55 -364q-83 -280 -258 -422q-167 -135 -407 -135q-241 0 -373 122q-147 136 -147 416q0 193 62 388q171 539 667 539zM831 1274q-245 0 -371 -277q-45 -99 -75 -247q-30 -145 -30 -268q0 -164 74 -258
q66 -85 199 -85q239 0 366 277q46 99 76 249q29 144 29 263q0 145 -59 239q-67 107 -209 107zM695 1829q57 0 97 -39q39 -39 39 -92q0 -54 -39 -93t-97 -39t-97 39t-39 94q0 53 39 91q41 39 97 39zM1098 1829q57 0 97 -39q39 -38 39 -92q0 -55 -39 -93q-39 -39 -97 -39
t-97 39t-39 94q0 53 39 91q40 39 97 39z" />
    <glyph glyph-name="Udieresis" unicode="&#xdc;" horiz-adv-x="1295" vert-adv-y="2457" 
d="M323 1413h239l-151 -856q-30 -169 -30 -235q0 -183 219 -183q179 0 253 126q38 65 69 239l160 909h214l-171 -974q-21 -118 -36 -164q-100 -301 -507 -301q-230 0 -344 102q-93 84 -93 232q0 94 37 304zM649 1829q58 0 97 -39q39 -38 39 -92q0 -55 -39 -93
q-39 -39 -96 -39q-59 0 -98 39q-39 38 -39 94q0 53 39 91q40 39 97 39zM1052 1829q57 0 97 -39q39 -38 39 -92t-39 -93t-97 -39t-97 39q-39 38 -39 94q0 53 39 91q40 39 97 39z" />
    <glyph glyph-name="aacute" unicode="&#xe1;" horiz-adv-x="1098" vert-adv-y="2457" 
d="M674 121q-53 -63 -100 -93q-83 -54 -187 -54q-145 0 -230 82q-93 90 -93 273q0 172 66 333q73 177 202 265q122 82 308 82q187 0 398 -61q-44 -161 -81 -370l-54 -301q-28 -161 -31 -277h-203q1 54 5 121zM773 812q-64 39 -147 39q-166 0 -253 -193q-32 -72 -53 -174
q-18 -90 -18 -163q0 -189 140 -189q111 0 192 113q50 69 72 190zM555 1147l205 277h278l-306 -277h-177z" />
    <glyph glyph-name="agrave" unicode="&#xe0;" horiz-adv-x="1098" vert-adv-y="2457" 
d="M674 121q-53 -63 -100 -93q-83 -54 -187 -54q-145 0 -230 82q-93 90 -93 273q0 172 66 333q73 177 202 265q122 82 308 82q187 0 398 -61q-44 -161 -81 -370l-54 -301q-28 -161 -31 -277h-203q1 54 5 121zM773 812q-64 39 -147 39q-166 0 -253 -193q-32 -72 -53 -174
q-18 -90 -18 -163q0 -189 140 -189q111 0 192 113q50 69 72 190zM670 1146l-208 278h266l107 -278h-165z" />
    <glyph glyph-name="acircumflex" unicode="&#xe2;" horiz-adv-x="1098" vert-adv-y="2457" 
d="M674 121q-53 -63 -100 -93q-83 -54 -187 -54q-145 0 -230 82q-93 90 -93 273q0 172 66 333q73 177 202 265q122 82 308 82q187 0 398 -61q-44 -161 -81 -370l-54 -301q-28 -161 -31 -277h-203q1 54 5 121zM773 812q-64 39 -147 39q-166 0 -253 -193q-32 -72 -53 -174
q-18 -90 -18 -163q0 -189 140 -189q111 0 192 113q50 69 72 190zM701 1310l-197 -163h-188l266 277h266l168 -277h-175z" />
    <glyph glyph-name="adieresis" unicode="&#xe4;" horiz-adv-x="1098" vert-adv-y="2457" 
d="M674 121q-53 -63 -100 -93q-83 -54 -187 -54q-145 0 -230 82q-93 90 -93 273q0 172 66 333q73 177 202 265q122 82 308 82q187 0 398 -61q-44 -161 -81 -370l-54 -301q-28 -161 -31 -277h-203q1 54 5 121zM773 812q-64 39 -147 39q-166 0 -253 -193q-32 -72 -53 -174
q-18 -90 -18 -163q0 -189 140 -189q111 0 192 113q50 69 72 190zM499 1413q58 0 97 -39q39 -38 39 -92t-39 -93t-96 -39q-59 0 -98 39t-39 94q0 53 39 91q40 39 97 39zM878 1413q58 0 97 -39q39 -38 39 -92t-39 -93t-97 -39t-97 39t-39 94q0 53 39 91q40 39 97 39z" />
    <glyph glyph-name="atilde" unicode="&#xe3;" horiz-adv-x="1098" vert-adv-y="2457" 
d="M674 121q-53 -63 -100 -93q-83 -54 -187 -54q-145 0 -230 82q-93 90 -93 273q0 172 66 333q73 177 202 265q122 82 308 82q187 0 398 -61q-44 -161 -81 -370l-54 -301q-28 -161 -31 -277h-203q1 54 5 121zM773 812q-64 39 -147 39q-166 0 -253 -193q-32 -72 -53 -174
q-18 -90 -18 -163q0 -189 140 -189q111 0 192 113q50 69 72 190zM456 1150h-155q45 127 90 188q77 102 183 102q56 0 104 -28q26 -15 72 -64q49 -52 76 -52q38 0 66 59q13 25 28 74h157q-32 -119 -76 -184q-74 -109 -200 -109q-73 0 -122 40q-11 9 -55 55q-45 48 -70 48
q-47 0 -98 -129z" />
    <glyph glyph-name="aring" unicode="&#xe5;" horiz-adv-x="1098" vert-adv-y="2457" 
d="M674 121q-53 -63 -100 -93q-83 -54 -187 -54q-145 0 -230 82q-93 90 -93 273q0 172 66 333q73 177 202 265q122 82 308 82q187 0 398 -61q-44 -161 -81 -370l-54 -301q-28 -161 -31 -277h-203q1 54 5 121zM773 812q-64 39 -147 39q-166 0 -253 -193q-32 -72 -53 -174
q-18 -90 -18 -163q0 -189 140 -189q111 0 192 113q50 69 72 190zM726 1544q105 0 170 -60q63 -59 63 -148q0 -88 -63 -147q-66 -62 -174 -62t-173 62q-64 60 -64 147q0 90 63 148q66 60 178 60zM723 1468q-48 0 -74 -38q-24 -34 -24 -95q0 -59 24 -94q26 -38 73 -38
q46 0 73 38q24 34 24 95t-24 94q-27 38 -72 38z" />
    <glyph glyph-name="ccedilla" unicode="&#xe7;" horiz-adv-x="844" vert-adv-y="2457" 
d="M721 183l-5 -174q-100 -36 -238 -36q-7 0 -31 1l-93 -112q84 -8 123 -27q84 -40 84 -142q0 -112 -82 -178q-72 -57 -208 -57q-112 0 -204 32l44 104q74 -34 134 -34q66 0 96 46q26 38 26 92q0 88 -104 88q-19 0 -53 -4l-7 36l136 168q-92 19 -155 71q-117 96 -117 295
q0 141 49 286q71 208 225 304q108 67 259 67q165 0 270 -56l-78 -170q-68 68 -172 68q-153 0 -242 -173q-73 -142 -73 -320q0 -227 209 -227q98 0 207 52z" />
    <glyph glyph-name="eacute" unicode="&#xe9;" horiz-adv-x="1028" vert-adv-y="2457" 
d="M304 394q-2 -47 -2 -64q0 -202 258 -202q154 0 292 65v-169q-143 -50 -336 -50q-443 0 -443 385q0 147 51 287q134 363 507 363q177 0 273 -77q84 -68 84 -198q0 -168 -146 -243q-101 -52 -326 -80q-123 -14 -212 -17zM326 543q196 10 307 41q92 25 119 71q19 32 19 78
q0 125 -146 125q-154 0 -236 -141q-38 -64 -63 -174zM526 1147l205 277h278l-306 -277h-177z" />
    <glyph glyph-name="egrave" unicode="&#xe8;" horiz-adv-x="1028" vert-adv-y="2457" 
d="M304 394q-2 -47 -2 -64q0 -202 258 -202q154 0 292 65v-169q-143 -50 -336 -50q-443 0 -443 385q0 147 51 287q134 363 507 363q177 0 273 -77q84 -68 84 -198q0 -168 -146 -243q-101 -52 -326 -80q-123 -14 -212 -17zM326 543q196 10 307 41q92 25 119 71q19 32 19 78
q0 125 -146 125q-154 0 -236 -141q-38 -64 -63 -174zM621 1146l-208 278h266l107 -278h-165z" />
    <glyph glyph-name="ecircumflex" unicode="&#xea;" horiz-adv-x="1028" vert-adv-y="2457" 
d="M304 394q-2 -47 -2 -64q0 -202 258 -202q154 0 292 65v-169q-143 -50 -336 -50q-443 0 -443 385q0 147 51 287q134 363 507 363q177 0 273 -77q84 -68 84 -198q0 -168 -146 -243q-101 -52 -326 -80q-123 -14 -212 -17zM326 543q196 10 307 41q92 25 119 71q19 32 19 78
q0 125 -146 125q-154 0 -236 -141q-38 -64 -63 -174zM673 1310l-197 -163h-188l266 277h266l168 -277h-175z" />
    <glyph glyph-name="edieresis" unicode="&#xeb;" horiz-adv-x="1028" vert-adv-y="2457" 
d="M304 394q-2 -47 -2 -64q0 -202 258 -202q154 0 292 65v-169q-143 -50 -336 -50q-443 0 -443 385q0 147 51 287q134 363 507 363q177 0 273 -77q84 -68 84 -198q0 -168 -146 -243q-101 -52 -326 -80q-123 -14 -212 -17zM326 543q196 10 307 41q92 25 119 71q19 32 19 78
q0 125 -146 125q-154 0 -236 -141q-38 -64 -63 -174zM479 1413q58 0 97 -39q39 -38 39 -92t-39 -93t-96 -39q-59 0 -98 39t-39 94q0 53 39 91q40 39 97 39zM858 1413q58 0 97 -39q39 -38 39 -92t-39 -93t-97 -39t-97 39t-39 94q0 53 39 91q40 39 97 39z" />
    <glyph glyph-name="iacute" unicode="&#xed;" horiz-adv-x="545" vert-adv-y="2457" 
d="M74 0l173 983h226l-173 -983h-226zM266 1147l205 277h278l-306 -277h-177z" />
    <glyph glyph-name="igrave" unicode="&#xec;" horiz-adv-x="545" vert-adv-y="2457" 
d="M74 0l173 983h226l-173 -983h-226zM337 1146l-208 278h266l107 -278h-165z" />
    <glyph glyph-name="icircumflex" unicode="&#xee;" horiz-adv-x="545" vert-adv-y="2457" 
d="M73 0l173 983h226l-173 -983h-226zM406 1310l-197 -163h-188l266 277h266l168 -277h-175z" />
    <glyph glyph-name="idieresis" unicode="&#xef;" horiz-adv-x="545" vert-adv-y="2457" 
d="M61 0l173 983h226l-173 -983h-226zM200 1413q58 0 97 -39q39 -38 39 -92t-39 -93t-96 -39q-59 0 -98 39t-39 94q0 53 39 91q40 39 97 39zM579 1413q58 0 97 -39q39 -38 39 -92t-39 -93t-97 -39t-97 39t-39 94q0 53 39 91q40 39 97 39z" />
    <glyph glyph-name="ntilde" unicode="&#xf1;" horiz-adv-x="1148" vert-adv-y="2457" 
d="M70 0l110 623q34 195 53 360h205l-12 -148q167 174 351 174q123 0 192 -58q66 -56 66 -159q0 -66 -20 -183l-108 -609h-225l105 595q15 87 15 135q0 105 -104 105q-112 0 -231 -125q-42 -45 -57 -85q-9 -25 -15 -62l-99 -563h-226zM459 1150h-155q45 127 90 188
q77 102 183 102q56 0 104 -28q26 -15 72 -64q49 -52 76 -52q38 0 66 59q13 25 28 74h157q-32 -119 -76 -184q-74 -109 -200 -109q-73 0 -122 40q-11 9 -55 55q-45 48 -70 48q-47 0 -98 -129z" />
    <glyph glyph-name="oacute" unicode="&#xf3;" horiz-adv-x="1103" vert-adv-y="2457" 
d="M631 1009q178 0 284 -101q113 -107 113 -296q0 -133 -45 -266q-65 -189 -220 -291q-121 -81 -282 -81q-187 0 -293 101q-112 107 -112 302q0 138 51 275q64 174 205 271q125 86 299 86zM617 851q-153 0 -238 -182q-65 -138 -65 -306q0 -231 176 -231q151 0 235 183
q65 139 65 305q0 231 -173 231zM558 1147l205 277h278l-306 -277h-177z" />
    <glyph glyph-name="ograve" unicode="&#xf2;" horiz-adv-x="1103" vert-adv-y="2457" 
d="M631 1009q178 0 284 -101q113 -107 113 -296q0 -133 -45 -266q-65 -189 -220 -291q-121 -81 -282 -81q-187 0 -293 101q-112 107 -112 302q0 138 51 275q64 174 205 271q125 86 299 86zM617 851q-153 0 -238 -182q-65 -138 -65 -306q0 -231 176 -231q151 0 235 183
q65 139 65 305q0 231 -173 231zM641 1146l-208 278h266l107 -278h-165z" />
    <glyph glyph-name="ocircumflex" unicode="&#xf4;" horiz-adv-x="1103" vert-adv-y="2457" 
d="M631 1009q178 0 284 -101q113 -107 113 -296q0 -133 -45 -266q-65 -189 -220 -291q-121 -81 -282 -81q-187 0 -293 101q-112 107 -112 302q0 138 51 275q64 174 205 271q125 86 299 86zM617 851q-153 0 -238 -182q-65 -138 -65 -306q0 -231 176 -231q151 0 235 183
q65 139 65 305q0 231 -173 231zM690 1310l-197 -163h-188l266 277h266l168 -277h-175z" />
    <glyph glyph-name="odieresis" unicode="&#xf6;" horiz-adv-x="1103" vert-adv-y="2457" 
d="M631 1009q178 0 284 -101q113 -107 113 -296q0 -133 -45 -266q-65 -189 -220 -291q-121 -81 -282 -81q-187 0 -293 101q-112 107 -112 302q0 138 51 275q64 174 205 271q125 86 299 86zM617 851q-153 0 -238 -182q-65 -138 -65 -306q0 -231 176 -231q151 0 235 183
q65 139 65 305q0 231 -173 231zM496 1413q58 0 97 -39q39 -38 39 -92t-39 -93t-96 -39q-59 0 -98 39t-39 94q0 53 39 91q40 39 97 39zM875 1413q58 0 97 -39q39 -38 39 -92t-39 -93t-97 -39t-97 39t-39 94q0 53 39 91q40 39 97 39z" />
    <glyph glyph-name="otilde" unicode="&#xf5;" horiz-adv-x="1103" vert-adv-y="2457" 
d="M631 1009q178 0 284 -101q113 -107 113 -296q0 -133 -45 -266q-65 -189 -220 -291q-121 -81 -282 -81q-187 0 -293 101q-112 107 -112 302q0 138 51 275q64 174 205 271q125 86 299 86zM617 851q-153 0 -238 -182q-65 -138 -65 -306q0 -231 176 -231q151 0 235 183
q65 139 65 305q0 231 -173 231zM444 1150h-155q45 127 90 188q77 102 183 102q56 0 104 -28q26 -15 72 -64q49 -52 76 -52q38 0 66 59q13 25 28 74h157q-32 -119 -76 -184q-74 -109 -200 -109q-73 0 -122 40q-11 9 -55 55q-45 48 -70 48q-47 0 -98 -129z" />
    <glyph glyph-name="uacute" unicode="&#xfa;" horiz-adv-x="1115" vert-adv-y="2457" 
d="M235 983h226l-101 -573q-17 -94 -17 -142q0 -123 110 -123q130 0 243 144l123 694h225l-125 -711q-26 -148 -30 -272h-210v50t1 66q-140 -142 -301 -142q-126 0 -198 64q-68 60 -68 178q0 73 26 218zM537 1147l205 277h278l-306 -277h-177z" />
    <glyph glyph-name="ugrave" unicode="&#xf9;" horiz-adv-x="1115" vert-adv-y="2457" 
d="M235 983h226l-101 -573q-17 -94 -17 -142q0 -123 110 -123q130 0 243 144l123 694h225l-125 -711q-26 -148 -30 -272h-210v50t1 66q-140 -142 -301 -142q-126 0 -198 64q-68 60 -68 178q0 73 26 218zM630 1146l-208 278h266l107 -278h-165z" />
    <glyph glyph-name="ucircumflex" unicode="&#xfb;" horiz-adv-x="1115" vert-adv-y="2457" 
d="M235 983h226l-101 -573q-17 -94 -17 -142q0 -123 110 -123q130 0 243 144l123 694h225l-125 -711q-26 -148 -30 -272h-210v50t1 66q-140 -142 -301 -142q-126 0 -198 64q-68 60 -68 178q0 73 26 218zM689 1310l-197 -163h-188l266 277h266l168 -277h-175z" />
    <glyph glyph-name="udieresis" unicode="&#xfc;" horiz-adv-x="1115" vert-adv-y="2457" 
d="M235 983h226l-101 -573q-17 -94 -17 -142q0 -123 110 -123q130 0 243 144l123 694h225l-125 -711q-26 -148 -30 -272h-210v50t1 66q-140 -142 -301 -142q-126 0 -198 64q-68 60 -68 178q0 73 26 218zM495 1413q58 0 97 -39q39 -38 39 -92t-39 -93t-96 -39q-59 0 -98 39
t-39 94q0 53 39 91q40 39 97 39zM874 1413q58 0 97 -39q39 -38 39 -92t-39 -93t-97 -39t-97 39t-39 94q0 53 39 91q40 39 97 39z" />
    <glyph glyph-name="dagger" unicode="&#x2020;" horiz-adv-x="1125" vert-adv-y="2457" 
d="M496 783h-324l31 177h324l80 453h235l-80 -453h325l-31 -177h-325l-208 -1179h-235z" />
    <glyph glyph-name="degree" unicode="&#xb0;" horiz-adv-x="540" vert-adv-y="2457" 
d="M413 1507q103 0 172 -63q70 -66 70 -163q0 -98 -70 -164q-68 -63 -175 -63q-108 0 -176 63q-70 66 -70 163q0 99 70 164q70 63 179 63zM412 1422q-53 0 -84 -36q-32 -38 -32 -107q0 -67 32 -105q30 -35 82 -35t82 35q32 39 32 107t-32 105q-31 36 -80 36z" />
    <glyph glyph-name="cent" unicode="&#xa2;" vert-adv-y="2457" 
d="M574 174l37 208q-134 15 -202 53q-168 96 -168 319q0 190 85 365q73 149 209 228q107 63 258 67l34 193h128l-35 -199q126 -14 201 -50l-78 -170q-54 47 -150 66l-127 -719q98 8 206 54l-5 -174q-92 -29 -228 -35l-37 -206h-128zM639 545l125 707q-92 -25 -155 -98
q-70 -81 -104 -208q-26 -96 -26 -181q0 -186 160 -220z" />
    <glyph glyph-name="sterling" unicode="&#xa3;" vert-adv-y="2457" 
d="M315 628h-184l40 161h171l30 169q26 148 55 216q114 265 450 265q167 0 334 -47l-72 -176q-137 58 -242 58q-144 0 -218 -107q-49 -72 -74 -214l-29 -164h268l-41 -161h-255l-82 -460h582l-42 -168h-955l42 168h140z" />
    <glyph glyph-name="section" unicode="&#xa7;" horiz-adv-x="1177" vert-adv-y="2457" 
d="M73 -132l77 170q61 -38 113 -60q96 -42 199 -42q116 0 174 55q51 49 51 128q0 67 -48 101q-32 22 -71 35l-107 37q-146 50 -209 107q-67 60 -67 164q0 133 100 229q41 40 122 89q-83 76 -83 194q0 170 117 271q110 94 308 94q157 0 328 -57l-77 -170q-133 70 -245 70
q-108 0 -163 -56q-48 -48 -48 -126q0 -68 46 -102q34 -25 164 -72q152 -55 209 -107q67 -60 67 -166q0 -128 -97 -225q-44 -45 -117 -88q91 -78 91 -198q0 -85 -38 -163q-96 -201 -399 -201q-196 0 -397 89zM707 400q115 76 115 198q0 64 -44 101q-29 25 -137 69l-130 53
q-118 -82 -118 -200q0 -64 46 -102q29 -24 140 -68z" />
    <glyph glyph-name="bullet" unicode="&#x2022;" vert-adv-y="2457" 
d="M408 986h499q58 0 85 -30q20 -23 20 -56q0 -19 -2 -33l-71 -501q-8 -57 -35 -81q-28 -24 -86 -24h-499q-105 0 -105 86q0 18 2 32l71 502q8 57 36 81q27 24 85 24z" />
    <glyph glyph-name="paragraph" unicode="&#xb6;" horiz-adv-x="1412" vert-adv-y="2457" 
d="M395 -422l192 1087h-59q-69 0 -92 3q-91 11 -158 87q-76 85 -76 228q0 146 89 265q99 135 267 159q46 6 228 6h502l-324 -1835h-196l294 1667h-177l-294 -1667h-196z" />
    <glyph glyph-name="germandbls" unicode="&#xdf;" horiz-adv-x="1172" vert-adv-y="2457" 
d="M-304 -466l49 159q61 -20 122 -20q102 0 151 111q40 88 77 300l156 885q30 169 56 237q105 282 432 282q192 0 296 -82q94 -74 94 -211q0 -114 -67 -196q-35 -41 -135 -110q-41 -28 -56 -49q-19 -29 -19 -65q0 -39 23 -69q16 -20 85 -77q68 -55 99 -104q39 -64 39 -153
q0 -82 -33 -167q-89 -232 -368 -232q-102 0 -207 23l54 168q77 -33 154 -33q86 0 132 73q38 60 38 138q0 50 -26 83q-21 26 -75 68q-71 57 -99 97q-42 60 -42 127q0 72 36 128q29 47 114 111q79 59 101 102q28 54 28 122q0 150 -159 150q-133 0 -194 -104q-43 -74 -74 -249
l-153 -869q-34 -191 -61 -276q-50 -155 -154 -237q-97 -76 -251 -76q-70 0 -163 15z" />
    <glyph glyph-name="registered" unicode="&#xae;" horiz-adv-x="1243" vert-adv-y="2457" 
d="M531 757v542h189q231 0 231 -152q0 -116 -135 -152q41 -32 70 -85l82 -153h-133l-74 140q-30 58 -40 72q-12 17 -30 17h-31v-229h-129zM660 1044h60q100 0 100 98q0 49 -27 73q-20 18 -78 18h-55v-189zM723 1592q233 0 396 -153q173 -163 173 -414q0 -250 -173 -414
q-162 -153 -403 -153t-404 153q-173 164 -173 413q0 165 81 300q81 136 229 208q121 60 274 60zM721 1489q-197 0 -320 -128q-124 -130 -124 -337q0 -204 124 -333q123 -128 314 -128t313 128q125 130 125 334q0 205 -125 336q-59 63 -140 95q-83 33 -167 33z" />
    <glyph glyph-name="copyright" unicode="&#xa9;" horiz-adv-x="1736" vert-adv-y="2457" 
d="M1130 483l21 -105q-81 -32 -187 -32q-177 0 -273 96q-96 97 -96 272q0 202 120 305q94 80 251 80q95 0 172 -27l-30 -105q-71 29 -127 29q-93 0 -143 -76q-51 -78 -51 -199t50 -196q49 -74 151 -74q68 0 142 32zM917 1478q326 0 545 -220q100 -101 157 -234
q62 -147 62 -312q0 -325 -219 -546q-219 -220 -556 -220t-556 220q-100 101 -156 233q-63 147 -63 311q0 228 114 415q106 173 290 268q163 85 382 85zM915 1360q-286 0 -463 -193q-165 -180 -165 -457q0 -272 165 -452q177 -194 454 -194t454 194q165 180 165 454
q0 280 -165 455q-182 193 -445 193z" />
    <glyph glyph-name="trademark" unicode="&#x2122;" horiz-adv-x="1779" vert-adv-y="2457" 
d="M283 571l129 733h-245l25 109h670l-24 -109h-241l-129 -733h-185zM766 571l209 842h239l59 -404q8 -49 18 -138l4 -36q46 104 84 181l195 397h237l-89 -842h-181l47 430l5 47l6 55l7 53l-25 -53q-35 -75 -44 -92l-218 -440h-152l-64 415q-3 16 -8 63q-5 46 -14 109
l-13 -53l-14 -58l-12 -52l-103 -424h-173z" />
    <glyph glyph-name="acute" unicode="&#xb4;" horiz-adv-x="1024" vert-adv-y="2457" 
d="M478 1147l205 277h278l-306 -277h-177z" />
    <glyph glyph-name="dieresis" unicode="&#xa8;" horiz-adv-x="1024" vert-adv-y="2457" 
d="M462 1413q58 0 97 -39q39 -38 39 -92t-39 -93t-96 -39q-59 0 -98 39t-39 94q0 53 39 91q40 39 97 39zM841 1413q58 0 97 -39q39 -38 39 -92t-39 -93t-97 -39t-97 39t-39 94q0 53 39 91q40 39 97 39z" />
    <glyph glyph-name="notequal" unicode="&#x2260;" vert-adv-y="2457" 
d="M96 425l31 177h329l134 213h-425l31 177h506l146 232l156 -82l-94 -150h251l-31 -177h-332l-134 -213h428l-31 -177h-509l-144 -228l-155 83l91 145h-248z" />
    <glyph glyph-name="AE" unicode="&#xc6;" horiz-adv-x="1729" vert-adv-y="2457" 
d="M761 381h-457l-261 -381h-262q165 222 240 329l565 802q39 56 187 282h1052l-30 -168h-643l-75 -427h488l-28 -161h-488l-87 -489h653l-30 -168h-891zM791 549l123 696h-20l-475 -696h372z" />
    <glyph glyph-name="Oslash" unicode="&#xd8;" horiz-adv-x="1378" vert-adv-y="2457" 
d="M166 217q-58 128 -58 305q0 184 62 379q87 275 263 412q165 127 391 127q245 0 387 -138l140 146l94 -93l-157 -164q60 -134 60 -304q0 -168 -55 -356q-82 -279 -259 -422q-167 -135 -406 -135q-244 0 -383 133l-139 -145l-96 93zM365 422l690 719q-67 134 -230 134
q-264 0 -385 -329q-78 -214 -78 -436q0 -39 3 -88zM401 268q71 -129 230 -129q181 0 294 157q101 139 147 376q24 122 24 214q0 40 -5 102z" />
    <glyph glyph-name="infinity" unicode="&#x221e;" horiz-adv-x="1455" vert-adv-y="2457" 
d="M767 587q-56 -70 -93 -102q-108 -92 -258 -92q-162 0 -256 93q-90 89 -90 232t90 233q94 93 255 93t274 -106q31 -29 78 -88q58 72 94 102q108 92 259 92q161 0 255 -93q90 -90 90 -233t-90 -232q-94 -93 -256 -93q-160 0 -274 106q-27 25 -78 88zM700 718
q-59 77 -101 118q-87 83 -175 83q-74 0 -120 -54t-46 -146q0 -93 46 -148q46 -53 118 -53q101 0 191 97q12 12 56 66q8 10 31 37zM835 718q18 -21 66 -80q98 -120 210 -120q74 0 120 53q46 55 46 148t-46 146q-45 54 -121 54q-96 0 -188 -96q-12 -12 -56 -67q-8 -10 -31 -38
z" />
    <glyph glyph-name="plusminus" unicode="&#xb1;" vert-adv-y="2457" 
d="M137 659l31 177h378l69 388h209l-69 -388h378l-31 -177h-378l-68 -385h-209l68 385h-378zM21 0l31 177h965l-31 -177h-965z" />
    <glyph glyph-name="lessequal" unicode="&#x2264;" vert-adv-y="2457" 
d="M49 0l28 160h895l-29 -160h-894zM438 741l583 -301l-33 -184l-816 442l18 101l972 441l-35 -197z" />
    <glyph glyph-name="greaterequal" unicode="&#x2265;" vert-adv-y="2457" 
d="M63 0l28 160h895l-29 -160h-894zM832 754l-583 302l33 184l816 -442l-18 -101l-972 -441l35 197z" />
    <glyph glyph-name="yen" unicode="&#xa5;" vert-adv-y="2457" 
d="M377 0l52 297h-343l21 125h343l19 103l-7 19h-332l22 125h270l-238 744h249l132 -423q23 -72 65 -241q21 35 71 115q64 102 88 139l277 410h242l-503 -744h271l-22 -125h-332l-15 -19l-19 -103h344l-22 -125h-343l-52 -297h-238z" />
    <glyph glyph-name="mu" unicode="&#xb5;" vert-adv-y="2457" 
d="M1 -498l261 1481h229l-103 -581q-20 -115 -20 -162q0 -109 87 -109q114 0 285 197l115 655h228l-173 -983h-218l16 136q-158 -163 -297 -163q-48 0 -94 23l-79 -449z" />
    <glyph glyph-name="partialdiff" unicode="&#x2202;" vert-adv-y="2457" 
d="M439 1327l47 133q229 -29 351 -121q234 -175 234 -620q0 -190 -47 -347q-61 -204 -211 -310q-123 -88 -291 -88q-186 0 -292 102q-113 107 -113 296q0 125 44 256q60 178 206 280q120 84 272 84q111 0 188 -47q-78 338 -388 382zM659 833q-154 0 -239 -177
q-65 -134 -65 -292q0 -232 178 -232q151 0 236 178q64 134 64 288q0 235 -174 235z" />
    <glyph glyph-name="summation" unicode="&#x2211;" vert-adv-y="2457" 
d="M1317 1567l-29 -168h-796l318 -836l-635 -920h824l-29 -168h-1084l35 197l620 890l-313 812l34 193h1055z" />
    <glyph glyph-name="product" unicode="&#x220f;" horiz-adv-x="1455" vert-adv-y="2457" 
d="M1176 1399h-575l-340 -1924h-238l369 2092h1051l-368 -2092h-239z" />
    <glyph glyph-name="pi" unicode="&#x3c0;" horiz-adv-x="1136" vert-adv-y="2457" 
d="M94 0l145 819h-140l39 164h1042l-39 -164h-140l-145 -819h-225l144 819h-311l-144 -819h-226z" />
    <glyph glyph-name="integral" unicode="&#x222b;" vert-adv-y="2457" 
d="M75 -465l62 163q47 -19 85 -19q74 0 106 65q22 44 50 202l198 1126q30 169 53 249q40 142 122 207q78 62 205 62q84 0 169 -25l-62 -164q-48 20 -85 20q-73 0 -106 -65q-21 -42 -49 -202l-199 -1127q-29 -162 -54 -252q-74 -265 -326 -265q-82 0 -169 25z" />
    <glyph glyph-name="ordfeminine" unicode="&#xaa;" horiz-adv-x="773" vert-adv-y="2457" 
d="M582 1201l2 9q6 36 6 59q0 71 -94 71q-81 0 -181 -39l-5 101q105 34 216 34q243 0 243 -162q0 -45 -17 -139l-52 -298h-152l2 54q-32 -28 -54 -40q-54 -30 -132 -30q-190 0 -190 154q0 148 155 196q77 24 253 30zM571 1123q-100 -6 -140 -22q-78 -32 -78 -124
q0 -63 64 -63q61 0 105 50q27 30 38 93z" />
    <glyph glyph-name="ordmasculine" unicode="&#xba;" horiz-adv-x="775" vert-adv-y="2457" 
d="M539 1436q125 0 194 -65q72 -67 72 -189q0 -150 -80 -248q-91 -114 -260 -114q-135 0 -203 68t-68 184q0 163 92 264q92 100 253 100zM540 1342q-82 0 -130 -108q-38 -88 -38 -193q0 -127 90 -127q80 0 128 108q38 87 38 193q0 127 -88 127z" />
    <glyph glyph-name="uni2126" unicode="&#x2126;" horiz-adv-x="1470" vert-adv-y="2457" 
d="M25 0l28 161h333q-101 96 -142 154q-103 148 -103 346q0 274 171 498q216 284 563 284q266 0 410 -160q141 -157 141 -421q0 -325 -226 -538q-65 -61 -159 -120q-41 -26 -68 -43h331l-28 -161h-542l26 146q148 88 243 207q98 123 141 282q34 128 34 245q0 172 -71 281
q-75 116 -238 116q-256 0 -397 -287q-46 -94 -70 -215q-19 -99 -19 -184q0 -166 86 -307q47 -76 125 -138l-26 -146h-543z" />
    <glyph glyph-name="ae" unicode="&#xe6;" horiz-adv-x="1621" vert-adv-y="2457" 
d="M732 157q-168 -184 -404 -184q-294 0 -294 253q0 148 97 247q106 108 351 130q65 5 218 8l5 27q9 51 9 86q0 63 -34 92q-41 35 -131 35q-105 0 -258 -72l-18 165q155 65 313 65q221 0 304 -127q54 47 99 72q100 55 237 55q176 0 271 -77q85 -68 85 -198q0 -168 -147 -244
q-100 -51 -326 -79q-123 -14 -212 -17q0 -12 -1 -18q-1 -31 -1 -45q0 -203 258 -203q154 0 292 65v-169q-143 -50 -333 -50q-182 0 -284 69q-57 39 -96 114zM682 477q-183 -1 -266 -28q-148 -49 -148 -201q0 -125 124 -125q116 0 200 95q54 61 73 164zM919 543
q196 10 308 41q92 25 119 71q19 33 19 78q0 125 -147 125q-154 0 -236 -141q-37 -63 -63 -174z" />
    <glyph glyph-name="oslash" unicode="&#xf8;" horiz-adv-x="1103" vert-adv-y="2457" 
d="M977 828q51 -98 51 -213q0 -136 -45 -268q-65 -190 -220 -292q-121 -81 -281 -81q-168 0 -277 86l-110 -109l-89 83l121 121q-51 99 -51 226q0 134 50 272q64 174 206 271q125 86 292 86q170 0 276 -88l111 110l87 -84zM790 642l-441 -439q45 -71 141 -71q151 0 235 183
q65 140 65 301v26zM314 340l442 439q-46 73 -142 73q-150 0 -235 -182q-65 -139 -65 -301v-29z" />
    <glyph glyph-name="questiondown" unicode="&#xbf;" horiz-adv-x="915" vert-adv-y="2457" 
d="M430 553h203l-18 -98q-17 -95 -39 -139q-27 -55 -136 -152q-145 -131 -187 -201q-49 -80 -49 -154q0 -130 172 -130q121 0 290 75l-5 -186q-161 -49 -325 -49q-185 0 -282 75q-91 70 -91 205q0 125 82 238q50 70 187 187q118 100 141 132q29 42 44 127zM578 1004
q71 0 117 -52q39 -44 39 -100q0 -64 -50 -110q-44 -40 -109 -40q-69 0 -115 52q-38 44 -38 99q0 64 50 111q44 40 106 40z" />
    <glyph glyph-name="exclamdown" unicode="&#xa1;" horiz-adv-x="697" vert-adv-y="2457" 
d="M455 555l-141 -1014h-265l216 1014h190zM417 1011q68 0 114 -52q39 -44 39 -99q0 -65 -50 -111q-44 -40 -106 -40q-71 0 -117 52q-39 44 -39 100q0 63 50 110q44 40 109 40z" />
    <glyph glyph-name="logicalnot" unicode="&#xac;" vert-adv-y="2457" 
d="M165 630l28 160h858l-103 -581h-214l74 421h-643z" />
    <glyph glyph-name="radical" unicode="&#x221a;" vert-adv-y="2457" 
d="M279 0l-53 604h-153l28 162h322l20 -275q4 -59 12 -273q79 206 146 357l528 1202h558l-29 -167h-375l-724 -1610h-280z" />
    <glyph glyph-name="florin" unicode="&#x192;" vert-adv-y="2457" 
d="M471 627h-193l24 161h197l50 279q33 187 101 263q90 101 261 101q103 0 220 -33l-20 -173q-91 41 -153 41q-89 0 -125 -74q-26 -55 -43 -153l-44 -251h264l-28 -161h-265l-125 -712q-31 -175 -92 -240q-86 -92 -285 -92q-98 0 -203 22l20 167q89 -24 142 -24q83 0 123 48
q35 43 59 178z" />
    <glyph glyph-name="approxequal" unicode="&#x2248;" vert-adv-y="2457" 
d="M340 755l-147 38q42 108 96 174q89 109 227 109q82 0 140 -39q26 -17 95 -73q44 -36 82 -36q81 0 150 148l147 -39q-41 -106 -94 -171q-91 -111 -229 -111q-82 0 -148 44q-25 17 -88 68q-44 36 -83 36q-78 0 -148 -148zM268 344l-147 38q41 108 95 174q89 109 227 109
q69 0 118 -26q28 -14 78 -55q49 -39 62 -47q30 -20 60 -20q80 0 150 148l146 -38q-41 -107 -93 -172q-91 -111 -230 -111q-80 0 -145 43q-28 18 -91 69q-43 36 -82 36q-79 0 -148 -148z" />
    <glyph glyph-name="Delta" unicode="&#x2206;" vert-adv-y="2457" 
d="M1144 0h-1298l773 1413h252zM875 162l-136 775l-13 72q-14 81 -28 181q-54 -111 -126 -248l-410 -780h713z" />
    <glyph glyph-name="guillemotleft" unicode="&#xab;" horiz-adv-x="919" vert-adv-y="2457" 
d="M698 554l121 -318l-92 -58l-265 379l5 26l399 379l67 -86zM308 554l121 -318l-92 -58l-265 379l5 26l398 379l67 -86z" />
    <glyph glyph-name="guillemotright" unicode="&#xbb;" horiz-adv-x="919" vert-adv-y="2457" 
d="M249 586l-121 318l91 58l265 -379l-4 -26l-399 -379l-67 86zM639 586l-121 318l91 58l266 -379l-5 -26l-398 -379l-68 86z" />
    <glyph glyph-name="ellipsis" unicode="&#x2026;" horiz-adv-x="1650" vert-adv-y="2457" 
d="M219 275q68 0 114 -52q39 -44 39 -99q0 -65 -50 -111q-44 -40 -106 -40q-71 0 -118 52q-38 43 -38 100q0 63 50 110q44 40 109 40zM763 275q69 0 115 -52q38 -44 38 -99q0 -65 -50 -111q-44 -40 -105 -40q-72 0 -118 52q-38 43 -38 100q0 63 50 110q43 40 108 40z
M1308 275q68 0 114 -52q39 -44 39 -99q0 -65 -50 -111q-44 -40 -106 -40q-71 0 -118 52q-38 43 -38 100q0 63 50 110q44 40 109 40z" />
    <glyph glyph-name="glyph172" vert-adv-y="1180" 
 />
    <glyph glyph-name="Agrave" unicode="&#xc0;" horiz-adv-x="1278" vert-adv-y="2457" 
d="M890 382h-558l-206 -382h-246l791 1413h245l290 -1413h-245zM861 546l-69 387q-16 86 -39 258q-70 -148 -122 -246l-213 -399h443zM748 1557l-208 278h266l107 -278h-165z" />
    <glyph glyph-name="Atilde" unicode="&#xc3;" horiz-adv-x="1278" vert-adv-y="2457" 
d="M890 382h-558l-206 -382h-246l791 1413h245l290 -1413h-245zM861 546l-69 387q-16 86 -39 258q-70 -148 -122 -246l-213 -399h443zM585 1561h-155q43 124 91 188q76 102 182 102q56 0 104 -28q26 -15 72 -64q49 -52 76 -52q52 0 94 133h157q-33 -120 -76 -184
q-74 -109 -201 -109q-72 0 -121 40q-11 9 -55 55q-45 48 -70 48q-47 0 -98 -129z" />
    <glyph glyph-name="Otilde" unicode="&#xd5;" horiz-adv-x="1378" vert-adv-y="2457" 
d="M836 1439q155 0 276 -64q133 -69 190 -219q45 -118 45 -261q0 -177 -55 -364q-83 -280 -258 -422q-167 -135 -407 -135q-241 0 -373 122q-147 136 -147 416q0 193 62 388q171 539 667 539zM831 1274q-245 0 -371 -277q-45 -99 -75 -247q-30 -145 -30 -268q0 -164 74 -258
q66 -85 199 -85q239 0 366 277q46 99 76 249q29 144 29 263q0 145 -59 239q-67 107 -209 107zM664 1561h-155q43 124 91 188q76 102 182 102q56 0 104 -28q26 -15 72 -64q49 -52 76 -52q52 0 94 133h157q-33 -120 -76 -184q-74 -109 -201 -109q-72 0 -121 40q-11 9 -55 55
q-45 48 -70 48q-47 0 -98 -129z" />
    <glyph glyph-name="OE" unicode="&#x152;" horiz-adv-x="1818" vert-adv-y="2457" 
d="M1674 0h-855q-244 0 -322 14q-215 39 -306 188q-79 130 -79 326q0 208 72 404q72 198 201 323q125 121 340 148q75 10 281 10h908l-30 -168h-643l-76 -427h488l-28 -161h-488l-86 -489h653zM812 164l191 1081h-84q-131 0 -193 -17q-162 -44 -262 -244q-49 -96 -78 -243
q-26 -129 -26 -240q0 -117 43 -200q52 -101 162 -126q49 -11 162 -11h85z" />
    <glyph glyph-name="oe" unicode="&#x153;" horiz-adv-x="1715" vert-adv-y="2457" 
d="M841 146q-56 -57 -101 -91q-108 -81 -261 -81q-185 0 -291 101q-112 107 -112 301q0 139 50 276q64 174 206 271q125 86 291 86q229 0 318 -178q59 68 102 98q112 80 283 80q170 0 266 -77q84 -68 84 -198q0 -168 -146 -243q-101 -52 -326 -80q-123 -14 -212 -17
q-2 -47 -2 -64q0 -202 258 -202q154 0 292 65v-169q-143 -50 -331 -50q-175 0 -266 60q-54 35 -102 112zM617 851q-153 0 -238 -182q-65 -138 -65 -306q0 -231 176 -231q151 0 235 183q65 139 65 305q0 231 -173 231zM1014 543q196 10 307 41q92 25 119 71q19 32 19 78
q0 125 -146 125q-154 0 -236 -141q-38 -64 -63 -174z" />
    <glyph glyph-name="endash" unicode="&#x2013;" horiz-adv-x="1163" vert-adv-y="2457" 
d="M138 553l32 183h909l-32 -183h-909z" />
    <glyph glyph-name="emdash" unicode="&#x2014;" horiz-adv-x="1024" vert-adv-y="2457" 
d="M-99 553l32 183h1244l-32 -183h-1244z" />
    <glyph glyph-name="quotedblleft" unicode="&#x201c;" horiz-adv-x="762" vert-adv-y="2457" 
d="M543 1492l-198 -526h-238l266 526h170zM883 1492l-198 -526h-238l266 526h170z" />
    <glyph glyph-name="quotedblright" unicode="&#x201d;" horiz-adv-x="762" vert-adv-y="2457" 
d="M139 966l198 526h238l-266 -526h-170zM479 966l198 526h238l-266 -526h-170z" />
    <glyph glyph-name="quoteleft" unicode="&#x2018;" horiz-adv-x="411" vert-adv-y="2457" 
d="M538 1492l-198 -526h-238l266 526h170z" />
    <glyph glyph-name="quoteright" unicode="&#x2019;" horiz-adv-x="411" vert-adv-y="2457" 
d="M134 966l198 526h238l-266 -526h-170z" />
    <glyph glyph-name="divide" unicode="&#xf7;" vert-adv-y="2457" 
d="M695 1212q61 0 104 -48q36 -41 36 -89q0 -56 -47 -100q-40 -37 -95 -37q-64 0 -107 48q-36 41 -36 90q0 55 47 99q40 37 98 37zM567 482q61 0 104 -48q36 -41 36 -89q0 -57 -46 -100q-41 -37 -96 -37q-64 0 -107 48q-36 41 -36 90q0 55 47 99q40 37 98 37zM130 620
l31 177h965l-31 -177h-965z" />
    <glyph glyph-name="lozenge" unicode="&#x25ca;" vert-adv-y="2457" 
d="M69 707l558 764l559 -764l-559 -765zM335 707l292 -424l292 424l-292 423z" />
    <glyph glyph-name="ydieresis" unicode="&#xff;" horiz-adv-x="961" vert-adv-y="2457" 
d="M295 0l-196 983h234l72 -458q16 -102 37 -248l12 -88l39 88l35 80q46 104 72 161l210 465h224l-456 -938q-141 -290 -206 -369q-129 -156 -338 -156q-72 0 -152 12l48 161q51 -19 108 -19q106 0 189 101q62 76 106 159l34 66h-72zM392 1413q58 0 97 -39t39 -92
q0 -54 -39 -93t-97 -39q-57 0 -97 39q-39 39 -39 94q0 53 39 91q40 39 97 39zM771 1413q57 0 96 -39q39 -38 39 -92t-39 -93t-96 -39q-58 0 -97 39t-39 94q0 53 39 91q40 39 97 39z" />
    <glyph glyph-name="Ydieresis" unicode="&#x178;" horiz-adv-x="1070" vert-adv-y="2457" 
d="M328 0l94 533l-295 880h253l137 -424q17 -52 53 -190l13 -47l35 56q84 136 124 194l280 411h247l-608 -880l-94 -533h-239zM521 1829q58 0 97 -39q39 -38 39 -92q0 -55 -39 -93q-39 -39 -96 -39q-59 0 -98 39q-39 38 -39 94q0 53 39 91q40 39 97 39zM924 1829
q57 0 97 -39q39 -38 39 -92t-39 -93t-97 -39t-97 39q-39 38 -39 94q0 53 39 91q40 39 97 39z" />
    <glyph glyph-name="fraction" unicode="&#x2044;" horiz-adv-x="287" vert-adv-y="2457" 
d="M-372 0l937 1413h169l-937 -1413h-169z" />
    <glyph glyph-name="currency" unicode="&#xa4;" vert-adv-y="2457" 
d="M145 106l-113 107l174 185q-33 51 -40 63q-49 92 -49 203q0 110 49 201q7 13 40 64l-174 185l113 106l173 -187q115 74 251 74q107 0 189 -40q25 -12 60 -34l173 187l113 -106l-174 -185q30 -47 39 -64q48 -92 48 -202q0 -109 -48 -202q-10 -17 -39 -63l174 -185
l-113 -107l-173 188q-44 -28 -78 -43q-73 -31 -171 -31q-135 0 -251 74zM570 976q-113 0 -177 -93q-59 -85 -59 -221q0 -132 59 -218q64 -93 174 -93t174 93q59 86 59 219q0 137 -59 220q-65 93 -171 93z" />
    <glyph glyph-name="currency" unicode="&#x20ac;" vert-adv-y="2457" 
d="M145 106l-113 107l174 185q-33 51 -40 63q-49 92 -49 203q0 110 49 201q7 13 40 64l-174 185l113 106l173 -187q115 74 251 74q107 0 189 -40q25 -12 60 -34l173 187l113 -106l-174 -185q30 -47 39 -64q48 -92 48 -202q0 -109 -48 -202q-10 -17 -39 -63l174 -185
l-113 -107l-173 188q-44 -28 -78 -43q-73 -31 -171 -31q-135 0 -251 74zM570 976q-113 0 -177 -93q-59 -85 -59 -221q0 -132 59 -218q64 -93 174 -93t174 93q59 86 59 219q0 137 -59 220q-65 93 -171 93z" />
    <glyph glyph-name="guilsinglleft" unicode="&#x2039;" horiz-adv-x="516" vert-adv-y="2457" 
d="M302 554l121 -318l-92 -58l-265 379l5 26l398 379l67 -86z" />
    <glyph glyph-name="guilsinglright" unicode="&#x203a;" horiz-adv-x="516" vert-adv-y="2457" 
d="M243 586l-121 318l91 58l265 -379l-4 -26l-399 -379l-67 86z" />
    <glyph glyph-name="daggerdbl" unicode="&#x2021;" horiz-adv-x="1124" vert-adv-y="2457" 
d="M497 783h-324l31 177h323l81 453h235l-80 -453h323l-31 -177h-323l-85 -479h324l-31 -177h-324l-92 -523h-235l92 523h-324l31 177h324z" />
    <glyph glyph-name="periodcentered" unicode="&#xb7;" horiz-adv-x="545" vert-adv-y="2457" 
d="M303 797q69 0 114 -52q39 -44 39 -99q0 -65 -50 -111q-44 -40 -106 -40q-71 0 -118 52q-38 43 -38 100q0 63 50 109q44 41 109 41z" />
    <glyph glyph-name="quotesinglbase" unicode="&#x201a;" horiz-adv-x="411" vert-adv-y="2457" 
d="M-127 -266l198 527h238l-266 -527h-170z" />
    <glyph glyph-name="quotedblbase" unicode="&#x201e;" horiz-adv-x="762" vert-adv-y="2457" 
d="M-122 -266l198 527h238l-266 -527h-170zM218 -266l198 527h238l-266 -527h-170z" />
    <glyph glyph-name="perthousand" unicode="&#x2030;" horiz-adv-x="2591" vert-adv-y="2457" 
d="M608 1442q153 0 229 -89q66 -77 66 -197q0 -93 -28 -185q-43 -145 -147 -218q-90 -63 -219 -63q-136 0 -215 66q-89 75 -89 224q0 102 37 204q92 258 366 258zM601 1319q-92 0 -142 -126q-46 -113 -46 -239q0 -142 98 -142q89 0 139 126q46 113 46 240q0 141 -95 141z
M453 0l811 1413h195l-811 -1413h-195zM1402 722q154 0 230 -89q66 -76 66 -197q0 -93 -28 -185q-42 -144 -147 -218q-90 -63 -219 -63q-137 0 -216 66q-89 76 -89 223q0 102 37 205q92 258 366 258zM1395 599q-92 0 -142 -126q-46 -113 -46 -238q0 -142 98 -142
q89 0 140 126q46 113 46 239q0 141 -96 141zM2166 722q153 0 230 -89q65 -76 65 -196q0 -93 -28 -186q-42 -144 -147 -218q-90 -63 -219 -63q-136 0 -215 66q-89 75 -89 224q0 102 36 204q93 258 367 258zM2158 599q-91 0 -141 -126q-46 -113 -46 -238q0 -142 97 -142
q89 0 140 126q45 113 45 239q0 141 -95 141z" />
    <glyph glyph-name="Acircumflex" unicode="&#xc2;" horiz-adv-x="1278" vert-adv-y="2457" 
d="M890 382h-558l-206 -382h-246l791 1413h245l290 -1413h-245zM861 546l-69 387q-16 86 -39 258q-70 -148 -122 -246l-213 -399h443zM823 1721l-197 -163h-188l266 277h266l168 -277h-175z" />
    <glyph glyph-name="Ecircumflex" unicode="&#xca;" horiz-adv-x="1119" vert-adv-y="2457" 
d="M84 0l249 1413h882l-30 -168h-643l-75 -427h488l-28 -161h-489l-86 -489h653l-30 -168h-891zM806 1721l-197 -163h-188l266 277h266l168 -277h-175z" />
    <glyph glyph-name="Aacute" unicode="&#xc1;" horiz-adv-x="1278" vert-adv-y="2457" 
d="M890 382h-558l-206 -382h-246l791 1413h245l290 -1413h-245zM861 546l-69 387q-16 86 -39 258q-70 -148 -122 -246l-213 -399h443zM707 1558l205 277h278l-306 -277h-177z" />
    <glyph glyph-name="Edieresis" unicode="&#xcb;" horiz-adv-x="1119" vert-adv-y="2457" 
d="M84 0l249 1413h882l-30 -168h-643l-75 -427h488l-28 -161h-489l-86 -489h653l-30 -168h-891zM600 1829q58 0 97 -39q39 -38 39 -92q0 -55 -39 -93q-39 -39 -96 -39q-59 0 -98 39q-39 38 -39 94q0 53 39 91q40 39 97 39zM1003 1829q57 0 97 -39q39 -38 39 -92t-39 -93
t-97 -39t-97 39q-39 38 -39 94q0 53 39 91q40 39 97 39z" />
    <glyph glyph-name="Egrave" unicode="&#xc8;" horiz-adv-x="1119" vert-adv-y="2457" 
d="M84 0l249 1413h882l-30 -168h-643l-75 -427h488l-28 -161h-489l-86 -489h653l-30 -168h-891zM758 1557l-208 278h266l107 -278h-165z" />
    <glyph glyph-name="Iacute" unicode="&#xcd;" horiz-adv-x="599" vert-adv-y="2457" 
d="M93 0l249 1413h239l-250 -1413h-238zM371 1558l205 277h278l-306 -277h-177z" />
    <glyph glyph-name="Icircumflex" unicode="&#xce;" horiz-adv-x="599" vert-adv-y="2457" 
d="M93 0l249 1413h239l-250 -1413h-238zM505 1721l-197 -163h-188l266 277h266l168 -277h-175z" />
    <glyph glyph-name="Idieresis" unicode="&#xcf;" horiz-adv-x="599" vert-adv-y="2457" 
d="M93 0l249 1413h239l-250 -1413h-238zM300 1829q58 0 97 -39t39 -92q0 -54 -39 -93t-97 -39t-97 39q-39 38 -39 94q0 53 39 91q40 39 97 39zM703 1829q57 0 97 -39q39 -39 39 -92q0 -54 -39 -93t-97 -39t-97 39q-39 38 -39 94q0 53 39 91q40 39 97 39z" />
    <glyph glyph-name="Igrave" unicode="&#xcc;" horiz-adv-x="599" vert-adv-y="2457" 
d="M93 0l249 1413h239l-250 -1413h-238zM426 1557l-208 278h266l107 -278h-165z" />
    <glyph glyph-name="Oacute" unicode="&#xd3;" horiz-adv-x="1378" vert-adv-y="2457" 
d="M836 1439q155 0 276 -64q133 -69 190 -219q45 -118 45 -261q0 -177 -55 -364q-83 -280 -258 -422q-167 -135 -407 -135q-241 0 -373 122q-147 136 -147 416q0 193 62 388q171 539 667 539zM831 1274q-245 0 -371 -277q-45 -99 -75 -247q-30 -145 -30 -268q0 -164 74 -258
q66 -85 199 -85q239 0 366 277q46 99 76 249q29 144 29 263q0 145 -59 239q-67 107 -209 107zM764 1558l205 277h278l-306 -277h-177z" />
    <glyph glyph-name="Ocircumflex" unicode="&#xd4;" horiz-adv-x="1378" vert-adv-y="2457" 
d="M836 1439q155 0 276 -64q133 -69 190 -219q45 -118 45 -261q0 -177 -55 -364q-83 -280 -258 -422q-167 -135 -407 -135q-241 0 -373 122q-147 136 -147 416q0 193 62 388q171 539 667 539zM831 1274q-245 0 -371 -277q-45 -99 -75 -247q-30 -145 -30 -268q0 -164 74 -258
q66 -85 199 -85q239 0 366 277q46 99 76 249q29 144 29 263q0 145 -59 239q-67 107 -209 107zM893 1721l-197 -163h-188l266 277h266l168 -277h-175z" />
    <glyph glyph-name="glyph210" horiz-adv-x="1709" vert-adv-y="2457" 
 />
    <glyph glyph-name="Ograve" unicode="&#xd2;" horiz-adv-x="1378" vert-adv-y="2457" 
d="M836 1439q155 0 276 -64q133 -69 190 -219q45 -118 45 -261q0 -177 -55 -364q-83 -280 -258 -422q-167 -135 -407 -135q-241 0 -373 122q-147 136 -147 416q0 193 62 388q171 539 667 539zM831 1274q-245 0 -371 -277q-45 -99 -75 -247q-30 -145 -30 -268q0 -164 74 -258
q66 -85 199 -85q239 0 366 277q46 99 76 249q29 144 29 263q0 145 -59 239q-67 107 -209 107zM847 1557l-208 278h266l107 -278h-165z" />
    <glyph glyph-name="Uacute" unicode="&#xda;" horiz-adv-x="1295" vert-adv-y="2457" 
d="M323 1413h239l-151 -856q-30 -169 -30 -235q0 -183 219 -183q179 0 253 126q38 65 69 239l160 909h214l-171 -974q-21 -118 -36 -164q-100 -301 -507 -301q-230 0 -344 102q-93 84 -93 232q0 94 37 304zM701 1558l205 277h278l-306 -277h-177z" />
    <glyph glyph-name="Ucircumflex" unicode="&#xdb;" horiz-adv-x="1295" vert-adv-y="2457" 
d="M323 1413h239l-151 -856q-30 -169 -30 -235q0 -183 219 -183q179 0 253 126q38 65 69 239l160 909h214l-171 -974q-21 -118 -36 -164q-100 -301 -507 -301q-230 0 -344 102q-93 84 -93 232q0 94 37 304zM854 1721l-197 -163h-188l266 277h266l168 -277h-175z" />
    <glyph glyph-name="Ugrave" unicode="&#xd9;" horiz-adv-x="1295" vert-adv-y="2457" 
d="M323 1413h239l-151 -856q-30 -169 -30 -235q0 -183 219 -183q179 0 253 126q38 65 69 239l160 909h214l-171 -974q-21 -118 -36 -164q-100 -301 -507 -301q-230 0 -344 102q-93 84 -93 232q0 94 37 304zM801 1557l-208 278h266l107 -278h-165z" />
    <glyph glyph-name="dotlessi" unicode="&#x131;" horiz-adv-x="545" vert-adv-y="2457" 
d="M74 0l173 983h226l-173 -983h-226z" />
    <glyph glyph-name="circumflex" unicode="&#x2c6;" horiz-adv-x="1024" vert-adv-y="2457" 
d="M656 1310l-197 -163h-188l266 277h266l168 -277h-175z" />
    <glyph glyph-name="tilde" unicode="&#x2dc;" horiz-adv-x="1024" vert-adv-y="2457" 
d="M420 1150h-155q45 127 90 188q77 102 183 102q56 0 104 -28q26 -15 72 -64q49 -52 76 -52q38 0 66 59q13 25 28 74h157q-32 -119 -76 -184q-74 -109 -200 -109q-73 0 -122 40q-11 9 -55 55q-45 48 -70 48q-47 0 -98 -129z" />
    <glyph glyph-name="macron" unicode="&#xaf;" horiz-adv-x="1024" vert-adv-y="2457" 
d="M327 1209l25 144h623l-26 -144h-622z" />
    <glyph glyph-name="breve" unicode="&#x2d8;" horiz-adv-x="1024" vert-adv-y="2457" 
d="M340 1438h166q-1 -19 -1 -27q0 -57 26 -87q33 -38 121 -38q112 0 161 66q22 31 38 86h172q-21 -112 -73 -179q-99 -126 -313 -126q-168 0 -245 77q-58 57 -58 155q0 26 6 73z" />
    <glyph glyph-name="dotaccent" unicode="&#x2d9;" horiz-adv-x="1024" vert-adv-y="2457" 
d="M651 1421q61 0 103 -41q41 -41 41 -98t-41 -99q-42 -41 -103 -41t-103 41q-41 42 -41 100q0 57 41 97q43 41 103 41z" />
    <glyph glyph-name="ring" unicode="&#x2da;" horiz-adv-x="1024" vert-adv-y="2457" 
d="M665 1544q105 0 170 -60q63 -59 63 -148q0 -88 -63 -147q-66 -62 -174 -62t-173 62q-64 60 -64 147q0 90 63 148q66 60 178 60zM662 1468q-48 0 -74 -38q-24 -34 -24 -95q0 -59 24 -94q26 -38 73 -38q46 0 73 38q24 34 24 95t-24 94q-27 38 -72 38z" />
    <glyph glyph-name="cedilla" unicode="&#xb8;" horiz-adv-x="1024" vert-adv-y="2457" 
d="M405 2h118l-116 -140q84 -8 123 -27q84 -40 84 -142q0 -113 -82 -178q-73 -57 -208 -57q-112 0 -204 32l43 104q74 -34 135 -34q66 0 96 46q26 38 26 92q0 88 -104 88q-19 0 -53 -4l-7 36z" />
    <glyph glyph-name="hungarumlaut" unicode="&#x2dd;" horiz-adv-x="1024" vert-adv-y="2457" 
d="M359 1147l184 277h254l-273 -277h-165zM705 1147l184 277h255l-274 -277h-165z" />
    <glyph glyph-name="ogonek" unicode="&#x2db;" horiz-adv-x="1024" vert-adv-y="2457" 
d="M499 0h150q-135 -93 -186 -141q-103 -97 -103 -214q0 -90 111 -90q69 0 143 32v-103q-94 -31 -191 -31q-259 0 -259 180q0 224 335 367z" />
    <glyph glyph-name="caron" unicode="&#x2c7;" horiz-adv-x="1024" vert-adv-y="2457" 
d="M648 1261l196 163h189l-266 -277h-266l-168 277h175z" />
    <glyph glyph-name="Lslash" unicode="&#x141;" horiz-adv-x="1045" vert-adv-y="2457" 
d="M100 0l75 420l-174 -107l32 180l173 105l144 815h238l-118 -667l447 267l-34 -189l-445 -258l-70 -398h606l-29 -168h-845z" />
    <glyph glyph-name="lslash" unicode="&#x142;" horiz-adv-x="637" vert-adv-y="2457" 
d="M119 0l101 573l-200 -119l31 177l200 119l74 417q21 121 40 279l243 50l-106 -604l207 122l-31 -176l-207 -123l-126 -715h-226z" />
    <glyph glyph-name="Scaron" unicode="&#x160;" horiz-adv-x="1040" vert-adv-y="2457" 
d="M-25 56l69 191q173 -108 365 -108q152 0 233 66q77 64 77 180q0 78 -44 127q-30 33 -70 57q-32 18 -100 55q-150 81 -228 156q-99 96 -99 245q0 190 129 303q128 111 359 111q185 0 365 -62l-83 -185q-144 82 -273 82q-122 0 -189 -57q-70 -60 -70 -161q0 -77 56 -129
q41 -40 175 -113q157 -86 225 -158q85 -90 85 -238q0 -210 -140 -330q-134 -114 -405 -114q-257 0 -437 82zM738 1672l196 163h189l-266 -277h-266l-168 277h175z" />
    <glyph glyph-name="scaron" unicode="&#x161;" horiz-adv-x="846" vert-adv-y="2457" 
d="M-13 27l63 173q131 -68 267 -68q108 0 159 43q45 38 45 99q0 46 -36 80q-29 28 -135 86q-115 63 -164 114q-61 63 -61 159q0 135 101 219q94 77 273 77q153 0 291 -54l-78 -169q-89 65 -203 65q-76 0 -120 -32q-43 -31 -43 -83q0 -47 48 -85q35 -28 126 -79
q118 -68 163 -114q59 -61 59 -154q0 -148 -103 -241q-98 -89 -305 -89q-191 0 -347 53zM541 1261l196 163h189l-266 -277h-266l-168 277h175z" />
    <glyph glyph-name="Zcaron" unicode="&#x17d;" horiz-adv-x="1066" vert-adv-y="2457" 
d="M-56 0l24 140l899 1105h-636l29 168h910l-13 -135l-904 -1110h730l-29 -168h-1010zM762 1672l196 163h189l-266 -277h-266l-168 277h175z" />
    <glyph glyph-name="zcaron" unicode="&#x17e;" horiz-adv-x="898" vert-adv-y="2457" 
d="M-47 0l13 130l633 692h-459l28 161h727l-10 -132l-631 -690h529l-28 -161h-802zM579 1261l196 163h189l-266 -277h-266l-168 277h175z" />
    <glyph glyph-name="brokenbar" unicode="&#xa6;" vert-adv-y="2457" 
d="M544 858l98 555h215l-98 -555h-215zM393 0l92 522h215l-93 -522h-214z" />
    <glyph glyph-name="Eth" unicode="&#xd0;" horiz-adv-x="1308" vert-adv-y="2457" 
d="M200 660h-140l34 151h133l106 602h356q277 0 412 -104q172 -133 172 -441q0 -252 -107 -479q-107 -228 -310 -323q-141 -66 -356 -66h-416zM438 660l-86 -492h120q161 0 264 57q142 80 220 285q68 178 68 362q0 227 -108 311q-60 47 -161 58q-39 4 -123 4h-90l-77 -434
h342l-35 -151h-334z" />
    <glyph glyph-name="eth" unicode="&#xf0;" horiz-adv-x="1102" vert-adv-y="2457" 
d="M786 945q-35 147 -105 238l-209 -125l-57 95l179 107q-94 53 -196 67l47 133q203 -26 315 -96l189 115l57 -96l-153 -91q177 -188 177 -575q0 -188 -47 -345q-61 -204 -211 -311q-123 -87 -291 -87q-186 0 -292 102q-113 107 -113 296q0 125 44 256q60 178 206 280
q120 84 272 84q111 0 188 -47zM618 833q-154 0 -239 -177q-65 -134 -65 -292q0 -232 178 -232q151 0 236 178q64 134 64 288q0 235 -174 235z" />
    <glyph glyph-name="Yacute" unicode="&#xdd;" horiz-adv-x="1070" vert-adv-y="2457" 
d="M328 0l94 533l-295 880h253l137 -424q17 -52 53 -190l13 -47l35 56q84 136 124 194l280 411h247l-608 -880l-94 -533h-239zM614 1558l205 277h278l-306 -277h-177z" />
    <glyph glyph-name="yacute" unicode="&#xfd;" horiz-adv-x="961" vert-adv-y="2457" 
d="M295 0l-196 983h234l72 -458q16 -102 37 -248l12 -88l39 88l35 80q46 104 72 161l210 465h224l-456 -938q-141 -290 -206 -369q-129 -156 -338 -156q-72 0 -152 12l48 161q51 -19 108 -19q106 0 189 101q62 76 106 159l34 66h-72zM485 1147l205 277h278l-306 -277h-177z
" />
    <glyph glyph-name="Thorn" unicode="&#xde;" horiz-adv-x="1167" vert-adv-y="2457" 
d="M378 316l-56 -316h-238l249 1413h239l-40 -224h144q246 0 353 -78q61 -44 94 -119q34 -79 34 -171q0 -125 -55 -246q-118 -259 -497 -259h-227zM407 480h151q127 0 193 30q81 37 122 129q39 88 39 184q0 121 -68 167q-54 36 -176 36h-165z" />
    <glyph glyph-name="thorn" unicode="&#xfe;" horiz-adv-x="1111" vert-adv-y="2457" 
d="M298 11l-82 -470h-226l279 1582q24 134 46 323l245 50l-104 -593q119 106 263 106q165 0 247 -108q73 -97 73 -271q0 -142 -46 -281q-124 -376 -484 -376q-107 0 -211 38zM329 188q73 -57 158 -57q162 0 248 189q66 145 66 311q0 220 -147 220q-106 0 -189 -112
q-50 -69 -70 -181z" />
    <glyph glyph-name="minus" unicode="&#x2212;" vert-adv-y="2457" 
d="M130 620l31 177h965l-31 -177h-965z" />
    <glyph glyph-name="multiply" unicode="&#xd7;" vert-adv-y="2457" 
d="M497 710l-308 300l134 134l309 -300l305 297l134 -134l-305 -297l308 -300l-134 -134l-308 301l-306 -297l-134 133z" />
    <glyph glyph-name="onesuperior" unicode="&#xb9;" horiz-adv-x="534" vert-adv-y="2457" 
d="M250 770l125 709l-181 -36l21 121l236 54h132l-149 -848h-184z" />
    <glyph glyph-name="twosuperior" unicode="&#xb2;" horiz-adv-x="764" vert-adv-y="2457" 
d="M112 770l20 109l306 289q170 161 170 259q0 86 -99 86q-74 0 -218 -64l-8 132q127 50 251 50q131 0 202 -59q61 -51 61 -137q0 -102 -64 -186q-51 -67 -165 -172l-207 -190h365l-21 -117h-593z" />
    <glyph glyph-name="threesuperior" unicode="&#xb3;" horiz-adv-x="763" vert-adv-y="2457" 
d="M123 805l59 134q114 -67 210 -67q109 0 156 71q33 50 33 114q0 103 -154 103q-29 0 -90 -5l-22 -2l22 125q65 -5 89 -5q80 0 131 36q62 44 62 117q0 88 -114 88q-70 0 -203 -56l-14 125q128 50 248 50q270 0 270 -192q0 -141 -153 -205q47 -20 71 -43q50 -47 50 -133
q0 -130 -86 -214q-94 -93 -295 -93q-162 0 -270 52z" />
    <glyph glyph-name="onehalf" unicode="&#xbd;" horiz-adv-x="1800" vert-adv-y="2457" 
d="M322 565l125 709l-181 -36l21 121l236 54h132l-149 -848h-184zM316 0l937 1413h169l-937 -1413h-169zM989 0l20 109l306 289q170 161 170 259q0 86 -99 86q-73 0 -218 -64l-8 132q125 50 251 50q131 0 202 -59q61 -51 61 -137q0 -103 -64 -186q-53 -69 -165 -172
l-207 -190h365l-21 -117h-593z" />
    <glyph glyph-name="onequarter" unicode="&#xbc;" horiz-adv-x="1800" vert-adv-y="2457" 
d="M322 565l125 709l-181 -36l21 121l236 54h132l-149 -848h-184zM316 0l937 1413h169l-937 -1413h-169zM1397 198h-403l19 111l364 539h183l-360 -533h218l46 263h172l-46 -263h123l-21 -117h-123l-35 -198h-172z" />
    <glyph glyph-name="threequarters" unicode="&#xbe;" horiz-adv-x="1800" vert-adv-y="2457" 
d="M84 600l59 135q115 -68 210 -68q110 0 157 71q32 50 32 114q0 103 -155 103q-18 0 -111 -7l22 126q69 -6 89 -6q80 0 131 36q62 44 62 117q0 88 -114 88q-69 0 -203 -56l-14 125q128 50 248 50q119 0 190 -42q80 -48 80 -150q0 -141 -153 -205q47 -20 71 -43
q50 -47 50 -133q0 -130 -86 -214q-94 -93 -295 -93q-164 0 -270 52zM389 0l937 1413h169l-937 -1413h-169zM1413 198h-403l19 111l364 539h183l-360 -533h218l46 263h172l-46 -263h123l-21 -117h-123l-34 -198h-173z" />
    <glyph glyph-name="glyph247" horiz-adv-x="1709" vert-adv-y="2457" 
 />
    <glyph glyph-name="Gbreve" unicode="&#x11e;" horiz-adv-x="1302" vert-adv-y="2457" 
d="M706 629l27 154h493l-129 -728q-186 -81 -422 -81q-283 0 -423 129q-73 67 -109 176q-35 108 -35 226q0 247 101 486q97 232 290 349q163 99 388 99q196 0 386 -68l-83 -184q-153 87 -296 87q-177 0 -288 -95q-134 -115 -200 -353q-50 -176 -50 -340q0 -181 89 -271
q76 -76 235 -76q95 0 201 37l80 453h-255zM564 1849h166q-1 -19 -1 -27q0 -56 26 -87q33 -38 121 -38q112 0 161 66q22 30 38 86h172q-21 -112 -73 -179q-99 -126 -313 -126q-168 0 -245 77q-58 57 -58 155q0 27 6 73z" />
    <glyph glyph-name="gbreve" unicode="&#x11f;" horiz-adv-x="1089" vert-adv-y="2457" 
d="M645 87q-119 -114 -258 -114q-145 0 -230 82q-93 90 -93 273q0 172 67 334q72 177 201 264q123 83 308 83q188 0 399 -61q-46 -163 -82 -370l-71 -403q-28 -157 -52 -250q-57 -210 -181 -308q-125 -98 -340 -98q-180 0 -309 43l46 175q131 -64 272 -64q162 0 234 117
q51 83 78 235zM773 812q-64 39 -146 39q-167 0 -254 -194q-32 -71 -53 -174q-18 -90 -18 -164q0 -188 140 -188q111 0 193 113q50 69 71 191zM379 1438h166q-1 -19 -1 -27q0 -57 26 -87q33 -38 121 -38q112 0 161 66q22 31 38 86h172q-21 -112 -73 -179q-99 -126 -313 -126
q-168 0 -245 77q-58 57 -58 155q0 26 6 73z" />
    <glyph glyph-name="glyph250" horiz-adv-x="1709" vert-adv-y="2457" 
 />
    <glyph glyph-name="Scedilla" unicode="&#x15e;" horiz-adv-x="1040" vert-adv-y="2457" 
d="M-25 55l69 192q172 -109 365 -109q152 0 233 66q77 64 77 181q0 77 -44 126q-30 33 -70 57q-33 19 -100 55q-150 82 -228 157q-99 96 -99 245q0 190 129 303q128 111 359 111q185 0 365 -62l-83 -185q-144 82 -273 82q-122 0 -189 -57q-70 -60 -70 -161q0 -77 56 -129
q41 -40 175 -113q157 -86 225 -158q85 -91 85 -238q0 -156 -82 -267q-90 -122 -266 -159q-56 -11 -134 -17l-94 -113q84 -8 122 -27q84 -40 84 -142q0 -113 -82 -178q-72 -57 -208 -57q-111 0 -203 32l43 104q74 -34 134 -34q66 0 97 46q25 38 25 92q0 88 -104 88
q-20 0 -52 -4l-8 36l127 156q-228 11 -381 81z" />
    <glyph glyph-name="scedilla" unicode="&#x15f;" horiz-adv-x="846" vert-adv-y="2457" 
d="M-13 27l63 173q130 -69 267 -69q107 0 159 43q45 38 45 99q0 46 -36 81q-29 27 -135 85q-115 63 -164 114q-61 64 -61 159q0 135 101 219q94 78 273 78q153 0 291 -54l-78 -169q-88 65 -203 65q-76 0 -120 -32q-43 -31 -43 -83q0 -47 48 -86q35 -27 126 -78
q118 -68 163 -114q59 -61 59 -154q0 -104 -56 -187q-67 -100 -195 -128q-45 -10 -106 -14l-94 -113q86 -9 123 -27q84 -40 84 -142q0 -112 -82 -178q-72 -57 -208 -57q-112 0 -204 32l44 104q74 -34 134 -34q66 0 96 46q26 38 26 92q0 88 -104 88q-21 0 -52 -4l-8 36
l127 157q-153 8 -280 52z" />
    <glyph glyph-name="Cacute" unicode="&#x106;" horiz-adv-x="1084" vert-adv-y="2457" 
d="M977 213l-5 -190q-165 -49 -346 -49q-520 0 -520 513q0 256 95 491q185 461 632 461q184 0 344 -64l-76 -187q-129 86 -259 86q-239 0 -375 -277q-53 -108 -84 -258q-29 -135 -29 -251q0 -173 73 -264q69 -85 226 -85q155 0 324 74zM703 1558l205 277h278l-306 -277h-177
z" />
    <glyph glyph-name="cacute" unicode="&#x107;" horiz-adv-x="843" vert-adv-y="2457" 
d="M727 183l-5 -174q-102 -35 -240 -35q-193 0 -295 87q-114 97 -114 290q0 143 49 287q71 208 225 304q108 67 259 67q165 0 270 -56l-78 -170q-68 68 -172 68q-153 0 -242 -173q-73 -142 -73 -320q0 -226 209 -226q98 0 207 51zM492 1147l205 277h278l-306 -277h-177z" />
    <glyph glyph-name="Ccaron" unicode="&#x10c;" horiz-adv-x="1084" vert-adv-y="2457" 
d="M977 213l-5 -190q-165 -49 -346 -49q-520 0 -520 513q0 256 95 491q185 461 632 461q184 0 344 -64l-76 -187q-129 86 -259 86q-239 0 -375 -277q-53 -108 -84 -258q-29 -135 -29 -251q0 -173 73 -264q69 -85 226 -85q155 0 324 74zM850 1672l196 163h189l-266 -277h-266
l-168 277h175z" />
    <glyph glyph-name="ccaron" unicode="&#x10d;" horiz-adv-x="843" vert-adv-y="2457" 
d="M727 183l-5 -174q-102 -35 -240 -35q-193 0 -295 87q-114 97 -114 290q0 143 49 287q71 208 225 304q108 67 259 67q165 0 270 -56l-78 -170q-68 68 -172 68q-153 0 -242 -173q-73 -142 -73 -320q0 -226 209 -226q98 0 207 51zM616 1261l196 163h189l-266 -277h-266
l-168 277h175z" />
    <glyph glyph-name="glyph257" horiz-adv-x="1709" vert-adv-y="2457" 
 />
    <glyph glyph-name="uni00A0" unicode="&#xa0;" horiz-adv-x="492" vert-adv-y="2457" 
 />
    <glyph glyph-name="uni00AD" unicode="&#xad;" horiz-adv-x="817" vert-adv-y="2457" 
d="M133 553l32 183h573l-32 -183h-573z" />
    <glyph glyph-name="Amacron" unicode="&#x100;" horiz-adv-x="1278" vert-adv-y="2457" 
d="M890 382h-558l-206 -382h-246l791 1413h245l290 -1413h-245zM861 546l-69 387q-16 86 -39 258q-70 -148 -122 -246l-213 -399h443zM489 1628l25 144h623l-26 -144h-622z" />
    <glyph glyph-name="amacron" unicode="&#x101;" horiz-adv-x="1098" vert-adv-y="2457" 
d="M674 121q-53 -63 -100 -93q-83 -54 -187 -54q-145 0 -230 82q-93 90 -93 273q0 172 66 333q73 177 202 265q122 82 308 82q187 0 398 -61q-44 -161 -81 -370l-54 -301q-28 -161 -31 -277h-203q1 54 5 121zM773 812q-64 39 -147 39q-166 0 -253 -193q-32 -72 -53 -174
q-18 -90 -18 -163q0 -189 140 -189q111 0 192 113q50 69 72 190zM358 1209l25 144h623l-26 -144h-622z" />
    <glyph glyph-name="Abreve" unicode="&#x102;" horiz-adv-x="1278" vert-adv-y="2457" 
d="M890 382h-558l-206 -382h-246l791 1413h245l290 -1413h-245zM861 546l-69 387q-16 86 -39 258q-70 -148 -122 -246l-213 -399h443zM504 1849h166q-1 -19 -1 -27q0 -56 26 -87q33 -38 121 -38q112 0 161 66q22 30 38 86h172q-21 -112 -73 -179q-99 -126 -313 -126
q-168 0 -245 77q-58 57 -58 155q0 27 6 73z" />
    <glyph glyph-name="abreve" unicode="&#x103;" horiz-adv-x="1098" vert-adv-y="2457" 
d="M674 121q-53 -63 -100 -93q-83 -54 -187 -54q-145 0 -230 82q-93 90 -93 273q0 172 66 333q73 177 202 265q122 82 308 82q187 0 398 -61q-44 -161 -81 -370l-54 -301q-28 -161 -31 -277h-203q1 54 5 121zM773 812q-64 39 -147 39q-166 0 -253 -193q-32 -72 -53 -174
q-18 -90 -18 -163q0 -189 140 -189q111 0 192 113q50 69 72 190zM376 1438h166q-1 -19 -1 -27q0 -57 26 -87q33 -38 121 -38q112 0 161 66q22 31 38 86h172q-21 -112 -73 -179q-99 -126 -313 -126q-168 0 -245 77q-58 57 -58 155q0 26 6 73z" />
    <glyph glyph-name="Aogonek" unicode="&#x104;" horiz-adv-x="1278" vert-adv-y="2457" 
d="M890 382h-558l-206 -382h-246l791 1413h245l290 -1413q-142 -99 -186 -141q-103 -99 -103 -214q0 -90 111 -90q70 0 144 32l-1 -103q-93 -31 -191 -31q-259 0 -259 180q0 224 335 367h-95zM861 546l-69 387q-19 106 -39 258l-27 -58q-56 -114 -95 -188l-213 -399h443z
" />
    <glyph glyph-name="aogonek" unicode="&#x105;" horiz-adv-x="1098" vert-adv-y="2457" 
d="M686 134q-56 -68 -101 -99q-88 -62 -198 -62q-145 0 -230 82q-93 90 -93 273q0 172 66 334q73 177 202 264q122 83 308 83q187 0 398 -61q-43 -152 -81 -370l-54 -301q-28 -161 -31 -277q-147 -93 -187 -127q-101 -87 -101 -218q0 -99 112 -99q68 0 142 31v-103
q-95 -31 -191 -31q-259 0 -259 192q0 231 310 349q-2 19 -9 65q-3 25 -3 75zM773 812q-64 39 -147 39q-166 0 -253 -194q-32 -71 -53 -174q-18 -90 -18 -163q0 -189 140 -189q111 0 192 113q50 69 72 191z" />
    <glyph glyph-name="Ccircumflex" unicode="&#x108;" horiz-adv-x="1084" vert-adv-y="2457" 
d="M977 213l-5 -190q-165 -49 -346 -49q-520 0 -520 513q0 256 95 491q185 461 632 461q184 0 344 -64l-76 -187q-129 86 -259 86q-239 0 -375 -277q-53 -108 -84 -258q-29 -135 -29 -251q0 -173 73 -264q69 -85 226 -85q155 0 324 74zM858 1721l-197 -163h-188l266 277h266
l168 -277h-175z" />
    <glyph glyph-name="ccircumflex" unicode="&#x109;" horiz-adv-x="843" vert-adv-y="2457" 
d="M727 183l-5 -174q-102 -35 -240 -35q-193 0 -295 87q-114 97 -114 290q0 143 49 287q71 208 225 304q108 67 259 67q165 0 270 -56l-78 -170q-68 68 -172 68q-153 0 -242 -173q-73 -142 -73 -320q0 -226 209 -226q98 0 207 51zM632 1310l-197 -163h-188l266 277h266
l168 -277h-175z" />
    <glyph glyph-name="Cdotaccent" unicode="&#x10a;" horiz-adv-x="1084" vert-adv-y="2457" 
d="M977 213l-5 -190q-165 -49 -346 -49q-520 0 -520 513q0 256 95 491q185 461 632 461q184 0 344 -64l-76 -187q-129 86 -259 86q-239 0 -375 -277q-53 -108 -84 -258q-29 -135 -29 -251q0 -173 73 -264q69 -85 226 -85q155 0 324 74zM846 1837q61 0 103 -41q41 -41 41 -98
q0 -58 -41 -99q-42 -41 -103 -41t-103 41q-41 42 -41 100q0 57 41 97q43 41 103 41z" />
    <glyph glyph-name="cdotaccent" unicode="&#x10b;" horiz-adv-x="843" vert-adv-y="2457" 
d="M727 183l-5 -174q-102 -35 -240 -35q-193 0 -295 87q-114 97 -114 290q0 143 49 287q71 208 225 304q108 67 259 67q165 0 270 -56l-78 -170q-68 68 -172 68q-153 0 -242 -173q-73 -142 -73 -320q0 -226 209 -226q98 0 207 51zM635 1421q61 0 103 -41q41 -41 41 -98
t-41 -99q-42 -41 -103 -41t-103 41q-41 42 -41 100q0 57 41 97q43 41 103 41z" />
    <glyph glyph-name="Dcaron" unicode="&#x10e;" horiz-adv-x="1308" vert-adv-y="2457" 
d="M84 0l249 1413h356q277 0 412 -104q172 -133 172 -442q0 -252 -107 -478q-107 -228 -310 -323q-141 -66 -355 -66h-417zM352 168h120q161 0 264 57q143 79 221 284q68 177 68 362q0 228 -109 312q-60 47 -160 58q-40 4 -123 4h-91zM751 1672l196 163h189l-266 -277h-266
l-168 277h175z" />
    <glyph glyph-name="dcaron" unicode="&#x10f;" horiz-adv-x="1345" vert-adv-y="2457" 
d="M813 970l27 153q25 141 45 323l246 50l-215 -1219q-29 -161 -31 -277h-203q1 60 5 123q-127 -149 -298 -149q-151 0 -237 93q-84 90 -84 260q0 133 43 270q66 209 207 318q122 94 288 94q107 0 207 -39zM782 796q-68 55 -149 55q-167 0 -258 -201q-69 -150 -69 -320
q0 -97 37 -147q37 -51 108 -51q112 0 195 113q51 69 72 190zM1197 994l149 494h228l-209 -494h-168z" />
    <glyph glyph-name="Dcroat" unicode="&#x110;" horiz-adv-x="1308" vert-adv-y="2457" 
d="M200 660h-140l34 151h133l106 602h356q277 0 412 -104q172 -133 172 -441q0 -252 -107 -479q-107 -228 -310 -323q-141 -66 -356 -66h-416zM438 660l-86 -492h120q161 0 264 57q142 80 220 285q68 178 68 362q0 227 -108 311q-60 47 -161 58q-39 4 -123 4h-90l-77 -434
h342l-35 -151h-334z" />
    <glyph glyph-name="dcroat" unicode="&#x111;" horiz-adv-x="1111" vert-adv-y="2457" 
d="M813 970l28 158h-265l24 138h263q15 93 24 180l244 49l-41 -229h136l-24 -138h-136l-150 -851q-29 -161 -31 -277h-203q1 60 5 123q-127 -149 -298 -149q-151 0 -237 93q-84 90 -84 260q0 133 43 270q66 209 207 318q121 94 288 94q107 0 207 -39zM782 796
q-68 55 -149 55q-167 0 -258 -201q-69 -150 -69 -320q0 -97 37 -147q37 -51 108 -51q112 0 195 113q51 69 72 190z" />
    <glyph glyph-name="Emacron" unicode="&#x112;" horiz-adv-x="1119" vert-adv-y="2457" 
d="M84 0l249 1413h882l-30 -168h-643l-75 -427h488l-28 -161h-489l-86 -489h653l-30 -168h-891zM486 1628l25 144h623l-26 -144h-622z" />
    <glyph glyph-name="emacron" unicode="&#x113;" horiz-adv-x="1028" vert-adv-y="2457" 
d="M304 394q-2 -47 -2 -64q0 -202 258 -202q154 0 292 65v-169q-143 -50 -336 -50q-443 0 -443 385q0 147 51 287q134 363 507 363q177 0 273 -77q84 -68 84 -198q0 -168 -146 -243q-101 -52 -326 -80q-123 -14 -212 -17zM326 543q196 10 307 41q92 25 119 71q19 32 19 78
q0 125 -146 125q-154 0 -236 -141q-38 -64 -63 -174zM315 1209l25 144h623l-26 -144h-622z" />
    <glyph glyph-name="Ebreve" unicode="&#x114;" horiz-adv-x="1119" vert-adv-y="2457" 
d="M84 0l249 1413h882l-30 -168h-643l-75 -427h488l-28 -161h-489l-86 -489h653l-30 -168h-891zM494 1849h166q-1 -19 -1 -27q0 -56 26 -87q33 -38 121 -38q112 0 161 66q22 30 38 86h172q-21 -112 -73 -179q-99 -126 -313 -126q-168 0 -245 77q-58 57 -58 155q0 27 6 73z
" />
    <glyph glyph-name="ebreve" unicode="&#x115;" horiz-adv-x="1028" vert-adv-y="2457" 
d="M304 394q-2 -47 -2 -64q0 -202 258 -202q154 0 292 65v-169q-143 -50 -336 -50q-443 0 -443 385q0 147 51 287q134 363 507 363q177 0 273 -77q84 -68 84 -198q0 -168 -146 -243q-101 -52 -326 -80q-123 -14 -212 -17zM326 543q196 10 307 41q92 25 119 71q19 32 19 78
q0 125 -146 125q-154 0 -236 -141q-38 -64 -63 -174zM330 1438h166q-1 -19 -1 -27q0 -57 26 -87q33 -38 121 -38q112 0 161 66q22 31 38 86h172q-21 -112 -73 -179q-99 -126 -313 -126q-168 0 -245 77q-58 57 -58 155q0 26 6 73z" />
    <glyph glyph-name="Edotaccent" unicode="&#x116;" horiz-adv-x="1119" vert-adv-y="2457" 
d="M84 0l249 1413h882l-30 -168h-643l-75 -427h488l-28 -161h-489l-86 -489h653l-30 -168h-891zM822 1837q61 0 103 -41q41 -41 41 -98q0 -58 -41 -99q-42 -41 -103 -41t-103 41q-41 42 -41 100q0 57 41 97q43 41 103 41z" />
    <glyph glyph-name="edotaccent" unicode="&#x117;" horiz-adv-x="1028" vert-adv-y="2457" 
d="M304 394q-2 -47 -2 -64q0 -202 258 -202q154 0 292 65v-169q-143 -50 -336 -50q-443 0 -443 385q0 147 51 287q134 363 507 363q177 0 273 -77q84 -68 84 -198q0 -168 -146 -243q-101 -52 -326 -80q-123 -14 -212 -17zM326 543q196 10 307 41q92 25 119 71q19 32 19 78
q0 125 -146 125q-154 0 -236 -141q-38 -64 -63 -174zM659 1421q61 0 103 -41q41 -41 41 -98t-41 -99q-42 -41 -103 -41t-103 41q-41 42 -41 100q0 57 41 97q43 41 103 41z" />
    <glyph glyph-name="Eogonek" unicode="&#x118;" horiz-adv-x="1119" vert-adv-y="2457" 
d="M84 0l249 1413h882l-30 -168h-643l-75 -427h488l-28 -161h-489l-86 -489h653l-30 -168q-142 -99 -186 -141q-103 -99 -103 -214q0 -90 111 -90q70 0 144 32v-103q-95 -31 -192 -31q-259 0 -259 180q0 225 335 367h-741z" />
    <glyph glyph-name="eogonek" unicode="&#x119;" horiz-adv-x="1028" vert-adv-y="2457" 
d="M304 394q-2 -40 -2 -60q0 -207 258 -207q153 0 292 66v-169q-84 -30 -191 -42q-19 -13 -83 -57q-181 -125 -181 -280q0 -90 111 -90q69 0 144 32v-103q-96 -31 -192 -31q-259 0 -259 180q0 206 278 341q-406 17 -406 384q0 148 51 288q134 363 507 363q177 0 273 -77
q84 -68 84 -198q0 -168 -146 -244q-147 -75 -538 -96zM326 543q200 11 307 41q92 25 119 71q19 32 19 78q0 125 -146 125q-154 0 -236 -141q-38 -64 -63 -174z" />
    <glyph glyph-name="Ecaron" unicode="&#x11a;" horiz-adv-x="1119" vert-adv-y="2457" 
d="M84 0l249 1413h882l-30 -168h-643l-75 -427h488l-28 -161h-489l-86 -489h653l-30 -168h-891zM814 1672l196 163h189l-266 -277h-266l-168 277h175z" />
    <glyph glyph-name="ecaron" unicode="&#x11b;" horiz-adv-x="1028" vert-adv-y="2457" 
d="M304 394q-2 -47 -2 -64q0 -202 258 -202q154 0 292 65v-169q-143 -50 -336 -50q-443 0 -443 385q0 147 51 287q134 363 507 363q177 0 273 -77q84 -68 84 -198q0 -168 -146 -243q-101 -52 -326 -80q-123 -14 -212 -17zM326 543q196 10 307 41q92 25 119 71q19 32 19 78
q0 125 -146 125q-154 0 -236 -141q-38 -64 -63 -174zM650 1261l196 163h189l-266 -277h-266l-168 277h175z" />
    <glyph glyph-name="Gcircumflex" unicode="&#x11c;" horiz-adv-x="1302" vert-adv-y="2457" 
d="M706 629l27 154h493l-129 -728q-186 -81 -422 -81q-283 0 -423 129q-73 67 -109 176q-35 108 -35 226q0 247 101 486q97 232 290 349q163 99 388 99q196 0 386 -68l-83 -184q-153 87 -296 87q-177 0 -288 -95q-134 -115 -200 -353q-50 -176 -50 -340q0 -181 89 -271
q76 -76 235 -76q95 0 201 37l80 453h-255zM914 1721l-197 -163h-188l266 277h266l168 -277h-175z" />
    <glyph glyph-name="gcircumflex" unicode="&#x11d;" horiz-adv-x="1089" vert-adv-y="2457" 
d="M645 87q-119 -114 -258 -114q-145 0 -230 82q-93 90 -93 273q0 172 67 334q72 177 201 264q123 83 308 83q188 0 399 -61q-46 -163 -82 -370l-71 -403q-28 -157 -52 -250q-57 -210 -181 -308q-125 -98 -340 -98q-180 0 -309 43l46 175q131 -64 272 -64q162 0 234 117
q51 83 78 235zM773 812q-64 39 -146 39q-167 0 -254 -194q-32 -71 -53 -174q-18 -90 -18 -164q0 -188 140 -188q111 0 193 113q50 69 71 191zM703 1310l-197 -163h-188l266 277h266l168 -277h-175z" />
    <glyph glyph-name="Gdotaccent" unicode="&#x120;" horiz-adv-x="1302" vert-adv-y="2457" 
d="M706 629l27 154h493l-129 -728q-186 -81 -422 -81q-283 0 -423 129q-73 67 -109 176q-35 108 -35 226q0 247 101 486q97 232 290 349q163 99 388 99q196 0 386 -68l-83 -184q-153 87 -296 87q-177 0 -288 -95q-134 -115 -200 -353q-50 -176 -50 -340q0 -181 89 -271
q76 -76 235 -76q95 0 201 37l80 453h-255zM886 1837q61 0 103 -41q41 -41 41 -98q0 -58 -41 -99q-42 -41 -103 -41t-103 41q-41 42 -41 100q0 57 41 97q43 41 103 41z" />
    <glyph glyph-name="gdotaccent" unicode="&#x121;" horiz-adv-x="1089" vert-adv-y="2457" 
d="M645 87q-119 -114 -258 -114q-145 0 -230 82q-93 90 -93 273q0 172 67 334q72 177 201 264q123 83 308 83q188 0 399 -61q-46 -163 -82 -370l-71 -403q-28 -157 -52 -250q-57 -210 -181 -308q-125 -98 -340 -98q-180 0 -309 43l46 175q131 -64 272 -64q162 0 234 117
q51 83 78 235zM773 812q-64 39 -146 39q-167 0 -254 -194q-32 -71 -53 -174q-18 -90 -18 -164q0 -188 140 -188q111 0 193 113q50 69 71 191zM698 1421q61 0 103 -41q41 -41 41 -98t-41 -99q-42 -41 -103 -41t-103 41q-41 42 -41 100q0 57 41 97q43 41 103 41z" />
    <glyph glyph-name="Gcommaaccent" unicode="&#x122;" horiz-adv-x="1302" vert-adv-y="2457" 
d="M706 629l27 154h493l-129 -728q-186 -81 -422 -81q-283 0 -423 129q-73 67 -109 176q-35 108 -35 226q0 247 101 486q97 232 290 349q163 99 388 99q196 0 386 -68l-83 -184q-153 87 -296 87q-177 0 -288 -95q-134 -115 -200 -353q-50 -176 -50 -340q0 -181 89 -271
q76 -76 235 -76q95 0 201 37l80 453h-255zM328 -455l167 311h253l-249 -311h-171z" />
    <glyph glyph-name="gcommaaccent" unicode="&#x123;" horiz-adv-x="1089" vert-adv-y="2457" 
d="M645 87q-119 -114 -258 -114q-145 0 -230 82q-93 90 -93 273q0 172 67 334q72 177 201 264q123 83 308 83q188 0 399 -61q-46 -163 -82 -370l-71 -403q-28 -157 -52 -250q-57 -210 -181 -308q-125 -98 -340 -98q-180 0 -309 43l46 175q131 -64 272 -64q162 0 234 117
q51 83 78 235zM773 812q-64 39 -146 39q-167 0 -254 -194q-32 -71 -53 -174q-18 -90 -18 -164q0 -188 140 -188q111 0 193 113q50 69 71 191zM565 1147l306 277h171l-205 -277h-272z" />
    <glyph glyph-name="Hcircumflex" unicode="&#x124;" horiz-adv-x="1385" vert-adv-y="2457" 
d="M84 0l249 1413h239l-105 -592h567l105 592h238l-249 -1413h-238l115 653h-567l-116 -653h-238zM899 1721l-197 -163h-188l266 277h266l168 -277h-175z" />
    <glyph glyph-name="hcircumflex" unicode="&#x125;" horiz-adv-x="1151" vert-adv-y="2457" 
d="M70 0l198 1123q24 135 46 323l245 50l-113 -641q59 56 118 91q104 63 222 63q130 0 194 -64q59 -57 59 -152q0 -64 -21 -184l-108 -609h-225l107 603q14 82 14 124q0 109 -105 109q-113 0 -234 -125q-44 -46 -58 -87q-7 -20 -15 -65l-99 -559h-225zM531 1762l-197 -163
h-188l266 277h266l168 -277h-175z" />
    <glyph glyph-name="Hbar" unicode="&#x126;" horiz-adv-x="1395" vert-adv-y="2457" 
d="M89 0l178 1005h-147l24 138h147l47 270h239l-48 -270h567l48 270h238l-48 -270h147l-23 -138h-147l-178 -1005h-238l112 638h-567l-113 -638h-238zM469 802h567l37 203h-568z" />
    <glyph glyph-name="hbar" unicode="&#x127;" horiz-adv-x="1151" vert-adv-y="2457" 
d="M70 0l199 1128h-138l23 138h137q12 88 23 180l245 49l-40 -229h261l-23 -138h-263l-48 -273q163 154 336 154q131 0 198 -65q59 -56 59 -151q0 -64 -21 -184l-108 -609h-225l107 603q14 82 14 124q0 109 -105 109q-113 0 -234 -125q-44 -46 -58 -87q-7 -20 -15 -65
l-99 -559h-225z" />
    <glyph glyph-name="Itilde" unicode="&#x128;" horiz-adv-x="599" vert-adv-y="2457" 
d="M93 0l249 1413h239l-250 -1413h-238zM279 1561h-155q43 124 91 188q76 102 182 102q56 0 104 -28q26 -15 72 -64q49 -52 76 -52q52 0 94 133h157q-33 -120 -76 -184q-74 -109 -201 -109q-72 0 -121 40q-11 9 -55 55q-45 48 -70 48q-47 0 -98 -129z" />
    <glyph glyph-name="itilde" unicode="&#x129;" horiz-adv-x="545" vert-adv-y="2457" 
d="M74 0l173 983h226l-173 -983h-226zM181 1150h-155q45 127 90 188q77 102 183 102q56 0 104 -28q26 -15 72 -64q49 -52 76 -52q38 0 66 59q13 25 28 74h157q-32 -119 -76 -184q-74 -109 -200 -109q-73 0 -122 40q-11 9 -55 55q-45 48 -70 48q-47 0 -98 -129z" />
    <glyph glyph-name="Imacron" unicode="&#x12a;" horiz-adv-x="599" vert-adv-y="2457" 
d="M93 0l249 1413h239l-250 -1413h-238zM178 1628l25 144h623l-26 -144h-622z" />
    <glyph glyph-name="imacron" unicode="&#x12b;" horiz-adv-x="545" vert-adv-y="2457" 
d="M65 0l173 983h226l-173 -983h-226zM67 1209l25 144h623l-26 -144h-622z" />
    <glyph glyph-name="Ibreve" unicode="&#x12c;" horiz-adv-x="599" vert-adv-y="2457" 
d="M93 0l249 1413h239l-250 -1413h-238zM189 1849h166q-1 -19 -1 -27q0 -56 26 -87q33 -38 121 -38q112 0 161 66q22 30 38 86h172q-21 -112 -73 -179q-99 -126 -313 -126q-168 0 -245 77q-58 57 -58 155q0 27 6 73z" />
    <glyph glyph-name="ibreve" unicode="&#x12d;" horiz-adv-x="545" vert-adv-y="2457" 
d="M71 0l173 983h226l-173 -983h-226zM85 1438h166q-1 -19 -1 -27q0 -57 26 -87q33 -38 121 -38q112 0 161 66q22 31 38 86h172q-21 -112 -73 -179q-99 -126 -313 -126q-168 0 -245 77q-58 57 -58 155q0 26 6 73z" />
    <glyph glyph-name="Iogonek" unicode="&#x12e;" horiz-adv-x="599" vert-adv-y="2457" 
d="M93 0l250 1413h238l-249 -1413q-123 -83 -186 -141q-103 -96 -103 -214q0 -90 111 -90q69 0 143 32v-103q-94 -31 -191 -31q-259 0 -259 180q0 225 333 367h-87z" />
    <glyph glyph-name="iogonek" unicode="&#x12f;" horiz-adv-x="546" vert-adv-y="2457" 
d="M73 0l174 983h225l-173 -983q-127 -86 -186 -141q-103 -96 -103 -214q0 -90 111 -90q69 0 143 32v-103q-94 -31 -191 -31q-259 0 -259 180q0 223 336 367h-77zM409 1423q59 0 100 -42q40 -41 40 -100q0 -58 -40 -100q-41 -42 -102 -42q-60 0 -101 42q-40 42 -40 100
q0 60 40 100q42 42 103 42z" />
    <glyph glyph-name="Idotaccent" unicode="&#x130;" horiz-adv-x="599" vert-adv-y="2457" 
d="M93 0l249 1413h239l-250 -1413h-238zM501 1837q61 0 103 -41q41 -41 41 -98q0 -58 -41 -99q-42 -41 -103 -41t-103 41q-41 42 -41 100q0 57 41 97q43 41 103 41z" />
    <glyph glyph-name="IJ" unicode="&#x132;" horiz-adv-x="1222" vert-adv-y="2457" 
d="M93 0l249 1413h239l-250 -1413h-238zM965 1413h239l-208 -1176q-37 -208 -63 -299q-113 -388 -491 -388q-103 0 -208 22l51 171q80 -28 158 -28q153 0 221 149q46 102 92 363z" />
    <glyph glyph-name="ij" unicode="&#x133;" horiz-adv-x="1092" vert-adv-y="2457" 
d="M74 0l173 983h226l-174 -983h-225zM409 1423q59 0 99 -42q41 -42 41 -100t-41 -100q-40 -42 -100 -42q-61 0 -101 42q-41 42 -41 100q0 59 41 100q41 42 102 42zM794 983h225l-155 -875q-34 -192 -61 -276q-103 -313 -423 -313q-71 0 -169 15l49 159q67 -20 128 -20
q114 0 167 110q42 88 80 301zM956 1423q59 0 100 -42q40 -41 40 -100q0 -58 -40 -100q-41 -42 -101 -42t-101 42t-41 100q0 59 41 100q42 42 102 42z" />
    <glyph glyph-name="Jcircumflex" unicode="&#x134;" horiz-adv-x="623" vert-adv-y="2457" 
d="M367 1413h239l-208 -1176q-37 -208 -63 -299q-113 -388 -491 -388q-103 0 -208 22l51 171q80 -28 158 -28q153 0 221 149q46 102 92 363zM518 1721l-197 -163h-188l266 277h266l168 -277h-175z" />
    <glyph glyph-name="jcircumflex" unicode="&#x135;" horiz-adv-x="547" vert-adv-y="2457" 
d="M248 983h225l-155 -875q-34 -192 -61 -276q-103 -313 -423 -313q-71 0 -169 15l49 159q67 -20 128 -20q114 0 167 110q42 88 80 301zM405 1310l-197 -163h-188l266 277h266l168 -277h-175z" />
    <glyph glyph-name="Kcommaaccent" unicode="&#x136;" horiz-adv-x="1213" vert-adv-y="2457" 
d="M84 0l249 1413h239l-107 -602l644 602h263l-683 -631l496 -782h-270l-461 749l-132 -749h-238zM295 -455l167 311h253l-249 -311h-171z" />
    <glyph glyph-name="kcommaaccent" unicode="&#x137;" horiz-adv-x="990" vert-adv-y="2457" 
d="M70 0l198 1123q24 135 46 323l245 50l-155 -879l441 366h250l-478 -381l356 -602h-252l-325 572l-101 -572h-225zM182 -455l167 311h253l-249 -311h-171z" />
    <glyph glyph-name="kgreenlandic" unicode="&#x138;" horiz-adv-x="990" vert-adv-y="2457" 
d="M70 0l116 660q25 138 46 323h237l-65 -366l441 366h250l-478 -381l356 -602h-252l-325 572l-101 -572h-225z" />
    <glyph glyph-name="Lacute" unicode="&#x139;" horiz-adv-x="1029" vert-adv-y="2457" 
d="M84 0l249 1413h239l-220 -1245h606l-30 -168h-844zM395 1558l205 277h278l-306 -277h-177z" />
    <glyph glyph-name="lacute" unicode="&#x13a;" horiz-adv-x="546" vert-adv-y="2457" 
d="M73 0l198 1123q24 135 46 323l245 50l-264 -1496h-225zM343 1599l205 277h278l-306 -277h-177z" />
    <glyph glyph-name="Lcommaaccent" unicode="&#x13b;" horiz-adv-x="1029" vert-adv-y="2457" 
d="M84 0l249 1413h239l-220 -1245h606l-30 -168h-844zM204 -455l167 311h253l-249 -311h-171z" />
    <glyph glyph-name="lcommaaccent" unicode="&#x13c;" horiz-adv-x="546" vert-adv-y="2457" 
d="M74 0l198 1123q24 135 46 323l245 50l-264 -1496h-225zM-119 -455l167 311h253l-249 -311h-171z" />
    <glyph glyph-name="Lcaron" unicode="&#x13d;" horiz-adv-x="1029" vert-adv-y="2457" 
d="M84 0l249 1413h239l-220 -1245h606l-30 -168h-844zM671 994l149 494h228l-209 -494h-168z" />
    <glyph glyph-name="lcaron" unicode="&#x13e;" horiz-adv-x="779" vert-adv-y="2457" 
d="M73 0l198 1123q24 135 46 323l245 50l-264 -1496h-225zM631 994l149 494h228l-209 -494h-168z" />
    <glyph glyph-name="Ldot" unicode="&#x13f;" horiz-adv-x="1029" vert-adv-y="2457" 
d="M84 0l249 1413h239l-220 -1245h606l-30 -168h-844zM787 846q69 0 114 -52q39 -44 39 -99q0 -65 -50 -111q-44 -40 -106 -40q-71 0 -118 52q-38 43 -38 100q0 63 50 109q44 41 109 41z" />
    <glyph glyph-name="ldot" unicode="&#x140;" horiz-adv-x="847" vert-adv-y="2457" 
d="M73 0l198 1123q24 135 46 323l245 50l-264 -1496h-225zM729 797q69 0 114 -52q39 -44 39 -99q0 -65 -50 -111q-44 -40 -106 -40q-71 0 -118 52q-38 43 -38 100q0 63 50 109q44 41 109 41z" />
    <glyph glyph-name="Nacute" unicode="&#x143;" horiz-adv-x="1396" vert-adv-y="2457" 
d="M84 0l249 1413h257l267 -730l36 -98l34 -97l32 -90l29 -82q11 95 46 298l18 106l123 693h213l-249 -1413h-245l-278 768q-23 65 -126 359q-19 -150 -54 -348l-138 -779h-214zM763 1558l205 277h278l-306 -277h-177z" />
    <glyph glyph-name="nacute" unicode="&#x144;" horiz-adv-x="1148" vert-adv-y="2457" 
d="M70 0l110 623q34 195 53 360h205l-12 -148q167 174 351 174q123 0 192 -58q66 -56 66 -159q0 -66 -20 -183l-108 -609h-225l105 595q15 87 15 135q0 105 -104 105q-112 0 -231 -125q-42 -45 -57 -85q-9 -25 -15 -62l-99 -563h-226zM556 1147l205 277h278l-306 -277h-177z
" />
    <glyph glyph-name="Ncommaaccent" unicode="&#x145;" horiz-adv-x="1396" vert-adv-y="2457" 
d="M84 0l249 1413h257l267 -730l36 -98l34 -97l32 -90l29 -82q11 95 46 298l18 106l123 693h213l-249 -1413h-245l-278 768q-23 65 -126 359q-19 -150 -54 -348l-138 -779h-214zM335 -455l167 311h253l-249 -311h-171z" />
    <glyph glyph-name="ncommaaccent" unicode="&#x146;" horiz-adv-x="1148" vert-adv-y="2457" 
d="M70 0l110 623q34 195 53 360h205l-12 -148q167 174 351 174q123 0 192 -58q66 -56 66 -159q0 -66 -20 -183l-108 -609h-225l105 595q15 87 15 135q0 105 -104 105q-112 0 -231 -125q-42 -45 -57 -85q-9 -25 -15 -62l-99 -563h-226zM203 -455l167 311h253l-249 -311h-171z
" />
    <glyph glyph-name="Ncaron" unicode="&#x147;" horiz-adv-x="1396" vert-adv-y="2457" 
d="M84 0l249 1413h257l267 -730l36 -98l34 -97l32 -90l29 -82q11 95 46 298l18 106l123 693h213l-249 -1413h-245l-278 768q-23 65 -126 359q-19 -150 -54 -348l-138 -779h-214zM908 1672l196 163h189l-266 -277h-266l-168 277h175z" />
    <glyph glyph-name="ncaron" unicode="&#x148;" horiz-adv-x="1148" vert-adv-y="2457" 
d="M70 0l110 623q34 195 53 360h205l-12 -148q167 174 351 174q123 0 192 -58q66 -56 66 -159q0 -66 -20 -183l-108 -609h-225l105 595q15 87 15 135q0 105 -104 105q-112 0 -231 -125q-42 -45 -57 -85q-9 -25 -15 -62l-99 -563h-226zM658 1261l196 163h189l-266 -277h-266
l-168 277h175z" />
    <glyph glyph-name="napostrophe" unicode="&#x149;" horiz-adv-x="1148" vert-adv-y="2457" 
d="M70 0l110 623q34 195 53 360h205l-12 -148q167 174 351 174q123 0 192 -58q66 -56 66 -159q0 -66 -20 -183l-108 -609h-225l105 595q15 87 15 135q0 105 -104 105q-112 0 -231 -125q-42 -45 -57 -85q-9 -25 -15 -62l-99 -563h-226zM111 1059l130 429h233l-191 -429h-172z
" />
    <glyph glyph-name="Eng" unicode="&#x14a;" horiz-adv-x="1396" vert-adv-y="2457" 
d="M84 0l249 1413h257l267 -730l36 -98l34 -97l32 -90l29 -82q11 95 46 298l18 106l123 693h213l-237 -1343q-29 -165 -60 -253q-103 -298 -418 -298q-71 0 -168 15l49 159q65 -20 129 -20q92 0 146 65q57 69 94 262h-29l-278 768q-23 65 -126 359q-19 -150 -54 -348
l-138 -779h-214z" />
    <glyph glyph-name="eng" unicode="&#x14b;" horiz-adv-x="1148" vert-adv-y="2457" 
d="M70 0l110 623q34 195 53 360h205l-12 -148q167 174 351 174q123 0 192 -58q66 -56 66 -158q0 -68 -20 -184l-89 -501q-34 -192 -62 -276q-103 -313 -423 -313q-71 0 -169 15l50 159q65 -20 128 -20q114 0 167 111q42 88 79 300l91 511q15 87 15 135q0 105 -104 105
q-112 0 -231 -125q-42 -45 -57 -85q-9 -25 -15 -62l-99 -563h-226z" />
    <glyph glyph-name="Omacron" unicode="&#x14c;" horiz-adv-x="1378" vert-adv-y="2457" 
d="M836 1439q155 0 276 -64q133 -69 190 -219q45 -118 45 -261q0 -177 -55 -364q-83 -280 -258 -422q-167 -135 -407 -135q-241 0 -373 122q-147 136 -147 416q0 193 62 388q171 539 667 539zM831 1274q-245 0 -371 -277q-45 -99 -75 -247q-30 -145 -30 -268q0 -164 74 -258
q66 -85 199 -85q239 0 366 277q46 99 76 249q29 144 29 263q0 145 -59 239q-67 107 -209 107zM568 1628l25 144h623l-26 -144h-622z" />
    <glyph glyph-name="omacron" unicode="&#x14d;" horiz-adv-x="1103" vert-adv-y="2457" 
d="M631 1009q178 0 284 -101q113 -107 113 -296q0 -133 -45 -266q-65 -189 -220 -291q-121 -81 -282 -81q-187 0 -293 101q-112 107 -112 302q0 138 51 275q64 174 205 271q125 86 299 86zM617 851q-153 0 -238 -182q-65 -138 -65 -306q0 -231 176 -231q151 0 235 183
q65 139 65 305q0 231 -173 231zM349 1209l25 144h623l-26 -144h-622z" />
    <glyph glyph-name="Obreve" unicode="&#x14e;" horiz-adv-x="1378" vert-adv-y="2457" 
d="M836 1439q155 0 276 -64q133 -69 190 -219q45 -118 45 -261q0 -177 -55 -364q-83 -280 -258 -422q-167 -135 -407 -135q-241 0 -373 122q-147 136 -147 416q0 193 62 388q171 539 667 539zM831 1274q-245 0 -371 -277q-45 -99 -75 -247q-30 -145 -30 -268q0 -164 74 -258
q66 -85 199 -85q239 0 366 277q46 99 76 249q29 144 29 263q0 145 -59 239q-67 107 -209 107zM605 1849h166q-1 -19 -1 -27q0 -56 26 -87q33 -38 121 -38q112 0 161 66q22 30 38 86h172q-21 -112 -73 -179q-99 -126 -313 -126q-168 0 -245 77q-58 57 -58 155q0 27 6 73z" />
    <glyph glyph-name="obreve" unicode="&#x14f;" horiz-adv-x="1103" vert-adv-y="2457" 
d="M631 1009q178 0 284 -101q113 -107 113 -296q0 -133 -45 -266q-65 -189 -220 -291q-121 -81 -282 -81q-187 0 -293 101q-112 107 -112 302q0 138 51 275q64 174 205 271q125 86 299 86zM617 851q-153 0 -238 -182q-65 -138 -65 -306q0 -231 176 -231q151 0 235 183
q65 139 65 305q0 231 -173 231zM379 1438h166q-1 -19 -1 -27q0 -57 26 -87q33 -38 121 -38q112 0 161 66q22 31 38 86h172q-21 -112 -73 -179q-99 -126 -313 -126q-168 0 -245 77q-58 57 -58 155q0 26 6 73z" />
    <glyph glyph-name="Ohungarumlaut" unicode="&#x150;" horiz-adv-x="1378" vert-adv-y="2457" 
d="M836 1439q155 0 276 -64q133 -69 190 -219q45 -118 45 -261q0 -177 -55 -364q-83 -280 -258 -422q-167 -135 -407 -135q-241 0 -373 122q-147 136 -147 416q0 193 62 388q171 539 667 539zM831 1274q-245 0 -371 -277q-45 -99 -75 -247q-30 -145 -30 -268q0 -164 74 -258
q66 -85 199 -85q239 0 366 277q46 99 76 249q29 144 29 263q0 145 -59 239q-67 107 -209 107zM615 1558l184 277h254l-273 -277h-165zM961 1558l184 277h255l-274 -277h-165z" />
    <glyph glyph-name="ohungarumlaut" unicode="&#x151;" horiz-adv-x="1103" vert-adv-y="2457" 
d="M631 1009q178 0 284 -101q113 -107 113 -296q0 -133 -45 -266q-65 -189 -220 -291q-121 -81 -282 -81q-187 0 -293 101q-112 107 -112 302q0 138 51 275q64 174 205 271q125 86 299 86zM617 851q-153 0 -238 -182q-65 -138 -65 -306q0 -231 176 -231q151 0 235 183
q65 139 65 305q0 231 -173 231zM386 1147l184 277h254l-273 -277h-165zM732 1147l184 277h255l-274 -277h-165z" />
    <glyph glyph-name="Racute" unicode="&#x154;" horiz-adv-x="1227" vert-adv-y="2457" 
d="M84 0l249 1413h380q268 0 375 -75q123 -86 123 -264q0 -189 -116 -312q-66 -70 -165 -108q-25 -9 -68 -22q49 -45 73 -90q22 -41 50 -132l128 -410h-258l-103 366q-45 160 -66 193q-23 37 -88 37h-170l-106 -596h-238zM453 741h192q176 0 250 95q71 92 71 233
q0 101 -63 145q-50 35 -173 35h-187zM645 1558l205 277h278l-306 -277h-177z" />
    <glyph glyph-name="racute" unicode="&#x155;" horiz-adv-x="739" vert-adv-y="2457" 
d="M70 0l112 632q34 196 51 351h215q-5 -72 -15 -146q60 74 98 106q80 66 174 66q56 0 112 -14l-64 -194q-60 27 -106 27q-93 0 -182 -128q-62 -90 -81 -199l-88 -501h-226zM432 1147l205 277h278l-306 -277h-177z" />
    <glyph glyph-name="Rcommaaccent" unicode="&#x156;" horiz-adv-x="1227" vert-adv-y="2457" 
d="M84 0l249 1413h380q268 0 375 -75q123 -86 123 -264q0 -189 -116 -312q-66 -70 -165 -108q-25 -9 -68 -22q49 -45 73 -90q22 -41 50 -132l128 -410h-258l-103 366q-45 160 -66 193q-23 37 -88 37h-170l-106 -596h-238zM453 741h192q176 0 250 95q71 92 71 233
q0 101 -63 145q-50 35 -173 35h-187zM288 -455l167 311h253l-249 -311h-171z" />
    <glyph glyph-name="rcommaaccent" unicode="&#x157;" horiz-adv-x="739" vert-adv-y="2457" 
d="M71 0l112 632q34 196 51 351h215q-5 -72 -15 -146q60 74 98 106q80 66 174 66q56 0 112 -14l-64 -194q-60 27 -106 27q-93 0 -182 -128q-62 -90 -81 -199l-88 -501h-226zM-112 -455l167 311h253l-249 -311h-171z" />
    <glyph glyph-name="Rcaron" unicode="&#x158;" horiz-adv-x="1227" vert-adv-y="2457" 
d="M84 0l249 1413h380q268 0 375 -75q123 -86 123 -264q0 -189 -116 -312q-66 -70 -165 -108q-25 -9 -68 -22q49 -45 73 -90q22 -41 50 -132l128 -410h-258l-103 366q-45 160 -66 193q-23 37 -88 37h-170l-106 -596h-238zM453 741h192q176 0 250 95q71 92 71 233
q0 101 -63 145q-50 35 -173 35h-187zM766 1672l196 163h189l-266 -277h-266l-168 277h175z" />
    <glyph glyph-name="rcaron" unicode="&#x159;" horiz-adv-x="739" vert-adv-y="2457" 
d="M70 0l112 632q34 196 51 351h215q-5 -72 -15 -146q60 74 98 106q80 66 174 66q56 0 112 -14l-64 -194q-60 27 -106 27q-93 0 -182 -128q-62 -90 -81 -199l-88 -501h-226zM539 1261l196 163h189l-266 -277h-266l-168 277h175z" />
    <glyph glyph-name="Sacute" unicode="&#x15a;" horiz-adv-x="1040" vert-adv-y="2457" 
d="M-25 56l69 191q173 -108 365 -108q152 0 233 66q77 64 77 180q0 78 -44 127q-30 33 -70 57q-32 18 -100 55q-150 81 -228 156q-99 96 -99 245q0 190 129 303q128 111 359 111q185 0 365 -62l-83 -185q-144 82 -273 82q-122 0 -189 -57q-70 -60 -70 -161q0 -77 56 -129
q41 -40 175 -113q157 -86 225 -158q85 -90 85 -238q0 -210 -140 -330q-134 -114 -405 -114q-257 0 -437 82zM594 1558l205 277h278l-306 -277h-177z" />
    <glyph glyph-name="sacute" unicode="&#x15b;" horiz-adv-x="846" vert-adv-y="2457" 
d="M-13 27l63 173q131 -68 267 -68q108 0 159 43q45 38 45 99q0 46 -36 80q-29 28 -135 86q-115 63 -164 114q-61 63 -61 159q0 135 101 219q94 77 273 77q153 0 291 -54l-78 -169q-89 65 -203 65q-76 0 -120 -32q-43 -31 -43 -83q0 -47 48 -85q35 -28 126 -79
q118 -68 163 -114q59 -61 59 -154q0 -148 -103 -241q-98 -89 -305 -89q-191 0 -347 53zM418 1147l205 277h278l-306 -277h-177z" />
    <glyph glyph-name="Scircumflex" unicode="&#x15c;" horiz-adv-x="1040" vert-adv-y="2457" 
d="M-25 56l69 191q173 -108 365 -108q152 0 233 66q77 64 77 180q0 78 -44 127q-30 33 -70 57q-32 18 -100 55q-150 81 -228 156q-99 96 -99 245q0 190 129 303q128 111 359 111q185 0 365 -62l-83 -185q-144 82 -273 82q-122 0 -189 -57q-70 -60 -70 -161q0 -77 56 -129
q41 -40 175 -113q157 -86 225 -158q85 -90 85 -238q0 -210 -140 -330q-134 -114 -405 -114q-257 0 -437 82zM736 1721l-197 -163h-188l266 277h266l168 -277h-175z" />
    <glyph glyph-name="scircumflex" unicode="&#x15d;" horiz-adv-x="846" vert-adv-y="2457" 
d="M-13 27l63 173q131 -68 267 -68q108 0 159 43q45 38 45 99q0 46 -36 80q-29 28 -135 86q-115 63 -164 114q-61 63 -61 159q0 135 101 219q94 77 273 77q153 0 291 -54l-78 -169q-89 65 -203 65q-76 0 -120 -32q-43 -31 -43 -83q0 -47 48 -85q35 -28 126 -79
q118 -68 163 -114q59 -61 59 -154q0 -148 -103 -241q-98 -89 -305 -89q-191 0 -347 53zM567 1310l-197 -163h-188l266 277h266l168 -277h-175z" />
    <glyph glyph-name="Tcommaaccent" unicode="&#x162;" horiz-adv-x="1146" vert-adv-y="2457" 
d="M364 0l220 1245h-396l29 168h1018l-29 -168h-384l-220 -1245h-238zM184 -455l167 311h253l-249 -311h-171z" />
    <glyph glyph-name="tcommaaccent" unicode="&#x163;" horiz-adv-x="708" vert-adv-y="2457" 
d="M238 819h-172l42 164h164l61 262l214 47l-54 -309h263l-41 -164h-251l-75 -425q-18 -100 -18 -168q0 -47 21 -70q21 -24 77 -24q74 0 156 40l-5 -164q-115 -34 -242 -34q-132 0 -189 51q-54 48 -54 145q0 63 25 206zM-17 -455l167 311h253l-249 -311h-171z" />
    <glyph glyph-name="Tcaron" unicode="&#x164;" horiz-adv-x="1146" vert-adv-y="2457" 
d="M367 0l220 1245h-396l29 168h1018l-29 -168h-384l-220 -1245h-238zM771 1672l196 163h189l-266 -277h-266l-168 277h175z" />
    <glyph glyph-name="tcaron" unicode="&#x165;" horiz-adv-x="837" vert-adv-y="2457" 
d="M238 819h-172l42 164h164l61 262l214 47l-54 -309h263l-41 -164h-251l-75 -425q-18 -100 -18 -168q0 -47 21 -70q21 -24 77 -24q74 0 156 40l-5 -164q-115 -34 -242 -34q-132 0 -189 51q-54 48 -54 145q0 63 25 206zM689 1138l149 494h228l-209 -494h-168z" />
    <glyph glyph-name="Tbar" unicode="&#x166;" horiz-adv-x="1146" vert-adv-y="2457" 
d="M506 786h-369l25 142h369l56 317h-396l30 168h1017l-29 -168h-384l-56 -317h357l-25 -142h-357l-139 -786h-238z" />
    <glyph glyph-name="tbar" unicode="&#x167;" horiz-adv-x="708" vert-adv-y="2457" 
d="M238 819h-172l42 164h164l61 262l214 47l-54 -309h263l-41 -164h-251l-29 -166h219l-24 -136h-219l-24 -136q-16 -91 -16 -155q0 -47 21 -70q21 -24 77 -24q75 0 156 40l-5 -164q-115 -34 -242 -34q-131 0 -189 51q-54 48 -54 145q0 63 25 206l25 141h-168l24 136h168z
" />
    <glyph glyph-name="Utilde" unicode="&#x168;" horiz-adv-x="1295" vert-adv-y="2457" 
d="M323 1413h239l-151 -856q-30 -169 -30 -235q0 -183 219 -183q179 0 253 126q38 65 69 239l160 909h214l-171 -974q-21 -118 -36 -164q-100 -301 -507 -301q-230 0 -344 102q-93 84 -93 232q0 94 37 304zM628 1561h-155q43 124 91 188q76 102 182 102q56 0 104 -28
q26 -15 72 -64q49 -52 76 -52q52 0 94 133h157q-33 -120 -76 -184q-74 -109 -201 -109q-72 0 -121 40q-11 9 -55 55q-45 48 -70 48q-47 0 -98 -129z" />
    <glyph glyph-name="utilde" unicode="&#x169;" horiz-adv-x="1115" vert-adv-y="2457" 
d="M235 983h226l-101 -573q-17 -94 -17 -142q0 -123 110 -123q130 0 243 144l123 694h225l-125 -711q-26 -148 -30 -272h-210v50t1 66q-140 -142 -301 -142q-126 0 -198 64q-68 60 -68 178q0 73 26 218zM465 1150h-155q45 127 90 188q77 102 183 102q56 0 104 -28
q26 -15 72 -64q49 -52 76 -52q38 0 66 59q13 25 28 74h157q-32 -119 -76 -184q-74 -109 -200 -109q-73 0 -122 40q-11 9 -55 55q-45 48 -70 48q-47 0 -98 -129z" />
    <glyph glyph-name="Umacron" unicode="&#x16a;" horiz-adv-x="1295" vert-adv-y="2457" 
d="M323 1413h239l-151 -856q-30 -169 -30 -235q0 -183 219 -183q179 0 253 126q38 65 69 239l160 909h214l-171 -974q-21 -118 -36 -164q-100 -301 -507 -301q-230 0 -344 102q-93 84 -93 232q0 94 37 304zM526 1628l25 144h623l-26 -144h-622z" />
    <glyph glyph-name="umacron" unicode="&#x16b;" horiz-adv-x="1115" vert-adv-y="2457" 
d="M235 983h226l-101 -573q-17 -94 -17 -142q0 -123 110 -123q130 0 243 144l123 694h225l-125 -711q-26 -148 -30 -272h-210v50t1 66q-140 -142 -301 -142q-126 0 -198 64q-68 60 -68 178q0 73 26 218zM358 1209l25 144h623l-26 -144h-622z" />
    <glyph glyph-name="Ubreve" unicode="&#x16c;" horiz-adv-x="1295" vert-adv-y="2457" 
d="M323 1413h239l-151 -856q-30 -169 -30 -235q0 -183 219 -183q179 0 253 126q38 65 69 239l160 909h214l-171 -974q-21 -118 -36 -164q-100 -301 -507 -301q-230 0 -344 102q-93 84 -93 232q0 94 37 304zM536 1849h166q-1 -19 -1 -27q0 -56 26 -87q33 -38 121 -38
q112 0 161 66q22 30 38 86h172q-21 -112 -73 -179q-99 -126 -313 -126q-168 0 -245 77q-58 57 -58 155q0 27 6 73z" />
    <glyph glyph-name="ubreve" unicode="&#x16d;" horiz-adv-x="1115" vert-adv-y="2457" 
d="M235 983h226l-101 -573q-17 -94 -17 -142q0 -123 110 -123q130 0 243 144l123 694h225l-125 -711q-26 -148 -30 -272h-210v50t1 66q-140 -142 -301 -142q-126 0 -198 64q-68 60 -68 178q0 73 26 218zM370 1438h166q-1 -19 -1 -27q0 -57 26 -87q33 -38 121 -38
q112 0 161 66q22 31 38 86h172q-21 -112 -73 -179q-99 -126 -313 -126q-168 0 -245 77q-58 57 -58 155q0 26 6 73z" />
    <glyph glyph-name="Uring" unicode="&#x16e;" horiz-adv-x="1295" vert-adv-y="2457" 
d="M323 1413h239l-151 -856q-30 -169 -30 -235q0 -183 219 -183q179 0 253 126q38 65 69 239l160 909h214l-171 -974q-21 -118 -36 -164q-100 -301 -507 -301q-230 0 -344 102q-93 84 -93 232q0 94 37 304zM862 1955q106 0 170 -60q63 -59 63 -148q0 -88 -63 -147
q-66 -62 -174 -62t-173 62q-64 60 -64 147q0 90 63 148q66 60 178 60zM860 1879q-98 0 -98 -133q0 -60 24 -94q26 -38 72 -38q47 0 73 38q24 34 24 95t-24 94q-27 38 -71 38z" />
    <glyph glyph-name="uring" unicode="&#x16f;" horiz-adv-x="1115" vert-adv-y="2457" 
d="M235 983h226l-101 -573q-17 -94 -17 -142q0 -123 110 -123q130 0 243 144l123 694h225l-125 -711q-26 -148 -30 -272h-210v50t1 66q-140 -142 -301 -142q-126 0 -198 64q-68 60 -68 178q0 73 26 218zM691 1544q105 0 170 -60q63 -59 63 -148q0 -88 -63 -147
q-66 -62 -174 -62t-173 62q-64 60 -64 147q0 90 63 148q66 60 178 60zM688 1468q-48 0 -74 -38q-24 -34 -24 -95q0 -59 24 -94q26 -38 73 -38q46 0 73 38q24 34 24 95t-24 94q-27 38 -72 38z" />
    <glyph glyph-name="Uhungarumlaut" unicode="&#x170;" horiz-adv-x="1295" vert-adv-y="2457" 
d="M323 1413h239l-151 -856q-30 -169 -30 -235q0 -183 219 -183q179 0 253 126q38 65 69 239l160 909h214l-171 -974q-21 -118 -36 -164q-100 -301 -507 -301q-230 0 -344 102q-93 84 -93 232q0 94 37 304zM552 1558l184 277h254l-273 -277h-165zM898 1558l184 277h255
l-274 -277h-165z" />
    <glyph glyph-name="uhungarumlaut" unicode="&#x171;" horiz-adv-x="1115" vert-adv-y="2457" 
d="M235 983h226l-101 -573q-17 -94 -17 -142q0 -123 110 -123q130 0 243 144l123 694h225l-125 -711q-26 -148 -30 -272h-210v50t1 66q-140 -142 -301 -142q-126 0 -198 64q-68 60 -68 178q0 73 26 218zM391 1147l184 277h254l-273 -277h-165zM737 1147l184 277h255
l-274 -277h-165z" />
    <glyph glyph-name="Uogonek" unicode="&#x172;" horiz-adv-x="1295" vert-adv-y="2457" 
d="M323 1413h239l-151 -856q-30 -169 -30 -235q0 -184 219 -184q179 0 253 127q38 64 69 239l160 909h214l-171 -974q-23 -128 -39 -173q-76 -215 -307 -270q-112 -72 -181 -137q-103 -97 -103 -214q0 -90 111 -90q69 0 144 32l-1 -103q-94 -31 -191 -31q-259 0 -259 180
q0 204 276 340q-430 13 -430 337q0 91 37 302z" />
    <glyph glyph-name="uogonek" unicode="&#x173;" horiz-adv-x="1115" vert-adv-y="2457" 
d="M235 983h226l-101 -573q-17 -94 -17 -142q0 -124 110 -124q130 0 243 145l123 694h225l-125 -711q-27 -152 -30 -272q-144 -89 -188 -127q-56 -47 -81 -117q-20 -53 -20 -101q0 -99 112 -99q68 0 142 31v-103q-94 -31 -191 -31q-259 0 -259 192q0 229 315 349
q-3 16 -12 67q-3 13 -9 75q-146 -163 -318 -163q-126 0 -199 64q-68 60 -68 178q0 74 26 219z" />
    <glyph glyph-name="Wcircumflex" unicode="&#x174;" horiz-adv-x="1789" vert-adv-y="2457" 
d="M312 0l-129 1413h227l50 -663q2 -25 11 -237q4 -155 7 -251q38 93 111 278q102 245 109 261l274 612h174l57 -616q11 -121 25 -428l6 -119l47 130q108 301 156 414l266 619h228l-628 -1413h-224l-56 671q-17 207 -18 428q-111 -297 -182 -457l-284 -642h-227zM1097 1721
l-197 -163h-188l266 277h266l168 -277h-175z" />
    <glyph glyph-name="wcircumflex" unicode="&#x175;" horiz-adv-x="1500" vert-adv-y="2457" 
d="M258 0l-143 983h230l50 -428q6 -46 15 -163l7 -69l6 -70l30 72l26 60q66 156 71 166l196 432h195l38 -428q1 -4 12 -167l5 -70l4 -64q21 47 56 129q41 95 80 179l198 421h224l-498 -983h-215l-40 474q-2 18 -9 122q-4 72 -7 120l-28 -65q-58 -139 -79 -185l-209 -466
h-215zM882 1310l-197 -163h-188l266 277h266l168 -277h-175z" />
    <glyph glyph-name="Ycircumflex" unicode="&#x176;" horiz-adv-x="1070" vert-adv-y="2457" 
d="M328 0l94 533l-295 880h253l137 -424q17 -52 53 -190l13 -47l35 56q84 136 124 194l280 411h247l-608 -880l-94 -533h-239zM738 1721l-197 -163h-188l266 277h266l168 -277h-175z" />
    <glyph glyph-name="ycircumflex" unicode="&#x177;" horiz-adv-x="961" vert-adv-y="2457" 
d="M295 0l-196 983h234l72 -458q16 -102 37 -248l12 -88l39 88l35 80q46 104 72 161l210 465h224l-456 -938q-141 -290 -206 -369q-129 -156 -338 -156q-72 0 -152 12l48 161q51 -19 108 -19q106 0 189 101q62 76 106 159l34 66h-72zM597 1310l-197 -163h-188l266 277h266
l168 -277h-175z" />
    <glyph glyph-name="Zacute" unicode="&#x179;" horiz-adv-x="1066" vert-adv-y="2457" 
d="M-56 0l24 140l899 1105h-636l29 168h910l-13 -135l-904 -1110h730l-29 -168h-1010zM619 1558l205 277h278l-306 -277h-177z" />
    <glyph glyph-name="zacute" unicode="&#x17a;" horiz-adv-x="898" vert-adv-y="2457" 
d="M-47 0l13 130l633 692h-459l28 161h727l-10 -132l-631 -690h529l-28 -161h-802zM444 1147l205 277h278l-306 -277h-177z" />
    <glyph glyph-name="Zdotaccent" unicode="&#x17b;" horiz-adv-x="1066" vert-adv-y="2457" 
d="M-56 0l24 140l899 1105h-636l29 168h910l-13 -135l-904 -1110h730l-29 -168h-1010zM751 1837q61 0 103 -41q41 -41 41 -98q0 -58 -41 -99q-42 -41 -103 -41t-103 41q-41 42 -41 100q0 57 41 97q43 41 103 41z" />
    <glyph glyph-name="zdotaccent" unicode="&#x17c;" horiz-adv-x="898" vert-adv-y="2457" 
d="M-47 0l13 130l633 692h-459l28 161h727l-10 -132l-631 -690h529l-28 -161h-802zM576 1421q61 0 103 -41q41 -41 41 -98t-41 -99q-42 -41 -103 -41t-103 41q-41 42 -41 100q0 57 41 97q43 41 103 41z" />
    <glyph glyph-name="Ohorn" unicode="&#x1a0;" horiz-adv-x="1431" vert-adv-y="2457" 
d="M836 1439q155 0 276 -64q133 -69 190 -219q45 -118 45 -261q0 -177 -55 -364q-83 -280 -258 -422q-167 -135 -407 -135q-241 0 -373 122q-147 136 -147 416q0 193 62 388q171 539 667 539zM831 1274q-245 0 -371 -277q-45 -99 -75 -247q-30 -145 -30 -268q0 -164 74 -258
q66 -85 199 -85q239 0 366 277q46 99 76 249q29 144 29 263q0 145 -59 239q-67 107 -209 107zM1287 1204l105 387h242l-207 -387h-140z" />
    <glyph glyph-name="ohorn" unicode="&#x1a1;" horiz-adv-x="1176" vert-adv-y="2457" 
d="M631 1009q178 0 284 -101q113 -107 113 -296q0 -133 -45 -266q-65 -189 -220 -291q-121 -81 -282 -81q-187 0 -293 101q-112 107 -112 302q0 138 51 275q64 174 205 271q125 86 299 86zM617 851q-153 0 -238 -182q-65 -138 -65 -306q0 -231 176 -231q151 0 235 183
q65 139 65 305q0 231 -173 231zM1010 770l104 387h243l-208 -387h-139z" />
    <glyph glyph-name="Uhorn" unicode="&#x1af;" horiz-adv-x="1407" vert-adv-y="2457" 
d="M323 1413h239l-151 -856q-30 -169 -30 -235q0 -183 219 -183q179 0 253 126q38 65 69 239l160 909h214l-171 -974q-21 -118 -36 -164q-100 -301 -507 -301q-230 0 -344 102q-93 84 -93 232q0 94 37 304zM1334 1204l105 387h242l-208 -387h-139z" />
    <glyph glyph-name="uhorn" unicode="&#x1b0;" horiz-adv-x="1232" vert-adv-y="2457" 
d="M235 983h226l-101 -573q-17 -94 -17 -142q0 -123 110 -123q130 0 243 144l123 694h225l-125 -711q-26 -148 -30 -272h-210v50t1 66q-140 -142 -301 -142q-126 0 -198 64q-68 60 -68 178q0 73 26 218zM1083 771l104 387h242l-207 -387h-139z" />
    <glyph glyph-name="uni01CD" unicode="&#x1cd;" horiz-adv-x="1278" vert-adv-y="2457" 
d="M890 382h-558l-206 -382h-246l791 1413h245l290 -1413h-245zM861 546l-69 387q-16 86 -39 258q-70 -148 -122 -246l-213 -399h443zM815 1672l196 163h189l-266 -277h-266l-168 277h175z" />
    <glyph glyph-name="uni01CE" unicode="&#x1ce;" horiz-adv-x="1098" vert-adv-y="2457" 
d="M674 121q-53 -63 -100 -93q-83 -54 -187 -54q-145 0 -230 82q-93 90 -93 273q0 172 66 333q73 177 202 265q122 82 308 82q187 0 398 -61q-44 -161 -81 -370l-54 -301q-28 -161 -31 -277h-203q1 54 5 121zM773 812q-64 39 -147 39q-166 0 -253 -193q-32 -72 -53 -174
q-18 -90 -18 -163q0 -189 140 -189q111 0 192 113q50 69 72 190zM685 1261l196 163h189l-266 -277h-266l-168 277h175z" />
    <glyph glyph-name="uni01D3" unicode="&#x1d3;" horiz-adv-x="1295" vert-adv-y="2457" 
d="M323 1413h239l-151 -856q-30 -169 -30 -235q0 -183 219 -183q179 0 253 126q38 65 69 239l160 909h214l-171 -974q-21 -118 -36 -164q-100 -301 -507 -301q-230 0 -344 102q-93 84 -93 232q0 94 37 304zM846 1672l196 163h189l-266 -277h-266l-168 277h175z" />
    <glyph glyph-name="uni01D4" unicode="&#x1d4;" horiz-adv-x="1115" vert-adv-y="2457" 
d="M235 983h226l-101 -573q-17 -94 -17 -142q0 -123 110 -123q130 0 243 144l123 694h225l-125 -711q-26 -148 -30 -272h-210v50t1 66q-140 -142 -301 -142q-126 0 -198 64q-68 60 -68 178q0 73 26 218zM693 1261l196 163h189l-266 -277h-266l-168 277h175z" />
    <glyph glyph-name="Gcaron" unicode="&#x1e6;" horiz-adv-x="1302" vert-adv-y="2457" 
d="M706 629l27 154h493l-129 -728q-186 -81 -422 -81q-283 0 -423 129q-73 67 -109 176q-35 108 -35 226q0 247 101 486q97 232 290 349q163 99 388 99q196 0 386 -68l-83 -184q-153 87 -296 87q-177 0 -288 -95q-134 -115 -200 -353q-50 -176 -50 -340q0 -181 89 -271
q76 -76 235 -76q95 0 201 37l80 453h-255zM879 1672l196 163h189l-266 -277h-266l-168 277h175z" />
    <glyph glyph-name="gcaron" unicode="&#x1e7;" horiz-adv-x="1089" vert-adv-y="2457" 
d="M645 87q-119 -114 -258 -114q-145 0 -230 82q-93 90 -93 273q0 172 67 334q72 177 201 264q123 83 308 83q188 0 399 -61q-46 -163 -82 -370l-71 -403q-28 -157 -52 -250q-57 -210 -181 -308q-125 -98 -340 -98q-180 0 -309 43l46 175q131 -64 272 -64q162 0 234 117
q51 83 78 235zM773 812q-64 39 -146 39q-167 0 -254 -194q-32 -71 -53 -174q-18 -90 -18 -164q0 -188 140 -188q111 0 193 113q50 69 71 191zM694 1261l196 163h189l-266 -277h-266l-168 277h175z" />
    <glyph glyph-name="uni01F4" unicode="&#x1f4;" horiz-adv-x="1302" vert-adv-y="2457" 
d="M706 629l27 154h493l-129 -728q-186 -81 -422 -81q-283 0 -423 129q-73 67 -109 176q-35 108 -35 226q0 247 101 486q97 232 290 349q163 99 388 99q196 0 386 -68l-83 -184q-153 87 -296 87q-177 0 -288 -95q-134 -115 -200 -353q-50 -176 -50 -340q0 -181 89 -271
q76 -76 235 -76q95 0 201 37l80 453h-255zM744 1558l205 277h278l-306 -277h-177z" />
    <glyph glyph-name="uni01F5" unicode="&#x1f5;" horiz-adv-x="1089" vert-adv-y="2457" 
d="M645 87q-119 -114 -258 -114q-145 0 -230 82q-93 90 -93 273q0 172 67 334q72 177 201 264q123 83 308 83q188 0 399 -61q-46 -163 -82 -370l-71 -403q-28 -157 -52 -250q-57 -210 -181 -308q-125 -98 -340 -98q-180 0 -309 43l46 175q131 -64 272 -64q162 0 234 117
q51 83 78 235zM773 812q-64 39 -146 39q-167 0 -254 -194q-32 -71 -53 -174q-18 -90 -18 -164q0 -188 140 -188q111 0 193 113q50 69 71 191zM582 1147l205 277h278l-306 -277h-177z" />
    <glyph glyph-name="Scommaaccent" unicode="&#x218;" horiz-adv-x="1040" vert-adv-y="2457" 
d="M-25 56l69 191q173 -108 365 -108q152 0 233 66q77 64 77 180q0 78 -44 127q-30 33 -70 57q-32 18 -100 55q-150 81 -228 156q-99 96 -99 245q0 190 129 303q128 111 359 111q185 0 365 -62l-83 -185q-144 82 -273 82q-122 0 -189 -57q-70 -60 -70 -161q0 -77 56 -129
q41 -40 175 -113q157 -86 225 -158q85 -90 85 -238q0 -210 -140 -330q-134 -114 -405 -114q-257 0 -437 82zM128 -455l167 311h253l-249 -311h-171z" />
    <glyph glyph-name="scommaaccent" unicode="&#x219;" horiz-adv-x="846" vert-adv-y="2457" 
d="M-13 27l63 173q131 -68 267 -68q108 0 159 43q45 38 45 99q0 46 -36 80q-29 28 -135 86q-115 63 -164 114q-61 63 -61 159q0 135 101 219q94 77 273 77q153 0 291 -54l-78 -169q-89 65 -203 65q-76 0 -120 -32q-43 -31 -43 -83q0 -47 48 -85q35 -28 126 -79
q118 -68 163 -114q59 -61 59 -154q0 -148 -103 -241q-98 -89 -305 -89q-191 0 -347 53zM37 -455l167 311h253l-249 -311h-171z" />
    <glyph glyph-name="uni021A" unicode="&#x21a;" horiz-adv-x="1146" vert-adv-y="2457" 
d="M364 0l220 1245h-396l29 168h1018l-29 -168h-384l-220 -1245h-238zM184 -455l167 311h253l-249 -311h-171z" />
    <glyph glyph-name="uni021B" unicode="&#x21b;" horiz-adv-x="708" vert-adv-y="2457" 
d="M238 819h-172l42 164h164l61 262l214 47l-54 -309h263l-41 -164h-251l-75 -425q-18 -100 -18 -168q0 -47 21 -70q21 -24 77 -24q74 0 156 40l-5 -164q-115 -34 -242 -34q-132 0 -189 51q-54 48 -54 145q0 63 25 206zM-17 -455l167 311h253l-249 -311h-171z" />
    <glyph glyph-name="afii57929" unicode="&#x2bc;" horiz-adv-x="411" vert-adv-y="2457" 
d="M134 966l198 526h238l-266 -526h-170z" />
    <glyph glyph-name="uni02C9" unicode="&#x2c9;" horiz-adv-x="1024" vert-adv-y="2457" 
d="M327 1209l25 144h623l-26 -144h-622z" />
    <glyph glyph-name="dexia_keraia" unicode="&#x374;" horiz-adv-x="469" vert-adv-y="2457" 
d="M107 760l246 653h240l-305 -653h-181z" />
    <glyph glyph-name="aristeri_karaia" unicode="&#x375;" horiz-adv-x="469" vert-adv-y="2457" 
d="M-114 -286l246 653h240l-305 -653h-181z" />
    <glyph glyph-name="iotasubscript" unicode="&#x37a;" horiz-adv-x="1009" vert-adv-y="2457" 
d="M316 0h195l-12 -68q-11 -62 -11 -89q0 -77 86 -77q48 0 129 25l3 -102q-96 -34 -200 -34q-215 0 -215 166q0 41 15 125z" />
    <glyph glyph-name="erotimatico" unicode="&#x37e;" horiz-adv-x="547" vert-adv-y="2457" 
d="M-45 -298l190 559h244l-255 -559h-179zM355 1011q69 0 115 -52q38 -44 38 -99q0 -65 -50 -111q-44 -40 -106 -40q-71 0 -117 52q-39 44 -39 100q0 63 50 110q44 40 109 40z" />
    <glyph glyph-name="tonos" unicode="&#x384;" horiz-adv-x="1023" vert-adv-y="2457" 
d="M533 1137l164 331h261l-255 -331h-170z" />
    <glyph glyph-name="dialytikatonos" unicode="&#x385;" horiz-adv-x="1010" vert-adv-y="2457" 
d="M488 1125l133 360h233l-218 -360h-148zM353 1405q53 0 90 -36q36 -36 36 -87q0 -49 -36 -86q-37 -36 -90 -36q-54 0 -91 36q-36 37 -36 88q0 50 36 85q38 36 91 36zM937 1405q53 0 90 -36q36 -36 36 -87q0 -50 -36 -86t-90 -36t-91 36q-36 37 -36 88q0 50 36 85
q38 36 91 36z" />
    <glyph glyph-name="Alphatonos" unicode="&#x386;" horiz-adv-x="1278" vert-adv-y="2457" 
d="M890 382h-558l-206 -382h-246l791 1413h245l290 -1413h-245zM861 546l-69 387q-16 86 -39 258q-70 -148 -122 -246l-213 -399h443zM-1 861l172 552h235l-236 -552h-171z" />
    <glyph glyph-name="uni0387" unicode="&#x387;" horiz-adv-x="545" vert-adv-y="2457" 
d="M303 797q69 0 114 -52q39 -44 39 -99q0 -65 -50 -111q-44 -40 -106 -40q-71 0 -118 52q-38 43 -38 100q0 63 50 109q44 41 109 41z" />
    <glyph glyph-name="Epsilontonos" unicode="&#x388;" horiz-adv-x="1446" vert-adv-y="2457" 
d="M81 861l171 552h236l-237 -552h-170zM411 0l249 1413h881l-29 -168h-643l-76 -427h489l-28 -161h-489l-87 -489h654l-30 -168h-891z" />
    <glyph glyph-name="Etatonos" unicode="&#x389;" horiz-adv-x="1712" vert-adv-y="2457" 
d="M81 861l171 552h236l-237 -552h-170zM411 0l249 1413h238l-104 -592h567l104 592h239l-249 -1413h-239l116 653h-568l-115 -653h-238z" />
    <glyph glyph-name="Iotatonos" unicode="&#x38a;" horiz-adv-x="925" vert-adv-y="2457" 
d="M81 861l171 552h236l-237 -552h-170zM420 0l249 1413h239l-249 -1413h-239z" />
    <glyph glyph-name="Omicrontonos" unicode="&#x38c;" horiz-adv-x="1705" vert-adv-y="2457" 
d="M81 861l171 552h236l-237 -552h-170zM1163 1439q155 0 276 -64q133 -69 190 -219q45 -118 45 -261q0 -177 -55 -364q-83 -280 -258 -422q-167 -135 -407 -135q-241 0 -373 122q-147 136 -147 416q0 194 62 388q171 539 667 539zM1158 1274q-245 0 -371 -277
q-46 -100 -76 -247q-29 -144 -29 -268q0 -165 74 -258q67 -85 199 -85q239 0 366 277q46 99 76 249q29 143 29 263q0 146 -59 239q-67 107 -209 107z" />
    <glyph glyph-name="Upsilontonos" unicode="&#x38e;" horiz-adv-x="1397" vert-adv-y="2457" 
d="M-37 861l171 552h236l-237 -552h-170zM655 0l94 533l-295 880h253l136 -424q16 -49 54 -190l13 -47l35 56q84 136 124 194l280 411h246l-608 -880l-94 -533h-238z" />
    <glyph glyph-name="Omegatonos" unicode="&#x38f;" horiz-adv-x="1815" vert-adv-y="2457" 
d="M81 861l171 552h236l-237 -552h-170zM369 0l30 168h371l16 88q-133 58 -200 132q-111 121 -111 318q0 155 66 312q87 204 263 318q160 103 394 103q282 0 439 -150q142 -136 142 -369q0 -290 -175 -477q-119 -126 -331 -199l-14 -76h398l-30 -168h-558l57 329
q155 62 245 157q88 94 128 240q32 114 32 219q0 147 -83 235q-89 94 -249 94q-262 0 -393 -256q-82 -159 -82 -345q0 -156 94 -249q46 -46 142 -95l-58 -329h-533z" />
    <glyph glyph-name="iotadieresistonos" unicode="&#x390;" horiz-adv-x="613" vert-adv-y="2457" 
d="M242 983h225l-108 -613q-20 -131 -20 -158q0 -80 76 -80q48 0 103 29l5 -155q-97 -32 -203 -32q-211 0 -211 188q0 70 21 190zM290 1125l133 360h233l-218 -360h-148zM155 1405q53 0 90 -36q36 -36 36 -87q0 -49 -36 -86q-37 -36 -90 -36q-54 0 -91 36q-36 37 -36 88
q0 50 36 85q38 36 91 36zM739 1405q53 0 90 -36q36 -36 36 -87q0 -50 -36 -86t-90 -36t-91 36q-36 37 -36 88q0 50 36 85q38 36 91 36z" />
    <glyph glyph-name="Alpha" unicode="&#x391;" horiz-adv-x="1278" vert-adv-y="2457" 
d="M890 382h-558l-206 -382h-246l791 1413h245l290 -1413h-245zM861 546l-69 387q-16 86 -39 258q-70 -148 -122 -246l-213 -399h443z" />
    <glyph glyph-name="Beta" unicode="&#x392;" horiz-adv-x="1241" vert-adv-y="2457" 
d="M84 0l249 1413h425q249 0 352 -70q110 -75 110 -231q0 -160 -105 -265q-67 -66 -183 -97q93 -30 137 -71q78 -74 78 -218q0 -139 -66 -250q-71 -118 -203 -167q-119 -44 -306 -44h-488zM468 825h161q119 0 178 14q88 21 133 105q35 65 35 146q0 101 -66 135
q-44 24 -166 24h-200zM351 164h183q196 0 270 64q95 83 95 249q0 123 -89 160q-63 27 -228 27h-143z" />
    <glyph glyph-name="Gamma" unicode="&#x393;" horiz-adv-x="1024" vert-adv-y="2457" 
d="M84 0l249 1413h805l-29 -168h-567l-220 -1245h-238z" />
    <glyph glyph-name="uni0394" unicode="&#x394;" horiz-adv-x="1291" vert-adv-y="2457" 
d="M1222 0h-1326l791 1413h245zM946 168l-139 765q-15 79 -39 257q-76 -159 -122 -246l-416 -776h716z" />
    <glyph glyph-name="Epsilon" unicode="&#x395;" horiz-adv-x="1119" vert-adv-y="2457" 
d="M84 0l249 1413h882l-30 -168h-643l-75 -427h488l-28 -161h-489l-86 -489h653l-30 -168h-891z" />
    <glyph glyph-name="Zeta" unicode="&#x396;" horiz-adv-x="1066" vert-adv-y="2457" 
d="M-56 0l24 140l899 1105h-636l29 168h910l-13 -135l-904 -1110h730l-29 -168h-1010z" />
    <glyph glyph-name="Eta" unicode="&#x397;" horiz-adv-x="1385" vert-adv-y="2457" 
d="M84 0l249 1413h239l-105 -592h567l105 592h238l-249 -1413h-238l115 653h-567l-116 -653h-238z" />
    <glyph glyph-name="Theta" unicode="&#x398;" horiz-adv-x="1389" vert-adv-y="2457" 
d="M472 639l30 165h493l-29 -165h-494zM841 1439q157 0 279 -63q134 -70 192 -220q45 -117 45 -261q0 -177 -55 -364q-83 -280 -260 -422q-167 -135 -410 -135t-376 122q-149 136 -149 416q0 194 62 388q172 539 672 539zM836 1274q-247 0 -375 -277q-46 -99 -76 -247
q-30 -144 -30 -269q0 -163 75 -257q68 -85 203 -85q241 0 370 277q46 99 77 249q29 143 29 267q0 142 -60 235q-69 107 -213 107z" />
    <glyph glyph-name="Iota" unicode="&#x399;" horiz-adv-x="599" vert-adv-y="2457" 
d="M93 0l249 1413h239l-250 -1413h-238z" />
    <glyph glyph-name="Kappa" unicode="&#x39a;" horiz-adv-x="1213" vert-adv-y="2457" 
d="M84 0l249 1413h239l-107 -602l644 602h263l-683 -631l496 -782h-270l-461 749l-132 -749h-238z" />
    <glyph glyph-name="Lambda" unicode="&#x39b;" horiz-adv-x="1234" vert-adv-y="2457" 
d="M-104 0l761 1413h245l261 -1413h-245l-147 933q-8 53 -32 257q-68 -149 -117 -246l-481 -944h-245z" />
    <glyph glyph-name="Mu" unicode="&#x39c;" horiz-adv-x="1784" vert-adv-y="2457" 
d="M42 0l398 1413h288l100 -812q18 -142 24 -322q80 209 145 345l379 789h292l-100 -1413h-223l56 769q12 160 42 425q-38 -90 -89 -207q-66 -152 -89 -201l-376 -786h-175l-95 749q-12 94 -37 444q-44 -175 -77 -301l-29 -113l-217 -779h-217z" />
    <glyph glyph-name="Nu" unicode="&#x39d;" horiz-adv-x="1396" vert-adv-y="2457" 
d="M84 0l249 1413h257l267 -730l36 -98l34 -97l32 -90l29 -82q11 95 46 298l18 106l123 693h213l-249 -1413h-245l-278 768q-23 65 -126 359q-19 -150 -54 -348l-138 -779h-214z" />
    <glyph glyph-name="Xi" unicode="&#x39e;" horiz-adv-x="1089" vert-adv-y="2457" 
d="M-10 0l31 176h935l-31 -176h-935zM225 645l30 172h692l-30 -172h-692zM230 1237l31 176h891l-31 -176h-891z" />
    <glyph glyph-name="Omicron" unicode="&#x39f;" horiz-adv-x="1378" vert-adv-y="2457" 
d="M836 1439q155 0 276 -64q133 -69 190 -219q45 -118 45 -261q0 -177 -55 -364q-83 -280 -258 -422q-167 -135 -407 -135q-241 0 -373 122q-147 136 -147 416q0 193 62 388q171 539 667 539zM831 1274q-245 0 -371 -277q-45 -99 -75 -247q-30 -145 -30 -268q0 -164 74 -258
q66 -85 199 -85q239 0 366 277q46 99 76 249q29 144 29 263q0 145 -59 239q-67 107 -209 107z" />
    <glyph glyph-name="Pi" unicode="&#x3a0;" horiz-adv-x="1380" vert-adv-y="2457" 
d="M110 0l220 1245h-142l30 168h1269l-29 -168h-142l-220 -1245h-238l220 1245h-510l-220 -1245h-238z" />
    <glyph glyph-name="Rho" unicode="&#x3a1;" horiz-adv-x="1167" vert-adv-y="2457" 
d="M84 0l249 1413h382q246 0 353 -78q61 -45 93 -120q34 -79 34 -171q0 -125 -55 -246q-117 -259 -496 -259h-226l-96 -539h-238zM446 703h151q127 0 193 30q80 37 121 128q39 88 39 184q0 122 -67 167q-54 37 -176 37h-164z" />
    <glyph glyph-name="Sigma" unicode="&#x3a3;" horiz-adv-x="1054" vert-adv-y="2457" 
d="M-37 0l20 134l487 614l-249 530l35 135h887l-30 -168h-632l236 -499l-449 -578h686l-29 -168h-962z" />
    <glyph glyph-name="Tau" unicode="&#x3a4;" horiz-adv-x="1146" vert-adv-y="2457" 
d="M367 0l220 1245h-396l29 168h1018l-29 -168h-384l-220 -1245h-238z" />
    <glyph glyph-name="Upsilon" unicode="&#x3a5;" horiz-adv-x="1070" vert-adv-y="2457" 
d="M328 0l94 533l-295 880h253l137 -424q17 -52 53 -190l13 -47l35 56q84 136 124 194l280 411h247l-608 -880l-94 -533h-239z" />
    <glyph glyph-name="Phi" unicode="&#x3a6;" horiz-adv-x="1659" vert-adv-y="2457" 
d="M614 -57l33 186q-210 24 -327 104q-198 135 -198 399q0 197 106 354q184 271 624 306l31 178h225l-33 -183q215 -24 334 -101q203 -133 203 -400q0 -197 -109 -354q-187 -271 -633 -308l-32 -181h-224zM674 285l150 852q-96 -16 -152 -34q-150 -50 -233 -198
q-72 -126 -72 -279q0 -203 138 -286q55 -33 169 -55zM898 281q81 13 133 27q181 50 271 218q65 121 65 265q0 204 -145 288q-52 30 -174 54z" />
    <glyph glyph-name="Chi" unicode="&#x3a7;" horiz-adv-x="1175" vert-adv-y="2457" 
d="M489 754l-158 383q-33 83 -121 276h266l129 -326q35 -89 63 -170q77 111 122 169l251 327h259q-156 -187 -204 -249l-339 -429l171 -421q25 -62 135 -314h-265l-152 385q-17 41 -54 142l-14 40l-26 -36q-63 -85 -97 -129l-311 -402h-264q192 230 224 270z" />
    <glyph glyph-name="Psi" unicode="&#x3a8;" horiz-adv-x="1599" vert-adv-y="2457" 
d="M596 0l62 354q-168 11 -260 46q-116 43 -171 155q-36 75 -36 181q0 97 30 266l72 411h234l-84 -478q-24 -135 -24 -212q0 -152 140 -190q37 -10 128 -15l158 895h234l-158 -893q95 1 141 12q132 31 187 154q32 72 62 238l86 489h233l-101 -577q-24 -132 -49 -195
q-90 -223 -343 -271q-82 -16 -246 -20l-62 -350h-233z" />
    <glyph glyph-name="uni03A9" unicode="&#x3a9;" horiz-adv-x="1488" vert-adv-y="2457" 
d="M43 0l29 168h372l16 88q-134 59 -201 132q-111 122 -111 318q0 155 66 312q87 204 263 318q160 103 394 103q283 0 440 -150q142 -136 142 -369q0 -291 -175 -477q-119 -126 -332 -199l-13 -76h398l-30 -168h-559l58 329q155 61 245 157q88 94 129 240q31 114 31 219
q0 147 -84 235q-88 94 -248 94q-264 0 -395 -255q-82 -161 -82 -345q0 -156 95 -250q46 -47 142 -95l-58 -329h-532z" />
    <glyph glyph-name="Iotadieresis" unicode="&#x3aa;" horiz-adv-x="599" vert-adv-y="2457" 
d="M93 0l249 1413h239l-250 -1413h-238zM300 1829q58 0 97 -39t39 -92q0 -54 -39 -93t-97 -39t-97 39q-39 38 -39 94q0 53 39 91q40 39 97 39zM703 1829q57 0 97 -39q39 -39 39 -92q0 -54 -39 -93t-97 -39t-97 39q-39 38 -39 94q0 53 39 91q40 39 97 39z" />
    <glyph glyph-name="Upsilondieresis" unicode="&#x3ab;" horiz-adv-x="1070" vert-adv-y="2457" 
d="M328 0l94 533l-295 880h253l137 -424q17 -52 53 -190l13 -47l35 56q84 136 124 194l280 411h247l-608 -880l-94 -533h-239zM521 1829q58 0 97 -39q39 -38 39 -92q0 -55 -39 -93q-39 -39 -96 -39q-59 0 -98 39q-39 38 -39 94q0 53 39 91q40 39 97 39zM924 1829
q57 0 97 -39q39 -38 39 -92t-39 -93t-97 -39t-97 39q-39 38 -39 94q0 53 39 91q40 39 97 39z" />
    <glyph glyph-name="alphatonos" unicode="&#x3ac;" horiz-adv-x="1122" vert-adv-y="2457" 
d="M753 154q-49 -67 -84 -95q-105 -85 -259 -85q-339 0 -339 366q0 149 51 299q125 370 433 370q182 0 267 -104q34 -40 57 -111q36 120 48 191h188q-34 -131 -82 -272q-59 -171 -98 -263q-10 -101 -10 -174q0 -113 23 -148q16 -23 52 -28q8 -1 36 -3l-18 -101h-67
q-129 0 -164 42q-26 31 -34 116zM765 492q2 36 2 51q0 308 -171 308q-135 0 -218 -197q-69 -165 -69 -332q0 -190 156 -190q130 0 216 145q38 65 63 136q20 60 21 79zM564 1137l164 331h261l-255 -331h-170z" />
    <glyph glyph-name="epsilontonos" unicode="&#x3ad;" horiz-adv-x="928" vert-adv-y="2457" 
d="M786 182l-4 -173q-134 -35 -320 -35q-220 0 -318 66q-97 64 -97 196q0 101 55 181q42 61 116 92q13 6 46 18q-43 36 -60 64q-33 52 -33 126q0 145 121 225q100 67 283 67q178 0 348 -53l-75 -163q-107 62 -244 62q-111 0 -165 -50q-45 -42 -45 -111q0 -59 40 -88
q32 -23 114 -23h198l-27 -151h-220q-125 0 -170 -48q-52 -54 -52 -141q0 -61 39 -85q54 -34 175 -34q143 0 295 58zM535 1137l164 331h261l-255 -331h-170z" />
    <glyph glyph-name="etatonos" unicode="&#x3ae;" horiz-adv-x="1148" vert-adv-y="2457" 
d="M70 0l110 623q34 195 53 360h205l-12 -148q167 174 351 174q123 0 192 -58q66 -56 66 -158q0 -67 -20 -184l-189 -1068h-225l186 1054q15 88 15 136q0 104 -105 104q-111 0 -230 -125q-42 -45 -57 -85q-9 -25 -15 -62l-99 -563h-226zM569 1137l164 331h261l-255 -331
h-170z" />
    <glyph glyph-name="iotatonos" unicode="&#x3af;" horiz-adv-x="613" vert-adv-y="2457" 
d="M242 983h225l-108 -613q-20 -131 -20 -158q0 -80 76 -80q48 0 103 29l5 -155q-97 -32 -203 -32q-211 0 -211 188q0 70 21 190zM301 1137l164 331h261l-255 -331h-170z" />
    <glyph glyph-name="upsilondieresistonos" unicode="&#x3b0;" horiz-adv-x="1110" vert-adv-y="2457" 
d="M236 983h226l-101 -572q-13 -73 -13 -122q0 -144 151 -144q109 0 160 76q38 56 58 173l104 589h226l-103 -579q-21 -119 -36 -169q-44 -144 -151 -206q-94 -55 -270 -55q-203 0 -292 80q-73 66 -73 195q0 88 30 256zM538 1125l133 360h233l-218 -360h-148zM403 1405
q53 0 90 -36q36 -36 36 -87q0 -49 -36 -86q-37 -36 -90 -36q-54 0 -91 36q-36 37 -36 88q0 50 36 85q38 36 91 36zM987 1405q53 0 90 -36q36 -36 36 -87q0 -50 -36 -86t-90 -36t-91 36q-36 37 -36 88q0 50 36 85q38 36 91 36z" />
    <glyph glyph-name="alpha" unicode="&#x3b1;" horiz-adv-x="1122" vert-adv-y="2457" 
d="M753 154q-49 -67 -84 -95q-105 -85 -259 -85q-339 0 -339 366q0 149 51 299q125 370 433 370q182 0 267 -104q34 -40 57 -111q36 120 48 191h188q-34 -131 -82 -272q-59 -171 -98 -263q-10 -101 -10 -174q0 -113 23 -148q16 -23 52 -28q8 -1 36 -3l-18 -101h-67
q-129 0 -164 42q-26 31 -34 116zM765 492q2 36 2 51q0 308 -171 308q-135 0 -218 -197q-69 -165 -69 -332q0 -190 156 -190q130 0 216 145q38 65 63 136q20 60 21 79z" />
    <glyph glyph-name="beta" unicode="&#x3b2;" horiz-adv-x="1155" vert-adv-y="2457" 
d="M294 17l-83 -474h-226l245 1388q37 211 63 281q59 155 174 221q94 55 239 55q209 0 319 -98q95 -85 95 -233q0 -244 -263 -359q200 -73 200 -316q0 -199 -114 -340q-66 -81 -167 -125t-213 -44q-158 0 -269 44zM326 198q83 -67 207 -67q159 0 233 146q53 103 53 235
q0 149 -96 184q-35 12 -135 14l24 133q132 4 199 77q41 44 64 119q16 54 16 107q0 84 -46 132q-50 52 -138 52q-118 0 -179 -117q-25 -48 -43 -124q-7 -34 -32 -173z" />
    <glyph glyph-name="gamma" unicode="&#x3b3;" horiz-adv-x="969" vert-adv-y="2457" 
d="M285 10l-192 973h235l87 -494q15 -88 33 -246q71 158 124 259l252 481h225l-537 -966l-84 -476h-226z" />
    <glyph glyph-name="delta" unicode="&#x3b4;" horiz-adv-x="1107" vert-adv-y="2457" 
d="M501 909q-52 35 -78 62q-73 73 -73 183q0 103 57 187q99 147 359 147q157 0 299 -43l-65 -172q-110 61 -234 61q-85 0 -138 -33q-66 -41 -66 -125q0 -60 46 -102q33 -30 76 -55l113 -66q228 -132 228 -395q0 -124 -45 -245q-60 -166 -201 -259q-123 -80 -291 -80
q-208 0 -318 120q-96 104 -96 274q0 156 68 287q76 146 221 212q54 24 138 42zM609 788q-151 0 -233 -159q-64 -125 -64 -271q0 -226 180 -226q152 0 234 166q61 123 61 268q0 222 -178 222z" />
    <glyph glyph-name="epsilon" unicode="&#x3b5;" horiz-adv-x="928" vert-adv-y="2457" 
d="M786 182l-4 -173q-134 -35 -320 -35q-220 0 -318 66q-97 64 -97 196q0 101 55 181q42 61 116 92q13 6 46 18q-43 36 -60 64q-33 52 -33 126q0 145 121 225q100 67 283 67q178 0 348 -53l-75 -163q-107 62 -244 62q-111 0 -165 -50q-45 -42 -45 -111q0 -59 40 -88
q32 -23 114 -23h198l-27 -151h-220q-125 0 -170 -48q-52 -54 -52 -141q0 -61 39 -85q54 -34 175 -34q143 0 295 58z" />
    <glyph glyph-name="zeta" unicode="&#x3b6;" horiz-adv-x="840" vert-adv-y="2457" 
d="M267 1319l41 166q165 -21 394 -21h272l-35 -196q-270 -231 -419 -431q-121 -162 -176 -323q-40 -118 -40 -208q0 -86 58 -120q25 -15 142 -52q104 -32 143 -64q56 -45 56 -138q0 -107 -76 -253q-37 -71 -88 -138h-223q165 214 165 340q0 39 -27 61q-19 16 -69 28
q-156 39 -207 68q-112 64 -112 225q0 192 115 412q108 204 340 432q76 75 213 196h-129q-181 0 -338 16z" />
    <glyph glyph-name="eta" unicode="&#x3b7;" horiz-adv-x="1148" vert-adv-y="2457" 
d="M70 0l110 623q34 195 53 360h205l-12 -148q167 174 351 174q123 0 192 -58q66 -56 66 -158q0 -67 -20 -184l-189 -1068h-225l186 1054q15 88 15 136q0 104 -105 104q-111 0 -230 -125q-42 -45 -57 -85q-9 -25 -15 -62l-99 -563h-226z" />
    <glyph glyph-name="theta" unicode="&#x3b8;" horiz-adv-x="1120" vert-adv-y="2457" 
d="M719 1488q192 0 285 -145q92 -142 92 -368q0 -201 -60 -428q-78 -294 -236 -447q-131 -126 -308 -126q-192 0 -286 138q-98 144 -98 378q0 196 61 424q79 296 236 448q131 126 314 126zM378 825h482q13 112 13 193q0 309 -167 309q-214 0 -328 -502zM349 664
q-18 -131 -18 -224q0 -308 166 -308q222 0 336 532h-484z" />
    <glyph glyph-name="iota" unicode="&#x3b9;" horiz-adv-x="613" vert-adv-y="2457" 
d="M242 983h225l-108 -613q-20 -131 -20 -158q0 -80 76 -80q48 0 103 29l5 -155q-97 -32 -203 -32q-211 0 -211 188q0 70 21 190z" />
    <glyph glyph-name="kappa" unicode="&#x3ba;" horiz-adv-x="1019" vert-adv-y="2457" 
d="M70 0l173 983h226l-74 -419l446 419h248l-485 -436l344 -547h-254l-307 515l-91 -515h-226z" />
    <glyph glyph-name="lambda" unicode="&#x3bb;" horiz-adv-x="980" vert-adv-y="2457" 
d="M-99 0l578 997q-27 117 -52 174q-31 70 -74 114q-14 15 -54 53l179 156q74 -65 124 -162q57 -111 94 -311l190 -1021h-226l-89 548q-9 57 -26 181l-6 46l-25 -49q-77 -154 -109 -213l-280 -513h-224z" />
    <glyph glyph-name="uni03BC" unicode="&#x3bc;" horiz-adv-x="1127" vert-adv-y="2457" 
d="M246 983h226l-93 -527q-20 -112 -20 -162q0 -150 134 -150q110 0 216 145l122 694h226l-126 -711q-26 -148 -30 -272h-202v39q0 17 2 66q-41 -45 -67 -66q-85 -66 -194 -66q-75 0 -139 43l-83 -475h-226z" />
    <glyph glyph-name="nu" unicode="&#x3bd;" horiz-adv-x="971" vert-adv-y="2457" 
d="M280 0l-175 983h232l69 -435q16 -107 40 -305q96 205 151 313l218 427h224l-533 -983h-226z" />
    <glyph glyph-name="xi" unicode="&#x3be;" horiz-adv-x="921" vert-adv-y="2457" 
d="M270 1320l41 164q173 -20 404 -20h316l-30 -168h-55q-204 0 -310 -51q-77 -37 -112 -121q-23 -54 -23 -110q0 -156 235 -156h132l-28 -161h-131q-128 0 -203 -32q-107 -46 -158 -165q-40 -91 -40 -181q0 -94 67 -130q30 -16 160 -53q91 -26 116 -38q110 -51 110 -170
q0 -106 -76 -251q-36 -70 -86 -136h-223q163 214 163 336q0 42 -31 65q-23 16 -78 28q-171 37 -235 73q-125 71 -125 248q0 116 46 229q79 193 302 259q-59 35 -79 53q-67 64 -67 173q0 207 256 300q-131 1 -258 15z" />
    <glyph glyph-name="omicron" unicode="&#x3bf;" horiz-adv-x="1103" vert-adv-y="2457" 
d="M631 1009q178 0 284 -101q113 -107 113 -296q0 -133 -45 -266q-65 -189 -220 -291q-121 -81 -282 -81q-187 0 -293 101q-112 107 -112 302q0 138 51 275q64 174 205 271q125 86 299 86zM617 851q-153 0 -238 -182q-65 -138 -65 -306q0 -231 176 -231q151 0 235 183
q65 139 65 305q0 231 -173 231z" />
    <glyph glyph-name="rho" unicode="&#x3c1;" horiz-adv-x="1094" vert-adv-y="2457" 
d="M267 25l-85 -482h-226l168 954q24 135 40 183q106 329 445 329q200 0 307 -110q102 -105 102 -294q0 -228 -107 -405q-60 -100 -165 -160q-118 -67 -253 -67q-117 0 -226 52zM298 204q37 -31 53 -40q56 -33 133 -33q154 0 236 188q60 138 60 295q0 237 -169 237
q-140 0 -210 -162q-28 -64 -53 -200z" />
    <glyph glyph-name="uni03C2" unicode="&#x3c2;" horiz-adv-x="823" vert-adv-y="2457" 
d="M254 -459q165 216 165 347q0 36 -19 56.5t-66 35.5q-140 42 -189 78q-95 69 -95 242q0 186 75 377q75 190 210 269q107 63 263 63q162 0 267 -56l-78 -170q-68 68 -174 68q-156 0 -244 -167q-34 -65 -59 -178q-22 -100 -22 -177q0 -84 49 -123q30 -24 127 -61
q92 -34 125 -64q52 -45 52 -138q0 -116 -77 -264q-37 -73 -87 -138h-223z" />
    <glyph glyph-name="sigma" unicode="&#x3c3;" horiz-adv-x="1101" vert-adv-y="2457" 
d="M893 831q110 -113 110 -279q0 -120 -47 -244q-63 -166 -202 -258q-115 -76 -272 -76q-200 0 -309 114q-100 105 -100 281q0 168 72 325q89 194 272 259q85 30 244 30h506l-41 -162zM605 823q-149 0 -232 -175q-62 -130 -62 -282q0 -234 177 -234q148 0 230 175
q62 132 62 286q0 104 -40 163q-45 67 -135 67z" />
    <glyph glyph-name="tau" unicode="&#x3c4;" horiz-adv-x="862" vert-adv-y="2457" 
d="M322 819h-260l39 164h817l-39 -164h-331l-75 -425q-19 -105 -19 -170q0 -45 21 -68q22 -24 78 -24q75 0 156 40l-5 -164q-115 -34 -242 -34q-132 0 -189 51q-54 48 -54 141q0 68 25 210z" />
    <glyph glyph-name="upsilon" unicode="&#x3c5;" horiz-adv-x="1110" vert-adv-y="2457" 
d="M236 983h226l-101 -572q-13 -73 -13 -122q0 -144 151 -144q109 0 160 76q38 56 58 173l104 589h226l-103 -579q-21 -119 -36 -169q-44 -144 -151 -206q-94 -55 -270 -55q-203 0 -292 80q-73 66 -73 195q0 88 30 256z" />
    <glyph glyph-name="phi" unicode="&#x3c6;" horiz-adv-x="1426" vert-adv-y="2457" 
d="M528 141l73 414q39 227 86 309q80 142 283 142q192 0 290 -116q91 -107 91 -280q0 -186 -83 -333q-154 -274 -551 -301l-73 -435h-222l76 435q-146 14 -253 89q-166 117 -166 340q0 213 133 374q72 87 206 165l67 -155q-180 -143 -180 -378q0 -156 97 -222
q50 -34 126 -48zM744 138q173 22 259 125q66 78 96 218q18 84 18 157q0 210 -138 210q-83 0 -118 -78q-16 -37 -40 -176z" />
    <glyph glyph-name="chi" unicode="&#x3c7;" horiz-adv-x="894" vert-adv-y="2457" 
d="M302 340l-35 157q-8 36 -44 139q-37 106 -83 162q-22 27 -59 57l181 167q63 -61 102 -134q47 -88 89 -268l23 -98q56 101 98 168l184 293h239l-461 -647l55 -217q9 -39 60 -208q49 -162 79 -220q17 -32 46 -72l-204 -126q-53 76 -92 203q-28 88 -79 297l-40 157
q-34 -73 -107 -199l-236 -407l-245 -8z" />
    <glyph glyph-name="psi" unicode="&#x3c8;" horiz-adv-x="1406" vert-adv-y="2457" 
d="M272 1006l203 -44q-165 -409 -165 -607q0 -125 100 -176q50 -26 130 -36l147 818h201l-143 -819q232 21 293 167q63 152 63 489q0 71 -3 164l218 44q9 -193 9 -245q0 -376 -85 -539q-65 -125 -216 -190q-106 -46 -308 -58l-75 -433h-208l78 439q-435 38 -435 359
q0 222 196 667z" />
    <glyph glyph-name="omega" unicode="&#x3c9;" horiz-adv-x="1419" vert-adv-y="2457" 
d="M645 127q-35 -51 -71 -83q-79 -70 -198 -70q-169 0 -247 108q-59 82 -59 233q0 310 250 691l200 -50q-223 -363 -223 -655q0 -169 118 -169q85 0 132 96q26 52 51 190l46 265h198l-47 -265q-19 -108 -19 -159q0 -65 35 -98q31 -29 79 -29q118 0 173 154q42 120 42 298
t-62 353l207 69q82 -236 82 -435q0 -275 -106 -433q-110 -164 -326 -164q-135 0 -202 69q-30 31 -53 84z" />
    <glyph glyph-name="iotadieresis" unicode="&#x3ca;" horiz-adv-x="613" vert-adv-y="2457" 
d="M238 983h225l-108 -613q-20 -131 -20 -158q0 -80 76 -80q48 0 103 29l5 -155q-97 -32 -203 -32q-211 0 -211 188q0 70 21 190zM252 1413q58 0 97 -39q39 -38 39 -92q0 -55 -39 -93q-39 -39 -96 -39q-59 0 -98 39q-39 38 -39 94q0 53 39 91q40 39 97 39zM655 1413
q57 0 97 -39q39 -38 39 -92t-39 -93t-97 -39t-97 39q-39 38 -39 94q0 53 39 91q40 39 97 39z" />
    <glyph glyph-name="upsilondieresis" unicode="&#x3cb;" horiz-adv-x="1110" vert-adv-y="2457" 
d="M236 983h226l-101 -572q-13 -73 -13 -122q0 -144 151 -144q109 0 160 76q38 56 58 173l104 589h226l-103 -579q-21 -119 -36 -169q-44 -144 -151 -206q-94 -55 -270 -55q-203 0 -292 80q-73 66 -73 195q0 88 30 256zM505 1413q58 0 97 -39q39 -38 39 -92t-39 -93t-96 -39
q-58 0 -98 39q-39 39 -39 94q0 53 39 91q40 39 97 39zM884 1413q58 0 97 -39q39 -38 39 -92t-39 -93t-97 -39t-97 39t-39 94q0 53 39 91q40 39 97 39z" />
    <glyph glyph-name="omicrontonos" unicode="&#x3cc;" horiz-adv-x="1103" vert-adv-y="2457" 
d="M631 1009q178 0 284 -101q113 -107 113 -296q0 -133 -45 -266q-65 -189 -220 -291q-121 -81 -282 -81q-187 0 -293 101q-112 107 -112 302q0 138 51 275q64 174 205 271q125 86 299 86zM617 851q-153 0 -238 -182q-65 -138 -65 -306q0 -231 176 -231q151 0 235 183
q65 139 65 305q0 231 -173 231zM558 1147l204 277h278l-305 -277h-177z" />
    <glyph glyph-name="upsilontonos" unicode="&#x3cd;" horiz-adv-x="1110" vert-adv-y="2457" 
d="M236 983h226l-101 -572q-13 -73 -13 -122q0 -144 151 -144q109 0 160 76q38 56 58 173l104 589h226l-103 -579q-21 -119 -36 -169q-44 -144 -151 -206q-94 -55 -270 -55q-203 0 -292 80q-73 66 -73 195q0 88 30 256zM561 1137l164 331h261l-255 -331h-170z" />
    <glyph glyph-name="omegatonos" unicode="&#x3ce;" horiz-adv-x="1419" vert-adv-y="2457" 
d="M645 127q-35 -51 -71 -83q-79 -70 -198 -70q-169 0 -247 108q-59 82 -59 233q0 310 250 691l200 -50q-223 -363 -223 -655q0 -169 118 -169q85 0 132 96q26 52 51 190l46 265h198l-47 -265q-19 -108 -19 -159q0 -65 35 -98q31 -29 79 -29q118 0 173 154q42 120 42 298
t-62 353l207 69q82 -236 82 -435q0 -275 -106 -433q-110 -164 -326 -164q-135 0 -202 69q-30 31 -53 84zM708 1137l164 331h261l-255 -331h-170z" />
    <glyph glyph-name="afii10023" unicode="&#x401;" horiz-adv-x="1119" vert-adv-y="2457" 
d="M84 0l249 1413h882l-30 -168h-643l-75 -427h488l-28 -161h-489l-86 -489h653l-30 -168h-891zM600 1829q58 0 97 -39q39 -38 39 -92q0 -55 -39 -93q-39 -39 -96 -39q-59 0 -98 39q-39 38 -39 94q0 53 39 91q40 39 97 39zM1003 1829q57 0 97 -39q39 -38 39 -92t-39 -93
t-97 -39t-97 39q-39 38 -39 94q0 53 39 91q40 39 97 39z" />
    <glyph glyph-name="afii10051" unicode="&#x402;" horiz-adv-x="1492" vert-adv-y="2457" 
d="M242 0l220 1245h-293l29 168h978l-29 -168h-447l-78 -442q63 44 110 68q128 65 273 65q163 0 252 -75q102 -87 102 -248q0 -133 -56 -451q-69 -389 -154 -499q-110 -142 -340 -142q-129 0 -222 30l47 155q82 -40 161 -40q109 0 161 89q44 74 105 406q55 296 55 421
q0 189 -189 189q-180 0 -339 -163l-107 -608h-239z" />
    <glyph glyph-name="afii10052" unicode="&#x403;" horiz-adv-x="1024" vert-adv-y="2457" 
d="M84 0l249 1413h805l-29 -168h-567l-220 -1245h-238zM629 1558l205 277h278l-306 -277h-177z" />
    <glyph glyph-name="afii10053" unicode="&#x404;" horiz-adv-x="1106" vert-adv-y="2457" 
d="M999 212l-4 -189q-170 -49 -355 -49q-245 0 -372 110q-162 138 -162 407q0 245 90 479q94 244 260 363q148 106 365 106q196 0 378 -64l-76 -187q-57 33 -91 47q-95 39 -202 39q-138 0 -232 -87q-100 -91 -166 -277q-15 -41 -29 -94h594l-29 -166h-599q-15 -94 -15 -161
q0 -180 80 -268q74 -82 237 -82q150 0 328 73z" />
    <glyph glyph-name="afii10054" unicode="&#x405;" horiz-adv-x="1040" vert-adv-y="2457" 
d="M-25 56l69 191q173 -108 365 -108q152 0 233 66q77 64 77 180q0 78 -44 127q-30 33 -70 57q-32 18 -100 55q-150 81 -228 156q-99 96 -99 245q0 190 129 303q128 111 359 111q185 0 365 -62l-83 -185q-144 82 -273 82q-122 0 -189 -57q-70 -60 -70 -161q0 -77 56 -129
q41 -40 175 -113q157 -86 225 -158q85 -90 85 -238q0 -210 -140 -330q-134 -114 -405 -114q-257 0 -437 82z" />
    <glyph glyph-name="afii10055" unicode="&#x406;" horiz-adv-x="599" vert-adv-y="2457" 
d="M93 0l249 1413h239l-250 -1413h-238z" />
    <glyph glyph-name="afii10056" unicode="&#x407;" horiz-adv-x="599" vert-adv-y="2457" 
d="M93 0l249 1413h239l-250 -1413h-238zM300 1829q58 0 97 -39t39 -92q0 -54 -39 -93t-97 -39t-97 39q-39 38 -39 94q0 53 39 91q40 39 97 39zM703 1829q57 0 97 -39q39 -39 39 -92q0 -54 -39 -93t-97 -39t-97 39q-39 38 -39 94q0 53 39 91q40 39 97 39z" />
    <glyph glyph-name="afii10057" unicode="&#x408;" horiz-adv-x="623" vert-adv-y="2457" 
d="M367 1413h239l-208 -1176q-37 -208 -63 -299q-113 -388 -491 -388q-103 0 -208 22l51 171q80 -28 158 -28q153 0 221 149q46 102 92 363z" />
    <glyph glyph-name="afii10058" unicode="&#x409;" horiz-adv-x="1902" vert-adv-y="2457" 
d="M793 0l220 1245h-399l-17 -97q-30 -166 -94 -438q-108 -457 -213 -590q-58 -73 -133 -100q-54 -20 -146 -20h-103l44 168h51q60 0 94 31q71 66 140 322q85 315 145 658l42 234h857l-97 -546h179q262 0 369 -85q111 -89 111 -262q0 -152 -64 -283q-68 -139 -215 -193
q-120 -44 -308 -44h-463zM1060 163h157q100 0 130.5 3t69.5 17q90 33 133 125q45 99 45 210q0 107 -72 152q-56 36 -209 36h-158z" />
    <glyph glyph-name="afii10059" unicode="&#x40a;" horiz-adv-x="2001" vert-adv-y="2457" 
d="M892 0l119 674h-570l-119 -674h-238l249 1413h239l-101 -571h569l101 571h238l-96 -546h179q262 0 369 -85q111 -89 111 -261q0 -151 -64 -281q-69 -138 -215 -194q-121 -46 -308 -46h-463zM1159 163h157q199 0 273 68q56 50 83 144q22 73 22 145q0 105 -72 151
q-57 35 -210 35h-157z" />
    <glyph glyph-name="afii10060" unicode="&#x40b;" horiz-adv-x="1492" vert-adv-y="2457" 
d="M242 0l220 1245h-293l29 168h978l-29 -168h-447l-78 -442q62 44 110 69q129 66 278 66q181 0 271 -89q76 -76 76 -208q0 -83 -26 -232l-72 -409h-239l75 425q19 105 19 179q0 88 -45 129q-44 40 -140 40q-183 0 -341 -165l-107 -608h-239z" />
    <glyph glyph-name="afii10061" unicode="&#x40c;" horiz-adv-x="1260" vert-adv-y="2457" 
d="M84 0l249 1413h239l-106 -598h75q56 0 99 19q50 23 115 118q17 26 111 186q99 170 166 216q86 59 248 59h94l-45 -168h-54q-56 0 -88 -16.5t-69 -63.5q-33 -43 -112 -183q-57 -101 -108 -155q-33 -37 -83 -66q72 -30 113 -92q45 -69 105 -253l134 -416h-262l-105 341
q-37 128 -54 170q-37 91 -83 124q-39 28 -108 28h-116l-117 -663h-238zM727 1558l205 277h278l-306 -277h-177z" />
    <glyph glyph-name="uni040D" unicode="&#x40d;" horiz-adv-x="1343" vert-adv-y="2457" 
d="M84 0l249 1413h219l-131 -740q-21 -120 -54 -282l44 58l52 67q88 115 128 165l507 630l42 102h195l-249 -1413h-219l129 732q23 129 46 238l11 55q-57 -74 -80 -105q-61 -81 -105 -136l-547 -679l-41 -105h-196zM804 1557l-208 278h266l107 -278h-165z" />
    <glyph glyph-name="afii10062" unicode="&#x40e;" horiz-adv-x="1054" vert-adv-y="2457" 
d="M403 478l-310 935h244l164 -528q24 -78 50 -200q57 107 134 230l299 498h246l-903 -1413h-242zM380 1849h166q-1 -19 -1 -27q0 -56 26 -87q33 -38 121 -38q112 0 161 66q22 30 38 86h172q-21 -112 -73 -179q-99 -126 -313 -126q-168 0 -245 77q-58 57 -58 155q0 27 6 73z
" />
    <glyph glyph-name="afii10145" unicode="&#x40f;" horiz-adv-x="1351" vert-adv-y="2457" 
d="M84 0l249 1413h239l-220 -1245h533l219 1245h239l-249 -1413h-385l-92 -353h-180l33 353h-386z" />
    <glyph glyph-name="afii10017" unicode="&#x410;" horiz-adv-x="1278" vert-adv-y="2457" 
d="M890 382h-558l-206 -382h-246l791 1413h245l290 -1413h-245zM861 546l-69 387q-16 86 -39 258q-70 -148 -122 -246l-213 -399h443z" />
    <glyph glyph-name="afii10018" unicode="&#x411;" horiz-adv-x="1218" vert-adv-y="2457" 
d="M84 0l249 1413h840l-30 -168h-601l-67 -378h179q262 0 369 -85q111 -88 111 -261q0 -151 -64 -281q-69 -138 -215 -194q-121 -46 -308 -46h-463zM351 163h157q199 0 273 68q56 50 84 144q21 73 21 145q0 106 -72 151q-56 35 -209 35h-158z" />
    <glyph glyph-name="afii10019" unicode="&#x412;" horiz-adv-x="1241" vert-adv-y="2457" 
d="M84 0l249 1413h425q249 0 352 -70q110 -75 110 -231q0 -160 -105 -265q-67 -66 -183 -97q93 -30 137 -71q78 -74 78 -218q0 -139 -66 -250q-71 -118 -203 -167q-119 -44 -306 -44h-488zM468 825h161q119 0 178 14q88 21 133 105q35 65 35 146q0 101 -66 135
q-44 24 -166 24h-200zM351 164h183q196 0 270 64q95 83 95 249q0 123 -89 160q-63 27 -228 27h-143z" />
    <glyph glyph-name="afii10020" unicode="&#x413;" horiz-adv-x="1024" vert-adv-y="2457" 
d="M84 0l249 1413h805l-29 -168h-567l-220 -1245h-238z" />
    <glyph glyph-name="afii10021" unicode="&#x414;" horiz-adv-x="1312" vert-adv-y="2457" 
d="M938 0h-816l-96 -354h-188l92 522h135q78 110 154 352q89 284 156 661l41 232h855l-220 -1245h137l-92 -522h-187zM813 168l190 1077h-400l-18 -97q-39 -221 -101 -464q-74 -286 -189 -516h518z" />
    <glyph glyph-name="afii10022" unicode="&#x415;" horiz-adv-x="1119" vert-adv-y="2457" 
d="M84 0l249 1413h882l-30 -168h-643l-75 -427h488l-28 -161h-489l-86 -489h653l-30 -168h-891z" />
    <glyph glyph-name="afii10024" unicode="&#x416;" horiz-adv-x="1836" vert-adv-y="2457" 
d="M712 0l116 663h-55q-71 0 -118 -27q-58 -34 -127 -124q-31 -41 -113 -171l-226 -341h-272l280 416q147 219 230 285q53 42 134 69q-42 33 -65 83q-24 56 -56 200q-24 104 -55 150q-30 42 -112 42h-68l15 168h87q208 0 267 -97q26 -43 51 -136q6 -21 45 -179
q28 -114 71 -154q34 -32 105 -32h10l105 598h239l-106 -598h34q102 0 165 73q41 48 157 250q98 171 160 216q84 59 240 59h91l-45 -168h-48q-62 0 -97 -25q-38 -27 -90 -117q-14 -24 -68 -122q-59 -107 -109 -160q-33 -34 -96 -72q51 -22 94 -82q47 -67 107 -251l134 -416
h-255l-105 341q-36 128 -54 170q-37 92 -83 125q-39 27 -108 27h-51l-117 -663h-238z" />
    <glyph glyph-name="afii10025" unicode="&#x417;" horiz-adv-x="1196" vert-adv-y="2457" 
d="M304 659l29 166h198q121 0 189 24q90 33 138 111q40 66 40 143q0 85 -59 125q-66 46 -182 46q-157 0 -366 -86l-10 187q216 64 412 64q219 0 334 -88q109 -84 109 -231q0 -241 -270 -354q94 -32 137 -79q74 -81 74 -206q0 -113 -47 -217q-131 -291 -579 -291
q-250 0 -425 68l46 196q177 -99 376 -99q236 0 322 131q59 88 59 202q0 109 -78 153q-61 35 -217 35h-230z" />
    <glyph glyph-name="afii10026" unicode="&#x418;" horiz-adv-x="1343" vert-adv-y="2457" 
d="M84 0l249 1413h219l-131 -740q-21 -120 -54 -282l44 58l52 67q88 115 128 165l507 630l42 102h195l-249 -1413h-219l129 732q23 129 46 238l11 55q-57 -74 -80 -105q-61 -81 -105 -136l-547 -679l-41 -105h-196z" />
    <glyph glyph-name="afii10027" unicode="&#x419;" horiz-adv-x="1343" vert-adv-y="2457" 
d="M84 0l249 1413h219l-131 -740q-21 -120 -54 -282l44 58l52 67q88 115 128 165l507 630l42 102h195l-249 -1413h-219l129 732q23 129 46 238l11 55q-57 -74 -80 -105q-61 -81 -105 -136l-547 -679l-41 -105h-196zM553 1849h166q-1 -19 -1 -27q0 -56 26 -87q33 -38 121 -38
q112 0 161 66q22 30 38 86h172q-21 -112 -73 -179q-99 -126 -313 -126q-168 0 -245 77q-58 57 -58 155q0 27 6 73z" />
    <glyph glyph-name="afii10028" unicode="&#x41a;" horiz-adv-x="1260" vert-adv-y="2457" 
d="M84 0l249 1413h239l-106 -598h75q56 0 99 19q50 23 115 118q17 26 111 186q99 170 166 216q86 59 248 59h94l-45 -168h-54q-56 0 -88 -16.5t-69 -63.5q-33 -43 -112 -183q-57 -101 -108 -155q-33 -37 -83 -66q72 -30 113 -92q45 -69 105 -253l134 -416h-262l-105 341
q-37 128 -54 170q-37 91 -83 124q-39 28 -108 28h-116l-117 -663h-238z" />
    <glyph glyph-name="afii10029" unicode="&#x41b;" horiz-adv-x="1288" vert-adv-y="2457" 
d="M-92 0l44 168h51q60 0 94 31q71 66 140 321q84 307 145 659l42 234h856l-249 -1413h-238l219 1245h-398l-17 -98q-31 -171 -94 -439q-108 -454 -213 -588q-58 -73 -133 -100q-54 -20 -146 -20h-103z" />
    <glyph glyph-name="afii10030" unicode="&#x41c;" horiz-adv-x="1784" vert-adv-y="2457" 
d="M42 0l398 1413h288l100 -812q18 -142 24 -322q80 209 145 345l379 789h292l-100 -1413h-223l56 769q12 160 42 425q-38 -90 -89 -207q-66 -152 -89 -201l-376 -786h-175l-95 749q-12 94 -37 444q-44 -175 -77 -301l-29 -113l-217 -779h-217z" />
    <glyph glyph-name="afii10031" unicode="&#x41d;" horiz-adv-x="1385" vert-adv-y="2457" 
d="M84 0l249 1413h239l-105 -592h567l105 592h238l-249 -1413h-238l115 653h-567l-116 -653h-238z" />
    <glyph glyph-name="afii10032" unicode="&#x41e;" horiz-adv-x="1378" vert-adv-y="2457" 
d="M836 1439q155 0 276 -64q133 -69 190 -219q45 -118 45 -261q0 -177 -55 -364q-83 -280 -258 -422q-167 -135 -407 -135q-241 0 -373 122q-147 136 -147 416q0 193 62 388q171 539 667 539zM831 1274q-245 0 -371 -277q-45 -99 -75 -247q-30 -145 -30 -268q0 -164 74 -258
q66 -85 199 -85q239 0 366 277q46 99 76 249q29 144 29 263q0 145 -59 239q-67 107 -209 107z" />
    <glyph glyph-name="afii10033" unicode="&#x41f;" horiz-adv-x="1365" vert-adv-y="2457" 
d="M84 0l249 1413h1025l-250 -1413h-238l220 1245h-548l-220 -1245h-238z" />
    <glyph glyph-name="afii10034" unicode="&#x420;" horiz-adv-x="1167" vert-adv-y="2457" 
d="M84 0l249 1413h382q246 0 353 -78q61 -45 93 -120q34 -79 34 -171q0 -125 -55 -246q-117 -259 -496 -259h-226l-96 -539h-238zM446 703h151q127 0 193 30q80 37 121 128q39 88 39 184q0 122 -67 167q-54 37 -176 37h-164z" />
    <glyph glyph-name="afii10035" unicode="&#x421;" horiz-adv-x="1084" vert-adv-y="2457" 
d="M977 213l-5 -190q-165 -49 -346 -49q-520 0 -520 513q0 256 95 491q185 461 632 461q184 0 344 -64l-76 -187q-129 86 -259 86q-239 0 -375 -277q-53 -108 -84 -258q-29 -135 -29 -251q0 -173 73 -264q69 -85 226 -85q155 0 324 74z" />
    <glyph glyph-name="afii10036" unicode="&#x422;" horiz-adv-x="1146" vert-adv-y="2457" 
d="M367 0l220 1245h-396l29 168h1018l-29 -168h-384l-220 -1245h-238z" />
    <glyph glyph-name="afii10037" unicode="&#x423;" horiz-adv-x="1054" vert-adv-y="2457" 
d="M403 478l-310 935h244l164 -528q24 -78 50 -200q57 107 134 230l299 498h246l-903 -1413h-242z" />
    <glyph glyph-name="afii10038" unicode="&#x424;" horiz-adv-x="1659" vert-adv-y="2457" 
d="M614 -57l33 186q-210 24 -327 104q-198 135 -198 399q0 197 106 354q184 271 624 306l31 178h225l-33 -183q215 -24 334 -101q203 -133 203 -400q0 -197 -109 -354q-187 -271 -633 -308l-32 -181h-224zM674 285l150 852q-96 -16 -152 -34q-150 -50 -233 -198
q-72 -126 -72 -279q0 -203 138 -286q55 -33 169 -55zM898 281q81 13 133 27q181 50 271 218q65 121 65 265q0 204 -145 288q-52 30 -174 54z" />
    <glyph glyph-name="afii10039" unicode="&#x425;" horiz-adv-x="1175" vert-adv-y="2457" 
d="M489 754l-158 383q-33 83 -121 276h266l129 -326q35 -89 63 -170q77 111 122 169l251 327h259q-156 -187 -204 -249l-339 -429l171 -421q25 -62 135 -314h-265l-152 385q-17 41 -54 142l-14 40l-26 -36q-63 -85 -97 -129l-311 -402h-264q192 230 224 270z" />
    <glyph glyph-name="afii10040" unicode="&#x426;" horiz-adv-x="1377" vert-adv-y="2457" 
d="M84 0l249 1413h239l-220 -1245h533l220 1245h238l-219 -1245h136l-91 -521h-188l29 353h-926z" />
    <glyph glyph-name="afii10041" unicode="&#x427;" horiz-adv-x="1280" vert-adv-y="2457" 
d="M785 0l93 529q-60 -45 -102 -67q-111 -59 -250 -59q-170 0 -257 77q-82 73 -82 206q0 82 26 231l88 496h238l-95 -538q-15 -86 -15 -152q0 -151 172 -151q175 0 312 156l121 685h239l-250 -1413h-238z" />
    <glyph glyph-name="afii10042" unicode="&#x428;" horiz-adv-x="1942" vert-adv-y="2457" 
d="M84 0l249 1413h239l-220 -1245h442l220 1245h239l-220 -1245h443l220 1245h238l-249 -1413h-1601z" />
    <glyph glyph-name="afii10043" unicode="&#x429;" horiz-adv-x="1970" vert-adv-y="2457" 
d="M84 0l249 1413h239l-220 -1245h442l220 1245h239l-220 -1245h443l220 1245h238l-220 -1245h138l-92 -521h-190l31 353h-1517z" />
    <glyph glyph-name="afii10044" unicode="&#x42a;" horiz-adv-x="1378" vert-adv-y="2457" 
d="M269 0l220 1245h-363l29 168h602l-97 -546h179q262 0 369 -85q111 -88 111 -261q0 -151 -64 -281q-69 -138 -215 -194q-121 -46 -308 -46h-463zM536 163h157q199 0 273 68q56 50 84 144q21 73 21 145q0 106 -72 151q-56 35 -209 35h-158z" />
    <glyph glyph-name="afii10045" unicode="&#x42b;" horiz-adv-x="1721" vert-adv-y="2457" 
d="M84 0l249 1413h239l-97 -546h179q262 0 369 -85q111 -88 111 -261q0 -151 -64 -281q-69 -138 -215 -194q-121 -46 -308 -46h-463zM351 163h157q199 0 273 68q56 50 84 144q21 73 21 145q0 106 -72 151q-56 35 -209 35h-158zM1216 0l249 1413h238l-249 -1413h-238z" />
    <glyph glyph-name="afii10046" unicode="&#x42c;" horiz-adv-x="1193" vert-adv-y="2457" 
d="M84 0l249 1413h239l-97 -546h179q262 0 369 -85q111 -88 111 -261q0 -151 -64 -281q-69 -138 -215 -194q-121 -46 -308 -46h-463zM351 163h157q199 0 273 68q56 50 84 144q21 73 21 145q0 106 -72 151q-56 35 -209 35h-158z" />
    <glyph glyph-name="afii10047" unicode="&#x42d;" horiz-adv-x="1106" vert-adv-y="2457" 
d="M-35 23l46 197q155 -81 318 -81q167 0 271 97q135 127 193 414h-599l29 166h594q2 68 2 93q0 365 -284 365q-139 0 -306 -86l-11 187q167 64 338 64q238 0 359 -115q86 -83 125 -225q29 -108 29 -223q0 -166 -51 -350q-81 -295 -268 -435q-156 -117 -405 -117
q-209 0 -380 49z" />
    <glyph glyph-name="afii10048" unicode="&#x42e;" horiz-adv-x="1975" vert-adv-y="2457" 
d="M84 0l249 1413h239l-105 -592h321q156 618 655 618q248 0 375 -143q125 -140 125 -402q0 -176 -53 -363q-79 -280 -248 -422q-160 -135 -391 -135t-358 122q-143 136 -143 406q0 62 10 151h-322l-116 -653h-238zM1448 1274q-230 0 -350 -278q-43 -100 -71 -246
q-28 -144 -28 -266q0 -166 67 -260q61 -85 185 -85q223 0 344 277q43 99 72 249q27 143 27 267q0 141 -54 235q-61 107 -192 107z" />
    <glyph glyph-name="afii10049" unicode="&#x42f;" horiz-adv-x="1232" vert-adv-y="2457" 
d="M840 587h-163q-40 0 -62.5 -9.5t-46.5 -35.5q-35 -39 -126 -183l-225 -359h-271l273 411q66 98 112 147q36 38 97 78q-104 43 -147 90q-79 87 -79 228q0 134 63 243q77 134 227 180q116 36 298 36h434l-249 -1413h-238zM867 741l90 509h-185q-124 0 -190 -36
q-69 -38 -103 -124q-31 -77 -31 -160q0 -113 73 -156q57 -33 161 -33h185z" />
    <glyph glyph-name="afii10065" unicode="&#x430;" horiz-adv-x="1098" vert-adv-y="2457" 
d="M674 121q-53 -63 -100 -93q-83 -54 -187 -54q-145 0 -230 82q-93 90 -93 273q0 172 66 333q73 177 202 265q122 82 308 82q187 0 398 -61q-44 -161 -81 -370l-54 -301q-28 -161 -31 -277h-203q1 54 5 121zM773 812q-64 39 -147 39q-166 0 -253 -193q-32 -72 -53 -174
q-18 -90 -18 -163q0 -189 140 -189q111 0 192 113q50 69 72 190z" />
    <glyph glyph-name="afii10066" unicode="&#x431;" horiz-adv-x="1093" vert-adv-y="2457" 
d="M406 901q51 43 83 61q80 47 185 47q155 0 245 -90q98 -98 98 -294q0 -145 -43 -279q-62 -192 -199 -289q-119 -83 -286 -83q-199 0 -302 105q-91 92 -91 258q0 235 105 618q57 208 130 313q97 139 249 183q115 34 287 34l146 -1h43l-42 -163q-24 0 -36 1q-103 3 -114 3
q-172 0 -250 -40q-100 -52 -160 -217q-23 -60 -48 -167zM616 851q-85 0 -157 -68q-74 -69 -102 -194q-31 -134 -31 -237q0 -220 169 -220q142 0 220 181q64 147 64 314q0 104 -36 159q-43 65 -127 65z" />
    <glyph glyph-name="afii10067" unicode="&#x432;" horiz-adv-x="1108" vert-adv-y="2457" 
d="M826 515q68 -19 104 -43q80 -53 80 -172q0 -155 -119 -245q-106 -81 -362 -81q-181 0 -274 53q-181 102 -181 352q0 135 45 267q123 363 516 363q418 0 418 -253q0 -117 -85 -180q-46 -35 -142 -61zM338 584h234q143 0 189 29q65 42 65 126q0 120 -176 120
q-125 0 -197 -64q-70 -63 -115 -211zM311 441q-7 -52 -7 -91q0 -113 43 -167q45 -59 172 -59q156 0 210 55q47 48 47 129q0 84 -61 112q-45 21 -183 21h-221z" />
    <glyph glyph-name="afii10068" unicode="&#x433;" horiz-adv-x="929" vert-adv-y="2457" 
d="M734 199l21 -172q-150 -53 -363 -53q-188 0 -270 64q-79 62 -79 181q0 149 115 243q64 52 240 115q163 58 203 86q58 40 58 93q0 95 -150 95q-139 0 -278 -65l-21 173q146 50 334 50q333 0 333 -232q0 -132 -105 -223q-70 -60 -254 -125q-162 -57 -201 -85
q-56 -42 -56 -105q0 -56 36 -79q43 -28 144 -28q152 0 293 67z" />
    <glyph glyph-name="afii10069" unicode="&#x434;" horiz-adv-x="1085" vert-adv-y="2457" 
d="M833 879q14 123 14 187q0 137 -76 186q-72 47 -242 61q-59 5 -155 8l33 163q260 -2 400 -46q157 -49 211 -164q39 -81 39 -214q0 -202 -56 -508q-55 -292 -161 -419q-135 -161 -371 -161q-197 0 -303 111q-96 102 -96 276q0 143 49 291q63 189 192 281q109 78 252 78
q184 0 270 -130zM603 851q-151 0 -234 -193q-61 -142 -61 -292q0 -236 170 -236q147 0 228 189q61 145 61 304q0 228 -164 228z" />
    <glyph glyph-name="afii10070" unicode="&#x435;" horiz-adv-x="1028" vert-adv-y="2457" 
d="M304 394q-2 -47 -2 -64q0 -202 258 -202q154 0 292 65v-169q-143 -50 -336 -50q-443 0 -443 385q0 147 51 287q134 363 507 363q177 0 273 -77q84 -68 84 -198q0 -168 -146 -243q-101 -52 -326 -80q-123 -14 -212 -17zM326 543q196 10 307 41q92 25 119 71q19 32 19 78
q0 125 -146 125q-154 0 -236 -141q-38 -64 -63 -174z" />
    <glyph glyph-name="afii10072" unicode="&#x436;" horiz-adv-x="1852" vert-adv-y="2457" 
d="M722 0l79 450h-138q-33 -162 -105 -280q-119 -196 -339 -196q-154 0 -269 34l47 172q81 -48 168 -48q123 0 200 135q44 77 70 182q28 115 28 204q0 198 -127 198q-91 0 -167 -66l-61 168q112 56 247 56q209 0 278 -153q47 -107 47 -239q0 -15 -2 -44h145l72 410h216
l-72 -410h148q31 150 95 252q66 104 155 148q74 36 175 36q151 0 256 -56l-78 -171q-71 69 -164 69q-119 0 -187 -167q-56 -136 -56 -302q0 -250 159 -250q89 0 203 52l-5 -174q-121 -36 -242 -36q-119 0 -187 48q-89 62 -124 211q-17 73 -17 159q0 26 2 58h-155l-79 -450
h-216z" />
    <glyph glyph-name="afii10073" unicode="&#x437;" horiz-adv-x="924" vert-adv-y="2457" 
d="M-23 11l60 171q129 -58 272 -58q160 0 216 68q40 49 40 129q0 60 -40 88q-32 23 -118 23h-220l26 151h198q105 0 151 38q57 48 57 122q0 112 -172 112q-131 0 -261 -62l-17 163q162 53 319 53q158 0 254 -58q103 -63 103 -189q0 -153 -169 -235q11 -8 17 -12
q51 -35 69 -68q33 -58 33 -137q0 -160 -122 -253q-109 -83 -352 -83q-194 0 -344 37z" />
    <glyph glyph-name="afii10074" unicode="&#x438;" horiz-adv-x="1115" vert-adv-y="2457" 
d="M235 983h226l-101 -573q-17 -94 -17 -146q0 -119 110 -119q129 0 243 144l123 694h225l-125 -711q-26 -148 -30 -272h-210v48q0 21 1 68q-140 -142 -301 -142q-126 0 -198 64q-68 60 -68 176q0 75 26 220z" />
    <glyph glyph-name="afii10075" unicode="&#x439;" horiz-adv-x="1115" vert-adv-y="2457" 
d="M235 983h226l-101 -573q-17 -94 -17 -146q0 -119 110 -119q129 0 243 144l123 694h225l-125 -711q-26 -148 -30 -272h-210v48q0 21 1 68q-140 -142 -301 -142q-126 0 -198 64q-68 60 -68 176q0 75 26 220zM358 1438h166q-1 -19 -1 -27q0 -57 26 -87q33 -38 121 -38
q112 0 161 66q22 31 38 86h172q-21 -112 -73 -179q-99 -126 -313 -126q-168 0 -245 77q-58 57 -58 155q0 26 6 73z" />
    <glyph glyph-name="afii10076" unicode="&#x43a;" horiz-adv-x="1049" vert-adv-y="2457" 
d="M71 0l173 983h226l-71 -403h70q62 0 96 38q22 24 99 148q78 125 139 166q76 51 218 51h79l-42 -161h-48q-75 0 -116 -43q-22 -23 -75 -106q-62 -94 -118 -134q56 -31 82 -65q42 -56 90 -196l96 -278h-239l-60 202q-39 128 -75 183q-39 57 -115 57h-105l-78 -442h-226z
" />
    <glyph glyph-name="afii10077" unicode="&#x43b;" horiz-adv-x="1109" vert-adv-y="2457" 
d="M-66 0l38 160h40q71 0 113 49q94 106 185 624l27 150h701l-174 -983h-225l145 822h-271l-11 -63q-69 -396 -165 -579q-52 -100 -136 -144q-69 -36 -180 -36h-87z" />
    <glyph glyph-name="afii10078" unicode="&#x43c;" horiz-adv-x="1429" vert-adv-y="2457" 
d="M27 0l278 983h282l62 -510q11 -90 20 -242q64 157 108 248l241 504h286l-69 -983h-221l51 573q6 76 23 223l-20 -46q-54 -120 -85 -186l-272 -564h-165l-73 567q-10 79 -23 228q-43 -173 -56 -224l-151 -571h-216z" />
    <glyph glyph-name="afii10079" unicode="&#x43d;" horiz-adv-x="1148" vert-adv-y="2457" 
d="M70 0l173 983h226l-68 -387h382l69 387h225l-173 -983h-226l77 432h-383l-76 -432h-226z" />
    <glyph glyph-name="afii10080" unicode="&#x43e;" horiz-adv-x="1103" vert-adv-y="2457" 
d="M631 1009q178 0 284 -101q113 -107 113 -296q0 -133 -45 -266q-65 -189 -220 -291q-121 -81 -282 -81q-187 0 -293 101q-112 107 -112 302q0 138 51 275q64 174 205 271q125 86 299 86zM617 851q-153 0 -238 -182q-65 -138 -65 -306q0 -231 176 -231q151 0 235 183
q65 139 65 305q0 231 -173 231z" />
    <glyph glyph-name="afii10081" unicode="&#x43f;" horiz-adv-x="1148" vert-adv-y="2457" 
d="M70 0l110 623q34 195 53 360h205l-12 -148q167 174 351 174q123 0 192 -58q66 -56 66 -158q0 -67 -20 -184l-108 -609h-225l105 595q15 87 15 136q0 104 -105 104q-111 0 -230 -125q-42 -45 -57 -85q-9 -25 -15 -62l-99 -563h-226z" />
    <glyph glyph-name="afii10082" unicode="&#x440;" horiz-adv-x="1111" vert-adv-y="2457" 
d="M298 11l-83 -470h-225l191 1082q32 185 53 360h204l-5 -102q125 128 288 128t245 -108q73 -97 73 -271q0 -142 -46 -281q-124 -376 -484 -376q-104 0 -211 38zM329 188q73 -57 158 -57q162 0 248 189q66 145 66 311q0 220 -147 220q-106 0 -189 -112q-50 -69 -70 -181z
" />
    <glyph glyph-name="afii10083" unicode="&#x441;" horiz-adv-x="843" vert-adv-y="2457" 
d="M727 183l-5 -174q-102 -35 -240 -35q-193 0 -295 87q-114 97 -114 290q0 143 49 287q71 208 225 304q108 67 259 67q165 0 270 -56l-78 -170q-68 68 -172 68q-153 0 -242 -173q-73 -142 -73 -320q0 -226 209 -226q98 0 207 51z" />
    <glyph glyph-name="afii10084" unicode="&#x442;" horiz-adv-x="1701" vert-adv-y="2457" 
d="M70 0l110 623q34 195 53 360h205l-12 -148q162 174 335 174q211 0 235 -189q167 189 348 189q118 0 183 -58q62 -56 62 -152q0 -68 -24 -204l-105 -595h-225l106 603q15 84 15 132q0 101 -91 101q-104 0 -218 -126q-41 -45 -55 -85q-8 -24 -14 -59l-100 -566h-226
l107 603q15 86 15 133q0 100 -89 100q-106 0 -221 -126q-40 -44 -54 -85q-8 -22 -15 -62l-99 -563h-226z" />
    <glyph glyph-name="afii10085" unicode="&#x443;" horiz-adv-x="961" vert-adv-y="2457" 
d="M295 0l-196 983h234l72 -458q16 -102 37 -248l12 -88l39 88l35 80q46 104 72 161l210 465h224l-456 -938q-141 -290 -206 -369q-129 -156 -338 -156q-72 0 -152 12l48 161q51 -19 108 -19q106 0 189 101q62 76 106 159l34 66h-72z" />
    <glyph glyph-name="afii10086" unicode="&#x444;" horiz-adv-x="1545" vert-adv-y="2457" 
d="M503 -459l94 536q-96 -104 -225 -104q-156 0 -234 114q-67 97 -67 262q0 134 42 277q113 384 413 384q144 0 217 -109l99 563h199l-97 -560q100 106 229 106q100 0 176 -51q125 -86 125 -323q0 -135 -42 -277q-58 -198 -164 -291q-108 -95 -251 -95q-141 0 -214 117
l-96 -549h-204zM659 429l24 134q13 73 13 104q0 69 -31 121q-37 64 -105 64q-120 0 -192 -173q-29 -70 -48 -171q-19 -96 -19 -176q0 -74 24 -128q34 -73 104 -73q94 0 167 114q43 69 63 184zM882 535l-19 -106q-13 -73 -13 -111q0 -64 30 -119q37 -68 104 -68
q121 0 193 173q28 67 47 160q20 98 20 178q0 210 -128 210q-93 0 -167 -119q-45 -71 -67 -198z" />
    <glyph glyph-name="afii10087" unicode="&#x445;" horiz-adv-x="1008" vert-adv-y="2457" 
d="M383 514l-250 469h247l93 -179q32 -60 70 -141q63 76 127 148l151 172h237l-422 -469l273 -514h-247l-107 208q-5 9 -23 42q-14 28 -57 117q-14 -18 -21 -26q-47 -59 -107 -127l-189 -214h-238z" />
    <glyph glyph-name="afii10088" unicode="&#x446;" horiz-adv-x="1115" vert-adv-y="2457" 
d="M235 983h226l-101 -573q-17 -94 -17 -144q0 -121 110 -121q129 0 243 144l123 694h225l-125 -711q-26 -148 -30 -272q-61 -20 -61 -41q0 -16 50 -54q56 -42 56 -93q0 -65 -51 -109t-142 -59q-44 -7 -118 -11l-18 112q75 7 98 17q40 17 40 61q0 25 -22 51q-29 35 -29 60
q0 35 54 66h-67v48q0 21 1 68q-140 -142 -301 -142q-126 0 -198 64q-68 60 -68 176q0 75 26 220z" />
    <glyph glyph-name="afii10089" unicode="&#x447;" horiz-adv-x="1092" vert-adv-y="2457" 
d="M623 0l67 379q-121 -72 -259 -72q-295 0 -295 250q0 78 26 223l36 203h225l-52 -294q-9 -53 -9 -100q0 -124 139 -124q115 0 219 89l76 429h226l-174 -983h-225z" />
    <glyph glyph-name="afii10090" unicode="&#x448;" horiz-adv-x="1596" vert-adv-y="2457" 
d="M235 983h226l-101 -573q-17 -94 -17 -144q0 -121 101 -121q107 0 199 126l125 712h225l-101 -573q-17 -97 -17 -144q0 -121 101 -121q110 0 198 125l126 713h225l-125 -711q-26 -148 -30 -272h-209q-1 31 -1 47q0 17 1 53q-116 -126 -263 -126q-186 0 -238 148
q-56 -55 -87 -79q-89 -69 -206 -69q-118 0 -188 64q-66 60 -66 176q0 75 26 220z" />
    <glyph glyph-name="afii10091" unicode="&#x449;" horiz-adv-x="1596" vert-adv-y="2457" 
d="M235 983h226l-101 -573q-17 -94 -17 -144q0 -121 101 -121q107 0 199 126l125 712h225l-101 -573q-17 -97 -17 -144q0 -121 101 -121q110 0 198 125l126 713h225l-125 -711q-26 -148 -30 -272q-61 -23 -61 -41q0 -16 50 -54q56 -42 56 -93q0 -65 -51 -109
q-50 -44 -142 -59q-44 -7 -117 -11l-19 112q76 7 99 17q39 18 39 61q0 25 -22 51q-29 35 -29 60q0 35 54 66h-66q-1 31 -1 47q0 17 1 53q-116 -126 -264 -126q-185 0 -237 148q-56 -55 -87 -79q-89 -69 -206 -69q-118 0 -188 64q-66 60 -66 176q0 75 26 220z" />
    <glyph glyph-name="afii10092" unicode="&#x44a;" horiz-adv-x="1188" vert-adv-y="2457" 
d="M518 559q64 58 110 82q71 37 162 37q149 0 227 -81q72 -74 72 -207q0 -172 -112 -288q-126 -130 -402 -130q-208 0 -390 44q29 99 59 267l94 536h-293l41 164h507zM445 145q65 -29 138 -29q152 0 224 102q52 72 52 172q0 141 -124 141q-93 0 -183 -113q-75 -94 -94 -200z
" />
    <glyph glyph-name="afii10093" unicode="&#x44b;" horiz-adv-x="1523" vert-adv-y="2457" 
d="M395 559q64 58 110 82q71 37 162 37q149 0 227 -81q72 -74 72 -207q0 -172 -112 -288q-126 -130 -402 -130q-208 0 -390 44q29 103 58 267l124 700h225zM322 145q63 -29 138 -29q152 0 224 102q52 73 52 172q0 142 -124 142q-94 0 -184 -113q-75 -95 -93 -201zM1051 0
l173 983h226l-174 -983h-225z" />
    <glyph glyph-name="afii10094" unicode="&#x44c;" horiz-adv-x="1065" vert-adv-y="2457" 
d="M395 559q64 58 110 82q71 37 162 37q149 0 227 -81q72 -74 72 -207q0 -172 -112 -288q-126 -130 -402 -130q-208 0 -390 44q29 103 58 267l124 700h225zM322 145q63 -29 137 -29q153 0 225 102q52 73 52 172q0 142 -124 142q-94 0 -184 -113q-75 -95 -93 -201z" />
    <glyph glyph-name="afii10095" unicode="&#x44d;" horiz-adv-x="908" vert-adv-y="2457" 
d="M-41 11l60 171q130 -58 256 -58q172 0 261 160q20 36 53 148h-415l26 151h412q2 31 2 48q0 224 -205 224q-132 0 -248 -62l-18 163q143 53 295 53q188 0 288 -90q118 -104 118 -316q0 -143 -44 -277q-60 -185 -203 -279q-110 -73 -291 -73q-191 0 -347 37z" />
    <glyph glyph-name="afii10096" unicode="&#x44e;" horiz-adv-x="1562" vert-adv-y="2457" 
d="M70 0l173 983h226l-69 -388h202q38 139 108 230q142 184 383 184q178 0 282 -101q111 -107 111 -295q0 -132 -44 -266q-62 -188 -212 -292q-117 -81 -272 -81q-236 0 -332 168q-54 93 -54 246q0 18 2 46h-202l-76 -434h-226zM1092 851q-143 0 -223 -181
q-61 -138 -61 -306q0 -232 160 -232q140 0 219 183q61 139 61 305q0 231 -156 231z" />
    <glyph glyph-name="afii10097" unicode="&#x44f;" horiz-adv-x="1099" vert-adv-y="2457" 
d="M697 378h-133q-52 0 -89 -33q-29 -27 -109 -139l-148 -206h-241l156 215q91 125 180 187q-180 55 -180 256q0 155 100 242q64 55 171 73q63 10 143 10h482l-173 -983h-226zM723 524l55 314h-179q-128 0 -175 -42q-53 -48 -53 -138q0 -74 42 -106q36 -28 112 -28h198z" />
    <glyph glyph-name="afii10071" unicode="&#x451;" horiz-adv-x="1028" vert-adv-y="2457" 
d="M304 394q-2 -47 -2 -64q0 -202 258 -202q154 0 292 65v-169q-143 -50 -336 -50q-443 0 -443 385q0 147 51 287q134 363 507 363q177 0 273 -77q84 -68 84 -198q0 -168 -146 -243q-101 -52 -326 -80q-123 -14 -212 -17zM326 543q196 10 307 41q92 25 119 71q19 32 19 78
q0 125 -146 125q-154 0 -236 -141q-38 -64 -63 -174zM479 1413q58 0 97 -39q39 -38 39 -92t-39 -93t-96 -39q-59 0 -98 39t-39 94q0 53 39 91q40 39 97 39zM858 1413q58 0 97 -39q39 -38 39 -92t-39 -93t-97 -39t-97 39t-39 94q0 53 39 91q40 39 97 39z" />
    <glyph glyph-name="afii10099" unicode="&#x452;" horiz-adv-x="1161" vert-adv-y="2457" 
d="M70 0l199 1126h-138l23 140h137q12 87 23 180l245 49l-40 -229h261l-23 -140h-262l-69 -383q87 118 144 168q111 98 242 98q116 0 178 -59q63 -60 63 -174q0 -149 -80 -558q-58 -295 -84 -380q-57 -182 -161 -252q-96 -65 -253 -65q-126 0 -218 30l50 164q76 -49 156 -49
q135 0 186 138q39 104 107 472q68 364 68 469q0 51 -24 79q-25 29 -68 29q-70 0 -147 -81q-188 -195 -234 -458l-55 -314h-226z" />
    <glyph glyph-name="afii10100" unicode="&#x453;" horiz-adv-x="930" vert-adv-y="2457" 
d="M734 199l21 -172q-150 -53 -363 -53q-188 0 -270 64q-79 62 -79 181q0 149 115 243q64 52 240 115q163 58 203 86q58 40 58 93q0 95 -150 95q-139 0 -278 -65l-21 173q146 50 334 50q333 0 333 -232q0 -132 -105 -223q-70 -60 -254 -125q-162 -57 -201 -85
q-56 -42 -56 -105q0 -56 36 -79q43 -28 144 -28q152 0 293 67zM482 1147l205 277h278l-306 -277h-177z" />
    <glyph glyph-name="afii10101" unicode="&#x454;" horiz-adv-x="902" vert-adv-y="2457" 
d="M753 593l-26 -152h-409q-5 -65 -5 -94q0 -101 54 -163q53 -60 161 -60q117 0 262 59l-5 -174q-130 -35 -290 -35q-204 0 -310 92q-112 98 -112 287q0 145 49 286q128 370 498 370q168 0 308 -53l-78 -172q-91 71 -211 71q-202 0 -293 -262h407z" />
    <glyph glyph-name="afii10102" unicode="&#x455;" horiz-adv-x="846" vert-adv-y="2457" 
d="M-13 27l63 173q131 -68 267 -68q108 0 159 43q45 38 45 99q0 46 -36 80q-29 28 -135 86q-115 63 -164 114q-61 63 -61 159q0 135 101 219q94 77 273 77q153 0 291 -54l-78 -169q-89 65 -203 65q-76 0 -120 -32q-43 -31 -43 -83q0 -47 48 -85q35 -28 126 -79
q118 -68 163 -114q59 -61 59 -154q0 -148 -103 -241q-98 -89 -305 -89q-191 0 -347 53z" />
    <glyph glyph-name="afii10103" unicode="&#x456;" horiz-adv-x="546" vert-adv-y="2457" 
d="M74 0l173 983h226l-174 -983h-225zM409 1423q59 0 99 -42q41 -42 41 -100t-41 -100q-40 -42 -100 -42q-61 0 -101 42q-41 42 -41 100q0 59 41 100q41 42 102 42z" />
    <glyph glyph-name="afii10104" unicode="&#x457;" horiz-adv-x="545" vert-adv-y="2457" 
d="M61 0l173 983h226l-173 -983h-226zM200 1413q58 0 97 -39q39 -38 39 -92t-39 -93t-96 -39q-59 0 -98 39t-39 94q0 53 39 91q40 39 97 39zM579 1413q58 0 97 -39q39 -38 39 -92t-39 -93t-97 -39t-97 39t-39 94q0 53 39 91q40 39 97 39z" />
    <glyph glyph-name="afii10105" unicode="&#x458;" horiz-adv-x="547" vert-adv-y="2457" 
d="M248 983h225l-155 -875q-34 -192 -61 -276q-103 -313 -423 -313q-71 0 -169 15l49 159q67 -20 128 -20q114 0 167 110q42 88 80 301zM410 1423q59 0 100 -42q40 -41 40 -100q0 -58 -40 -100q-41 -42 -101 -42t-101 42t-41 100q0 59 41 100q42 42 102 42z" />
    <glyph glyph-name="afii10106" unicode="&#x459;" horiz-adv-x="1633" vert-adv-y="2457" 
d="M963 558q64 58 110 82q71 37 162 37q149 0 227 -80q72 -75 72 -207q0 -172 -112 -288q-126 -130 -402 -130q-209 0 -389 44q29 102 58 267l95 539h-271l-11 -63q-69 -396 -165 -579q-52 -100 -136 -144q-69 -36 -180 -36h-87l38 160h40q71 0 113 49q94 106 185 624
l27 150h701zM890 145q65 -29 137 -29q153 0 225 102q52 72 52 171q0 142 -124 142q-94 0 -183 -113q-75 -94 -94 -200z" />
    <glyph glyph-name="afii10107" unicode="&#x45a;" horiz-adv-x="1649" vert-adv-y="2457" 
d="M978 560q64 58 110 82q72 37 162 37q149 0 227 -80q72 -75 72 -208q0 -173 -112 -288q-126 -131 -402 -131q-208 0 -389 44q28 102 58 268l31 173h-359l-80 -457h-226l173 983h226l-65 -365h359l64 365h226zM905 145q66 -28 137 -28q154 0 225 102q52 73 52 171
q0 142 -124 142q-94 0 -183 -113q-75 -95 -94 -201z" />
    <glyph glyph-name="afii10108" unicode="&#x45b;" horiz-adv-x="1151" vert-adv-y="2457" 
d="M70 0l199 1126h-138l23 140h137q12 88 23 180l245 49l-40 -229h261l-23 -140h-263l-48 -271q59 56 118 91q103 63 218 63q131 0 198 -64q59 -56 59 -151q0 -65 -21 -185l-108 -609h-225l107 603q14 82 14 125q0 108 -105 108q-113 0 -234 -125q-44 -46 -58 -87
q-7 -20 -15 -65l-99 -559h-225z" />
    <glyph glyph-name="afii10109" unicode="&#x45c;" horiz-adv-x="1049" vert-adv-y="2457" 
d="M71 0l173 983h226l-71 -403h70q62 0 96 38q22 24 99 148q78 125 139 166q76 51 218 51h79l-42 -161h-48q-75 0 -116 -43q-22 -23 -75 -106q-62 -94 -118 -134q56 -31 82 -65q42 -56 90 -196l96 -278h-239l-60 202q-39 128 -75 183q-39 57 -115 57h-105l-78 -442h-226z
M570 1147l205 277h278l-306 -277h-177z" />
    <glyph glyph-name="uni045D" unicode="&#x45d;" horiz-adv-x="1115" vert-adv-y="2457" 
d="M235 983h226l-101 -573q-17 -94 -17 -146q0 -119 110 -119q129 0 243 144l123 694h225l-125 -711q-26 -148 -30 -272h-210v48q0 21 1 68q-140 -142 -301 -142q-126 0 -198 64q-68 60 -68 176q0 75 26 220zM620 1146l-208 278h266l107 -278h-165z" />
    <glyph glyph-name="afii10110" unicode="&#x45e;" horiz-adv-x="961" vert-adv-y="2457" 
d="M295 0l-196 983h234l72 -458q16 -102 37 -248l12 -88l39 88l35 80q46 104 72 161l210 465h224l-456 -938q-141 -290 -206 -369q-129 -156 -338 -156q-72 0 -152 12l48 161q51 -19 108 -19q106 0 189 101q62 76 106 159l34 66h-72zM269 1438h166q-1 -19 -1 -27
q0 -57 26 -87q33 -38 121 -38q112 0 161 66q22 31 38 86h172q-21 -112 -73 -179q-99 -126 -313 -126q-168 0 -245 77q-58 57 -58 155q0 26 6 73z" />
    <glyph glyph-name="afii10193" unicode="&#x45f;" horiz-adv-x="1115" vert-adv-y="2457" 
d="M235 983h226l-101 -573q-17 -94 -17 -145q0 -121 110 -121q129 0 243 145l123 694h225l-125 -711q-26 -148 -30 -272h-210v48q0 21 1 68q-97 -99 -203 -130q-17 -13 -17 -27q0 -16 50 -54q57 -42 57 -94q0 -64 -51 -109q-51 -43 -143 -58q-43 -7 -117 -11l-18 112
q75 7 98 17q40 17 40 60q0 26 -22 52q-30 35 -30 62q0 19 17 40q-228 24 -228 238q0 75 26 220z" />
    <glyph glyph-name="uni0462" unicode="&#x462;" horiz-adv-x="1372" vert-adv-y="2457" 
d="M254 0l220 1245h-305l29 168h1030l-30 -168h-486l-67 -378h179q263 0 369 -85q112 -89 112 -261q0 -151 -64 -281q-69 -138 -216 -194q-121 -46 -308 -46h-463zM521 163h157q199 0 274 68q56 50 84 144q21 73 21 145q0 106 -72 151q-57 35 -210 35h-158z" />
    <glyph glyph-name="uni0463" unicode="&#x463;" horiz-adv-x="1111" vert-adv-y="2457" 
d="M456 905q115 104 259 104q157 0 240 -94q85 -95 85 -270q0 -131 -41 -270q-119 -401 -517 -401q-212 0 -415 87q37 131 82 383l121 686h-139l24 136h137q12 88 23 180l245 49l-41 -229h262l-23 -136h-262zM326 173q74 -41 158 -41q168 0 255 195q63 143 63 307
q0 217 -144 217q-111 0 -193 -112q-51 -69 -72 -191z" />
    <glyph glyph-name="afii10050" unicode="&#x490;" horiz-adv-x="1050" vert-adv-y="2457" 
d="M84 0l249 1413h603l62 353h197l-52 -521h-601l-220 -1245h-238z" />
    <glyph glyph-name="afii10098" unicode="&#x491;" horiz-adv-x="929" vert-adv-y="2457" 
d="M231 786l-21 173q136 46 350 50l126 335h199l-204 -347q196 -40 196 -220q0 -131 -105 -223q-70 -60 -254 -125q-162 -57 -201 -85q-56 -42 -56 -105q0 -56 36 -79q43 -28 144 -28q152 0 293 67l21 -172q-150 -53 -363 -53q-188 0 -270 64q-79 62 -79 181q0 149 115 243
q64 52 240 115q163 58 203 86q58 40 58 93q0 95 -150 95q-139 0 -278 -65z" />
    <glyph glyph-name="uni0492" unicode="&#x492;" horiz-adv-x="1015" vert-adv-y="2457" 
d="M75 0l77 435h-158l25 142h158l147 836h808l-34 -168h-565l-118 -668h313l-25 -142h-312l-77 -435h-239z" />
    <glyph glyph-name="uni0493" unicode="&#x493;" horiz-adv-x="929" vert-adv-y="2457" 
d="M109 584l60 112l255 -113q85 27 151 62q84 44 84 111q0 95 -150 95q-139 0 -278 -65l-21 173q146 50 334 50q333 0 333 -232q0 -120 -92 -206q-31 -30 -128 -82l151 -70l-59 -112l-258 115q-87 -28 -150 -60q-80 -41 -80 -120q0 -59 36 -82q44 -28 144 -28q152 0 293 67
l21 -172q-150 -53 -363 -53q-188 0 -270 64q-79 62 -79 181q0 137 99 226q39 35 113 72z" />
    <glyph glyph-name="uni0496" unicode="&#x496;" horiz-adv-x="1836" vert-adv-y="2457" 
d="M712 0l116 663h-55q-71 0 -118 -27q-58 -34 -127 -124q-31 -41 -113 -171l-226 -341h-272l280 416q147 219 230 285q53 42 134 69q-42 33 -65 84q-24 55 -56 200q-24 103 -55 149q-30 42 -112 42h-68l15 168h87q208 0 267 -97q26 -43 51 -136q6 -21 45 -179
q28 -114 71 -154q34 -32 105 -32h10l105 598h239l-106 -598h34q102 0 165 73q41 48 157 250q98 172 160 216q84 59 240 59h91l-45 -168h-48q-62 0 -97 -25q-37 -27 -90 -117q-14 -24 -68 -122q-59 -106 -109 -160q-33 -34 -96 -72q51 -22 94 -82q47 -68 107 -251l80 -248
h145l-92 -521h-187l28 353h-95l-105 341q-36 128 -54 170q-37 92 -83 125q-39 27 -108 27h-51l-117 -663h-238z" />
    <glyph glyph-name="uni0497" unicode="&#x497;" horiz-adv-x="1852" vert-adv-y="2457" 
d="M722 0l79 450h-138q-33 -162 -105 -280q-119 -196 -339 -196q-154 0 -269 34l47 172q81 -48 168 -48q123 0 200 135q44 77 70 182q28 115 28 204q0 198 -127 198q-91 0 -167 -66l-61 168q112 56 247 56q209 0 278 -153q47 -107 47 -239q0 -15 -2 -44h145l72 410h216
l-72 -410h148q31 150 95 252q66 104 155 148q74 36 175 36q151 0 256 -56l-78 -171q-71 69 -164 69q-119 0 -187 -167q-56 -137 -56 -303q0 -250 159 -250q89 0 203 53l-5 -174q-7 -4 -10 -5q-53 -25 -53 -46q0 -16 51 -54q58 -42 58 -94q0 -64 -51 -109q-51 -43 -143 -58
q-43 -7 -117 -11l-18 112q76 7 99 17q40 17 40 60q0 26 -22 52q-30 35 -30 61q0 22 16 43q-51 -4 -84 -4q-177 0 -253 154q-53 109 -53 263q0 27 2 59h-155l-79 -450h-216z" />
    <glyph glyph-name="uni049A" unicode="&#x49a;" horiz-adv-x="1260" vert-adv-y="2457" 
d="M84 0l249 1413h239l-106 -598h75q56 0 99 19q50 23 115 118q17 26 111 186q99 170 166 216q86 59 248 59h94l-45 -168h-54q-56 0 -88 -16.5t-69 -63.5q-33 -43 -112 -183q-57 -101 -108 -155q-33 -37 -83 -66q72 -30 113 -92q46 -69 105 -253l80 -248h111l-91 -521h-188
l29 353h-69l-105 341q-37 128 -54 170q-36 91 -83 124q-39 28 -108 28h-116l-117 -663h-238z" />
    <glyph glyph-name="uni049B" unicode="&#x49b;" horiz-adv-x="1049" vert-adv-y="2457" 
d="M71 0l173 983h226l-71 -403h70q62 0 96 38q22 24 99 148q78 125 139 166q76 51 218 51h79l-42 -161h-48q-75 0 -116 -43q-22 -23 -75 -106q-62 -94 -118 -134q56 -31 82 -65q41 -56 90 -196l96 -278q-9 -4 -32 -13q-32 -11 -32 -29q0 -16 52 -53q58 -42 58 -94
q0 -64 -51 -109q-50 -43 -143 -58q-44 -7 -117 -11l-18 112q76 7 99 17q40 17 40 60q0 27 -22 52q-30 35 -30 60q0 36 54 66h-97l-60 202q-39 128 -75 183q-39 57 -115 57h-105l-78 -442h-226z" />
    <glyph glyph-name="uni049C" unicode="&#x49c;" horiz-adv-x="1300" vert-adv-y="2457" 
d="M84 0l249 1413h239l-106 -598h88l46 261h139l-42 -234q43 24 76 67q35 45 142 229q100 170 166 216q86 59 248 59h84l-45 -168h-54q-65 0 -102 -25q-38 -26 -95 -116q-17 -26 -71 -122q-57 -100 -108 -155q-34 -37 -83 -66q71 -30 112 -92q46 -70 105 -253l135 -416h-253
l-105 341q-40 137 -54 170q-36 87 -77 119q-19 15 -54 24l-44 -252h-139l46 261h-88l-117 -663h-238z" />
    <glyph glyph-name="uni049D" unicode="&#x49d;" horiz-adv-x="1097" vert-adv-y="2457" 
d="M70 0l173 983h226l-71 -402h68l38 219h138l-31 -177l12 12q34 37 48 59q6 8 56 88q69 112 127 150q75 51 214 51h79l-42 -161h-48q-75 0 -116 -43q-21 -22 -75 -105q-63 -95 -118 -134q56 -30 82 -66q42 -56 90 -196l96 -278h-239l-60 202q-38 129 -74 182q-22 32 -65 49
l-38 -213h-138l40 223h-68l-78 -443h-226z" />
    <glyph glyph-name="uni04A2" unicode="&#x4a2;" horiz-adv-x="1400" vert-adv-y="2457" 
d="M84 0l249 1413h239l-105 -592h567l105 592h238l-220 -1245h126l-91 -521h-188l29 353h-143l115 653h-567l-116 -653h-238z" />
    <glyph glyph-name="uni04A3" unicode="&#x4a3;" horiz-adv-x="1148" vert-adv-y="2457" 
d="M70 0l173 983h226l-68 -387h382l69 387h225l-173 -983q-11 -5 -33 -13q-32 -11 -32 -29q0 -15 52 -53q58 -42 58 -94q0 -64 -51 -109q-50 -43 -142 -58q-44 -7 -117 -11l-18 112q75 7 98 17q40 17 40 60q0 27 -22 52q-30 35 -30 60q0 35 54 66h-83l77 432h-383l-76 -432
h-226z" />
    <glyph glyph-name="uni04AE" unicode="&#x4ae;" horiz-adv-x="1070" vert-adv-y="2457" 
d="M328 0l94 533l-295 880h253l137 -424q17 -52 53 -190l13 -47l35 56q84 136 124 194l280 411h247l-608 -880l-94 -533h-239z" />
    <glyph glyph-name="uni04AF" unicode="&#x4af;" horiz-adv-x="970" vert-adv-y="2457" 
d="M200 -459l79 448l-189 994h233l78 -443q16 -89 43 -314q106 226 160 327l227 430h223l-545 -990l-80 -452h-229z" />
    <glyph glyph-name="uni04B0" unicode="&#x4b0;" horiz-adv-x="1070" vert-adv-y="2457" 
d="M328 0l74 419h-238l25 142h223l-285 852h253l137 -423q17 -54 53 -191l13 -47l35 56q85 137 124 195l280 410h247l-589 -852h224l-24 -142h-239l-74 -419h-239z" />
    <glyph glyph-name="uni04B1" unicode="&#x4b1;" horiz-adv-x="970" vert-adv-y="2457" 
d="M200 -459l54 307h-191l27 152h187l-187 983h233l78 -443q18 -102 43 -313q100 215 160 326l227 430h223l-541 -983h194l-26 -152h-198l-54 -307h-229z" />
    <glyph glyph-name="uni04B2" unicode="&#x4b2;" horiz-adv-x="1175" vert-adv-y="2457" 
d="M489 754l-158 383q-33 83 -121 276h266l129 -326q35 -90 63 -170q76 110 122 169l251 327h259q-156 -187 -204 -249l-339 -429l144 -359q42 -103 87 -208h137l-91 -521h-188l29 353h-77l-152 385q-17 41 -54 142l-14 40l-26 -36q-63 -85 -97 -129l-311 -402h-264
q192 230 224 270z" />
    <glyph glyph-name="uni04B3" unicode="&#x4b3;" horiz-adv-x="1008" vert-adv-y="2457" 
d="M383 514l-250 469h247l93 -179q25 -46 70 -141q47 59 127 148l151 172h237l-422 -469l273 -514q-10 -5 -32 -13q-31 -11 -31 -29q0 -15 51 -53q58 -43 58 -94q0 -64 -51 -109q-51 -43 -143 -58q-43 -7 -117 -11l-18 112q76 7 99 17q40 17 40 60q0 26 -22 52
q-30 35 -30 60q0 35 54 66h-105l-107 208q-21 40 -26 50q-17 31 -54 109q-19 -23 -51 -64q-8 -10 -77 -89l-189 -214h-238z" />
    <glyph glyph-name="uni04B6" unicode="&#x4b6;" horiz-adv-x="1297" vert-adv-y="2457" 
d="M785 0l93 529q-60 -45 -102 -67q-111 -59 -250 -59q-170 0 -257 77q-82 73 -82 206q0 83 26 231l88 496h238l-95 -538q-15 -86 -15 -152q0 -151 172 -151q175 0 312 156l121 685h239l-220 -1245h126l-92 -521h-187l28 353h-143z" />
    <glyph glyph-name="uni04B7" unicode="&#x4b7;" horiz-adv-x="1092" vert-adv-y="2457" 
d="M623 0l67 379q-121 -72 -259 -72q-295 0 -295 250q0 78 26 223l36 203h225l-52 -294q-9 -53 -9 -100q0 -124 139 -124q115 0 219 89l76 429h226l-174 -983q-10 -5 -32 -13q-31 -11 -31 -29q0 -15 51 -53q58 -43 58 -94q0 -64 -51 -109q-50 -43 -143 -58q-44 -7 -117 -11
l-18 112q76 7 99 17q40 17 40 60q0 26 -22 52q-30 35 -30 60q0 35 54 66h-83z" />
    <glyph glyph-name="uni04B8" unicode="&#x4b8;" horiz-adv-x="1306" vert-adv-y="2457" 
d="M811 0l93 529l-21 -15q-74 -53 -118 -70q-30 -12 -71 -23l-40 -221l-146 1l36 202q-125 0 -210 40q-147 69 -147 243q0 82 26 231l88 496h238l-95 -538q-15 -86 -15 -152q0 -93 65 -125q22 -11 80 -21l53 297h146l-51 -288q120 36 217 142l121 685h238l-249 -1413h-238z
" />
    <glyph glyph-name="uni04B9" unicode="&#x4b9;" horiz-adv-x="1151" vert-adv-y="2457" 
d="M681 0l67 379q-80 -49 -166 -64l-35 -196h-138l34 188q-126 6 -190 40q-117 62 -117 210q0 77 26 222l36 204h225l-52 -294q-9 -53 -9 -100q0 -69 44 -97q23 -15 65 -23l43 240h137l-42 -237q86 17 170 82l76 429h225l-173 -983h-226z" />
    <glyph glyph-name="uni04BA" unicode="&#x4ba;" horiz-adv-x="1334" vert-adv-y="2457" 
d="M84 0l249 1413h239l-108 -610q62 44 110 69q128 66 278 66q181 0 271 -89q76 -76 76 -209q0 -81 -26 -231l-73 -409h-238l75 425q19 107 19 180q0 88 -45 128t-140 40q-182 0 -341 -164l-108 -609h-238z" />
    <glyph glyph-name="uni04BB" unicode="&#x4bb;" horiz-adv-x="1151" vert-adv-y="2457" 
d="M70 0l198 1123q24 135 46 323l245 50l-113 -641q59 56 118 91q104 63 222 63q130 0 194 -64q59 -57 59 -152q0 -64 -21 -184l-108 -609h-225l107 603q14 82 14 124q0 109 -105 109q-113 0 -234 -125q-44 -46 -58 -87q-7 -20 -15 -65l-99 -559h-225z" />
    <glyph glyph-name="uni04C0" unicode="&#x4c0;" horiz-adv-x="599" vert-adv-y="2457" 
d="M93 0l249 1413h239l-250 -1413h-238z" />
    <glyph glyph-name="uni04CF" unicode="&#x4cf;" horiz-adv-x="599" vert-adv-y="2457" 
d="M93 0l249 1413h239l-250 -1413h-238z" />
    </font>
</defs>
</svg>
