<?xml version="1.0" encoding="UTF-8"?>
<svg xmlns="http://www.w3.org/2000/svg" xmlns:xlink="http://www.w3.org/1999/xlink" version="1.2" >
<font id="E+H Sans Light">
<font-face  font-family="E+H Sans" units-per-em="2048" ascent="1638" descent="-512" font-style="normal" font-weight="300" font-stretch="normal" cap-height="1413" x-height="983" underline-position="-372" underline-thickness="95" />
<missing-glyph  horiz-adv-x="1709" d="M982 405 L831 405 L831 471 Q831 555 816 593 Q800 635 760 677 Q740 698 682 757 Q593 845 547 916 Q483 1012 483 1123 Q483 1211 525 1285 Q612 1438 886 1438 Q1038 1438 1199 1393 L1170 1239 Q1022 1309 903 1309 Q672 1309 672 1119 Q672 1025 729 939 Q759 892 865 780 Q946 694 966 639 Q982 593 982 501 L982 405 Z M904 234 Q962 234 1001 189 Q1034 152 1034 104 Q1034 48 992 9 Q954 -26 902 -26 Q841 -26 802 19 Q770 56 770 105 Q770 159 812 199 Q849 234 904 234 Z M123 -459 L123 1737 L1587 1737 L1587 -459 L123 -459 Z M246 -336 L1464 -336 L1464 1614 L246 1614 L246 -336 Z " />
<glyph glyph-name="space" unicode="&#x20;" horiz-adv-x="492" d="" />
<glyph glyph-name="exclam" unicode="&#x21;" horiz-adv-x="618" d="M258 390 L222 1413 L393 1413 L357 390 L258 390 Z M310 198 Q359 198 393 159 Q421 127 421 86 Q421 38 385 5 Q352 -25 308 -25 Q256 -25 222 13 Q194 45 194 87 Q194 134 230 168 Q262 198 310 198 Z " />
<glyph glyph-name="quotedbl" unicode="&#x22;" horiz-adv-x="393" d="M17 892 L-3 1413 L141 1413 L121 892 L17 892 Z M273 892 L252 1413 L396 1413 L376 892 L273 892 Z " />
<glyph glyph-name="numbersign" unicode="&#x23;" horiz-adv-x="1180" d="M335 586 L366 812 L147 812 L165 936 L383 936 L428 1264 L561 1264 L517 936 L730 936 L775 1264 L908 1264 L864 936 L1083 936 L1066 812 L848 812 L816 586 L1032 586 L1014 462 L800 462 L757 145 L623 145 L666 462 L453 462 L409 145 L276 145 L319 462 L96 462 L114 586 L335 586 Z M469 586 L683 586 L714 812 L499 812 L469 586 Z " />
<glyph glyph-name="dollar" unicode="&#x24;" horiz-adv-x="1180" d="M555 -192 L555 -6 Q330 -4 126 54 L157 177 Q355 100 555 100 L555 687 Q411 750 339 793 Q241 853 205 932 Q178 992 178 1073 Q178 1387 555 1416 L555 1597 L667 1597 L667 1418 Q809 1412 954 1371 L922 1248 Q793 1303 667 1312 L667 798 Q863 713 933 650 Q1045 549 1045 377 Q1045 150 853 53 Q781 16 667 1 L667 -192 L555 -192 Z M555 847 L555 1309 Q314 1282 314 1098 Q314 982 425 912 Q451 895 555 847 Z M667 638 L667 110 Q757 126 801 153 Q908 217 908 346 Q908 479 812 558 Q779 586 667 638 Z " />
<glyph glyph-name="percent" unicode="&#x25;" horiz-adv-x="1591" d="M391 1442 Q532 1442 607 1339 Q676 1245 676 1073 Q676 903 607 808 Q532 705 386 705 Q242 705 166 808 Q97 903 97 1072 Q97 1246 166 1339 Q243 1442 391 1442 Z M389 1370 Q226 1370 226 1071 Q226 777 387 777 Q547 777 547 1073 Q547 1370 389 1370 Z M495 0 L977 1413 L1096 1413 L613 0 L495 0 Z M1210 708 Q1351 708 1426 605 Q1495 511 1495 339 Q1495 169 1426 74 Q1352 -29 1205 -29 Q1060 -29 984 74 Q915 169 915 338 Q915 512 984 605 Q1061 708 1210 708 Z M1208 636 Q1044 636 1044 338 Q1044 43 1205 43 Q1366 43 1366 339 Q1366 636 1208 636 Z " />
<glyph glyph-name="ampersand" unicode="&#x26;" horiz-adv-x="1322" d="M385 775 Q329 850 303 894 Q237 1006 237 1129 Q237 1260 332 1351 Q427 1442 581 1442 Q754 1442 839 1336 Q899 1261 899 1150 Q899 964 736 845 Q679 803 583 762 L947 327 Q1054 520 1093 829 L1235 829 Q1175 429 1023 233 L1217 0 L1030 0 L925 125 Q863 76 816 49 Q682 -29 521 -29 Q331 -29 211 73 Q85 180 85 361 Q85 563 253 691 Q311 735 385 775 Z M523 835 Q615 887 657 924 Q749 1004 749 1156 Q749 1248 699 1297 Q656 1339 579 1339 Q485 1339 432 1282 Q387 1232 387 1141 Q387 1005 523 835 Z M444 700 Q388 669 340 628 Q240 543 240 385 Q240 219 342 135 Q423 68 547 68 Q668 68 779 153 Q814 180 851 216 L444 700 Z " />
<glyph glyph-name="quotesingle" unicode="&#x27;" horiz-adv-x="187" d="M41 892 L21 1413 L165 1413 L145 892 L41 892 Z " />
<glyph glyph-name="parenleft" unicode="&#x28;" horiz-adv-x="755" d="M608 -304 L510 -354 Q425 -229 353 -32 Q244 263 244 596 Q244 947 368 1263 Q434 1434 510 1547 L608 1496 Q526 1335 485 1192 Q439 1030 419 902 Q399 779 399 596 Q399 370 439 187 Q490 -50 552 -187 Q574 -237 608 -304 Z " />
<glyph glyph-name="parenright" unicode="&#x29;" horiz-adv-x="755" d="M147 1496 L245 1547 Q330 1420 402 1224 Q511 929 511 596 Q511 246 388 -71 Q321 -242 245 -354 L147 -304 Q229 -143 270 0 Q316 162 336 290 Q356 413 356 596 Q356 822 316 1005 Q266 1240 203 1379 Q181 1429 147 1496 Z " />
<glyph glyph-name="asterisk" unicode="&#x2a;" horiz-adv-x="1075" d="M489 1242 L465 1597 L609 1597 L585 1242 L916 1366 L954 1234 L610 1153 L829 853 L710 786 L537 1088 L363 786 L245 853 L463 1153 L120 1234 L157 1366 L489 1242 Z " />
<glyph glyph-name="plus" unicode="&#x2b;" horiz-adv-x="1180" d="M96 652 L97 759 L530 759 L530 1215 L650 1215 L650 759 L1083 759 L1082 652 L650 652 L650 197 L530 197 L530 652 L96 652 Z " />
<glyph glyph-name="comma" unicode="&#x2c;" horiz-adv-x="510" d="M120 -288 L194 191 L354 191 L234 -288 L120 -288 Z " />
<glyph glyph-name="hyphen" unicode="&#x2d;" horiz-adv-x="785" d="M122 589 L122 708 L662 708 L662 589 L122 589 Z " />
<glyph glyph-name="period" unicode="&#x2e;" horiz-adv-x="510" d="M257 198 Q306 198 340 159 Q368 127 368 86 Q368 38 332 5 Q299 -25 255 -25 Q203 -25 169 13 Q141 45 141 87 Q141 134 177 168 Q209 198 257 198 Z " />
<glyph glyph-name="slash" unicode="&#x2f;" horiz-adv-x="923" d="M80 0 L711 1413 L844 1413 L212 0 L80 0 Z " />
<glyph glyph-name="zero" unicode="0" horiz-adv-x="1180" d="M595 1438 Q730 1438 840 1373 Q970 1297 1023 1108 Q1062 969 1062 704 Q1062 439 1023 301 Q970 112 840 35 Q732 -29 589 -29 Q447 -29 339 35 Q209 113 156 301 Q117 441 117 706 Q117 966 156 1108 Q248 1438 595 1438 Z M594 1336 Q412 1336 337 1178 Q273 1045 273 707 Q273 472 298 353 Q357 73 590 73 Q688 73 763 129 Q848 192 882 353 Q907 475 907 704 Q907 1072 831 1202 Q790 1272 720 1306 Q660 1336 594 1336 Z " />
<glyph glyph-name="one" unicode="1" horiz-adv-x="1180" d="M575 106 L575 1296 L271 1203 L271 1312 L606 1423 L722 1423 L722 106 L1008 106 L1008 0 L271 0 L271 106 L575 106 Z " />
<glyph glyph-name="two" unicode="2" horiz-adv-x="1180" d="M158 0 L158 112 L545 623 Q638 747 692 840 Q757 951 757 1079 Q757 1192 703 1252 Q631 1333 491 1333 Q366 1333 216 1256 L184 1374 Q350 1438 501 1438 Q702 1438 804 1345 Q902 1255 902 1086 Q902 954 837 835 Q762 697 661 565 L311 106 L954 106 L954 0 L158 0 Z " />
<glyph glyph-name="three" unicode="3" horiz-adv-x="1180" d="M292 706 L292 827 Q358 822 404 822 Q554 822 640 871 Q778 951 778 1111 Q778 1214 717 1268 Q646 1331 509 1331 Q376 1331 213 1257 L181 1374 Q346 1438 525 1438 Q725 1438 831 1344 Q923 1263 923 1114 Q923 964 817 872 Q764 825 658 785 Q805 758 876 692 Q983 596 983 436 Q983 142 665 34 Q508 -20 186 -29 L177 77 Q406 78 568 122 Q712 161 778 255 Q828 327 828 428 Q828 579 735 649 Q646 717 458 717 Q390 717 292 706 Z " />
<glyph glyph-name="four" unicode="4" horiz-adv-x="1180" d="M741 371 L101 371 L101 477 L541 1413 L687 1413 L248 477 L741 477 L741 983 L880 983 L880 477 L1072 477 L1072 371 L880 371 L880 0 L741 0 L741 371 Z " />
<glyph glyph-name="five" unicode="5" horiz-adv-x="1180" d="M188 -29 L179 77 Q421 86 577 135 Q852 222 852 469 Q852 612 781 685 Q708 760 532 760 Q438 760 323 733 L213 741 L239 1413 L909 1413 L909 1299 L367 1299 L349 851 Q475 866 564 866 Q804 866 911 756 Q1008 657 1008 483 Q1008 177 686 54 Q511 -14 188 -29 Z " />
<glyph glyph-name="six" unicode="6" horiz-adv-x="1180" d="M863 1438 L863 1332 Q588 1292 453 1134 Q325 983 301 711 Q351 782 389 811 Q489 887 630 887 Q843 887 962 741 Q1052 629 1052 449 Q1052 253 953 126 Q833 -29 603 -29 Q333 -29 223 178 Q149 317 149 570 Q149 907 285 1120 Q456 1387 863 1438 Z M621 785 Q493 785 407 710 Q305 620 305 437 Q305 291 363 193 Q434 73 599 73 Q768 73 840 197 Q897 295 897 446 Q897 597 831 686 Q759 785 621 785 Z " />
<glyph glyph-name="seven" unicode="7" horiz-adv-x="1180" d="M876 1301 L185 1301 L185 1413 L1028 1413 L1028 1350 L465 0 L306 0 L876 1301 Z " />
<glyph glyph-name="eight" unicode="8" horiz-adv-x="1180" d="M366 748 Q289 786 247 831 Q163 921 163 1065 Q163 1233 261 1328 Q374 1438 588 1438 Q802 1438 915 1328 Q1013 1233 1013 1065 Q1013 911 918 819 Q879 782 810 748 Q905 710 953 668 Q1072 563 1072 374 Q1072 -29 588 -29 Q104 -29 104 374 Q104 575 239 681 Q279 712 366 748 Z M593 1332 Q308 1332 308 1063 Q308 792 588 792 Q868 792 868 1064 Q868 1193 802 1259 Q729 1332 593 1332 Z M593 686 Q427 686 346 619 Q259 547 259 380 Q259 217 346 145 Q427 77 588 77 Q749 77 830 145 Q917 217 917 382 Q917 547 830 619 Q749 686 593 686 Z " />
<glyph glyph-name="nine" unicode="9" horiz-adv-x="1180" d="M256 -26 L247 80 Q576 106 723 284 Q848 437 872 718 Q824 657 783 630 Q684 563 545 563 Q317 563 200 716 Q121 820 121 981 Q121 1155 205 1271 Q326 1438 569 1438 Q848 1438 956 1220 Q1024 1082 1024 839 Q1024 336 737 125 Q568 0 256 -26 Z M574 1336 Q406 1336 333 1218 Q276 1126 276 984 Q276 857 328 777 Q400 665 551 665 Q681 665 766 736 Q868 821 868 993 Q868 1132 810 1223 Q738 1336 574 1336 Z " />
<glyph glyph-name="colon" unicode="&#x3a;" horiz-adv-x="510" d="M257 198 Q306 198 340 159 Q368 127 368 86 Q368 38 332 5 Q299 -25 255 -25 Q203 -25 169 13 Q141 45 141 87 Q141 134 177 168 Q209 198 257 198 Z M257 1007 Q306 1007 340 969 Q368 936 368 895 Q368 847 332 814 Q299 784 255 784 Q203 784 169 822 Q141 854 141 896 Q141 943 177 977 Q209 1007 257 1007 Z " />
<glyph glyph-name="semicolon" unicode="&#x3b;" horiz-adv-x="511" d="M120 -288 L194 191 L354 191 L234 -288 L120 -288 Z M278 1007 Q327 1007 361 968 Q389 936 389 895 Q389 848 352 814 Q320 784 276 784 Q224 784 190 822 Q162 854 162 896 Q162 943 198 977 Q230 1007 278 1007 Z " />
<glyph glyph-name="less" unicode="&#x3c;" horiz-adv-x="1180" d="M262 704 L1010 299 L1010 172 L143 657 L143 752 L1010 1238 L1010 1110 L262 704 Z " />
<glyph glyph-name="equal" unicode="&#x3d;" horiz-adv-x="1180" d="M97 494 L98 602 L1084 602 L1082 494 L97 494 Z M97 807 L98 915 L1084 915 L1082 807 L97 807 Z " />
<glyph glyph-name="greater" unicode="&#x3e;" horiz-adv-x="1180" d="M917 705 L169 1110 L169 1238 L1036 753 L1036 657 L169 172 L169 299 L917 705 Z " />
<glyph glyph-name="question" unicode="&#x3f;" horiz-adv-x="864" d="M426 388 L321 388 L321 500 Q321 616 358 678 Q380 715 516 861 Q630 985 630 1128 Q630 1335 379 1335 Q263 1335 126 1270 L97 1395 Q250 1437 385 1437 Q596 1437 697 1339 Q730 1306 753 1249 Q776 1190 776 1129 Q776 1022 715 928 Q668 855 581 767 Q493 679 472.5 654 Q452 629 439 594 Q426 556 426 467 L426 388 Z M380 198 Q429 198 463 159 Q491 127 491 86 Q491 38 454 5 Q422 -25 378 -25 Q326 -25 292 13 Q264 45 264 87 Q264 134 300 168 Q333 198 380 198 Z " />
<glyph glyph-name="at" unicode="&#x40;" horiz-adv-x="1803" d="M1150 952 L1269 952 L1167 438 Q1156 385 1156 347 Q1156 276 1230 276 Q1309 276 1379 339 Q1519 464 1519 688 Q1519 831 1459 963 Q1389 1116 1235 1189 Q1092 1256 915 1256 Q627 1256 454 1056 Q284 860 284 542 Q284 190 477 29 Q565 -45 674 -71 Q804 -102 965 -102 Q1247 -102 1467 -26 L1463 -135 Q1400 -156 1315 -170 Q1126 -201 950 -201 Q646 -201 473 -112 Q134 64 134 535 Q134 933 373 1158 Q584 1355 919 1355 Q1192 1355 1387 1230 Q1561 1119 1630 926 Q1669 818 1669 700 Q1669 508 1575 376 Q1446 195 1226 195 Q1098 195 1067 271 Q1059 291 1053 340 Q1019 293 986 264 Q905 191 786 191 Q550 191 550 459 Q550 610 609 740 Q714 972 929 972 Q1067 972 1135 870 L1150 952 Z M944 887 Q836 887 756 749 Q682 621 682 465 Q682 378 712 331 Q747 276 813 276 Q931 276 1013 427 Q1092 574 1092 716 Q1092 792 1053 836 Q1009 887 944 887 Z " />
<glyph glyph-name="A" unicode="A" horiz-adv-x="1257" d="M916 455 L329 455 L160 0 L13 0 L554 1413 L705 1413 L1244 0 L1084 0 L916 455 Z M879 561 L717 999 Q709 1021 659 1169 L639 1227 L623 1273 L607 1226 L589 1174 Q546 1046 534 1015 L367 561 L879 561 Z " />
<glyph glyph-name="B" unicode="B" horiz-adv-x="1208" d="M194 0 L194 1413 L613 1413 Q836 1413 936 1344 Q1061 1258 1061 1080 Q1061 815 823 756 Q957 727 1015 673 Q1118 577 1118 390 Q1118 174 969 75 Q857 0 623 0 L194 0 Z M341 804 L543 804 Q748 804 814 847 Q915 913 915 1074 Q915 1210 830 1266 Q769 1307 583 1307 L341 1307 L341 804 Z M341 106 L574 106 Q786 106 858 151 Q962 218 962 386 Q962 577 852 647 Q801 680 719 691 Q665 698 552 698 L341 698 L341 106 Z " />
<glyph glyph-name="C" unicode="C" horiz-adv-x="1056" d="M1016 152 L1047 27 Q864 -25 683 -25 Q382 -25 244 167 Q109 356 109 681 Q109 916 177 1094 Q310 1438 671 1438 Q797 1438 905 1408 Q933 1400 1003 1375 L971 1250 Q817 1331 675 1331 Q480 1331 379 1170 Q265 989 265 692 Q265 417 361 252 Q461 81 685 81 Q845 81 1016 152 Z " />
<glyph glyph-name="D" unicode="D" horiz-adv-x="1292" d="M194 0 L194 1413 L536 1413 Q713 1413 828 1368 Q1005 1299 1089 1134 Q1182 950 1182 705 Q1182 345 994 160 Q892 60 745 22 Q657 0 520 0 L194 0 Z M341 106 L521 106 Q745 106 872 232 Q960 319 999 478 Q1026 591 1026 718 Q1026 965 935 1125 Q886 1212 785 1262 Q691 1307 483 1307 L341 1307 L341 106 Z " />
<glyph glyph-name="E" unicode="E" horiz-adv-x="1090" d="M194 0 L194 1413 L1028 1413 L1028 1307 L341 1307 L341 790 L864 790 L864 684 L341 684 L341 106 L1029 106 L1029 0 L194 0 Z " />
<glyph glyph-name="F" unicode="F" horiz-adv-x="1047" d="M194 0 L194 1413 L999 1413 L999 1307 L341 1307 L341 789 L832 789 L832 683 L341 683 L341 0 L194 0 Z " />
<glyph glyph-name="G" unicode="G" horiz-adv-x="1273" d="M682 681 L682 786 L1127 786 L1127 71 Q974 -25 734 -25 Q392 -25 240 183 Q109 363 109 687 Q109 1114 326 1304 Q419 1385 536 1416 Q618 1438 731 1438 Q899 1438 1091 1374 L1046 1254 Q881 1332 731 1332 Q490 1332 384 1175 Q265 998 265 704 Q265 419 369 252 Q431 152 535 114 Q624 81 750 81 Q864 81 980 127 L980 681 L682 681 Z " />
<glyph glyph-name="H" unicode="H" horiz-adv-x="1375" d="M194 0 L194 1413 L341 1413 L341 791 L1033 791 L1033 1413 L1180 1413 L1180 0 L1033 0 L1033 685 L341 685 L341 0 L194 0 Z " />
<glyph glyph-name="I" unicode="I" horiz-adv-x="538" d="M195 0 L195 1413 L342 1413 L342 0 L195 0 Z " />
<glyph glyph-name="J" unicode="J" horiz-adv-x="594" d="M252 1413 L399 1413 L399 231 Q399 35 381 -70 Q351 -255 251 -338 Q158 -415 -3 -415 Q-98 -415 -186 -391 L-165 -281 Q-80 -309 -2 -309 Q179 -309 223 -138 Q252 -28 252 234 L252 1413 Z " />
<glyph glyph-name="K" unicode="K" horiz-adv-x="1168" d="M194 0 L194 1413 L341 1413 L341 778 L993 1413 L1153 1413 L498 779 L1181 0 L1000 0 L341 763 L341 0 L194 0 Z " />
<glyph glyph-name="L" unicode="L" horiz-adv-x="1015" d="M194 0 L194 1413 L341 1413 L341 106 L1006 106 L1006 0 L194 0 Z " />
<glyph glyph-name="M" unicode="M" horiz-adv-x="1809" d="M157 0 L321 1413 L507 1413 L834 424 Q861 341 903 161 Q950 352 983 451 L1299 1413 L1486 1413 L1652 0 L1513 0 L1409 908 L1400 998 L1391 1086 L1381 1175 L1369 1291 L1336 1182 Q1301 1065 1294 1042 Q1256 917 1256 916 L960 0 L837 0 L536 923 L518 985 L482 1103 Q446 1225 425 1291 L415 1194 L407 1114 L395 1002 L388 933 L284 0 L157 0 Z " />
<glyph glyph-name="N" unicode="N" horiz-adv-x="1409" d="M194 0 L194 1413 L397 1413 L893 531 Q915 492 988 358 L1042 261 L1088 177 Q1084 257 1084 392 L1084 473 L1084 557 L1084 1413 L1214 1413 L1214 0 L1031 0 L492 970 Q462 1024 401 1136 L363 1206 L320 1285 Q324 1209 324 1032 L324 966 L324 0 L194 0 Z " />
<glyph glyph-name="O" unicode="O" horiz-adv-x="1369" d="M694 1438 Q882 1438 1017 1338 Q1160 1232 1221 1018 Q1260 878 1260 706 Q1260 391 1130 193 Q986 -25 684 -25 Q383 -25 239 193 Q109 391 109 704 Q109 1025 239 1220 Q385 1438 694 1438 Z M691 1332 Q542 1332 437 1243 Q265 1096 265 703 Q265 426 358 264 Q410 174 505 124 Q586 81 685 81 Q827 81 932 170 Q1104 316 1104 706 Q1104 990 1011 1149 Q956 1242 864 1290 Q782 1332 691 1332 Z " />
<glyph glyph-name="P" unicode="P" horiz-adv-x="1163" d="M194 0 L194 1413 L610 1413 Q719 1413 830 1378 Q963 1337 1025 1191 Q1063 1100 1063 987 Q1063 748 924 650 Q802 564 581 564 L341 564 L341 0 L194 0 Z M341 670 L518 670 Q738 670 817 738 Q907 816 907 980 Q907 1163 813 1243 Q738 1307 542 1307 L341 1307 L341 670 Z " />
<glyph glyph-name="Q" unicode="Q" horiz-adv-x="1372" d="M1058 107 Q910 -25 685 -25 Q382 -25 239 193 Q109 392 109 707 Q109 1022 239 1220 Q383 1438 684 1438 Q986 1438 1130 1220 Q1260 1022 1260 707 Q1260 388 1124 186 Q1281 117 1367 59 L1358 -77 Q1153 51 1058 107 Z M691 1332 Q542 1332 437 1243 Q265 1096 265 703 Q265 426 358 264 Q410 174 505 124 Q586 81 685 81 Q827 81 932 170 Q1104 316 1104 706 Q1104 990 1011 1149 Q956 1242 864 1290 Q782 1332 691 1332 Z " />
<glyph glyph-name="R" unicode="R" horiz-adv-x="1213" d="M194 0 L194 1413 L568 1413 Q728 1413 816 1389 Q1066 1322 1066 1029 Q1066 736 767 667 Q830 627 863 578 Q894 533 930 456 L1146 0 L984 0 L828 345 Q738 547 698 594 Q667 630 595 630 L341 630 L341 0 L194 0 Z M341 734 L569 734 Q760 734 838 812 Q910 885 910 1025 Q910 1170 839 1237 Q795 1278 724 1294 Q668 1307 569 1307 L341 1307 L341 734 Z " />
<glyph glyph-name="S" unicode="S" horiz-adv-x="1010" d="M42 61 L74 186 Q253 81 455 81 Q632 81 720 158 Q793 221 793 334 Q793 429 748 497 Q711 554 645 590 Q586 623 494 664 Q280 759 199 824 Q91 910 91 1076 Q91 1438 503 1438 Q662 1438 835 1379 L790 1258 Q646 1332 515 1332 Q228 1332 228 1101 Q228 1000 290 943 Q334 904 398 872 Q468 838 566 794 Q732 719 798 666 Q930 558 930 368 Q930 167 795 69 Q667 -25 459 -25 Q241 -25 42 61 Z " />
<glyph glyph-name="T" unicode="T" horiz-adv-x="1136" d="M495 0 L495 1307 L90 1307 L90 1413 L1047 1413 L1047 1307 L642 1307 L642 0 L495 0 Z " />
<glyph glyph-name="U" unicode="U" horiz-adv-x="1282" d="M186 1413 L333 1413 L333 514 Q333 281 380 199 Q447 81 650 81 Q869 81 931 221 Q966 301 966 514 L966 1413 L1096 1413 L1096 507 Q1096 383 1087 320 Q1060 140 943 57 Q827 -25 647 -25 Q465 -25 345 57 Q224 139 196 320 Q186 385 186 507 L186 1413 Z " />
<glyph glyph-name="V" unicode="V" horiz-adv-x="1133" d="M490 0 L13 1413 L166 1413 L458 503 Q460 497 516 307 L545 209 L570 122 L599 220 L627 316 Q682 502 684 510 L974 1413 L1119 1413 L642 0 L490 0 Z " />
<glyph glyph-name="W" unicode="W" horiz-adv-x="1855" d="M445 0 L43 1413 L191 1413 L413 570 L435 479 L461 372 Q497 223 522 127 Q547 225 586 379 L614 489 Q633 566 635 574 L873 1413 L989 1413 L1227 565 Q1232 546 1247 483 Q1249 475 1306 250 L1337 126 L1370 258 Q1405 404 1413 438 Q1440 554 1444 568 L1667 1413 L1812 1413 L1409 0 L1249 0 L1033 790 Q984 967 929 1219 Q863 932 824 793 L601 0 L445 0 Z " />
<glyph glyph-name="X" unicode="X" horiz-adv-x="1146" d="M483 756 L270 1124 Q202 1241 96 1413 L262 1413 L490 1010 Q497 999 513 970 Q528 942 565 875 L582 845 L601 879 L628 925 L654 970 L678 1013 L916 1413 L1069 1413 Q963 1250 902 1149 L650 733 L875 342 Q947 219 1080 0 L915 0 L648 468 Q642 479 621 517 Q615 528 571 607 L552 643 Q533 611 504 559 L478 515 L458 480 L172 0 L19 0 Q127 166 199 286 L483 756 Z " />
<glyph glyph-name="Y" unicode="Y" horiz-adv-x="1044" d="M447 0 L447 528 L-7 1413 L148 1413 L395 919 L432 844 L465 777 L493 719 L522 659 L556 725 L585 785 L617 849 L653 922 L904 1413 L1050 1413 L594 528 L594 0 L447 0 Z " />
<glyph glyph-name="Z" unicode="Z" horiz-adv-x="1058" d="M53 0 L53 88 L827 1307 L107 1307 L107 1413 L987 1413 L998 1325 L224 106 L1013 106 L1013 0 L53 0 Z " />
<glyph glyph-name="bracketleft" unicode="&#x5b;" horiz-adv-x="751" d="M647 1541 L647 1473 L426 1473 L426 -281 L647 -281 L647 -351 L285 -351 L285 1541 L647 1541 Z " />
<glyph glyph-name="backslash" unicode="&#x5c;" horiz-adv-x="568" d="M373 0 L65 1413 L194 1413 L502 0 L373 0 Z " />
<glyph glyph-name="bracketright" unicode="&#x5d;" horiz-adv-x="751" d="M105 -351 L105 -281 L326 -281 L326 1473 L105 1473 L105 1541 L467 1541 L467 -351 L105 -351 Z " />
<glyph glyph-name="asciicircum" unicode="&#x5e;" horiz-adv-x="1180" d="M590 1267 L276 717 L133 717 L569 1439 L611 1439 L1047 717 L903 717 L590 1267 Z " />
<glyph glyph-name="underscore" unicode="&#x5f;" horiz-adv-x="1180" d="M31 -420 L31 -318 L1148 -318 L1148 -420 L31 -420 Z " />
<glyph glyph-name="grave" unicode="&#x60;" horiz-adv-x="1024" d="M514 1145 L292 1393 L490 1393 L620 1145 L514 1145 Z " />
<glyph glyph-name="a" unicode="a" horiz-adv-x="1023" d="M706 626 L706 653 Q706 776 681 824 Q639 906 492 906 Q366 906 236 828 L199 937 Q331 1008 503 1008 Q742 1008 809 859 Q844 782 844 572 L844 239 Q844 126 860 0 L734 0 Q723 66 717 135 Q622 -25 397 -25 Q268 -25 197 26 Q105 93 105 254 Q105 490 317 567 Q411 601 548 615 Q573 617 686 624 L706 626 Z M704 531 Q537 519 456 501 Q250 456 250 257 Q250 76 423 76 Q572 76 658 194 Q692 242 700 298 Q704 326 704 374 L704 531 Z " />
<glyph glyph-name="b" unicode="b" horiz-adv-x="1077" d="M321 881 Q368 928 404 952 Q491 1008 604 1008 Q806 1008 897 841 Q968 710 968 503 Q968 297 887 163 Q773 -25 525 -25 Q343 -25 168 44 Q181 190 181 410 L181 1251 Q181 1331 174 1453 L321 1483 L321 881 Z M321 114 Q426 77 527 77 Q684 77 759 208 Q823 321 823 499 Q823 685 767 793 Q709 906 589 906 Q454 906 372 787 Q337 734 326 677 Q321 649 321 590 L321 114 Z " />
<glyph glyph-name="c" unicode="c" horiz-adv-x="828" d="M765 125 L796 10 Q687 -25 528 -25 Q109 -25 109 467 Q109 731 229 880 Q333 1008 534 1008 Q670 1008 777 954 L733 842 Q646 906 540 906 Q407 906 336 800 Q254 678 254 479 Q254 311 315 205 Q389 77 550 77 Q656 77 765 125 Z " />
<glyph glyph-name="d" unicode="d" horiz-adv-x="1077" d="M757 952 L757 1251 Q757 1336 750 1453 L897 1483 L897 250 Q897 110 913 0 L788 0 Q777 69 770 142 Q725 81 685 49 Q592 -25 465 -25 Q335 -25 246 52 Q110 170 110 456 Q110 685 210 837 Q323 1008 539 1008 Q655 1008 757 952 Z M757 839 Q665 906 560 906 Q398 906 322 762 Q255 634 255 454 Q255 283 311 181 Q336 135 385 106 Q431 77 486 77 Q568 77 640 131 Q711 183 741 268 Q757 312 757 393 L757 839 Z " />
<glyph glyph-name="e" unicode="e" horiz-adv-x="1007" d="M909 483 L253 483 Q255 346 286 261 Q321 165 392 122 Q469 76 592 76 Q717 76 848 125 L878 14 Q746 -25 571 -25 Q335 -25 225 99 Q109 228 109 475 Q109 708 208 852 Q315 1008 541 1008 Q910 1008 910 542 Q910 532 909 483 Z M769 583 Q766 698 737 777 Q689 907 533 907 Q293 907 258 583 L769 583 Z " />
<glyph glyph-name="f" unicode="f" horiz-adv-x="648" d="M209 877 L33 877 L38 983 L209 983 L209 1170 Q209 1316 277 1390 Q356 1476 506 1476 Q604 1476 706 1444 L674 1329 Q592 1375 515 1375 Q417 1375 378 1312 Q350 1266 350 1158 L350 983 L605 983 L600 877 L350 877 L350 0 L209 0 L209 877 Z " />
<glyph glyph-name="g" unicode="g" horiz-adv-x="1049" d="M744 118 Q696 65 663 40 Q575 -25 460 -25 Q329 -25 241 53 Q109 168 109 459 Q109 721 227 868 Q339 1008 560 1008 Q725 1008 897 948 Q884 790 884 607 L884 229 Q884 -73 856 -196 Q793 -472 451 -472 Q296 -472 175 -426 L206 -313 Q337 -371 469 -371 Q655 -371 709 -218 Q744 -118 744 73 L744 118 Z M744 865 Q652 906 549 906 Q392 906 323 777 Q254 649 254 443 Q254 278 304 180 Q358 77 476 77 Q612 77 694 198 Q729 249 739 307 Q744 335 744 393 L744 865 Z " />
<glyph glyph-name="h" unicode="h" horiz-adv-x="1134" d="M180 0 L180 1251 Q180 1337 173 1453 L321 1483 L321 822 Q486 1008 683 1008 Q876 1008 930 863 Q955 795 955 632 L955 0 L814 0 L814 656 Q814 785 788 833 Q752 901 653 901 Q515 901 383 764 Q334 713 325 673 Q321 655 321 603 L321 0 L180 0 Z " />
<glyph glyph-name="i" unicode="i" horiz-adv-x="503" d="M182 0 L182 983 L322 983 L322 0 L182 0 Z M252 1365 Q295 1365 325 1335 Q354 1307 354 1264 Q354 1223 325 1194 Q295 1164 252 1164 Q209 1164 179 1194 Q150 1223 150 1266 Q150 1307 179 1335 Q210 1365 252 1365 Z " />
<glyph glyph-name="j" unicode="j" horiz-adv-x="514" d="M192 983 L332 983 L332 15 Q332 -145 315 -235 Q270 -472 10 -472 Q-60 -472 -121 -455 L-98 -350 Q-36 -371 29 -371 Q137 -371 167 -268 Q192 -182 192 -4 L192 983 Z M262 1365 Q304 1365 334 1335 Q364 1307 364 1264 Q364 1223 334 1194 Q304 1164 262 1164 Q219 1164 189 1194 Q160 1223 160 1266 Q160 1307 189 1335 Q220 1365 262 1365 Z " />
<glyph glyph-name="k" unicode="k" horiz-adv-x="944" d="M180 0 L180 1251 Q180 1337 173 1453 L321 1483 L321 604 L756 983 L934 983 L473 600 L956 0 L780 0 L321 588 L321 0 L180 0 Z " />
<glyph glyph-name="l" unicode="l" horiz-adv-x="501" d="M181 0 L181 1251 Q181 1337 174 1453 L322 1483 L322 0 L181 0 Z " />
<glyph glyph-name="m" unicode="m" horiz-adv-x="1684" d="M181 0 L181 666 Q181 845 172 983 L305 983 L318 815 Q472 1008 659 1008 Q871 1008 903 805 Q1061 1008 1251 1008 Q1431 1008 1481 862 Q1505 795 1505 632 L1505 0 L1364 0 L1364 656 Q1364 785 1341 833 Q1308 901 1219 901 Q1095 901 971 763 Q928 715 918 675 Q913 653 913 616 L913 0 L773 0 L773 656 Q773 784 749 833 Q717 901 631 901 Q503 901 380 763 Q336 715 326 675 Q321 653 321 615 L321 0 L181 0 Z " />
<glyph glyph-name="n" unicode="n" horiz-adv-x="1127" d="M181 0 L181 666 Q181 845 172 983 L305 983 L318 816 Q480 1008 678 1008 Q870 1008 924 863 Q949 796 949 632 L949 0 L809 0 L809 656 Q809 784 782 833 Q746 901 647 901 Q512 901 383 764 Q336 714 327 675 Q321 649 321 615 L321 0 L181 0 Z " />
<glyph glyph-name="o" unicode="o" horiz-adv-x="1076" d="M545 1008 Q740 1008 858 863 Q968 727 968 493 Q968 258 858 121 Q740 -25 539 -25 Q337 -25 219 121 Q109 259 109 491 Q109 729 219 863 Q340 1008 545 1008 Z M543 906 Q383 906 314 770 Q254 652 254 492 Q254 334 312 215 Q379 77 539 77 Q698 77 765 215 Q823 334 823 493 Q823 655 765 770 Q696 906 543 906 Z " />
<glyph glyph-name="p" unicode="p" horiz-adv-x="1077" d="M321 19 L321 -459 L181 -459 L181 666 Q181 845 172 983 L307 983 L317 879 Q435 1008 602 1008 Q808 1008 892 850 Q968 705 968 491 Q968 296 886 162 Q771 -25 537 -25 Q432 -25 321 19 Z M321 141 Q366 114 390 104 Q454 77 534 77 Q635 77 710 147 Q823 253 823 495 Q823 675 768 790 Q743 843 694 875 Q645 906 583 906 Q457 906 372 785 Q321 712 321 609 L321 141 Z " />
<glyph glyph-name="q" unicode="q" horiz-adv-x="1059" d="M754 118 Q641 -25 470 -25 Q336 -25 245 52 Q109 168 109 460 Q109 712 233 864 Q351 1008 568 1008 Q734 1008 908 948 Q895 770 895 607 L895 -459 L754 -459 L754 118 Z M754 865 Q667 906 566 906 Q407 906 330 777 Q254 649 254 444 Q254 277 307 180 Q363 77 487 77 Q623 77 706 198 Q745 255 752 307 Q754 317 754 393 L754 865 Z " />
<glyph glyph-name="r" unicode="r" horiz-adv-x="703" d="M181 0 L181 682 Q181 867 172 983 L307 983 Q314 897 316 810 Q368 906 417 952 Q476 1008 571 1008 Q628 1008 694 991 L664 874 Q605 898 562 898 Q465 898 381 754 Q336 676 327 627 Q321 594 321 557 L321 0 L181 0 Z " />
<glyph glyph-name="s" unicode="s" horiz-adv-x="826" d="M86 28 L116 147 Q229 76 380 76 Q507 76 563 132 Q606 176 606 262 Q606 320 576 354 Q542 392 491 416 Q452 434 393 458 Q240 522 181 571 Q107 633 107 746 Q107 1008 423 1008 Q559 1008 679 958 L635 846 Q543 907 427 907 Q334 907 286 865 Q243 827 243 761 Q243 703 287 666 Q330 630 457 578 Q612 516 670 462 Q742 396 742 273 Q742 -25 383 -25 Q217 -25 86 28 Z " />
<glyph glyph-name="t" unicode="t" horiz-adv-x="676" d="M209 877 L33 877 L38 983 L209 983 L223 1234 L349 1268 L349 983 L605 983 L600 877 L349 877 L349 300 Q349 178 376 131 Q407 77 488 77 Q566 77 633 116 L655 3 Q571 -25 471 -25 Q306 -25 252 70 Q209 144 209 281 L209 877 Z " />
<glyph glyph-name="u" unicode="u" horiz-adv-x="1085" d="M170 983 L310 983 L310 312 Q310 192 342 138 Q378 78 471 78 Q639 78 765 253 L765 983 L905 983 L905 242 Q905 118 921 0 L799 0 Q785 62 777 127 Q738 84 709 62 Q602 -25 456 -25 Q251 -25 195 135 Q170 206 170 382 L170 983 Z " />
<glyph glyph-name="v" unicode="v" horiz-adv-x="922" d="M391 0 L52 983 L197 983 L367 464 L393 384 L414 319 L444 223 L465 160 L490 239 L518 327 Q550 427 559 455 L733 983 L869 983 L522 0 L391 0 Z " />
<glyph glyph-name="w" unicode="w" horiz-adv-x="1470" d="M370 0 L59 983 L204 983 L354 473 Q361 449 377 394 Q392 340 420 247 L444 163 L469 251 Q506 383 530 471 L674 983 L808 983 L945 492 L964 424 L994 318 L1016 239 L1037 163 L1058 235 L1076 300 L1110 415 L1133 496 L1276 983 L1412 983 L1094 0 L964 0 L809 556 Q805 572 775 684 L759 742 L735 826 L713 747 L696 685 L675 612 L657 545 L501 0 L370 0 Z " />
<glyph glyph-name="x" unicode="x" horiz-adv-x="975" d="M416 514 L94 983 L246 983 L415 740 L442 701 L466 666 Q490 630 505 608 Q519 629 551 675 Q560 687 575 711 Q590 733 597 742 L767 983 L894 983 L568 515 L921 0 L768 0 L582 269 L555 308 L529 346 L499 390 L479 420 Q463 398 435 357 Q392 294 382 280 L185 0 L58 0 L416 514 Z " />
<glyph glyph-name="y" unicode="y" horiz-adv-x="894" d="M379 0 L32 983 L177 983 L353 449 Q362 422 405 287 Q417 250 467 95 Q507 234 522 290 Q559 423 566 445 L722 983 L858 983 L522 -81 Q458 -282 409 -352 Q326 -470 165 -470 Q102 -470 48 -459 L67 -354 Q122 -369 169 -369 Q261 -369 311 -299 Q362 -228 414 -66 L436 0 L379 0 Z " />
<glyph glyph-name="z" unicode="z" horiz-adv-x="879" d="M59 0 L55 91 L615 877 L100 877 L100 983 L771 983 L780 894 L219 106 L791 106 L791 0 L59 0 Z " />
<glyph glyph-name="braceleft" unicode="&#x7b;" horiz-adv-x="763" d="M304 652 Q400 612 428 572 Q457 530 463 461 Q465 444 465 317 L465 79 Q465 -53 469 -118 Q476 -230 537 -262 Q587 -288 653 -288 L705 -288 L705 -351 L602 -351 Q406 -351 355 -247 Q329 -195 322 -105 Q318 -59 318 48 L318 320 Q318 461 313 500 Q304 567 246 600 Q208 621 159 621 L123 621 L123 683 L159 683 Q244 683 286 737 Q314 773 317 860 Q318 879 318 984 L318 1141 Q318 1284 328 1350 Q345 1459 412 1500 Q480 1541 602 1541 L705 1541 L705 1478 L653 1478 Q584 1478 533 1450 Q476 1418 469 1308 Q465 1244 465 1110 L465 987 Q465 837 457 802 Q436 716 366 680 Q347 670 304 652 Z " />
<glyph glyph-name="bar" unicode="&#x7c;" horiz-adv-x="1180" d="M526 -420 L526 1413 L646 1413 L646 -420 L526 -420 Z " />
<glyph glyph-name="braceright" unicode="&#x7d;" horiz-adv-x="763" d="M459 652 Q416 670 397 680 Q327 716 306 802 Q298 837 298 987 L298 1110 Q298 1244 294 1308 Q287 1418 229 1450 Q179 1478 110 1478 L58 1478 L58 1541 L161 1541 Q357 1541 408 1437 Q433 1385 441 1294 Q445 1251 445 1141 L445 984 Q445 843 450 804 Q459 737 517 704 Q554 683 604 683 L640 683 L640 621 L604 621 Q518 621 477 567 Q449 530 446 444 Q445 425 445 320 L445 48 Q445 -95 434 -161 Q417 -270 350 -310 Q282 -351 161 -351 L58 -351 L58 -288 L110 -288 Q230 -288 270 -220 Q292 -184 296 -75 Q298 -32 298 79 L298 317 Q298 468 306 502 Q327 588 396 624 Q416 634 459 652 Z " />
<glyph glyph-name="asciitilde" unicode="&#x7e;" horiz-adv-x="1180" d="M299 569 L209 598 Q229 680 259 734 Q292 795 340 819 Q383 841 447 841 Q534 841 598 795 Q622 778 707 710 Q749 676 788 676 Q858 676 901 760 Q915 788 931 841 L1022 812 Q1001 730 975 680 Q915 569 781 569 Q708 569 652 603 Q626 618 575 660 Q519 704 502 716 Q473 734 441 734 Q373 734 330 651 Q316 624 299 569 Z " />
<glyph glyph-name="Adieresis" unicode="&#xc4;" horiz-adv-x="1257" d="M916 455 L329 455 L160 0 L13 0 L554 1413 L705 1413 L1244 0 L1084 0 L916 455 Z M879 561 L717 999 Q709 1021 659 1169 L639 1227 L623 1273 L607 1226 L589 1174 Q546 1046 534 1015 L367 561 L879 561 Z M462 1758 Q502 1758 530 1730 Q558 1703 558 1664 Q558 1625 530 1598 Q502 1570 463 1570 Q423 1570 395 1598 Q367 1625 367 1665 Q367 1704 395 1730 Q424 1758 462 1758 Z M801 1758 Q840 1758 868 1730 Q896 1703 896 1664 Q896 1625 868 1598 Q840 1570 801 1570 Q761 1570 733 1598 Q705 1625 705 1665 Q705 1703 733 1730 Q761 1758 801 1758 Z " />
<glyph glyph-name="Aring" unicode="&#xc5;" horiz-adv-x="1257" d="M916 455 L329 455 L160 0 L13 0 L554 1413 L705 1413 L1244 0 L1084 0 L916 455 Z M879 561 L717 999 Q709 1021 659 1169 L639 1227 L623 1273 L607 1226 L589 1174 Q546 1046 534 1015 L367 561 L879 561 Z M631 1880 Q718 1880 769 1823 Q813 1774 813 1699 Q813 1627 769 1579 Q719 1524 628 1524 Q537 1524 487 1579 Q443 1627 443 1699 Q443 1774 487 1823 Q538 1880 631 1880 Z M629 1824 Q584 1824 556 1782 Q536 1752 536 1702 Q536 1653 556 1622 Q584 1580 628 1580 Q672 1580 700 1622 Q720 1653 720 1702 Q720 1752 700 1782 Q672 1824 629 1824 Z " />
<glyph glyph-name="Ccedilla" unicode="&#xc7;" horiz-adv-x="1056" d="M1016 152 L1047 27 Q864 -25 688 -25 Q657 -25 622 -23 L557 -121 Q657 -127 705 -147 Q797 -186 797 -304 Q797 -496 548 -496 Q463 -496 370 -476 L384 -391 Q471 -419 536 -419 Q653 -419 653 -315 Q653 -195 519 -195 Q489 -195 450 -200 L437 -175 L537 -12 Q393 18 300 103 Q195 200 146 379 Q109 511 109 680 Q109 916 177 1094 Q310 1438 671 1438 Q797 1438 905 1408 Q934 1399 1003 1375 L971 1251 Q821 1331 675 1331 Q480 1331 379 1170 Q265 989 265 692 Q265 417 361 252 Q461 81 685 81 Q845 81 1016 152 Z " />
<glyph glyph-name="Eacute" unicode="&#xc9;" horiz-adv-x="1090" d="M194 0 L194 1413 L1028 1413 L1028 1307 L341 1307 L341 790 L864 790 L864 684 L341 684 L341 106 L1029 106 L1029 0 L194 0 Z M544 1544 L675 1792 L872 1792 L651 1544 L544 1544 Z " />
<glyph glyph-name="Ntilde" unicode="&#xd1;" horiz-adv-x="1409" d="M194 0 L194 1413 L397 1413 L893 531 Q915 492 988 358 L1042 261 L1088 177 Q1084 257 1084 392 L1084 473 L1084 557 L1084 1413 L1214 1413 L1214 0 L1031 0 L492 970 Q462 1024 401 1136 L363 1206 L320 1285 Q324 1209 324 1032 L324 966 L324 0 L194 0 Z M547 1550 L437 1550 Q492 1787 628 1787 Q702 1787 797 1711 Q860 1661 886 1661 Q928 1661 949 1716 Q957 1737 966 1778 L1077 1778 Q1065 1687 1038 1634 Q987 1536 873 1536 Q816 1536 772 1565 Q762 1572 712 1610 Q645 1661 619 1661 Q576 1661 547 1550 Z " />
<glyph glyph-name="Odieresis" unicode="&#xd6;" horiz-adv-x="1369" d="M694 1438 Q882 1438 1017 1338 Q1160 1232 1221 1018 Q1260 878 1260 706 Q1260 391 1130 193 Q986 -25 684 -25 Q383 -25 239 193 Q109 391 109 704 Q109 1025 239 1220 Q385 1438 694 1438 Z M691 1332 Q542 1332 437 1243 Q265 1096 265 703 Q265 426 358 264 Q410 174 505 124 Q586 81 685 81 Q827 81 932 170 Q1104 316 1104 706 Q1104 990 1011 1149 Q956 1242 864 1290 Q782 1332 691 1332 Z M515 1758 Q555 1758 583 1730 Q611 1703 611 1664 Q611 1625 583 1598 Q555 1570 516 1570 Q476 1570 448 1598 Q420 1625 420 1665 Q420 1704 448 1730 Q477 1758 515 1758 Z M854 1758 Q893 1758 921 1730 Q949 1703 949 1664 Q949 1625 921 1598 Q893 1570 854 1570 Q814 1570 786 1598 Q758 1625 758 1665 Q758 1703 786 1730 Q814 1758 854 1758 Z " />
<glyph glyph-name="Udieresis" unicode="&#xdc;" horiz-adv-x="1282" d="M186 1413 L333 1413 L333 514 Q333 281 380 199 Q447 81 650 81 Q869 81 931 221 Q966 301 966 514 L966 1413 L1096 1413 L1096 507 Q1096 383 1087 320 Q1060 140 943 57 Q827 -25 647 -25 Q465 -25 345 57 Q224 139 196 320 Q186 385 186 507 L186 1413 Z M472 1758 Q512 1758 540 1730 Q568 1703 568 1664 Q568 1625 540 1598 Q512 1570 473 1570 Q433 1570 405 1598 Q377 1625 377 1665 Q377 1704 405 1730 Q434 1758 472 1758 Z M811 1758 Q850 1758 878 1730 Q906 1703 906 1664 Q906 1625 878 1598 Q850 1570 811 1570 Q771 1570 743 1598 Q715 1625 715 1665 Q715 1703 743 1730 Q771 1758 811 1758 Z " />
<glyph glyph-name="aacute" unicode="&#xe1;" horiz-adv-x="1023" d="M706 626 L706 653 Q706 776 681 824 Q639 906 492 906 Q366 906 236 828 L199 937 Q331 1008 503 1008 Q742 1008 809 859 Q844 782 844 572 L844 239 Q844 126 860 0 L734 0 Q723 66 717 135 Q622 -25 397 -25 Q268 -25 197 26 Q105 93 105 254 Q105 490 317 567 Q411 601 548 615 Q573 617 686 624 L706 626 Z M704 531 Q537 519 456 501 Q250 456 250 257 Q250 76 423 76 Q572 76 658 194 Q692 242 700 298 Q704 326 704 374 L704 531 Z M439 1145 L570 1393 L767 1393 L546 1145 L439 1145 Z " />
<glyph glyph-name="agrave" unicode="&#xe0;" horiz-adv-x="1023" d="M706 626 L706 653 Q706 776 681 824 Q639 906 492 906 Q366 906 236 828 L199 937 Q331 1008 503 1008 Q742 1008 809 859 Q844 782 844 572 L844 239 Q844 126 860 0 L734 0 Q723 66 717 135 Q622 -25 397 -25 Q268 -25 197 26 Q105 93 105 254 Q105 490 317 567 Q411 601 548 615 Q573 617 686 624 L706 626 Z M704 531 Q537 519 456 501 Q250 456 250 257 Q250 76 423 76 Q572 76 658 194 Q692 242 700 298 Q704 326 704 374 L704 531 Z M514 1145 L292 1393 L490 1393 L620 1145 L514 1145 Z " />
<glyph glyph-name="acircumflex" unicode="&#xe2;" horiz-adv-x="1023" d="M706 626 L706 653 Q706 776 681 824 Q639 906 492 906 Q366 906 236 828 L199 937 Q331 1008 503 1008 Q742 1008 809 859 Q844 782 844 572 L844 239 Q844 126 860 0 L734 0 Q723 66 717 135 Q622 -25 397 -25 Q268 -25 197 26 Q105 93 105 254 Q105 490 317 567 Q411 601 548 615 Q573 617 686 624 L706 626 Z M704 531 Q537 519 456 501 Q250 456 250 257 Q250 76 423 76 Q572 76 658 194 Q692 242 700 298 Q704 326 704 374 L704 531 Z M511 1302 L337 1145 L214 1145 L420 1393 L602 1393 L808 1145 L686 1145 L511 1302 Z " />
<glyph glyph-name="adieresis" unicode="&#xe4;" horiz-adv-x="1023" d="M706 626 L706 653 Q706 776 681 824 Q639 906 492 906 Q366 906 236 828 L199 937 Q331 1008 503 1008 Q742 1008 809 859 Q844 782 844 572 L844 239 Q844 126 860 0 L734 0 Q723 66 717 135 Q622 -25 397 -25 Q268 -25 197 26 Q105 93 105 254 Q105 490 317 567 Q411 601 548 615 Q573 617 686 624 L706 626 Z M704 531 Q537 519 456 501 Q250 456 250 257 Q250 76 423 76 Q572 76 658 194 Q692 242 700 298 Q704 326 704 374 L704 531 Z M353 1359 Q393 1359 421 1331 Q449 1304 449 1265 Q449 1226 421 1199 Q393 1171 354 1171 Q314 1171 286 1199 Q258 1226 258 1266 Q258 1305 286 1331 Q315 1359 353 1359 Z M671 1359 Q710 1359 739 1331 Q766 1304 766 1265 Q766 1226 739 1199 Q710 1171 671 1171 Q632 1171 603 1199 Q576 1226 576 1266 Q576 1305 603 1331 Q632 1359 671 1359 Z " />
<glyph glyph-name="atilde" unicode="&#xe3;" horiz-adv-x="1023" d="M706 626 L706 653 Q706 776 681 824 Q639 906 492 906 Q366 906 236 828 L199 937 Q331 1008 503 1008 Q742 1008 809 859 Q844 782 844 572 L844 239 Q844 126 860 0 L734 0 Q723 66 717 135 Q622 -25 397 -25 Q268 -25 197 26 Q105 93 105 254 Q105 490 317 567 Q411 601 548 615 Q573 617 686 624 L706 626 Z M704 531 Q537 519 456 501 Q250 456 250 257 Q250 76 423 76 Q572 76 658 194 Q692 242 700 298 Q704 326 704 374 L704 531 Z M302 1151 L192 1151 Q246 1388 383 1388 Q457 1388 552 1312 Q615 1262 641 1262 Q684 1262 704 1317 Q712 1338 721 1379 L832 1379 Q820 1288 793 1235 Q742 1137 628 1137 Q571 1137 527 1166 Q517 1173 467 1211 Q399 1262 374 1262 Q331 1262 302 1151 Z " />
<glyph glyph-name="aring" unicode="&#xe5;" horiz-adv-x="1023" d="M706 626 L706 653 Q706 776 681 824 Q639 906 492 906 Q366 906 236 828 L199 937 Q331 1008 503 1008 Q742 1008 809 859 Q844 782 844 572 L844 239 Q844 126 860 0 L734 0 Q723 66 717 135 Q622 -25 397 -25 Q268 -25 197 26 Q105 93 105 254 Q105 490 317 567 Q411 601 548 615 Q573 617 686 624 L706 626 Z M704 531 Q537 519 456 501 Q250 456 250 257 Q250 76 423 76 Q572 76 658 194 Q692 242 700 298 Q704 326 704 374 L704 531 Z M539 1481 Q626 1481 677 1424 Q721 1375 721 1300 Q721 1227 677 1180 Q627 1125 536 1125 Q445 1125 395 1180 Q351 1228 351 1300 Q351 1375 395 1424 Q446 1481 539 1481 Z M537 1425 Q492 1425 464 1383 Q444 1353 444 1303 Q444 1254 464 1223 Q492 1181 536 1181 Q580 1181 608 1223 Q628 1254 628 1303 Q628 1353 608 1383 Q580 1425 537 1425 Z " />
<glyph glyph-name="ccedilla" unicode="&#xe7;" horiz-adv-x="828" d="M765 125 L796 10 Q687 -25 533 -25 Q526 -25 507 -25 L444 -121 Q544 -127 592 -147 Q684 -186 684 -304 Q684 -496 434 -496 Q349 -496 256 -476 L271 -391 Q358 -419 423 -419 Q540 -419 540 -314 Q540 -195 405 -195 Q375 -195 336 -200 L324 -175 L421 -16 Q109 43 109 466 Q109 731 229 880 Q333 1008 534 1008 Q670 1008 777 954 L733 842 Q646 906 540 906 Q407 906 336 800 Q254 678 254 479 Q254 311 315 205 Q389 77 550 77 Q656 77 765 125 Z " />
<glyph glyph-name="eacute" unicode="&#xe9;" horiz-adv-x="1007" d="M909 483 L253 483 Q255 346 286 261 Q321 165 392 122 Q469 76 592 76 Q717 76 848 125 L878 14 Q746 -25 571 -25 Q335 -25 225 99 Q109 228 109 475 Q109 708 208 852 Q315 1008 541 1008 Q910 1008 910 542 Q910 532 909 483 Z M769 583 Q766 698 737 777 Q689 907 533 907 Q293 907 258 583 L769 583 Z M433 1145 L564 1393 L761 1393 L540 1145 L433 1145 Z " />
<glyph glyph-name="egrave" unicode="&#xe8;" horiz-adv-x="1007" d="M909 483 L253 483 Q255 346 286 261 Q321 165 392 122 Q469 76 592 76 Q717 76 848 125 L878 14 Q746 -25 571 -25 Q335 -25 225 99 Q109 228 109 475 Q109 708 208 852 Q315 1008 541 1008 Q910 1008 910 542 Q910 532 909 483 Z M769 583 Q766 698 737 777 Q689 907 533 907 Q293 907 258 583 L769 583 Z M542 1145 L320 1393 L518 1393 L648 1145 L542 1145 Z " />
<glyph glyph-name="ecircumflex" unicode="&#xea;" horiz-adv-x="1007" d="M909 483 L253 483 Q255 346 286 261 Q321 165 392 122 Q469 76 592 76 Q717 76 848 125 L878 14 Q746 -25 571 -25 Q335 -25 225 99 Q109 228 109 475 Q109 708 208 852 Q315 1008 541 1008 Q910 1008 910 542 Q910 532 909 483 Z M769 583 Q766 698 737 777 Q689 907 533 907 Q293 907 258 583 L769 583 Z M540 1302 L366 1145 L243 1145 L449 1393 L631 1393 L837 1145 L715 1145 L540 1302 Z " />
<glyph glyph-name="edieresis" unicode="&#xeb;" horiz-adv-x="1007" d="M909 483 L253 483 Q255 346 286 261 Q321 165 392 122 Q469 76 592 76 Q717 76 848 125 L878 14 Q746 -25 571 -25 Q335 -25 225 99 Q109 228 109 475 Q109 708 208 852 Q315 1008 541 1008 Q910 1008 910 542 Q910 532 909 483 Z M769 583 Q766 698 737 777 Q689 907 533 907 Q293 907 258 583 L769 583 Z M381 1359 Q421 1359 449 1331 Q477 1304 477 1265 Q477 1226 449 1199 Q421 1171 382 1171 Q342 1171 314 1199 Q286 1226 286 1266 Q286 1305 314 1331 Q343 1359 381 1359 Z M699 1359 Q738 1359 767 1331 Q794 1304 794 1265 Q794 1226 767 1199 Q738 1171 699 1171 Q660 1171 631 1199 Q604 1226 604 1266 Q604 1305 631 1331 Q660 1359 699 1359 Z " />
<glyph glyph-name="iacute" unicode="&#xed;" horiz-adv-x="501" d="M180 0 L180 983 L320 983 L320 0 L180 0 Z M172 1145 L303 1393 L500 1393 L279 1145 L172 1145 Z " />
<glyph glyph-name="igrave" unicode="&#xec;" horiz-adv-x="501" d="M181 0 L181 983 L321 983 L321 0 L181 0 Z M235 1145 L13 1393 L211 1393 L341 1145 L235 1145 Z " />
<glyph glyph-name="icircumflex" unicode="&#xee;" horiz-adv-x="501" d="M180 0 L180 983 L320 983 L320 0 L180 0 Z M250 1302 L76 1145 L-47 1145 L159 1393 L341 1393 L547 1145 L425 1145 L250 1302 Z " />
<glyph glyph-name="idieresis" unicode="&#xef;" horiz-adv-x="501" d="M180 0 L180 983 L320 983 L320 0 L180 0 Z M92 1359 Q132 1359 160 1331 Q188 1304 188 1265 Q188 1226 160 1199 Q132 1171 93 1171 Q53 1171 25 1199 Q-3 1226 -3 1266 Q-3 1305 25 1331 Q54 1359 92 1359 Z M410 1359 Q449 1359 478 1331 Q505 1304 505 1265 Q505 1226 478 1199 Q449 1171 410 1171 Q371 1171 342 1199 Q315 1226 315 1266 Q315 1305 342 1331 Q371 1359 410 1359 Z " />
<glyph glyph-name="ntilde" unicode="&#xf1;" horiz-adv-x="1127" d="M181 0 L181 666 Q181 845 172 983 L305 983 L318 816 Q480 1008 678 1008 Q870 1008 924 863 Q949 796 949 632 L949 0 L809 0 L809 656 Q809 784 782 833 Q746 901 647 901 Q512 901 383 764 Q336 714 327 675 Q321 649 321 615 L321 0 L181 0 Z M348 1151 L238 1151 Q292 1388 429 1388 Q503 1388 598 1312 Q661 1262 687 1262 Q730 1262 750 1317 Q758 1338 767 1379 L878 1379 Q866 1288 839 1235 Q788 1137 674 1137 Q617 1137 573 1166 Q563 1173 513 1211 Q445 1262 420 1262 Q377 1262 348 1151 Z " />
<glyph glyph-name="oacute" unicode="&#xf3;" horiz-adv-x="1076" d="M545 1008 Q740 1008 858 863 Q968 727 968 493 Q968 258 858 121 Q740 -25 539 -25 Q337 -25 219 121 Q109 259 109 491 Q109 729 219 863 Q340 1008 545 1008 Z M543 906 Q383 906 314 770 Q254 652 254 492 Q254 334 312 215 Q379 77 539 77 Q698 77 765 215 Q823 334 823 493 Q823 655 765 770 Q696 906 543 906 Z M465 1145 L596 1393 L793 1393 L572 1145 L465 1145 Z " />
<glyph glyph-name="ograve" unicode="&#xf2;" horiz-adv-x="1076" d="M545 1008 Q740 1008 858 863 Q968 727 968 493 Q968 258 858 121 Q740 -25 539 -25 Q337 -25 219 121 Q109 259 109 491 Q109 729 219 863 Q340 1008 545 1008 Z M543 906 Q383 906 314 770 Q254 652 254 492 Q254 334 312 215 Q379 77 539 77 Q698 77 765 215 Q823 334 823 493 Q823 655 765 770 Q696 906 543 906 Z M540 1145 L318 1393 L516 1393 L646 1145 L540 1145 Z " />
<glyph glyph-name="ocircumflex" unicode="&#xf4;" horiz-adv-x="1076" d="M545 1008 Q740 1008 858 863 Q968 727 968 493 Q968 258 858 121 Q740 -25 539 -25 Q337 -25 219 121 Q109 259 109 491 Q109 729 219 863 Q340 1008 545 1008 Z M543 906 Q383 906 314 770 Q254 652 254 492 Q254 334 312 215 Q379 77 539 77 Q698 77 765 215 Q823 334 823 493 Q823 655 765 770 Q696 906 543 906 Z M538 1302 L364 1145 L241 1145 L447 1393 L629 1393 L835 1145 L713 1145 L538 1302 Z " />
<glyph glyph-name="odieresis" unicode="&#xf6;" horiz-adv-x="1076" d="M545 1008 Q740 1008 858 863 Q968 727 968 493 Q968 258 858 121 Q740 -25 539 -25 Q337 -25 219 121 Q109 259 109 491 Q109 729 219 863 Q340 1008 545 1008 Z M543 906 Q383 906 314 770 Q254 652 254 492 Q254 334 312 215 Q379 77 539 77 Q698 77 765 215 Q823 334 823 493 Q823 655 765 770 Q696 906 543 906 Z M379 1359 Q419 1359 447 1331 Q475 1304 475 1265 Q475 1226 447 1199 Q419 1171 380 1171 Q340 1171 312 1199 Q284 1226 284 1266 Q284 1305 312 1331 Q341 1359 379 1359 Z M697 1359 Q736 1359 765 1331 Q792 1304 792 1265 Q792 1226 765 1199 Q736 1171 697 1171 Q658 1171 629 1199 Q602 1226 602 1266 Q602 1305 629 1331 Q658 1359 697 1359 Z " />
<glyph glyph-name="otilde" unicode="&#xf5;" horiz-adv-x="1076" d="M545 1008 Q740 1008 858 863 Q968 727 968 493 Q968 258 858 121 Q740 -25 539 -25 Q337 -25 219 121 Q109 259 109 491 Q109 729 219 863 Q340 1008 545 1008 Z M543 906 Q383 906 314 770 Q254 652 254 492 Q254 334 312 215 Q379 77 539 77 Q698 77 765 215 Q823 334 823 493 Q823 655 765 770 Q696 906 543 906 Z M328 1151 L218 1151 Q272 1388 409 1388 Q483 1388 578 1312 Q641 1262 667 1262 Q710 1262 730 1317 Q738 1338 747 1379 L858 1379 Q846 1288 819 1235 Q768 1137 654 1137 Q597 1137 553 1166 Q543 1173 493 1211 Q425 1262 400 1262 Q357 1262 328 1151 Z " />
<glyph glyph-name="uacute" unicode="&#xfa;" horiz-adv-x="1085" d="M170 983 L310 983 L310 312 Q310 192 342 138 Q378 78 471 78 Q639 78 765 253 L765 983 L905 983 L905 242 Q905 118 921 0 L799 0 Q785 62 777 127 Q738 84 709 62 Q602 -25 456 -25 Q251 -25 195 135 Q170 206 170 382 L170 983 Z M453 1145 L584 1393 L781 1393 L560 1145 L453 1145 Z " />
<glyph glyph-name="ugrave" unicode="&#xf9;" horiz-adv-x="1085" d="M170 983 L310 983 L310 312 Q310 192 342 138 Q378 78 471 78 Q639 78 765 253 L765 983 L905 983 L905 242 Q905 118 921 0 L799 0 Q785 62 777 127 Q738 84 709 62 Q602 -25 456 -25 Q251 -25 195 135 Q170 206 170 382 L170 983 Z M544 1145 L322 1393 L520 1393 L650 1145 L544 1145 Z " />
<glyph glyph-name="ucircumflex" unicode="&#xfb;" horiz-adv-x="1085" d="M170 983 L310 983 L310 312 Q310 192 342 138 Q378 78 471 78 Q639 78 765 253 L765 983 L905 983 L905 242 Q905 118 921 0 L799 0 Q785 62 777 127 Q738 84 709 62 Q602 -25 456 -25 Q251 -25 195 135 Q170 206 170 382 L170 983 Z M542 1302 L368 1145 L245 1145 L451 1393 L633 1393 L839 1145 L717 1145 L542 1302 Z " />
<glyph glyph-name="udieresis" unicode="&#xfc;" horiz-adv-x="1085" d="M170 983 L310 983 L310 312 Q310 192 342 138 Q378 78 471 78 Q639 78 765 253 L765 983 L905 983 L905 242 Q905 118 921 0 L799 0 Q785 62 777 127 Q738 84 709 62 Q602 -25 456 -25 Q251 -25 195 135 Q170 206 170 382 L170 983 Z M383 1359 Q423 1359 451 1331 Q479 1304 479 1265 Q479 1226 451 1199 Q423 1171 384 1171 Q344 1171 316 1199 Q288 1226 288 1266 Q288 1305 316 1331 Q345 1359 383 1359 Z M701 1359 Q740 1359 769 1331 Q796 1304 796 1265 Q796 1226 769 1199 Q740 1171 701 1171 Q662 1171 633 1199 Q606 1226 606 1266 Q606 1305 633 1331 Q662 1359 701 1359 Z " />
<glyph glyph-name="dagger" unicode="&#x2020;" horiz-adv-x="1070" d="M464 825 L125 825 L126 933 L464 933 L464 1413 L605 1413 L605 933 L946 933 L946 825 L605 825 L605 -417 L464 -417 L464 825 Z " />
<glyph glyph-name="degree" unicode="&#xb0;" horiz-adv-x="456" d="M229 1540 Q325 1540 388 1479 Q452 1417 452 1328 Q452 1239 387 1175 Q325 1114 228 1114 Q129 1114 67 1175 Q2 1238 2 1326 Q2 1417 67 1479 Q131 1540 229 1540 Z M229 1467 Q179 1467 149 1431 Q117 1393 117 1326 Q117 1261 149 1223 Q178 1187 227 1187 Q277 1187 306 1223 Q338 1261 338 1328 Q338 1393 306 1431 Q276 1467 229 1467 Z " />
<glyph glyph-name="cent" unicode="&#xa2;" horiz-adv-x="1180" d="M603 185 L603 390 Q511 401 463 416.5 Q415 432 368 465 Q194 589 194 872 Q194 1077 279 1212 Q370 1356 523 1395 Q556 1403 603 1409 L603 1597 L715 1597 L715 1417 Q855 1409 945 1363 L902 1252 Q856 1286 801 1303 Q775 1310 715 1315 L715 488 Q831 491 934 537 L965 421 Q871 391 715 387 L715 185 L603 185 Z M603 1303 Q511 1283 451 1219 Q338 1096 338 880 Q338 659 469 555 Q521 514 603 498 L603 1303 Z " />
<glyph glyph-name="sterling" unicode="&#xa3;" horiz-adv-x="1180" d="M313 666 L122 666 L129 772 L315 772 L315 967 Q315 1104 336 1182 Q375 1323 496 1386 Q596 1438 742 1438 Q887 1438 1051 1392 L1018 1270 Q868 1332 748 1332 Q576 1332 507 1213 Q460 1131 460 963 L460 772 L743 772 L735 666 L460 666 L460 112 L1089 112 L1081 0 L155 0 L163 112 L313 112 L313 666 Z " />
<glyph glyph-name="section" unicode="&#xa7;" horiz-adv-x="1173" d="M235 -151 L262 -21 Q423 -119 560 -119 Q650 -119 706 -79 Q776 -29 776 73 Q776 152 736 199 Q704 238 651 260 Q601 280 532 301 Q401 341 344 373 Q208 451 208 612 Q208 779 376 881 Q261 969 261 1129 Q261 1286 369 1369 Q459 1438 604 1438 Q726 1438 871 1391 L844 1262 Q717 1332 612 1332 Q523 1332 468 1292 Q398 1242 398 1140 Q398 1061 438 1014 Q469 975 522 953 Q572 933 641 912 Q830 855 893 791 Q964 719 964 602 Q964 467 869 384 Q842 362 797 332 Q848 293 872 251 Q912 183 912 85 Q912 -73 804 -156 Q713 -225 568 -225 Q412 -225 235 -151 Z M734 369 Q769 392 791 424 Q829 479 829 567 Q829 654 794 693 Q762 727 712 745 L582 792 L439 845 Q403 821 381 790 Q343 735 343 646 Q343 560 378 521 Q407 489 459 468 Q493 455 565 429 L734 369 Z " />
<glyph glyph-name="bullet" unicode="&#x2022;" horiz-adv-x="1180" d="M385 986 L884 986 Q942 986 969 956 Q989 933 989 900 Q989 881 987 867 L916 366 Q908 309 881 285 Q853 261 795 261 L296 261 Q191 261 191 347 Q191 365 193 379 L264 881 Q272 938 300 962 Q327 986 385 986 Z " />
<glyph glyph-name="paragraph" unicode="&#xb6;" horiz-adv-x="1252" d="M560 -387 L560 713 L480 713 Q415 713 390 715 Q267 728 189 836 Q120 932 120 1065 Q120 1213 201 1309 Q278 1399 408 1409 Q451 1413 607 1413 L972 1413 L972 -387 L853 -387 L853 1305 L679 1305 L679 -387 L560 -387 Z " />
<glyph glyph-name="germandbls" unicode="&#xdf;" horiz-adv-x="1114" d="M198 1 L198 1009 Q198 1221 267 1326 Q367 1476 590 1476 Q775 1476 861 1378 Q928 1301 928 1169 Q928 1070 885 1019 Q854 981 775 924 Q721 885 706 866 Q681 834 681 789 Q681 728 732 679 Q757 655 853 599 Q972 530 1016 464 Q1065 391 1065 276 Q1065 128 988 54 Q904 -25 755 -25 Q659 -25 559 -1 L588 111 Q670 77 757 77 Q842 77 885 130 Q929 184 929 268 Q929 346 899 395 Q874 436 781 489 Q662 558 615 606 Q551 672 551 775 Q551 846 585 894 Q619 942 694 992 Q765 1040 784 1069 Q810 1109 810 1177 Q810 1374 590 1374 Q436 1374 379 1257 Q338 1173 338 979 L338 0 L198 1 Z " />
<glyph glyph-name="registered" unicode="&#xae;" horiz-adv-x="1188" d="M434 754 L434 1302 L606 1302 Q810 1302 810 1151 Q810 1066 740 1025 Q716 1011 676 1004 Q709 981 735 930 L824 754 L726 754 L657 886 Q619 962 607 978 Q595 994 575 994 L524 994 L524 754 L434 754 Z M524 1048 L593 1048 Q718 1048 718 1153 Q718 1202 686 1225 Q659 1244 584 1244 L524 1244 L524 1048 Z M601 1568 Q823 1568 976 1421 Q1139 1265 1139 1022 Q1139 780 976 624 Q823 477 594 477 Q365 477 212 624 Q49 780 49 1021 Q49 1268 212 1421 Q369 1568 601 1568 Z M600 1491 Q403 1491 279 1360 Q218 1296 184 1202 Q153 1114 153 1020 Q153 888 214 774 Q275 660 390 602 Q485 554 594 554 Q785 554 909 684 Q1035 816 1035 1021 Q1035 1226 909 1360 Q850 1423 767 1457 Q685 1491 600 1491 Z " />
<glyph glyph-name="copyright" unicode="&#xa9;" horiz-adv-x="1701" d="M1056 461 L1060 378 Q988 353 896 353 Q752 353 665 440 Q570 535 570 714 Q570 926 685 1026 Q768 1098 899 1098 Q992 1098 1059 1074 L1040 995 Q961 1028 894 1028 Q792 1028 737 948 Q678 863 678 725 Q678 589 737 506 Q792 427 898 427 Q978 427 1056 461 Z M861 1460 Q1177 1460 1388 1246 Q1599 1031 1599 711 Q1599 392 1388 177 Q1177 -37 851 -37 Q524 -37 313 177 Q217 275 162 405 Q102 548 102 709 Q102 934 212 1116 Q314 1285 491 1378 Q649 1460 861 1460 Z M859 1378 Q567 1378 382 1177 Q211 991 211 710 Q211 433 382 246 Q566 45 851 45 Q1136 45 1319 246 Q1490 432 1490 712 Q1490 996 1319 1177 Q1130 1378 859 1378 Z " />
<glyph glyph-name="trademark" unicode="&#x2122;" horiz-adv-x="1623" d="M243 566 L243 1330 L-9 1330 L-9 1413 L623 1413 L623 1330 L371 1330 L371 566 L243 566 Z M670 566 L731 1413 L894 1413 L1063 953 Q1091 877 1130 755 Q1167 876 1195 958 L1353 1413 L1522 1413 L1581 566 L1448 566 L1415 1075 L1412 1125 L1408 1189 L1404 1259 L1381 1188 Q1351 1099 1345 1080 L1168 566 L1085 566 L900 1075 Q896 1087 883 1126 Q873 1156 836 1260 L831 1186 L827 1120 L825 1076 L792 566 L670 566 Z " />
<glyph glyph-name="acute" unicode="&#xb4;" horiz-adv-x="1024" d="M404 1145 L535 1393 L732 1393 L511 1145 L404 1145 Z " />
<glyph glyph-name="dieresis" unicode="&#xa8;" horiz-adv-x="1024" d="M352 1359 Q392 1359 420 1331 Q448 1304 448 1265 Q448 1226 420 1199 Q392 1171 353 1171 Q313 1171 285 1199 Q257 1226 257 1266 Q257 1305 285 1331 Q314 1359 352 1359 Z M670 1359 Q709 1359 738 1331 Q765 1304 765 1265 Q765 1226 738 1199 Q709 1171 670 1171 Q631 1171 602 1199 Q575 1226 575 1266 Q575 1305 602 1331 Q631 1359 670 1359 Z " />
<glyph glyph-name="notequal" unicode="&#x2260;" horiz-adv-x="1180" d="M97 494 L98 602 L478 602 L571 807 L97 807 L98 915 L618 915 L717 1134 L818 1086 L740 915 L1084 915 L1082 807 L693 807 L600 602 L1084 602 L1082 494 L553 494 L463 294 L362 341 L431 494 L97 494 Z " />
<glyph glyph-name="AE" unicode="&#xc6;" horiz-adv-x="1670" d="M775 454 L318 454 L87 0 L-85 0 Q-29 97 59 259 L545 1154 Q551 1165 674 1413 L1609 1413 L1609 1307 L922 1307 L922 790 L1444 790 L1444 684 L922 684 L922 106 L1610 106 L1610 0 L775 0 L775 454 Z M775 560 L775 1307 L762 1307 L372 560 L775 560 Z " />
<glyph glyph-name="Oslash" unicode="&#xd8;" horiz-adv-x="1371" d="M80 26 L227 212 Q109 415 109 705 Q109 1022 239 1220 Q382 1438 684 1438 Q923 1438 1074 1290 L1199 1448 L1289 1381 L1143 1198 Q1260 990 1260 709 Q1260 391 1130 193 Q986 -25 686 -25 Q448 -25 297 120 L170 -41 L80 26 Z M324 338 L990 1180 Q877 1332 683 1332 Q541 1332 437 1243 Q265 1097 265 709 Q265 485 324 338 Z M381 230 Q496 81 685 81 Q828 81 932 170 Q1104 316 1104 707 Q1104 917 1047 1071 L381 230 Z " />
<glyph glyph-name="infinity" unicode="&#x221e;" horiz-adv-x="1199" d="M600 638 Q486 429 289 429 Q162 429 78 506 Q-10 588 -10 723 Q-10 858 78 940 Q162 1017 289 1017 Q486 1017 600 809 Q713 1017 911 1017 Q1038 1017 1121 940 Q1210 858 1210 723 Q1210 588 1121 506 Q1038 429 911 429 Q715 429 600 638 Z M564 723 Q448 955 287 955 Q207 955 157 892 Q106 828 106 723 Q106 618 158 554 Q207 491 287 491 Q401 491 492 609 Q522 648 545 688 Q565 722 564 723 Z M635 723 Q750 491 913 491 Q992 491 1043 554 Q1094 618 1094 723 Q1094 828 1043 892 Q993 955 913 955 Q799 955 707 837 Q677 798 654 759 Q635 725 635 723 Z " />
<glyph glyph-name="plusminus" unicode="&#xb1;" horiz-adv-x="1180" d="M97 655 L99 763 L531 763 L531 1217 L651 1217 L651 763 L1084 763 L1083 655 L651 655 L651 204 L531 204 L531 655 L97 655 Z M97 0 L98 107 L1084 107 L1083 0 L97 0 Z " />
<glyph glyph-name="lessequal" unicode="&#x2264;" horiz-adv-x="1180" d="M143 0 L143 106 L1010 106 L1010 0 L143 0 Z M262 710 L1010 306 L1010 182 L143 662 L143 757 L1010 1238 L1010 1113 L262 710 Z " />
<glyph glyph-name="greaterequal" unicode="&#x2265;" horiz-adv-x="1180" d="M169 0 L169 106 L1036 106 L1036 0 L169 0 Z M917 710 L169 1113 L169 1238 L1036 757 L1036 662 L169 182 L169 306 L917 710 Z " />
<glyph glyph-name="yen" unicode="&#xa5;" horiz-adv-x="1180" d="M499 0 L499 301 L126 301 L126 395 L499 395 L499 527 L488 547 L126 547 L126 641 L439 641 L30 1413 L186 1413 L440 919 Q450 901 478 845 Q495 812 558 688 L575 654 L596 695 L638 776 Q696 889 713 922 L973 1413 L1118 1413 L706 641 L1022 641 L1022 547 L657 547 L646 527 L646 395 L1022 395 L1022 301 L646 301 L646 0 L499 0 Z " />
<glyph glyph-name="mu" unicode="&#xb5;" horiz-adv-x="1180" d="M207 -489 L207 983 L354 983 L354 324 Q354 214 376 155 Q408 68 506 68 Q659 68 819 323 L819 983 L964 983 L964 0 L825 0 L817 158 Q774 108 749 83 Q634 -34 483 -34 Q415 -34 354 -3 L354 -447 L207 -489 Z " />
<glyph glyph-name="partialdiff" unicode="&#x2202;" horiz-adv-x="1180" d="M784 954 Q778 966 770 985 Q729 1082 641 1184 Q573 1261 448 1305 Q383 1327 327 1334 L342 1422 Q507 1404 616 1348 Q791 1257 897 1027 Q946 918 984 768 Q1020 623 1020 483 Q1020 258 910 121 Q793 -25 591 -25 Q389 -25 271 121 Q161 258 161 492 Q161 724 271 861 Q388 1006 585 1006 Q686 1006 784 954 Z M595 904 Q435 904 366 768 Q306 650 306 491 Q306 333 364 214 Q432 77 591 77 Q750 77 817 214 Q875 333 875 492 Q875 653 817 768 Q748 904 595 904 Z " />
<glyph glyph-name="summation" unicode="&#x2211;" horiz-adv-x="1180" d="M1113 1565 L1113 1459 L223 1459 L751 561 L236 -415 L1133 -415 L1133 -521 L92 -521 L92 -375 L591 564 L83 1425 L83 1565 L1113 1565 Z " />
<glyph glyph-name="product" unicode="&#x220f;" horiz-adv-x="1199" d="M961 1459 L239 1459 L239 -521 L92 -521 L92 1565 L1108 1565 L1108 -521 L961 -521 L961 1459 Z " />
<glyph glyph-name="pi" unicode="&#x3c0;" horiz-adv-x="1100" d="M207 0 L207 877 L72 877 L73 983 L1027 983 L1026 877 L891 877 L891 0 L754 0 L755 877 L344 877 L343 0 L207 0 Z " />
<glyph glyph-name="integral" unicode="&#x222b;" horiz-adv-x="1180" d="M280 -475 L295 -364 Q338 -376 384 -376 Q473 -376 498 -301 Q514 -254 514 -142 L514 1190 Q514 1331 527 1407 Q559 1598 779 1598 Q844 1598 900 1583 L885 1472 Q841 1484 796 1484 Q707 1484 682 1409 Q667 1362 667 1250 L667 -82 Q667 -224 653 -303 Q621 -490 400 -490 Q338 -490 280 -475 Z " />
<glyph glyph-name="ordfeminine" unicode="&#xaa;" horiz-adv-x="717" d="M465 1188 L465 1198 Q465 1278 447 1311 Q421 1359 338 1359 Q251 1359 158 1322 L142 1398 Q241 1432 344 1432 Q518 1432 567 1331 Q592 1279 592 1138 L592 821 L480 821 L473 877 Q397 805 279 805 Q87 805 87 976 Q87 1125 266 1167 Q329 1182 465 1188 Z M465 1125 Q383 1120 336 1110 Q220 1086 220 982 Q220 874 317 874 Q367 874 411 910 Q465 952 465 1046 L465 1125 Z " />
<glyph glyph-name="ordmasculine" unicode="&#xba;" horiz-adv-x="719" d="M365 1432 Q498 1432 568 1349 Q638 1266 638 1118 Q638 971 568 888 Q498 805 360 805 Q222 805 152 888 Q82 971 82 1117 Q82 1267 152 1349 Q223 1432 365 1432 Z M363 1363 Q217 1363 217 1117 Q217 1019 244 956 Q280 874 361 874 Q442 874 477 956 Q505 1020 505 1118 Q505 1219 478 1281 Q441 1363 363 1363 Z " />
<glyph glyph-name="uni2126" unicode="&#x2126;" horiz-adv-x="1381" d="M104 0 L104 107 L446 107 Q429 119 384 150 Q280 223 204 330 Q90 492 90 726 Q90 969 199 1162 Q357 1442 693 1442 Q1030 1442 1187 1162 Q1297 969 1297 727 Q1297 414 1082 215 Q1059 194 941 107 L1283 107 L1283 0 L772 0 L772 85 Q886 144 986 254 Q1063 339 1098 435 Q1141 554 1141 728 Q1141 949 1061 1107 Q944 1336 694 1336 Q444 1336 326 1107 Q246 949 246 729 Q246 502 320 366 Q380 256 505 155 Q551 118 614 85 L614 0 L104 0 Z " />
<glyph glyph-name="ae" unicode="&#xe6;" horiz-adv-x="1609" d="M783 178 Q746 124 714 92 Q598 -25 398 -25 Q104 -25 104 249 Q104 389 191 472 Q285 563 472 585 Q533 592 685 599 L705 600 L705 653 Q705 777 680 825 Q637 906 494 906 Q369 906 242 828 L198 937 Q345 1008 497 1008 Q743 1008 812 845 Q917 1008 1136 1008 Q1367 1008 1455 834 Q1486 773 1501 671 Q1511 605 1511 549 Q1511 541 1510 503 Q1510 496 1510 483 L854 483 Q856 348 887 262 Q922 165 993 123 Q1070 77 1193 77 Q1318 77 1450 125 L1479 14 Q1350 -25 1174 -25 Q964 -25 855 78 Q816 115 783 178 Z M709 498 Q561 493 455 475 Q249 442 249 253 Q249 76 422 76 Q571 76 657 193 Q709 264 709 371 L709 498 Z M1370 583 Q1368 694 1338 777 Q1290 907 1133 907 Q968 907 900 747 Q869 673 859 583 L1370 583 Z " />
<glyph glyph-name="oslash" unicode="&#xf8;" horiz-adv-x="1079" d="M89 24 L196 153 Q108 284 108 495 Q108 726 219 863 Q336 1008 538 1008 Q699 1008 815 909 L908 1022 L988 959 L882 831 Q915 780 931 738 Q969 638 969 491 Q969 258 859 121 Q741 -25 540 -25 Q377 -25 263 75 L170 -39 L89 24 Z M290 271 L738 814 Q662 906 539 906 Q382 906 313 770 Q253 651 253 494 Q253 380 290 271 Z M339 170 Q413 77 539 77 Q698 77 766 215 Q824 334 824 494 Q824 603 788 713 L339 170 Z " />
<glyph glyph-name="questiondown" unicode="&#xbf;" horiz-adv-x="864" d="M438 595 L543 595 L543 466 Q543 350 506 287 Q484 251 348 104 Q233 -20 233 -163 Q233 -370 484 -370 Q596 -370 737 -305 L767 -430 Q608 -472 479 -472 Q267 -472 167 -374 Q134 -341 111 -284 Q88 -225 88 -163 Q88 -57 149 37 Q197 111 283 198 Q378 293 394 315 Q429 363 435 429 Q438 458 438 498 L438 595 Z M486 1010 Q538 1010 572 972 Q600 940 600 897 Q600 850 564 816 Q531 786 484 786 Q434 786 401 825 Q373 858 373 898 Q373 945 410 980 Q441 1010 486 1010 Z " />
<glyph glyph-name="exclamdown" unicode="&#xa1;" horiz-adv-x="618" d="M360 595 L396 -459 L225 -459 L261 595 L360 595 Z M310 1010 Q361 1010 396 972 Q424 940 424 897 Q424 850 388 816 Q355 786 308 786 Q258 786 225 825 Q197 858 197 898 Q197 945 233 980 Q265 1010 310 1010 Z " />
<glyph glyph-name="logicalnot" unicode="&#xac;" horiz-adv-x="1180" d="M144 652 L144 758 L977 758 L977 218 L857 218 L857 652 L144 652 Z " />
<glyph glyph-name="radical" unicode="&#x221a;" horiz-adv-x="1180" d="M417 0 L251 638 L71 638 L71 728 L349 728 L446 362 Q450 345 464 289 Q470 262 491 178 L506 121 L520 182 Q562 360 564 368 L921 1713 L1413 1713 L1413 1623 L1026 1623 L582 0 L417 0 Z " />
<glyph glyph-name="florin" unicode="&#x192;" horiz-adv-x="1180" d="M492 666 L308 666 L315 772 L517 772 L587 1126 Q613 1253 684 1329 Q775 1424 905 1424 Q987 1424 1079 1392 L1058 1284 Q979 1318 919 1318 Q849 1318 797 1275 Q740 1227 704 1051 L648 772 L906 772 L898 666 L623 666 L462 -127 Q429 -287 375 -350 Q300 -436 112 -436 Q42 -436 -32 -416 L-2 -314 Q59 -330 108 -330 Q228 -330 278 -263 Q314 -214 344 -65 L492 666 Z " />
<glyph glyph-name="approxequal" unicode="&#x2248;" horiz-adv-x="1180" d="M274 752 L184 781 Q204 864 234 918 Q267 979 315 1003 Q358 1025 422 1025 Q509 1025 573 979 Q597 961 682 893 Q724 859 763 859 Q833 859 876 944 Q890 971 906 1025 L997 995 Q976 913 950 863 Q890 752 756 752 Q682 752 627 786 Q602 801 550 843 Q494 888 477 899 Q448 918 416 918 Q348 918 305 835 Q291 807 274 752 Z M274 386 L184 415 Q204 497 234 551 Q267 612 315 636 Q359 658 425 658 Q509 658 573 612 Q594 596 682 527 Q724 493 763 493 Q833 493 876 577 Q891 606 906 658 L997 629 Q976 547 950 497 Q890 386 756 386 Q683 386 627 420 Q601 436 550 477 Q493 522 477 532 Q448 551 416 551 Q323 551 274 386 Z " />
<glyph glyph-name="Delta" unicode="&#x2206;" horiz-adv-x="1180" d="M1183 0 L-5 0 L518 1413 L662 1413 L1183 0 Z M1006 97 L675 1027 Q643 1120 625 1171 Q603 1231 579 1300 Q559 1239 511 1100 L486 1031 L159 97 L1006 97 Z " />
<glyph glyph-name="guillemotleft" unicode="&#xab;" horiz-adv-x="738" d="M201 581 L382 267 L336 228 L39 573 L39 589 L336 934 L382 895 L201 581 Z M517 581 L698 267 L652 228 L355 573 L355 589 L652 934 L698 895 L517 581 Z " />
<glyph glyph-name="guillemotright" unicode="&#xbb;" horiz-adv-x="738" d="M221 581 L39 895 L86 934 L382 589 L382 573 L86 228 L39 267 L221 581 Z M537 581 L355 895 L402 934 L698 589 L698 573 L402 228 L355 267 L537 581 Z " />
<glyph glyph-name="ellipsis" unicode="&#x2026;" horiz-adv-x="1549" d="M257 198 Q306 198 340 159 Q368 127 368 86 Q368 38 332 5 Q299 -25 255 -25 Q203 -25 169 13 Q141 45 141 87 Q141 134 177 168 Q209 198 257 198 Z M777 198 Q826 198 860 159 Q888 127 888 86 Q888 39 851 5 Q820 -25 775 -25 Q723 -25 689 13 Q661 45 661 87 Q661 134 697 168 Q729 198 777 198 Z M1296 198 Q1345 198 1379 159 Q1407 127 1407 86 Q1407 38 1371 5 Q1339 -25 1294 -25 Q1242 -25 1208 13 Q1180 45 1180 87 Q1180 133 1217 168 Q1249 198 1296 198 Z " />
<glyph glyph-name="Agrave" unicode="&#xc0;" horiz-adv-x="1257" d="M916 455 L329 455 L160 0 L13 0 L554 1413 L705 1413 L1244 0 L1084 0 L916 455 Z M879 561 L717 999 Q709 1021 659 1169 L639 1227 L623 1273 L607 1226 L589 1174 Q546 1046 534 1015 L367 561 L879 561 Z M610 1544 L388 1792 L586 1792 L716 1544 L610 1544 Z " />
<glyph glyph-name="Atilde" unicode="&#xc3;" horiz-adv-x="1257" d="M916 455 L329 455 L160 0 L13 0 L554 1413 L705 1413 L1244 0 L1084 0 L916 455 Z M879 561 L717 999 Q709 1021 659 1169 L639 1227 L623 1273 L607 1226 L589 1174 Q546 1046 534 1015 L367 561 L879 561 Z M419 1550 L309 1550 Q364 1787 500 1787 Q574 1787 669 1711 Q732 1661 758 1661 Q800 1661 821 1716 Q829 1737 838 1778 L949 1778 Q937 1687 910 1634 Q859 1536 745 1536 Q688 1536 644 1565 Q634 1572 584 1610 Q517 1661 491 1661 Q448 1661 419 1550 Z " />
<glyph glyph-name="Otilde" unicode="&#xd5;" horiz-adv-x="1369" d="M694 1438 Q882 1438 1017 1338 Q1160 1232 1221 1018 Q1260 878 1260 706 Q1260 391 1130 193 Q986 -25 684 -25 Q383 -25 239 193 Q109 391 109 704 Q109 1025 239 1220 Q385 1438 694 1438 Z M691 1332 Q542 1332 437 1243 Q265 1096 265 703 Q265 426 358 264 Q410 174 505 124 Q586 81 685 81 Q827 81 932 170 Q1104 316 1104 706 Q1104 990 1011 1149 Q956 1242 864 1290 Q782 1332 691 1332 Z M474 1550 L364 1550 Q419 1787 555 1787 Q629 1787 724 1711 Q787 1661 813 1661 Q855 1661 876 1716 Q884 1737 893 1778 L1004 1778 Q992 1687 965 1634 Q914 1536 800 1536 Q743 1536 699 1565 Q689 1572 639 1610 Q572 1661 546 1661 Q503 1661 474 1550 Z " />
<glyph glyph-name="OE" unicode="&#x152;" horiz-adv-x="1786" d="M1726 0 L876 0 Q703 0 646.5 3 Q590 6 535 17 Q386 49 297 140 Q109 331 109 706 Q109 948 194 1123 Q286 1313 448 1371 Q552 1408 671 1411 Q736 1413 876 1413 L1725 1413 L1725 1307 L1038 1307 L1038 790 L1558 790 L1558 684 L1038 684 L1038 106 L1726 106 L1726 0 Z M891 106 L891 1307 L778 1307 Q615 1307 549 1286 Q417 1244 341 1099 Q265 955 265 705 Q265 457 341 313 Q417 168 549 126 Q615 106 778 106 L891 106 Z " />
<glyph glyph-name="oe" unicode="&#x153;" horiz-adv-x="1722" d="M892 188 Q772 -25 537 -25 Q337 -25 219 121 Q109 259 109 493 Q109 726 219 863 Q337 1008 538 1008 Q780 1008 896 788 Q928 857 968 900 Q1068 1008 1250 1008 Q1624 1008 1624 542 Q1624 542 1623 483 L967 483 Q969 349 1000 262 Q1035 166 1107 123 Q1184 77 1307 77 Q1431 77 1563 125 L1593 14 Q1466 -25 1287 -25 Q1063 -25 952 95 Q918 132 892 188 Z M543 906 Q383 906 314 770 Q254 652 254 493 Q254 334 312 215 Q379 77 539 77 Q698 77 765 215 Q823 334 823 493 Q823 655 765 770 Q696 906 543 906 Z M1484 583 Q1481 698 1452 777 Q1403 907 1247 907 Q1007 907 973 583 L1484 583 Z " />
<glyph glyph-name="endash" unicode="&#x2013;" horiz-adv-x="1138" d="M122 589 L122 708 L1016 708 L1016 589 L122 589 Z " />
<glyph glyph-name="emdash" unicode="&#x2014;" horiz-adv-x="1024" d="M-135 589 L-135 708 L1159 708 L1159 589 L-135 589 Z " />
<glyph glyph-name="quotedblleft" unicode="&#x201c;" horiz-adv-x="564" d="M266 1480 L163 1026 L15 1026 L169 1480 L266 1480 Z M534 1480 L431 1026 L283 1026 L437 1480 L534 1480 Z " />
<glyph glyph-name="quotedblright" unicode="&#x201d;" horiz-adv-x="564" d="M30 1026 L133 1480 L281 1480 L127 1026 L30 1026 Z M298 1026 L401 1480 L549 1480 L395 1026 L298 1026 Z " />
<glyph glyph-name="quoteleft" unicode="&#x2018;" horiz-adv-x="296" d="M266 1480 L163 1026 L15 1026 L169 1480 L266 1480 Z " />
<glyph glyph-name="quoteright" unicode="&#x2019;" horiz-adv-x="296" d="M29 1026 L132 1480 L280 1480 L126 1026 L29 1026 Z " />
<glyph glyph-name="divide" unicode="&#xf7;" horiz-adv-x="1180" d="M592 1115 Q636 1115 666 1080 Q692 1050 692 1014 Q692 972 659 940 Q631 913 590 913 Q543 913 513 948 Q487 978 487 1015 Q487 1056 520 1088 Q549 1115 592 1115 Z M97 652 L98 759 L1084 759 L1083 652 L97 652 Z M592 501 Q636 501 666 466 Q692 436 692 400 Q692 358 659 326 Q631 299 590 299 Q543 299 513 334 Q487 364 487 401 Q487 442 520 473 Q549 501 592 501 Z " />
<glyph glyph-name="lozenge" unicode="&#x25ca;" horiz-adv-x="1180" d="M81 707 L590 1490 L1099 707 L590 -76 L81 707 Z M226 707 L590 141 L953 707 L590 1273 L226 707 Z " />
<glyph glyph-name="ydieresis" unicode="&#xff;" horiz-adv-x="894" d="M379 0 L32 983 L177 983 L353 449 Q362 422 405 287 Q417 250 467 95 Q507 234 522 290 Q559 423 566 445 L722 983 L858 983 L522 -81 Q458 -282 409 -352 Q326 -470 165 -470 Q102 -470 48 -459 L67 -354 Q122 -369 169 -369 Q261 -369 311 -299 Q362 -228 414 -66 L436 0 L379 0 Z M288 1359 Q328 1359 356 1331 Q384 1304 384 1265 Q384 1226 356 1199 Q328 1171 289 1171 Q249 1171 221 1199 Q193 1226 193 1266 Q193 1305 221 1331 Q250 1359 288 1359 Z M606 1359 Q645 1359 674 1331 Q701 1304 701 1265 Q701 1226 674 1199 Q645 1171 606 1171 Q567 1171 538 1199 Q511 1226 511 1266 Q511 1305 538 1331 Q567 1359 606 1359 Z " />
<glyph glyph-name="Ydieresis" unicode="&#x178;" horiz-adv-x="1044" d="M447 0 L447 528 L-7 1413 L148 1413 L395 919 L432 844 L465 777 L493 719 L522 659 L556 725 L585 785 L617 849 L653 922 L904 1413 L1050 1413 L594 528 L594 0 L447 0 Z M353 1758 Q393 1758 421 1730 Q449 1703 449 1664 Q449 1625 421 1598 Q393 1570 354 1570 Q314 1570 286 1598 Q258 1625 258 1665 Q258 1704 286 1730 Q315 1758 353 1758 Z M692 1758 Q731 1758 759 1730 Q787 1703 787 1664 Q787 1625 759 1598 Q731 1570 692 1570 Q652 1570 624 1598 Q596 1625 596 1665 Q596 1703 624 1730 Q652 1758 692 1758 Z " />
<glyph glyph-name="fraction" unicode="&#x2044;" horiz-adv-x="287" d="M-258 0 L425 1413 L545 1413 L-138 0 L-258 0 Z " />
<glyph glyph-name="Euro" unicode="&#x20ac;" horiz-adv-x="1180" d="M16 511 L67 605 L190 605 Q189 668 189 731 L16 731 L68 825 L195 825 Q215 1032 297 1185 Q434 1438 757 1438 Q959 1438 1130 1334 L1079 1225 Q1010 1271 965 1291 Q868 1336 757 1336 Q575 1336 467 1208 Q360 1081 338 825 L950 825 L899 731 L333 731 Q333 668 336 605 L875 605 L824 511 L346 511 Q373 352 422 262 Q527 73 789 73 Q906 73 997 114 Q1037 133 1092 170 L1101 44 Q968 -29 787 -29 Q523 -29 367 112 Q233 231 199 511 L16 511 Z " />
<glyph glyph-name="guilsinglleft" unicode="&#x2039;" horiz-adv-x="422" d="M201 581 L382 267 L336 228 L39 573 L39 589 L336 934 L382 895 L201 581 Z " />
<glyph glyph-name="guilsinglright" unicode="&#x203a;" horiz-adv-x="422" d="M221 581 L39 895 L86 934 L382 589 L382 573 L86 228 L39 267 L221 581 Z " />
<glyph glyph-name="fi" unicode="&#xfb01;" horiz-adv-x="1187" d="M209 877 L33 877 L38 983 L209 983 L209 1170 Q209 1316 277 1390 Q356 1476 506 1476 Q604 1476 706 1444 L676 1329 Q593 1375 515 1375 Q417 1375 378 1312 Q350 1266 350 1158 L350 983 L605 983 L600 877 L350 877 L350 0 L209 0 L209 877 Z M866 0 L866 676 Q866 718 862 862 Q860 942 857 983 L1006 983 L1006 0 L866 0 Z M936 1366 Q979 1366 1009 1336 Q1038 1307 1038 1265 Q1038 1224 1009 1195 Q979 1165 936 1165 Q893 1165 863 1195 Q834 1224 834 1267 Q834 1308 863 1336 Q894 1366 936 1366 Z " />
<glyph glyph-name="fl" unicode="&#xfb02;" horiz-adv-x="1146" d="M208 877 L32 877 L37 983 L208 983 L208 1143 Q208 1308 293 1389 Q385 1476 587 1476 Q689 1476 816 1454 L965 1483 L965 0 L824 0 L824 1349 Q715 1379 596 1379 Q447 1379 391 1308 Q349 1254 349 1131 L349 983 L603 983 L598 877 L349 877 L349 0 L208 0 L208 877 Z " />
<glyph glyph-name="daggerdbl" unicode="&#x2021;" horiz-adv-x="1070" d="M464 825 L125 825 L126 933 L464 933 L464 1413 L605 1413 L605 933 L944 933 L944 825 L605 825 L605 237 L944 237 L944 129 L605 129 L605 -417 L464 -417 L464 129 L125 129 L126 237 L464 237 L464 825 Z " />
<glyph glyph-name="periodcentered" unicode="&#xb7;" horiz-adv-x="510" d="M257 767 Q306 767 340 728 Q368 696 368 655 Q368 608 332 574 Q299 544 255 544 Q203 544 169 582 Q141 614 141 656 Q141 703 177 737 Q209 767 257 767 Z " />
<glyph glyph-name="quotesinglbase" unicode="&#x201a;" horiz-adv-x="296" d="M-8 -263 L95 191 L243 191 L89 -263 L-8 -263 Z " />
<glyph glyph-name="quotedblbase" unicode="&#x201e;" horiz-adv-x="564" d="M-8 -263 L95 191 L243 191 L89 -263 L-8 -263 Z M260 -263 L363 191 L511 191 L357 -263 L260 -263 Z " />
<glyph glyph-name="perthousand" unicode="&#x2030;" horiz-adv-x="2257" d="M391 1442 Q532 1442 607 1339 Q676 1245 676 1073 Q676 903 607 808 Q532 705 386 705 Q242 705 166 808 Q97 903 97 1072 Q97 1246 166 1339 Q243 1442 391 1442 Z M389 1370 Q226 1370 226 1071 Q226 777 387 777 Q547 777 547 1073 Q547 1370 389 1370 Z M484 0 L967 1413 L1085 1413 L603 0 L484 0 Z M1190 708 Q1330 708 1405 605 Q1474 510 1474 339 Q1474 169 1405 74 Q1330 -29 1185 -29 Q1039 -29 964 74 Q895 169 895 338 Q895 511 964 605 Q1040 708 1190 708 Z M1187 636 Q1024 636 1024 337 Q1024 43 1184 43 Q1345 43 1345 339 Q1345 636 1187 636 Z M1875 708 Q2016 708 2091 605 Q2160 511 2160 339 Q2160 169 2091 74 Q2016 -29 1870 -29 Q1725 -29 1650 74 Q1581 169 1581 338 Q1581 512 1650 605 Q1726 708 1875 708 Z M1873 636 Q1710 636 1710 338 Q1710 43 1870 43 Q2031 43 2031 339 Q2031 636 1873 636 Z " />
<glyph glyph-name="Acircumflex" unicode="&#xc2;" horiz-adv-x="1257" d="M916 455 L329 455 L160 0 L13 0 L554 1413 L705 1413 L1244 0 L1084 0 L916 455 Z M879 561 L717 999 Q709 1021 659 1169 L639 1227 L623 1273 L607 1226 L589 1174 Q546 1046 534 1015 L367 561 L879 561 Z M628 1701 L454 1544 L331 1544 L537 1792 L719 1792 L925 1544 L803 1544 L628 1701 Z " />
<glyph glyph-name="Ecircumflex" unicode="&#xca;" horiz-adv-x="1090" d="M194 0 L194 1413 L1028 1413 L1028 1307 L341 1307 L341 790 L864 790 L864 684 L341 684 L341 106 L1029 106 L1029 0 L194 0 Z M616 1701 L442 1544 L319 1544 L525 1792 L707 1792 L913 1544 L791 1544 L616 1701 Z " />
<glyph glyph-name="Aacute" unicode="&#xc1;" horiz-adv-x="1257" d="M916 455 L329 455 L160 0 L13 0 L554 1413 L705 1413 L1244 0 L1084 0 L916 455 Z M879 561 L717 999 Q709 1021 659 1169 L639 1227 L623 1273 L607 1226 L589 1174 Q546 1046 534 1015 L367 561 L879 561 Z M545 1544 L676 1792 L873 1792 L652 1544 L545 1544 Z " />
<glyph glyph-name="Edieresis" unicode="&#xcb;" horiz-adv-x="1090" d="M194 0 L194 1413 L1028 1413 L1028 1307 L341 1307 L341 790 L864 790 L864 684 L341 684 L341 106 L1029 106 L1029 0 L194 0 Z M459 1758 Q499 1758 527 1730 Q555 1703 555 1664 Q555 1625 527 1598 Q499 1570 460 1570 Q420 1570 392 1598 Q364 1625 364 1665 Q364 1704 392 1730 Q421 1758 459 1758 Z M798 1758 Q837 1758 865 1730 Q893 1703 893 1664 Q893 1625 865 1598 Q837 1570 798 1570 Q758 1570 730 1598 Q702 1625 702 1665 Q702 1703 730 1730 Q758 1758 798 1758 Z " />
<glyph glyph-name="Egrave" unicode="&#xc8;" horiz-adv-x="1090" d="M194 0 L194 1413 L1028 1413 L1028 1307 L341 1307 L341 790 L864 790 L864 684 L341 684 L341 106 L1029 106 L1029 0 L194 0 Z M630 1544 L408 1792 L606 1792 L736 1544 L630 1544 Z " />
<glyph glyph-name="Iacute" unicode="&#xcd;" horiz-adv-x="538" d="M194 0 L194 1413 L341 1413 L341 0 L194 0 Z M184 1544 L315 1792 L512 1792 L291 1544 L184 1544 Z " />
<glyph glyph-name="Icircumflex" unicode="&#xce;" horiz-adv-x="537" d="M195 0 L195 1413 L342 1413 L342 0 L195 0 Z M268 1701 L94 1544 L-29 1544 L177 1792 L359 1792 L565 1544 L443 1544 L268 1701 Z " />
<glyph glyph-name="Idieresis" unicode="&#xcf;" horiz-adv-x="538" d="M195 0 L195 1413 L342 1413 L342 0 L195 0 Z M100 1758 Q140 1758 168 1730 Q196 1703 196 1664 Q196 1625 168 1598 Q140 1570 101 1570 Q61 1570 33 1598 Q5 1625 5 1665 Q5 1704 33 1730 Q62 1758 100 1758 Z M439 1758 Q478 1758 506 1730 Q534 1703 534 1664 Q534 1625 506 1598 Q478 1570 439 1570 Q399 1570 371 1598 Q343 1625 343 1665 Q343 1703 371 1730 Q399 1758 439 1758 Z " />
<glyph glyph-name="Igrave" unicode="&#xcc;" horiz-adv-x="538" d="M195 0 L195 1413 L342 1413 L342 0 L195 0 Z M252 1544 L30 1792 L228 1792 L358 1544 L252 1544 Z " />
<glyph glyph-name="Oacute" unicode="&#xd3;" horiz-adv-x="1369" d="M694 1438 Q882 1438 1017 1338 Q1160 1232 1221 1018 Q1260 878 1260 706 Q1260 391 1130 193 Q986 -25 684 -25 Q383 -25 239 193 Q109 391 109 704 Q109 1025 239 1220 Q385 1438 694 1438 Z M691 1332 Q542 1332 437 1243 Q265 1096 265 703 Q265 426 358 264 Q410 174 505 124 Q586 81 685 81 Q827 81 932 170 Q1104 316 1104 706 Q1104 990 1011 1149 Q956 1242 864 1290 Q782 1332 691 1332 Z M594 1544 L725 1792 L922 1792 L701 1544 L594 1544 Z " />
<glyph glyph-name="Ocircumflex" unicode="&#xd4;" horiz-adv-x="1369" d="M694 1438 Q882 1438 1017 1338 Q1160 1232 1221 1018 Q1260 878 1260 706 Q1260 391 1130 193 Q986 -25 684 -25 Q383 -25 239 193 Q109 391 109 704 Q109 1025 239 1220 Q385 1438 694 1438 Z M691 1332 Q542 1332 437 1243 Q265 1096 265 703 Q265 426 358 264 Q410 174 505 124 Q586 81 685 81 Q827 81 932 170 Q1104 316 1104 706 Q1104 990 1011 1149 Q956 1242 864 1290 Q782 1332 691 1332 Z M684 1701 L510 1544 L387 1544 L593 1792 L775 1792 L981 1544 L859 1544 L684 1701 Z " />
<glyph glyph-name="Ograve" unicode="&#xd2;" horiz-adv-x="1369" d="M694 1438 Q882 1438 1017 1338 Q1160 1232 1221 1018 Q1260 878 1260 706 Q1260 391 1130 193 Q986 -25 684 -25 Q383 -25 239 193 Q109 391 109 704 Q109 1025 239 1220 Q385 1438 694 1438 Z M691 1332 Q542 1332 437 1243 Q265 1096 265 703 Q265 426 358 264 Q410 174 505 124 Q586 81 685 81 Q827 81 932 170 Q1104 316 1104 706 Q1104 990 1011 1149 Q956 1242 864 1290 Q782 1332 691 1332 Z M686 1544 L464 1792 L662 1792 L792 1544 L686 1544 Z " />
<glyph glyph-name="Uacute" unicode="&#xda;" horiz-adv-x="1282" d="M186 1413 L333 1413 L333 514 Q333 281 380 199 Q447 81 650 81 Q869 81 931 221 Q966 301 966 514 L966 1413 L1096 1413 L1096 507 Q1096 383 1087 320 Q1060 140 943 57 Q827 -25 647 -25 Q465 -25 345 57 Q224 139 196 320 Q186 385 186 507 L186 1413 Z M575 1544 L706 1792 L903 1792 L682 1544 L575 1544 Z " />
<glyph glyph-name="Ucircumflex" unicode="&#xdb;" horiz-adv-x="1282" d="M186 1413 L333 1413 L333 514 Q333 281 380 199 Q447 81 650 81 Q869 81 931 221 Q966 301 966 514 L966 1413 L1096 1413 L1096 507 Q1096 383 1087 320 Q1060 140 943 57 Q827 -25 647 -25 Q465 -25 345 57 Q224 139 196 320 Q186 385 186 507 L186 1413 Z M641 1701 L467 1544 L344 1544 L550 1792 L732 1792 L938 1544 L816 1544 L641 1701 Z " />
<glyph glyph-name="Ugrave" unicode="&#xd9;" horiz-adv-x="1282" d="M186 1413 L333 1413 L333 514 Q333 281 380 199 Q447 81 650 81 Q869 81 931 221 Q966 301 966 514 L966 1413 L1096 1413 L1096 507 Q1096 383 1087 320 Q1060 140 943 57 Q827 -25 647 -25 Q465 -25 345 57 Q224 139 196 320 Q186 385 186 507 L186 1413 Z M643 1544 L421 1792 L619 1792 L749 1544 L643 1544 Z " />
<glyph glyph-name="dotlessi" unicode="&#x131;" horiz-adv-x="501" d="M180 0 L180 983 L320 983 L320 0 L180 0 Z " />
<glyph glyph-name="circumflex" unicode="&#x2c6;" horiz-adv-x="1024" d="M512 1302 L338 1145 L215 1145 L421 1393 L603 1393 L809 1145 L687 1145 L512 1302 Z " />
<glyph glyph-name="tilde" unicode="&#x2dc;" horiz-adv-x="1024" d="M302 1151 L192 1151 Q246 1388 383 1388 Q457 1388 552 1312 Q615 1262 641 1262 Q684 1262 704 1317 Q712 1338 721 1379 L832 1379 Q820 1288 793 1235 Q742 1137 628 1137 Q571 1137 527 1166 Q517 1173 467 1211 Q399 1262 374 1262 Q331 1262 302 1151 Z " />
<glyph glyph-name="macron" unicode="&#xaf;" horiz-adv-x="1024" d="M252 1220 L252 1318 L772 1318 L772 1220 L252 1220 Z " />
<glyph glyph-name="breve" unicode="&#x2d8;" horiz-adv-x="1024" d="M225 1394 L352 1394 Q359 1326 383 1296 Q422 1248 512 1248 Q611 1248 648 1305 Q665 1333 672 1394 L799 1394 Q796 1305 756 1244 Q686 1136 512 1136 Q327 1136 259 1258 Q228 1315 225 1394 Z " />
<glyph glyph-name="dotaccent" unicode="&#x2d9;" horiz-adv-x="1024" d="M512 1365 Q555 1365 585 1335 Q614 1307 614 1264 Q614 1223 585 1194 Q555 1164 512 1164 Q469 1164 439 1194 Q410 1223 410 1266 Q410 1307 439 1335 Q470 1365 512 1365 Z " />
<glyph glyph-name="ring" unicode="&#x2da;" horiz-adv-x="1024" d="M515 1481 Q602 1481 653 1424 Q697 1375 697 1300 Q697 1227 653 1180 Q603 1125 512 1125 Q421 1125 371 1180 Q327 1228 327 1300 Q327 1375 371 1424 Q422 1481 515 1481 Z M513 1425 Q468 1425 440 1383 Q420 1353 420 1303 Q420 1254 440 1223 Q468 1181 512 1181 Q556 1181 584 1223 Q604 1254 604 1303 Q604 1353 584 1383 Q556 1425 513 1425 Z " />
<glyph glyph-name="cedilla" unicode="&#xb8;" horiz-adv-x="1024" d="M494 4 L587 4 L505 -121 Q605 -127 653 -147 Q745 -186 745 -304 Q745 -496 496 -496 Q411 -496 318 -476 L332 -391 Q419 -419 485 -419 Q601 -419 601 -315 Q601 -195 467 -195 Q437 -195 398 -200 L385 -175 L494 4 Z " />
<glyph glyph-name="hungarumlaut" unicode="&#x2dd;" horiz-adv-x="1024" d="M314 1145 L418 1393 L612 1393 L424 1145 L314 1145 Z M584 1145 L689 1393 L883 1393 L694 1145 L584 1145 Z " />
<glyph glyph-name="ogonek" unicode="&#x2db;" horiz-adv-x="1024" d="M580 0 L718 0 Q593 -80 562 -109 Q482 -185 482 -281 Q482 -419 620 -419 Q692 -419 752 -393 L766 -466 Q694 -496 595 -496 Q338 -496 338 -298 Q338 -178 432 -94 Q487 -45 580 0 Z " />
<glyph glyph-name="caron" unicode="&#x2c7;" horiz-adv-x="1024" d="M512 1236 L687 1393 L809 1393 L604 1145 L421 1145 L215 1393 L337 1393 L512 1236 Z " />
<glyph glyph-name="uni00A0" unicode="&#xa0;" horiz-adv-x="492" d="" />
<glyph glyph-name="currency" unicode="&#xa4;" horiz-adv-x="1180" d="M181 154 L103 226 L271 409 Q240 453 227 476 Q178 570 178 682 Q178 827 271 956 L103 1139 L181 1211 L346 1026 Q462 1108 590 1108 Q716 1108 833 1026 L998 1211 L1076 1139 L908 956 Q1000 827 1000 683 Q1000 540 908 409 L1076 226 L998 154 L833 338 Q716 257 590 257 Q462 257 346 338 L181 154 Z M592 1035 Q472 1035 397 926 Q331 829 331 681 Q331 537 397 439 Q471 330 589 330 Q706 330 781 439 Q847 537 847 682 Q847 831 781 926 Q704 1035 592 1035 Z " />
<glyph glyph-name="brokenbar" unicode="&#xa6;" horiz-adv-x="1180" d="M526 900 L526 1413 L646 1413 L646 900 L526 900 Z M526 0 L526 479 L646 479 L646 0 L526 0 Z " />
<glyph glyph-name="uni00AD" unicode="&#xad;" horiz-adv-x="785" d="M122 589 L122 708 L662 708 L662 589 L122 589 Z " />
<glyph glyph-name="twosuperior" unicode="&#xb2;" horiz-adv-x="718" d="M80 770 L80 852 L326 1154 Q385 1226 419 1279 Q458 1343 458 1411 Q458 1470 427 1504 Q383 1549 308 1549 Q242 1549 122 1494 L93 1590 Q206 1632 313 1632 Q584 1632 584 1416 Q584 1333 542 1261 Q494 1180 430 1102 L225 853 L617 853 L617 770 L80 770 Z " />
<glyph glyph-name="threesuperior" unicode="&#xb3;" horiz-adv-x="714" d="M61 801 L89 900 Q223 836 313 836 Q493 836 493 1008 Q493 1099 441 1140 Q392 1179 290 1179 Q250 1179 171 1169 L171 1265 Q235 1261 262 1261 Q363 1261 416 1312 Q465 1358 465 1424 Q465 1480 429 1512 Q388 1549 308 1549 Q235 1549 113 1492 L84 1586 Q202 1632 321 1632 Q456 1632 529 1573 Q591 1524 591 1426 Q591 1290 459 1233 Q530 1214 565 1182 Q628 1125 628 1014 Q628 753 314 753 Q178 753 61 801 Z " />
<glyph glyph-name="onesuperior" unicode="&#xb9;" horiz-adv-x="495" d="M220 770 L220 1520 L29 1466 L29 1550 L248 1618 L348 1618 L348 770 L220 770 Z " />
<glyph glyph-name="onequarter" unicode="&#xbc;" horiz-adv-x="1764" d="M271 565 L271 1315 L79 1261 L79 1345 L299 1413 L399 1413 L399 565 L271 565 Z M385 0 L1068 1413 L1188 1413 L505 0 L385 0 Z M1421 217 L1016 217 L1016 295 L1297 848 L1430 848 L1152 300 L1421 300 L1421 594 L1543 594 L1543 300 L1664 300 L1664 217 L1543 217 L1543 0 L1421 0 L1421 217 Z " />
<glyph glyph-name="onehalf" unicode="&#xbd;" horiz-adv-x="1764" d="M291 565 L291 1315 L99 1261 L99 1345 L319 1413 L419 1413 L419 565 L291 565 Z M384 0 L1067 1413 L1187 1413 L505 0 L384 0 Z M1053 0 L1053 82 L1299 384 Q1357 455 1391 509 Q1430 573 1430 640 Q1430 700 1399 734 Q1355 779 1280 779 Q1215 779 1094 724 L1066 820 Q1180 862 1286 862 Q1556 862 1556 646 Q1556 562 1514 491 Q1466 410 1403 332 L1198 83 L1589 83 L1589 0 L1053 0 Z " />
<glyph glyph-name="threequarters" unicode="&#xbe;" horiz-adv-x="1764" d="M62 596 L90 695 Q222 632 314 632 Q494 632 494 803 Q494 894 442 935 Q393 974 291 974 Q254 974 172 964 L172 1060 Q241 1056 263 1056 Q364 1056 417 1107 Q466 1153 466 1219 Q466 1275 430 1307 Q389 1344 309 1344 Q236 1344 114 1288 L85 1381 Q203 1427 322 1427 Q457 1427 530 1368 Q592 1319 592 1221 Q592 1085 460 1028 Q531 1009 566 977 Q629 920 629 810 Q629 549 315 549 Q177 549 62 596 Z M466 0 L1149 1413 L1270 1413 L587 0 L466 0 Z M1421 217 L1017 217 L1017 295 L1297 848 L1429 848 L1152 300 L1421 300 L1421 594 L1543 594 L1543 300 L1664 300 L1664 217 L1543 217 L1543 0 L1421 0 L1421 217 Z " />
<glyph glyph-name="Eth" unicode="&#xd0;" horiz-adv-x="1305" d="M208 0 L208 684 L53 684 L54 789 L208 789 L208 1413 L550 1413 Q727 1413 842 1368 Q1019 1299 1103 1133 Q1196 949 1196 703 Q1196 345 1008 160 Q906 60 759 22 Q671 0 534 0 L208 0 Z M355 106 L535 106 Q759 106 886 232 Q974 319 1012 477 Q1040 592 1040 718 Q1040 964 949 1125 Q900 1212 799 1262 Q705 1307 497 1307 L355 1307 L355 789 L765 789 L764 684 L355 684 L355 106 Z " />
<glyph glyph-name="multiply" unicode="&#xd7;" horiz-adv-x="1180" d="M519 706 L182 1030 L258 1107 L595 783 L932 1107 L1008 1030 L671 706 L1008 382 L932 305 L595 629 L259 305 L182 382 L519 706 Z " />
<glyph glyph-name="Yacute" unicode="&#xdd;" horiz-adv-x="1044" d="M447 0 L447 528 L-7 1413 L148 1413 L395 919 L432 844 L465 777 L493 719 L522 659 L556 725 L585 785 L617 849 L653 922 L904 1413 L1050 1413 L594 528 L594 0 L447 0 Z M439 1544 L570 1792 L767 1792 L546 1544 L439 1544 Z " />
<glyph glyph-name="Thorn" unicode="&#xde;" horiz-adv-x="1137" d="M341 334 L341 0 L194 0 L194 1413 L341 1413 L341 1175 L595 1175 Q706 1175 815 1141 Q950 1099 1011 960 Q1049 871 1049 759 Q1049 521 909 421 Q789 334 566 334 L341 334 Z M341 440 L502 440 Q725 440 802 508 Q893 588 893 750 Q893 930 798 1008 Q724 1069 527 1069 L341 1069 L341 440 Z " />
<glyph glyph-name="eth" unicode="&#xf0;" horiz-adv-x="1077" d="M732 954 Q659 1111 570 1203 L376 1091 L327 1160 L500 1259 Q395 1319 275 1334 L290 1422 Q487 1401 607 1323 L771 1418 L820 1350 L678 1268 Q768 1181 829 1058 Q888 940 930 775 Q968 624 968 482 Q968 258 858 121 Q740 -25 539 -25 Q337 -25 219 121 Q109 258 109 492 Q109 724 219 861 Q336 1006 534 1006 Q636 1006 732 954 Z M543 904 Q382 904 314 768 Q254 650 254 491 Q254 333 312 214 Q379 77 539 77 Q698 77 765 214 Q823 333 823 492 Q823 653 765 768 Q696 904 543 904 Z " />
<glyph glyph-name="yacute" unicode="&#xfd;" horiz-adv-x="894" d="M379 0 L32 983 L177 983 L353 449 Q362 422 405 287 Q417 250 467 95 Q507 234 522 290 Q559 423 566 445 L722 983 L858 983 L522 -81 Q458 -282 409 -352 Q326 -470 165 -470 Q102 -470 48 -459 L67 -354 Q122 -369 169 -369 Q261 -369 311 -299 Q362 -228 414 -66 L436 0 L379 0 Z M382 1145 L513 1393 L710 1393 L489 1145 L382 1145 Z " />
<glyph glyph-name="thorn" unicode="&#xfe;" horiz-adv-x="1077" d="M321 19 L321 -459 L180 -459 L180 1251 Q180 1337 173 1453 L321 1483 L321 884 Q435 1008 601 1008 Q809 1008 892 850 Q968 705 968 490 Q968 296 886 162 Q772 -25 536 -25 Q429 -25 321 19 Z M321 141 Q367 113 394 102 Q457 77 535 77 Q635 77 710 147 Q823 252 823 496 Q823 675 768 790 Q743 843 694 875 Q645 906 583 906 Q457 906 373 785 Q321 711 321 609 L321 141 Z " />
<glyph glyph-name="Amacron" unicode="&#x100;" horiz-adv-x="1257" d="M916 455 L329 455 L160 0 L13 0 L554 1413 L705 1413 L1244 0 L1084 0 L916 455 Z M879 561 L717 999 Q709 1021 659 1169 L639 1227 L623 1273 L607 1226 L589 1174 Q546 1046 534 1015 L367 561 L879 561 Z M369 1619 L369 1717 L889 1717 L889 1619 L369 1619 Z " />
<glyph glyph-name="amacron" unicode="&#x101;" horiz-adv-x="1023" d="M706 626 L706 653 Q706 776 681 824 Q639 906 492 906 Q366 906 236 828 L199 937 Q331 1008 503 1008 Q742 1008 809 859 Q844 782 844 572 L844 239 Q844 126 860 0 L734 0 Q723 66 717 135 Q622 -25 397 -25 Q268 -25 197 26 Q105 93 105 254 Q105 490 317 567 Q411 601 548 615 Q573 617 686 624 L706 626 Z M704 531 Q537 519 456 501 Q250 456 250 257 Q250 76 423 76 Q572 76 658 194 Q692 242 700 298 Q704 326 704 374 L704 531 Z M252 1220 L252 1318 L772 1318 L772 1220 L252 1220 Z " />
<glyph glyph-name="Abreve" unicode="&#x102;" horiz-adv-x="1257" d="M916 455 L329 455 L160 0 L13 0 L554 1413 L705 1413 L1244 0 L1084 0 L916 455 Z M879 561 L717 999 Q709 1021 659 1169 L639 1227 L623 1273 L607 1226 L589 1174 Q546 1046 534 1015 L367 561 L879 561 Z M342 1793 L469 1793 Q476 1725 500 1695 Q539 1647 629 1647 Q728 1647 765 1704 Q782 1732 789 1793 L916 1793 Q913 1704 873 1643 Q803 1535 629 1535 Q444 1535 376 1657 Q345 1714 342 1793 Z " />
<glyph glyph-name="abreve" unicode="&#x103;" horiz-adv-x="1023" d="M706 626 L706 653 Q706 776 681 824 Q639 906 492 906 Q366 906 236 828 L199 937 Q331 1008 503 1008 Q742 1008 809 859 Q844 782 844 572 L844 239 Q844 126 860 0 L734 0 Q723 66 717 135 Q622 -25 397 -25 Q268 -25 197 26 Q105 93 105 254 Q105 490 317 567 Q411 601 548 615 Q573 617 686 624 L706 626 Z M704 531 Q537 519 456 501 Q250 456 250 257 Q250 76 423 76 Q572 76 658 194 Q692 242 700 298 Q704 326 704 374 L704 531 Z M225 1394 L352 1394 Q359 1326 383 1296 Q422 1248 512 1248 Q611 1248 648 1305 Q665 1333 672 1394 L799 1394 Q796 1305 756 1244 Q686 1136 512 1136 Q327 1136 259 1258 Q228 1315 225 1394 Z " />
<glyph glyph-name="Aogonek" unicode="&#x104;" horiz-adv-x="1257" d="M916 455 L329 455 L160 0 L13 0 L554 1413 L705 1413 L1244 0 Q1226 -12 1216 -18 Q1102 -91 1060 -140 Q1009 -199 1009 -281 Q1009 -419 1148 -419 Q1218 -419 1279 -393 L1293 -466 Q1221 -496 1121 -496 Q865 -496 865 -298 Q865 -168 977 -79 Q1026 -39 1107 0 L1084 0 L916 455 Z M879 561 L717 999 Q709 1021 659 1169 L647 1204 L623 1274 Q606 1225 589 1174 Q550 1057 534 1015 L367 561 L879 561 Z " />
<glyph glyph-name="aogonek" unicode="&#x105;" horiz-adv-x="1023" d="M706 626 L706 653 Q706 776 681 824 Q639 906 492 906 Q366 906 236 828 L199 937 Q331 1008 503 1008 Q742 1008 809 859 Q844 782 844 572 L844 239 Q844 129 860 0 Q751 -64 705 -107 Q625 -183 625 -281 Q625 -419 763 -419 Q835 -419 894 -393 L909 -466 Q836 -496 738 -496 Q481 -496 481 -298 Q481 -166 610 -74 Q660 -37 743 0 L734 0 Q723 66 717 135 Q622 -25 397 -25 Q268 -25 197 26 Q105 93 105 254 Q105 490 317 567 Q410 601 548 615 Q573 617 685 624 L706 626 Z M704 531 Q534 518 456 501 Q250 455 250 257 Q250 76 423 76 Q572 76 658 194 Q692 242 700 298 Q704 326 704 374 L704 531 Z " />
<glyph glyph-name="Cacute" unicode="&#x106;" horiz-adv-x="1056" d="M1016 152 L1047 27 Q864 -25 683 -25 Q382 -25 244 167 Q109 356 109 681 Q109 916 177 1094 Q310 1438 671 1438 Q797 1438 905 1408 Q933 1400 1003 1375 L971 1250 Q817 1331 675 1331 Q480 1331 379 1170 Q265 989 265 692 Q265 417 361 252 Q461 81 685 81 Q845 81 1016 152 Z M571 1544 L702 1792 L899 1792 L678 1544 L571 1544 Z " />
<glyph glyph-name="cacute" unicode="&#x107;" horiz-adv-x="828" d="M765 125 L796 10 Q687 -25 528 -25 Q109 -25 109 467 Q109 731 229 880 Q333 1008 534 1008 Q670 1008 777 954 L733 842 Q646 906 540 906 Q407 906 336 800 Q254 678 254 479 Q254 311 315 205 Q389 77 550 77 Q656 77 765 125 Z M427 1145 L558 1393 L755 1393 L534 1145 L427 1145 Z " />
<glyph glyph-name="Ccircumflex" unicode="&#x108;" horiz-adv-x="1056" d="M1016 152 L1047 27 Q864 -25 683 -25 Q382 -25 244 167 Q109 356 109 681 Q109 916 177 1094 Q310 1438 671 1438 Q797 1438 905 1408 Q933 1400 1003 1375 L971 1250 Q817 1331 675 1331 Q480 1331 379 1170 Q265 989 265 692 Q265 417 361 252 Q461 81 685 81 Q845 81 1016 152 Z M667 1701 L493 1544 L370 1544 L576 1792 L758 1792 L964 1544 L842 1544 L667 1701 Z " />
<glyph glyph-name="ccircumflex" unicode="&#x109;" horiz-adv-x="828" d="M765 125 L796 10 Q687 -25 528 -25 Q109 -25 109 467 Q109 731 229 880 Q333 1008 534 1008 Q670 1008 777 954 L733 842 Q646 906 540 906 Q407 906 336 800 Q254 678 254 479 Q254 311 315 205 Q389 77 550 77 Q656 77 765 125 Z M517 1302 L343 1145 L220 1145 L426 1393 L608 1393 L814 1145 L692 1145 L517 1302 Z " />
<glyph glyph-name="Cdotaccent" unicode="&#x10a;" horiz-adv-x="1056" d="M1016 152 L1047 27 Q864 -25 683 -25 Q382 -25 244 167 Q109 356 109 681 Q109 916 177 1094 Q310 1438 671 1438 Q797 1438 905 1408 Q933 1400 1003 1375 L971 1250 Q817 1331 675 1331 Q480 1331 379 1170 Q265 989 265 692 Q265 417 361 252 Q461 81 685 81 Q845 81 1016 152 Z M685 1765 Q728 1765 758 1735 Q787 1706 787 1664 Q787 1623 758 1594 Q728 1564 685 1564 Q642 1564 612 1594 Q583 1623 583 1666 Q583 1707 612 1735 Q643 1765 685 1765 Z " />
<glyph glyph-name="cdotaccent" unicode="&#x10b;" horiz-adv-x="828" d="M765 125 L796 10 Q687 -25 528 -25 Q109 -25 109 467 Q109 731 229 880 Q333 1008 534 1008 Q670 1008 777 954 L733 842 Q646 906 540 906 Q407 906 336 800 Q254 678 254 479 Q254 311 315 205 Q389 77 550 77 Q656 77 765 125 Z M536 1365 Q579 1365 609 1335 Q638 1307 638 1264 Q638 1223 609 1194 Q579 1164 536 1164 Q493 1164 463 1194 Q434 1223 434 1266 Q434 1307 463 1335 Q494 1365 536 1365 Z " />
<glyph glyph-name="Ccaron" unicode="&#x10c;" horiz-adv-x="1056" d="M1016 152 L1047 27 Q864 -25 683 -25 Q382 -25 244 167 Q109 356 109 681 Q109 916 177 1094 Q310 1438 671 1438 Q797 1438 905 1408 Q933 1400 1003 1375 L971 1250 Q817 1331 675 1331 Q480 1331 379 1170 Q265 989 265 692 Q265 417 361 252 Q461 81 685 81 Q845 81 1016 152 Z M667 1635 L842 1792 L964 1792 L759 1544 L576 1544 L370 1792 L492 1792 L667 1635 Z " />
<glyph glyph-name="ccaron" unicode="&#x10d;" horiz-adv-x="828" d="M765 125 L796 10 Q687 -25 528 -25 Q109 -25 109 467 Q109 731 229 880 Q333 1008 534 1008 Q670 1008 777 954 L733 842 Q646 906 540 906 Q407 906 336 800 Q254 678 254 479 Q254 311 315 205 Q389 77 550 77 Q656 77 765 125 Z M522 1236 L697 1393 L819 1393 L614 1145 L431 1145 L225 1393 L347 1393 L522 1236 Z " />
<glyph glyph-name="Dcaron" unicode="&#x10e;" horiz-adv-x="1292" d="M194 0 L194 1413 L536 1413 Q713 1413 828 1368 Q1005 1299 1089 1134 Q1182 950 1182 705 Q1182 345 994 160 Q892 60 745 22 Q657 0 520 0 L194 0 Z M341 106 L521 106 Q745 106 872 232 Q960 319 999 478 Q1026 591 1026 718 Q1026 965 935 1125 Q886 1212 785 1262 Q691 1307 483 1307 L341 1307 L341 106 Z M578 1635 L753 1792 L875 1792 L670 1544 L487 1544 L281 1792 L403 1792 L578 1635 Z " />
<glyph glyph-name="dcaron" unicode="&#x10f;" horiz-adv-x="1203" d="M757 952 L757 1251 Q757 1336 750 1453 L897 1483 L897 250 Q897 110 913 0 L788 0 Q777 69 770 142 Q725 81 685 49 Q592 -25 465 -25 Q335 -25 246 52 Q110 170 110 456 Q110 685 210 837 Q323 1008 539 1008 Q655 1008 757 952 Z M757 839 Q665 906 560 906 Q398 906 322 762 Q255 634 255 454 Q255 283 311 181 Q336 135 385 106 Q431 77 486 77 Q568 77 640 131 Q711 183 741 268 Q757 312 757 393 L757 839 Z M1064 1043 L1113 1483 L1272 1483 L1177 1043 L1064 1043 Z " />
<glyph glyph-name="Dcroat" unicode="&#x110;" horiz-adv-x="1305" d="M208 0 L208 684 L53 684 L54 789 L208 789 L208 1413 L550 1413 Q727 1413 842 1368 Q1019 1298 1103 1133 Q1196 949 1196 703 Q1196 345 1008 160 Q906 60 759 22 Q671 0 534 0 L208 0 Z M355 106 L535 106 Q759 106 886 232 Q974 319 1012 477 Q1040 592 1040 718 Q1040 964 949 1125 Q900 1212 799 1262 Q705 1307 497 1307 L355 1307 L355 789 L765 789 L764 684 L355 684 L355 106 Z " />
<glyph glyph-name="dcroat" unicode="&#x111;" horiz-adv-x="1077" d="M757 952 L757 1153 L485 1153 L485 1246 L757 1246 L757 1265 Q757 1341 750 1453 L897 1483 L897 1246 L1033 1246 L1033 1153 L897 1153 L897 250 Q897 110 913 0 L788 0 Q777 69 770 142 Q725 80 685 49 Q592 -25 465 -25 Q334 -25 245 52 Q109 170 109 456 Q109 686 209 837 Q322 1008 538 1008 Q655 1008 757 952 Z M757 839 Q665 906 559 906 Q397 906 321 762 Q254 634 254 454 Q254 283 310 181 Q335 135 384 106 Q431 77 485 77 Q568 77 640 131 Q711 183 741 268 Q757 312 757 393 L757 839 Z " />
<glyph glyph-name="Emacron" unicode="&#x112;" horiz-adv-x="1090" d="M194 0 L194 1413 L1028 1413 L1028 1307 L341 1307 L341 790 L864 790 L864 684 L341 684 L341 106 L1029 106 L1029 0 L194 0 Z M374 1619 L374 1717 L894 1717 L894 1619 L374 1619 Z " />
<glyph glyph-name="emacron" unicode="&#x113;" horiz-adv-x="1007" d="M909 483 L253 483 Q255 346 286 261 Q321 165 392 122 Q469 76 592 76 Q717 76 848 125 L878 14 Q746 -25 571 -25 Q335 -25 225 99 Q109 228 109 475 Q109 708 208 852 Q315 1008 541 1008 Q910 1008 910 542 Q910 532 909 483 Z M769 583 Q766 698 737 777 Q689 907 533 907 Q293 907 258 583 L769 583 Z M262 1220 L262 1318 L782 1318 L782 1220 L262 1220 Z " />
<glyph glyph-name="Ebreve" unicode="&#x114;" horiz-adv-x="1090" d="M194 0 L194 1413 L1028 1413 L1028 1307 L341 1307 L341 790 L864 790 L864 684 L341 684 L341 106 L1029 106 L1029 0 L194 0 Z M347 1793 L474 1793 Q481 1725 505 1695 Q544 1647 634 1647 Q733 1647 770 1704 Q787 1732 794 1793 L921 1793 Q918 1704 878 1643 Q808 1535 634 1535 Q449 1535 381 1657 Q350 1714 347 1793 Z " />
<glyph glyph-name="ebreve" unicode="&#x115;" horiz-adv-x="1007" d="M909 483 L253 483 Q255 346 286 261 Q321 165 392 122 Q469 76 592 76 Q717 76 848 125 L878 14 Q746 -25 571 -25 Q335 -25 225 99 Q109 228 109 475 Q109 708 208 852 Q315 1008 541 1008 Q910 1008 910 542 Q910 532 909 483 Z M769 583 Q766 698 737 777 Q689 907 533 907 Q293 907 258 583 L769 583 Z M253 1394 L380 1394 Q387 1326 411 1296 Q450 1248 540 1248 Q639 1248 676 1305 Q693 1333 700 1394 L827 1394 Q824 1305 784 1244 Q714 1136 540 1136 Q355 1136 287 1258 Q256 1315 253 1394 Z " />
<glyph glyph-name="Edotaccent" unicode="&#x116;" horiz-adv-x="1090" d="M194 0 L194 1413 L1028 1413 L1028 1307 L341 1307 L341 790 L864 790 L864 684 L341 684 L341 106 L1029 106 L1029 0 L194 0 Z M658 1765 Q701 1765 731 1735 Q760 1706 760 1664 Q760 1623 731 1594 Q701 1564 658 1564 Q615 1564 585 1594 Q556 1623 556 1666 Q556 1707 585 1735 Q616 1765 658 1765 Z " />
<glyph glyph-name="edotaccent" unicode="&#x117;" horiz-adv-x="1007" d="M909 483 L253 483 Q255 346 286 261 Q321 165 392 122 Q469 76 592 76 Q717 76 848 125 L878 14 Q746 -25 571 -25 Q335 -25 225 99 Q109 228 109 475 Q109 708 208 852 Q315 1008 541 1008 Q910 1008 910 542 Q910 532 909 483 Z M769 583 Q766 698 737 777 Q689 907 533 907 Q293 907 258 583 L769 583 Z M542 1365 Q585 1365 615 1335 Q644 1307 644 1264 Q644 1223 615 1194 Q585 1164 542 1164 Q499 1164 469 1194 Q440 1223 440 1266 Q440 1307 469 1335 Q500 1365 542 1365 Z " />
<glyph glyph-name="Eogonek" unicode="&#x118;" horiz-adv-x="1090" d="M194 0 L194 1413 L1028 1413 L1028 1307 L341 1307 L341 790 L864 790 L864 684 L341 684 L341 106 L1029 106 L1029 0 Q921 -63 874 -107 Q794 -183 794 -281 Q794 -419 932 -419 Q1003 -419 1063 -393 L1077 -466 Q1006 -496 907 -496 Q650 -496 650 -298 Q650 -165 769 -73 Q816 -37 892 0 L194 0 Z " />
<glyph glyph-name="eogonek" unicode="&#x119;" horiz-adv-x="1007" d="M909 483 L253 483 Q255 346 286 262 Q321 166 392 123 Q469 77 592 77 Q718 77 848 125 L878 14 Q794 -11 677 -20 Q602 -63 555 -108 Q474 -183 474 -282 Q474 -419 613 -419 Q685 -419 744 -392 L758 -466 Q687 -496 587 -496 Q330 -496 330 -297 Q330 -131 526 -23 Q371 -13 281 50 Q109 169 109 475 Q109 708 208 852 Q315 1008 541 1008 Q910 1008 910 543 Q910 534 909 483 Z M769 583 Q766 698 737 777 Q689 907 533 907 Q293 907 258 583 L769 583 Z " />
<glyph glyph-name="Ecaron" unicode="&#x11a;" horiz-adv-x="1090" d="M194 0 L194 1413 L1028 1413 L1028 1307 L341 1307 L341 790 L864 790 L864 684 L341 684 L341 106 L1029 106 L1029 0 L194 0 Z M633 1635 L808 1792 L930 1792 L725 1544 L542 1544 L336 1792 L458 1792 L633 1635 Z " />
<glyph glyph-name="ecaron" unicode="&#x11b;" horiz-adv-x="1007" d="M909 483 L253 483 Q255 346 286 261 Q321 165 392 122 Q469 76 592 76 Q717 76 848 125 L878 14 Q746 -25 571 -25 Q335 -25 225 99 Q109 228 109 475 Q109 708 208 852 Q315 1008 541 1008 Q910 1008 910 542 Q910 532 909 483 Z M769 583 Q766 698 737 777 Q689 907 533 907 Q293 907 258 583 L769 583 Z M541 1236 L716 1393 L838 1393 L633 1145 L450 1145 L244 1393 L366 1393 L541 1236 Z " />
<glyph glyph-name="Gcircumflex" unicode="&#x11c;" horiz-adv-x="1273" d="M682 681 L682 786 L1127 786 L1127 71 Q974 -25 734 -25 Q392 -25 240 183 Q109 363 109 687 Q109 1114 326 1304 Q419 1385 536 1416 Q618 1438 731 1438 Q899 1438 1091 1374 L1046 1254 Q881 1332 731 1332 Q490 1332 384 1175 Q265 998 265 704 Q265 419 369 252 Q431 152 535 114 Q624 81 750 81 Q864 81 980 127 L980 681 L682 681 Z M721 1701 L547 1544 L424 1544 L630 1792 L812 1792 L1018 1544 L896 1544 L721 1701 Z " />
<glyph glyph-name="gcircumflex" unicode="&#x11d;" horiz-adv-x="1049" d="M744 118 Q696 65 663 40 Q575 -25 460 -25 Q329 -25 241 53 Q109 168 109 459 Q109 721 227 868 Q339 1008 560 1008 Q725 1008 897 948 Q884 790 884 607 L884 229 Q884 -73 856 -196 Q793 -472 451 -472 Q296 -472 175 -426 L206 -313 Q337 -371 469 -371 Q655 -371 709 -218 Q744 -118 744 73 L744 118 Z M744 865 Q652 906 549 906 Q392 906 323 777 Q254 649 254 443 Q254 278 304 180 Q358 77 476 77 Q612 77 694 198 Q729 249 739 307 Q744 335 744 393 L744 865 Z M567 1302 L393 1145 L270 1145 L476 1393 L658 1393 L864 1145 L742 1145 L567 1302 Z " />
<glyph glyph-name="Gbreve" unicode="&#x11e;" horiz-adv-x="1273" d="M682 681 L682 786 L1127 786 L1127 71 Q974 -25 734 -25 Q392 -25 240 183 Q109 363 109 687 Q109 1114 326 1304 Q419 1385 536 1416 Q618 1438 731 1438 Q899 1438 1091 1374 L1046 1254 Q881 1332 731 1332 Q490 1332 384 1175 Q265 998 265 704 Q265 419 369 252 Q431 152 535 114 Q624 81 750 81 Q864 81 980 127 L980 681 L682 681 Z M410 1793 L537 1793 Q544 1725 568 1695 Q607 1647 697 1647 Q796 1647 833 1704 Q850 1732 857 1793 L984 1793 Q981 1704 941 1643 Q871 1535 697 1535 Q512 1535 444 1657 Q413 1714 410 1793 Z " />
<glyph glyph-name="gbreve" unicode="&#x11f;" horiz-adv-x="1049" d="M744 118 Q696 65 663 40 Q575 -25 460 -25 Q329 -25 241 53 Q109 168 109 459 Q109 721 227 868 Q339 1008 560 1008 Q725 1008 897 948 Q884 790 884 607 L884 229 Q884 -73 856 -196 Q793 -472 451 -472 Q296 -472 175 -426 L206 -313 Q337 -371 469 -371 Q655 -371 709 -218 Q744 -118 744 73 L744 118 Z M744 865 Q652 906 549 906 Q392 906 323 777 Q254 649 254 443 Q254 278 304 180 Q358 77 476 77 Q612 77 694 198 Q729 249 739 307 Q744 335 744 393 L744 865 Z M274 1394 L401 1394 Q408 1326 432 1296 Q471 1248 561 1248 Q660 1248 697 1305 Q714 1333 721 1394 L848 1394 Q845 1305 805 1244 Q735 1136 561 1136 Q376 1136 308 1258 Q277 1315 274 1394 Z " />
<glyph glyph-name="Gdotaccent" unicode="&#x120;" horiz-adv-x="1273" d="M682 681 L682 786 L1127 786 L1127 71 Q974 -25 734 -25 Q392 -25 240 183 Q109 363 109 687 Q109 1114 326 1304 Q419 1385 536 1416 Q618 1438 731 1438 Q899 1438 1091 1374 L1046 1254 Q881 1332 731 1332 Q490 1332 384 1175 Q265 998 265 704 Q265 419 369 252 Q431 152 535 114 Q624 81 750 81 Q864 81 980 127 L980 681 L682 681 Z M692 1765 Q735 1765 765 1735 Q794 1706 794 1664 Q794 1623 765 1594 Q735 1564 692 1564 Q649 1564 619 1594 Q590 1623 590 1666 Q590 1707 619 1735 Q650 1765 692 1765 Z " />
<glyph glyph-name="gdotaccent" unicode="&#x121;" horiz-adv-x="1049" d="M744 118 Q696 65 663 40 Q575 -25 460 -25 Q329 -25 241 53 Q109 168 109 459 Q109 721 227 868 Q339 1008 560 1008 Q725 1008 897 948 Q884 790 884 607 L884 229 Q884 -73 856 -196 Q793 -472 451 -472 Q296 -472 175 -426 L206 -313 Q337 -371 469 -371 Q655 -371 709 -218 Q744 -118 744 73 L744 118 Z M744 865 Q652 906 549 906 Q392 906 323 777 Q254 649 254 443 Q254 278 304 180 Q358 77 476 77 Q612 77 694 198 Q729 249 739 307 Q744 335 744 393 L744 865 Z M573 1365 Q616 1365 646 1335 Q675 1307 675 1264 Q675 1223 646 1194 Q616 1164 573 1164 Q530 1164 500 1194 Q471 1223 471 1266 Q471 1307 500 1335 Q531 1365 573 1365 Z " />
<glyph glyph-name="Gcommaaccent" unicode="&#x122;" horiz-adv-x="1273" d="M682 681 L682 786 L1127 786 L1127 71 Q974 -25 734 -25 Q392 -25 240 183 Q109 363 109 687 Q109 1114 326 1304 Q419 1385 536 1416 Q618 1438 731 1438 Q899 1438 1091 1374 L1046 1254 Q881 1332 731 1332 Q490 1332 384 1175 Q265 998 265 704 Q265 419 369 252 Q431 152 535 114 Q624 81 750 81 Q864 81 980 127 L980 681 L682 681 Z M509 -452 L592 -145 L768 -145 L613 -452 L509 -452 Z " />
<glyph glyph-name="gcommaaccent" unicode="&#x123;" horiz-adv-x="1049" d="M744 118 Q696 65 663 40 Q575 -25 460 -25 Q329 -25 241 53 Q109 168 109 459 Q109 721 227 868 Q339 1008 560 1008 Q725 1008 897 948 Q884 790 884 607 L884 229 Q884 -73 856 -196 Q793 -472 451 -472 Q296 -472 175 -426 L206 -313 Q337 -371 469 -371 Q655 -371 709 -218 Q744 -118 744 73 L744 118 Z M744 865 Q652 906 549 906 Q392 906 323 777 Q254 649 254 443 Q254 278 304 180 Q358 77 476 77 Q612 77 694 198 Q729 249 739 307 Q744 335 744 393 L744 865 Z M490 1145 L712 1393 L818 1393 L688 1145 L490 1145 Z " />
<glyph glyph-name="Hcircumflex" unicode="&#x124;" horiz-adv-x="1375" d="M194 0 L194 1413 L341 1413 L341 791 L1033 791 L1033 1413 L1180 1413 L1180 0 L1033 0 L1033 685 L341 685 L341 0 L194 0 Z M687 1701 L513 1544 L390 1544 L596 1792 L778 1792 L984 1544 L862 1544 L687 1701 Z " />
<glyph glyph-name="hcircumflex" unicode="&#x125;" horiz-adv-x="1134" d="M180 0 L180 1251 Q180 1337 173 1453 L321 1483 L321 822 Q486 1008 683 1008 Q876 1008 930 863 Q955 795 955 632 L955 0 L814 0 L814 656 Q814 785 788 833 Q752 901 653 901 Q515 901 383 764 Q334 713 325 673 Q321 655 321 603 L321 0 L180 0 Z M281 1742 L107 1585 L-16 1585 L190 1833 L372 1833 L578 1585 L456 1585 L281 1742 Z " />
<glyph glyph-name="Hbar" unicode="&#x126;" horiz-adv-x="1402" d="M208 0 L208 1021 L59 1021 L59 1114 L208 1114 L208 1413 L355 1413 L355 1114 L1047 1114 L1047 1413 L1194 1413 L1194 1114 L1342 1114 L1342 1021 L1194 1021 L1194 0 L1047 0 L1047 682 L355 682 L355 0 L208 0 Z M355 788 L1047 788 L1047 1021 L355 1021 L355 788 Z " />
<glyph glyph-name="hbar" unicode="&#x127;" horiz-adv-x="1134" d="M180 0 L180 1153 L45 1153 L45 1246 L180 1246 L180 1266 Q180 1340 173 1453 L321 1483 L321 1246 L593 1246 L593 1153 L321 1153 L321 822 Q487 1008 684 1008 Q877 1008 930 863 Q955 796 955 632 L955 0 L815 0 L815 656 Q815 785 789 833 Q752 901 653 901 Q516 901 383 764 Q335 713 325 673 Q321 655 321 603 L321 0 L180 0 Z " />
<glyph glyph-name="Itilde" unicode="&#x128;" horiz-adv-x="537" d="M195 0 L195 1413 L342 1413 L342 0 L195 0 Z M59 1550 L-51 1550 Q4 1787 140 1787 Q214 1787 309 1711 Q372 1661 398 1661 Q440 1661 461 1716 Q469 1737 478 1778 L589 1778 Q577 1687 550 1634 Q499 1536 385 1536 Q328 1536 284 1565 Q274 1572 224 1610 Q157 1661 131 1661 Q88 1661 59 1550 Z " />
<glyph glyph-name="itilde" unicode="&#x129;" horiz-adv-x="501" d="M181 0 L181 983 L321 983 L321 0 L181 0 Z M41 1151 L-69 1151 Q-15 1388 122 1388 Q196 1388 291 1312 Q354 1262 380 1262 Q423 1262 443 1317 Q451 1338 460 1379 L571 1379 Q559 1288 532 1235 Q481 1137 367 1137 Q310 1137 266 1166 Q256 1173 206 1211 Q138 1262 113 1262 Q70 1262 41 1151 Z " />
<glyph glyph-name="Imacron" unicode="&#x12a;" horiz-adv-x="538" d="M195 0 L195 1413 L342 1413 L342 0 L195 0 Z M9 1619 L9 1717 L529 1717 L529 1619 L9 1619 Z " />
<glyph glyph-name="imacron" unicode="&#x12b;" horiz-adv-x="501" d="M180 0 L180 983 L320 983 L320 0 L180 0 Z M-10 1220 L-10 1318 L510 1318 L510 1220 L-10 1220 Z " />
<glyph glyph-name="Ibreve" unicode="&#x12c;" horiz-adv-x="537" d="M195 0 L195 1413 L342 1413 L342 0 L195 0 Z M-18 1793 L109 1793 Q116 1725 140 1695 Q179 1647 269 1647 Q368 1647 405 1704 Q422 1732 429 1793 L556 1793 Q553 1704 513 1643 Q443 1535 269 1535 Q84 1535 16 1657 Q-15 1714 -18 1793 Z " />
<glyph glyph-name="ibreve" unicode="&#x12d;" horiz-adv-x="501" d="M181 0 L181 983 L321 983 L321 0 L181 0 Z M-36 1394 L91 1394 Q98 1326 122 1296 Q161 1248 251 1248 Q350 1248 387 1305 Q404 1333 411 1394 L538 1394 Q535 1305 495 1244 Q425 1136 251 1136 Q66 1136 -2 1258 Q-33 1315 -36 1394 Z " />
<glyph glyph-name="Iogonek" unicode="&#x12e;" horiz-adv-x="538" d="M196 0 L196 1413 L343 1413 L343 0 Q233 -65 188 -107 Q108 -184 108 -281 Q108 -419 246 -419 Q318 -419 377 -393 L391 -466 Q319 -496 221 -496 Q-36 -496 -36 -298 Q-36 -166 83 -73 Q130 -37 206 0 L196 0 Z " />
<glyph glyph-name="iogonek" unicode="&#x12f;" horiz-adv-x="503" d="M181 0 L181 983 L322 983 L322 0 Q211 -65 167 -107 Q86 -183 86 -281 Q86 -419 225 -419 Q297 -419 356 -393 L370 -466 Q298 -496 199 -496 Q-58 -496 -58 -298 Q-58 -166 64 -74 Q108 -40 191 0 L181 0 Z M252 1365 Q295 1365 325 1335 Q354 1306 354 1264 Q354 1223 325 1194 Q295 1164 252 1164 Q209 1164 179 1194 Q150 1223 150 1266 Q150 1307 179 1335 Q210 1365 252 1365 Z " />
<glyph glyph-name="Idotaccent" unicode="&#x130;" horiz-adv-x="538" d="M195 0 L195 1413 L342 1413 L342 0 L195 0 Z M269 1765 Q312 1765 342 1735 Q371 1706 371 1664 Q371 1623 342 1594 Q312 1564 269 1564 Q226 1564 196 1594 Q167 1623 167 1666 Q167 1707 196 1735 Q227 1765 269 1765 Z " />
<glyph glyph-name="IJ" unicode="&#x132;" horiz-adv-x="1132" d="M195 0 L195 1413 L342 1413 L342 0 L195 0 Z M790 1413 L937 1413 L937 231 Q937 35 919 -70 Q889 -255 789 -338 Q696 -415 535 -415 Q440 -415 352 -391 L373 -281 Q458 -309 536 -309 Q717 -309 761 -138 Q790 -28 790 234 L790 1413 Z " />
<glyph glyph-name="ij" unicode="&#x133;" horiz-adv-x="1017" d="M182 0 L182 983 L322 983 L322 0 L182 0 Z M252 1365 Q295 1365 325 1335 Q354 1307 354 1264 Q354 1223 325 1194 Q295 1164 252 1164 Q209 1164 179 1194 Q150 1223 150 1266 Q150 1307 179 1335 Q210 1365 252 1365 Z M696 983 L836 983 L836 15 Q836 -145 819 -235 Q774 -472 514 -472 Q444 -472 383 -455 L406 -350 Q468 -371 533 -371 Q641 -371 671 -268 Q696 -182 696 -4 L696 983 Z M766 1365 Q808 1365 838 1335 Q868 1307 868 1264 Q868 1223 838 1194 Q808 1164 766 1164 Q723 1164 693 1194 Q664 1223 664 1266 Q664 1307 693 1335 Q724 1365 766 1365 Z " />
<glyph glyph-name="Jcircumflex" unicode="&#x134;" horiz-adv-x="594" d="M252 1413 L399 1413 L399 231 Q399 35 381 -70 Q351 -255 251 -338 Q158 -415 -3 -415 Q-98 -415 -186 -391 L-165 -281 Q-80 -309 -2 -309 Q179 -309 223 -138 Q252 -28 252 234 L252 1413 Z M297 1701 L123 1544 L0 1544 L206 1792 L388 1792 L594 1544 L472 1544 L297 1701 Z " />
<glyph glyph-name="jcircumflex" unicode="&#x135;" horiz-adv-x="512" d="M191 983 L331 983 L331 -28 Q331 -173 314 -255 Q269 -472 11 -472 Q-83 -472 -149 -453 L-126 -349 Q-49 -371 27 -371 Q136 -371 166 -280 Q191 -204 191 -47 L191 983 Z M256 1302 L82 1145 L-41 1145 L165 1393 L347 1393 L553 1145 L431 1145 L256 1302 Z " />
<glyph glyph-name="Kcommaaccent" unicode="&#x136;" horiz-adv-x="1168" d="M194 0 L194 1413 L341 1413 L341 778 L993 1413 L1153 1413 L498 779 L1181 0 L1000 0 L341 763 L341 0 L194 0 Z M479 -452 L562 -145 L738 -145 L583 -452 L479 -452 Z " />
<glyph glyph-name="kcommaaccent" unicode="&#x137;" horiz-adv-x="944" d="M180 0 L180 1251 Q180 1337 173 1453 L321 1483 L321 604 L756 983 L934 983 L473 600 L956 0 L780 0 L321 588 L321 0 L180 0 Z M379 -452 L462 -145 L638 -145 L483 -452 L379 -452 Z " />
<glyph glyph-name="kgreenlandic" unicode="&#x138;" horiz-adv-x="944" d="M180 0 L180 781 Q180 867 173 983 L321 983 L321 604 L756 983 L934 983 L473 600 L956 0 L780 0 L321 588 L321 0 L180 0 Z " />
<glyph glyph-name="Lacute" unicode="&#x139;" horiz-adv-x="1015" d="M194 0 L194 1413 L341 1413 L341 106 L1006 106 L1006 0 L194 0 Z M230 1544 L361 1792 L558 1792 L337 1544 L230 1544 Z " />
<glyph glyph-name="lacute" unicode="&#x13a;" horiz-adv-x="501" d="M181 0 L181 1251 Q181 1337 174 1453 L322 1483 L322 0 L181 0 Z M189 1585 L320 1833 L517 1833 L296 1585 L189 1585 Z " />
<glyph glyph-name="Lcommaaccent" unicode="&#x13b;" horiz-adv-x="1015" d="M194 0 L194 1413 L341 1413 L341 106 L1006 106 L1006 0 L194 0 Z M415 -452 L498 -145 L674 -145 L519 -452 L415 -452 Z " />
<glyph glyph-name="lcommaaccent" unicode="&#x13c;" horiz-adv-x="501" d="M180 0 L180 1251 Q180 1337 173 1453 L321 1483 L321 0 L180 0 Z M68 -452 L151 -145 L327 -145 L172 -452 L68 -452 Z " />
<glyph glyph-name="Lcaron" unicode="&#x13d;" horiz-adv-x="1015" d="M194 0 L194 1413 L341 1413 L341 106 L1006 106 L1006 0 L194 0 Z M551 1043 L600 1483 L759 1483 L664 1043 L551 1043 Z " />
<glyph glyph-name="lcaron" unicode="&#x13e;" horiz-adv-x="627" d="M181 0 L181 1251 Q181 1337 174 1453 L322 1483 L322 0 L181 0 Z M488 1043 L537 1483 L696 1483 L601 1043 L488 1043 Z " />
<glyph glyph-name="Ldot" unicode="&#x13f;" horiz-adv-x="1015" d="M194 0 L194 1413 L341 1413 L341 106 L1006 106 L1006 0 L194 0 Z M725 809 Q774 809 808 770 Q836 738 836 697 Q836 650 800 616 Q767 586 723 586 Q671 586 637 624 Q609 656 609 698 Q609 745 645 779 Q677 809 725 809 Z " />
<glyph glyph-name="ldot" unicode="&#x140;" horiz-adv-x="716" d="M181 0 L181 1251 Q181 1337 174 1453 L322 1483 L322 0 L181 0 Z M612 767 Q661 767 695 728 Q723 696 723 655 Q723 608 687 574 Q654 544 610 544 Q558 544 524 582 Q496 614 496 656 Q496 703 532 737 Q564 767 612 767 Z " />
<glyph glyph-name="Lslash" unicode="&#x141;" horiz-adv-x="1037" d="M216 0 L216 449 L36 318 L36 442 L216 572 L216 1413 L363 1413 L363 679 L805 996 L805 865 L363 555 L363 106 L1028 106 L1028 0 L216 0 Z " />
<glyph glyph-name="lslash" unicode="&#x142;" horiz-adv-x="520" d="M190 0 L190 649 L13 522 L13 636 L190 763 L190 1251 Q190 1334 183 1453 L330 1483 L330 866 L507 993 L507 879 L330 752 L330 0 L190 0 Z " />
<glyph glyph-name="Nacute" unicode="&#x143;" horiz-adv-x="1409" d="M194 0 L194 1413 L397 1413 L893 531 Q915 492 988 358 L1042 261 L1088 177 Q1084 257 1084 392 L1084 473 L1084 557 L1084 1413 L1214 1413 L1214 0 L1031 0 L492 970 Q462 1024 401 1136 L363 1206 L320 1285 Q324 1209 324 1032 L324 966 L324 0 L194 0 Z M638 1544 L769 1792 L966 1792 L745 1544 L638 1544 Z " />
<glyph glyph-name="nacute" unicode="&#x144;" horiz-adv-x="1127" d="M181 0 L181 666 Q181 845 172 983 L305 983 L318 816 Q480 1008 678 1008 Q870 1008 924 863 Q949 796 949 632 L949 0 L809 0 L809 656 Q809 784 782 833 Q746 901 647 901 Q512 901 383 764 Q336 714 327 675 Q321 649 321 615 L321 0 L181 0 Z M503 1145 L634 1393 L831 1393 L610 1145 L503 1145 Z " />
<glyph glyph-name="Ncommaaccent" unicode="&#x145;" horiz-adv-x="1409" d="M194 0 L194 1413 L397 1413 L893 531 Q915 492 988 358 L1042 261 L1088 177 Q1084 257 1084 392 L1084 473 L1084 557 L1084 1413 L1214 1413 L1214 0 L1031 0 L492 970 Q462 1024 401 1136 L363 1206 L320 1285 Q324 1209 324 1032 L324 966 L324 0 L194 0 Z M542 -452 L625 -145 L801 -145 L646 -452 L542 -452 Z " />
<glyph glyph-name="ncommaaccent" unicode="&#x146;" horiz-adv-x="1127" d="M181 0 L181 666 Q181 845 172 983 L305 983 L318 816 Q480 1008 678 1008 Q870 1008 924 863 Q949 796 949 632 L949 0 L809 0 L809 656 Q809 784 782 833 Q746 901 647 901 Q512 901 383 764 Q336 714 327 675 Q321 649 321 615 L321 0 L181 0 Z M416 -452 L499 -145 L675 -145 L520 -452 L416 -452 Z " />
<glyph glyph-name="Ncaron" unicode="&#x147;" horiz-adv-x="1409" d="M194 0 L194 1413 L397 1413 L893 531 Q915 492 988 358 L1042 261 L1088 177 Q1084 257 1084 392 L1084 473 L1084 557 L1084 1413 L1214 1413 L1214 0 L1031 0 L492 970 Q462 1024 401 1136 L363 1206 L320 1285 Q324 1209 324 1032 L324 966 L324 0 L194 0 Z M733 1635 L908 1792 L1030 1792 L825 1544 L642 1544 L436 1792 L558 1792 L733 1635 Z " />
<glyph glyph-name="ncaron" unicode="&#x148;" horiz-adv-x="1127" d="M181 0 L181 666 Q181 845 172 983 L305 983 L318 816 Q480 1008 678 1008 Q870 1008 924 863 Q949 796 949 632 L949 0 L809 0 L809 656 Q809 784 782 833 Q746 901 647 901 Q512 901 383 764 Q336 714 327 675 Q321 649 321 615 L321 0 L181 0 Z M551 1236 L726 1393 L848 1393 L643 1145 L460 1145 L254 1393 L376 1393 L551 1236 Z " />
<glyph glyph-name="napostrophe" unicode="&#x149;" horiz-adv-x="1127" d="M181 0 L181 666 Q181 845 172 983 L305 983 L318 816 Q480 1008 678 1008 Q870 1008 924 863 Q949 796 949 632 L949 0 L809 0 L809 656 Q809 784 782 833 Q746 901 647 901 Q512 901 383 764 Q336 714 327 675 Q321 649 321 615 L321 0 L181 0 Z M-8 1051 L41 1491 L200 1491 L105 1051 L-8 1051 Z " />
<glyph glyph-name="Eng" unicode="&#x14a;" horiz-adv-x="1409" d="M194 0 L194 1413 L397 1413 L893 531 Q915 492 988 358 L1042 261 L1088 177 Q1084 257 1084 392 L1084 473 L1084 557 L1084 1413 L1214 1413 L1214 -28 Q1214 -172 1197 -255 Q1174 -365 1088 -423 Q1015 -472 893 -472 Q802 -472 733 -453 L756 -349 Q834 -371 910 -371 Q1025 -371 1057 -281 Q1084 -207 1084 -58 L1084 0 L1031 0 L492 970 Q461 1025 401 1136 L363 1206 L320 1285 Q324 1209 324 1033 L324 967 L324 0 L194 0 Z " />
<glyph glyph-name="eng" unicode="&#x14b;" horiz-adv-x="1127" d="M181 0 L181 666 Q181 845 172 983 L305 983 L318 816 Q480 1008 678 1008 Q870 1008 924 863 Q949 796 949 632 L949 -28 Q949 -173 932 -255 Q886 -472 628 -472 Q536 -472 468 -453 L491 -349 Q569 -371 644 -371 Q754 -371 784 -280 Q809 -203 809 -46 L809 656 Q809 784 782 833 Q746 901 647 901 Q512 901 383 764 Q336 714 327 675 Q321 649 321 615 L321 0 L181 0 Z " />
<glyph glyph-name="Omacron" unicode="&#x14c;" horiz-adv-x="1369" d="M694 1438 Q882 1438 1017 1338 Q1160 1232 1221 1018 Q1260 878 1260 706 Q1260 391 1130 193 Q986 -25 684 -25 Q383 -25 239 193 Q109 391 109 704 Q109 1025 239 1220 Q385 1438 694 1438 Z M691 1332 Q542 1332 437 1243 Q265 1096 265 703 Q265 426 358 264 Q410 174 505 124 Q586 81 685 81 Q827 81 932 170 Q1104 316 1104 706 Q1104 990 1011 1149 Q956 1242 864 1290 Q782 1332 691 1332 Z M424 1619 L424 1717 L944 1717 L944 1619 L424 1619 Z " />
<glyph glyph-name="omacron" unicode="&#x14d;" horiz-adv-x="1076" d="M545 1008 Q740 1008 858 863 Q968 727 968 493 Q968 258 858 121 Q740 -25 539 -25 Q337 -25 219 121 Q109 259 109 491 Q109 729 219 863 Q340 1008 545 1008 Z M543 906 Q383 906 314 770 Q254 652 254 492 Q254 334 312 215 Q379 77 539 77 Q698 77 765 215 Q823 334 823 493 Q823 655 765 770 Q696 906 543 906 Z M279 1220 L279 1318 L799 1318 L799 1220 L279 1220 Z " />
<glyph glyph-name="Obreve" unicode="&#x14e;" horiz-adv-x="1369" d="M694 1438 Q882 1438 1017 1338 Q1160 1232 1221 1018 Q1260 878 1260 706 Q1260 391 1130 193 Q986 -25 684 -25 Q383 -25 239 193 Q109 391 109 704 Q109 1025 239 1220 Q385 1438 694 1438 Z M691 1332 Q542 1332 437 1243 Q265 1096 265 703 Q265 426 358 264 Q410 174 505 124 Q586 81 685 81 Q827 81 932 170 Q1104 316 1104 706 Q1104 990 1011 1149 Q956 1242 864 1290 Q782 1332 691 1332 Z M397 1793 L524 1793 Q531 1725 555 1695 Q594 1647 684 1647 Q783 1647 820 1704 Q837 1732 844 1793 L971 1793 Q968 1704 928 1643 Q858 1535 684 1535 Q499 1535 431 1657 Q400 1714 397 1793 Z " />
<glyph glyph-name="obreve" unicode="&#x14f;" horiz-adv-x="1076" d="M545 1008 Q740 1008 858 863 Q968 727 968 493 Q968 258 858 121 Q740 -25 539 -25 Q337 -25 219 121 Q109 259 109 491 Q109 729 219 863 Q340 1008 545 1008 Z M543 906 Q383 906 314 770 Q254 652 254 492 Q254 334 312 215 Q379 77 539 77 Q698 77 765 215 Q823 334 823 493 Q823 655 765 770 Q696 906 543 906 Z M252 1394 L379 1394 Q386 1326 410 1296 Q449 1248 539 1248 Q638 1248 675 1305 Q692 1333 699 1394 L826 1394 Q823 1305 783 1244 Q713 1136 539 1136 Q354 1136 286 1258 Q255 1315 252 1394 Z " />
<glyph glyph-name="Ohungarumlaut" unicode="&#x150;" horiz-adv-x="1369" d="M694 1438 Q882 1438 1017 1338 Q1160 1232 1221 1018 Q1260 878 1260 706 Q1260 391 1130 193 Q986 -25 684 -25 Q383 -25 239 193 Q109 391 109 704 Q109 1025 239 1220 Q385 1438 694 1438 Z M691 1332 Q542 1332 437 1243 Q265 1096 265 703 Q265 426 358 264 Q410 174 505 124 Q586 81 685 81 Q827 81 932 170 Q1104 316 1104 706 Q1104 990 1011 1149 Q956 1242 864 1290 Q782 1332 691 1332 Z M487 1544 L591 1792 L785 1792 L597 1544 L487 1544 Z M757 1544 L862 1792 L1056 1792 L867 1544 L757 1544 Z " />
<glyph glyph-name="ohungarumlaut" unicode="&#x151;" horiz-adv-x="1076" d="M545 1008 Q740 1008 858 863 Q968 727 968 493 Q968 258 858 121 Q740 -25 539 -25 Q337 -25 219 121 Q109 259 109 491 Q109 729 219 863 Q340 1008 545 1008 Z M543 906 Q383 906 314 770 Q254 652 254 492 Q254 334 312 215 Q379 77 539 77 Q698 77 765 215 Q823 334 823 493 Q823 655 765 770 Q696 906 543 906 Z M341 1145 L445 1393 L639 1393 L451 1145 L341 1145 Z M611 1145 L716 1393 L910 1393 L721 1145 L611 1145 Z " />
<glyph glyph-name="Racute" unicode="&#x154;" horiz-adv-x="1213" d="M194 0 L194 1413 L568 1413 Q728 1413 816 1389 Q1066 1322 1066 1029 Q1066 736 767 667 Q830 627 863 578 Q894 533 930 456 L1146 0 L984 0 L828 345 Q738 547 698 594 Q667 630 595 630 L341 630 L341 0 L194 0 Z M341 734 L569 734 Q760 734 838 812 Q910 885 910 1025 Q910 1170 839 1237 Q795 1278 724 1294 Q668 1307 569 1307 L341 1307 L341 734 Z M533 1544 L664 1792 L861 1792 L640 1544 L533 1544 Z " />
<glyph glyph-name="racute" unicode="&#x155;" horiz-adv-x="703" d="M181 0 L181 682 Q181 867 172 983 L307 983 Q314 897 316 810 Q368 906 417 952 Q476 1008 571 1008 Q628 1008 694 991 L664 874 Q605 898 562 898 Q465 898 381 754 Q336 676 327 627 Q321 594 321 557 L321 0 L181 0 Z M345 1145 L476 1393 L673 1393 L452 1145 L345 1145 Z " />
<glyph glyph-name="Rcommaaccent" unicode="&#x156;" horiz-adv-x="1213" d="M194 0 L194 1413 L568 1413 Q728 1413 816 1389 Q1066 1322 1066 1029 Q1066 736 767 667 Q830 627 863 578 Q894 533 930 456 L1146 0 L984 0 L828 345 Q738 547 698 594 Q667 630 595 630 L341 630 L341 0 L194 0 Z M341 734 L569 734 Q760 734 838 812 Q910 885 910 1025 Q910 1170 839 1237 Q795 1278 724 1294 Q668 1307 569 1307 L341 1307 L341 734 Z M461 -452 L544 -145 L720 -145 L565 -452 L461 -452 Z " />
<glyph glyph-name="rcommaaccent" unicode="&#x157;" horiz-adv-x="703" d="M180 0 L180 682 Q180 867 171 983 L306 983 Q313 897 315 810 Q367 906 416 952 Q475 1008 570 1008 Q627 1008 693 991 L663 874 Q604 898 561 898 Q464 898 380 754 Q335 676 326 627 Q320 594 320 557 L320 0 L180 0 Z M90 -452 L173 -145 L349 -145 L194 -452 L90 -452 Z " />
<glyph glyph-name="Rcaron" unicode="&#x158;" horiz-adv-x="1213" d="M194 0 L194 1413 L568 1413 Q728 1413 816 1389 Q1066 1322 1066 1029 Q1066 736 767 667 Q830 627 863 578 Q894 533 930 456 L1146 0 L984 0 L828 345 Q738 547 698 594 Q667 630 595 630 L341 630 L341 0 L194 0 Z M341 734 L569 734 Q760 734 838 812 Q910 885 910 1025 Q910 1170 839 1237 Q795 1278 724 1294 Q668 1307 569 1307 L341 1307 L341 734 Z M605 1635 L780 1792 L902 1792 L697 1544 L514 1544 L308 1792 L430 1792 L605 1635 Z " />
<glyph glyph-name="rcaron" unicode="&#x159;" horiz-adv-x="703" d="M180 0 L180 682 Q180 867 171 983 L306 983 Q313 897 315 810 Q367 906 416 952 Q475 1008 570 1008 Q627 1008 693 991 L663 874 Q604 898 561 898 Q464 898 380 754 Q335 676 326 627 Q320 594 320 557 L320 0 L180 0 Z M411 1236 L586 1393 L708 1393 L503 1145 L320 1145 L114 1393 L236 1393 L411 1236 Z " />
<glyph glyph-name="Sacute" unicode="&#x15a;" horiz-adv-x="1010" d="M42 61 L74 186 Q253 81 455 81 Q632 81 720 158 Q793 221 793 334 Q793 429 748 497 Q711 554 645 590 Q586 623 494 664 Q280 759 199 824 Q91 910 91 1076 Q91 1438 503 1438 Q662 1438 835 1379 L790 1258 Q646 1332 515 1332 Q228 1332 228 1101 Q228 1000 290 943 Q334 904 398 872 Q468 838 566 794 Q732 719 798 666 Q930 558 930 368 Q930 167 795 69 Q667 -25 459 -25 Q241 -25 42 61 Z M422 1544 L553 1792 L750 1792 L529 1544 L422 1544 Z " />
<glyph glyph-name="sacute" unicode="&#x15b;" horiz-adv-x="826" d="M86 28 L116 147 Q229 76 380 76 Q507 76 563 132 Q606 176 606 262 Q606 320 576 354 Q542 392 491 416 Q452 434 393 458 Q240 522 181 571 Q107 633 107 746 Q107 1008 423 1008 Q559 1008 679 958 L635 846 Q543 907 427 907 Q334 907 286 865 Q243 827 243 761 Q243 703 287 666 Q330 630 457 578 Q612 516 670 462 Q742 396 742 273 Q742 -25 383 -25 Q217 -25 86 28 Z M341 1145 L472 1393 L669 1393 L448 1145 L341 1145 Z " />
<glyph glyph-name="Scircumflex" unicode="&#x15c;" horiz-adv-x="1010" d="M42 61 L74 186 Q253 81 455 81 Q632 81 720 158 Q793 221 793 334 Q793 429 748 497 Q711 554 645 590 Q586 623 494 664 Q280 759 199 824 Q91 910 91 1076 Q91 1438 503 1438 Q662 1438 835 1379 L790 1258 Q646 1332 515 1332 Q228 1332 228 1101 Q228 1000 290 943 Q334 904 398 872 Q468 838 566 794 Q732 719 798 666 Q930 558 930 368 Q930 167 795 69 Q667 -25 459 -25 Q241 -25 42 61 Z M506 1701 L332 1544 L209 1544 L415 1792 L597 1792 L803 1544 L681 1544 L506 1701 Z " />
<glyph glyph-name="scircumflex" unicode="&#x15d;" horiz-adv-x="826" d="M86 28 L116 147 Q229 76 380 76 Q507 76 563 132 Q606 176 606 262 Q606 320 576 354 Q542 392 491 416 Q452 434 393 458 Q240 522 181 571 Q107 633 107 746 Q107 1008 423 1008 Q559 1008 679 958 L635 846 Q543 907 427 907 Q334 907 286 865 Q243 827 243 761 Q243 703 287 666 Q330 630 457 578 Q612 516 670 462 Q742 396 742 273 Q742 -25 383 -25 Q217 -25 86 28 Z M449 1302 L275 1145 L152 1145 L358 1393 L540 1393 L746 1145 L624 1145 L449 1302 Z " />
<glyph glyph-name="Scedilla" unicode="&#x15e;" horiz-adv-x="1010" d="M42 61 L74 186 Q254 81 455 81 Q632 81 720 158 Q793 221 793 334 Q793 429 748 497 Q711 554 645 590 Q586 623 494 664 Q280 759 199 824 Q91 910 91 1076 Q91 1438 503 1438 Q663 1438 835 1379 L790 1259 Q644 1332 515 1332 Q228 1332 228 1101 Q228 1000 290 943 Q334 904 398 872 Q468 838 566 794 Q732 719 798 666 Q930 558 930 368 Q930 106 694 14 Q602 -22 478 -25 L415 -122 Q516 -127 563 -147 Q655 -186 655 -304 Q655 -496 406 -496 Q321 -496 228 -476 L242 -391 Q329 -419 394 -419 Q511 -419 511 -314 Q511 -195 377 -195 Q348 -195 307 -200 L295 -175 L388 -22 Q202 -9 42 61 Z " />
<glyph glyph-name="scedilla" unicode="&#x15f;" horiz-adv-x="826" d="M86 28 L116 147 Q229 76 380 76 Q507 76 563 132 Q606 176 606 262 Q606 320 576 354 Q542 392 491 416 Q452 434 393 458 Q240 522 181 571 Q107 633 107 746 Q107 1008 423 1008 Q559 1008 679 958 L635 846 Q543 907 427 907 Q334 907 286 865 Q243 827 243 761 Q243 703 287 666 Q330 630 457 578 Q612 516 670 462 Q742 396 742 273 Q742 -3 435 -23 L371 -122 Q471 -127 519 -147 Q611 -186 611 -304 Q611 -496 361 -496 Q276 -496 183 -476 L197 -391 Q284 -419 350 -419 Q467 -419 467 -314 Q467 -195 332 -195 Q303 -195 263 -200 L251 -175 L343 -24 Q192 -15 86 28 Z " />
<glyph glyph-name="Scaron" unicode="&#x160;" horiz-adv-x="1010" d="M42 61 L74 186 Q253 81 455 81 Q632 81 720 158 Q793 221 793 334 Q793 429 748 497 Q711 554 645 590 Q586 623 494 664 Q280 759 199 824 Q91 910 91 1076 Q91 1438 503 1438 Q662 1438 835 1379 L790 1258 Q646 1332 515 1332 Q228 1332 228 1101 Q228 1000 290 943 Q334 904 398 872 Q468 838 566 794 Q732 719 798 666 Q930 558 930 368 Q930 167 795 69 Q667 -25 459 -25 Q241 -25 42 61 Z M506 1635 L681 1792 L803 1792 L598 1544 L415 1544 L209 1792 L331 1792 L506 1635 Z " />
<glyph glyph-name="scaron" unicode="&#x161;" horiz-adv-x="826" d="M85 28 L115 147 Q228 76 379 76 Q506 76 562 132 Q605 176 605 262 Q605 320 575 354 Q541 392 490 416 Q451 434 392 458 Q239 522 180 571 Q106 633 106 746 Q106 1008 422 1008 Q558 1008 678 958 L634 846 Q542 907 426 907 Q333 907 285 865 Q242 827 242 761 Q242 703 286 666 Q329 630 456 578 Q611 516 669 462 Q741 396 741 273 Q741 -25 382 -25 Q216 -25 85 28 Z M413 1236 L588 1393 L710 1393 L505 1145 L322 1145 L116 1393 L238 1393 L413 1236 Z " />
<glyph glyph-name="Tcommaaccent" unicode="&#x162;" horiz-adv-x="1136" d="M495 0 L495 1307 L90 1307 L90 1413 L1047 1413 L1047 1307 L642 1307 L642 0 L495 0 Z M398 -452 L481 -145 L657 -145 L502 -452 L398 -452 Z " />
<glyph glyph-name="tcommaaccent" unicode="&#x163;" horiz-adv-x="676" d="M209 877 L33 877 L38 983 L209 983 L223 1234 L349 1268 L349 983 L605 983 L600 877 L349 877 L349 300 Q349 178 376 131 Q407 77 488 77 Q566 77 633 116 L655 3 Q571 -25 471 -25 Q306 -25 252 70 Q209 144 209 281 L209 877 Z M210 -452 L293 -145 L469 -145 L314 -452 L210 -452 Z " />
<glyph glyph-name="Tcaron" unicode="&#x164;" horiz-adv-x="1136" d="M495 0 L495 1307 L90 1307 L90 1413 L1047 1413 L1047 1307 L642 1307 L642 0 L495 0 Z M568 1635 L743 1792 L865 1792 L660 1544 L477 1544 L271 1792 L393 1792 L568 1635 Z " />
<glyph glyph-name="tcaron" unicode="&#x165;" horiz-adv-x="693" d="M209 877 L33 877 L38 983 L209 983 L223 1234 L349 1268 L349 983 L605 983 L600 877 L349 877 L349 300 Q349 178 376 131 Q407 77 488 77 Q566 77 633 116 L655 3 Q571 -25 471 -25 Q306 -25 252 70 Q209 144 209 281 L209 877 Z M554 1152 L603 1592 L762 1592 L667 1152 L554 1152 Z " />
<glyph glyph-name="Tbar" unicode="&#x166;" horiz-adv-x="1136" d="M495 856 L116 856 L116 950 L495 950 L495 1307 L90 1307 L90 1413 L1047 1413 L1047 1307 L642 1307 L642 950 L1021 950 L1021 856 L642 856 L642 0 L495 0 L495 856 Z " />
<glyph glyph-name="tbar" unicode="&#x167;" horiz-adv-x="676" d="M209 877 L33 877 L38 983 L209 983 L222 1234 L348 1268 L348 983 L605 983 L600 877 L349 877 L349 694 L559 694 L559 597 L349 597 L349 298 Q349 177 376 131 Q407 77 488 77 Q566 77 634 116 L656 3 Q572 -25 471 -25 Q306 -25 251 70 Q209 144 209 281 L209 597 L41 597 L41 694 L209 694 L209 877 Z " />
<glyph glyph-name="Utilde" unicode="&#x168;" horiz-adv-x="1282" d="M186 1413 L333 1413 L333 514 Q333 281 380 199 Q447 81 650 81 Q869 81 931 221 Q966 301 966 514 L966 1413 L1096 1413 L1096 507 Q1096 383 1087 320 Q1060 140 943 57 Q827 -25 647 -25 Q465 -25 345 57 Q224 139 196 320 Q186 385 186 507 L186 1413 Z M432 1550 L322 1550 Q377 1787 513 1787 Q587 1787 682 1711 Q745 1661 771 1661 Q813 1661 834 1716 Q842 1737 851 1778 L962 1778 Q950 1687 923 1634 Q872 1536 758 1536 Q701 1536 657 1565 Q647 1572 597 1610 Q530 1661 504 1661 Q461 1661 432 1550 Z " />
<glyph glyph-name="utilde" unicode="&#x169;" horiz-adv-x="1085" d="M170 983 L310 983 L310 312 Q310 192 342 138 Q378 78 471 78 Q639 78 765 253 L765 983 L905 983 L905 242 Q905 118 921 0 L799 0 Q785 62 777 127 Q738 84 709 62 Q602 -25 456 -25 Q251 -25 195 135 Q170 206 170 382 L170 983 Z M333 1151 L223 1151 Q277 1388 414 1388 Q488 1388 583 1312 Q646 1262 672 1262 Q715 1262 735 1317 Q743 1338 752 1379 L863 1379 Q851 1288 824 1235 Q773 1137 659 1137 Q602 1137 558 1166 Q548 1173 498 1211 Q430 1262 405 1262 Q362 1262 333 1151 Z " />
<glyph glyph-name="Umacron" unicode="&#x16a;" horiz-adv-x="1282" d="M186 1413 L333 1413 L333 514 Q333 281 380 199 Q447 81 650 81 Q869 81 931 221 Q966 301 966 514 L966 1413 L1096 1413 L1096 507 Q1096 383 1087 320 Q1060 140 943 57 Q827 -25 647 -25 Q465 -25 345 57 Q224 139 196 320 Q186 385 186 507 L186 1413 Z M381 1619 L381 1717 L901 1717 L901 1619 L381 1619 Z " />
<glyph glyph-name="umacron" unicode="&#x16b;" horiz-adv-x="1085" d="M170 983 L310 983 L310 312 Q310 192 342 138 Q378 78 471 78 Q639 78 765 253 L765 983 L905 983 L905 242 Q905 118 921 0 L799 0 Q785 62 777 127 Q738 84 709 62 Q602 -25 456 -25 Q251 -25 195 135 Q170 206 170 382 L170 983 Z M283 1220 L283 1318 L803 1318 L803 1220 L283 1220 Z " />
<glyph glyph-name="Ubreve" unicode="&#x16c;" horiz-adv-x="1282" d="M186 1413 L333 1413 L333 514 Q333 281 380 199 Q447 81 650 81 Q869 81 931 221 Q966 301 966 514 L966 1413 L1096 1413 L1096 507 Q1096 383 1087 320 Q1060 140 943 57 Q827 -25 647 -25 Q465 -25 345 57 Q224 139 196 320 Q186 385 186 507 L186 1413 Z M354 1793 L481 1793 Q488 1725 512 1695 Q551 1647 641 1647 Q740 1647 777 1704 Q794 1732 801 1793 L928 1793 Q925 1704 885 1643 Q815 1535 641 1535 Q456 1535 388 1657 Q357 1714 354 1793 Z " />
<glyph glyph-name="ubreve" unicode="&#x16d;" horiz-adv-x="1085" d="M170 983 L310 983 L310 312 Q310 192 342 138 Q378 78 471 78 Q639 78 765 253 L765 983 L905 983 L905 242 Q905 118 921 0 L799 0 Q785 62 777 127 Q738 84 709 62 Q602 -25 456 -25 Q251 -25 195 135 Q170 206 170 382 L170 983 Z M256 1394 L383 1394 Q390 1326 414 1296 Q453 1248 543 1248 Q642 1248 679 1305 Q696 1333 703 1394 L830 1394 Q827 1305 787 1244 Q717 1136 543 1136 Q358 1136 290 1258 Q259 1315 256 1394 Z " />
<glyph glyph-name="Uring" unicode="&#x16e;" horiz-adv-x="1282" d="M186 1413 L333 1413 L333 514 Q333 281 380 199 Q447 81 650 81 Q869 81 931 221 Q966 301 966 514 L966 1413 L1096 1413 L1096 507 Q1096 383 1087 320 Q1060 140 943 57 Q827 -25 647 -25 Q465 -25 345 57 Q224 139 196 320 Q186 385 186 507 L186 1413 Z M644 1880 Q731 1880 782 1823 Q826 1774 826 1699 Q826 1627 782 1579 Q732 1524 641 1524 Q550 1524 500 1579 Q456 1627 456 1699 Q456 1774 500 1823 Q551 1880 644 1880 Z M642 1824 Q597 1824 569 1782 Q549 1752 549 1702 Q549 1653 569 1622 Q597 1580 641 1580 Q685 1580 713 1622 Q733 1653 733 1702 Q733 1752 713 1782 Q685 1824 642 1824 Z " />
<glyph glyph-name="uring" unicode="&#x16f;" horiz-adv-x="1085" d="M170 983 L310 983 L310 312 Q310 192 342 138 Q378 78 471 78 Q639 78 765 253 L765 983 L905 983 L905 242 Q905 118 921 0 L799 0 Q785 62 777 127 Q738 84 709 62 Q602 -25 456 -25 Q251 -25 195 135 Q170 206 170 382 L170 983 Z M545 1481 Q632 1481 683 1424 Q727 1375 727 1300 Q727 1227 683 1180 Q633 1125 542 1125 Q451 1125 401 1180 Q357 1228 357 1300 Q357 1375 401 1424 Q452 1481 545 1481 Z M543 1425 Q498 1425 470 1383 Q450 1353 450 1303 Q450 1254 470 1223 Q498 1181 542 1181 Q586 1181 614 1223 Q634 1254 634 1303 Q634 1353 614 1383 Q586 1425 543 1425 Z " />
<glyph glyph-name="Uhungarumlaut" unicode="&#x170;" horiz-adv-x="1282" d="M186 1413 L333 1413 L333 514 Q333 281 380 199 Q447 81 650 81 Q869 81 931 221 Q966 301 966 514 L966 1413 L1096 1413 L1096 507 Q1096 383 1087 320 Q1060 140 943 57 Q827 -25 647 -25 Q465 -25 345 57 Q224 139 196 320 Q186 385 186 507 L186 1413 Z M443 1544 L547 1792 L741 1792 L553 1544 L443 1544 Z M713 1544 L818 1792 L1012 1792 L823 1544 L713 1544 Z " />
<glyph glyph-name="uhungarumlaut" unicode="&#x171;" horiz-adv-x="1085" d="M170 983 L310 983 L310 312 Q310 192 342 138 Q378 78 471 78 Q639 78 765 253 L765 983 L905 983 L905 242 Q905 118 921 0 L799 0 Q785 62 777 127 Q738 84 709 62 Q602 -25 456 -25 Q251 -25 195 135 Q170 206 170 382 L170 983 Z M345 1145 L449 1393 L643 1393 L455 1145 L345 1145 Z M615 1145 L720 1393 L914 1393 L725 1145 L615 1145 Z " />
<glyph glyph-name="Uogonek" unicode="&#x172;" horiz-adv-x="1282" d="M186 1413 L333 1413 L333 514 Q333 281 380 199 Q447 81 650 81 Q869 81 931 221 Q966 301 966 514 L966 1413 L1096 1413 L1096 506 Q1096 383 1087 320 Q1050 75 837 5 Q735 -57 691 -100 Q610 -179 610 -281 Q610 -419 749 -419 Q820 -419 881 -393 L895 -466 Q824 -496 723 -496 Q466 -496 466 -297 Q466 -132 643 -25 Q396 -18 284 111 Q210 196 192 350 Q186 403 186 506 L186 1413 Z " />
<glyph glyph-name="uogonek" unicode="&#x173;" horiz-adv-x="1085" d="M170 983 L310 983 L310 312 Q310 192 342 138 Q378 78 471 78 Q639 78 765 253 L765 983 L905 983 L905 242 Q905 122 921 0 Q812 -64 766 -107 Q686 -183 686 -281 Q686 -419 824 -419 Q895 -419 955 -393 L969 -466 Q898 -496 798 -496 Q541 -496 541 -299 Q541 -165 673 -73 Q727 -36 809 0 L799 0 Q785 62 777 127 Q738 84 709 62 Q602 -25 456 -25 Q251 -25 195 135 Q170 206 170 382 L170 983 Z " />
<glyph glyph-name="Wcircumflex" unicode="&#x174;" horiz-adv-x="1855" d="M445 0 L43 1413 L191 1413 L413 570 L435 479 L461 372 Q497 223 522 127 Q547 225 586 379 L614 489 Q633 566 635 574 L873 1413 L989 1413 L1227 565 Q1232 546 1247 483 Q1249 475 1306 250 L1337 126 L1370 258 Q1405 404 1413 438 Q1440 554 1444 568 L1667 1413 L1812 1413 L1409 0 L1249 0 L1033 790 Q984 967 929 1219 Q863 932 824 793 L601 0 L445 0 Z M927 1701 L753 1544 L630 1544 L836 1792 L1018 1792 L1224 1544 L1102 1544 L927 1701 Z " />
<glyph glyph-name="wcircumflex" unicode="&#x175;" horiz-adv-x="1470" d="M370 0 L59 983 L204 983 L354 473 Q361 449 377 394 Q392 340 420 247 L444 163 L469 251 Q506 383 530 471 L674 983 L808 983 L945 492 L964 424 L994 318 L1016 239 L1037 163 L1058 235 L1076 300 L1110 415 L1133 496 L1276 983 L1412 983 L1094 0 L964 0 L809 556 Q805 572 775 684 L759 742 L735 826 L713 747 L696 685 L675 612 L657 545 L501 0 L370 0 Z M735 1302 L561 1145 L438 1145 L644 1393 L826 1393 L1032 1145 L910 1145 L735 1302 Z " />
<glyph glyph-name="Ycircumflex" unicode="&#x176;" horiz-adv-x="1044" d="M447 0 L447 528 L-7 1413 L148 1413 L395 919 L432 844 L465 777 L493 719 L522 659 L556 725 L585 785 L617 849 L653 922 L904 1413 L1050 1413 L594 528 L594 0 L447 0 Z M522 1701 L348 1544 L225 1544 L431 1792 L613 1792 L819 1544 L697 1544 L522 1701 Z " />
<glyph glyph-name="ycircumflex" unicode="&#x177;" horiz-adv-x="894" d="M379 0 L32 983 L177 983 L353 449 Q362 422 405 287 Q417 250 467 95 Q507 234 522 290 Q559 423 566 445 L722 983 L858 983 L522 -81 Q458 -282 409 -352 Q326 -470 165 -470 Q102 -470 48 -459 L67 -354 Q122 -369 169 -369 Q261 -369 311 -299 Q362 -228 414 -66 L436 0 L379 0 Z M448 1302 L274 1145 L151 1145 L357 1393 L539 1393 L745 1145 L623 1145 L448 1302 Z " />
<glyph glyph-name="Zacute" unicode="&#x179;" horiz-adv-x="1058" d="M53 0 L53 88 L827 1307 L107 1307 L107 1413 L987 1413 L998 1325 L224 106 L1013 106 L1013 0 L53 0 Z M476 1544 L607 1792 L804 1792 L583 1544 L476 1544 Z " />
<glyph glyph-name="zacute" unicode="&#x17a;" horiz-adv-x="879" d="M59 0 L55 91 L615 877 L100 877 L100 983 L771 983 L780 894 L219 106 L791 106 L791 0 L59 0 Z M391 1145 L522 1393 L719 1393 L498 1145 L391 1145 Z " />
<glyph glyph-name="Zdotaccent" unicode="&#x17b;" horiz-adv-x="1058" d="M53 0 L53 88 L827 1307 L107 1307 L107 1413 L987 1413 L998 1325 L224 106 L1013 106 L1013 0 L53 0 Z M585 1765 Q628 1765 658 1735 Q687 1706 687 1664 Q687 1623 658 1594 Q628 1564 585 1564 Q542 1564 512 1594 Q483 1623 483 1666 Q483 1707 512 1735 Q543 1765 585 1765 Z " />
<glyph glyph-name="zdotaccent" unicode="&#x17c;" horiz-adv-x="879" d="M59 0 L55 91 L615 877 L100 877 L100 983 L771 983 L780 894 L219 106 L791 106 L791 0 L59 0 Z M470 1365 Q513 1365 543 1335 Q572 1307 572 1264 Q572 1223 543 1194 Q513 1164 470 1164 Q427 1164 397 1194 Q368 1223 368 1266 Q368 1307 397 1335 Q428 1365 470 1365 Z " />
<glyph glyph-name="Zcaron" unicode="&#x17d;" horiz-adv-x="1058" d="M53 0 L53 88 L827 1307 L107 1307 L107 1413 L987 1413 L998 1325 L224 106 L1013 106 L1013 0 L53 0 Z M571 1635 L746 1792 L868 1792 L663 1544 L480 1544 L274 1792 L396 1792 L571 1635 Z " />
<glyph glyph-name="zcaron" unicode="&#x17e;" horiz-adv-x="879" d="M59 0 L55 91 L615 877 L100 877 L100 983 L771 983 L780 894 L219 106 L791 106 L791 0 L59 0 Z M469 1236 L644 1393 L766 1393 L561 1145 L378 1145 L172 1393 L294 1393 L469 1236 Z " />
<glyph glyph-name="Ohorn" unicode="&#x1a0;" horiz-adv-x="1375" d="M694 1438 Q882 1438 1017 1338 Q1160 1232 1221 1018 Q1260 878 1260 706 Q1260 391 1130 193 Q986 -25 684 -25 Q383 -25 239 193 Q109 391 109 704 Q109 1025 239 1220 Q385 1438 694 1438 Z M691 1332 Q542 1332 437 1243 Q265 1096 265 703 Q265 426 358 264 Q410 174 505 124 Q586 81 685 81 Q827 81 932 170 Q1104 316 1104 706 Q1104 990 1011 1149 Q956 1242 864 1290 Q782 1332 691 1332 Z M1189 1228 L1237 1575 L1409 1575 L1265 1228 L1189 1228 Z " />
<glyph glyph-name="ohorn" unicode="&#x1a1;" horiz-adv-x="1104" d="M545 1008 Q740 1008 858 863 Q968 727 968 493 Q968 258 858 121 Q740 -25 539 -25 Q337 -25 219 121 Q109 259 109 491 Q109 729 219 863 Q340 1008 545 1008 Z M543 906 Q383 906 314 770 Q254 652 254 492 Q254 334 312 215 Q379 77 539 77 Q698 77 765 215 Q823 334 823 493 Q823 655 765 770 Q696 906 543 906 Z M946 783 L994 1130 L1165 1130 L1022 783 L946 783 Z " />
<glyph glyph-name="Uhorn" unicode="&#x1af;" horiz-adv-x="1292" d="M186 1413 L333 1413 L333 514 Q333 281 380 199 Q447 81 650 81 Q869 81 931 221 Q966 301 966 514 L966 1413 L1096 1413 L1096 507 Q1096 383 1087 320 Q1060 140 943 57 Q827 -25 647 -25 Q465 -25 345 57 Q224 139 196 320 Q186 385 186 507 L186 1413 Z M1175 1228 L1224 1575 L1395 1575 L1251 1228 L1175 1228 Z " />
<glyph glyph-name="uhorn" unicode="&#x1b0;" horiz-adv-x="1095" d="M170 983 L310 983 L310 312 Q310 192 342 138 Q378 78 471 78 Q639 78 765 253 L765 983 L905 983 L905 242 Q905 118 921 0 L799 0 Q785 62 777 127 Q738 84 709 62 Q602 -25 456 -25 Q251 -25 195 135 Q170 206 170 382 L170 983 Z M983 783 L1032 1130 L1203 1130 L1059 783 L983 783 Z " />
<glyph glyph-name="uni01CD" unicode="&#x1cd;" horiz-adv-x="1257" d="M916 455 L329 455 L160 0 L13 0 L554 1413 L705 1413 L1244 0 L1084 0 L916 455 Z M879 561 L717 999 Q709 1021 659 1169 L639 1227 L623 1273 L607 1226 L589 1174 Q546 1046 534 1015 L367 561 L879 561 Z M628 1635 L803 1792 L925 1792 L720 1544 L537 1544 L331 1792 L453 1792 L628 1635 Z " />
<glyph glyph-name="uni01CE" unicode="&#x1ce;" horiz-adv-x="1023" d="M706 626 L706 653 Q706 776 681 824 Q639 906 492 906 Q366 906 236 828 L199 937 Q331 1008 503 1008 Q742 1008 809 859 Q844 782 844 572 L844 239 Q844 126 860 0 L734 0 Q723 66 717 135 Q622 -25 397 -25 Q268 -25 197 26 Q105 93 105 254 Q105 490 317 567 Q411 601 548 615 Q573 617 686 624 L706 626 Z M704 531 Q537 519 456 501 Q250 456 250 257 Q250 76 423 76 Q572 76 658 194 Q692 242 700 298 Q704 326 704 374 L704 531 Z M511 1236 L686 1393 L808 1393 L603 1145 L420 1145 L214 1393 L336 1393 L511 1236 Z " />
<glyph glyph-name="uni01D3" unicode="&#x1d3;" horiz-adv-x="1282" d="M186 1413 L333 1413 L333 514 Q333 281 380 199 Q447 81 650 81 Q869 81 931 221 Q966 301 966 514 L966 1413 L1096 1413 L1096 507 Q1096 383 1087 320 Q1060 140 943 57 Q827 -25 647 -25 Q465 -25 345 57 Q224 139 196 320 Q186 385 186 507 L186 1413 Z M641 1635 L816 1792 L938 1792 L733 1544 L550 1544 L344 1792 L466 1792 L641 1635 Z " />
<glyph glyph-name="uni01D4" unicode="&#x1d4;" horiz-adv-x="1085" d="M170 983 L310 983 L310 312 Q310 192 342 138 Q378 78 471 78 Q639 78 765 253 L765 983 L905 983 L905 242 Q905 118 921 0 L799 0 Q785 62 777 127 Q738 84 709 62 Q602 -25 456 -25 Q251 -25 195 135 Q170 206 170 382 L170 983 Z M542 1236 L717 1393 L839 1393 L634 1145 L451 1145 L245 1393 L367 1393 L542 1236 Z " />
<glyph glyph-name="Gcaron" unicode="&#x1e6;" horiz-adv-x="1273" d="M682 681 L682 786 L1127 786 L1127 71 Q974 -25 734 -25 Q392 -25 240 183 Q109 363 109 687 Q109 1114 326 1304 Q419 1385 536 1416 Q618 1438 731 1438 Q899 1438 1091 1374 L1046 1254 Q881 1332 731 1332 Q490 1332 384 1175 Q265 998 265 704 Q265 419 369 252 Q431 152 535 114 Q624 81 750 81 Q864 81 980 127 L980 681 L682 681 Z M703 1635 L878 1792 L1000 1792 L795 1544 L612 1544 L406 1792 L528 1792 L703 1635 Z " />
<glyph glyph-name="gcaron" unicode="&#x1e7;" horiz-adv-x="1049" d="M744 118 Q696 65 663 40 Q575 -25 460 -25 Q329 -25 241 53 Q109 168 109 459 Q109 721 227 868 Q339 1008 560 1008 Q725 1008 897 948 Q884 790 884 607 L884 229 Q884 -73 856 -196 Q793 -472 451 -472 Q296 -472 175 -426 L206 -313 Q337 -371 469 -371 Q655 -371 709 -218 Q744 -118 744 73 L744 118 Z M744 865 Q652 906 549 906 Q392 906 323 777 Q254 649 254 443 Q254 278 304 180 Q358 77 476 77 Q612 77 694 198 Q729 249 739 307 Q744 335 744 393 L744 865 Z M566 1236 L741 1393 L863 1393 L658 1145 L475 1145 L269 1393 L391 1393 L566 1236 Z " />
<glyph glyph-name="uni01F4" unicode="&#x1f4;" horiz-adv-x="1273" d="M682 681 L682 786 L1127 786 L1127 71 Q974 -25 734 -25 Q392 -25 240 183 Q109 363 109 687 Q109 1114 326 1304 Q419 1385 536 1416 Q618 1438 731 1438 Q899 1438 1091 1374 L1046 1254 Q881 1332 731 1332 Q490 1332 384 1175 Q265 998 265 704 Q265 419 369 252 Q431 152 535 114 Q624 81 750 81 Q864 81 980 127 L980 681 L682 681 Z M613 1544 L744 1792 L941 1792 L720 1544 L613 1544 Z " />
<glyph glyph-name="uni01F5" unicode="&#x1f5;" horiz-adv-x="1049" d="M744 118 Q696 65 663 40 Q575 -25 460 -25 Q329 -25 241 53 Q109 168 109 459 Q109 721 227 868 Q339 1008 560 1008 Q725 1008 897 948 Q884 790 884 607 L884 229 Q884 -73 856 -196 Q793 -472 451 -472 Q296 -472 175 -426 L206 -313 Q337 -371 469 -371 Q655 -371 709 -218 Q744 -118 744 73 L744 118 Z M744 865 Q652 906 549 906 Q392 906 323 777 Q254 649 254 443 Q254 278 304 180 Q358 77 476 77 Q612 77 694 198 Q729 249 739 307 Q744 335 744 393 L744 865 Z M491 1145 L622 1393 L819 1393 L598 1145 L491 1145 Z " />
<glyph glyph-name="Scommaaccent" unicode="&#x218;" horiz-adv-x="1010" d="M42 61 L74 186 Q253 81 455 81 Q632 81 720 158 Q793 221 793 334 Q793 429 748 497 Q711 554 645 590 Q586 623 494 664 Q280 759 199 824 Q91 910 91 1076 Q91 1438 503 1438 Q662 1438 835 1379 L790 1258 Q646 1332 515 1332 Q228 1332 228 1101 Q228 1000 290 943 Q334 904 398 872 Q468 838 566 794 Q732 719 798 666 Q930 558 930 368 Q930 167 795 69 Q667 -25 459 -25 Q241 -25 42 61 Z M309 -452 L392 -145 L568 -145 L413 -452 L309 -452 Z " />
<glyph glyph-name="scommaaccent" unicode="&#x219;" horiz-adv-x="826" d="M86 28 L116 147 Q229 76 380 76 Q507 76 563 132 Q606 176 606 262 Q606 320 576 354 Q542 392 491 416 Q452 434 393 458 Q240 522 181 571 Q107 633 107 746 Q107 1008 423 1008 Q559 1008 679 958 L635 846 Q543 907 427 907 Q334 907 286 865 Q243 827 243 761 Q243 703 287 666 Q330 630 457 578 Q612 516 670 462 Q742 396 742 273 Q742 -25 383 -25 Q217 -25 86 28 Z M225 -452 L308 -145 L484 -145 L329 -452 L225 -452 Z " />
<glyph glyph-name="uni021A" unicode="&#x21a;" horiz-adv-x="1136" d="M495 0 L495 1307 L90 1307 L90 1413 L1047 1413 L1047 1307 L642 1307 L642 0 L495 0 Z M398 -452 L481 -145 L657 -145 L502 -452 L398 -452 Z " />
<glyph glyph-name="uni021B" unicode="&#x21b;" horiz-adv-x="676" d="M209 877 L33 877 L38 983 L209 983 L223 1234 L349 1268 L349 983 L605 983 L600 877 L349 877 L349 300 Q349 178 376 131 Q407 77 488 77 Q566 77 633 116 L655 3 Q571 -25 471 -25 Q306 -25 252 70 Q209 144 209 281 L209 877 Z M210 -452 L293 -145 L469 -145 L314 -452 L210 -452 Z " />
<glyph glyph-name="afii57929" unicode="&#x2bc;" horiz-adv-x="296" d="M29 1026 L132 1480 L280 1480 L126 1026 L29 1026 Z " />
<glyph glyph-name="uni02C9" unicode="&#x2c9;" horiz-adv-x="1024" d="M252 1220 L252 1318 L772 1318 L772 1220 L252 1220 Z " />
<glyph glyph-name="dexia_keraia" unicode="&#x374;" horiz-adv-x="345" d="M29 802 L153 1413 L306 1413 L131 802 L29 802 Z " />
<glyph glyph-name="aristeri_karaia" unicode="&#x375;" horiz-adv-x="345" d="M2 -265 L126 346 L279 346 L104 -265 L2 -265 Z " />
<glyph glyph-name="iotasubscript" unicode="&#x37a;" horiz-adv-x="1003" d="M413 0 L551 0 L551 -92 Q551 -176 577 -205 Q607 -237 673 -237 Q722 -237 782 -220 L799 -290 Q716 -316 627 -316 Q481 -316 438 -237 Q413 -191 413 -85 L413 0 Z " />
<glyph glyph-name="erotimatico" unicode="&#x37e;" horiz-adv-x="511" d="M120 -288 L194 191 L354 191 L234 -288 L120 -288 Z M278 1007 Q327 1007 361 968 Q389 936 389 895 Q389 848 352 814 Q320 784 276 784 Q224 784 190 822 Q162 854 162 896 Q162 943 198 977 Q230 1007 278 1007 Z " />
<glyph glyph-name="tonos" unicode="&#x384;" horiz-adv-x="1024" d="M428 1128 L528 1439 L705 1439 L532 1128 L428 1128 Z " />
<glyph glyph-name="dialytikatonos" unicode="&#x385;" horiz-adv-x="1024" d="M297 1358 Q338 1358 367 1327 Q392 1301 392 1266 Q392 1225 360 1197 Q334 1173 295 1173 Q250 1173 223 1204 Q198 1231 198 1266 Q198 1306 230 1334 Q258 1358 297 1358 Z M731 1358 Q772 1358 801 1327 Q826 1301 826 1266 Q826 1225 794 1197 Q768 1173 729 1173 Q684 1173 657 1204 Q632 1231 632 1266 Q632 1306 664 1334 Q692 1358 731 1358 Z M411 1137 L472 1432 L644 1432 L525 1137 L411 1137 Z " />
<glyph glyph-name="Alphatonos" unicode="&#x386;" horiz-adv-x="1265" d="M919 455 L332 455 L163 0 L16 0 L557 1413 L708 1413 L1247 0 L1087 0 L919 455 Z M882 561 L720 999 Q712 1021 662 1169 L642 1227 L626 1273 L610 1226 L592 1174 Q549 1046 537 1015 L370 561 L882 561 Z M52 883 L119 1413 L271 1413 L153 883 L52 883 Z " />
<glyph glyph-name="uni0387" unicode="&#x387;" horiz-adv-x="510" d="M257 767 Q306 767 340 728 Q368 696 368 655 Q368 608 332 574 Q299 544 255 544 Q203 544 169 582 Q141 614 141 656 Q141 703 177 737 Q209 767 257 767 Z " />
<glyph glyph-name="Epsilontonos" unicode="&#x388;" horiz-adv-x="1325" d="M16 883 L83 1413 L235 1413 L117 883 L16 883 Z M429 0 L429 1413 L1264 1413 L1264 1307 L576 1307 L576 790 L1099 790 L1099 684 L576 684 L576 106 L1264 106 L1264 0 L429 0 Z " />
<glyph glyph-name="Etatonos" unicode="&#x389;" horiz-adv-x="1610" d="M16 883 L83 1413 L235 1413 L117 883 L16 883 Z M429 0 L429 1413 L576 1413 L576 791 L1268 791 L1268 1413 L1415 1413 L1415 0 L1268 0 L1268 685 L576 685 L576 0 L429 0 Z " />
<glyph glyph-name="Iotatonos" unicode="&#x38a;" horiz-adv-x="772" d="M16 883 L83 1413 L235 1413 L117 883 L16 883 Z M430 0 L430 1413 L577 1413 L577 0 L430 0 Z " />
<glyph glyph-name="Omicrontonos" unicode="&#x38c;" horiz-adv-x="1583" d="M16 883 L83 1413 L235 1413 L117 883 L16 883 Z M908 1438 Q1096 1438 1231 1338 Q1374 1232 1435 1018 Q1474 878 1474 706 Q1474 391 1344 193 Q1200 -25 899 -25 Q597 -25 453 193 Q323 391 323 704 Q323 1025 453 1220 Q599 1438 908 1438 Z M905 1332 Q756 1332 651 1243 Q479 1096 479 703 Q479 426 572 264 Q624 174 719 124 Q800 81 899 81 Q1041 81 1146 170 Q1318 316 1318 706 Q1318 990 1225 1149 Q1170 1242 1078 1290 Q996 1332 905 1332 Z " />
<glyph glyph-name="Upsilontonos" unicode="&#x38e;" horiz-adv-x="1351" d="M16 883 L83 1413 L235 1413 L117 883 L16 883 Z M755 0 L755 528 L301 1413 L457 1413 L704 919 Q711 905 740 844 Q752 818 801 719 L831 659 L864 725 L893 785 Q958 915 961 922 L1212 1413 L1358 1413 L902 528 L902 0 L755 0 Z " />
<glyph glyph-name="Omegatonos" unicode="&#x38f;" horiz-adv-x="1715" d="M16 883 L83 1413 L235 1413 L117 883 L16 883 Z M371 0 L371 106 L765 106 L765 194 Q582 275 490 375 Q343 534 343 785 Q343 1069 500 1250 Q662 1438 967 1438 Q1271 1438 1433 1250 Q1590 1069 1590 785 Q1590 515 1421 352 Q1333 268 1168 194 L1168 106 L1562 106 L1562 0 L1047 0 L1047 254 Q1181 306 1273 388 Q1353 459 1390 543 Q1434 645 1434 804 Q1434 996 1353 1129 Q1230 1332 967 1332 Q703 1332 580 1129 Q499 996 499 804 Q499 600 577 483 Q674 336 886 254 L886 0 L371 0 Z " />
<glyph glyph-name="iotadieresistonos" unicode="&#x390;" horiz-adv-x="545" d="M177 983 L317 983 L317 317 Q317 170 326 136 Q341 77 410 77 Q453 77 503 108 L537 1 Q456 -25 381 -25 Q252 -25 205 59 Q177 109 177 219 L177 983 Z M57 1358 Q98 1358 127 1327 Q152 1301 152 1266 Q152 1225 120 1197 Q94 1173 55 1173 Q10 1173 -17 1204 Q-42 1231 -42 1266 Q-42 1306 -10 1334 Q18 1358 57 1358 Z M491 1358 Q532 1358 561 1327 Q586 1301 586 1266 Q586 1225 554 1197 Q528 1173 489 1173 Q444 1173 417 1204 Q392 1231 392 1266 Q392 1306 424 1334 Q452 1358 491 1358 Z M171 1137 L232 1432 L404 1432 L285 1137 L171 1137 Z " />
<glyph glyph-name="Alpha" unicode="&#x391;" horiz-adv-x="1257" d="M916 455 L329 455 L160 0 L13 0 L554 1413 L705 1413 L1244 0 L1084 0 L916 455 Z M879 561 L717 999 Q709 1021 659 1169 L639 1227 L623 1273 L607 1226 L589 1174 Q546 1046 534 1015 L367 561 L879 561 Z " />
<glyph glyph-name="Beta" unicode="&#x392;" horiz-adv-x="1208" d="M194 0 L194 1413 L613 1413 Q836 1413 936 1344 Q1061 1258 1061 1080 Q1061 815 823 756 Q957 727 1015 673 Q1118 577 1118 390 Q1118 174 969 75 Q857 0 623 0 L194 0 Z M341 804 L543 804 Q748 804 814 847 Q915 913 915 1074 Q915 1210 830 1266 Q769 1307 583 1307 L341 1307 L341 804 Z M341 106 L574 106 Q786 106 858 151 Q962 218 962 386 Q962 577 852 647 Q801 680 719 691 Q665 698 552 698 L341 698 L341 106 Z " />
<glyph glyph-name="Gamma" unicode="&#x393;" horiz-adv-x="963" d="M194 0 L194 1413 L925 1413 L925 1307 L341 1307 L341 0 L194 0 Z " />
<glyph glyph-name="uni0394" unicode="&#x394;" horiz-adv-x="1242" d="M1236 0 L5 0 L546 1413 L697 1413 L1236 0 Z M1039 106 L709 999 Q701 1022 651 1169 L631 1227 L615 1273 L599 1226 L581 1174 Q538 1047 526 1015 L190 106 L1039 106 Z " />
<glyph glyph-name="Epsilon" unicode="&#x395;" horiz-adv-x="1090" d="M194 0 L194 1413 L1028 1413 L1028 1307 L341 1307 L341 790 L864 790 L864 684 L341 684 L341 106 L1029 106 L1029 0 L194 0 Z " />
<glyph glyph-name="Zeta" unicode="&#x396;" horiz-adv-x="1058" d="M53 0 L53 88 L827 1307 L107 1307 L107 1413 L987 1413 L998 1325 L224 106 L1013 106 L1013 0 L53 0 Z " />
<glyph glyph-name="Eta" unicode="&#x397;" horiz-adv-x="1375" d="M194 0 L194 1413 L341 1413 L341 791 L1033 791 L1033 1413 L1180 1413 L1180 0 L1033 0 L1033 685 L341 685 L341 0 L194 0 Z " />
<glyph glyph-name="Theta" unicode="&#x398;" horiz-adv-x="1369" d="M386 663 L386 776 L983 776 L983 663 L386 663 Z M694 1438 Q882 1438 1017 1338 Q1160 1232 1221 1018 Q1260 878 1260 706 Q1260 391 1129 193 Q986 -25 685 -25 Q383 -25 239 193 Q109 391 109 704 Q109 1025 239 1220 Q385 1438 694 1438 Z M691 1332 Q542 1332 437 1243 Q265 1096 265 703 Q265 426 358 264 Q410 174 505 124 Q586 81 685 81 Q827 81 932 170 Q1104 316 1104 706 Q1104 990 1011 1149 Q956 1242 864 1290 Q782 1332 691 1332 Z " />
<glyph glyph-name="Iota" unicode="&#x399;" horiz-adv-x="538" d="M195 0 L195 1413 L342 1413 L342 0 L195 0 Z " />
<glyph glyph-name="Kappa" unicode="&#x39a;" horiz-adv-x="1168" d="M194 0 L194 1413 L341 1413 L341 778 L993 1413 L1153 1413 L498 779 L1181 0 L1000 0 L341 763 L341 0 L194 0 Z " />
<glyph glyph-name="Lambda" unicode="&#x39b;" horiz-adv-x="1201" d="M10 0 L526 1413 L677 1413 L1191 0 L1031 0 L684 999 Q675 1026 629 1169 L610 1227 L595 1273 L580 1226 L563 1174 Q520 1039 511 1015 L157 0 L10 0 Z " />
<glyph glyph-name="Mu" unicode="&#x39c;" horiz-adv-x="1809" d="M157 0 L321 1413 L507 1413 L834 424 Q861 341 903 161 Q950 352 983 451 L1299 1413 L1486 1413 L1652 0 L1513 0 L1409 908 L1400 998 L1391 1086 L1381 1175 L1369 1291 L1336 1182 Q1301 1065 1294 1042 Q1256 917 1256 916 L960 0 L837 0 L536 923 L518 985 L482 1103 Q446 1225 425 1291 L415 1194 L407 1114 L395 1002 L388 933 L284 0 L157 0 Z " />
<glyph glyph-name="Nu" unicode="&#x39d;" horiz-adv-x="1409" d="M194 0 L194 1413 L397 1413 L893 531 Q915 492 988 358 L1042 261 L1088 177 Q1084 257 1084 392 L1084 473 L1084 557 L1084 1413 L1214 1413 L1214 0 L1031 0 L492 970 Q462 1024 401 1136 L363 1206 L320 1285 Q324 1209 324 1032 L324 966 L324 0 L194 0 Z " />
<glyph glyph-name="Xi" unicode="&#x39e;" horiz-adv-x="946" d="M32 0 L32 106 L913 106 L913 0 L32 0 Z M161 689 L161 795 L785 795 L785 689 L161 689 Z M56 1307 L56 1413 L889 1413 L889 1307 L56 1307 Z " />
<glyph glyph-name="Omicron" unicode="&#x39f;" horiz-adv-x="1369" d="M694 1438 Q882 1438 1017 1338 Q1160 1232 1221 1018 Q1260 878 1260 706 Q1260 391 1130 193 Q986 -25 684 -25 Q383 -25 239 193 Q109 391 109 704 Q109 1025 239 1220 Q385 1438 694 1438 Z M691 1332 Q542 1332 437 1243 Q265 1096 265 703 Q265 426 358 264 Q410 174 505 124 Q586 81 685 81 Q827 81 932 170 Q1104 316 1104 706 Q1104 990 1011 1149 Q956 1242 864 1290 Q782 1332 691 1332 Z " />
<glyph glyph-name="Pi" unicode="&#x3a0;" horiz-adv-x="1369" d="M216 0 L216 1307 L67 1307 L67 1413 L1301 1413 L1301 1307 L1152 1307 L1152 0 L1005 0 L1005 1307 L363 1307 L363 0 L216 0 Z " />
<glyph glyph-name="Rho" unicode="&#x3a1;" horiz-adv-x="1163" d="M194 0 L194 1413 L610 1413 Q719 1413 830 1378 Q963 1337 1025 1191 Q1063 1100 1063 987 Q1063 748 924 650 Q802 564 581 564 L341 564 L341 0 L194 0 Z M341 670 L518 670 Q738 670 817 738 Q907 816 907 980 Q907 1163 813 1243 Q738 1307 542 1307 L341 1307 L341 670 Z " />
<glyph glyph-name="Sigma" unicode="&#x3a3;" horiz-adv-x="1007" d="M56 0 L56 87 L443 754 L78 1325 L89 1413 L951 1413 L951 1307 L233 1307 L596 745 L227 106 L978 106 L978 0 L56 0 Z " />
<glyph glyph-name="Tau" unicode="&#x3a4;" horiz-adv-x="1136" d="M495 0 L495 1307 L90 1307 L90 1413 L1047 1413 L1047 1307 L642 1307 L642 0 L495 0 Z " />
<glyph glyph-name="Upsilon" unicode="&#x3a5;" horiz-adv-x="1044" d="M447 0 L447 528 L-7 1413 L148 1413 L395 919 L432 844 L465 777 L493 719 L522 659 L556 725 L585 785 L617 849 L653 922 L904 1413 L1050 1413 L594 528 L594 0 L447 0 Z " />
<glyph glyph-name="Phi" unicode="&#x3a6;" horiz-adv-x="1607" d="M729 -60 L729 121 Q512 139 364 227 Q223 311 158 461 Q109 576 109 708 Q109 899 206 1043 Q355 1264 729 1296 L729 1473 L875 1473 L875 1296 Q1099 1276 1242 1190 Q1383 1106 1448 955 Q1497 841 1497 708 Q1497 517 1400 374 Q1250 151 875 121 L875 -60 L729 -60 Z M729 227 L729 1190 Q561 1174 462 1114 Q265 996 265 709 Q265 269 729 227 Z M875 227 Q1045 243 1145 304 Q1341 423 1341 708 Q1341 1147 875 1190 L875 227 Z " />
<glyph glyph-name="Chi" unicode="&#x3a7;" horiz-adv-x="1146" d="M483 756 L270 1124 Q202 1241 96 1413 L262 1413 L490 1010 Q497 999 513 970 Q528 942 565 875 L582 845 L601 879 L628 925 L654 970 L678 1013 L916 1413 L1069 1413 Q963 1250 902 1149 L650 733 L875 342 Q947 219 1080 0 L915 0 L648 468 Q642 479 621 517 Q615 528 571 607 L552 643 Q533 611 504 559 L478 515 L458 480 L172 0 L19 0 Q127 166 199 286 L483 756 Z " />
<glyph glyph-name="Psi" unicode="&#x3a8;" horiz-adv-x="1530" d="M691 0 L691 377 Q515 377 421 404 Q280 445 206 589 Q158 682 147 832 Q144 881 144 976 L144 1413 L291 1413 L291 1015 Q291 757 328 662 Q385 518 558 493 Q594 487 691 484 L691 1413 L838 1413 L838 484 Q953 488 996 497 Q1164 533 1210 688 Q1239 784 1239 1015 L1239 1413 L1386 1413 L1386 976 Q1386 800 1364 699 Q1325 521 1187 438 Q1084 377 838 377 L838 0 L691 0 Z " />
<glyph glyph-name="uni03A9" unicode="&#x3a9;" horiz-adv-x="1501" d="M156 0 L156 106 L550 106 L550 194 Q367 275 275 375 Q128 534 128 785 Q128 1069 285 1250 Q447 1438 752 1438 Q1057 1438 1219 1250 Q1376 1069 1376 785 Q1376 515 1207 352 Q1118 267 954 194 L954 106 L1348 106 L1348 0 L833 0 L833 254 Q968 306 1059 388 Q1139 458 1176 543 Q1220 645 1220 805 Q1220 996 1139 1129 Q1016 1332 752 1332 Q488 1332 365 1129 Q284 996 284 805 Q284 599 361 483 Q459 336 671 254 L671 0 L156 0 Z " />
<glyph glyph-name="Iotadieresis" unicode="&#x3aa;" horiz-adv-x="538" d="M195 0 L195 1413 L342 1413 L342 0 L195 0 Z M100 1758 Q140 1758 168 1730 Q196 1703 196 1664 Q196 1625 168 1598 Q140 1570 101 1570 Q61 1570 33 1598 Q5 1625 5 1665 Q5 1704 33 1730 Q62 1758 100 1758 Z M439 1758 Q478 1758 506 1730 Q534 1703 534 1664 Q534 1625 506 1598 Q478 1570 439 1570 Q399 1570 371 1598 Q343 1625 343 1665 Q343 1703 371 1730 Q399 1758 439 1758 Z " />
<glyph glyph-name="Upsilondieresis" unicode="&#x3ab;" horiz-adv-x="1044" d="M447 0 L447 528 L-7 1413 L148 1413 L395 919 L432 844 L465 777 L493 719 L522 659 L556 725 L585 785 L617 849 L653 922 L904 1413 L1050 1413 L594 528 L594 0 L447 0 Z M354 1758 Q394 1758 422 1730 Q450 1703 450 1664 Q450 1625 422 1598 Q394 1570 355 1570 Q315 1570 287 1598 Q259 1625 259 1665 Q259 1704 287 1730 Q316 1758 354 1758 Z M693 1758 Q732 1758 760 1730 Q788 1703 788 1664 Q788 1625 760 1598 Q732 1570 693 1570 Q653 1570 625 1598 Q597 1625 597 1665 Q597 1703 625 1730 Q653 1758 693 1758 Z " />
<glyph glyph-name="alphatonos" unicode="&#x3ac;" horiz-adv-x="1108" d="M916 431 Q921 369 944 266 Q986 70 1007 0 L879 0 L838 210 Q750 -25 492 -25 Q278 -25 186 129 Q109 260 109 464 Q109 708 217 863 Q319 1008 514 1008 Q692 1008 780 895 Q815 852 842 778 L842 815 L842 871 Q842 932 839 983 L968 983 Q964 732 916 431 Z M803 455 Q803 592 749 728 Q679 906 522 906 Q380 906 313 759 Q254 632 254 458 Q254 77 512 77 Q678 77 748 235 Q781 310 796 393 Q803 435 803 455 Z M498 1128 L598 1439 L775 1439 L602 1128 L498 1128 Z " />
<glyph glyph-name="epsilontonos" unicode="&#x3ad;" horiz-adv-x="927" d="M801 125 L832 14 Q698 -25 506 -25 Q309 -25 212 40 Q109 109 109 268 Q109 419 211 490 Q244 513 310 533 Q248 556 211 599 Q152 666 152 759 Q152 1008 496 1008 Q661 1008 809 954 L765 843 Q644 907 504 907 Q294 907 294 753 Q294 657 370 604 Q417 572 525 572 L721 572 L721 468 L488 468 Q365 468 315 427 Q254 377 254 273 Q254 181 304 133 Q363 76 513 76 Q665 76 801 125 Z M439 1128 L539 1439 L716 1439 L543 1128 L439 1128 Z " />
<glyph glyph-name="etatonos" unicode="&#x3ae;" horiz-adv-x="1127" d="M181 0 L181 666 Q181 845 172 983 L305 983 L319 816 Q483 1008 679 1008 Q871 1008 924 863 Q949 796 949 632 L949 -459 L809 -459 L809 656 Q809 786 782 836 Q746 905 647 905 Q512 905 383 766 Q336 715 327 676 Q321 649 321 615 L321 0 L181 0 Z M515 1128 L615 1439 L792 1439 L619 1128 L515 1128 Z " />
<glyph glyph-name="iotatonos" unicode="&#x3af;" horiz-adv-x="545" d="M176 983 L316 983 L316 317 Q316 170 325 136 Q340 77 409 77 Q452 77 502 108 L536 1 Q455 -25 380 -25 Q251 -25 204 59 Q176 109 176 219 L176 983 Z M185 1128 L285 1439 L462 1439 L289 1128 L185 1128 Z " />
<glyph glyph-name="upsilondieresistonos" unicode="&#x3b0;" horiz-adv-x="1080" d="M169 983 L309 983 L309 376 Q309 222 351 156 Q401 78 538 78 Q685 78 733 170 Q766 235 766 376 L766 983 L907 983 L907 401 Q907 193 861 113 Q816 35 730 3 Q657 -25 538 -25 Q373 -25 291 31 Q197 95 177 233 Q169 291 169 401 L169 983 Z M323 1358 Q364 1358 393 1327 Q418 1301 418 1266 Q418 1225 386 1197 Q360 1173 321 1173 Q276 1173 249 1204 Q224 1231 224 1266 Q224 1306 256 1334 Q284 1358 323 1358 Z M757 1358 Q798 1358 827 1327 Q852 1301 852 1266 Q852 1225 820 1197 Q794 1173 755 1173 Q710 1173 683 1204 Q658 1231 658 1266 Q658 1306 690 1334 Q718 1358 757 1358 Z M437 1137 L498 1432 L670 1432 L551 1137 L437 1137 Z " />
<glyph glyph-name="alpha" unicode="&#x3b1;" horiz-adv-x="1108" d="M916 431 Q921 369 944 266 Q986 70 1007 0 L879 0 L838 210 Q750 -25 492 -25 Q278 -25 186 129 Q109 260 109 464 Q109 708 217 863 Q319 1008 514 1008 Q692 1008 780 895 Q815 852 842 778 L842 815 L842 871 Q842 932 839 983 L968 983 Q964 732 916 431 Z M803 455 Q803 592 749 728 Q679 906 522 906 Q380 906 313 759 Q254 632 254 458 Q254 77 512 77 Q678 77 748 235 Q781 310 796 393 Q803 435 803 455 Z " />
<glyph glyph-name="beta" unicode="&#x3b2;" horiz-adv-x="1098" d="M180 -459 L180 961 Q180 1147 200 1220 Q270 1476 566 1476 Q774 1476 871 1353 Q948 1255 948 1112 Q948 961 850 879 Q813 847 740 812 Q844 779 902 706 Q993 592 993 408 Q993 247 913 136 Q868 72 805 35 Q703 -25 578 -25 Q442 -25 320 18 L320 -459 L180 -459 Z M320 135 Q423 77 556 77 Q707 77 783 181 Q848 268 848 412 Q848 545 795 641 Q745 730 646 745 Q605 751 535 752 L535 849 Q626 858 674 876 Q810 927 810 1121 Q810 1237 752 1301 Q685 1374 563 1374 Q412 1374 356 1249 Q320 1170 320 916 L320 135 Z " />
<glyph glyph-name="gamma" unicode="&#x3b3;" horiz-adv-x="919" d="M394 28 L31 983 L183 983 L407 358 L423 311 Q444 247 472 160 Q519 317 534 359 L753 983 L889 983 L535 41 L535 -459 L394 -459 L394 28 Z " />
<glyph glyph-name="delta" unicode="&#x3b4;" horiz-adv-x="1080" d="M467 932 Q258 1033 258 1210 Q258 1330 337 1398 Q428 1476 608 1476 Q756 1476 866 1425 L834 1310 Q745 1375 604 1375 Q390 1375 390 1214 Q390 1134 452 1079 Q491 1044 539 1019 Q569 1003 676 949 Q803 886 859 820 Q972 687 972 457 Q972 242 861 113 Q742 -25 541 -25 Q340 -25 220 113 Q109 242 109 458 Q109 741 298 868 Q362 911 467 932 Z M545 844 Q382 844 314 718 Q254 609 254 462 Q254 315 312 204 Q379 77 541 77 Q702 77 769 204 Q827 316 827 461 Q827 610 769 718 Q701 844 545 844 Z " />
<glyph glyph-name="epsilon" unicode="&#x3b5;" horiz-adv-x="927" d="M801 125 L832 14 Q698 -25 506 -25 Q309 -25 212 40 Q109 109 109 268 Q109 419 211 490 Q244 513 310 533 Q248 556 211 599 Q152 666 152 759 Q152 1008 496 1008 Q661 1008 809 954 L765 843 Q644 907 504 907 Q294 907 294 753 Q294 657 370 604 Q417 572 525 572 L721 572 L721 468 L488 468 Q365 468 315 427 Q254 377 254 273 Q254 181 304 133 Q363 76 513 76 Q665 76 801 125 Z " />
<glyph glyph-name="zeta" unicode="&#x3b6;" horiz-adv-x="802" d="M142 1360 L149 1470 Q272 1452 509 1452 L773 1452 L773 1296 Q576 1085 489 966 Q264 657 264 361 Q264 219 311 162 Q335 133 396 112 Q422 104 490 85 Q591 59 621 46 Q755 -10 755 -172 Q755 -322 662 -459 L515 -459 Q621 -313 621 -176 Q621 -102 576 -66 Q547 -43 449 -21 Q340 4 291 25 Q119 99 119 351 Q119 667 358 992 Q472 1146 669 1346 L491 1346 Q286 1346 142 1360 Z " />
<glyph glyph-name="eta" unicode="&#x3b7;" horiz-adv-x="1127" d="M181 0 L181 666 Q181 845 172 983 L305 983 L319 816 Q483 1008 679 1008 Q871 1008 924 863 Q949 796 949 632 L949 -459 L809 -459 L809 656 Q809 786 782 836 Q746 905 647 905 Q512 905 383 766 Q336 715 327 676 Q321 649 321 615 L321 0 L181 0 Z " />
<glyph glyph-name="theta" unicode="&#x3b8;" horiz-adv-x="1058" d="M536 1476 Q666 1476 765 1376 Q957 1183 957 726 Q957 390 847 186 Q733 -25 529 -25 Q325 -25 211 186 Q101 389 101 719 Q101 1066 211 1265 Q328 1476 536 1476 Z M248 794 L809 794 Q801 998 753 1154 Q722 1251 656 1317 Q605 1368 528 1368 Q451 1368 401 1317 Q265 1176 248 794 Z M248 688 Q274 83 529 83 Q606 83 656 134 Q769 248 798 524 Q805 593 809 688 L248 688 Z " />
<glyph glyph-name="iota" unicode="&#x3b9;" horiz-adv-x="545" d="M176 983 L316 983 L316 317 Q316 170 325 136 Q340 77 409 77 Q452 77 502 108 L536 1 Q455 -25 380 -25 Q251 -25 204 59 Q176 109 176 219 L176 983 Z " />
<glyph glyph-name="kappa" unicode="&#x3ba;" horiz-adv-x="946" d="M181 0 L181 666 Q181 845 172 983 L321 983 L321 552 L765 983 L933 983 L467 550 L955 0 L780 0 L321 536 L321 0 L181 0 Z " />
<glyph glyph-name="lambda" unicode="&#x3bb;" horiz-adv-x="914" d="M8 0 L397 1017 Q354 1138 315 1201 Q266 1279 208 1320 Q189 1333 152 1356 L216 1475 Q308 1423 365 1351 Q435 1264 503 1072 L880 0 L735 0 L524 644 Q504 704 469 823 L455 869 L441 826 L423 773 Q396 690 382 654 L144 0 L8 0 Z " />
<glyph glyph-name="uni03BC" unicode="&#x3bc;" horiz-adv-x="1097" d="M179 983 L319 983 L319 415 Q319 242 367 164 Q394 120 454 96 Q498 78 542 78 Q673 78 776 253 L776 983 L917 983 L917 242 Q917 124 933 0 L811 0 Q797 61 789 125 Q758 85 734 61 Q646 -25 523 -25 Q405 -25 319 25 L319 -459 L179 -459 L179 983 Z " />
<glyph glyph-name="nu" unicode="&#x3bd;" horiz-adv-x="922" d="M391 0 L52 983 L197 983 L367 464 L393 384 L414 319 L444 223 L465 160 L490 239 L518 327 Q550 427 559 455 L733 983 L869 983 L522 0 L391 0 Z " />
<glyph glyph-name="xi" unicode="&#x3be;" horiz-adv-x="901" d="M148 1360 L156 1468 Q289 1452 533 1452 L842 1452 L842 1346 L804 1346 Q625 1346 511 1300 Q343 1233 343 1067 Q343 926 457 867 Q533 828 647 828 L757 828 L757 722 L668 722 Q548 722 485 704 Q270 642 270 360 Q270 220 324 164 Q352 135 421 116 Q444 109 528 89 Q642 63 678 49 Q831 -8 831 -171 Q831 -322 739 -459 L592 -459 Q698 -313 698 -177 Q698 -102 646 -66 Q614 -44 502 -21 Q377 4 321 25 Q125 100 125 359 Q125 605 264 711 Q333 764 432 778 Q324 812 276 864 Q205 941 205 1054 Q205 1189 303 1271 Q353 1313 444 1345 Q276 1346 148 1360 Z " />
<glyph glyph-name="omicron" unicode="&#x3bf;" horiz-adv-x="1076" d="M545 1008 Q740 1008 858 863 Q968 727 968 493 Q968 258 858 121 Q740 -25 539 -25 Q337 -25 219 121 Q109 259 109 491 Q109 729 219 863 Q340 1008 545 1008 Z M543 906 Q383 906 314 770 Q254 652 254 492 Q254 334 312 215 Q379 77 539 77 Q698 77 765 215 Q823 334 823 493 Q823 655 765 770 Q696 906 543 906 Z " />
<glyph glyph-name="rho" unicode="&#x3c1;" horiz-adv-x="1066" d="M141 -459 L141 519 Q141 703 198 814 Q297 1008 540 1008 Q747 1008 854 860 Q956 719 956 492 Q956 295 871 162 Q827 92 760 47 Q655 -25 521 -25 Q384 -25 281 43 L281 -459 L141 -459 Z M281 166 Q322 133 343 120 Q417 77 508 77 Q616 77 694 147 Q759 206 790 318 Q811 397 811 489 Q811 652 757 770 Q695 906 543 906 Q361 906 303 706 Q281 630 281 475 L281 166 Z " />
<glyph glyph-name="uni03C2" unicode="&#x3c2;" horiz-adv-x="771" d="M457 -459 Q564 -313 564 -174 Q564 -93 522 -53 Q495 -27 402 -2 Q300 25 251 49 Q90 130 90 421 Q90 1008 515 1008 Q651 1008 758 954 L714 842 Q625 906 522 906 Q339 906 270 706 Q236 607 236 409 Q236 224 301 168 Q335 139 520 82 Q622 51 662 -18 Q697 -80 697 -169 Q697 -322 604 -459 L457 -459 Z " />
<glyph glyph-name="sigma" unicode="&#x3c3;" horiz-adv-x="1077" d="M790 882 Q856 823 887 774 Q958 661 958 481 Q958 265 850 123 Q738 -25 539 -25 Q338 -25 220 123 Q109 263 109 498 Q109 797 299 920 Q397 983 563 983 L1036 983 L1027 877 L790 882 Z M543 883 Q383 883 314 757 Q254 647 254 495 Q254 338 313 216 Q379 77 538 77 Q695 77 758 216 Q814 340 814 495 Q814 648 758 757 Q693 883 543 883 Z " />
<glyph glyph-name="tau" unicode="&#x3c4;" horiz-adv-x="829" d="M299 877 L8 877 L9 983 L789 983 L789 877 L439 877 L439 300 Q439 178 466 131 Q497 77 577 77 Q655 77 723 116 L745 3 Q661 -25 561 -25 Q396 -25 341 70 Q299 145 299 281 L299 877 Z " />
<glyph glyph-name="upsilon" unicode="&#x3c5;" horiz-adv-x="1080" d="M171 983 L311 983 L311 376 Q311 222 353 156 Q403 78 540 78 Q687 78 735 170 Q768 235 768 376 L768 983 L909 983 L909 401 Q909 193 863 113 Q818 35 732 3 Q659 -25 540 -25 Q375 -25 293 31 Q199 95 179 233 Q171 291 171 401 L171 983 Z " />
<glyph glyph-name="phi" unicode="&#x3c6;" horiz-adv-x="1420" d="M632 82 L632 553 Q632 681 640 751 Q655 879 724 940 Q793 1000 925 1000 Q1109 1000 1204 873 Q1310 732 1310 504 Q1310 12 771 -29 L771 -459 L631 -459 L631 -31 Q468 -19 345 48 Q213 120 157 230 Q109 326 109 470 Q109 683 225 827 Q282 897 383 958 L439 863 Q354 800 313 726 Q253 619 253 474 Q253 339 313 242 Q402 99 632 82 Z M771 82 Q1165 113 1165 498 Q1165 684 1096 797 Q1036 895 929 895 Q811 895 783 791 Q770 742 771 602 L771 82 Z " />
<glyph glyph-name="chi" unicode="&#x3c7;" horiz-adv-x="815" d="M330 345 L222 607 Q161 755 136 792 Q99 848 25 891 L90 1010 Q169 965 219 907 Q275 839 369 607 L428 463 L437 484 Q476 581 490 610 L667 983 L803 983 L480 339 L631 -4 Q725 -217 766 -286 Q806 -353 853 -390 L754 -499 Q681 -436 622 -319 Q596 -268 551 -160 L525 -98 Q509 -60 502 -45 L388 214 Q354 118 328 56 L110 -460 L-27 -461 L330 345 Z " />
<glyph glyph-name="psi" unicode="&#x3c8;" horiz-adv-x="1353" d="M609 -459 L609 -26 Q437 -18 330 32 Q210 88 160 191 Q119 276 119 403 Q119 634 194 1000 L330 971 Q300 804 291 747 Q264 568 264 418 Q264 267 314 196 Q376 108 527 85 Q561 80 609 77 L609 970 L748 970 L748 77 Q879 86 952 122 Q1035 164 1065 245 Q1089 308 1089 419 Q1089 570 1062 747 Q1052 811 1023 971 L1159 1000 Q1234 632 1234 403 Q1234 224 1150 125 Q1032 -12 748 -26 L748 -459 L609 -459 Z " />
<glyph glyph-name="omega" unicode="&#x3c9;" horiz-adv-x="1386" d="M694 127 Q616 -25 452 -25 Q284 -25 200 84 Q109 200 109 423 Q109 695 252 1000 L383 961 Q254 676 254 436 Q254 253 298 168 Q321 124 371 98 Q410 77 455 77 Q566 77 604 194 Q624 254 624 414 L624 688 L763 688 L763 414 Q763 241 789 178 Q830 77 932 77 Q998 77 1050 121 Q1133 190 1133 436 Q1133 597 1081 762 Q1050 858 1004 961 L1135 1000 Q1278 695 1278 422 Q1278 200 1187 84 Q1103 -25 934 -25 Q768 -25 694 127 Z " />
<glyph glyph-name="iotadieresis" unicode="&#x3ca;" horiz-adv-x="545" d="M176 983 L316 983 L316 317 Q316 170 325 136 Q340 77 409 77 Q452 77 502 108 L536 1 Q455 -25 380 -25 Q251 -25 204 59 Q176 109 176 219 L176 983 Z M112 1359 Q152 1359 180 1331 Q208 1304 208 1265 Q208 1226 180 1199 Q152 1171 113 1171 Q73 1171 45 1199 Q17 1226 17 1266 Q17 1305 45 1331 Q74 1359 112 1359 Z M451 1359 Q490 1359 518 1331 Q546 1304 546 1265 Q546 1226 518 1199 Q490 1171 451 1171 Q411 1171 383 1199 Q355 1226 355 1266 Q355 1304 383 1331 Q411 1359 451 1359 Z " />
<glyph glyph-name="upsilondieresis" unicode="&#x3cb;" horiz-adv-x="1080" d="M171 983 L311 983 L311 376 Q311 222 353 156 Q403 78 540 78 Q687 78 735 170 Q768 235 768 376 L768 983 L909 983 L909 401 Q909 193 863 113 Q818 35 732 3 Q659 -25 540 -25 Q375 -25 293 31 Q199 95 179 233 Q171 291 171 401 L171 983 Z M380 1359 Q420 1359 448 1331 Q476 1304 476 1265 Q476 1226 448 1199 Q420 1171 381 1171 Q341 1171 313 1199 Q285 1226 285 1266 Q285 1305 313 1331 Q342 1359 380 1359 Z M699 1359 Q738 1359 767 1331 Q794 1304 794 1265 Q794 1226 767 1199 Q738 1171 699 1171 Q660 1171 631 1199 Q604 1226 604 1266 Q604 1305 631 1331 Q660 1359 699 1359 Z " />
<glyph glyph-name="omicrontonos" unicode="&#x3cc;" horiz-adv-x="1076" d="M545 1008 Q740 1008 858 863 Q968 727 968 493 Q968 258 858 121 Q740 -25 539 -25 Q337 -25 219 121 Q109 259 109 491 Q109 729 219 863 Q340 1008 545 1008 Z M543 906 Q383 906 314 770 Q254 652 254 492 Q254 334 312 215 Q379 77 539 77 Q698 77 765 215 Q823 334 823 493 Q823 655 765 770 Q696 906 543 906 Z M453 1128 L553 1439 L730 1439 L557 1128 L453 1128 Z " />
<glyph glyph-name="upsilontonos" unicode="&#x3cd;" horiz-adv-x="1080" d="M171 983 L311 983 L311 376 Q311 222 353 156 Q403 78 540 78 Q687 78 735 170 Q768 235 768 376 L768 983 L909 983 L909 401 Q909 193 863 113 Q818 35 732 3 Q659 -25 540 -25 Q375 -25 293 31 Q199 95 179 233 Q171 291 171 401 L171 983 Z M467 1128 L567 1439 L744 1439 L571 1128 L467 1128 Z " />
<glyph glyph-name="omegatonos" unicode="&#x3ce;" horiz-adv-x="1386" d="M694 127 Q616 -25 452 -25 Q284 -25 200 84 Q109 200 109 423 Q109 695 252 1000 L383 961 Q254 676 254 436 Q254 253 298 168 Q321 124 371 98 Q410 77 455 77 Q566 77 604 194 Q624 254 624 414 L624 688 L763 688 L763 414 Q763 241 789 178 Q830 77 932 77 Q998 77 1050 121 Q1133 190 1133 436 Q1133 597 1081 762 Q1050 858 1004 961 L1135 1000 Q1278 695 1278 422 Q1278 200 1187 84 Q1103 -25 934 -25 Q768 -25 694 127 Z M608 1128 L708 1439 L885 1439 L712 1128 L608 1128 Z " />
<glyph glyph-name="afii10023" unicode="&#x401;" horiz-adv-x="1090" d="M194 0 L194 1413 L1028 1413 L1028 1307 L341 1307 L341 790 L864 790 L864 684 L341 684 L341 106 L1029 106 L1029 0 L194 0 Z M377 1758 Q417 1758 445 1730 Q473 1703 473 1664 Q473 1625 445 1598 Q417 1570 378 1570 Q338 1570 310 1598 Q282 1625 282 1665 Q282 1704 310 1730 Q339 1758 377 1758 Z M716 1758 Q755 1758 783 1730 Q811 1703 811 1664 Q811 1625 783 1598 Q755 1570 716 1570 Q676 1570 648 1598 Q620 1625 620 1665 Q620 1703 648 1730 Q676 1758 716 1758 Z " />
<glyph glyph-name="afii10051" unicode="&#x402;" horiz-adv-x="1457" d="M340 0 L340 1307 L39 1307 L39 1413 L921 1413 L921 1307 L487 1307 L487 777 Q668 927 890 927 Q1166 927 1249 739 Q1290 648 1290 428 L1290 14 Q1290 -145 1273 -235 Q1226 -472 961 -472 Q890 -472 830 -455 L853 -350 Q916 -371 981 -371 Q1089 -371 1118 -268 Q1143 -182 1143 -4 L1143 456 Q1143 633 1109 704 Q1053 820 868 820 Q649 820 487 645 L487 0 L340 0 Z " />
<glyph glyph-name="afii10052" unicode="&#x403;" horiz-adv-x="963" d="M194 0 L194 1413 L925 1413 L925 1307 L341 1307 L341 0 L194 0 Z M486 1544 L617 1792 L814 1792 L593 1544 L486 1544 Z " />
<glyph glyph-name="afii10053" unicode="&#x404;" horiz-adv-x="1058" d="M936 790 L936 684 L265 684 Q271 81 685 81 Q846 81 1018 152 L1049 27 Q864 -25 683 -25 Q382 -25 244 167 Q109 356 109 681 Q109 916 178 1094 Q310 1438 672 1438 Q798 1438 906 1408 Q935 1399 1004 1375 L972 1250 Q817 1331 677 1331 Q418 1331 315 1038 Q277 929 268 790 L936 790 Z " />
<glyph glyph-name="afii10054" unicode="&#x405;" horiz-adv-x="1010" d="M42 61 L74 186 Q253 81 455 81 Q632 81 720 158 Q793 221 793 334 Q793 429 748 497 Q711 554 645 590 Q586 623 494 664 Q280 759 199 824 Q91 910 91 1076 Q91 1438 503 1438 Q662 1438 835 1379 L790 1258 Q646 1332 515 1332 Q228 1332 228 1101 Q228 1000 290 943 Q334 904 398 872 Q468 838 566 794 Q732 719 798 666 Q930 558 930 368 Q930 167 795 69 Q667 -25 459 -25 Q241 -25 42 61 Z " />
<glyph glyph-name="afii10055" unicode="&#x406;" horiz-adv-x="538" d="M195 0 L195 1413 L342 1413 L342 0 L195 0 Z " />
<glyph glyph-name="afii10056" unicode="&#x407;" horiz-adv-x="538" d="M195 0 L195 1413 L342 1413 L342 0 L195 0 Z M100 1758 Q140 1758 168 1730 Q196 1703 196 1664 Q196 1625 168 1598 Q140 1570 101 1570 Q61 1570 33 1598 Q5 1625 5 1665 Q5 1704 33 1730 Q62 1758 100 1758 Z M439 1758 Q478 1758 506 1730 Q534 1703 534 1664 Q534 1625 506 1598 Q478 1570 439 1570 Q399 1570 371 1598 Q343 1625 343 1665 Q343 1703 371 1730 Q399 1758 439 1758 Z " />
<glyph glyph-name="afii10057" unicode="&#x408;" horiz-adv-x="594" d="M252 1413 L399 1413 L399 231 Q399 35 381 -70 Q351 -255 251 -338 Q158 -415 -3 -415 Q-98 -415 -186 -391 L-165 -281 Q-80 -309 -2 -309 Q179 -309 223 -138 Q252 -28 252 234 L252 1413 Z " />
<glyph glyph-name="afii10058" unicode="&#x409;" horiz-adv-x="1837" d="M900 0 L900 1307 L409 1307 L409 1170 Q409 981 389 721 Q353 253 271 121 Q224 45 169 20 Q125 0 50 0 L-3 0 L6 114 L47 114 Q126 114 167 191 Q223 293 249 608 Q275 913 275 1207 L275 1413 L1047 1413 L1047 848 L1300 848 Q1547 848 1655 758 Q1780 654 1780 423 Q1780 179 1636 77 Q1528 0 1300 0 L900 0 Z M1047 106 L1256 106 Q1456 106 1526 157 Q1624 229 1624 425 Q1624 637 1509 702 Q1439 742 1256 742 L1047 742 L1047 106 Z " />
<glyph glyph-name="afii10059" unicode="&#x40a;" horiz-adv-x="1974" d="M1037 0 L1037 721 L341 721 L341 0 L194 0 L194 1413 L341 1413 L341 827 L1037 827 L1037 1413 L1184 1413 L1184 848 L1438 848 Q1686 848 1793 755 Q1917 646 1917 423 Q1917 257 1857 165 Q1795 69 1678 30 Q1590 0 1438 0 L1037 0 Z M1184 106 L1393 106 Q1593 106 1663 157 Q1761 228 1761 423 Q1761 634 1646 698 Q1610 719 1534 731 Q1460 742 1393 742 L1184 742 L1184 106 Z " />
<glyph glyph-name="afii10060" unicode="&#x40b;" horiz-adv-x="1457" d="M340 0 L340 1307 L39 1307 L39 1413 L921 1413 L921 1307 L487 1307 L487 777 Q668 927 890 927 Q1166 927 1249 739 Q1290 648 1290 428 L1290 0 L1143 0 L1143 456 Q1143 633 1109 704 Q1053 820 868 820 Q649 820 487 645 L487 0 L340 0 Z " />
<glyph glyph-name="afii10061" unicode="&#x40c;" horiz-adv-x="1224" d="M195 0 L195 1413 L342 1413 L342 796 L452 796 Q520 796 570 813 Q628 834 678 930 Q696 966 762 1125 Q833 1299 891 1349 Q966 1413 1104 1413 L1159 1413 L1146 1299 L1117 1299 Q1040 1299 1000 1269 Q947 1228 860 1015 Q817 908 765 838 Q735 797 682 760 Q760 734 815 675 Q868 619 916 539 Q935 506 1001 376 L1192 0 L1020 0 L852 345 Q790 477 762 524 Q699 627 641 659 Q597 684 509 684 L342 684 L342 0 L195 0 Z M537 1544 L668 1792 L865 1792 L644 1544 L537 1544 Z " />
<glyph glyph-name="uni040D" unicode="&#x40d;" horiz-adv-x="1344" d="M194 0 L194 1413 L332 1413 L332 544 Q332 436 328 279 Q353 320 402 396 Q481 520 508 563 L1012 1328 L1033 1413 L1150 1413 L1150 0 L1012 0 L1012 885 Q1012 975 1015 1087 L1016 1131 L989 1087 L955 1032 Q904 952 875 907 L332 82 L311 0 L194 0 Z M674 1544 L452 1792 L650 1792 L780 1544 L674 1544 Z " />
<glyph glyph-name="afii10062" unicode="&#x40e;" horiz-adv-x="1015" d="M478 430 L-22 1413 L135 1413 L467 732 Q493 680 528 597 L543 560 Q584 677 608 737 L881 1413 L1026 1413 L433 0 L280 0 L478 430 Z M220 1793 L347 1793 Q354 1725 378 1695 Q417 1647 507 1647 Q606 1647 643 1704 Q660 1732 667 1793 L794 1793 Q791 1704 751 1643 Q681 1535 507 1535 Q322 1535 254 1657 Q223 1714 220 1793 Z " />
<glyph glyph-name="afii10145" unicode="&#x40f;" horiz-adv-x="1333" d="M194 0 L194 1413 L341 1413 L341 106 L992 106 L992 1413 L1139 1413 L1139 0 L742 0 L716 -350 L617 -350 L591 0 L194 0 Z " />
<glyph glyph-name="afii10017" unicode="&#x410;" horiz-adv-x="1257" d="M916 455 L329 455 L160 0 L13 0 L554 1413 L705 1413 L1244 0 L1084 0 L916 455 Z M879 561 L717 999 Q709 1021 659 1169 L639 1227 L623 1273 L607 1226 L589 1174 Q546 1046 534 1015 L367 561 L879 561 Z " />
<glyph glyph-name="afii10018" unicode="&#x411;" horiz-adv-x="1162" d="M194 0 L194 1413 L975 1413 L975 1307 L341 1307 L341 848 L595 848 Q841 848 949 758 Q1074 654 1074 423 Q1074 179 930 77 Q822 0 595 0 L194 0 Z M341 106 L550 106 Q751 106 820 157 Q918 229 918 424 Q918 637 803 702 Q733 742 550 742 L341 742 L341 106 Z " />
<glyph glyph-name="afii10019" unicode="&#x412;" horiz-adv-x="1208" d="M194 0 L194 1413 L613 1413 Q836 1413 936 1344 Q1061 1258 1061 1080 Q1061 815 823 756 Q957 727 1015 673 Q1118 577 1118 390 Q1118 174 969 75 Q857 0 623 0 L194 0 Z M341 804 L543 804 Q748 804 814 847 Q915 913 915 1074 Q915 1210 830 1266 Q769 1307 583 1307 L341 1307 L341 804 Z M341 106 L574 106 Q786 106 858 151 Q962 218 962 386 Q962 577 852 647 Q801 680 719 691 Q665 698 552 698 L341 698 L341 106 Z " />
<glyph glyph-name="afii10020" unicode="&#x413;" horiz-adv-x="963" d="M194 0 L194 1413 L925 1413 L925 1307 L341 1307 L341 0 L194 0 Z " />
<glyph glyph-name="afii10021" unicode="&#x414;" horiz-adv-x="1255" d="M1020 0 L113 0 L88 -353 L-27 -353 L-27 106 L107 106 Q171 214 208 475 Q253 785 253 1205 L253 1413 L1026 1413 L1026 106 L1160 106 L1160 -353 L1047 -353 L1020 0 Z M879 106 L879 1307 L387 1307 L387 1170 Q387 936 362 662 Q329 299 246 106 L879 106 Z " />
<glyph glyph-name="afii10022" unicode="&#x415;" horiz-adv-x="1090" d="M194 0 L194 1413 L1028 1413 L1028 1307 L341 1307 L341 790 L864 790 L864 684 L341 684 L341 106 L1029 106 L1029 0 L194 0 Z " />
<glyph glyph-name="afii10024" unicode="&#x416;" horiz-adv-x="1766" d="M809 0 L809 683 L730 683 Q642 683 598 659 Q540 626 477 524 Q448 476 387 344 L219 0 L47 0 L238 375 Q321 539 363 599 Q425 686 483 725 Q512 744 557 759 Q492 805 453 868 Q411 934 349 1088 Q305 1195 260 1248 Q217 1299 122 1299 L93 1299 L80 1413 L135 1413 Q285 1413 360 1337 Q410 1287 477 1124 Q543 964 561 929 Q611 833 669 813 Q719 795 787 795 L809 795 L809 1413 L956 1413 L956 795 L978 795 Q1046 795 1096 813 Q1154 833 1204 929 Q1223 967 1288 1124 Q1359 1299 1417 1349 Q1492 1413 1630 1413 L1685 1413 L1672 1299 L1643 1299 Q1566 1299 1526 1268 Q1488 1239 1441 1142 Q1427 1114 1386 1014 Q1342 906 1291 837 Q1261 797 1208 759 Q1285 733 1341 674 Q1394 617 1442 538 Q1462 504 1527 375 L1718 0 L1546 0 L1378 344 Q1317 476 1288 524 Q1225 626 1167 659 Q1123 683 1035 683 L956 683 L956 0 L809 0 Z " />
<glyph glyph-name="afii10025" unicode="&#x417;" horiz-adv-x="1213" d="M281 699 L281 805 L512 805 Q686 805 762 870 Q863 957 863 1096 Q863 1210 790 1266 Q704 1332 543 1332 Q378 1332 196 1250 L164 1375 Q366 1438 549 1438 Q778 1438 904 1339 Q1010 1256 1010 1098 Q1010 954 911 856 Q866 811 777 772 Q891 749 950 698 Q1067 598 1067 410 Q1067 246 986 139 Q861 -25 548 -25 Q320 -25 113 60 L145 185 Q331 81 535 81 Q743 81 838 170 Q920 246 920 400 Q920 581 805 652 Q729 699 547 699 L281 699 Z " />
<glyph glyph-name="afii10026" unicode="&#x418;" horiz-adv-x="1344" d="M194 0 L194 1413 L332 1413 L332 544 Q332 436 328 279 Q353 320 402 396 Q481 520 508 563 L1012 1328 L1033 1413 L1150 1413 L1150 0 L1012 0 L1012 885 Q1012 975 1015 1087 L1016 1131 L989 1087 L955 1032 Q904 952 875 907 L332 82 L311 0 L194 0 Z " />
<glyph glyph-name="afii10027" unicode="&#x419;" horiz-adv-x="1344" d="M194 0 L194 1413 L332 1413 L332 544 Q332 436 328 279 Q353 320 402 396 Q481 520 508 563 L1012 1328 L1033 1413 L1150 1413 L1150 0 L1012 0 L1012 885 Q1012 975 1015 1087 L1016 1131 L989 1087 L955 1032 Q904 952 875 907 L332 82 L311 0 L194 0 Z M385 1793 L512 1793 Q519 1725 543 1695 Q582 1647 672 1647 Q771 1647 808 1704 Q825 1732 832 1793 L959 1793 Q956 1704 916 1643 Q846 1535 672 1535 Q487 1535 419 1657 Q388 1714 385 1793 Z " />
<glyph glyph-name="afii10028" unicode="&#x41a;" horiz-adv-x="1224" d="M195 0 L195 1413 L342 1413 L342 796 L452 796 Q520 796 570 813 Q628 834 678 930 Q696 966 762 1125 Q833 1299 891 1349 Q966 1413 1104 1413 L1159 1413 L1146 1299 L1117 1299 Q1040 1299 1000 1269 Q947 1228 860 1015 Q817 908 765 838 Q735 797 682 760 Q760 734 815 675 Q868 619 916 539 Q935 506 1001 376 L1192 0 L1020 0 L852 345 Q790 477 762 524 Q699 627 641 659 Q597 684 509 684 L342 684 L342 0 L195 0 Z " />
<glyph glyph-name="afii10029" unicode="&#x41b;" horiz-adv-x="1241" d="M-3 0 L6 114 L47 114 Q126 114 167 191 Q223 294 249 608 Q275 913 275 1207 L275 1413 L1047 1413 L1047 0 L900 0 L900 1307 L409 1307 L409 1170 Q409 982 389 721 Q353 253 271 121 Q223 45 169 20 Q125 0 50 0 L-3 0 Z " />
<glyph glyph-name="afii10030" unicode="&#x41c;" horiz-adv-x="1809" d="M157 0 L321 1413 L507 1413 L834 424 Q861 341 903 161 Q950 352 983 451 L1299 1413 L1486 1413 L1652 0 L1513 0 L1409 908 L1400 998 L1391 1086 L1381 1175 L1369 1291 L1336 1182 Q1301 1065 1294 1042 Q1256 917 1256 916 L960 0 L837 0 L536 923 L518 985 L482 1103 Q446 1225 425 1291 L415 1194 L407 1114 L395 1002 L388 933 L284 0 L157 0 Z " />
<glyph glyph-name="afii10031" unicode="&#x41d;" horiz-adv-x="1375" d="M194 0 L194 1413 L341 1413 L341 791 L1033 791 L1033 1413 L1180 1413 L1180 0 L1033 0 L1033 685 L341 685 L341 0 L194 0 Z " />
<glyph glyph-name="afii10032" unicode="&#x41e;" horiz-adv-x="1369" d="M694 1438 Q882 1438 1017 1338 Q1160 1232 1221 1018 Q1260 878 1260 706 Q1260 391 1130 193 Q986 -25 684 -25 Q383 -25 239 193 Q109 391 109 704 Q109 1025 239 1220 Q385 1438 694 1438 Z M691 1332 Q542 1332 437 1243 Q265 1096 265 703 Q265 426 358 264 Q410 174 505 124 Q586 81 685 81 Q827 81 932 170 Q1104 316 1104 706 Q1104 990 1011 1149 Q956 1242 864 1290 Q782 1332 691 1332 Z " />
<glyph glyph-name="afii10033" unicode="&#x41f;" horiz-adv-x="1361" d="M194 0 L194 1413 L1166 1413 L1166 0 L1019 0 L1019 1307 L341 1307 L341 0 L194 0 Z " />
<glyph glyph-name="afii10034" unicode="&#x420;" horiz-adv-x="1163" d="M194 0 L194 1413 L610 1413 Q719 1413 830 1378 Q963 1337 1025 1191 Q1063 1100 1063 987 Q1063 748 924 650 Q802 564 581 564 L341 564 L341 0 L194 0 Z M341 670 L518 670 Q738 670 817 738 Q907 816 907 980 Q907 1163 813 1243 Q738 1307 542 1307 L341 1307 L341 670 Z " />
<glyph glyph-name="afii10035" unicode="&#x421;" horiz-adv-x="1056" d="M1016 152 L1047 27 Q864 -25 683 -25 Q382 -25 244 167 Q109 356 109 681 Q109 916 177 1094 Q310 1438 671 1438 Q797 1438 905 1408 Q933 1400 1003 1375 L971 1250 Q817 1331 675 1331 Q480 1331 379 1170 Q265 989 265 692 Q265 417 361 252 Q461 81 685 81 Q845 81 1016 152 Z " />
<glyph glyph-name="afii10036" unicode="&#x422;" horiz-adv-x="1136" d="M495 0 L495 1307 L90 1307 L90 1413 L1047 1413 L1047 1307 L642 1307 L642 0 L495 0 Z " />
<glyph glyph-name="afii10037" unicode="&#x423;" horiz-adv-x="1015" d="M478 430 L-22 1413 L135 1413 L467 732 Q493 680 528 597 L543 560 Q584 677 608 737 L881 1413 L1026 1413 L433 0 L280 0 L478 430 Z " />
<glyph glyph-name="afii10038" unicode="&#x424;" horiz-adv-x="1607" d="M729 -60 L729 121 Q512 139 364 227 Q223 311 158 461 Q109 576 109 708 Q109 899 206 1043 Q355 1264 729 1296 L729 1473 L875 1473 L875 1296 Q1099 1276 1242 1190 Q1383 1106 1448 955 Q1497 841 1497 708 Q1497 517 1400 374 Q1250 151 875 121 L875 -60 L729 -60 Z M729 227 L729 1190 Q561 1174 462 1114 Q265 996 265 709 Q265 269 729 227 Z M875 227 Q1045 243 1145 304 Q1341 423 1341 708 Q1341 1147 875 1190 L875 227 Z " />
<glyph glyph-name="afii10039" unicode="&#x425;" horiz-adv-x="1146" d="M483 756 L270 1124 Q202 1241 96 1413 L262 1413 L490 1010 Q497 999 513 970 Q528 942 565 875 L582 845 L601 879 L628 925 L654 970 L678 1013 L916 1413 L1069 1413 Q963 1250 902 1149 L650 733 L875 342 Q947 219 1080 0 L915 0 L648 468 Q642 479 621 517 Q615 528 571 607 L552 643 Q533 611 504 559 L478 515 L458 480 L172 0 L19 0 Q127 166 199 286 L483 756 Z " />
<glyph glyph-name="afii10040" unicode="&#x426;" horiz-adv-x="1356" d="M194 0 L194 1413 L341 1413 L341 106 L992 106 L992 1413 L1139 1413 L1139 106 L1272 106 L1272 -350 L1159 -350 L1133 0 L194 0 Z " />
<glyph glyph-name="afii10041" unicode="&#x427;" horiz-adv-x="1273" d="M931 0 L931 556 Q790 399 566 399 Q288 399 204 581 Q165 665 165 870 L165 1413 L312 1413 L312 837 Q312 663 352 598 Q409 506 574 506 Q675 506 746 542 Q847 593 931 692 L931 1413 L1078 1413 L1078 0 L931 0 Z " />
<glyph glyph-name="afii10042" unicode="&#x428;" horiz-adv-x="1913" d="M194 0 L194 1413 L341 1413 L341 106 L883 106 L883 1413 L1030 1413 L1030 106 L1571 106 L1571 1413 L1718 1413 L1718 0 L194 0 Z " />
<glyph glyph-name="afii10043" unicode="&#x429;" horiz-adv-x="1937" d="M194 0 L194 1413 L341 1413 L341 106 L883 106 L883 1413 L1030 1413 L1030 106 L1571 106 L1571 1413 L1718 1413 L1718 106 L1852 106 L1852 -350 L1734 -350 L1712 0 L194 0 Z " />
<glyph glyph-name="afii10044" unicode="&#x42a;" horiz-adv-x="1310" d="M373 0 L373 1307 L-5 1307 L-5 1413 L520 1413 L520 848 L773 848 Q1019 848 1128 758 Q1253 654 1253 423 Q1253 179 1109 77 Q1001 0 773 0 L373 0 Z M520 106 L729 106 Q929 106 999 157 Q1097 229 1097 424 Q1097 637 982 702 Q912 742 729 742 L520 742 L520 106 Z " />
<glyph glyph-name="afii10045" unicode="&#x42b;" horiz-adv-x="1604" d="M1262 0 L1262 1413 L1409 1413 L1409 0 L1262 0 Z M194 0 L194 1413 L341 1413 L341 848 L594 848 Q841 848 949 758 Q1074 654 1074 423 Q1074 179 930 77 Q822 0 594 0 L194 0 Z M341 106 L550 106 Q750 106 820 157 Q918 229 918 425 Q918 637 803 702 Q733 742 550 742 L341 742 L341 106 Z " />
<glyph glyph-name="afii10046" unicode="&#x42c;" horiz-adv-x="1132" d="M194 0 L194 1413 L341 1413 L341 848 L594 848 Q841 848 949 758 Q1074 654 1074 423 Q1074 179 930 77 Q822 0 594 0 L194 0 Z M341 106 L550 106 Q750 106 820 157 Q918 229 918 425 Q918 637 803 702 Q733 742 550 742 L341 742 L341 106 Z " />
<glyph glyph-name="afii10047" unicode="&#x42d;" horiz-adv-x="1058" d="M122 684 L122 790 L790 790 Q778 960 728 1082 Q627 1331 399 1331 Q250 1331 86 1250 L54 1375 Q127 1400 158 1408 Q272 1438 403 1438 Q670 1438 807 1242 Q949 1041 949 683 Q949 355 814 167 Q676 -25 373 -25 Q193 -25 9 27 L40 152 Q212 81 373 81 Q655 81 750 373 Q792 502 793 684 L122 684 Z " />
<glyph glyph-name="afii10048" unicode="&#x42e;" horiz-adv-x="1910" d="M194 0 L194 1413 L341 1413 L341 791 L684 791 Q699 998 766 1141 Q904 1438 1245 1438 Q1541 1438 1681 1219 Q1809 1019 1809 706 Q1809 393 1681 191 Q1545 -25 1240 -25 Q862 -25 736 352 Q690 490 684 685 L341 685 L341 0 L194 0 Z M1253 1332 Q1108 1332 1006 1242 Q839 1096 839 702 Q839 427 929 262 Q1028 81 1246 81 Q1464 81 1563 262 Q1653 428 1653 705 Q1653 989 1563 1148 Q1510 1240 1420 1289 Q1342 1332 1253 1332 Z " />
<glyph glyph-name="afii10049" unicode="&#x42f;" horiz-adv-x="1213" d="M872 630 L618 630 Q575 630 549 620 Q517 607 476 535 Q445 481 384 345 L229 0 L68 0 L283 456 Q324 544 358 589 Q388 630 446 667 Q147 736 147 1029 Q147 1242 280 1338 Q385 1413 646 1413 L1019 1413 L1019 0 L872 0 L872 630 Z M872 734 L872 1307 L644 1307 Q510 1307 444 1280 Q303 1223 303 1025 Q303 868 392 797 Q471 734 644 734 L872 734 Z " />
<glyph glyph-name="afii10065" unicode="&#x430;" horiz-adv-x="1023" d="M706 626 L706 653 Q706 776 681 824 Q639 906 492 906 Q366 906 236 828 L199 937 Q331 1008 503 1008 Q742 1008 809 859 Q844 782 844 572 L844 239 Q844 126 860 0 L734 0 Q723 66 717 135 Q622 -25 397 -25 Q268 -25 197 26 Q105 93 105 254 Q105 490 317 567 Q411 601 548 615 Q573 617 686 624 L706 626 Z M704 531 Q537 519 456 501 Q250 456 250 257 Q250 76 423 76 Q572 76 658 194 Q692 242 700 298 Q704 326 704 374 L704 531 Z " />
<glyph glyph-name="afii10066" unicode="&#x431;" horiz-adv-x="1024" d="M284 875 Q289 880 298 890 Q405 1008 567 1008 Q758 1008 845 869 Q933 730 933 494 Q933 266 832 123 Q727 -25 534 -25 Q333 -25 227 135 Q143 261 143 570 Q143 982 207 1184 Q259 1350 396 1406 Q531 1460 846 1467 L837 1361 Q514 1346 433 1293 Q308 1211 285 890 L284 875 Z M284 588 L284 495 Q284 318 344 203 Q409 77 537 77 Q677 77 737 215 Q788 333 788 502 Q788 680 733 793 Q710 841 662 874 Q614 906 556 906 Q476 906 405 854 Q284 766 284 588 Z " />
<glyph glyph-name="afii10067" unicode="&#x432;" horiz-adv-x="1014" d="M180 0 L180 983 L543 983 Q719 983 797 937 Q895 880 895 744 Q895 633 818 573 Q786 548 718 528 Q811 514 856 476 Q934 412 934 283 Q934 120 819 51 Q732 0 553 0 L180 0 Z M320 572 L484 572 Q633 572 682 599 Q756 642 756 742 Q756 823 697 856 Q654 880 525 880 L320 880 L320 572 Z M320 103 L515 103 Q665 103 715 131 Q789 172 789 272 Q789 394 709 437 Q650 469 490 469 L320 469 L320 103 Z " />
<glyph glyph-name="afii10068" unicode="&#x433;" horiz-adv-x="817" d="M180 0 L180 983 L776 983 L775 877 L320 877 L320 0 L180 0 Z " />
<glyph glyph-name="afii10069" unicode="&#x434;" horiz-adv-x="1117" d="M922 0 L129 0 L105 -320 L-3 -320 L-3 106 L116 106 Q292 274 292 788 L292 983 L928 983 L928 106 L1059 106 L1059 -320 L953 -320 L922 0 Z M788 106 L788 877 L423 877 L423 817 Q423 518 382 347 Q346 196 272 106 L788 106 Z " />
<glyph glyph-name="afii10070" unicode="&#x435;" horiz-adv-x="1007" d="M909 483 L253 483 Q255 346 286 261 Q321 165 392 122 Q469 76 592 76 Q717 76 848 125 L878 14 Q746 -25 571 -25 Q335 -25 225 99 Q109 228 109 475 Q109 708 208 852 Q315 1008 541 1008 Q910 1008 910 542 Q910 532 909 483 Z M769 583 Q766 698 737 777 Q689 907 533 907 Q293 907 258 583 L769 583 Z " />
<glyph glyph-name="afii10072" unicode="&#x436;" horiz-adv-x="1425" d="M643 0 L643 469 L570 469 Q510 469 480 455 Q419 426 338 269 L199 0 L34 0 L202 301 Q273 429 328 480 Q361 512 402 531 Q363 564 338 604 Q313 642 270 742 Q237 816 208 849 Q182 877 122 877 L77 877 L68 983 L132 983 Q241 983 299 931 Q339 895 386 792 Q437 679 451 656 Q488 592 526 580 Q566 567 612 567 L643 567 L643 983 L783 983 L783 567 L814 567 Q908 567 946 613 Q973 645 1040 792 Q1090 903 1136 939 Q1192 983 1294 983 L1357 983 L1349 877 L1304 877 Q1253 877 1230 860 Q1197 835 1133 691 Q1086 584 1024 531 Q1065 511 1098 480 Q1153 429 1224 301 L1391 0 L1226 0 L1087 269 Q1030 379 986 424 Q956 455 919 464 Q895 469 855 469 L783 469 L783 0 L643 0 Z " />
<glyph glyph-name="afii10073" unicode="&#x437;" horiz-adv-x="927" d="M207 468 L207 572 L403 572 Q518 572 568 612 Q634 665 634 753 Q634 907 424 907 Q284 907 163 843 L119 954 Q267 1008 432 1008 Q776 1008 776 758 Q776 666 717 599 Q680 556 618 533 Q694 508 731 479 Q819 407 819 268 Q819 109 716 40 Q619 -25 420 -25 Q230 -25 96 14 L127 125 Q263 76 415 76 Q565 76 624 133 Q674 181 674 273 Q674 388 602 436 Q553 468 440 468 L207 468 Z " />
<glyph glyph-name="afii10074" unicode="&#x438;" horiz-adv-x="1131" d="M180 0 L180 983 L317 983 L317 255 L815 920 L828 983 L952 983 L952 0 L815 0 L815 740 L317 76 L304 0 L180 0 Z " />
<glyph glyph-name="afii10075" unicode="&#x439;" horiz-adv-x="1131" d="M180 0 L180 983 L317 983 L317 255 L815 920 L828 983 L952 983 L952 0 L815 0 L815 740 L317 76 L304 0 L180 0 Z M279 1394 L406 1394 Q413 1326 437 1296 Q476 1248 566 1248 Q665 1248 702 1305 Q719 1333 726 1394 L853 1394 Q850 1305 810 1244 Q740 1136 566 1136 Q381 1136 313 1258 Q282 1315 279 1394 Z " />
<glyph glyph-name="afii10076" unicode="&#x43a;" horiz-adv-x="1007" d="M180 0 L180 983 L320 983 L320 568 L411 568 Q505 568 543 614 Q569 645 637 792 Q687 903 733 939 Q789 983 891 983 L954 983 L946 877 L901 877 Q858 877 837 866.5 Q816 856 795 823 Q774 791 730 691 Q684 584 621 532 Q662 512 695 481 Q749 430 821 301 L988 0 L823 0 L684 270 Q628 379 583 425 Q553 456 516 464 Q492 470 452 470 L320 470 L320 0 L180 0 Z " />
<glyph glyph-name="afii10077" unicode="&#x43b;" horiz-adv-x="1077" d="M11 0 L12 106 L54 106 Q140 106 186 168 Q239 240 259 458 Q271 592 271 822 L271 983 L897 983 L897 0 L756 0 L756 877 L402 877 L402 798 Q402 371 335 181 Q271 0 65 0 L11 0 Z " />
<glyph glyph-name="afii10078" unicode="&#x43c;" horiz-adv-x="1338" d="M137 0 L244 983 L422 983 L609 379 Q641 276 671 147 Q703 279 736 386 L924 983 L1106 983 L1213 0 L1080 0 L1012 698 Q1011 705 996 868 Q989 842 975 794 Q956 727 944 687 L728 0 L615 0 L400 678 Q386 724 354 832 L344 868 Q332 722 330 701 L262 0 L137 0 Z " />
<glyph glyph-name="afii10079" unicode="&#x43d;" horiz-adv-x="1139" d="M180 0 L180 983 L320 983 L320 568 L819 568 L819 983 L960 983 L960 0 L819 0 L819 462 L320 462 L320 0 L180 0 Z " />
<glyph glyph-name="afii10080" unicode="&#x43e;" horiz-adv-x="1076" d="M545 1008 Q740 1008 858 863 Q968 727 968 493 Q968 258 858 121 Q740 -25 539 -25 Q337 -25 219 121 Q109 259 109 491 Q109 729 219 863 Q340 1008 545 1008 Z M543 906 Q383 906 314 770 Q254 652 254 492 Q254 334 312 215 Q379 77 539 77 Q698 77 765 215 Q823 334 823 493 Q823 655 765 770 Q696 906 543 906 Z " />
<glyph glyph-name="afii10081" unicode="&#x43f;" horiz-adv-x="1112" d="M180 0 L180 983 L932 983 L932 0 L791 0 L791 877 L320 877 L320 0 L180 0 Z " />
<glyph glyph-name="afii10082" unicode="&#x440;" horiz-adv-x="1077" d="M321 19 L321 -459 L181 -459 L181 666 Q181 845 172 983 L307 983 L317 879 Q435 1008 602 1008 Q808 1008 892 850 Q968 705 968 491 Q968 296 886 162 Q771 -25 537 -25 Q432 -25 321 19 Z M321 141 Q366 114 390 104 Q454 77 534 77 Q635 77 710 147 Q823 253 823 495 Q823 675 768 790 Q743 843 694 875 Q645 906 583 906 Q457 906 372 785 Q321 712 321 609 L321 141 Z " />
<glyph glyph-name="afii10083" unicode="&#x441;" horiz-adv-x="828" d="M765 125 L796 10 Q687 -25 528 -25 Q109 -25 109 467 Q109 731 229 880 Q333 1008 534 1008 Q670 1008 777 954 L733 842 Q646 906 540 906 Q407 906 336 800 Q254 678 254 479 Q254 311 315 205 Q389 77 550 77 Q656 77 765 125 Z " />
<glyph glyph-name="afii10084" unicode="&#x442;" horiz-adv-x="799" d="M329 0 L329 877 L43 877 L44 983 L755 983 L754 877 L469 877 L469 0 L329 0 Z " />
<glyph glyph-name="afii10085" unicode="&#x443;" horiz-adv-x="894" d="M379 0 L32 983 L177 983 L353 449 Q362 422 405 287 Q417 250 467 95 Q507 234 522 290 Q559 423 566 445 L722 983 L858 983 L522 -81 Q458 -282 409 -352 Q326 -470 165 -470 Q102 -470 48 -459 L67 -354 Q122 -369 169 -369 Q261 -369 311 -299 Q362 -228 414 -66 L436 0 L379 0 Z " />
<glyph glyph-name="afii10086" unicode="&#x444;" horiz-adv-x="1531" d="M704 -459 L704 102 Q609 -25 459 -25 Q328 -25 241 56 Q162 129 127 284 Q106 380 106 492 Q106 711 182 853 Q221 925 295 967 Q368 1008 459 1008 Q608 1008 704 882 L704 1452 L828 1452 L828 882 Q922 1008 1071 1008 Q1202 1008 1289 929 Q1369 858 1404 705 Q1426 607 1426 492 Q1426 277 1351 134 Q1312 59 1239 17 Q1165 -25 1073 -25 Q924 -25 828 102 L828 -459 L704 -459 Z M704 400 L704 581 Q704 669 691 713 Q665 800 608 852 Q549 906 478 906 Q403 906 344 846 Q251 751 251 491 Q251 305 305 192 Q329 142 378 108 Q424 77 478 77 Q593 77 662 199 Q692 252 700 309 Q704 335 704 400 Z M828 577 L828 400 Q828 314 841 269 Q866 185 924 131 Q983 77 1054 77 Q1129 77 1188 137 Q1281 232 1281 492 Q1281 678 1227 791 Q1203 841 1154 875 Q1108 906 1054 906 Q983 906 924 852 Q866 799 841 713 Q828 668 828 577 Z " />
<glyph glyph-name="afii10087" unicode="&#x445;" horiz-adv-x="975" d="M416 514 L94 983 L246 983 L415 740 L442 701 L466 666 Q490 630 505 608 Q519 629 551 675 Q560 687 575 711 Q590 733 597 742 L767 983 L894 983 L568 515 L921 0 L768 0 L582 269 L555 308 L529 346 L499 390 L479 420 Q463 398 435 357 Q392 294 382 280 L185 0 L58 0 L416 514 Z " />
<glyph glyph-name="afii10088" unicode="&#x446;" horiz-adv-x="1113" d="M180 0 L180 983 L320 983 L320 106 L782 106 L782 983 L922 983 L922 106 L1052 106 L1052 -320 L945 -320 L916 0 L180 0 Z " />
<glyph glyph-name="afii10089" unicode="&#x447;" horiz-adv-x="1084" d="M762 0 L762 425 Q726 397 698 381 Q602 327 465 327 Q233 327 165 477 Q132 551 132 728 L132 983 L272 983 L272 689 Q272 556 314 498 Q362 433 488 433 Q652 433 762 559 L762 983 L903 983 L903 0 L762 0 Z " />
<glyph glyph-name="afii10090" unicode="&#x448;" horiz-adv-x="1538" d="M180 0 L180 983 L320 983 L320 106 L699 106 L699 983 L839 983 L839 106 L1218 106 L1218 983 L1358 983 L1358 0 L180 0 Z " />
<glyph glyph-name="afii10091" unicode="&#x449;" horiz-adv-x="1561" d="M180 0 L180 983 L320 983 L320 106 L699 106 L699 983 L839 983 L839 106 L1221 106 L1221 983 L1362 983 L1362 106 L1491 106 L1491 -320 L1385 -320 L1356 0 L180 0 Z " />
<glyph glyph-name="afii10092" unicode="&#x44a;" horiz-adv-x="1083" d="M297 0 L297 877 L0 877 L1 983 L438 983 L438 619 L641 619 Q851 619 933 554 Q1031 478 1031 309 Q1031 184 982 118 Q931 50 836 21 Q765 0 641 0 L297 0 Z M438 112 L603 112 Q758 112 810 143 Q886 188 886 309 Q886 449 799 484 Q743 507 603 507 L438 507 L438 112 Z " />
<glyph glyph-name="afii10093" unicode="&#x44b;" horiz-adv-x="1383" d="M1063 0 L1063 983 L1203 983 L1203 0 L1063 0 Z M180 0 L180 983 L320 983 L320 619 L523 619 Q733 619 816 554 Q913 478 913 309 Q913 184 864 118 Q813 50 718 21 Q647 0 523 0 L180 0 Z M320 112 L485 112 Q640 112 692 143 Q768 188 768 309 Q768 449 681 484 Q625 507 485 507 L320 507 L320 112 Z " />
<glyph glyph-name="afii10094" unicode="&#x44c;" horiz-adv-x="970" d="M180 0 L180 983 L320 983 L320 619 L523 619 Q733 619 816 554 Q913 478 913 309 Q913 184 864 118 Q813 50 718 21 Q647 0 523 0 L180 0 Z M320 112 L485 112 Q640 112 692 143 Q768 188 768 309 Q768 449 681 484 Q625 507 485 507 L320 507 L320 112 Z " />
<glyph glyph-name="afii10095" unicode="&#x44d;" horiz-adv-x="882" d="M170 482 L170 586 L623 586 Q584 907 345 907 Q216 907 108 843 L64 954 Q192 1008 350 1008 Q558 1008 660 880 Q774 737 774 476 Q774 -25 322 -25 Q160 -25 44 10 L75 125 Q191 76 302 76 Q627 76 628 482 L170 482 Z " />
<glyph glyph-name="afii10096" unicode="&#x44e;" horiz-adv-x="1442" d="M180 0 L180 983 L320 983 L320 568 L538 568 Q547 700 601 800 Q711 1008 945 1008 Q1137 1008 1248 863 Q1353 726 1353 493 Q1353 258 1249 120 Q1138 -25 946 -25 Q688 -25 583 228 Q538 337 538 462 L320 462 L320 0 L180 0 Z M950 906 Q802 906 739 770 Q684 652 684 492 Q684 333 737 214 Q799 77 946 77 Q1094 77 1155 214 Q1208 335 1208 492 Q1208 654 1155 770 Q1123 839 1064 875 Q1012 906 950 906 Z " />
<glyph glyph-name="afii10097" unicode="&#x44f;" horiz-adv-x="1052" d="M731 418 L483 418 Q430 418 409 394 Q396 379 332 254 L204 0 L55 0 L204 291 Q248 377 274 410 Q287 427 315 445 Q252 460 202 508 Q125 582 125 709 Q125 859 233 933 Q305 983 465 983 L872 983 L872 0 L731 0 L731 418 Z M731 530 L731 871 L495 871 Q365 871 317 831 Q270 791 270 707 Q270 613 327 568 Q374 530 479 530 L731 530 Z " />
<glyph glyph-name="afii10071" unicode="&#x451;" horiz-adv-x="1007" d="M909 483 L253 483 Q255 346 286 261 Q321 165 392 122 Q469 76 592 76 Q717 76 848 125 L878 14 Q746 -25 571 -25 Q335 -25 225 99 Q109 228 109 475 Q109 708 208 852 Q315 1008 541 1008 Q910 1008 910 542 Q910 532 909 483 Z M769 583 Q766 698 737 777 Q689 907 533 907 Q293 907 258 583 L769 583 Z M380 1359 Q420 1359 448 1331 Q476 1304 476 1265 Q476 1226 448 1199 Q420 1171 381 1171 Q341 1171 313 1199 Q285 1226 285 1266 Q285 1305 313 1331 Q342 1359 380 1359 Z M698 1359 Q737 1359 766 1331 Q793 1304 793 1265 Q793 1226 766 1199 Q737 1171 698 1171 Q659 1171 630 1199 Q603 1226 603 1266 Q603 1305 630 1331 Q659 1359 698 1359 Z " />
<glyph glyph-name="afii10099" unicode="&#x452;" horiz-adv-x="1134" d="M180 0 L180 1153 L45 1153 L45 1246 L180 1246 L180 1266 Q180 1340 173 1453 L321 1483 L321 1246 L593 1246 L593 1153 L321 1153 L321 822 Q487 1008 684 1008 Q877 1008 930 863 Q955 796 955 632 L955 15 Q955 -144 938 -235 Q893 -472 633 -472 Q563 -472 502 -455 L525 -350 Q588 -371 653 -371 Q761 -371 790 -268 Q815 -182 815 -4 L815 656 Q815 785 789 833 Q752 901 653 901 Q516 901 383 764 Q335 713 325 673 Q321 655 321 603 L321 0 L180 0 Z " />
<glyph glyph-name="afii10100" unicode="&#x453;" horiz-adv-x="817" d="M180 0 L180 983 L776 983 L775 877 L320 877 L320 0 L180 0 Z M402 1145 L533 1393 L730 1393 L509 1145 L402 1145 Z " />
<glyph glyph-name="afii10101" unicode="&#x454;" horiz-adv-x="882" d="M713 586 L713 482 L255 482 Q258 76 571 76 Q686 76 808 125 L839 10 Q718 -25 549 -25 Q109 -25 109 467 Q109 731 231 880 Q337 1008 546 1008 Q698 1008 819 954 L775 843 Q672 907 551 907 Q309 907 261 586 L713 586 Z " />
<glyph glyph-name="afii10102" unicode="&#x455;" horiz-adv-x="826" d="M86 28 L116 147 Q229 76 380 76 Q507 76 563 132 Q606 176 606 262 Q606 320 576 354 Q542 392 491 416 Q452 434 393 458 Q240 522 181 571 Q107 633 107 746 Q107 1008 423 1008 Q559 1008 679 958 L635 846 Q543 907 427 907 Q334 907 286 865 Q243 827 243 761 Q243 703 287 666 Q330 630 457 578 Q612 516 670 462 Q742 396 742 273 Q742 -25 383 -25 Q217 -25 86 28 Z " />
<glyph glyph-name="afii10103" unicode="&#x456;" horiz-adv-x="503" d="M182 0 L182 983 L322 983 L322 0 L182 0 Z M252 1365 Q295 1365 325 1335 Q354 1307 354 1264 Q354 1223 325 1194 Q295 1164 252 1164 Q209 1164 179 1194 Q150 1223 150 1266 Q150 1307 179 1335 Q210 1365 252 1365 Z " />
<glyph glyph-name="afii10104" unicode="&#x457;" horiz-adv-x="501" d="M180 0 L180 983 L320 983 L320 0 L180 0 Z M91 1359 Q131 1359 159 1331 Q187 1304 187 1265 Q187 1226 159 1199 Q131 1171 92 1171 Q52 1171 24 1199 Q-4 1226 -4 1266 Q-4 1305 24 1331 Q53 1359 91 1359 Z M409 1359 Q448 1359 477 1331 Q504 1304 504 1265 Q504 1226 477 1199 Q448 1171 409 1171 Q370 1171 341 1199 Q314 1226 314 1266 Q314 1305 341 1331 Q370 1359 409 1359 Z " />
<glyph glyph-name="afii10105" unicode="&#x458;" horiz-adv-x="514" d="M192 983 L332 983 L332 15 Q332 -145 315 -235 Q270 -472 10 -472 Q-60 -472 -121 -455 L-98 -350 Q-36 -371 29 -371 Q137 -371 167 -268 Q192 -182 192 -4 L192 983 Z M262 1365 Q304 1365 334 1335 Q364 1307 364 1264 Q364 1223 334 1194 Q304 1164 262 1164 Q219 1164 189 1194 Q160 1223 160 1266 Q160 1307 189 1335 Q220 1365 262 1365 Z " />
<glyph glyph-name="afii10106" unicode="&#x459;" horiz-adv-x="1547" d="M756 0 L756 877 L402 877 L402 798 Q402 371 335 181 Q270 0 65 0 L11 0 L12 106 L54 106 Q140 106 186 168 Q239 241 259 458 Q271 592 271 822 L271 983 L897 983 L897 619 L1099 619 Q1310 619 1392 554 Q1490 478 1490 308 Q1490 184 1440 119 Q1387 50 1295 22 Q1223 0 1099 0 L756 0 Z M897 112 L1062 112 Q1216 112 1268 143 Q1345 188 1345 309 Q1345 449 1257 484 Q1201 507 1062 507 L897 507 L897 112 Z " />
<glyph glyph-name="afii10107" unicode="&#x45a;" horiz-adv-x="1563" d="M774 0 L774 503 L320 503 L320 0 L180 0 L180 983 L320 983 L320 609 L774 609 L774 983 L914 983 L914 619 L1117 619 Q1327 619 1409 554 Q1507 476 1507 308 Q1507 184 1458 118 Q1406 50 1312 21 Q1241 0 1117 0 L774 0 Z M914 112 L1079 112 Q1233 112 1286 143 Q1362 187 1362 308 Q1362 448 1275 483 Q1217 506 1079 506 L914 506 L914 112 Z " />
<glyph glyph-name="afii10108" unicode="&#x45b;" horiz-adv-x="1134" d="M180 0 L180 1153 L45 1153 L45 1246 L180 1246 L180 1266 Q180 1340 173 1453 L321 1483 L321 1246 L593 1246 L593 1153 L321 1153 L321 822 Q487 1008 684 1008 Q877 1008 930 863 Q955 796 955 632 L955 0 L815 0 L815 656 Q815 785 789 833 Q752 901 653 901 Q516 901 383 764 Q335 713 325 673 Q321 655 321 603 L321 0 L180 0 Z " />
<glyph glyph-name="afii10109" unicode="&#x45c;" horiz-adv-x="1007" d="M180 0 L180 983 L320 983 L320 568 L411 568 Q505 568 543 614 Q569 645 637 792 Q687 903 733 939 Q789 983 891 983 L954 983 L946 877 L901 877 Q858 877 837 866.5 Q816 856 795 823 Q774 791 730 691 Q684 584 621 532 Q662 512 695 481 Q749 430 821 301 L988 0 L823 0 L684 270 Q628 379 583 425 Q553 456 516 464 Q492 470 452 470 L320 470 L320 0 L180 0 Z M468 1145 L599 1393 L796 1393 L575 1145 L468 1145 Z " />
<glyph glyph-name="uni045D" unicode="&#x45d;" horiz-adv-x="1131" d="M180 0 L180 983 L317 983 L317 255 L815 920 L828 983 L952 983 L952 0 L815 0 L815 740 L317 76 L304 0 L180 0 Z M568 1145 L346 1393 L544 1393 L674 1145 L568 1145 Z " />
</font>
</svg>
