<?xml version="1.0" standalone="no"?>
<!DOCTYPE svg PUBLIC "-//W3C//DTD SVG 1.1//EN" "http://www.w3.org/Graphics/SVG/1.1/DTD/svg11.dtd" >
<svg xmlns="http://www.w3.org/2000/svg">
<metadata>
Created by FontForge 20120702 at Thu Oct 04 10:50:11 2012

2011 by (URW)++ Design &#38; Development
</metadata>
<defs>
<font id="E+HSerif-BoldItalic" horiz-adv-x="1180" vert-adv-y="2048" >
  <font-face 
    font-family="E+H Serif"
    font-weight="700"
    font-style="italic"
    font-stretch="normal"
    units-per-em="2048"
    panose-1="2 2 7 3 5 4 5 9 4 4"
    ascent="1638"
    descent="-410"
    x-height="1008"
    cap-height="1417"
    bbox="-391 -570 2620 2307"
    underline-thickness="95"
    underline-position="-325"
    slope="10"
    unicode-range="U+0020-FB04"
  />
<missing-glyph horiz-adv-x="1709" vert-adv-y="2457" 
d="M982 405h-151v66q0 84 -15 122q-16 42 -56 84q-20 21 -78 80q-89 88 -135 159q-64 96 -64 207q0 88 42 162q87 153 361 153q152 0 313 -45l-29 -154q-148 70 -267 70q-231 0 -231 -190q0 -94 57 -180q30 -47 136 -159q81 -86 101 -141q16 -46 16 -138v-96zM904 234
q58 0 97 -45q33 -37 33 -85q0 -56 -42 -95q-38 -35 -90 -35q-61 0 -100 45q-32 37 -32 86q0 54 42 94q37 35 92 35zM123 -459v2196h1464v-2196h-1464zM246 -336h1218v1950h-1218v-1950z" />
    <glyph glyph-name="fi" unicode="fi" horiz-adv-x="1328" vert-adv-y="2457" 
d="M242 812h-160l30 171h160l20 111q32 185 113 270q105 110 313 110q108 0 229 -24l-55 -188q-66 49 -144 49q-95 0 -141 -69q-30 -45 -48 -146l-20 -113h227l-30 -171h-227l-109 -625q-56 -320 -122 -457q-100 -212 -357 -212q-115 0 -192 36l37 142q67 -30 131 -30
q75 0 111 47q41 53 68 172q18 85 43 223zM795 815l21 121q241 23 412 72q-7 -205 -102 -667q-26 -125 -26 -169q0 -48 57 -48q44 0 98 29l41 -138q-109 -40 -238 -40q-121 0 -173 42q-52 41 -52 128q0 59 52 322q43 216 43 279q0 47 -22 62q-15 10 -56 10q-21 0 -55 -3z
M1123 1447q67 0 113 -47t46 -113q0 -65 -46 -112t-115 -47q-68 0 -114 47t-46 112q0 67 46 113q47 47 116 47z" />
    <glyph glyph-name="fl" unicode="fl" horiz-adv-x="1304" vert-adv-y="2457" 
d="M242 812h-160l30 171h160l22 123q30 174 126 261q118 107 344 107q127 0 293 -32l243 52l-199 -1131q-22 -124 -22 -184q0 -55 59 -55q51 0 116 32l37 -133q-111 -48 -250 -48q-119 0 -172 42q-57 44 -57 135q0 86 26 235l154 876q-105 50 -212 50q-116 0 -168 -67
q-35 -46 -52 -145l-21 -118h237l-30 -171h-237l-109 -625q-57 -320 -122 -457q-100 -212 -357 -212q-115 0 -192 36l37 142q66 -30 131 -30q75 0 111 47q41 53 68 172q18 84 43 223z" />
    <glyph glyph-name="ff" unicode="ff" horiz-adv-x="1392" vert-adv-y="2457" 
d="M242 812h-160l30 171h160l20 111q32 185 113 270q105 110 313 110q108 0 229 -24l-55 -188q-66 49 -144 49q-95 0 -141 -69q-30 -45 -48 -146l-20 -113h177l-30 -171h-177l-109 -625q-56 -320 -122 -457q-100 -212 -357 -212q-115 0 -192 36l37 142q67 -30 131 -30
q75 0 111 47q41 53 68 172q18 85 43 223zM915 812h-149l30 171h150l19 111q32 185 113 270q105 110 313 110q108 0 229 -24l-55 -188q-66 49 -144 49q-95 0 -141 -69q-30 -45 -48 -146l-20 -113h227l-30 -171h-227l-110 -625q-56 -321 -120 -457q-101 -212 -358 -212
q-115 0 -192 36l37 142q67 -30 131 -30q75 0 112 47q40 52 67 172q18 80 43 223z" />
    <glyph glyph-name="ffi" unicode="ffi" horiz-adv-x="2000" vert-adv-y="2457" 
d="M242 812h-160l30 171h160l20 111q32 185 113 270q105 110 313 110q108 0 229 -24l-55 -188q-66 49 -144 49q-95 0 -141 -69q-30 -45 -48 -146l-20 -113h177l-30 -171h-177l-109 -625q-56 -320 -122 -457q-100 -212 -357 -212q-115 0 -192 36l37 142q67 -30 131 -30
q75 0 111 47q41 53 68 172q18 85 43 223zM914 812h-149l30 171h149l20 111q32 185 112 270q105 110 311 110q92 0 197 -23l-54 -188q-50 48 -113 48q-92 0 -138 -69q-30 -44 -48 -146l-20 -113h210l-31 -171h-209l-110 -625q-56 -320 -121 -457q-101 -212 -357 -212
q-114 0 -192 36l37 142q67 -30 131 -30q75 0 111 47q41 52 67 172q19 82 43 223zM1467 815l21 121q240 23 411 72q-7 -205 -101 -667q-26 -126 -26 -169q0 -48 57 -48q44 0 98 29l41 -138q-110 -40 -239 -40q-120 0 -172 42q-52 41 -52 128q0 61 51 322q43 215 43 279
q0 47 -22 62q-15 10 -55 10q-21 0 -55 -3zM1796 1447q66 0 112 -47t46 -113q0 -65 -46 -112t-114 -47q-69 0 -115 47t-46 112q0 67 46 113q47 47 117 47z" />
    <glyph glyph-name="ffl" unicode="ffl" horiz-adv-x="1971" vert-adv-y="2457" 
d="M242 812h-160l30 171h160l20 111q32 185 113 270q105 110 313 110q108 0 229 -24l-55 -188q-66 49 -144 49q-95 0 -141 -69q-30 -45 -48 -146l-20 -113h177l-30 -171h-177l-109 -625q-56 -320 -122 -457q-100 -212 -357 -212q-115 0 -192 36l37 142q67 -30 131 -30
q75 0 111 47q41 53 68 172q18 85 43 223zM909 812h-150l31 171h149l21 123q31 174 127 261q117 107 344 107q127 0 292 -32l244 52l-200 -1131q-22 -126 -22 -184q0 -55 60 -55q51 0 115 32l38 -133q-111 -48 -251 -48q-119 0 -172 42q-57 44 -57 135q0 83 27 235l154 876
q-105 50 -213 50q-116 0 -167 -67q-36 -46 -53 -145l-20 -118h237l-31 -171h-237l-109 -625q-56 -321 -121 -457q-101 -212 -357 -212q-115 0 -192 36l37 142q65 -30 131 -30q75 0 111 47q41 52 67 172q18 79 43 223z" />
    <glyph glyph-name="f_t" unicode="ft" horiz-adv-x="1424" vert-adv-y="2457" 
d="M242 812h-160l30 171h160l20 111q32 185 113 270q105 110 313 110q108 0 229 -24l-55 -188q-66 49 -144 49q-95 0 -141 -69q-30 -45 -48 -146l-20 -113h177l-30 -171h-177l-109 -625q-56 -320 -122 -457q-100 -212 -357 -212q-115 0 -192 36l37 142q67 -30 131 -30
q75 0 111 47q41 53 68 172q18 85 43 223zM892 812h-135l30 171h18q121 0 184 95q53 80 106 254h156l-62 -349h287l-30 -171h-287l-76 -435q-18 -102 -18 -160q0 -95 91 -95q78 0 161 36l26 -139q-140 -46 -295 -46q-136 0 -199 52q-57 47 -57 151q0 64 23 195z" />
    <glyph glyph-name="f_f_t" unicode="fft" horiz-adv-x="2096" vert-adv-y="2457" 
d="M242 812h-160l30 171h160l20 111q32 185 113 270q105 110 313 110q108 0 229 -24l-55 -188q-66 49 -144 49q-95 0 -141 -69q-30 -45 -48 -146l-20 -113h177l-30 -171h-177l-109 -625q-56 -320 -122 -457q-100 -212 -357 -212q-115 0 -192 36l37 142q67 -30 131 -30
q75 0 111 47q41 53 68 172q18 85 43 223zM914 812h-150l31 171h149l20 111q32 185 112 270q105 110 314 110q108 0 228 -24l-54 -188q-67 49 -145 49q-94 0 -140 -69q-31 -45 -48 -146l-20 -113h177l-30 -171h-177l-110 -625q-56 -321 -121 -457q-101 -212 -357 -212
q-115 0 -192 36l37 142q67 -30 131 -30q75 0 111 47q41 52 67 172q19 81 43 223zM1564 812h-136l31 171h18q121 0 184 95q52 80 106 254h156l-62 -349h287l-30 -171h-287l-76 -435q-18 -101 -18 -160q0 -95 91 -95q78 0 161 36l26 -139q-141 -46 -295 -46q-135 0 -199 52
q-57 46 -57 151q0 66 23 195z" />
    <glyph glyph-name="f_f_f" unicode="fff" horiz-adv-x="2064" vert-adv-y="2457" 
d="M242 812h-160l30 171h160l20 111q32 185 113 270q105 110 313 110q108 0 229 -24l-55 -188q-66 49 -144 49q-95 0 -141 -69q-30 -45 -48 -146l-20 -113h177l-30 -171h-177l-109 -625q-56 -320 -122 -457q-100 -212 -357 -212q-115 0 -192 36l37 142q67 -30 131 -30
q75 0 111 47q41 53 68 172q18 85 43 223zM914 812h-149l30 171h149l20 111q32 185 112 270q106 110 314 110q108 0 228 -24l-54 -188q-67 49 -144 49q-95 0 -141 -69q-30 -45 -48 -146l-20 -113h177l-30 -171h-177l-110 -625q-56 -321 -121 -457q-101 -212 -357 -212
q-115 0 -192 36l37 142q67 -30 131 -30q75 0 111 47q41 52 68 172q18 81 43 223zM1587 812h-149l30 171h149l20 111q32 185 113 270q105 110 313 110q108 0 229 -24l-55 -188q-66 49 -144 49q-95 0 -141 -69q-30 -45 -48 -146l-20 -113h227l-30 -171h-227l-109 -625
q-56 -320 -122 -457q-100 -212 -357 -212q-115 0 -192 36l37 142q67 -30 131 -30q75 0 111 47q41 53 68 172q18 85 43 223z" />
    <glyph glyph-name=".notdef" horiz-adv-x="1709" vert-adv-y="2457" 
d="M982 405h-151v66q0 84 -15 122q-16 42 -56 84q-20 21 -78 80q-89 88 -135 159q-64 96 -64 207q0 88 42 162q87 153 361 153q152 0 313 -45l-29 -154q-148 70 -267 70q-231 0 -231 -190q0 -94 57 -180q30 -47 136 -159q81 -86 101 -141q16 -46 16 -138v-96zM904 234
q58 0 97 -45q33 -37 33 -85q0 -56 -42 -95q-38 -35 -90 -35q-61 0 -100 45q-32 37 -32 86q0 54 42 94q37 35 92 35zM123 -459v2196h1464v-2196h-1464zM246 -336h1218v1950h-1218v-1950z" />
    <glyph glyph-name="glyph1" horiz-adv-x="0" vert-adv-y="0" 
 />
    <glyph glyph-name="glyph2" horiz-adv-x="1709" vert-adv-y="2457" 
 />
    <glyph glyph-name="space" unicode=" " horiz-adv-x="492" vert-adv-y="2457" 
 />
    <glyph glyph-name="exclam" unicode="!" horiz-adv-x="733" vert-adv-y="2457" 
d="M241 441l133 972h310l-209 -972h-234zM307 308q77 0 129 -58q43 -49 43 -110q0 -73 -56 -124q-49 -45 -119 -45q-81 0 -132 58q-43 49 -43 112q0 70 56 122q49 45 122 45z" />
    <glyph glyph-name="quotedbl" unicode="&#x22;" horiz-adv-x="905" vert-adv-y="2457" 
d="M199 833l72 580h283l-133 -580h-222zM605 833l72 580h282l-133 -580h-221z" />
    <glyph glyph-name="numbersign" unicode="#" vert-adv-y="2457" 
d="M283 584l40 227h-161l27 154h161l64 364h237l-64 -364h175l64 364h236l-65 -364h161l-28 -154h-160l-40 -227h161l-28 -154h-160l-62 -348h-235l62 348h-176l-61 -348h-237l61 348h-160l27 154h161zM519 584h176l40 227h-176z" />
    <glyph glyph-name="dollar" unicode="$" vert-adv-y="2457" 
d="M474 151l83 472q-172 77 -223 116q-77 59 -110 123q-32 60 -32 142q0 145 84 254q97 124 265 156q65 13 159 18l32 183h139l-32 -184q183 -11 331 -44l-61 -322h-161q2 31 2 52q0 92 -51 119q-33 18 -91 23l-78 -443q12 -6 133 -61q224 -103 224 -328q0 -147 -78 -254
q-65 -90 -184 -141q-84 -36 -242 -48l-33 -192h-139l33 188q-272 8 -435 49l65 339h160q-3 -28 -3 -49q0 -75 23 -109q31 -44 121 -53q39 -4 99 -6zM602 878l66 377q-70 -12 -111 -41q-87 -62 -87 -166q0 -71 57 -119q27 -23 75 -51zM685 562l-70 -399q76 17 121 57
q73 66 73 168q0 80 -57 130q-19 17 -67 44z" />
    <glyph glyph-name="percent" unicode="%" horiz-adv-x="1914" vert-adv-y="2457" 
d="M613 1442q171 0 255 -97q68 -78 68 -205q0 -181 -91 -305q-111 -151 -327 -151q-148 0 -233 68q-99 78 -99 234q0 104 39 205q99 251 388 251zM605 1311q-81 0 -130 -123q-44 -113 -44 -234q0 -139 87 -139q80 0 129 123q44 112 44 236q0 137 -86 137zM452 0l854 1413
h232l-855 -1413h-231zM1475 728q170 0 254 -96q68 -79 68 -206q0 -181 -91 -305q-111 -151 -327 -151q-148 0 -233 68q-99 79 -99 235q0 103 39 203q99 252 389 252zM1466 597q-81 0 -130 -123q-44 -113 -44 -234q0 -139 88 -139q79 0 128 123q44 113 44 235q0 138 -86 138z
" />
    <glyph glyph-name="ampersand" unicode="&#x26;" horiz-adv-x="1528" vert-adv-y="2457" 
d="M452 788q-75 146 -75 272q0 180 126 289q109 93 289 93q183 0 282 -86q82 -72 82 -198q0 -169 -137 -284q-67 -56 -234 -134l228 -349q46 54 75 106q53 96 53 144q0 26 -27 38q-15 6 -48 14l21 117q156 -8 233 -8q78 0 233 8l-21 -121q-77 -11 -110 -29
q-43 -24 -110 -122q-135 -196 -211 -275l204 -263h-340l-63 98q-80 -49 -132 -72q-130 -56 -284 -56q-196 0 -306 90q-109 91 -109 250q0 201 144 332q89 81 237 146zM696 877q88 47 131 92q84 87 84 208q0 126 -114 126q-79 0 -124 -64q-44 -62 -44 -153q0 -75 33 -144
q10 -20 34 -65zM545 645q-75 -46 -116 -95q-74 -89 -74 -227q0 -102 49 -152q50 -51 137 -51q93 0 187 51q33 17 90 53z" />
    <glyph glyph-name="quotesingle" unicode="'" horiz-adv-x="449" vert-adv-y="2457" 
d="M174 833l72 580h283l-133 -580h-222z" />
    <glyph glyph-name="parenleft" unicode="(" horiz-adv-x="867" vert-adv-y="2457" 
d="M583 -332l-146 -93q-208 301 -208 722q0 313 113 629q141 397 427 679l138 -95q-174 -242 -285 -562q-75 -216 -109 -483q-16 -127 -16 -242q0 -314 86 -555z" />
    <glyph glyph-name="parenright" unicode=")" horiz-adv-x="866" vert-adv-y="2457" 
d="M326 1512l146 93q208 -302 208 -720q0 -315 -113 -631q-140 -394 -427 -679l-138 96q130 180 224 403q93 220 137 441q49 243 49 448q0 308 -86 549z" />
    <glyph glyph-name="asterisk" unicode="*" horiz-adv-x="1142" vert-adv-y="2457" 
d="M601 1300l35 312l264 -46l-73 -306l313 55l24 -218l-327 -13l164 -294l-223 -104l-117 301l-211 -243l-175 174l256 220l-304 124l97 196z" />
    <glyph glyph-name="plus" unicode="+" vert-adv-y="2457" 
d="M139 621l49 180h347l68 386h225l-68 -386h357l-49 -180h-340l-68 -384h-224l67 384h-364z" />
    <glyph glyph-name="comma" unicode="," horiz-adv-x="561" vert-adv-y="2457" 
d="M171 -5q-87 53 -87 143q0 74 56 125q49 45 122 45q83 0 132 -57q40 -46 40 -111q0 -102 -92 -222q-84 -110 -173 -194q-21 -19 -98 -85h-153q104 117 139 165q63 85 114 191z" />
    <glyph glyph-name="hyphen" unicode="-" horiz-adv-x="833" vert-adv-y="2457" 
d="M127 543l34 194h596l-34 -194h-596z" />
    <glyph glyph-name="period" unicode="." horiz-adv-x="561" vert-adv-y="2457" 
d="M262 308q77 0 129 -58q43 -49 43 -110q0 -73 -56 -124q-49 -45 -119 -45q-81 0 -132 58q-43 49 -43 112q0 70 56 122q49 45 122 45z" />
    <glyph glyph-name="slash" unicode="/" horiz-adv-x="980" vert-adv-y="2457" 
d="M-53 0l881 1413h280l-881 -1413h-280z" />
    <glyph glyph-name="zero" unicode="0" vert-adv-y="2457" 
d="M735 1440q138 0 242 -58q179 -101 179 -396q0 -206 -60 -452q-71 -293 -201 -423q-140 -140 -368 -140q-428 0 -428 455q0 222 70 484q83 313 240 431q131 99 326 99zM725 1271q-108 0 -181 -132q-65 -118 -114 -383q-46 -252 -46 -387q0 -229 146 -229q108 0 181 132
q64 115 114 384q46 248 46 394q0 221 -146 221z" />
    <glyph glyph-name="one" unicode="1" vert-adv-y="2457" 
d="M83 -4l21 119q144 12 199 19q93 13 125 78q31 61 45 137l152 870l-325 -76l30 170l413 108h194l-181 -1027q-17 -96 -17 -143q0 -71 30 -92q30 -22 139 -34q37 -4 112 -10l-21 -119q-305 8 -458 8t-458 -8z" />
    <glyph glyph-name="two" unicode="2" vert-adv-y="2457" 
d="M-11 0l28 160l492 490q165 165 225 277q52 96 52 191q0 152 -160 152q-115 0 -168 -78q-31 -46 -51 -129h-167l53 328q182 49 341 49q217 0 327 -84q45 -35 73 -92q37 -74 37 -157q0 -149 -110 -303q-76 -105 -261 -281l-371 -352h285q85 0 119 13q49 19 77 100
q9 24 28 94h165l-71 -378h-943z" />
    <glyph glyph-name="three" unicode="3" vert-adv-y="2457" 
d="M32 -30l16 170q330 12 469 66q218 85 218 282q0 101 -79 140q-60 29 -192 29q-55 0 -137 -6l32 177q57 -7 105 -7q161 0 245 78q85 81 85 223q0 149 -177 149q-124 0 -174 -76q-26 -39 -47 -110h-167l50 306q193 49 360 49q435 0 435 -308q0 -153 -97 -256
q-56 -60 -184 -117q94 -36 138 -74q89 -77 89 -218q0 -151 -116 -268q-145 -148 -474 -198q-137 -21 -398 -31z" />
    <glyph glyph-name="four" unicode="4" vert-adv-y="2457" 
d="M653 371h-611l31 175l531 867h258l-533 -871h354l76 433h252l-76 -433h179l-31 -171h-178l-9 -50q-12 -70 -12 -125q0 -51 38 -64q15 -5 79 -17l-22 -119q-190 8 -285 8q-97 0 -288 -8l21 119q29 4 43 6q74 9 97 22q51 27 77 178z" />
    <glyph glyph-name="five" unicode="5" vert-adv-y="2457" 
d="M70 -31l16 171q183 10 274 26q227 42 326 163q75 93 75 223q0 97 -55 140q-49 39 -151 39q-74 0 -203 -37l-142 22l151 697h753l-46 -180h-499l-77 -349q113 11 166 11q183 0 280 -79q108 -88 108 -263q0 -180 -110 -312q-146 -175 -494 -236q-129 -22 -372 -36z" />
    <glyph glyph-name="six" unicode="6" vert-adv-y="2457" 
d="M1042 1441l-24 -171q-226 -24 -364 -131q-150 -117 -223 -354q57 58 100 86q94 59 211 59q162 0 256 -95q97 -98 97 -268q0 -116 -41 -236q-58 -172 -192 -268q-129 -92 -321 -92q-213 0 -333 110q-114 105 -114 314q0 260 101 497q138 326 443 457q156 66 404 92z
M657 767q-137 0 -218 -149q-66 -122 -66 -278q0 -206 161 -206q142 0 218 165q58 127 58 267q0 88 -36 142q-40 59 -117 59z" />
    <glyph glyph-name="seven" unicode="7" vert-adv-y="2457" 
d="M179 0l754 1237h-343q-114 0 -151 -41q-18 -20 -42 -86q-14 -40 -17 -50h-164l67 353h955l-20 -113l-746 -1300h-293z" />
    <glyph glyph-name="eight" unicode="8" vert-adv-y="2457" 
d="M362 745q-55 39 -84 71q-73 84 -73 203q0 117 67 216q139 205 457 205q218 0 338 -101q106 -89 106 -237q0 -161 -112 -266q-56 -51 -162 -100q78 -36 119 -73q98 -88 98 -246q0 -197 -145 -320q-148 -126 -443 -126q-248 0 -378 95q-118 86 -118 256q0 122 60 224
q61 106 177 162q34 16 93 37zM731 1276q-131 0 -195 -100q-52 -81 -52 -197q0 -68 39 -110q43 -46 127 -46q128 0 194 101q50 77 50 188q0 164 -163 164zM621 652q-163 0 -240 -107q-64 -88 -64 -225q0 -98 64 -144q56 -41 147 -41q159 0 239 111q64 89 64 227q0 90 -55 133
q-58 46 -155 46z" />
    <glyph glyph-name="nine" unicode="9" vert-adv-y="2457" 
d="M134 -29l16 170q180 17 269 46q200 64 314 249q49 79 91 210q-59 -52 -98 -73q-91 -50 -200 -50q-157 0 -252 76q-111 89 -111 276q0 128 49 249q61 152 192 236q125 80 310 80q211 0 329 -106q114 -102 114 -314q0 -251 -97 -486q-137 -335 -436 -460q-151 -64 -365 -90
q-49 -6 -125 -13zM715 1277q-137 0 -209 -147q-58 -117 -58 -251q0 -193 159 -193q131 0 209 138q63 111 63 257q0 196 -164 196z" />
    <glyph glyph-name="colon" unicode=":" horiz-adv-x="561" vert-adv-y="2457" 
d="M303 308q77 0 129 -58q43 -49 43 -110q0 -73 -56 -124q-49 -45 -119 -45q-81 0 -132 58q-43 49 -43 112q0 70 56 122q49 45 122 45zM427 1012q77 0 129 -58q43 -49 43 -111q0 -72 -56 -123q-49 -45 -119 -45q-80 0 -132 58q-43 49 -43 112q0 70 56 122q49 45 122 45z" />
    <glyph glyph-name="semicolon" unicode=";" horiz-adv-x="562" vert-adv-y="2457" 
d="M212 -5q-87 53 -87 143q0 74 56 125q49 45 122 45q83 0 132 -57q40 -46 40 -111q0 -102 -92 -222q-84 -110 -173 -194q-21 -19 -98 -85h-153q104 117 139 165q63 85 114 191zM448 1012q77 0 129 -58q43 -49 43 -111q0 -72 -56 -123q-49 -45 -119 -45q-80 0 -132 58
q-43 49 -43 112q0 70 56 122q49 45 122 45z" />
    <glyph glyph-name="less" unicode="&#x3c;" vert-adv-y="2457" 
d="M455 692l562 -281l-40 -220l-810 466l15 88l977 475l-42 -236z" />
    <glyph glyph-name="equal" unicode="=" vert-adv-y="2457" 
d="M105 419l49 180h927l-49 -180h-927zM176 823l49 180h928l-49 -180h-928z" />
    <glyph glyph-name="greater" unicode="&#x3e;" vert-adv-y="2457" 
d="M798 719l-561 281l39 220l811 -466l-16 -88l-976 -475l42 236z" />
    <glyph glyph-name="question" unicode="?" horiz-adv-x="936" vert-adv-y="2457" 
d="M529 439h-249l11 65q17 96 39 140q27 55 145 160q141 126 181 192q46 76 46 150q0 131 -154 131q-121 0 -303 -79l7 190q165 52 347 52q198 0 296 -78q92 -74 92 -206q0 -133 -85 -247q-48 -64 -179 -177q-121 -104 -145 -135q-29 -40 -42 -118zM361 308q77 0 129 -58
q43 -49 43 -110q0 -73 -56 -124q-49 -45 -119 -45q-81 0 -132 58q-43 49 -43 112q0 70 56 122q49 45 122 45z" />
    <glyph glyph-name="at" unicode="@" horiz-adv-x="1757" vert-adv-y="2457" 
d="M1142 946h164l-89 -426q-15 -69 -15 -114q0 -79 62 -79q76 0 143 77q97 113 97 301q0 235 -133 375q-70 74 -175 114q-128 49 -270 49q-275 0 -445 -183q-180 -193 -180 -531q0 -320 159 -467q167 -155 518 -155q272 0 555 73l-8 -114q-261 -65 -557 -65q-842 0 -842 722
q0 379 223 605q217 220 575 220q246 0 437 -104q180 -98 259 -279q52 -118 52 -258q0 -196 -94 -332q-126 -183 -341 -183q-112 0 -162 60q-25 29 -40 76q-36 -41 -67 -65q-87 -71 -196 -71q-106 0 -174 58q-78 67 -78 202q0 127 53 245q66 147 174 214q87 55 188 55
q124 0 186 -92zM954 830q-86 0 -153 -139q-54 -114 -54 -236q0 -120 71 -120q86 0 158 127q71 124 71 243q0 54 -21 87q-26 38 -72 38z" />
    <glyph glyph-name="A" unicode="A" horiz-adv-x="1428" vert-adv-y="2457" 
d="M932 384h-526l-54 -105q-35 -69 -35 -109q0 -28 27 -39q14 -6 58 -16l-21 -119q-168 8 -251 8q-85 0 -253 -8l21 119q98 17 129 44q34 30 102 157l613 1097h262l216 -1097q17 -90 29 -120q18 -48 61 -64q24 -8 72 -17l-21 -119q-180 8 -270 8t-271 -8l21 119q65 15 82 26
q31 21 31 71q0 39 -7 83zM903 555l-99 587l-309 -587h408z" />
    <glyph glyph-name="B" unicode="B" horiz-adv-x="1294" vert-adv-y="2457" 
d="M-45 -4l21 119q23 5 35 7q57 10 78 27q40 32 69 200l126 716q16 91 16 147q0 46 -27 62q-14 9 -89 24l22 119q168 -4 308 -4h272q264 0 373 -67q123 -76 123 -243q0 -181 -140 -288q-59 -45 -166 -76q99 -38 144 -79q82 -75 82 -216q0 -134 -70 -239q-75 -115 -212 -162
q-124 -43 -317 -43h-281q-208 0 -367 -4zM519 825h153q110 0 164 13q82 20 122 95q37 71 37 158q0 91 -53 125q-43 26 -157 26h-193zM404 171h169q180 0 251 64q48 44 70 124q17 58 17 118q0 118 -83 152q-59 25 -219 25h-120z" />
    <glyph glyph-name="C" unicode="C" horiz-adv-x="1186" vert-adv-y="2457" 
d="M935 361h161l-55 -339q-172 -48 -355 -48q-273 0 -416 112q-79 62 -119 159q-51 124 -51 269q0 255 102 487q101 230 276 340q157 99 397 99q180 0 385 -46l-64 -332h-166q2 29 2 48q0 66 -19 98q-35 61 -152 61q-231 0 -362 -280q-50 -106 -81 -254q-27 -134 -27 -249
q0 -175 74 -258q67 -75 211 -75q151 0 205 83q28 43 54 125z" />
    <glyph glyph-name="D" unicode="D" horiz-adv-x="1354" vert-adv-y="2457" 
d="M-45 -4l21 119q23 4 35 7q57 10 78 26q40 33 69 200l126 717q16 91 16 147q0 46 -27 63q-14 9 -89 23l22 119q140 -4 277 -4h245q300 0 437 -115q160 -134 160 -436q0 -184 -59 -365q-91 -278 -293 -399q-163 -98 -428 -98h-270q-161 0 -320 -4zM410 176h95q159 0 251 51
q133 74 209 275q69 181 69 371q0 217 -99 303q-51 44 -143 56q-41 5 -124 5h-71z" />
    <glyph glyph-name="E" unicode="E" vert-adv-y="2457" 
d="M-45 -4l21 119q23 4 35 7q57 10 78 26q40 33 69 201l121 689q21 118 21 173q0 51 -35 67q-20 9 -81 20l22 119q192 -4 271 -4h816l-57 -353h-165q4 35 4 62q0 72 -26 92q-31 23 -128 23h-324l-76 -432h157q86 0 115 29q26 26 41 103h148q-44 -213 -77 -433h-147
q8 46 8 76q0 54 -34 68q-25 10 -96 10h-141l-61 -345q-11 -61 -11 -80q0 -32 22 -45q19 -12 87 -12h197q136 0 173 41q23 26 59 144h165l-69 -361h-779q-32 0 -199 -3q-41 0 -124 -1z" />
    <glyph glyph-name="F" unicode="F" horiz-adv-x="1112" vert-adv-y="2457" 
d="M-45 -4l21 119q23 4 35 6q57 10 78 27q40 33 69 200l126 717q16 92 16 147q0 49 -32 65q-15 7 -84 21l22 119q194 -4 316 -4h734l-58 -353h-165q4 34 4 62q0 72 -26 92q-31 23 -128 23h-286l-80 -451h158q86 0 114 29q28 27 41 103h148q-44 -213 -76 -433h-148q8 49 8 77
q0 54 -35 68q-24 9 -97 9h-139l-51 -291q-12 -71 -12 -128q0 -52 21 -69q18 -15 65 -23q14 -3 86 -13l-21 -119q-209 8 -314 8q-102 0 -310 -8z" />
    <glyph glyph-name="G" unicode="G" horiz-adv-x="1332" vert-adv-y="2457" 
d="M764 620l21 119q190 -8 287 -8q93 0 282 8l-21 -119q-18 -4 -27 -7q-47 -10 -64 -27q-32 -34 -61 -200l-62 -350q-196 -63 -423 -63q-595 0 -595 537q0 234 81 445q103 265 298 387q158 98 399 98q219 0 450 -58l-62 -328h-165v15q1 18 1 23q0 86 -35 125q-48 52 -176 52
q-158 0 -254 -83q-123 -106 -191 -345q-55 -195 -55 -365q0 -161 73 -249q67 -83 230 -83q77 0 179 29l38 213q12 71 12 135q0 47 -20 63q-19 16 -63 24q-5 1 -77 12z" />
    <glyph glyph-name="H" unicode="H" horiz-adv-x="1453" vert-adv-y="2457" 
d="M-45 -4l21 119q23 5 35 7q57 10 78 27q40 32 69 200l126 715q16 91 16 148q0 46 -27 62q-15 9 -89 24l22 119q187 -8 281 -8t282 8l-21 -119q-23 -4 -35 -7q-51 -9 -72 -22.5t-35 -47.5q-22 -53 -40 -157l-42 -239h521l42 239q16 91 16 148q0 46 -27 62q-14 9 -89 24
l21 119q188 -8 282 -8t282 8l-21 -119q-23 -4 -34 -7q-57 -10 -78 -27q-40 -31 -70 -200l-126 -715q-15 -88 -15 -148q0 -46 27 -62q14 -9 88 -24l-21 -119q-188 8 -282 8t-282 -8l21 119q23 5 35 7q57 10 77 27q41 32 70 200l53 300h-521l-53 -300q-16 -94 -16 -147
q0 -47 27 -63q13 -8 89 -24l-21 -119q-188 8 -282 8t-282 -8z" />
    <glyph glyph-name="I" unicode="I" horiz-adv-x="650" vert-adv-y="2457" 
d="M-45 -4l21 119q23 5 35 7q57 10 78 27q40 32 69 200l126 715q16 91 16 148q0 46 -27 62q-15 9 -89 24l22 119q187 -8 281 -8t282 8l-21 -119q-23 -4 -35 -7q-51 -9 -72 -22.5t-35 -47.5q-22 -53 -40 -157l-126 -715q-16 -94 -16 -147q0 -47 27 -63q13 -8 89 -24l-21 -119
q-188 8 -282 8t-282 -8z" />
    <glyph glyph-name="J" unicode="J" horiz-adv-x="667" vert-adv-y="2457" 
d="M176 1298l21 119q197 -8 297 -8q98 0 295 8l-21 -119q-23 -4 -35 -7q-57 -10 -78 -27q-40 -32 -69 -200l-147 -835q-39 -220 -64 -305q-59 -204 -186 -301q-125 -95 -331 -95q-103 0 -219 19l45 180q88 -28 167 -28q143 0 209 146q47 105 94 370l150 849q14 81 14 140
q0 55 -39 72q-16 8 -103 22z" />
    <glyph glyph-name="K" unicode="K" horiz-adv-x="1352" vert-adv-y="2457" 
d="M-45 -4l21 119q23 5 35 7q57 10 78 27q40 32 69 200l126 715q16 91 16 148q0 46 -27 62q-13 9 -89 24l22 119q187 -8 281 -8t282 8l-21 -119q-23 -5 -35 -7q-51 -9 -72 -22.5t-35 -48.5q-22 -52 -40 -156l-42 -240h15q116 0 189 53q94 68 251 244q81 91 81 138
q0 24 -29 32q-14 5 -53 12l21 114q146 -6 216 -6q77 0 224 6q-13 -81 -24 -114q-24 -66 -255 -292q-154 -152 -290 -262q53 -52 101 -168l106 -259q50 -122 71 -153q32 -50 83 -50q27 0 65 9l38 -126q-102 -30 -228 -30q-108 0 -165 40q-60 41 -103 141q-10 22 -48 128
l-96 244q-32 82 -60 110q-38 38 -99 38h-38l-57 -324q-16 -94 -16 -147q0 -47 27 -63q13 -8 89 -24l-21 -119q-188 8 -282 8t-282 -8z" />
    <glyph glyph-name="L" unicode="L" horiz-adv-x="1078" vert-adv-y="2457" 
d="M-45 -4l21 119q23 4 35 7q57 10 78 26q40 33 69 201l126 716q16 90 16 147q0 46 -27 63q-15 9 -89 23l22 119q187 -8 281 -8t282 8l-21 -119q-23 -4 -35 -6q-51 -9 -72 -23t-35 -48q-22 -54 -40 -156l-128 -731q-14 -87 -14 -101q0 -31 19 -44q18 -13 66 -13h125
q93 0 134 13q51 16 74 77q10 27 31 95h165l-69 -361h-709q-179 0 -305 -4z" />
    <glyph glyph-name="M" unicode="M" horiz-adv-x="1900" vert-adv-y="2457" 
d="M-67 -4l21 119q93 16 120 39q40 35 75 163l189 689q46 167 46 218q0 38 -34 55q-17 8 -73 19l22 119q204 -7 304 -7q70 0 205 3l72 -738q11 -108 17 -381q106 261 160 377l341 742q142 -3 218 -3q101 0 315 7l-21 -119q-76 -14 -96 -26q-38 -22 -53 -97q-9 -44 -15 -126
l-55 -716q-6 -75 -6 -97q0 -80 44 -101q19 -8 83 -20l-21 -119q-184 8 -275 8q-92 0 -276 -8l21 119q68 11 89 22q43 20 58 96q8 42 14 108l36 463q3 37 28 268l12 105q-137 -333 -227 -523l-309 -654h-249l-69 605q-21 187 -29 362q-6 152 -9 210q-34 -131 -50 -192
q-39 -159 -45 -181l-120 -445q-34 -125 -34 -172q0 -36 34 -52q19 -8 80 -20l-21 -119q-173 8 -258 8q-87 0 -259 -8z" />
    <glyph glyph-name="N" unicode="N" horiz-adv-x="1450" vert-adv-y="2457" 
d="M-45 -4l21 119q23 5 35 7q57 10 78 27q40 32 69 199l127 720q15 87 15 144q0 46 -27 62q-15 9 -89 24l22 119q177 -8 265 -8q63 0 189 4l219 -610q48 -134 93 -306q31 -118 46 -170q26 191 52 338l70 401q15 88 15 146q0 46 -27 62q-15 9 -88 24l21 119q171 -8 256 -8
t255 8l-21 -119q-23 -4 -35 -7q-57 -10 -78 -27q-40 -32 -69 -198l-188 -1066l-281 -11l-264 730q-5 13 -68 233q-34 125 -50 181q-31 -212 -57 -361l-74 -423q-14 -81 -14 -148q0 -46 27 -62q12 -8 87 -24l-21 -119q-170 8 -255 8q-86 0 -256 -8z" />
    <glyph glyph-name="O" unicode="O" horiz-adv-x="1399" vert-adv-y="2457" 
d="M840 1440q170 0 297 -69q131 -70 189 -215q47 -119 47 -265q0 -176 -55 -362q-81 -279 -258 -422q-168 -134 -416 -134q-266 0 -405 138q-138 138 -138 410q0 181 53 363q164 556 686 556zM842 1269q-223 0 -345 -273q-45 -100 -75 -248t-30 -271q0 -154 61 -245
q59 -88 185 -88q217 0 339 274q44 98 75 248q30 147 30 267q0 137 -52 231q-59 105 -188 105z" />
    <glyph glyph-name="P" unicode="P" horiz-adv-x="1195" vert-adv-y="2457" 
d="M473 536l-33 -188q-14 -81 -14 -140q0 -53 35 -70q12 -6 106 -23l-21 -119q-197 8 -296 8q-98 0 -295 -8l21 119q23 4 35 7q57 10 78 26q40 33 68 197l128 722q15 88 15 145q0 46 -27 62q-13 9 -89 24l22 119q128 -4 351 -4h145q277 0 389 -74q146 -95 146 -302
q0 -140 -55 -251q-78 -157 -242 -210q-125 -40 -304 -40h-163zM503 707h123q110 0 169 28q75 35 114 124q37 87 37 184q0 111 -61 158q-52 41 -175 41h-113z" />
    <glyph glyph-name="Q" unicode="Q" horiz-adv-x="1399" vert-adv-y="2457" 
d="M454 -297l-108 76q74 101 116 143q40 41 82 57q-443 58 -443 541q0 183 53 364q82 278 259 420q168 136 419 136q268 0 406 -144q68 -71 102 -180q33 -108 33 -225q0 -235 -88 -461q-115 -297 -359 -403q-98 -43 -236 -53q41 -14 252 -109q155 -71 203 -90
q100 -40 140 -40q39 0 76 43q11 12 34 46l112 -70q-68 -105 -117 -158q-71 -74 -150 -74q-61 0 -166 45q-26 11 -190 85q-180 83 -216 97q-68 26 -105 26q-41 0 -79 -38q-8 -8 -30 -34zM842 1269q-223 0 -345 -274q-45 -100 -75 -247q-30 -149 -30 -272q0 -153 61 -245
q59 -88 185 -88q217 0 339 274q44 98 75 248q30 147 30 268q0 137 -52 231q-59 105 -188 105z" />
    <glyph glyph-name="R" unicode="R" horiz-adv-x="1244" vert-adv-y="2457" 
d="M483 590l-43 -242q-16 -93 -16 -146q0 -47 27 -64q13 -7 89 -23l-21 -119q-188 8 -282 8t-282 -8l21 119q23 4 35 7q57 10 78 26q40 33 69 197l123 701q19 110 19 167q0 45 -25 61q-12 8 -85 24l21 119q134 -4 336 -4h178q271 0 386 -70q150 -91 150 -286
q0 -184 -119 -296q-59 -55 -153 -92q-23 -8 -68 -23q43 -44 63 -89q26 -55 49 -144l25 -100q29 -110 53 -150q26 -44 71 -44q32 0 66 9l37 -127q-103 -29 -231 -29q-103 0 -152 40q-51 41 -84 143q-11 35 -35 129l-18 74q-31 122 -55 176q-17 37 -43 48q-21 8 -52 8h-132z
M508 733h168q157 0 224 90q70 94 70 239q0 105 -63 148q-48 32 -172 32h-138z" />
    <glyph glyph-name="S" unicode="S" horiz-adv-x="1066" vert-adv-y="2457" 
d="M-20 22l65 339h160q-2 -26 -2 -40q0 -92 29 -129q39 -48 188 -48q153 0 220 62q71 66 71 179q0 68 -35 109q-27 31 -68 54q-40 23 -107 57q-170 85 -246 170q-82 93 -82 229q0 202 134 321q69 61 159 88t222 27q190 0 388 -46l-62 -322h-161q1 22 1 39q0 69 -17 103
q-28 55 -142 55q-119 0 -181 -60q-63 -60 -63 -157q0 -72 51 -120q43 -41 172 -107q172 -89 232 -154q83 -91 83 -245q0 -209 -135 -329q-77 -69 -186 -98q-97 -26 -253 -26q-248 0 -435 49z" />
    <glyph glyph-name="T" unicode="T" horiz-adv-x="1270" vert-adv-y="2457" 
d="M184 -4l21 119q34 5 52 7q91 10 120 25q61 30 91 202l158 896h-117q-120 0 -156 -44q-24 -29 -61 -148h-156l69 360h1185l-59 -360h-157q2 40 2 68q0 77 -28 98q-34 26 -141 26h-99l-154 -876q-15 -85 -15 -139q0 -77 56 -94q35 -10 136 -21l-21 -119q-242 8 -363 8
t-363 -8z" />
    <glyph glyph-name="U" unicode="U" horiz-adv-x="1405" vert-adv-y="2457" 
d="M177 1298l21 119q188 -8 282 -8t281 8l-21 -119q-23 -4 -34 -7q-57 -10 -78 -27q-40 -32 -70 -200l-91 -519q-23 -131 -23 -204q0 -199 226 -199q187 0 265 135q38 66 68 237l97 550q16 91 16 148q0 46 -27 62q-14 9 -88 24l21 119q170 -8 255 -8q86 0 256 8l-21 -119
q-23 -4 -34 -7q-57 -10 -78 -27q-40 -32 -70 -200l-100 -572q-25 -138 -40 -185q-57 -181 -195 -261q-129 -75 -340 -75q-263 0 -392 113q-99 87 -99 247q0 95 29 258l83 475q16 89 16 148q0 46 -27 62q-14 9 -88 24z" />
    <glyph glyph-name="V" unicode="V" horiz-adv-x="1274" vert-adv-y="2457" 
d="M423 0l-175 1097q-13 84 -21 111q-15 55 -56 71q-22 9 -76 19l21 119q176 -8 264 -8q87 0 262 8l-21 -119q-64 -14 -82 -28q-28 -22 -28 -76q0 -30 8 -94l53 -438q22 -181 37 -388l35 78q75 171 145 319l218 461q36 75 36 112q0 25 -26 37q-13 6 -59 17l21 119
q168 -8 252 -8t253 8l-21 -119q-91 -17 -121 -41q-37 -29 -104 -161l-561 -1096h-254z" />
    <glyph glyph-name="W" unicode="W" horiz-adv-x="1904" vert-adv-y="2457" 
d="M352 0l-112 1091q-13 127 -37 163q-19 28 -100 44l21 119q173 -8 259 -8t258 8l-21 -119q-71 -16 -90 -36q-21 -24 -21 -84q0 -53 2 -88l20 -352q7 -122 14 -428q90 224 171 409l302 694h224l53 -674q14 -171 26 -432q69 199 157 422l160 407q28 72 28 107q0 26 -25 38
q-16 7 -60 17l21 119q168 -8 252 -8t252 8l-21 -119q-84 -17 -110 -41q-43 -38 -97 -156l-501 -1101h-247l-53 588q-15 166 -29 453q-115 -284 -188 -449l-262 -592h-246z" />
    <glyph glyph-name="X" unicode="X" horiz-adv-x="1226" vert-adv-y="2457" 
d="M499 744l-110 275q-72 182 -126 230q-32 30 -118 49l21 119q186 -8 279 -8t280 8l-22 -119q-55 -10 -75 -18q-40 -16 -40 -52q0 -21 22 -73l103 -248l193 256q46 60 46 90q0 21 -25 30q-10 4 -50 15l21 119q167 -8 250 -8t250 8l-21 -119q-95 -14 -142 -46
q-63 -43 -151 -154l-289 -361l177 -418q19 -47 59 -108q42 -68 97 -83q20 -6 60 -13l-22 -119q-194 8 -291 8q-98 0 -293 -8l21 119q58 10 82 23q31 16 31 53q0 34 -37 127l-103 260l-217 -286q-75 -100 -75 -130q0 -23 28 -33q16 -5 60 -14l-21 -119q-170 8 -256 8
q-84 0 -254 -8l21 119q50 9 77 16q60 17 127 89q39 42 88 102z" />
    <glyph glyph-name="Y" unicode="Y" horiz-adv-x="1120" vert-adv-y="2457" 
d="M173 -4l21 119q26 5 39 7q54 8 77.5 22.5t37.5 47.5q24 53 42 157l33 190l-167 553q-39 129 -64 161q-22 28 -108 45l21 119q175 -8 263 -8q87 0 261 8l-21 -119q-55 -12 -72 -21q-34 -19 -34 -57q0 -35 18 -100l44 -160q24 -87 51 -214q59 106 122 208l100 159
q61 98 61 138q0 30 -77 47l21 119q166 -8 249 -8t249 8l-21 -119q-90 -17 -122 -42q-36 -29 -123 -161l-369 -555l-33 -191q-15 -84 -15 -143q0 -52 36 -70q16 -8 92 -21l-21 -119q-197 8 -296 8q-98 0 -295 -8z" />
    <glyph glyph-name="Z" unicode="Z" horiz-adv-x="1083" vert-adv-y="2457" 
d="M-71 0l18 138l894 1099h-308q-117 0 -154 -41q-21 -24 -58 -136h-165l68 353h963l-14 -139l-903 -1098h385q125 0 161 41q23 27 59 144h166l-70 -361h-1042z" />
    <glyph glyph-name="bracketleft" unicode="[" horiz-adv-x="872" vert-adv-y="2457" 
d="M910 1546l-25 -141h-187l-287 -1632h187l-25 -142h-457l338 1915h456z" />
    <glyph glyph-name="backslash" unicode="\" horiz-adv-x="980" vert-adv-y="2457" 
d="M649 0l-503 1413h260l504 -1413h-261z" />
    <glyph glyph-name="bracketright" unicode="]" horiz-adv-x="872" vert-adv-y="2457" 
d="M-5 -369l25 142h187l288 1632h-187l25 141h456l-337 -1915h-457z" />
    <glyph glyph-name="asciicircum" unicode="^" horiz-adv-x="1154" vert-adv-y="2457" 
d="M684 1110l-319 -431h-299l595 758h150l327 -758h-285z" />
    <glyph glyph-name="underscore" unicode="_" vert-adv-y="2457" 
d="M-175 -425l25 141h1208l-25 -141h-1208z" />
    <glyph glyph-name="grave" unicode="`" horiz-adv-x="1024" vert-adv-y="2457" 
d="M595 1147l-225 291h301l119 -291h-195z" />
    <glyph glyph-name="a" unicode="a" horiz-adv-x="1137" vert-adv-y="2457" 
d="M681 188q-57 -94 -101 -132q-94 -83 -232 -83q-294 0 -294 345q0 212 84 383q76 153 195 230q124 79 326 79q143 0 408 -31q-42 -186 -64 -313l-52 -296q-25 -145 -25 -191q0 -55 61 -55q43 0 93 29l40 -138q-101 -40 -223 -40q-153 0 -193 76q-22 42 -23 137zM762 809
q-60 38 -121 38q-149 0 -232 -183q-32 -72 -55 -173q-25 -106 -25 -190q0 -158 96 -158q56 0 113 65q148 168 196 442z" />
    <glyph glyph-name="b" unicode="b" horiz-adv-x="1135" vert-adv-y="2457" 
d="M133 1297l22 120q250 25 436 91l-122 -692q83 99 123 129q85 65 193 65q153 0 224 -105q67 -98 67 -267q0 -128 -40 -263q-59 -203 -184 -299q-134 -103 -349 -103q-193 0 -452 60q39 144 88 420l93 531q33 188 33 240q0 77 -71 77q-20 0 -61 -4zM357 181q68 -45 142 -45
q156 0 237 194q27 66 45 156t18 161q0 200 -98 200q-41 0 -78 -29.5t-89 -104.5q-112 -162 -150 -379z" />
    <glyph glyph-name="c" unicode="c" horiz-adv-x="904" vert-adv-y="2457" 
d="M802 201l40 -137q-177 -90 -346 -90q-179 0 -294 83q-138 99 -138 325q0 162 63 306q142 322 501 322q144 0 317 -42l-61 -320h-161q5 61 5 93q0 106 -102 106q-133 0 -216 -172q-31 -66 -51 -160q-17 -83 -17 -154q0 -225 215 -225q112 0 245 65z" />
    <glyph glyph-name="d" unicode="d" horiz-adv-x="1158" vert-adv-y="2457" 
d="M808 978l9 47q25 145 25 199q0 77 -70 77q-20 0 -61 -4l21 120q251 25 437 91l-200 -1135q-27 -151 -27 -194q0 -55 61 -55q43 0 94 29l39 -138q-100 -40 -224 -40q-152 0 -191 76q-22 44 -23 138q-57 -93 -93 -128q-90 -88 -237 -88q-313 0 -313 362q0 153 53 299
q138 376 490 376q103 0 210 -32zM777 801q-69 46 -141 46q-99 0 -165 -77q-66 -78 -108 -233q-32 -119 -32 -224q0 -169 108 -169q68 0 132 79q135 169 180 426z" />
    <glyph glyph-name="e" unicode="e" horiz-adv-x="1046" vert-adv-y="2457" 
d="M329 391q-2 -46 -2 -63q0 -91 53 -138q61 -54 201 -54q157 0 301 62l36 -136q-164 -89 -397 -89q-462 0 -462 393q0 145 53 284q136 360 522 360q192 0 295 -82q88 -70 88 -203q0 -172 -154 -246q-106 -52 -331 -75q-114 -12 -203 -13zM353 552q47 0 168 14
q148 17 199 56q44 34 44 102q0 123 -139 123q-138 0 -212 -127q-35 -61 -60 -168z" />
    <glyph glyph-name="f" unicode="f" horiz-adv-x="719" vert-adv-y="2457" 
d="M242 812h-160l30 171h160l20 111q32 185 113 270q105 110 313 110q108 0 229 -24l-55 -188q-66 49 -144 49q-95 0 -141 -69q-30 -45 -48 -146l-20 -113h227l-30 -171h-227l-109 -625q-56 -320 -122 -457q-100 -212 -357 -212q-115 0 -192 36l37 142q67 -30 131 -30
q75 0 111 47q41 53 68 172q18 85 43 223z" />
    <glyph glyph-name="g" unicode="g" horiz-adv-x="1127" vert-adv-y="2457" 
d="M646 132q-122 -159 -291 -159q-302 0 -302 359q0 153 57 311q62 173 191 272q123 95 332 95q104 0 340 -40q105 -17 196 -24l-21 -122q-48 -9 -65 -17q-42 -17 -61 -92q-19 -70 -31 -143l-81 -456q-33 -192 -64 -285q-55 -164 -180 -241q-116 -72 -313 -72
q-203 0 -342 67l41 157q120 -61 276 -61q155 0 220 89q46 63 73 218zM765 807q-65 40 -139 40q-144 0 -225 -188q-30 -71 -53 -183q-20 -102 -20 -173q0 -160 102 -160q98 0 201 185q74 135 107 322z" />
    <glyph glyph-name="h" unicode="h" horiz-adv-x="1242" vert-adv-y="2457" 
d="M169 1297l21 120q251 25 437 91l-130 -737q83 108 134 151q104 88 232 88q252 0 252 -244q0 -84 -32 -240l-30 -141q-34 -174 -34 -206q0 -55 57 -55q44 0 98 29l41 -138q-109 -40 -237 -40q-123 0 -176 42q-50 39 -50 126q0 68 33 228l36 182q23 112 23 178
q0 100 -80 100q-44 0 -86 -31t-97 -104q-82 -109 -122 -216q-26 -69 -43 -169l-17 -92q-12 -70 -30 -219h-283q38 168 47 220l135 764q32 184 32 240q0 77 -70 77q-20 0 -61 -4z" />
    <glyph glyph-name="i" unicode="i" horiz-adv-x="623" vert-adv-y="2457" 
d="M90 815l21 121q241 23 412 72q-7 -205 -102 -667q-26 -125 -26 -169q0 -48 57 -48q44 0 98 29l41 -138q-109 -40 -238 -40q-121 0 -173 42q-52 41 -52 128q0 59 52 322q43 216 43 279q0 47 -22 62q-15 10 -56 10q-21 0 -55 -3zM418 1447q67 0 113 -47t46 -113
q0 -65 -46 -112t-115 -47q-68 0 -114 47t-46 112q0 67 46 113q47 47 116 47z" />
    <glyph glyph-name="j" unicode="j" horiz-adv-x="630" vert-adv-y="2457" 
d="M110 815l21 121q240 23 412 72q-4 -135 -57 -438l-66 -383q-55 -315 -128 -457q-110 -212 -391 -212q-125 0 -220 45l41 150q73 -33 159 -33q87 0 133 47q50 53 80 172q29 117 48 223l73 418q28 165 28 205q0 47 -22 63q-15 10 -56 10q-21 0 -55 -3zM435 1447
q66 0 112 -47t46 -113q0 -65 -46 -112t-115 -47q-68 0 -114 47t-46 112q0 67 46 113q47 47 117 47z" />
    <glyph glyph-name="k" unicode="k" horiz-adv-x="1159" vert-adv-y="2457" 
d="M169 1297l21 120q251 25 437 91l-157 -888q116 3 218 63q64 38 101 85q29 36 29 61q0 20 -23 30q-9 4 -40 15l23 113q124 -7 183 -7q65 0 190 7l-14 -71q-10 -49 -33.5 -79.5t-98.5 -91.5q-111 -90 -249 -174q43 -32 86 -123l76 -162q42 -91 58 -118q30 -46 78 -46
q28 0 62 21l42 -131q-108 -39 -223 -39q-125 0 -186 84q-29 40 -47 88l-27 74l-47 117q-24 65 -33 81q-41 76 -135 76h-12l-49 -274q-12 -72 -30 -219h-283q38 168 47 220l135 764q32 184 32 240q0 77 -70 77q-20 0 -61 -4z" />
    <glyph glyph-name="l" unicode="l" horiz-adv-x="629" vert-adv-y="2457" 
d="M169 1297l21 120q251 25 437 91l-202 -1145q-22 -125 -22 -184q0 -55 58 -55q44 0 94 29l40 -138q-102 -40 -230 -40q-119 0 -172 42q-57 44 -57 135q0 84 27 235l105 597q32 184 32 240q0 77 -70 77q-20 0 -61 -4z" />
    <glyph glyph-name="m" unicode="m" horiz-adv-x="1795" vert-adv-y="2457" 
d="M82 815l21 121q230 23 394 72q1 -20 1 -28q0 -81 -22 -233q76 109 127 157q113 106 242 106q222 0 222 -231q0 -6 -1 -33q72 105 136 165q107 99 234 99q230 0 230 -239q0 -85 -31 -236l-31 -150l-15 -74q-19 -111 -19 -135q0 -52 56 -52q44 0 99 29l41 -138
q-109 -40 -239 -40q-121 0 -172 42q-52 41 -52 129q0 67 32 225l37 182q26 129 26 184q0 94 -60 94q-75 0 -174 -135q-79 -109 -117 -216q-25 -66 -43 -169l-16 -92q-11 -61 -30 -219h-284q38 169 47 220l52 294q32 182 32 225q0 92 -60 92q-74 0 -172 -135
q-79 -110 -117 -216q-25 -67 -43 -169l-16 -92q-11 -61 -30 -219h-283q37 169 46 220l67 380q18 102 18 146q0 47 -22 62q-15 10 -56 10q-21 0 -55 -3z" />
    <glyph glyph-name="n" unicode="n" horiz-adv-x="1233" vert-adv-y="2457" 
d="M82 815l21 121q230 23 394 72q1 -21 1 -29q0 -80 -22 -232q75 107 138 164q109 99 243 99q245 0 245 -245q0 -86 -29 -230l-31 -150q-35 -169 -35 -208q0 -53 56 -53q45 0 99 29l41 -132q-106 -46 -240 -46q-119 0 -171 42q-52 41 -52 128q0 65 33 226l36 182
q24 116 24 175q0 47 -20 75t-56 28q-43 0 -84.5 -31t-95.5 -104q-81 -108 -121 -216q-25 -67 -43 -169l-16 -92q-11 -61 -30 -219h-283q37 169 46 220l67 380q18 102 18 146q0 47 -22 62q-15 10 -56 10q-21 0 -55 -3z" />
    <glyph glyph-name="o" unicode="o" horiz-adv-x="1117" vert-adv-y="2457" 
d="M627 1010q205 0 320 -119q105 -108 105 -295q0 -134 -47 -264q-65 -181 -208 -276q-127 -83 -300 -83q-208 0 -323 115q-109 110 -109 299q0 137 48 269q64 179 212 274q125 80 302 80zM620 847q-136 0 -213 -176q-64 -146 -64 -319q0 -216 156 -216q135 0 212 176
q27 64 45 153q18 88 18 162q0 97 -35 155q-38 65 -119 65z" />
    <glyph glyph-name="p" unicode="p" horiz-adv-x="1162" vert-adv-y="2457" 
d="M353 7l-20 -120q-17 -95 -17 -138q0 -48 22 -63q16 -11 63 -11q30 0 73 5l-21 -120q-247 -23 -427 -75q-3 29 -3 51q0 107 32 292l136 772q17 97 17 146q0 46 -22 62q-15 10 -55 10q-21 0 -55 -3l21 121q230 23 394 72q1 -20 1 -27q0 -68 -17 -200q70 97 121 143
q98 87 219 87q150 0 221 -105q66 -98 66 -270q0 -143 -45 -282q-121 -381 -492 -381q-104 0 -212 34zM386 191q32 -26 47 -34q41 -21 97 -21q151 0 231 187q64 148 64 317q0 209 -101 209q-62 0 -128 -83q-140 -176 -185 -434z" />
    <glyph glyph-name="q" unicode="q" horiz-adv-x="1144" vert-adv-y="2457" 
d="M661 145q-55 -75 -106 -110q-86 -61 -201 -61q-146 0 -224 92q-75 89 -75 262q0 182 65 342q71 174 203 260q124 80 320 80q111 0 344 -40q104 -18 194 -24l-22 -122q-47 -9 -64 -17q-42 -17 -61 -92q-18 -67 -29 -130l-123 -698q-16 -93 -16 -140q0 -46 22 -62
q16 -10 56 -10q22 0 55 3l-22 -120q-231 -23 -402 -73q-2 31 -2 51q0 108 32 292zM777 807q-62 40 -137 40q-154 0 -237 -188q-32 -72 -53 -174q-20 -99 -20 -178q0 -163 104 -163q70 0 138 83q132 159 178 423z" />
    <glyph glyph-name="r" unicode="r" horiz-adv-x="850" vert-adv-y="2457" 
d="M82 815l21 121q229 23 394 72q1 -19 1 -27q0 -48 -10 -144q63 82 107 116q74 57 159 57q76 0 171 -36l-55 -281h-160q1 11 2 16q3 30 3 43q0 81 -64 81q-69 0 -136 -122q-47 -86 -68 -205l-29 -169q-24 -140 -40 -341q-98 8 -149 8q-48 0 -146 -8q45 210 68 341l46 263
q18 103 18 147q0 47 -22 62q-16 10 -56 10q-22 0 -55 -4z" />
    <glyph glyph-name="s" unicode="s" horiz-adv-x="944" vert-adv-y="2457" 
d="M-9 15l57 298h160q-2 -26 -2 -44q0 -67 26 -96q35 -37 143 -37q225 0 225 128q0 45 -49 76q-39 25 -161 75q-145 60 -198 113q-64 63 -64 165q0 139 98 227q101 90 315 90q164 0 365 -42l-54 -280h-160q2 26 2 42q0 62 -27 86q-35 31 -124 31q-70 0 -115 -25
q-48 -28 -48 -82q0 -50 48 -82q38 -25 166 -80q130 -56 180 -97q78 -64 78 -176q0 -143 -99 -233q-110 -99 -363 -99q-203 0 -399 42z" />
    <glyph glyph-name="t" unicode="t" horiz-adv-x="756" vert-adv-y="2457" 
d="M223 812h-149l30 171h29q123 0 186 95q53 79 107 254h156l-62 -349h287l-30 -171h-287l-76 -435q-18 -102 -18 -160q0 -95 91 -95q78 0 161 36l26 -139q-140 -46 -295 -46q-135 0 -199 52q-57 47 -57 151q0 64 23 195z" />
    <glyph glyph-name="u" unicode="u" horiz-adv-x="1201" vert-adv-y="2457" 
d="M82 815l21 121q241 23 413 72q-3 -87 -14 -165q-14 -89 -65 -337q-40 -195 -40 -259q0 -95 75 -95q112 0 225 175q36 54 53 110q10 30 23 105l15 82q15 87 15 129q0 40 -17 55q-13 10 -49 10q-21 0 -55 -3l22 121q232 23 397 72q-2 -131 -50 -403l-41 -238
q-26 -149 -26 -188q0 -55 58 -55q44 0 97 29l40 -138q-102 -40 -226 -40q-153 0 -192 95q-15 38 -17 117q-76 -91 -148 -144q-97 -70 -227 -70q-240 0 -240 242q0 70 21 183q6 32 36 183q24 122 24 171q0 41 -20 56q-14 10 -54 10q-20 0 -54 -3z" />
    <glyph glyph-name="v" unicode="v" horiz-adv-x="1037" vert-adv-y="2457" 
d="M277 0l-91 627q-17 113 -27 143q-12 32 -31 44q-16 10 -52 10q-27 0 -63 -4l22 126q207 20 337 62q45 -138 76 -425l35 -326q97 135 175 283q106 200 106 266q0 28 -29 41q-22 11 -78 21l25 119q136 -6 203 -6q53 0 157 3l-13 -113q-14 -137 -187 -416
q-189 -306 -299 -455h-266z" />
    <glyph glyph-name="w" unicode="w" horiz-adv-x="1579" vert-adv-y="2457" 
d="M263 0l-79 616q-15 119 -28 154q-12 32 -30 44q-16 10 -52 10q-27 0 -63 -4l22 126q207 20 337 62q31 -114 56 -333l15 -137q3 -23 6 -88q1 -23 6 -133l3 -47q65 167 117 284l189 429h243l26 -426q5 -94 7 -292q74 100 163 273q102 200 102 267q0 34 -40 47q-23 8 -67 16
l25 119q137 -6 203 -6q54 0 158 3l-12 -113q-15 -136 -185 -416q-52 -86 -203 -323q-55 -85 -91 -132h-251l-26 445l-2 66q-1 41 -3 174q-63 -160 -102 -244l-204 -441h-240z" />
    <glyph glyph-name="x" unicode="x" horiz-adv-x="1042" vert-adv-y="2457" 
d="M367 514l-42 110q-4 11 -51 104q-27 54 -58 79q-25 20 -75 20q-29 0 -66 -5l23 125q185 20 310 61q29 -44 47 -79q89 -174 92 -180l50 -116l75 84q68 72 68 114q0 18 -19 29q-11 6 -35 16l23 111q121 -7 186 -7q54 0 171 7l-12 -70q-6 -41 -14 -56q-16 -33 -72 -87
q-16 -15 -50 -46q-42 -38 -54 -50l-196 -188l77 -186q20 -48 79 -139q30 -46 79 -46q36 0 81 27l53 -119q-118 -54 -241 -54t-186 72q-57 65 -105 175l-67 153l-96 -107q-68 -72 -68 -114q0 -18 19 -29q11 -6 37 -16l-24 -111q-121 7 -186 7q-54 0 -172 -7l12 70q7 42 14 56
q15 33 73 87q15 15 50 46q43 39 53 50z" />
    <glyph glyph-name="y" unicode="y" horiz-adv-x="1045" vert-adv-y="2457" 
d="M279 0l-92 627q-16 113 -27 143q-12 32 -30 44q-17 10 -53 10q-26 0 -62 -4l22 126q206 20 337 62q44 -129 76 -425l38 -364q96 152 177 310q106 207 106 277q0 28 -27 41q-20 10 -80 21l25 119q137 -6 203 -6q54 0 158 3l-10 -89q-10 -97 -53 -195q-80 -178 -314 -569
q-205 -343 -342 -471q-149 -140 -325 -140q-91 0 -180 35l44 154q65 -27 130 -27q81 0 140 50q90 76 210 268h-71z" />
    <glyph glyph-name="z" unicode="z" horiz-adv-x="981" vert-adv-y="2457" 
d="M8 -18l-58 112l657 691q-33 6 -117 34q-70 23 -113 23q-63 0 -85 -48q-18 -39 -26 -123h-169q11 119 39 184q67 156 248 156q93 0 232 -44q110 -34 158 -34q68 0 152 52l42 -123l-623 -664q57 -10 141 -36q64 -20 114 -20q85 0 115 74q16 40 23 104h169
q-16 -124 -48 -189q-79 -158 -289 -158q-97 0 -235 45q-108 35 -156 35q-59 0 -113 -32q-20 -12 -58 -39z" />
    <glyph glyph-name="braceleft" unicode="{" horiz-adv-x="880" vert-adv-y="2457" 
d="M405 644q59 -26 86 -45q55 -38 55 -118q0 -25 -24 -160l-47 -266q-24 -136 -24 -191q0 -72 37 -100q34 -25 131 -25h41l-19 -108h-170q-127 0 -198 30q-97 41 -97 174q0 56 29 219l54 306q22 124 22 161q0 92 -110 92h-24l12 68h24q80 0 115 42q21 26 31 60.5t31 151.5
l37 207q28 164 53 226q44 113 151 150q81 28 208 28h169l-19 -108h-41q-85 0 -129 -21q-58 -26 -85 -114q-21 -70 -41 -182l-26 -147q-25 -146 -40 -179q-30 -69 -118 -116q-21 -11 -74 -35z" />
    <glyph glyph-name="bar" unicode="|" vert-adv-y="2457" 
d="M454 -425v1838h268v-1838h-268z" />
    <glyph glyph-name="braceright" unicode="}" horiz-adv-x="880" vert-adv-y="2457" 
d="M528 644q-60 32 -85 52q-55 42 -55 117q0 24 24 161l26 147q24 136 24 192q0 72 -37 100q-33 25 -130 25h-42l20 108h169q127 0 198 -30q97 -41 97 -173q0 -58 -29 -220l-33 -189q-22 -123 -22 -162q0 -91 110 -91h24l-12 -68h-24q-80 0 -115 -42q-23 -28 -39 -90
q-4 -15 -23 -121l-57 -326q-29 -163 -53 -225q-44 -113 -151 -150q-81 -28 -209 -28h-169l19 108h41q86 0 130 20q58 27 84 114q21 68 41 183l47 264q26 147 40 180q33 74 118 114q23 11 73 30z" />
    <glyph glyph-name="asciitilde" unicode="~" vert-adv-y="2457" 
d="M309 556l-152 37q54 118 104 172q97 105 239 105q77 0 131 -35q25 -16 89 -67q48 -39 87 -39q57 0 105 65q17 23 44 74l152 -37q-54 -118 -103 -171q-97 -106 -240 -106q-77 0 -137 39q-25 17 -85 65q-46 37 -86 37q-52 0 -98 -59q-19 -24 -50 -80z" />
    <glyph glyph-name="Adieresis" unicode="&#xc4;" horiz-adv-x="1428" vert-adv-y="2457" 
d="M932 384h-526l-54 -105q-35 -69 -35 -109q0 -28 27 -39q14 -6 58 -16l-21 -119q-168 8 -251 8q-85 0 -253 -8l21 119q98 17 129 44q34 30 102 157l613 1097h262l216 -1097q17 -90 29 -120q18 -48 61 -64q24 -8 72 -17l-21 -119q-180 8 -270 8t-271 -8l21 119q65 15 82 26
q31 21 31 71q0 39 -7 83zM903 555l-99 587l-309 -587h408zM687 1860q65 0 110 -44q44 -44 44 -104t-44 -104t-110 -44q-67 0 -111 44t-44 106q0 60 44 102q46 44 111 44zM1119 1860q66 0 111 -44q44 -44 44 -104t-44 -104q-45 -44 -110 -44q-66 0 -111 44q-44 44 -44 106
q0 60 44 102q46 44 110 44z" />
    <glyph glyph-name="Aring" unicode="&#xc5;" horiz-adv-x="1428" vert-adv-y="2457" 
d="M932 384h-526l-54 -105q-35 -69 -35 -109q0 -28 27 -39q14 -6 58 -16l-21 -119q-168 8 -251 8q-85 0 -253 -8l21 119q98 17 129 44q34 30 102 157l613 1097h262l216 -1097q17 -90 29 -120q18 -48 61 -64q24 -8 72 -17l-21 -119q-180 8 -270 8t-271 -8l21 119q65 15 82 26
q31 21 31 71q0 39 -7 83zM903 555l-99 587l-309 -587h408zM916 1988q114 0 185 -62q72 -62 72 -158q0 -95 -72 -159q-73 -65 -189 -65t-188 65q-73 65 -73 159q0 97 72 158q72 62 193 62zM914 1904q-101 0 -101 -139q0 -137 99 -137t99 138q0 67 -26 102q-26 36 -71 36z" />
    <glyph glyph-name="Ccedilla" unicode="&#xc7;" horiz-adv-x="1186" vert-adv-y="2457" 
d="M935 361h161l-55 -339q-171 -49 -354 -49q-4 0 -25 1l-99 -119q84 -9 126 -31q81 -41 81 -144q0 -115 -88 -184q-74 -58 -212 -58q-119 0 -214 37l50 113q73 -36 129 -36q64 0 93 48q24 41 24 91q0 87 -98 87q-19 0 -47 -3l-7 40l139 168q-136 19 -224 71
q-95 56 -148 156q-67 128 -67 304q0 252 102 487q100 229 276 340q157 99 397 99q180 0 385 -46l-64 -332h-166q2 29 2 48q0 66 -19 98q-35 61 -152 61q-231 0 -362 -280q-50 -107 -81 -254q-27 -134 -27 -250q0 -175 74 -258q67 -75 211 -75q151 0 205 83q28 43 54 126z
" />
    <glyph glyph-name="Eacute" unicode="&#xc9;" vert-adv-y="2457" 
d="M-45 -4l21 119q23 4 35 7q57 10 78 26q40 33 69 201l121 689q21 118 21 173q0 51 -35 67q-20 9 -81 20l22 119q192 -4 271 -4h816l-57 -353h-165q4 35 4 62q0 72 -26 92q-31 23 -128 23h-324l-76 -432h157q86 0 115 29q26 26 41 103h148q-44 -213 -77 -433h-147
q8 46 8 76q0 54 -34 68q-25 10 -96 10h-141l-61 -345q-11 -61 -11 -80q0 -32 22 -45q19 -12 87 -12h197q136 0 173 41q23 26 59 144h165l-69 -361h-779q-32 0 -199 -3q-41 0 -124 -1zM650 1564l221 290h315l-327 -290h-209z" />
    <glyph glyph-name="Ntilde" unicode="&#xd1;" horiz-adv-x="1450" vert-adv-y="2457" 
d="M-45 -4l21 119q23 5 35 7q57 10 78 27q40 32 69 199l127 720q15 87 15 144q0 46 -27 62q-15 9 -89 24l22 119q177 -8 265 -8q63 0 189 4l219 -610q48 -134 93 -306q31 -118 46 -170q26 191 52 338l70 401q15 88 15 146q0 46 -27 62q-15 9 -88 24l21 119q171 -8 256 -8
t255 8l-21 -119q-23 -4 -35 -7q-57 -10 -78 -27q-40 -32 -69 -198l-188 -1066l-281 -11l-264 730q-5 13 -68 233q-34 125 -50 181q-31 -212 -57 -361l-74 -423q-14 -81 -14 -148q0 -46 27 -62q12 -8 87 -24l-21 -119q-170 8 -255 8q-86 0 -256 -8zM685 1566h-177
q45 134 97 205q82 109 199 109q61 0 112 -29q28 -16 75 -70q47 -53 74 -53q52 0 92 139h179q-35 -132 -82 -201q-78 -114 -213 -114q-81 0 -134 45q-14 12 -56 61q-40 46 -65 46q-35 0 -68 -58q-10 -20 -33 -80z" />
    <glyph glyph-name="Odieresis" unicode="&#xd6;" horiz-adv-x="1399" vert-adv-y="2457" 
d="M840 1440q170 0 297 -69q131 -70 189 -215q47 -119 47 -265q0 -176 -55 -362q-81 -279 -258 -422q-168 -134 -416 -134q-266 0 -405 138q-138 138 -138 410q0 181 53 363q164 556 686 556zM842 1269q-223 0 -345 -273q-45 -100 -75 -248t-30 -271q0 -154 61 -245
q59 -88 185 -88q217 0 339 274q44 98 75 248q30 147 30 267q0 137 -52 231q-59 105 -188 105zM686 1860q65 0 110 -44q44 -44 44 -104t-44 -104t-110 -44t-111 44q-44 44 -44 106q0 59 44 102q46 44 111 44zM1118 1860q66 0 111 -44q44 -43 44 -104q0 -60 -44 -104t-110 -44
q-67 0 -111 44t-44 106q0 59 44 102q46 44 110 44z" />
    <glyph glyph-name="Udieresis" unicode="&#xdc;" horiz-adv-x="1405" vert-adv-y="2457" 
d="M177 1298l21 119q188 -8 282 -8t281 8l-21 -119q-23 -4 -34 -7q-57 -10 -78 -27q-40 -32 -70 -200l-91 -519q-23 -131 -23 -204q0 -199 226 -199q187 0 265 135q38 66 68 237l97 550q16 91 16 148q0 46 -27 62q-14 9 -88 24l21 119q170 -8 255 -8q86 0 256 8l-21 -119
q-23 -4 -34 -7q-57 -10 -78 -27q-40 -32 -70 -200l-100 -572q-25 -138 -40 -185q-57 -181 -195 -261q-129 -75 -340 -75q-263 0 -392 113q-99 87 -99 247q0 95 29 258l83 475q16 89 16 148q0 46 -27 62q-14 9 -88 24zM689 1860q65 0 110 -44q44 -44 44 -104t-44 -104
t-110 -44q-67 0 -111 44t-44 106q0 60 44 102q46 44 111 44zM1121 1860q66 0 111 -44q44 -44 44 -104t-44 -104q-45 -44 -110 -44q-66 0 -111 44q-44 44 -44 106q0 60 44 102q46 44 110 44z" />
    <glyph glyph-name="aacute" unicode="&#xe1;" horiz-adv-x="1137" vert-adv-y="2457" 
d="M681 188q-57 -94 -101 -132q-94 -83 -232 -83q-294 0 -294 345q0 212 84 383q76 153 195 230q124 79 326 79q143 0 408 -31q-42 -186 -64 -313l-52 -296q-25 -145 -25 -191q0 -55 61 -55q43 0 93 29l40 -138q-101 -40 -223 -40q-153 0 -193 76q-22 42 -23 137zM762 809
q-60 38 -121 38q-149 0 -232 -183q-32 -72 -55 -173q-25 -106 -25 -190q0 -158 96 -158q56 0 113 65q148 168 196 442zM573 1148l221 290h315l-327 -290h-209z" />
    <glyph glyph-name="agrave" unicode="&#xe0;" horiz-adv-x="1137" vert-adv-y="2457" 
d="M681 188q-57 -94 -101 -132q-94 -83 -232 -83q-294 0 -294 345q0 212 84 383q76 153 195 230q124 79 326 79q143 0 408 -31q-42 -186 -64 -313l-52 -296q-25 -145 -25 -191q0 -55 61 -55q43 0 93 29l40 -138q-101 -40 -223 -40q-153 0 -193 76q-22 42 -23 137zM762 809
q-60 38 -121 38q-149 0 -232 -183q-32 -72 -55 -173q-25 -106 -25 -190q0 -158 96 -158q56 0 113 65q148 168 196 442zM661 1147l-225 291h301l119 -291h-195z" />
    <glyph glyph-name="acircumflex" unicode="&#xe2;" horiz-adv-x="1137" vert-adv-y="2457" 
d="M681 188q-57 -94 -101 -132q-94 -83 -232 -83q-294 0 -294 345q0 212 84 383q76 153 195 230q124 79 326 79q143 0 408 -31q-42 -186 -64 -313l-52 -296q-25 -145 -25 -191q0 -55 61 -55q43 0 93 29l40 -138q-101 -40 -223 -40q-153 0 -193 76q-22 42 -23 137zM762 809
q-60 38 -121 38q-149 0 -232 -183q-32 -72 -55 -173q-25 -106 -25 -190q0 -158 96 -158q56 0 113 65q148 168 196 442zM713 1314l-197 -166h-218l276 290h307l174 -290h-204z" />
    <glyph glyph-name="adieresis" unicode="&#xe4;" horiz-adv-x="1137" vert-adv-y="2457" 
d="M681 188q-57 -94 -101 -132q-94 -83 -232 -83q-294 0 -294 345q0 212 84 383q76 153 195 230q124 79 326 79q143 0 408 -31q-42 -186 -64 -313l-52 -296q-25 -145 -25 -191q0 -55 61 -55q43 0 93 29l40 -138q-101 -40 -223 -40q-153 0 -193 76q-22 42 -23 137zM762 809
q-60 38 -121 38q-149 0 -232 -183q-32 -72 -55 -173q-25 -106 -25 -190q0 -158 96 -158q56 0 113 65q148 168 196 442zM506 1437q65 0 110 -44q44 -43 44 -104q0 -60 -44 -104t-110 -44t-111 44q-44 44 -44 106q0 60 44 102q46 44 111 44zM913 1437q65 0 110 -44
q44 -43 44 -104t-44 -104q-44 -44 -110 -44q-67 0 -111 44t-44 106q0 60 44 102q46 44 111 44z" />
    <glyph glyph-name="atilde" unicode="&#xe3;" horiz-adv-x="1137" vert-adv-y="2457" 
d="M681 188q-57 -94 -101 -132q-94 -83 -232 -83q-294 0 -294 345q0 212 84 383q76 153 195 230q124 79 326 79q143 0 408 -31q-42 -186 -64 -313l-52 -296q-25 -145 -25 -191q0 -55 61 -55q43 0 93 29l40 -138q-101 -40 -223 -40q-153 0 -193 76q-22 42 -23 137zM762 809
q-60 38 -121 38q-149 0 -232 -183q-32 -72 -55 -173q-25 -106 -25 -190q0 -158 96 -158q56 0 113 65q148 168 196 442zM473 1150h-177q45 135 97 204q82 109 199 109q62 0 112 -29q27 -15 75 -70q47 -53 74 -53q52 0 92 140h179q-35 -132 -82 -201q-79 -114 -213 -114
q-81 0 -134 45q-15 12 -56 60q-41 46 -65 46q-35 0 -68 -58q-10 -17 -33 -79z" />
    <glyph glyph-name="aring" unicode="&#xe5;" horiz-adv-x="1137" vert-adv-y="2457" 
d="M681 188q-57 -94 -101 -132q-94 -83 -232 -83q-294 0 -294 345q0 212 84 383q76 153 195 230q124 79 326 79q143 0 408 -31q-42 -186 -64 -313l-52 -296q-25 -145 -25 -191q0 -55 61 -55q43 0 93 29l40 -138q-101 -40 -223 -40q-153 0 -193 76q-22 42 -23 137zM762 809
q-60 38 -121 38q-149 0 -232 -183q-32 -72 -55 -173q-25 -106 -25 -190q0 -158 96 -158q56 0 113 65q148 168 196 442zM746 1572q114 0 185 -62q72 -62 72 -158q0 -95 -73 -159q-72 -65 -188 -65t-188 65q-73 65 -73 159q0 97 72 158q72 62 193 62zM744 1488
q-101 0 -101 -139q0 -137 99 -137t99 138q0 67 -26 102q-26 36 -71 36z" />
    <glyph glyph-name="ccedilla" unicode="&#xe7;" horiz-adv-x="904" vert-adv-y="2457" 
d="M802 201l40 -136q-158 -82 -314 -89l-101 -121q85 -9 127 -30q81 -42 81 -145q0 -115 -88 -184q-74 -58 -211 -58q-120 0 -215 37l50 113q72 -36 129 -36q64 0 93 48q24 40 24 91q0 87 -98 87q-19 0 -47 -3l-8 40l137 165q-337 52 -337 403q0 161 63 305q142 322 501 322
q144 0 317 -42l-61 -320h-161q5 61 5 93q0 106 -102 106q-133 0 -216 -172q-31 -66 -51 -160q-17 -82 -17 -153q0 -225 215 -225q111 0 245 64z" />
    <glyph glyph-name="eacute" unicode="&#xe9;" horiz-adv-x="1046" vert-adv-y="2457" 
d="M329 391q-2 -46 -2 -63q0 -91 53 -138q61 -54 201 -54q157 0 301 62l36 -136q-164 -89 -397 -89q-462 0 -462 393q0 145 53 284q136 360 522 360q192 0 295 -82q88 -70 88 -203q0 -172 -154 -246q-106 -52 -331 -75q-114 -12 -203 -13zM353 552q47 0 168 14
q148 17 199 56q44 34 44 102q0 123 -139 123q-138 0 -212 -127q-35 -61 -60 -168zM476 1148l221 290h315l-327 -290h-209z" />
    <glyph glyph-name="egrave" unicode="&#xe8;" horiz-adv-x="1046" vert-adv-y="2457" 
d="M329 391q-2 -46 -2 -63q0 -91 53 -138q61 -54 201 -54q157 0 301 62l36 -136q-164 -89 -397 -89q-462 0 -462 393q0 145 53 284q136 360 522 360q192 0 295 -82q88 -70 88 -203q0 -172 -154 -246q-106 -52 -331 -75q-114 -12 -203 -13zM353 552q47 0 168 14
q148 17 199 56q44 34 44 102q0 123 -139 123q-138 0 -212 -127q-35 -61 -60 -168zM598 1147l-225 291h301l119 -291h-195z" />
    <glyph glyph-name="ecircumflex" unicode="&#xea;" horiz-adv-x="1046" vert-adv-y="2457" 
d="M329 391q-2 -46 -2 -63q0 -91 53 -138q61 -54 201 -54q157 0 301 62l36 -136q-164 -89 -397 -89q-462 0 -462 393q0 145 53 284q136 360 522 360q192 0 295 -82q88 -70 88 -203q0 -172 -154 -246q-106 -52 -331 -75q-114 -12 -203 -13zM353 552q47 0 168 14
q148 17 199 56q44 34 44 102q0 123 -139 123q-138 0 -212 -127q-35 -61 -60 -168zM674 1314l-197 -166h-218l276 290h307l174 -290h-204z" />
    <glyph glyph-name="edieresis" unicode="&#xeb;" horiz-adv-x="1046" vert-adv-y="2457" 
d="M329 391q-2 -46 -2 -63q0 -91 53 -138q61 -54 201 -54q157 0 301 62l36 -136q-164 -89 -397 -89q-462 0 -462 393q0 145 53 284q136 360 522 360q192 0 295 -82q88 -70 88 -203q0 -172 -154 -246q-106 -52 -331 -75q-114 -12 -203 -13zM353 552q47 0 168 14
q148 17 199 56q44 34 44 102q0 123 -139 123q-138 0 -212 -127q-35 -61 -60 -168zM461 1437q65 0 110 -44q44 -43 44 -104q0 -60 -44 -104t-110 -44t-111 44q-44 44 -44 106q0 60 44 102q46 44 111 44zM868 1437q65 0 110 -44q44 -43 44 -104t-44 -104q-44 -44 -110 -44
q-67 0 -111 44t-44 106q0 60 44 102q46 44 111 44z" />
    <glyph glyph-name="iacute" unicode="&#xed;" horiz-adv-x="623" vert-adv-y="2457" 
d="M90 815l21 121q241 23 412 72q-7 -205 -102 -667q-26 -125 -26 -169q0 -48 57 -48q44 0 98 29l41 -138q-109 -40 -238 -40q-121 0 -173 42q-52 41 -52 128q0 59 52 322q43 216 43 279q0 47 -22 62q-15 10 -56 10q-21 0 -55 -3zM254 1148l221 290h315l-327 -290h-209z" />
    <glyph glyph-name="igrave" unicode="&#xec;" horiz-adv-x="623" vert-adv-y="2457" 
d="M90 815l21 121q241 23 412 72q-7 -205 -102 -667q-26 -125 -26 -169q0 -48 57 -48q44 0 98 29l41 -138q-109 -40 -238 -40q-121 0 -173 42q-52 41 -52 128q0 59 52 322q43 216 43 279q0 47 -22 62q-15 10 -56 10q-21 0 -55 -3zM332 1147l-225 291h301l119 -291h-195z" />
    <glyph glyph-name="icircumflex" unicode="&#xee;" horiz-adv-x="623" vert-adv-y="2457" 
d="M90 815l21 121q241 23 412 72q-7 -205 -102 -667q-26 -125 -26 -169q0 -48 57 -48q44 0 98 29l41 -138q-109 -40 -238 -40q-121 0 -173 42q-52 41 -52 128q0 59 52 322q43 216 43 279q0 47 -22 62q-15 10 -56 10q-21 0 -55 -3zM412 1314l-197 -166h-218l276 290h307
l174 -290h-204z" />
    <glyph glyph-name="idieresis" unicode="&#xef;" horiz-adv-x="623" vert-adv-y="2457" 
d="M87 815l21 121q240 23 411 72q-7 -205 -101 -667q-26 -126 -26 -169q0 -48 57 -48q44 0 98 29l41 -138q-110 -40 -239 -40q-120 0 -172 42q-52 41 -52 128q0 61 52 322q42 215 42 279q0 47 -22 62q-15 10 -55 10q-21 0 -55 -3zM204 1437q65 0 110 -44q44 -43 44 -104
q0 -60 -44 -104t-110 -44t-111 44q-44 44 -44 106q0 60 44 102q46 44 111 44zM611 1437q65 0 110 -44q44 -43 44 -104t-44 -104q-44 -44 -110 -44q-67 0 -111 44t-44 106q0 60 44 102q46 44 111 44z" />
    <glyph glyph-name="ntilde" unicode="&#xf1;" horiz-adv-x="1233" vert-adv-y="2457" 
d="M82 815l21 121q230 23 394 72q1 -21 1 -29q0 -80 -22 -232q75 107 138 164q109 99 243 99q245 0 245 -245q0 -86 -29 -230l-31 -150q-35 -169 -35 -208q0 -53 56 -53q45 0 99 29l41 -132q-106 -46 -240 -46q-119 0 -171 42q-52 41 -52 128q0 65 33 226l36 182
q24 116 24 175q0 47 -20 75t-56 28q-43 0 -84.5 -31t-95.5 -104q-81 -108 -121 -216q-25 -67 -43 -169l-16 -92q-11 -61 -30 -219h-283q37 169 46 220l67 380q18 102 18 146q0 47 -22 62q-15 10 -56 10q-21 0 -55 -3zM465 1150h-177q45 135 97 204q82 109 199 109
q62 0 112 -29q27 -15 75 -70q47 -53 74 -53q52 0 92 140h179q-35 -132 -82 -201q-79 -114 -213 -114q-81 0 -134 45q-15 12 -56 60q-41 46 -65 46q-35 0 -68 -58q-10 -17 -33 -79z" />
    <glyph glyph-name="oacute" unicode="&#xf3;" horiz-adv-x="1117" vert-adv-y="2457" 
d="M627 1010q205 0 320 -119q105 -108 105 -295q0 -134 -47 -264q-65 -181 -208 -276q-127 -83 -300 -83q-208 0 -323 115q-109 110 -109 299q0 137 48 269q64 179 212 274q125 80 302 80zM620 847q-136 0 -213 -176q-64 -146 -64 -319q0 -216 156 -216q135 0 212 176
q27 64 45 153q18 88 18 162q0 97 -35 155q-38 65 -119 65zM505 1148l221 290h315l-327 -290h-209z" />
    <glyph glyph-name="ograve" unicode="&#xf2;" horiz-adv-x="1117" vert-adv-y="2457" 
d="M627 1010q205 0 320 -119q105 -108 105 -295q0 -134 -47 -264q-65 -181 -208 -276q-127 -83 -300 -83q-208 0 -323 115q-109 110 -109 299q0 137 48 269q64 179 212 274q125 80 302 80zM620 847q-136 0 -213 -176q-64 -146 -64 -319q0 -216 156 -216q135 0 212 176
q27 64 45 153q18 88 18 162q0 97 -35 155q-38 65 -119 65zM641 1147l-225 291h301l119 -291h-195z" />
    <glyph glyph-name="ocircumflex" unicode="&#xf4;" horiz-adv-x="1117" vert-adv-y="2457" 
d="M627 1010q205 0 320 -119q105 -108 105 -295q0 -134 -47 -264q-65 -181 -208 -276q-127 -83 -300 -83q-208 0 -323 115q-109 110 -109 299q0 137 48 269q64 179 212 274q125 80 302 80zM620 847q-136 0 -213 -176q-64 -146 -64 -319q0 -216 156 -216q135 0 212 176
q27 64 45 153q18 88 18 162q0 97 -35 155q-38 65 -119 65zM683 1314l-197 -166h-218l276 290h307l174 -290h-204z" />
    <glyph glyph-name="odieresis" unicode="&#xf6;" horiz-adv-x="1117" vert-adv-y="2457" 
d="M627 1010q205 0 320 -119q105 -108 105 -295q0 -134 -47 -264q-65 -181 -208 -276q-127 -83 -300 -83q-208 0 -323 115q-109 110 -109 299q0 137 48 269q64 179 212 274q125 80 302 80zM620 847q-136 0 -213 -176q-64 -146 -64 -319q0 -216 156 -216q135 0 212 176
q27 64 45 153q18 88 18 162q0 97 -35 155q-38 65 -119 65zM496 1437q65 0 110 -44q44 -43 44 -104q0 -60 -44 -104t-110 -44t-111 44q-44 44 -44 106q0 60 44 102q46 44 111 44zM903 1437q65 0 110 -44q44 -43 44 -104t-44 -104q-44 -44 -110 -44q-67 0 -111 44t-44 106
q0 60 44 102q46 44 111 44z" />
    <glyph glyph-name="otilde" unicode="&#xf5;" horiz-adv-x="1117" vert-adv-y="2457" 
d="M627 1010q205 0 320 -119q105 -108 105 -295q0 -134 -47 -264q-65 -181 -208 -276q-127 -83 -300 -83q-208 0 -323 115q-109 110 -109 299q0 137 48 269q64 179 212 274q125 80 302 80zM620 847q-136 0 -213 -176q-64 -146 -64 -319q0 -216 156 -216q135 0 212 176
q27 64 45 153q18 88 18 162q0 97 -35 155q-38 65 -119 65zM444 1150h-177q45 135 97 204q82 109 199 109q62 0 112 -29q27 -15 75 -70q47 -53 74 -53q52 0 92 140h179q-35 -132 -82 -201q-79 -114 -213 -114q-81 0 -134 45q-15 12 -56 60q-41 46 -65 46q-35 0 -68 -58
q-10 -17 -33 -79z" />
    <glyph glyph-name="uacute" unicode="&#xfa;" horiz-adv-x="1201" vert-adv-y="2457" 
d="M82 815l21 121q241 23 413 72q-3 -87 -14 -165q-14 -89 -65 -337q-40 -195 -40 -259q0 -95 75 -95q112 0 225 175q36 54 53 110q10 30 23 105l15 82q15 87 15 129q0 40 -17 55q-13 10 -49 10q-21 0 -55 -3l22 121q232 23 397 72q-2 -131 -50 -403l-41 -238
q-26 -149 -26 -188q0 -55 58 -55q44 0 97 29l40 -138q-102 -40 -226 -40q-153 0 -192 95q-15 38 -17 117q-76 -91 -148 -144q-97 -70 -227 -70q-240 0 -240 242q0 70 21 183q6 32 36 183q24 122 24 171q0 41 -20 56q-14 10 -54 10q-20 0 -54 -3zM562 1148l221 290h315
l-327 -290h-209z" />
    <glyph glyph-name="ugrave" unicode="&#xf9;" horiz-adv-x="1201" vert-adv-y="2457" 
d="M82 815l21 121q241 23 413 72q-3 -87 -14 -165q-14 -89 -65 -337q-40 -195 -40 -259q0 -95 75 -95q112 0 225 175q36 54 53 110q10 30 23 105l15 82q15 87 15 129q0 40 -17 55q-13 10 -49 10q-21 0 -55 -3l22 121q232 23 397 72q-2 -131 -50 -403l-41 -238
q-26 -149 -26 -188q0 -55 58 -55q44 0 97 29l40 -138q-102 -40 -226 -40q-153 0 -192 95q-15 38 -17 117q-76 -91 -148 -144q-97 -70 -227 -70q-240 0 -240 242q0 70 21 183q6 32 36 183q24 122 24 171q0 41 -20 56q-14 10 -54 10q-20 0 -54 -3zM642 1147l-225 291h301
l119 -291h-195z" />
    <glyph glyph-name="ucircumflex" unicode="&#xfb;" horiz-adv-x="1201" vert-adv-y="2457" 
d="M82 815l21 121q241 23 413 72q-3 -87 -14 -165q-14 -89 -65 -337q-40 -195 -40 -259q0 -95 75 -95q112 0 225 175q36 54 53 110q10 30 23 105l15 82q15 87 15 129q0 40 -17 55q-13 10 -49 10q-21 0 -55 -3l22 121q232 23 397 72q-2 -131 -50 -403l-41 -238
q-26 -149 -26 -188q0 -55 58 -55q44 0 97 29l40 -138q-102 -40 -226 -40q-153 0 -192 95q-15 38 -17 117q-76 -91 -148 -144q-97 -70 -227 -70q-240 0 -240 242q0 70 21 183q6 32 36 183q24 122 24 171q0 41 -20 56q-14 10 -54 10q-20 0 -54 -3zM688 1314l-197 -166h-218
l276 290h307l174 -290h-204z" />
    <glyph glyph-name="udieresis" unicode="&#xfc;" horiz-adv-x="1201" vert-adv-y="2457" 
d="M82 815l21 121q241 23 413 72q-3 -87 -14 -165q-14 -89 -65 -337q-40 -195 -40 -259q0 -95 75 -95q112 0 225 175q36 54 53 110q10 30 23 105l15 82q15 87 15 129q0 40 -17 55q-13 10 -49 10q-21 0 -55 -3l22 121q232 23 397 72q-2 -131 -50 -403l-41 -238
q-26 -149 -26 -188q0 -55 58 -55q44 0 97 29l40 -138q-102 -40 -226 -40q-153 0 -192 95q-15 38 -17 117q-76 -91 -148 -144q-97 -70 -227 -70q-240 0 -240 242q0 70 21 183q6 32 36 183q24 122 24 171q0 41 -20 56q-14 10 -54 10q-20 0 -54 -3zM493 1437q65 0 110 -44
q44 -43 44 -104q0 -60 -44 -104t-110 -44t-111 44q-44 44 -44 106q0 60 44 102q46 44 111 44zM900 1437q65 0 110 -44q44 -43 44 -104t-44 -104q-44 -44 -110 -44q-67 0 -111 44t-44 106q0 60 44 102q46 44 111 44z" />
    <glyph glyph-name="dagger" unicode="&#x2020;" horiz-adv-x="1148" vert-adv-y="2457" 
d="M482 775h-326l45 190h315l79 448h280l-79 -448h328l-45 -190h-317l-205 -1168h-280z" />
    <glyph glyph-name="degree" unicode="&#xb0;" horiz-adv-x="578" vert-adv-y="2457" 
d="M427 1493q107 0 178 -65q73 -66 73 -168q0 -101 -73 -168q-70 -65 -181 -65q-112 0 -182 65q-73 67 -73 167q0 104 73 169q72 65 185 65zM426 1402q-54 0 -84 -35q-33 -39 -33 -109q0 -67 33 -106q30 -35 82 -35q53 0 82 35q33 39 33 108t-32 107q-31 35 -81 35z" />
    <glyph glyph-name="cent" unicode="&#xa2;" vert-adv-y="2457" 
d="M621 382q-95 12 -174 49q-205 97 -205 357q0 204 104 370q117 185 325 235q53 12 131 17l36 205h139l-36 -206q137 -9 275 -39l-62 -321h-161q6 49 6 83q0 58 -27 83q-20 19 -60 28l-125 -705q137 2 286 76l9 -177q-141 -58 -323 -62l-36 -201h-139zM652 559l119 676
q-79 -31 -146 -118q-55 -72 -84 -192q-21 -85 -21 -156q0 -159 132 -210z" />
    <glyph glyph-name="sterling" unicode="&#xa3;" vert-adv-y="2457" 
d="M27 -4l21 120q23 4 35 6q57 11 78 28q40 33 68 194l48 273h-181l43 171h166l32 181q25 138 53 205q114 266 454 266q171 0 363 -54l-62 -324h-166q3 36 3 66q0 75 -29 108q-32 35 -98 35q-111 0 -177 -109q-42 -70 -66 -209l-29 -165h263l-44 -171h-250l-78 -443h218
q121 0 157 41q25 29 60 146h184l-69 -361h-702q-17 0 -295 -4z" />
    <glyph glyph-name="section" unicode="&#xa7;" horiz-adv-x="1181" vert-adv-y="2457" 
d="M393 881q-94 75 -94 199q0 95 45 176q54 99 173 148q90 37 245 37q176 0 338 -48l-54 -280h-162q1 18 1 25q0 72 -20 102q-28 43 -118 43q-100 0 -151 -57q-47 -52 -47 -132q0 -65 44 -95q33 -23 174 -71q153 -53 213 -103q74 -62 74 -171q0 -120 -98 -216
q-45 -44 -123 -92q108 -78 108 -200q0 -89 -41 -169q-56 -108 -183 -159q-91 -36 -257 -36q-237 0 -414 51l55 287h160v-20q0 -81 35 -115q46 -45 174 -45q122 0 176 62q45 51 45 127q0 64 -45 94q-36 24 -189 74q-155 51 -216 100q-79 63 -79 172q0 124 107 223
q45 42 124 89zM521 817q-54 -40 -77 -71q-44 -58 -44 -127q0 -67 48 -104q34 -26 137 -65l113 -42q118 86 118 196q0 66 -46 103q-34 26 -132 64z" />
    <glyph glyph-name="bullet" unicode="&#x2022;" vert-adv-y="2457" 
d="M408 986h499q58 0 85 -30q20 -23 20 -56q0 -19 -2 -33l-71 -501q-8 -57 -35 -81q-28 -24 -86 -24h-499q-105 0 -105 86q0 18 2 32l71 502q8 57 36 81q27 24 85 24z" />
    <glyph glyph-name="paragraph" unicode="&#xb6;" horiz-adv-x="1410" vert-adv-y="2457" 
d="M353 -437l190 1082h-51q-69 0 -94 3q-102 12 -173 96q-73 87 -73 229q0 148 90 268q104 141 282 166q46 6 232 6h569l-326 -1850h-233l292 1656h-181l-292 -1656h-232z" />
    <glyph glyph-name="germandbls" unicode="&#xdf;" horiz-adv-x="1242" vert-adv-y="2457" 
d="M237 815h-150l30 171h150l6 37q36 202 130 308q125 143 375 143q193 0 308 -76q108 -72 108 -211q0 -113 -72 -196q-28 -32 -123 -105q-75 -57 -75 -114q0 -37 28 -70q14 -16 83 -78q61 -55 89 -103q38 -64 38 -150q0 -155 -98 -272q-107 -126 -319 -126q-98 0 -194 29
l45 159q72 -25 144 -25q80 0 126 56q42 51 42 119q0 49 -25 88q-21 32 -80 84q-70 62 -98 105q-37 55 -37 116q0 70 38 125q27 40 105 105q67 57 88 103q28 59 28 132q0 142 -144 142q-118 0 -174 -89q-47 -74 -79 -256l-136 -779q-57 -321 -122 -457q-100 -212 -357 -212
q-115 0 -192 36l37 142q66 -30 131 -30q75 0 111 47q41 53 68 172q18 84 43 223z" />
    <glyph glyph-name="registered" unicode="&#xae;" horiz-adv-x="1269" vert-adv-y="2457" 
d="M682 982v-30q0 -98 10 -130q7 -22 45 -34v-35q-86 6 -129 6q-42 0 -128 -6v35q37 11 45 34q10 32 10 131v150q0 99 -10 131q-8 23 -45 33v36q85 -6 187 -6h73q123 0 179 -31q70 -40 70 -122t-62 -122q-28 -18 -73 -31q44 -36 74 -90l35 -64q17 -30 32 -38q8 -5 33 -11
v-35q-92 6 -148 6h-35l-77 143q-26 51 -36 64q-12 16 -28 16h-22zM682 1042h57q88 0 88 95q0 52 -26 74q-20 17 -66 17h-53v-186zM736 1602q237 0 404 -156q178 -166 178 -420q0 -253 -178 -420q-166 -156 -412 -156q-247 0 -413 156q-92 86 -139 207q-39 101 -39 212
q0 167 83 305t235 211q124 61 281 61zM733 1488q-196 0 -318 -127q-124 -129 -124 -335q0 -203 124 -332q122 -127 312 -127t312 127q124 129 124 333t-124 334q-121 127 -306 127z" />
    <glyph glyph-name="copyright" unicode="&#xa9;" horiz-adv-x="1752" vert-adv-y="2457" 
d="M1209 589l3 -204q-142 -43 -268 -43q-187 0 -288 100q-102 102 -102 277q0 193 121 296q99 84 267 84q124 0 260 -46l-3 -201h-120q-4 45 -13 69q-25 59 -109 59q-81 0 -126 -72q-47 -75 -47 -187t47 -187q45 -73 127 -73q90 0 117 59q10 24 15 69h119zM925 1485
q331 0 553 -223q102 -101 159 -236q64 -148 64 -315q0 -228 -116 -416q-111 -177 -294 -272q-167 -85 -377 -85q-342 0 -564 223q-102 102 -159 235q-64 149 -64 314q0 229 116 418q108 175 295 271q166 86 387 86zM923 1352q-281 0 -456 -191q-162 -177 -162 -452
q0 -270 162 -447q174 -191 447 -191t447 191q162 178 162 449q0 278 -162 450q-179 191 -438 191z" />
    <glyph glyph-name="trademark" unicode="&#x2122;" horiz-adv-x="1850" vert-adv-y="2457" 
d="M287 573l127 720h-246l29 120h697l-29 -120h-239l-127 -720h-212zM801 573l209 840h277l49 -379q5 -38 14 -132l3 -32q39 91 78 172l176 371h271l-87 -840h-205l41 396q10 91 16 142q-54 -119 -59 -131l-197 -407h-184l-54 373q-3 25 -8 68q-5 57 -11 99l-10 -44
q-20 -84 -26 -110l-95 -386h-198z" />
    <glyph glyph-name="acute" unicode="&#xb4;" horiz-adv-x="1024" vert-adv-y="2457" 
d="M458 1148l221 290h315l-327 -290h-209z" />
    <glyph glyph-name="dieresis" unicode="&#xa8;" horiz-adv-x="1024" vert-adv-y="2457" 
d="M450 1437q65 0 110 -44q44 -43 44 -104q0 -60 -44 -104t-110 -44t-111 44q-44 44 -44 106q0 60 44 102q46 44 111 44zM857 1437q65 0 110 -44q44 -43 44 -104t-44 -104q-44 -44 -110 -44q-67 0 -111 44t-44 106q0 60 44 102q46 44 111 44z" />
    <glyph glyph-name="notequal" unicode="&#x2260;" vert-adv-y="2457" 
d="M105 419l49 180h294l143 224h-415l49 180h482l155 243l164 -86l-99 -157h226l-49 -180h-294l-142 -224h413l-49 -180h-481l-157 -246l-164 86l102 160h-227z" />
    <glyph glyph-name="AE" unicode="&#xc6;" horiz-adv-x="1870" vert-adv-y="2457" 
d="M886 406h-506l-80 -116q-62 -91 -62 -126q0 -27 42 -38q24 -6 59 -11l-21 -119q-176 8 -262 8q-91 0 -268 -8l21 119q103 17 139 43q46 34 155 190l500 715q78 112 78 163q0 38 -38 55q-14 7 -65 17l21 119q246 -4 322 -4h1062l-57 -353h-165q3 41 3 70q0 69 -33 88
q-31 19 -131 19h-286l-76 -432h130q87 0 115 29q27 28 40 103h149q-44 -210 -76 -427h-148q8 42 8 70q0 54 -32 68q-24 10 -88 10h-124l-60 -342q-11 -62 -11 -80q0 -34 19 -48q17 -12 88 -12h170q137 0 173 41q25 28 60 144h165l-69 -361h-752q-31 0 -198 -3q-41 0 -124 -1
l21 119q61 11 79 16q48 14 67 66q17 47 30 117zM917 582l115 655h-78l-453 -655h416z" />
    <glyph glyph-name="Oslash" unicode="&#xd8;" horiz-adv-x="1399" vert-adv-y="2457" 
d="M167 211q-66 129 -66 319q0 171 53 354q82 279 259 420q170 136 411 136q252 0 399 -131l134 141l96 -98l-146 -153q67 -134 67 -316q0 -168 -55 -354q-81 -279 -259 -422q-167 -134 -413 -134q-247 0 -394 128l-133 -140l-98 98zM392 442l659 691q-58 139 -212 139
q-243 0 -364 -318q-84 -224 -84 -462q0 -15 1 -50zM423 276q24 -49 48 -74q59 -61 167 -61q168 0 275 152q102 145 149 389q23 121 23 228q0 24 -2 59z" />
    <glyph glyph-name="infinity" unicode="&#x221e;" horiz-adv-x="1572" vert-adv-y="2457" 
d="M824 565q-58 -67 -101 -101q-113 -87 -269 -87q-177 0 -276 100q-91 92 -91 239t91 239q99 100 276 100q166 0 285 -100q36 -30 85 -87q58 67 102 100q114 87 269 87q178 0 277 -100q91 -92 91 -239t-91 -239q-99 -100 -277 -100q-166 0 -285 100q-35 29 -86 88zM742 716
q-69 78 -109 112q-85 74 -165 74q-72 0 -116 -50q-43 -49 -43 -136t44 -137q43 -49 111 -49q95 0 185 87q11 11 57 61q9 10 36 38zM906 716q23 -22 74 -78q100 -108 203 -108q71 0 114 49q44 50 44 137t-43 136q-44 50 -117 50q-88 0 -180 -86q-13 -11 -58 -61
q-8 -9 -37 -39z" />
    <glyph glyph-name="plusminus" unicode="&#xb1;" vert-adv-y="2457" 
d="M149 674l49 180h347l63 360h225l-63 -360h357l-49 -180h-340l-63 -356h-225l63 356h-364zM30 0l49 180h929l-49 -180h-929z" />
    <glyph glyph-name="lessequal" unicode="&#x2264;" vert-adv-y="2457" 
d="M53 0l28 157h892l-27 -157h-893zM453 758l580 -266l-33 -183l-819 414l15 85l965 413l-35 -197z" />
    <glyph glyph-name="greaterequal" unicode="&#x2265;" vert-adv-y="2457" 
d="M62 0l28 157h892l-27 -157h-893zM824 771l-579 267l32 183l820 -414l-15 -86l-965 -413l35 197z" />
    <glyph glyph-name="yen" unicode="&#xa5;" vert-adv-y="2457" 
d="M441 450l14 86l-10 31h-315l21 117h260l-122 408q-39 129 -65 161q-22 28 -107 45l21 119q175 -8 263 -8q87 0 261 8l-21 -119q-53 -11 -71 -20q-35 -19 -35 -63q0 -31 20 -103l42 -152q22 -79 51 -214q72 128 122 208l105 167q56 90 56 128q0 21 -27 34q-9 4 -50 15
l21 119q166 -8 249 -8t249 8l-21 -119q-91 -17 -122 -42q-38 -30 -124 -161l-273 -411h268l-21 -117h-322l-21 -31l-14 -86h337l-21 -117h-337l-3 -18q-10 -55 -10 -112t45 -72q16 -5 84 -16l-21 -119q-197 8 -296 8q-98 0 -295 -8l21 119q26 4 40 6q59 9 82 25
q43 29 68 169l3 18h-331l21 117h331z" />
    <glyph glyph-name="mu" unicode="&#xb5;" vert-adv-y="2457" 
d="M-22 -510l261 1481h269l-107 -608q-15 -84 -15 -121q0 -103 74 -103q102 0 256 175l116 657h268l-171 -971h-256l14 125q-143 -149 -267 -149q-45 0 -84 19l-81 -457z" />
    <glyph glyph-name="partialdiff" unicode="&#x2202;" horiz-adv-x="1179" vert-adv-y="2457" 
d="M815 946q-28 152 -101 246q-95 124 -292 155l49 131q264 -34 393 -139q113 -91 170 -250q59 -163 59 -375q0 -186 -46 -341q-61 -209 -220 -315q-127 -85 -302 -85q-203 0 -319 109q-112 106 -112 297q0 132 47 260q66 179 217 274q114 72 260 72q107 0 197 -39zM651 821
q-136 0 -215 -169q-64 -136 -64 -300q0 -96 37 -155q38 -61 119 -61q135 0 214 168q28 61 46 147q17 83 17 153q0 98 -37 157q-39 60 -117 60z" />
    <glyph glyph-name="summation" unicode="&#x2211;" vert-adv-y="2457" 
d="M1329 1570l-31 -176h-776l304 -833l-629 -920h815l-31 -176h-1118l36 205l614 890l-301 809l36 201h1081z" />
    <glyph glyph-name="product" unicode="&#x220f;" horiz-adv-x="1572" vert-adv-y="2457" 
d="M1204 1394h-518l-340 -1929h-282l371 2105h1082l-371 -2105h-282z" />
    <glyph glyph-name="pi" unicode="&#x3c0;" horiz-adv-x="1283" vert-adv-y="2457" 
d="M298 812h-42q-52 0 -86 -13q-17 -6 -49 -23l-45 107l53 30q86 49 126 60q40 10 137 10h766q48 0 74 9q15 6 43 21l45 -107l-73 -40q-62 -35 -90 -43q-32 -10 -67 -11l-73 -420q-25 -140 -25 -181q0 -76 78 -76q40 0 93 23l-17 -163q-95 -22 -190 -22q-130 0 -188 48
q-51 43 -51 134q0 51 27 204l80 453h-262l-50 -288q-49 -275 -109 -525h-268q57 208 114 535z" />
    <glyph glyph-name="integral" unicode="&#x222b;" horiz-adv-x="1172" vert-adv-y="2457" 
d="M53 -470l68 170q50 -25 86 -25q66 0 98 67q22 48 55 233l184 1049q30 172 53 265q40 155 128 230q83 70 220 70q95 0 192 -29l-68 -170q-50 25 -86 25q-65 0 -98 -67q-21 -46 -54 -231l-184 -1051q-31 -174 -55 -268q-77 -296 -348 -296q-98 0 -191 28z" />
    <glyph glyph-name="ordfeminine" unicode="&#xaa;" horiz-adv-x="799" vert-adv-y="2457" 
d="M581 1207l2 12q5 28 5 48q0 65 -89 65q-80 0 -182 -40l-7 112q116 34 227 34q257 0 257 -162q0 -41 -16 -133l-53 -300h-172l1 53q-31 -28 -52 -40q-54 -29 -133 -29q-99 0 -153 46q-44 37 -44 110q0 146 153 194q70 22 256 30zM570 1121q-92 -5 -128 -20
q-68 -29 -68 -113q0 -58 57 -58q54 0 91 41q26 29 37 90z" />
    <glyph glyph-name="ordmasculine" unicode="&#xba;" horiz-adv-x="799" vert-adv-y="2457" 
d="M547 1438q131 0 204 -64q79 -71 79 -195q0 -145 -79 -239q-95 -113 -270 -113q-144 0 -217 72q-70 68 -70 186q0 160 97 258q94 95 256 95zM549 1334q-74 0 -118 -99q-37 -83 -37 -186q0 -118 82 -118q72 0 117 99q37 82 37 185q0 119 -81 119z" />
    <glyph glyph-name="uni2126" unicode="&#x2126;" horiz-adv-x="1510" vert-adv-y="2457" 
d="M-29 0l41 232h106q22 -32 33 -39q34 -22 128 -22h126l11 62q-107 52 -168 115q-107 111 -107 313q0 160 54 310q83 228 276 356q174 115 414 115q296 0 451 -159q135 -138 135 -371q0 -180 -73 -349q-71 -166 -234 -259q-65 -36 -160 -71l-11 -62h127q93 0 135 22
q14 7 46 39h106l-41 -232h-613l54 301q174 73 256 192q54 78 87 211q30 121 30 222q0 160 -79 252q-79 93 -227 93q-235 0 -355 -246q-40 -82 -64 -196q-23 -110 -23 -206q0 -150 80 -242q45 -51 123 -92l-51 -289h-613z" />
    <glyph glyph-name="ae" unicode="&#xe6;" horiz-adv-x="1647" vert-adv-y="2457" 
d="M914 900q42 37 103 64q105 46 220 46q188 0 292 -82q88 -70 88 -202q0 -173 -153 -247q-107 -52 -331 -75q-115 -11 -203 -13q-1 -13 -1 -19q-1 -31 -1 -45q0 -191 254 -191q159 0 301 62l36 -136q-164 -89 -394 -89q-202 0 -308 84q-45 35 -77 97q-159 -181 -404 -181
q-159 0 -244 74q-71 63 -71 184q0 136 88 229q95 101 295 132q75 11 269 15l22 1l6 32q7 43 7 84q0 67 -35 95q-36 28 -110 28q-99 0 -146 -43q-32 -30 -50 -87h-160l39 251q183 42 328 42q179 0 272 -53q36 -21 68 -57zM678 481q-177 -1 -249 -29q-73 -29 -103 -95
q-27 -57 -27 -118q0 -115 106 -115t184 90q53 61 72 172zM954 553q47 0 167 13q149 17 199 56q44 34 44 102q0 123 -139 123q-138 0 -211 -126q-36 -63 -60 -168z" />
    <glyph glyph-name="oslash" unicode="&#xf8;" horiz-adv-x="1117" vert-adv-y="2457" 
d="M127 149q-62 101 -62 243q0 132 48 263q65 181 212 274q126 81 285 81q186 0 295 -85l115 115l87 -87l-118 -119q62 -101 62 -244q0 -128 -47 -258q-65 -181 -208 -276q-126 -83 -297 -83q-175 0 -286 85l-116 -115l-89 87zM348 366l398 402q-40 79 -130 79
q-160 0 -236 -251q-29 -97 -32 -230zM369 212q39 -76 131 -76q173 0 244 280q23 91 24 201z" />
    <glyph glyph-name="questiondown" unicode="&#xbf;" horiz-adv-x="937" vert-adv-y="2457" 
d="M414 536h249l-15 -85q-17 -97 -38 -139q-28 -55 -145 -160q-142 -127 -182 -193q-46 -75 -46 -151q0 -130 154 -130q120 0 303 80l-7 -191q-165 -52 -347 -52q-198 0 -296 78q-92 74 -92 206t85 247q48 65 189 185q113 97 134 127q30 40 43 119zM585 1004q80 0 132 -58
q43 -49 43 -111q0 -71 -56 -122q-49 -45 -122 -45q-78 0 -129 58q-43 49 -43 110q0 71 56 123q49 45 119 45z" />
    <glyph glyph-name="exclamdown" unicode="&#xa1;" horiz-adv-x="733" vert-adv-y="2457" 
d="M491 537l-137 -996h-310l213 996h234zM432 1012q77 0 129 -58q43 -49 43 -110q0 -73 -56 -124q-49 -45 -119 -45q-81 0 -133 58q-43 49 -43 112q0 70 57 122q48 45 122 45z" />
    <glyph glyph-name="logicalnot" unicode="&#xac;" vert-adv-y="2457" 
d="M171 634l28 157h854l-101 -572h-233l73 415h-621z" />
    <glyph glyph-name="radical" unicode="&#x221a;" horiz-adv-x="1179" vert-adv-y="2457" 
d="M250 0l-54 598h-142l31 175h345l17 -232q4 -64 9 -291q74 195 170 412l503 1152h596l-33 -183h-373l-733 -1631h-336z" />
    <glyph glyph-name="florin" unicode="&#x192;" vert-adv-y="2457" 
d="M421 617h-187l30 171h187l45 255q36 210 111 289q53 56 126 81q68 22 177 22q149 0 295 -52l-55 -280h-154q5 36 5 64q0 59 -20 81q-20 23 -66 23q-65 0 -93 -66q-16 -38 -43 -190l-40 -227h259l-30 -171h-259l-120 -682q-37 -211 -107 -290q-52 -57 -123 -82
q-65 -22 -171 -22q-154 0 -304 53l55 281h154q-4 -43 -4 -71q0 -99 83 -99q60 0 91 68q15 35 42 190z" />
    <glyph glyph-name="approxequal" unicode="&#x2248;" vert-adv-y="2457" 
d="M338 771l-152 38q54 117 104 171q96 105 239 105q77 0 131 -35q25 -16 89 -67q48 -39 87 -39q57 0 105 65q16 22 44 74l152 -37q-54 -117 -103 -170q-98 -107 -240 -107q-76 0 -137 39q-26 17 -85 64q-46 38 -87 38q-51 0 -97 -59q-19 -23 -50 -80zM262 341l-152 37
q54 117 104 172q96 105 240 105q76 0 130 -35q25 -16 89 -67q49 -39 88 -39q56 0 104 65q16 21 44 73l152 -37q-53 -115 -103 -169q-97 -107 -240 -107q-77 0 -137 39q-26 17 -85 64q-46 38 -86 38q-52 0 -98 -59q-19 -23 -50 -80z" />
    <glyph glyph-name="Delta" unicode="&#x2206;" horiz-adv-x="1165" vert-adv-y="2457" 
d="M1161 0h-1350l773 1413h304zM847 173l-128 734l-12 67q-9 52 -27 181q-52 -111 -121 -243l-387 -739h675z" />
    <glyph glyph-name="guillemotleft" unicode="&#xab;" horiz-adv-x="1002" vert-adv-y="2457" 
d="M346 544l121 -319l-110 -69l-282 394l5 30l422 394l80 -103zM775 544l121 -319l-110 -69l-282 394l5 30l422 394l80 -103z" />
    <glyph glyph-name="guillemotright" unicode="&#xbb;" horiz-adv-x="1002" vert-adv-y="2457" 
d="M252 586l-121 319l110 69l283 -394l-6 -30l-421 -394l-80 104zM681 586l-121 319l110 69l283 -394l-6 -30l-422 -394l-79 104z" />
    <glyph glyph-name="ellipsis" unicode="&#x2026;" horiz-adv-x="1690" vert-adv-y="2457" 
d="M269 308q77 0 129 -58q43 -49 43 -110q0 -73 -56 -124q-49 -45 -119 -45q-81 0 -132 58q-43 49 -43 112q0 70 56 122q49 45 122 45zM830 308q77 0 129 -58q43 -49 43 -110q0 -73 -56 -124q-49 -45 -119 -45q-81 0 -132 58q-43 49 -43 111q0 71 56 123q49 45 122 45z
M1391 308q77 0 129 -58q43 -49 43 -110q0 -73 -56 -124q-49 -45 -119 -45q-81 0 -133 58q-43 49 -43 112q0 70 56 122q49 45 123 45z" />
    <glyph glyph-name="glyph172" vert-adv-y="1180" 
 />
    <glyph glyph-name="Agrave" unicode="&#xc0;" horiz-adv-x="1428" vert-adv-y="2457" 
d="M932 384h-526l-54 -105q-35 -69 -35 -109q0 -28 27 -39q14 -6 58 -16l-21 -119q-168 8 -251 8q-85 0 -253 -8l21 119q98 17 129 44q34 30 102 157l613 1097h262l216 -1097q17 -90 29 -120q18 -48 61 -64q24 -8 72 -17l-21 -119q-180 8 -270 8t-271 -8l21 119q65 15 82 26
q31 21 31 71q0 39 -7 83zM903 555l-99 587l-309 -587h408zM831 1563l-225 291h301l119 -291h-195z" />
    <glyph glyph-name="Atilde" unicode="&#xc3;" horiz-adv-x="1428" vert-adv-y="2457" 
d="M932 384h-526l-54 -105q-35 -69 -35 -109q0 -28 27 -39q14 -6 58 -16l-21 -119q-168 8 -251 8q-85 0 -253 -8l21 119q98 17 129 44q34 30 102 157l613 1097h262l216 -1097q17 -90 29 -120q18 -48 61 -64q24 -8 72 -17l-21 -119q-180 8 -270 8t-271 -8l21 119q65 15 82 26
q31 21 31 71q0 39 -7 83zM903 555l-99 587l-309 -587h408zM650 1566h-177q45 134 97 205q82 109 199 109q61 0 112 -29q28 -16 75 -70q47 -53 74 -53q52 0 92 139h179q-35 -132 -82 -201q-78 -114 -213 -114q-81 0 -134 45q-14 12 -56 61q-40 46 -65 46q-35 0 -68 -58
q-10 -20 -33 -80z" />
    <glyph glyph-name="Otilde" unicode="&#xd5;" horiz-adv-x="1399" vert-adv-y="2457" 
d="M840 1440q170 0 297 -69q131 -70 189 -215q47 -119 47 -265q0 -176 -55 -362q-81 -279 -258 -422q-168 -134 -416 -134q-266 0 -405 138q-138 138 -138 410q0 181 53 363q164 556 686 556zM842 1269q-223 0 -345 -273q-45 -100 -75 -248t-30 -271q0 -154 61 -245
q59 -88 185 -88q217 0 339 274q44 98 75 248q30 147 30 267q0 137 -52 231q-59 105 -188 105zM662 1566h-177q45 134 97 205q82 109 199 109q61 0 112 -29q28 -16 75 -70q47 -53 74 -53q52 0 92 139h179q-35 -132 -82 -201q-78 -114 -213 -114q-81 0 -134 45q-14 12 -56 61
q-40 46 -65 46q-35 0 -68 -58q-10 -20 -33 -80z" />
    <glyph glyph-name="OE" unicode="&#x152;" horiz-adv-x="1840" vert-adv-y="2457" 
d="M1717 0h-878q-241 0 -317 12q-417 68 -417 529q0 268 115 491q135 263 377 341q114 37 252 39q46 1 171 1h932l-57 -353h-165q3 39 3 70q0 68 -33 88q-31 19 -130 19h-286l-76 -432h130q86 0 114 29q28 28 41 103h148q-44 -210 -75 -427h-148q7 42 7 70q0 53 -32 68
q-23 10 -86 10h-125l-61 -348q-10 -56 -10 -75q0 -33 20 -47q17 -12 74 -12h182q137 0 173 41q23 27 60 144h165zM814 171l188 1066h-72q-128 0 -189 -19q-152 -48 -248 -248q-48 -99 -74 -234q-24 -122 -24 -223q0 -206 107 -291q47 -38 129 -47q33 -4 111 -4h72z" />
    <glyph glyph-name="oe" unicode="&#x153;" horiz-adv-x="1735" vert-adv-y="2457" 
d="M947 844q144 166 381 166q186 0 290 -82q88 -70 88 -203q0 -172 -154 -246q-106 -52 -331 -75q-114 -12 -203 -13q-2 -48 -2 -63q0 -91 53 -138q61 -54 201 -54q157 0 302 62l36 -136q-53 -28 -116 -48q-138 -41 -275 -41q-183 0 -285 67q-44 29 -82 91q-59 -58 -98 -84
q-113 -74 -275 -74q-197 0 -308 115q-104 109 -104 296q0 139 47 271q64 180 206 274q121 81 279 81q115 0 208 -40q65 -28 116 -92q7 -10 26 -34zM621 847q-137 0 -214 -176q-64 -146 -64 -319q0 -216 157 -216q136 0 212 176q64 147 64 315q0 98 -35 155q-39 65 -120 65z
M1043 552q47 0 167 14q149 17 199 56q44 34 44 102q0 123 -139 123q-138 0 -211 -127q-36 -61 -60 -168z" />
    <glyph glyph-name="endash" unicode="&#x2013;" horiz-adv-x="1175" vert-adv-y="2457" 
d="M132 543l34 194h928l-35 -194h-927z" />
    <glyph glyph-name="emdash" unicode="&#x2014;" horiz-adv-x="1024" vert-adv-y="2457" 
d="M-99 543l34 194h1239l-35 -194h-1238z" />
    <glyph glyph-name="quotedblleft" unicode="&#x201c;" horiz-adv-x="1020" vert-adv-y="2457" 
d="M466 1176q86 -52 86 -144q0 -73 -56 -124q-49 -45 -122 -45q-82 0 -133 53q-41 44 -41 105q0 90 86 197q80 101 165 176q14 12 93 77h143l-19 -20q-96 -104 -136 -161q-37 -55 -66 -114zM923 1176q87 -51 87 -144q0 -73 -56 -124q-49 -45 -122 -45q-82 0 -133 53
q-41 44 -41 105q0 90 86 197q81 101 165 176q13 12 93 77h143l-19 -20q-97 -104 -136 -161q-35 -51 -67 -114z" />
    <glyph glyph-name="quotedblright" unicode="&#x201d;" horiz-adv-x="1020" vert-adv-y="2457" 
d="M334 1158q-86 53 -86 144q0 73 56 124q49 45 122 45q82 0 133 -53q41 -44 41 -105q0 -170 -345 -450h-142l19 20q96 103 136 161q33 48 66 114zM792 1158q-87 54 -87 143q0 74 56 125q49 45 122 45q82 0 133 -53q41 -44 41 -105q0 -170 -344 -450h-143l19 20
q96 103 136 161q33 48 67 114z" />
    <glyph glyph-name="quoteleft" unicode="&#x2018;" horiz-adv-x="562" vert-adv-y="2457" 
d="M466 1176q86 -52 86 -144q0 -73 -56 -124q-49 -45 -122 -45q-82 0 -133 53q-41 44 -41 105q0 90 86 197q80 101 165 176q14 12 93 77h143l-19 -20q-96 -104 -136 -161q-37 -55 -66 -114z" />
    <glyph glyph-name="quoteright" unicode="&#x2019;" horiz-adv-x="562" vert-adv-y="2457" 
d="M334 1158q-86 53 -86 144q0 73 56 124q49 45 122 45q82 0 133 -53q41 -44 41 -105q0 -170 -345 -450h-142l19 20q96 103 136 161q33 48 66 114z" />
    <glyph glyph-name="divide" unicode="&#xf7;" vert-adv-y="2457" 
d="M140 621l49 180h929l-49 -180h-929zM701 1255q69 0 117 -53q41 -46 41 -99q0 -63 -53 -112q-45 -41 -108 -41q-72 0 -120 53q-41 46 -41 100q0 62 53 111q46 41 111 41zM563 473q69 0 117 -53q41 -46 41 -99q0 -63 -53 -112q-45 -41 -108 -41q-72 0 -120 53
q-41 46 -41 101q0 61 53 110q45 41 111 41z" />
    <glyph glyph-name="lozenge" unicode="&#x25ca;" vert-adv-y="2457" 
d="M46 707l581 756l581 -756l-581 -757zM368 707l259 -361l259 361l-259 360z" />
    <glyph glyph-name="ydieresis" unicode="&#xff;" horiz-adv-x="1045" vert-adv-y="2457" 
d="M279 0l-92 627q-16 113 -27 143q-12 32 -30 44q-17 10 -53 10q-26 0 -62 -4l22 126q206 20 337 62q44 -129 76 -425l38 -364q96 152 177 310q106 207 106 277q0 28 -27 41q-20 10 -80 21l25 119q137 -6 203 -6q54 0 158 3l-10 -89q-10 -97 -53 -195q-80 -178 -314 -569
q-205 -343 -342 -471q-149 -140 -325 -140q-91 0 -180 35l44 154q65 -27 130 -27q81 0 140 50q90 76 210 268h-71zM386 1437q65 0 110 -44q44 -43 44 -104q0 -60 -44 -104t-110 -44t-111 44q-44 44 -44 106q0 59 44 102q46 44 111 44zM793 1437q65 0 110 -44q44 -43 44 -104
t-44 -104q-44 -44 -110 -44q-67 0 -111 44t-44 106q0 60 44 102q46 44 111 44z" />
    <glyph glyph-name="Ydieresis" unicode="&#x178;" horiz-adv-x="1120" vert-adv-y="2457" 
d="M173 -4l21 119q26 5 39 7q54 8 77.5 22.5t37.5 47.5q24 53 42 157l33 190l-167 553q-39 129 -64 161q-22 28 -108 45l21 119q175 -8 263 -8q87 0 261 8l-21 -119q-55 -12 -72 -21q-34 -19 -34 -57q0 -35 18 -100l44 -160q24 -87 51 -214q59 106 122 208l100 159
q61 98 61 138q0 30 -77 47l21 119q166 -8 249 -8t249 8l-21 -119q-90 -17 -122 -42q-36 -29 -123 -161l-369 -555l-33 -191q-15 -84 -15 -143q0 -52 36 -70q16 -8 92 -21l-21 -119q-197 8 -296 8q-98 0 -295 -8zM539 1860q65 0 110 -44q44 -44 44 -104t-44 -104t-110 -44
q-67 0 -111 44t-44 106q0 60 44 102q46 44 111 44zM971 1860q66 0 111 -44q44 -44 44 -104t-44 -104q-45 -44 -110 -44q-66 0 -111 44q-44 44 -44 106q0 60 44 102q46 44 110 44z" />
    <glyph glyph-name="fraction" unicode="&#x2044;" horiz-adv-x="266" vert-adv-y="2457" 
d="M-391 0l939 1413h184l-939 -1413h-184z" />
    <glyph glyph-name="currency" unicode="&#xa4;" vert-adv-y="2457" 
d="M113 85l-128 122l176 186q-30 49 -37 62q-49 93 -49 201q0 107 49 199q7 12 37 62l-176 186l128 122l177 -189q48 29 85 43q71 28 170 28q112 0 192 -38q24 -11 60 -33l176 189l129 -122l-177 -186q31 -49 37 -62q49 -93 49 -200t-49 -200q-7 -15 -37 -62l177 -186
l-129 -122l-176 189q-44 -27 -76 -40q-74 -30 -177 -30q-111 0 -192 36q-25 12 -62 34zM546 950q-111 0 -170 -86q-55 -79 -55 -210q0 -127 55 -207q59 -86 167 -86q107 0 167 86q55 80 55 209q0 130 -55 208q-61 86 -164 86z" />
    <glyph glyph-name="currency" unicode="&#x20ac;" vert-adv-y="2457" 
d="M113 85l-128 122l176 186q-30 49 -37 62q-49 93 -49 201q0 107 49 199q7 12 37 62l-176 186l128 122l177 -189q48 29 85 43q71 28 170 28q112 0 192 -38q24 -11 60 -33l176 189l129 -122l-177 -186q31 -49 37 -62q49 -93 49 -200t-49 -200q-7 -15 -37 -62l177 -186
l-129 -122l-176 189q-44 -27 -76 -40q-74 -30 -177 -30q-111 0 -192 36q-25 12 -62 34zM546 950q-111 0 -170 -86q-55 -79 -55 -210q0 -127 55 -207q59 -86 167 -86q107 0 167 86q55 80 55 209q0 130 -55 208q-61 86 -164 86z" />
    <glyph glyph-name="guilsinglleft" unicode="&#x2039;" horiz-adv-x="560" vert-adv-y="2457" 
d="M339 544l121 -319l-110 -69l-282 394l5 30l422 394l80 -103z" />
    <glyph glyph-name="guilsinglright" unicode="&#x203a;" horiz-adv-x="560" vert-adv-y="2457" 
d="M245 586l-121 319l110 69l283 -394l-6 -30l-421 -394l-80 104z" />
    <glyph glyph-name="daggerdbl" unicode="&#x2021;" horiz-adv-x="1148" vert-adv-y="2457" 
d="M483 775h-326l45 190h315l79 448h280l-79 -448h328l-46 -190h-316l-80 -456h328l-46 -190h-316l-91 -522h-281l92 522h-326l45 190h315z" />
    <glyph glyph-name="periodcentered" unicode="&#xb7;" horiz-adv-x="561" vert-adv-y="2457" 
d="M309 810q77 0 129 -58q43 -49 43 -111q0 -72 -56 -123q-49 -45 -119 -45q-80 0 -132 58q-43 49 -43 112q0 70 56 122q49 45 122 45z" />
    <glyph glyph-name="quotesinglbase" unicode="&#x201a;" horiz-adv-x="562" vert-adv-y="2457" 
d="M170 -5q-86 52 -86 144q0 73 56 124q49 45 123 45q81 0 132 -53q41 -44 41 -105q0 -170 -345 -450h-142l19 20q97 105 136 161q34 50 66 114z" />
    <glyph glyph-name="quotedblbase" unicode="&#x201e;" horiz-adv-x="1020" vert-adv-y="2457" 
d="M129 -5q-86 52 -86 144q0 73 56 124q49 45 123 45q81 0 132 -53q41 -44 41 -105q0 -170 -345 -450h-142l19 20q97 105 136 161q34 50 66 114zM587 -5q-87 55 -87 143q0 74 56 125q49 45 122 45q82 0 133 -53q41 -44 41 -105q0 -170 -344 -450h-143l19 20q97 104 136 161
q36 52 67 114z" />
    <glyph glyph-name="perthousand" unicode="&#x2030;" horiz-adv-x="2745" vert-adv-y="2457" 
d="M626 1442q171 0 255 -97q68 -78 68 -205q0 -181 -91 -305q-111 -151 -327 -151q-148 0 -233 68q-99 78 -99 234q0 104 39 205q99 251 388 251zM618 1311q-81 0 -130 -123q-44 -113 -44 -234q0 -139 87 -139q80 0 129 123q44 112 44 236q0 137 -86 137zM465 0l854 1413
h232l-855 -1413h-231zM1488 728q170 0 254 -96q68 -79 68 -206q0 -181 -91 -305q-111 -151 -327 -151q-148 0 -233 68q-99 79 -99 235q0 103 39 203q99 252 389 252zM1479 597q-81 0 -130 -123q-44 -113 -44 -234q0 -139 88 -139q79 0 128 123q44 113 44 235q0 138 -86 138z
M2298 728q170 0 254 -97q68 -79 68 -204q0 -182 -91 -306q-112 -151 -327 -151q-148 0 -233 68q-99 78 -99 235q0 103 40 203q99 252 388 252zM2290 597q-82 0 -131 -123q-44 -112 -44 -234q0 -139 87 -139q80 0 129 123q44 113 44 235q0 138 -85 138z" />
    <glyph glyph-name="Acircumflex" unicode="&#xc2;" horiz-adv-x="1428" vert-adv-y="2457" 
d="M932 384h-526l-54 -105q-35 -69 -35 -109q0 -28 27 -39q14 -6 58 -16l-21 -119q-168 8 -251 8q-85 0 -253 -8l21 119q98 17 129 44q34 30 102 157l613 1097h262l216 -1097q17 -90 29 -120q18 -48 61 -64q24 -8 72 -17l-21 -119q-180 8 -270 8t-271 -8l21 119q65 15 82 26
q31 21 31 71q0 39 -7 83zM903 555l-99 587l-309 -587h408zM906 1730l-197 -166h-218l276 290h307l174 -290h-204z" />
    <glyph glyph-name="Ecircumflex" unicode="&#xca;" vert-adv-y="2457" 
d="M-45 -4l21 119q23 4 35 7q57 10 78 26q40 33 69 201l121 689q21 118 21 173q0 51 -35 67q-20 9 -81 20l22 119q192 -4 271 -4h816l-57 -353h-165q4 35 4 62q0 72 -26 92q-31 23 -128 23h-324l-76 -432h157q86 0 115 29q26 26 41 103h148q-44 -213 -77 -433h-147
q8 46 8 76q0 54 -34 68q-25 10 -96 10h-141l-61 -345q-11 -61 -11 -80q0 -32 22 -45q19 -12 87 -12h197q136 0 173 41q23 26 59 144h165l-69 -361h-779q-32 0 -199 -3q-41 0 -124 -1zM812 1730l-197 -166h-218l276 290h307l174 -290h-204z" />
    <glyph glyph-name="Aacute" unicode="&#xc1;" horiz-adv-x="1428" vert-adv-y="2457" 
d="M932 384h-526l-54 -105q-35 -69 -35 -109q0 -28 27 -39q14 -6 58 -16l-21 -119q-168 8 -251 8q-85 0 -253 -8l21 119q98 17 129 44q34 30 102 157l613 1097h262l216 -1097q17 -90 29 -120q18 -48 61 -64q24 -8 72 -17l-21 -119q-180 8 -270 8t-271 -8l21 119q65 15 82 26
q31 21 31 71q0 39 -7 83zM903 555l-99 587l-309 -587h408zM757 1564l221 290h315l-327 -290h-209z" />
    <glyph glyph-name="Edieresis" unicode="&#xcb;" vert-adv-y="2457" 
d="M-45 -4l21 119q23 4 35 7q57 10 78 26q40 33 69 201l121 689q21 118 21 173q0 51 -35 67q-20 9 -81 20l22 119q192 -4 271 -4h816l-57 -353h-165q4 35 4 62q0 72 -26 92q-31 23 -128 23h-324l-76 -432h157q86 0 115 29q26 26 41 103h148q-44 -213 -77 -433h-147
q8 46 8 76q0 54 -34 68q-25 10 -96 10h-141l-61 -345q-11 -61 -11 -80q0 -32 22 -45q19 -12 87 -12h197q136 0 173 41q23 26 59 144h165l-69 -361h-779q-32 0 -199 -3q-41 0 -124 -1zM573 1860q65 0 110 -44q44 -44 44 -104t-44 -104t-110 -44t-111 44q-44 44 -44 106
q0 59 44 102q46 44 111 44zM1006 1860q65 0 110 -44q44 -44 44 -104t-44 -104q-45 -44 -110 -44q-67 0 -111 44t-44 106q0 59 44 102q46 44 111 44z" />
    <glyph glyph-name="Egrave" unicode="&#xc8;" vert-adv-y="2457" 
d="M-45 -4l21 119q23 4 35 7q57 10 78 26q40 33 69 201l121 689q21 118 21 173q0 51 -35 67q-20 9 -81 20l22 119q192 -4 271 -4h816l-57 -353h-165q4 35 4 62q0 72 -26 92q-31 23 -128 23h-324l-76 -432h157q86 0 115 29q26 26 41 103h148q-44 -213 -77 -433h-147
q8 46 8 76q0 54 -34 68q-25 10 -96 10h-141l-61 -345q-11 -61 -11 -80q0 -32 22 -45q19 -12 87 -12h197q136 0 173 41q23 26 59 144h165l-69 -361h-779q-32 0 -199 -3q-41 0 -124 -1zM772 1563l-225 291h301l119 -291h-195z" />
    <glyph glyph-name="Iacute" unicode="&#xcd;" horiz-adv-x="650" vert-adv-y="2457" 
d="M-45 -4l21 119q23 5 35 7q57 10 78 27q40 32 69 200l126 715q16 91 16 148q0 46 -27 62q-15 9 -89 24l22 119q187 -8 281 -8t282 8l-21 -119q-23 -4 -35 -7q-51 -9 -72 -22.5t-35 -47.5q-22 -53 -40 -157l-126 -715q-16 -94 -16 -147q0 -47 27 -63q13 -8 89 -24l-21 -119
q-188 8 -282 8t-282 -8zM375 1564l221 290h315l-327 -290h-209z" />
    <glyph glyph-name="Icircumflex" unicode="&#xce;" horiz-adv-x="650" vert-adv-y="2457" 
d="M-45 -4l21 119q23 5 35 7q57 10 78 27q40 32 69 200l126 715q16 91 16 148q0 46 -27 62q-15 9 -89 24l22 119q187 -8 281 -8t282 8l-21 -119q-23 -4 -35 -7q-51 -9 -72 -22.5t-35 -47.5q-22 -53 -40 -157l-126 -715q-16 -94 -16 -147q0 -47 27 -63q13 -8 89 -24l-21 -119
q-188 8 -282 8t-282 -8zM523 1730l-197 -166h-218l276 290h307l174 -290h-204z" />
    <glyph glyph-name="Idieresis" unicode="&#xcf;" horiz-adv-x="650" vert-adv-y="2457" 
d="M-45 -4l21 119q23 5 35 7q57 10 78 27q40 32 69 200l126 715q16 91 16 148q0 46 -27 62q-15 9 -89 24l22 119q187 -8 281 -8t282 8l-21 -119q-23 -4 -35 -7q-51 -9 -72 -22.5t-35 -47.5q-22 -53 -40 -157l-126 -715q-16 -94 -16 -147q0 -47 27 -63q13 -8 89 -24l-21 -119
q-188 8 -282 8t-282 -8zM292 1860q65 0 110 -44q44 -44 44 -104t-44 -104t-110 -44q-67 0 -111 44t-44 106q0 59 44 102q46 44 111 44zM725 1860q65 0 110 -44q44 -44 44 -104t-44 -104t-110 -44q-67 0 -111 44t-44 106q0 60 44 102q46 44 111 44z" />
    <glyph glyph-name="Igrave" unicode="&#xcc;" horiz-adv-x="650" vert-adv-y="2457" 
d="M-45 -4l21 119q23 5 35 7q57 10 78 27q40 32 69 200l126 715q16 91 16 148q0 46 -27 62q-15 9 -89 24l22 119q187 -8 281 -8t282 8l-21 -119q-23 -4 -35 -7q-51 -9 -72 -22.5t-35 -47.5q-22 -53 -40 -157l-126 -715q-16 -94 -16 -147q0 -47 27 -63q13 -8 89 -24l-21 -119
q-188 8 -282 8t-282 -8zM450 1563l-225 291h301l119 -291h-195z" />
    <glyph glyph-name="Oacute" unicode="&#xd3;" horiz-adv-x="1399" vert-adv-y="2457" 
d="M840 1440q170 0 297 -69q131 -70 189 -215q47 -119 47 -265q0 -176 -55 -362q-81 -279 -258 -422q-168 -134 -416 -134q-266 0 -405 138q-138 138 -138 410q0 181 53 363q164 556 686 556zM842 1269q-223 0 -345 -273q-45 -100 -75 -248t-30 -271q0 -154 61 -245
q59 -88 185 -88q217 0 339 274q44 98 75 248q30 147 30 267q0 137 -52 231q-59 105 -188 105zM739 1564l221 290h315l-327 -290h-209z" />
    <glyph glyph-name="Ocircumflex" unicode="&#xd4;" horiz-adv-x="1399" vert-adv-y="2457" 
d="M840 1440q170 0 297 -69q131 -70 189 -215q47 -119 47 -265q0 -176 -55 -362q-81 -279 -258 -422q-168 -134 -416 -134q-266 0 -405 138q-138 138 -138 410q0 181 53 363q164 556 686 556zM842 1269q-223 0 -345 -273q-45 -100 -75 -248t-30 -271q0 -154 61 -245
q59 -88 185 -88q217 0 339 274q44 98 75 248q30 147 30 267q0 137 -52 231q-59 105 -188 105zM909 1730l-197 -166h-218l276 290h307l174 -290h-204z" />
    <glyph glyph-name="glyph210" horiz-adv-x="1709" vert-adv-y="2457" 
 />
    <glyph glyph-name="Ograve" unicode="&#xd2;" horiz-adv-x="1399" vert-adv-y="2457" 
d="M840 1440q170 0 297 -69q131 -70 189 -215q47 -119 47 -265q0 -176 -55 -362q-81 -279 -258 -422q-168 -134 -416 -134q-266 0 -405 138q-138 138 -138 410q0 181 53 363q164 556 686 556zM842 1269q-223 0 -345 -273q-45 -100 -75 -248t-30 -271q0 -154 61 -245
q59 -88 185 -88q217 0 339 274q44 98 75 248q30 147 30 267q0 137 -52 231q-59 105 -188 105zM855 1563l-225 291h301l119 -291h-195z" />
    <glyph glyph-name="Uacute" unicode="&#xda;" horiz-adv-x="1405" vert-adv-y="2457" 
d="M177 1298l21 119q188 -8 282 -8t281 8l-21 -119q-23 -4 -34 -7q-57 -10 -78 -27q-40 -32 -70 -200l-91 -519q-23 -131 -23 -204q0 -199 226 -199q187 0 265 135q38 66 68 237l97 550q16 91 16 148q0 46 -27 62q-14 9 -88 24l21 119q170 -8 255 -8q86 0 256 8l-21 -119
q-23 -4 -34 -7q-57 -10 -78 -27q-40 -32 -70 -200l-100 -572q-25 -138 -40 -185q-57 -181 -195 -261q-129 -75 -340 -75q-263 0 -392 113q-99 87 -99 247q0 95 29 258l83 475q16 89 16 148q0 46 -27 62q-14 9 -88 24zM761 1564l221 290h315l-327 -290h-209z" />
    <glyph glyph-name="Ucircumflex" unicode="&#xdb;" horiz-adv-x="1405" vert-adv-y="2457" 
d="M177 1298l21 119q188 -8 282 -8t281 8l-21 -119q-23 -4 -34 -7q-57 -10 -78 -27q-40 -32 -70 -200l-91 -519q-23 -131 -23 -204q0 -199 226 -199q187 0 265 135q38 66 68 237l97 550q16 91 16 148q0 46 -27 62q-14 9 -88 24l21 119q170 -8 255 -8q86 0 256 8l-21 -119
q-23 -4 -34 -7q-57 -10 -78 -27q-40 -32 -70 -200l-100 -572q-25 -138 -40 -185q-57 -181 -195 -261q-129 -75 -340 -75q-263 0 -392 113q-99 87 -99 247q0 95 29 258l83 475q16 89 16 148q0 46 -27 62q-14 9 -88 24zM907 1730l-197 -166h-218l276 290h307l174 -290h-204z
" />
    <glyph glyph-name="Ugrave" unicode="&#xd9;" horiz-adv-x="1405" vert-adv-y="2457" 
d="M177 1298l21 119q188 -8 282 -8t281 8l-21 -119q-23 -4 -34 -7q-57 -10 -78 -27q-40 -32 -70 -200l-91 -519q-23 -131 -23 -204q0 -199 226 -199q187 0 265 135q38 66 68 237l97 550q16 91 16 148q0 46 -27 62q-14 9 -88 24l21 119q170 -8 255 -8q86 0 256 8l-21 -119
q-23 -4 -34 -7q-57 -10 -78 -27q-40 -32 -70 -200l-100 -572q-25 -138 -40 -185q-57 -181 -195 -261q-129 -75 -340 -75q-263 0 -392 113q-99 87 -99 247q0 95 29 258l83 475q16 89 16 148q0 46 -27 62q-14 9 -88 24zM827 1563l-225 291h301l119 -291h-195z" />
    <glyph glyph-name="dotlessi" unicode="&#x131;" horiz-adv-x="623" vert-adv-y="2457" 
d="M90 815l21 121q241 23 412 72q-7 -205 -102 -667q-26 -125 -26 -169q0 -48 57 -48q44 0 98 29l41 -138q-109 -40 -238 -40q-121 0 -173 42q-52 41 -52 128q0 59 52 322q43 216 43 279q0 47 -22 62q-15 10 -56 10q-21 0 -55 -3z" />
    <glyph glyph-name="circumflex" unicode="&#x2c6;" horiz-adv-x="1024" vert-adv-y="2457" 
d="M657 1314l-197 -166h-218l276 290h307l174 -290h-204z" />
    <glyph glyph-name="tilde" unicode="&#x2dc;" horiz-adv-x="1024" vert-adv-y="2457" 
d="M417 1150h-177q45 135 97 204q82 109 199 109q62 0 112 -29q27 -15 75 -70q47 -53 74 -53q52 0 92 140h179q-35 -132 -82 -201q-79 -114 -213 -114q-81 0 -134 45q-15 12 -56 60q-41 46 -65 46q-35 0 -68 -58q-10 -17 -33 -79z" />
    <glyph glyph-name="macron" unicode="&#xaf;" horiz-adv-x="1024" vert-adv-y="2457" 
d="M299 1204l29 165h676l-29 -165h-676z" />
    <glyph glyph-name="breve" unicode="&#x2d8;" horiz-adv-x="1024" vert-adv-y="2457" 
d="M316 1457h186q-1 -15 -1 -23q0 -59 25 -91q33 -41 126 -41q122 0 172 70q23 32 39 85h192q-23 -123 -77 -191q-54 -70 -131 -101q-82 -34 -210 -34q-329 0 -329 243q0 32 8 83z" />
    <glyph glyph-name="dotaccent" unicode="&#x2d9;" horiz-adv-x="1024" vert-adv-y="2457" 
d="M653 1446q69 0 116 -47q47 -46 47 -110t-47 -110q-47 -47 -116 -47q-70 0 -117 47q-47 46 -47 112q0 63 47 108q48 47 117 47z" />
    <glyph glyph-name="ring" unicode="&#x2da;" horiz-adv-x="1024" vert-adv-y="2457" 
d="M668 1572q114 0 185 -62q72 -62 72 -158q0 -95 -73 -159q-72 -65 -188 -65t-188 65q-73 65 -73 159q0 97 72 158q72 62 193 62zM666 1488q-101 0 -101 -139q0 -137 99 -137t99 138q0 67 -26 102q-26 36 -71 36z" />
    <glyph glyph-name="cedilla" unicode="&#xb8;" horiz-adv-x="1024" vert-adv-y="2457" 
d="M402 1h132l-123 -146q84 -9 126 -31q81 -41 81 -144q0 -115 -88 -184q-74 -58 -212 -58q-118 0 -214 37l50 113q73 -36 129 -36q64 0 93 48q24 40 24 91q0 87 -98 87q-18 0 -47 -3l-7 40z" />
    <glyph glyph-name="hungarumlaut" unicode="&#x2dd;" horiz-adv-x="1024" vert-adv-y="2457" 
d="M322 1148l202 290h284l-295 -290h-191zM707 1148l202 290h284l-295 -290h-191z" />
    <glyph glyph-name="ogonek" unicode="&#x2db;" horiz-adv-x="1024" vert-adv-y="2457" 
d="M501 0h157q-133 -98 -185 -149q-107 -103 -107 -220q0 -87 109 -87q69 0 150 34l-1 -116q-102 -32 -200 -32q-278 0 -278 187q0 234 355 383z" />
    <glyph glyph-name="caron" unicode="&#x2c7;" horiz-adv-x="1024" vert-adv-y="2457" 
d="M650 1272l197 166h218l-277 -290h-306l-174 290h203z" />
    <glyph glyph-name="Lslash" unicode="&#x141;" horiz-adv-x="1078" vert-adv-y="2457" 
d="M-45 -4l21 119q23 4 35 7q57 10 78 26q40 34 69 201l15 84l-191 -110l32 179l191 110l79 453q16 90 16 147q0 46 -27 63q-15 9 -89 23l22 119q187 -8 281 -8t282 8l-21 -119q-23 -4 -35 -6q-51 -9 -72 -23t-35 -48q-22 -54 -40 -156l-49 -283l399 233l-31 -179l-400 -233
l-47 -269q-14 -87 -14 -101q0 -31 19 -44q18 -13 66 -13h125q93 0 134 13q51 16 74 77q10 27 31 95h165l-69 -361h-709q-179 0 -305 -4z" />
    <glyph glyph-name="lslash" unicode="&#x142;" horiz-adv-x="666" vert-adv-y="2457" 
d="M242 738l44 246q32 184 32 240q0 77 -70 77q-20 0 -61 -4l21 120q251 25 437 91l-107 -605l215 123l-32 -179l-215 -124l-63 -360q-22 -127 -22 -184q0 -55 58 -55q43 0 94 29l40 -138q-103 -40 -230 -40q-119 0 -172 42q-57 44 -57 135q0 81 27 235l29 171l-214 -124
l32 181z" />
    <glyph glyph-name="Scaron" unicode="&#x160;" horiz-adv-x="1066" vert-adv-y="2457" 
d="M-20 22l65 339h160q-2 -26 -2 -40q0 -92 29 -129q39 -48 188 -48q153 0 220 62q71 66 71 179q0 68 -35 109q-27 31 -68 54q-40 23 -107 57q-170 85 -246 170q-82 93 -82 229q0 202 134 321q69 61 159 88t222 27q190 0 388 -46l-62 -322h-161q1 22 1 39q0 69 -17 103
q-28 55 -142 55q-119 0 -181 -60q-63 -60 -63 -157q0 -72 51 -120q43 -41 172 -107q172 -89 232 -154q83 -91 83 -245q0 -209 -135 -329q-77 -69 -186 -98q-97 -26 -253 -26q-248 0 -435 49zM742 1688l197 166h218l-277 -290h-306l-174 290h203z" />
    <glyph glyph-name="scaron" unicode="&#x161;" horiz-adv-x="944" vert-adv-y="2457" 
d="M-9 15l57 298h160q-2 -26 -2 -44q0 -67 26 -96q35 -37 143 -37q225 0 225 128q0 45 -49 76q-39 25 -161 75q-145 60 -198 113q-64 63 -64 165q0 139 98 227q101 90 315 90q164 0 365 -42l-54 -280h-160q2 26 2 42q0 62 -27 86q-35 31 -124 31q-70 0 -115 -25
q-48 -28 -48 -82q0 -50 48 -82q38 -25 166 -80q130 -56 180 -97q78 -64 78 -176q0 -143 -99 -233q-110 -99 -363 -99q-203 0 -399 42zM606 1272l197 166h218l-277 -290h-306l-174 290h203z" />
    <glyph glyph-name="Zcaron" unicode="&#x17d;" horiz-adv-x="1083" vert-adv-y="2457" 
d="M-71 0l18 138l894 1099h-308q-117 0 -154 -41q-21 -24 -58 -136h-165l68 353h963l-14 -139l-903 -1098h385q125 0 161 41q23 27 59 144h166l-70 -361h-1042zM763 1688l197 166h218l-277 -290h-306l-174 290h203z" />
    <glyph glyph-name="zcaron" unicode="&#x17e;" horiz-adv-x="981" vert-adv-y="2457" 
d="M8 -18l-58 112l657 691q-33 6 -117 34q-70 23 -113 23q-63 0 -85 -48q-18 -39 -26 -123h-169q11 119 39 184q67 156 248 156q93 0 232 -44q110 -34 158 -34q68 0 152 52l42 -123l-623 -664q57 -10 141 -36q64 -20 114 -20q85 0 115 74q16 40 23 104h169
q-16 -124 -48 -189q-79 -158 -289 -158q-97 0 -235 45q-108 35 -156 35q-59 0 -113 -32q-20 -12 -58 -39zM594 1272l197 166h218l-277 -290h-306l-174 290h203z" />
    <glyph glyph-name="brokenbar" unicode="&#xa6;" vert-adv-y="2457" 
d="M521 853l99 560h260l-99 -560h-260zM371 0l93 528h260l-93 -528h-260z" />
    <glyph glyph-name="Eth" unicode="&#xd0;" horiz-adv-x="1354" vert-adv-y="2457" 
d="M212 656h-175l36 155h167l44 254q16 91 16 147q0 46 -27 63q-14 9 -89 23l22 119q140 -4 277 -4h245q300 0 437 -115q160 -134 160 -435q0 -184 -59 -366q-91 -278 -293 -399q-163 -98 -428 -98h-270q-161 0 -320 -4l21 119q23 4 35 7q57 10 78 26q40 33 69 200zM494 656
l-84 -480h95q159 0 251 51q133 74 209 275q69 181 69 372q0 216 -99 302q-51 44 -143 56q-41 5 -124 5h-71l-75 -426h273l-39 -155h-262z" />
    <glyph glyph-name="eth" unicode="&#xf0;" horiz-adv-x="1120" vert-adv-y="2457" 
d="M788 946q-29 159 -111 259l-208 -130l-50 90l178 111q-86 53 -202 71l49 131q196 -26 322 -93l200 126l50 -91l-159 -100q209 -194 209 -606q0 -187 -46 -341q-61 -209 -220 -315q-127 -85 -302 -85q-203 0 -319 109q-112 106 -112 297q0 132 47 260q66 179 217 274
q114 72 259 72q109 0 198 -39zM624 821q-136 0 -215 -169q-30 -62 -48 -151q-16 -81 -16 -149q0 -96 37 -155q38 -61 119 -61q135 0 214 168q28 61 46 147q17 83 17 153q0 98 -37 157q-39 60 -117 60z" />
    <glyph glyph-name="Yacute" unicode="&#xdd;" horiz-adv-x="1120" vert-adv-y="2457" 
d="M173 -4l21 119q26 5 39 7q54 8 77.5 22.5t37.5 47.5q24 53 42 157l33 190l-167 553q-39 129 -64 161q-22 28 -108 45l21 119q175 -8 263 -8q87 0 261 8l-21 -119q-55 -12 -72 -21q-34 -19 -34 -57q0 -35 18 -100l44 -160q24 -87 51 -214q59 106 122 208l100 159
q61 98 61 138q0 30 -77 47l21 119q166 -8 249 -8t249 8l-21 -119q-90 -17 -122 -42q-36 -29 -123 -161l-369 -555l-33 -191q-15 -84 -15 -143q0 -52 36 -70q16 -8 92 -21l-21 -119q-197 8 -296 8q-98 0 -295 -8zM632 1564l221 290h315l-327 -290h-209z" />
    <glyph glyph-name="yacute" unicode="&#xfd;" horiz-adv-x="1045" vert-adv-y="2457" 
d="M279 0l-92 627q-16 113 -27 143q-12 32 -30 44q-17 10 -53 10q-26 0 -62 -4l22 126q206 20 337 62q44 -129 76 -425l38 -364q96 152 177 310q106 207 106 277q0 28 -27 41q-20 10 -80 21l25 119q137 -6 203 -6q54 0 158 3l-10 -89q-10 -97 -53 -195q-80 -178 -314 -569
q-205 -343 -342 -471q-149 -140 -325 -140q-91 0 -180 35l44 154q65 -27 130 -27q81 0 140 50q90 76 210 268h-71zM481 1148l221 290h315l-327 -290h-209z" />
    <glyph glyph-name="Thorn" unicode="&#xde;" horiz-adv-x="1206" vert-adv-y="2457" 
d="M437 310l-4 -25q-9 -51 -9 -80q0 -54 50 -71q19 -6 96 -19l-21 -119q-198 8 -298 8q-98 0 -296 -8l21 119q23 5 35 7q57 10 78 27q40 32 69 200l126 715q16 91 16 148q0 50 -34 66q-17 8 -82 20l22 119q188 -8 282 -8t283 8l-22 -119q-84 -15 -105 -29q-41 -29 -54 -102
l-4 -24h79q276 0 389 -70q149 -93 149 -294q0 -234 -153 -357q-139 -112 -444 -112h-169zM468 481h135q169 0 237 73q78 84 78 229q0 106 -63 152q-52 37 -177 37h-123z" />
    <glyph glyph-name="thorn" unicode="&#xfe;" horiz-adv-x="1143" vert-adv-y="2457" 
d="M334 7l-20 -120q-17 -95 -17 -138q0 -48 22 -63q16 -11 63 -11q30 0 73 5l-21 -120q-246 -23 -427 -75q-3 29 -3 51q0 108 32 292l204 1156q33 188 33 241q0 76 -70 76q-20 0 -62 -4l22 120q251 25 436 91l-124 -703q79 100 118 131q91 75 203 75q150 0 221 -105
q66 -98 66 -270q0 -143 -45 -282q-121 -381 -492 -381q-104 0 -212 34zM367 191q32 -26 47 -34q41 -21 97 -21q151 0 231 187q64 148 64 317q0 209 -101 209q-62 0 -128 -83q-140 -176 -185 -434z" />
    <glyph glyph-name="minus" unicode="&#x2212;" vert-adv-y="2457" 
d="M140 621l49 180h929l-49 -180h-929z" />
    <glyph glyph-name="multiply" unicode="&#xd7;" vert-adv-y="2457" 
d="M488 712l-295 290l142 139l295 -290l291 286l142 -139l-291 -286l295 -290l-142 -139l-295 290l-291 -286l-141 140z" />
    <glyph glyph-name="onesuperior" unicode="&#xb9;" horiz-adv-x="765" vert-adv-y="2457" 
d="M170 767l17 95q108 9 140 21q39 14 55 65q9 26 18 78l78 447l-182 -44l23 128l248 65h150l-104 -587q-12 -68 -12 -105q0 -42 34 -53q24 -7 123 -15l-17 -95q-158 5 -286 5q-127 0 -285 -5z" />
    <glyph glyph-name="twosuperior" unicode="&#xb2;" horiz-adv-x="765" vert-adv-y="2457" 
d="M83 771l20 114l318 286q168 152 168 258q0 79 -89 79q-67 0 -100 -42q-20 -26 -32 -77h-135l34 209q133 36 243 36q301 0 301 -205q0 -107 -82 -201q-64 -73 -158 -153l-211 -179h156q72 0 90 32q14 24 32 87h133l-47 -244h-641z" />
    <glyph glyph-name="threesuperior" unicode="&#xb3;" horiz-adv-x="765" vert-adv-y="2457" 
d="M293 1147l24 134q41 -7 77 -7q105 0 152 48q43 44 43 108q0 79 -95 79q-69 0 -100 -37q-18 -20 -34 -70h-134l31 196q137 37 252 37q296 0 296 -195q0 -140 -167 -205q61 -25 87 -50q53 -50 53 -129q0 -96 -76 -168q-95 -90 -320 -118q-98 -12 -270 -18l10 125
q200 5 290 33q144 44 144 153q0 92 -146 92q-34 0 -117 -8z" />
    <glyph glyph-name="onehalf" unicode="&#xbd;" horiz-adv-x="1905" vert-adv-y="2457" 
d="M161 562l17 95q108 9 140 21q39 15 55 65q9 28 18 78l78 448l-182 -45l23 128l248 65h150l-104 -587q-12 -68 -12 -105q0 -43 34 -53q24 -7 123 -15l-17 -95q-157 5 -285 5q-127 0 -286 -5zM420 0l939 1413h184l-939 -1413h-184zM1060 0l20 114l317 288q169 152 169 257
q0 79 -89 79q-67 0 -100 -42q-19 -24 -33 -77h-134l34 209q132 36 243 36q301 0 301 -205q0 -106 -82 -201q-62 -71 -158 -153l-211 -180h156q72 0 90 32q14 24 32 88h133l-47 -245h-641z" />
    <glyph glyph-name="onequarter" unicode="&#xbc;" horiz-adv-x="1905" vert-adv-y="2457" 
d="M161 562l17 95q108 9 140 21q39 15 55 65q9 28 18 78l78 448l-182 -45l23 128l248 65h150l-104 -587q-12 -68 -12 -105q0 -43 34 -53q24 -7 123 -15l-17 -95q-157 5 -285 5q-127 0 -286 -5zM428 0l939 1413h184l-939 -1413h-184zM1484 221h-406l20 116l336 511h207
l-333 -507h198l44 252h197l-45 -252h115l-21 -120h-115l-4 -22q-6 -36 -6 -61q0 -29 22 -37q7 -3 56 -10l-17 -94q-112 5 -201 5q-90 0 -203 -5l17 94q13 2 20 2q73 7 91 32q15 20 25 74z" />
    <glyph glyph-name="threequarters" unicode="&#xbe;" horiz-adv-x="1905" vert-adv-y="2457" 
d="M284 942l24 134q42 -7 77 -7q105 0 152 47q43 45 43 109q0 79 -95 79q-69 0 -100 -37q-18 -20 -34 -70h-134l31 197q136 36 252 36q296 0 296 -195q0 -140 -167 -205q61 -25 87 -50q53 -50 53 -128q0 -97 -76 -168q-95 -91 -320 -119q-98 -12 -270 -18l10 125
q200 5 290 33q144 45 144 154q0 91 -146 91q-34 0 -117 -8zM428 0l939 1413h184l-939 -1413h-184zM1484 221h-406l20 116l336 511h207l-333 -507h198l44 252h197l-45 -252h115l-21 -120h-115l-4 -22q-6 -37 -6 -61q0 -29 22 -37q7 -3 56 -10l-17 -94q-112 5 -201 5
q-90 0 -202 -5l16 94q13 2 20 2q73 7 91 32q15 20 25 74z" />
    <glyph glyph-name="glyph247" horiz-adv-x="1709" vert-adv-y="2457" 
 />
    <glyph glyph-name="Gbreve" unicode="&#x11e;" horiz-adv-x="1332" vert-adv-y="2457" 
d="M764 620l21 119q190 -8 287 -8q93 0 282 8l-21 -119q-18 -4 -27 -7q-47 -10 -64 -27q-32 -34 -61 -200l-62 -350q-196 -63 -423 -63q-595 0 -595 537q0 234 81 445q103 265 298 387q158 98 399 98q219 0 450 -58l-62 -328h-165v15q1 18 1 23q0 86 -35 125q-48 52 -176 52
q-158 0 -254 -83q-123 -106 -191 -345q-55 -195 -55 -365q0 -161 73 -249q67 -83 230 -83q77 0 179 29l38 213q12 71 12 135q0 47 -20 63q-19 16 -63 24q-5 1 -77 12zM548 1873h186q-1 -15 -1 -23q0 -59 25 -91q33 -41 126 -41q122 0 172 70q24 33 39 85h192
q-22 -121 -77 -191q-54 -70 -131 -101q-82 -34 -210 -34q-179 0 -262 76q-67 61 -67 165q0 31 8 85z" />
    <glyph glyph-name="gbreve" unicode="&#x11f;" horiz-adv-x="1127" vert-adv-y="2457" 
d="M646 132q-122 -159 -291 -159q-302 0 -302 359q0 153 57 311q62 173 191 272q123 95 332 95q104 0 340 -40q105 -17 196 -24l-21 -122q-48 -9 -65 -17q-42 -17 -61 -92q-19 -70 -31 -143l-81 -456q-33 -192 -64 -285q-55 -164 -180 -241q-116 -72 -313 -72
q-203 0 -342 67l41 157q120 -61 276 -61q155 0 220 89q46 63 73 218zM765 807q-65 40 -139 40q-144 0 -225 -188q-30 -71 -53 -183q-20 -102 -20 -173q0 -160 102 -160q98 0 201 185q74 135 107 322zM387 1457h186q-1 -15 -1 -23q0 -59 25 -91q33 -41 126 -41q122 0 172 70
q23 32 39 85h192q-23 -123 -77 -191q-54 -70 -131 -101q-82 -34 -210 -34q-329 0 -329 243q0 32 8 83z" />
    <glyph glyph-name="glyph250" horiz-adv-x="1709" vert-adv-y="2457" 
 />
    <glyph glyph-name="Scedilla" unicode="&#x15e;" horiz-adv-x="1066" vert-adv-y="2457" 
d="M-20 22l65 339h160q-2 -26 -2 -40q0 -92 29 -129q39 -48 188 -48q153 0 220 62q71 66 71 179q0 68 -35 109q-26 31 -68 54q-40 23 -107 57q-170 85 -246 170q-82 93 -82 229q0 202 134 321q69 61 159 88t222 27q190 0 388 -46l-62 -322h-161q1 22 1 39q0 69 -17 103
q-28 55 -142 55q-119 0 -181 -60q-63 -60 -63 -157q0 -72 51 -120q43 -41 172 -107q173 -90 232 -154q83 -91 83 -246q0 -248 -186 -367q-106 -67 -283 -81l-103 -122q85 -9 127 -30q81 -42 81 -145q0 -115 -88 -184q-74 -58 -212 -58q-119 0 -214 37l50 113q72 -36 129 -36
q64 0 93 48q24 40 24 91q0 87 -98 87q-17 0 -47 -3l-8 40l131 158q-237 4 -405 49z" />
    <glyph glyph-name="scedilla" unicode="&#x15f;" horiz-adv-x="944" vert-adv-y="2457" 
d="M-9 15l57 298h160q-2 -26 -2 -45q0 -67 26 -95q35 -38 143 -38q225 0 225 128q0 45 -49 76q-38 25 -161 76q-145 60 -198 112q-64 64 -64 166q0 139 98 227q101 90 315 90q164 0 365 -42l-54 -280h-160q2 26 2 42q0 62 -27 86q-35 31 -124 31q-70 0 -115 -25
q-48 -28 -48 -82q0 -50 48 -82q38 -25 166 -80q131 -56 180 -97q78 -64 78 -176q0 -95 -49 -174q-86 -137 -331 -156l-101 -120q84 -9 126 -31q81 -41 81 -144q0 -115 -88 -184q-74 -58 -211 -58q-119 0 -215 37l51 113q72 -36 128 -36q64 0 93 48q24 40 24 91q0 87 -98 87
q-15 0 -46 -3l-8 40l131 158q-186 7 -348 42z" />
    <glyph glyph-name="Cacute" unicode="&#x106;" horiz-adv-x="1186" vert-adv-y="2457" 
d="M935 361h161l-55 -339q-172 -48 -355 -48q-273 0 -416 112q-79 62 -119 159q-51 124 -51 269q0 255 102 487q101 230 276 340q157 99 397 99q180 0 385 -46l-64 -332h-166q2 29 2 48q0 66 -19 98q-35 61 -152 61q-231 0 -362 -280q-50 -106 -81 -254q-27 -134 -27 -249
q0 -175 74 -258q67 -75 211 -75q151 0 205 83q28 43 54 125zM730 1564l221 290h315l-327 -290h-209z" />
    <glyph glyph-name="cacute" unicode="&#x107;" horiz-adv-x="904" vert-adv-y="2457" 
d="M802 201l40 -137q-177 -90 -346 -90q-179 0 -294 83q-138 99 -138 325q0 162 63 306q142 322 501 322q144 0 317 -42l-61 -320h-161q5 61 5 93q0 106 -102 106q-133 0 -216 -172q-31 -66 -51 -160q-17 -83 -17 -154q0 -225 215 -225q112 0 245 65zM481 1148l221 290h315
l-327 -290h-209z" />
    <glyph glyph-name="Ccaron" unicode="&#x10c;" horiz-adv-x="1186" vert-adv-y="2457" 
d="M935 361h161l-55 -339q-172 -48 -355 -48q-273 0 -416 112q-79 62 -119 159q-51 124 -51 269q0 255 102 487q101 230 276 340q157 99 397 99q180 0 385 -46l-64 -332h-166q2 29 2 48q0 66 -19 98q-35 61 -152 61q-231 0 -362 -280q-50 -106 -81 -254q-27 -134 -27 -249
q0 -175 74 -258q67 -75 211 -75q151 0 205 83q28 43 54 125zM909 1688l197 166h218l-277 -290h-306l-174 290h203z" />
    <glyph glyph-name="ccaron" unicode="&#x10d;" horiz-adv-x="904" vert-adv-y="2457" 
d="M802 201l40 -137q-177 -90 -346 -90q-179 0 -294 83q-138 99 -138 325q0 162 63 306q142 322 501 322q144 0 317 -42l-61 -320h-161q5 61 5 93q0 106 -102 106q-133 0 -216 -172q-31 -66 -51 -160q-17 -83 -17 -154q0 -225 215 -225q112 0 245 65zM656 1272l197 166h218
l-277 -290h-306l-174 290h203z" />
    <glyph glyph-name="glyph257" horiz-adv-x="1709" vert-adv-y="2457" 
 />
    <glyph glyph-name="uni00A0" unicode="&#xa0;" horiz-adv-x="492" vert-adv-y="2457" 
 />
    <glyph glyph-name="uni00AD" unicode="&#xad;" horiz-adv-x="833" vert-adv-y="2457" 
d="M127 543l34 194h596l-34 -194h-596z" />
    <glyph glyph-name="Amacron" unicode="&#x100;" horiz-adv-x="1428" vert-adv-y="2457" 
d="M932 384h-526l-54 -105q-35 -69 -35 -109q0 -28 27 -39q14 -6 58 -16l-21 -119q-168 8 -251 8q-85 0 -253 -8l21 119q98 17 129 44q34 30 102 157l613 1097h262l216 -1097q17 -90 29 -120q18 -48 61 -64q24 -8 72 -17l-21 -119q-180 8 -270 8t-271 -8l21 119q65 15 82 26
q31 21 31 71q0 39 -7 83zM903 555l-99 587l-309 -587h408zM536 1631l29 165h676l-29 -165h-676z" />
    <glyph glyph-name="amacron" unicode="&#x101;" horiz-adv-x="1137" vert-adv-y="2457" 
d="M681 188q-57 -94 -101 -132q-94 -83 -232 -83q-294 0 -294 345q0 212 84 383q76 153 195 230q124 79 326 79q143 0 408 -31q-42 -186 -64 -313l-52 -296q-25 -145 -25 -191q0 -55 61 -55q43 0 93 29l40 -138q-101 -40 -223 -40q-153 0 -193 76q-22 42 -23 137zM762 809
q-60 38 -121 38q-149 0 -232 -183q-32 -72 -55 -173q-25 -106 -25 -190q0 -158 96 -158q56 0 113 65q148 168 196 442zM355 1204l29 165h676l-29 -165h-676z" />
    <glyph glyph-name="Abreve" unicode="&#x102;" horiz-adv-x="1428" vert-adv-y="2457" 
d="M932 384h-526l-54 -105q-35 -69 -35 -109q0 -28 27 -39q14 -6 58 -16l-21 -119q-168 8 -251 8q-85 0 -253 -8l21 119q98 17 129 44q34 30 102 157l613 1097h262l216 -1097q17 -90 29 -120q18 -48 61 -64q24 -8 72 -17l-21 -119q-180 8 -270 8t-271 -8l21 119q65 15 82 26
q31 21 31 71q0 39 -7 83zM903 555l-99 587l-309 -587h408zM564 1873h186q-1 -15 -1 -23q0 -59 25 -91q33 -41 126 -41q122 0 172 70q24 33 39 85h192q-22 -121 -77 -191q-54 -70 -131 -101q-82 -34 -210 -34q-179 0 -262 76q-67 61 -67 165q0 31 8 85z" />
    <glyph glyph-name="abreve" unicode="&#x103;" horiz-adv-x="1137" vert-adv-y="2457" 
d="M681 188q-57 -94 -101 -132q-94 -83 -232 -83q-294 0 -294 345q0 212 84 383q76 153 195 230q124 79 326 79q143 0 408 -31q-42 -186 -64 -313l-52 -296q-25 -145 -25 -191q0 -55 61 -55q43 0 93 29l40 -138q-101 -40 -223 -40q-153 0 -193 76q-22 42 -23 137zM762 809
q-60 38 -121 38q-149 0 -232 -183q-32 -72 -55 -173q-25 -106 -25 -190q0 -158 96 -158q56 0 113 65q148 168 196 442zM372 1457h186q-1 -15 -1 -23q0 -59 25 -91q33 -41 126 -41q122 0 172 70q23 32 39 85h192q-23 -123 -77 -191q-54 -70 -131 -101q-82 -34 -210 -34
q-329 0 -329 243q0 32 8 83z" />
    <glyph glyph-name="Aogonek" unicode="&#x104;" horiz-adv-x="1428" vert-adv-y="2457" 
d="M932 384h-526l-54 -105q-35 -69 -35 -109q0 -28 27 -39q14 -6 58 -16l-21 -119q-168 8 -251 8q-85 0 -253 -8l21 119q98 17 129 44q22 20 51 64q5 7 51 93l613 1097h262l216 -1097q18 -95 29 -120q19 -49 61 -64q24 -8 72 -17l-21 -119q-127 -92 -186 -147
q-106 -100 -106 -218q0 -87 109 -87q68 0 149 34l-1 -116q-102 -32 -200 -32q-277 0 -277 187q0 144 129 251q96 80 230 133q-116 3 -146 3q-85 0 -242 -8l21 119q64 14 82 26q31 21 31 71q0 39 -7 83zM903 555l-99 587l-309 -587h408z" />
    <glyph glyph-name="aogonek" unicode="&#x105;" horiz-adv-x="1137" vert-adv-y="2457" 
d="M681 188q-57 -94 -101 -132q-94 -83 -232 -83q-294 0 -294 345q0 212 84 383q76 153 195 230q124 79 326 79q143 0 408 -31q-43 -193 -64 -313l-52 -296q-25 -145 -25 -191q0 -55 61 -55q43 0 93 29l40 -138q-31 -23 -76 -55q-124 -89 -176 -154q-66 -81 -66 -176
q0 -86 109 -86q68 0 149 34l-1 -116q-102 -32 -199 -32q-278 0 -278 187q0 214 298 359q-120 5 -161 52q-37 43 -38 160zM762 809q-60 38 -121 38q-149 0 -232 -183q-32 -72 -55 -173q-25 -106 -25 -190q0 -158 96 -158q56 0 113 65q148 168 196 442z" />
    <glyph glyph-name="Ccircumflex" unicode="&#x108;" horiz-adv-x="1186" vert-adv-y="2457" 
d="M935 361h161l-55 -339q-172 -48 -355 -48q-273 0 -416 112q-79 62 -119 159q-51 124 -51 269q0 255 102 487q101 230 276 340q157 99 397 99q180 0 385 -46l-64 -332h-166q2 29 2 48q0 66 -19 98q-35 61 -152 61q-231 0 -362 -280q-50 -106 -81 -254q-27 -134 -27 -249
q0 -175 74 -258q67 -75 211 -75q151 0 205 83q28 43 54 125zM904 1730l-197 -166h-218l276 290h307l174 -290h-204z" />
    <glyph glyph-name="ccircumflex" unicode="&#x109;" horiz-adv-x="904" vert-adv-y="2457" 
d="M802 201l40 -137q-177 -90 -346 -90q-179 0 -294 83q-138 99 -138 325q0 162 63 306q142 322 501 322q144 0 317 -42l-61 -320h-161q5 61 5 93q0 106 -102 106q-133 0 -216 -172q-31 -66 -51 -160q-17 -83 -17 -154q0 -225 215 -225q112 0 245 65zM681 1314l-197 -166
h-218l276 290h307l174 -290h-204z" />
    <glyph glyph-name="Cdotaccent" unicode="&#x10a;" horiz-adv-x="1186" vert-adv-y="2457" 
d="M935 361h161l-55 -339q-172 -48 -355 -48q-273 0 -416 112q-79 62 -119 159q-51 124 -51 269q0 255 102 487q101 230 276 340q157 99 397 99q180 0 385 -46l-64 -332h-166q2 29 2 48q0 66 -19 98q-35 61 -152 61q-231 0 -362 -280q-50 -106 -81 -254q-27 -134 -27 -249
q0 -175 74 -258q67 -75 211 -75q151 0 205 83q28 43 54 125zM901 1869q69 0 116 -47q47 -46 47 -110t-47 -110q-47 -47 -116 -47q-70 0 -117 47q-47 46 -47 112q0 63 47 108q48 47 117 47z" />
    <glyph glyph-name="cdotaccent" unicode="&#x10b;" horiz-adv-x="904" vert-adv-y="2457" 
d="M802 201l40 -137q-177 -90 -346 -90q-179 0 -294 83q-138 99 -138 325q0 162 63 306q142 322 501 322q144 0 317 -42l-61 -320h-161q5 61 5 93q0 106 -102 106q-133 0 -216 -172q-31 -66 -51 -160q-17 -83 -17 -154q0 -225 215 -225q112 0 245 65zM659 1446q69 0 116 -47
q47 -46 47 -110t-47 -110q-47 -47 -116 -47q-70 0 -117 47q-47 46 -47 112q0 63 47 108q48 47 117 47z" />
    <glyph glyph-name="Dcaron" unicode="&#x10e;" horiz-adv-x="1354" vert-adv-y="2457" 
d="M-45 -4l21 119q23 4 35 7q57 10 78 26q40 33 69 200l126 717q16 91 16 147q0 46 -27 63q-14 9 -89 23l22 119q140 -4 277 -4h245q300 0 437 -115q160 -134 160 -436q0 -184 -59 -365q-91 -278 -293 -399q-163 -98 -428 -98h-270q-161 0 -320 -4zM410 176h95q159 0 251 51
q133 74 209 275q69 181 69 371q0 217 -99 303q-51 44 -143 56q-41 5 -124 5h-71zM765 1688l197 166h218l-277 -290h-306l-174 290h203z" />
    <glyph glyph-name="dcaron" unicode="&#x10f;" horiz-adv-x="1440" vert-adv-y="2457" 
d="M808 978l9 47q25 145 25 199q0 77 -70 77q-20 0 -61 -4l21 120q251 25 437 91l-200 -1135q-27 -151 -27 -194q0 -55 61 -55q43 0 94 29l39 -138q-100 -40 -224 -40q-152 0 -191 76q-22 44 -23 138q-57 -93 -93 -128q-90 -88 -237 -88q-313 0 -313 362q0 153 53 299
q138 376 490 376q103 0 210 -32zM777 801q-69 46 -141 46q-99 0 -165 -77q-66 -78 -108 -233q-32 -119 -32 -224q0 -169 108 -169q68 0 132 79q135 169 180 426zM1242 971l160 520h263l-228 -520h-195z" />
    <glyph glyph-name="Dcroat" unicode="&#x110;" horiz-adv-x="1354" vert-adv-y="2457" 
d="M212 656h-175l36 155h167l44 254q16 91 16 147q0 46 -27 63q-14 9 -89 23l22 119q140 -4 277 -4h245q300 0 437 -115q160 -134 160 -435q0 -184 -59 -366q-91 -278 -293 -399q-163 -98 -428 -98h-270q-161 0 -320 -4l21 119q23 4 35 7q57 10 78 26q40 33 69 200zM494 656
l-84 -480h95q159 0 251 51q133 74 209 275q69 181 69 372q0 216 -99 302q-51 44 -143 56q-41 5 -124 5h-71l-75 -426h273l-39 -155h-262z" />
    <glyph glyph-name="dcroat" unicode="&#x111;" horiz-adv-x="1158" vert-adv-y="2457" 
d="M808 978l20 114h-254l22 124h243v13q0 38 -11 57q-14 23 -56 23q-21 0 -60 -3l20 111q251 25 437 91l-52 -292h142l-21 -124h-143l-126 -719q-27 -150 -27 -194q0 -55 57 -55q45 0 98 29l39 -138q-102 -40 -227 -40q-150 0 -188 76q-22 44 -23 138q-61 -98 -99 -134
q-89 -82 -231 -82q-313 0 -313 362q0 154 53 299q138 376 490 376q103 0 210 -32zM777 801q-69 46 -141 46q-99 0 -165 -77q-66 -78 -108 -233q-32 -119 -32 -224q0 -169 108 -169q68 0 132 79q135 169 180 426z" />
    <glyph glyph-name="Emacron" unicode="&#x112;" vert-adv-y="2457" 
d="M-45 -4l21 119q23 4 35 7q57 10 78 26q40 33 69 201l121 689q21 118 21 173q0 51 -35 67q-20 9 -81 20l22 119q192 -4 271 -4h816l-57 -353h-165q4 35 4 62q0 72 -26 92q-31 23 -128 23h-324l-76 -432h157q86 0 115 29q26 26 41 103h148q-44 -213 -77 -433h-147
q8 46 8 76q0 54 -34 68q-25 10 -96 10h-141l-61 -345q-11 -61 -11 -80q0 -32 22 -45q19 -12 87 -12h197q136 0 173 41q23 26 59 144h165l-69 -361h-779q-32 0 -199 -3q-41 0 -124 -1zM441 1631l29 165h676l-29 -165h-676z" />
    <glyph glyph-name="emacron" unicode="&#x113;" horiz-adv-x="1046" vert-adv-y="2457" 
d="M329 391q-2 -46 -2 -63q0 -91 53 -138q61 -54 201 -54q157 0 301 62l36 -136q-164 -89 -397 -89q-462 0 -462 393q0 145 53 284q136 360 522 360q192 0 295 -82q88 -70 88 -203q0 -172 -154 -246q-106 -52 -331 -75q-114 -12 -203 -13zM353 552q47 0 168 14
q148 17 199 56q44 34 44 102q0 123 -139 123q-138 0 -212 -127q-35 -61 -60 -168zM310 1204l29 165h676l-29 -165h-676z" />
    <glyph glyph-name="Ebreve" unicode="&#x114;" vert-adv-y="2457" 
d="M-45 -4l21 119q23 4 35 7q57 10 78 26q40 33 69 201l121 689q21 118 21 173q0 51 -35 67q-20 9 -81 20l22 119q192 -4 271 -4h816l-57 -353h-165q4 35 4 62q0 72 -26 92q-31 23 -128 23h-324l-76 -432h157q86 0 115 29q26 26 41 103h148q-44 -213 -77 -433h-147
q8 46 8 76q0 54 -34 68q-25 10 -96 10h-141l-61 -345q-11 -61 -11 -80q0 -32 22 -45q19 -12 87 -12h197q136 0 173 41q23 26 59 144h165l-69 -361h-779q-32 0 -199 -3q-41 0 -124 -1zM473 1873h186q-1 -15 -1 -23q0 -59 25 -91q33 -41 126 -41q122 0 172 70q24 33 39 85h192
q-22 -121 -77 -191q-54 -70 -131 -101q-82 -34 -210 -34q-179 0 -262 76q-67 61 -67 165q0 31 8 85z" />
    <glyph glyph-name="ebreve" unicode="&#x115;" horiz-adv-x="1046" vert-adv-y="2457" 
d="M329 391q-2 -46 -2 -63q0 -91 53 -138q61 -54 201 -54q157 0 301 62l36 -136q-164 -89 -397 -89q-462 0 -462 393q0 145 53 284q136 360 522 360q192 0 295 -82q88 -70 88 -203q0 -172 -154 -246q-106 -52 -331 -75q-114 -12 -203 -13zM353 552q47 0 168 14
q148 17 199 56q44 34 44 102q0 123 -139 123q-138 0 -212 -127q-35 -61 -60 -168zM310 1457h186q-1 -15 -1 -23q0 -59 25 -91q33 -41 126 -41q122 0 172 70q23 32 39 85h192q-23 -123 -77 -191q-54 -70 -131 -101q-82 -34 -210 -34q-329 0 -329 243q0 32 8 83z" />
    <glyph glyph-name="Edotaccent" unicode="&#x116;" vert-adv-y="2457" 
d="M-45 -4l21 119q23 4 35 7q57 10 78 26q40 33 69 201l121 689q21 118 21 173q0 51 -35 67q-20 9 -81 20l22 119q192 -4 271 -4h816l-57 -353h-165q4 35 4 62q0 72 -26 92q-31 23 -128 23h-324l-76 -432h157q86 0 115 29q26 26 41 103h148q-44 -213 -77 -433h-147
q8 46 8 76q0 54 -34 68q-25 10 -96 10h-141l-61 -345q-11 -61 -11 -80q0 -32 22 -45q19 -12 87 -12h197q136 0 173 41q23 26 59 144h165l-69 -361h-779q-32 0 -199 -3q-41 0 -124 -1zM833 1869q69 0 116 -47q47 -46 47 -110t-47 -110q-47 -47 -116 -47q-70 0 -117 47
q-47 46 -47 112q0 63 47 108q48 47 117 47z" />
    <glyph glyph-name="edotaccent" unicode="&#x117;" horiz-adv-x="1046" vert-adv-y="2457" 
d="M329 391q-2 -46 -2 -63q0 -91 53 -138q61 -54 201 -54q157 0 301 62l36 -136q-164 -89 -397 -89q-462 0 -462 393q0 145 53 284q136 360 522 360q192 0 295 -82q88 -70 88 -203q0 -172 -154 -246q-106 -52 -331 -75q-114 -12 -203 -13zM353 552q47 0 168 14
q148 17 199 56q44 34 44 102q0 123 -139 123q-138 0 -212 -127q-35 -61 -60 -168zM658 1446q69 0 116 -47q47 -46 47 -110t-47 -110q-47 -47 -116 -47q-70 0 -117 47q-47 46 -47 112q0 63 47 108q48 47 117 47z" />
    <glyph glyph-name="Eogonek" unicode="&#x118;" vert-adv-y="2457" 
d="M-45 -4l21 119q23 4 35 7q57 10 78 26q40 33 69 201l121 689q21 118 21 173q0 51 -35 67q-20 9 -81 20l22 119q175 -4 271 -4h816l-57 -353h-165q4 35 4 62q0 72 -26 92q-31 23 -128 23h-324l-76 -432h157q86 0 115 29q26 26 41 103h148q-44 -213 -77 -433h-147
q8 46 8 76q0 54 -34 68q-25 10 -96 10h-141l-61 -345q-11 -61 -11 -80q0 -32 22 -45q19 -12 87 -12h197q137 0 173 41q23 27 59 144h165l-69 -361q-135 -101 -185 -149q-107 -101 -107 -220q0 -87 109 -87q69 0 150 34l-1 -116q-102 -32 -200 -32q-278 0 -278 187
q0 235 355 383h-622q-23 0 -323 -4z" />
    <glyph glyph-name="eogonek" unicode="&#x119;" horiz-adv-x="1046" vert-adv-y="2457" 
d="M329 391q-1 -21 -1 -32q-1 -21 -1 -31q0 -91 53 -139q61 -54 201 -54q159 0 301 63l36 -136q-98 -53 -253 -78q-115 -83 -165 -133q-107 -105 -107 -220q0 -87 110 -87q68 0 149 34l-1 -116q-102 -32 -200 -32q-278 0 -278 188q0 206 297 356q-411 23 -411 390
q0 147 53 286q136 360 522 360q192 0 295 -82q88 -70 88 -203q0 -172 -154 -246q-153 -75 -534 -88zM353 552q47 0 168 14q148 17 199 56q44 33 44 102q0 123 -139 123q-138 0 -212 -127q-35 -61 -60 -168z" />
    <glyph glyph-name="Ecaron" unicode="&#x11a;" vert-adv-y="2457" 
d="M-45 -4l21 119q23 4 35 7q57 10 78 26q40 33 69 201l121 689q21 118 21 173q0 51 -35 67q-20 9 -81 20l22 119q192 -4 271 -4h816l-57 -353h-165q4 35 4 62q0 72 -26 92q-31 23 -128 23h-324l-76 -432h157q86 0 115 29q26 26 41 103h148q-44 -213 -77 -433h-147
q8 46 8 76q0 54 -34 68q-25 10 -96 10h-141l-61 -345q-11 -61 -11 -80q0 -32 22 -45q19 -12 87 -12h197q136 0 173 41q23 26 59 144h165l-69 -361h-779q-32 0 -199 -3q-41 0 -124 -1zM827 1688l197 166h218l-277 -290h-306l-174 290h203z" />
    <glyph glyph-name="ecaron" unicode="&#x11b;" horiz-adv-x="1046" vert-adv-y="2457" 
d="M329 391q-2 -46 -2 -63q0 -91 53 -138q61 -54 201 -54q157 0 301 62l36 -136q-164 -89 -397 -89q-462 0 -462 393q0 145 53 284q136 360 522 360q192 0 295 -82q88 -70 88 -203q0 -172 -154 -246q-106 -52 -331 -75q-114 -12 -203 -13zM353 552q47 0 168 14
q148 17 199 56q44 34 44 102q0 123 -139 123q-138 0 -212 -127q-35 -61 -60 -168zM661 1272l197 166h218l-277 -290h-306l-174 290h203z" />
    <glyph glyph-name="Gcircumflex" unicode="&#x11c;" horiz-adv-x="1332" vert-adv-y="2457" 
d="M764 620l21 119q190 -8 287 -8q93 0 282 8l-21 -119q-18 -4 -27 -7q-47 -10 -64 -27q-32 -34 -61 -200l-62 -350q-196 -63 -423 -63q-595 0 -595 537q0 234 81 445q103 265 298 387q158 98 399 98q219 0 450 -58l-62 -328h-165v15q1 18 1 23q0 86 -35 125q-48 52 -176 52
q-158 0 -254 -83q-123 -106 -191 -345q-55 -195 -55 -365q0 -161 73 -249q67 -83 230 -83q77 0 179 29l38 213q12 71 12 135q0 47 -20 63q-19 16 -63 24q-5 1 -77 12zM918 1730l-197 -166h-218l276 290h307l174 -290h-204z" />
    <glyph glyph-name="gcircumflex" unicode="&#x11d;" horiz-adv-x="1127" vert-adv-y="2457" 
d="M646 132q-122 -159 -291 -159q-302 0 -302 359q0 153 57 311q62 173 191 272q123 95 332 95q104 0 340 -40q105 -17 196 -24l-21 -122q-48 -9 -65 -17q-42 -17 -61 -92q-19 -70 -31 -143l-81 -456q-33 -192 -64 -285q-55 -164 -180 -241q-116 -72 -313 -72
q-203 0 -342 67l41 157q120 -61 276 -61q155 0 220 89q46 63 73 218zM765 807q-65 40 -139 40q-144 0 -225 -188q-30 -71 -53 -183q-20 -102 -20 -173q0 -160 102 -160q98 0 201 185q74 135 107 322zM740 1314l-197 -166h-218l276 290h307l174 -290h-204z" />
    <glyph glyph-name="Gdotaccent" unicode="&#x120;" horiz-adv-x="1332" vert-adv-y="2457" 
d="M764 620l21 119q190 -8 287 -8q93 0 282 8l-21 -119q-18 -4 -27 -7q-47 -10 -64 -27q-32 -34 -61 -200l-62 -350q-196 -63 -423 -63q-595 0 -595 537q0 234 81 445q103 265 298 387q158 98 399 98q219 0 450 -58l-62 -328h-165v15q1 18 1 23q0 86 -35 125q-48 52 -176 52
q-158 0 -254 -83q-123 -106 -191 -345q-55 -195 -55 -365q0 -161 73 -249q67 -83 230 -83q77 0 179 29l38 213q12 71 12 135q0 47 -20 63q-19 16 -63 24q-5 1 -77 12zM903 1869q69 0 116 -47q47 -46 47 -110t-47 -110q-47 -47 -116 -47q-70 0 -117 47q-47 46 -47 112
q0 63 47 108q48 47 117 47z" />
    <glyph glyph-name="gdotaccent" unicode="&#x121;" horiz-adv-x="1127" vert-adv-y="2457" 
d="M646 132q-122 -159 -291 -159q-302 0 -302 359q0 153 57 311q62 173 191 272q123 95 332 95q104 0 340 -40q105 -17 196 -24l-21 -122q-48 -9 -65 -17q-42 -17 -61 -92q-19 -70 -31 -143l-81 -456q-33 -192 -64 -285q-55 -164 -180 -241q-116 -72 -313 -72
q-203 0 -342 67l41 157q120 -61 276 -61q155 0 220 89q46 63 73 218zM765 807q-65 40 -139 40q-144 0 -225 -188q-30 -71 -53 -183q-20 -102 -20 -173q0 -160 102 -160q98 0 201 185q74 135 107 322zM704 1446q69 0 116 -47q47 -46 47 -110t-47 -110q-47 -47 -116 -47
q-70 0 -117 47q-47 46 -47 112q0 63 47 108q48 47 117 47z" />
    <glyph glyph-name="Gcommaaccent" unicode="&#x122;" horiz-adv-x="1332" vert-adv-y="2457" 
d="M764 620l21 119q190 -8 287 -8q93 0 282 8l-21 -119q-18 -4 -27 -7q-47 -10 -64 -27q-32 -34 -61 -200l-62 -350q-196 -63 -423 -63q-595 0 -595 537q0 234 81 445q103 265 298 387q158 98 399 98q219 0 450 -58l-62 -328h-165v15q1 18 1 23q0 86 -35 125q-48 52 -176 52
q-158 0 -254 -83q-123 -106 -191 -345q-55 -195 -55 -365q0 -161 73 -249q67 -83 230 -83q77 0 179 29l38 213q12 71 12 135q0 47 -20 63q-19 16 -63 24q-5 1 -77 12zM331 -456l182 312h289l-269 -312h-202z" />
    <glyph glyph-name="gcommaaccent" unicode="&#x123;" horiz-adv-x="1127" vert-adv-y="2457" 
d="M646 132q-122 -159 -291 -159q-302 0 -302 359q0 153 57 311q62 173 191 272q123 95 332 95q104 0 340 -40q105 -17 196 -24l-21 -122q-48 -9 -65 -17q-42 -17 -61 -92q-19 -70 -31 -143l-81 -456q-33 -192 -64 -285q-55 -164 -180 -241q-116 -72 -313 -72
q-203 0 -342 67l41 157q120 -61 276 -61q155 0 220 89q46 63 73 218zM765 807q-65 40 -139 40q-144 0 -225 -188q-30 -71 -53 -183q-20 -102 -20 -173q0 -160 102 -160q98 0 201 185q74 135 107 322zM549 1148l327 290h202l-221 -290h-308z" />
    <glyph glyph-name="Hcircumflex" unicode="&#x124;" horiz-adv-x="1453" vert-adv-y="2457" 
d="M-45 -4l21 119q23 5 35 7q57 10 78 27q40 32 69 200l126 715q16 91 16 148q0 46 -27 62q-15 9 -89 24l22 119q187 -8 281 -8t282 8l-21 -119q-23 -4 -35 -7q-51 -9 -72 -22.5t-35 -47.5q-22 -53 -40 -157l-42 -239h521l42 239q16 91 16 148q0 46 -27 62q-14 9 -89 24
l21 119q188 -8 282 -8t282 8l-21 -119q-23 -4 -34 -7q-57 -10 -78 -27q-40 -31 -70 -200l-126 -715q-15 -88 -15 -148q0 -46 27 -62q14 -9 88 -24l-21 -119q-188 8 -282 8t-282 -8l21 119q23 5 35 7q57 10 77 27q41 32 70 200l53 300h-521l-53 -300q-16 -94 -16 -147
q0 -47 27 -63q13 -8 89 -24l-21 -119q-188 8 -282 8t-282 -8zM944 1730l-197 -166h-218l276 290h307l174 -290h-204z" />
    <glyph glyph-name="hcircumflex" unicode="&#x125;" horiz-adv-x="1242" vert-adv-y="2457" 
d="M169 1297l21 120q251 25 437 91l-130 -737q83 108 134 151q104 88 232 88q252 0 252 -244q0 -84 -32 -240l-30 -141q-34 -174 -34 -206q0 -55 57 -55q44 0 98 29l41 -138q-109 -40 -237 -40q-123 0 -176 42q-50 39 -50 126q0 68 33 228l36 182q23 112 23 178
q0 100 -80 100q-44 0 -86 -31t-97 -104q-82 -109 -122 -216q-26 -69 -43 -169l-17 -92q-12 -70 -30 -219h-283q38 168 47 220l135 764q32 184 32 240q0 77 -70 77q-20 0 -61 -4zM547 1768l-197 -166h-218l276 290h307l174 -290h-204z" />
    <glyph glyph-name="Hbar" unicode="&#x126;" horiz-adv-x="1452" vert-adv-y="2457" 
d="M-44 -4l21 119q23 5 35 7q57 10 78 26q40 33 69 201l111 630h-148l19 110h149l6 39q9 50 9 81q0 51 -32 69q-10 6 -88 20l22 119q187 -8 281 -8t282 8l-21 -119q-22 -4 -33 -5q-53 -8 -73 -21q-44 -29 -65 -144l-7 -39h520l7 39q9 51 9 79q0 53 -32 71q-10 6 -88 20
l21 119q188 -8 282 -8t282 8l-21 -119q-22 -4 -33 -5q-53 -8 -73 -21q-44 -29 -65 -144l-7 -39h149l-20 -110h-148l-111 -630q-15 -87 -15 -148q0 -46 27 -63q12 -7 88 -23l-21 -119q-189 8 -282 8q-95 0 -283 -8l21 119q24 5 35 7q58 10 78 26q41 33 70 201l48 273h-520
l-48 -273q-16 -94 -16 -148q0 -46 27 -63q13 -7 89 -23l-21 -119q-188 8 -282 8t-282 -8zM520 798h520l32 181h-520z" />
    <glyph glyph-name="hbar" unicode="&#x127;" horiz-adv-x="1242" vert-adv-y="2457" 
d="M171 1306l19 111q251 25 437 91l-52 -292h266l-22 -124h-266l-56 -321q84 108 134 151q104 88 232 88q252 0 252 -244q0 -84 -32 -240l-30 -141q-34 -174 -34 -206q0 -55 57 -55q44 0 98 29l41 -138q-109 -40 -237 -40q-123 0 -176 42q-50 39 -50 126q0 68 33 228l36 182
q23 112 23 178q0 100 -80 100q-44 0 -86 -31t-97 -104q-82 -109 -122 -216q-26 -69 -43 -169l-17 -92q-12 -70 -30 -219h-283q38 168 47 220l154 872h-176l22 124h164v15q0 37 -11 54q-14 24 -56 24q-21 0 -59 -3z" />
    <glyph glyph-name="Itilde" unicode="&#x128;" horiz-adv-x="650" vert-adv-y="2457" 
d="M-45 -4l21 119q23 5 35 7q57 10 78 27q40 32 69 200l126 715q16 91 16 148q0 46 -27 62q-15 9 -89 24l22 119q187 -8 281 -8t282 8l-21 -119q-23 -4 -35 -7q-51 -9 -72 -22.5t-35 -47.5q-22 -53 -40 -157l-126 -715q-16 -94 -16 -147q0 -47 27 -63q13 -8 89 -24l-21 -119
q-188 8 -282 8t-282 -8zM303 1566h-177q45 134 97 205q82 109 199 109q61 0 112 -29q28 -16 75 -70q47 -53 74 -53q52 0 92 139h179q-35 -132 -82 -201q-78 -114 -213 -114q-81 0 -134 45q-14 12 -56 61q-40 46 -65 46q-35 0 -68 -58q-10 -20 -33 -80z" />
    <glyph glyph-name="itilde" unicode="&#x129;" horiz-adv-x="623" vert-adv-y="2457" 
d="M90 815l21 121q241 23 412 72q-7 -205 -102 -667q-26 -125 -26 -169q0 -48 57 -48q44 0 98 29l41 -138q-109 -40 -238 -40q-121 0 -173 42q-52 41 -52 128q0 59 52 322q43 216 43 279q0 47 -22 62q-15 10 -56 10q-21 0 -55 -3zM217 1150h-177q45 135 97 204
q82 109 199 109q62 0 112 -29q27 -15 75 -70q47 -53 74 -53q52 0 92 140h179q-35 -132 -82 -201q-79 -114 -213 -114q-81 0 -134 45q-15 12 -56 60q-41 46 -65 46q-35 0 -68 -58q-10 -17 -33 -79z" />
    <glyph glyph-name="Imacron" unicode="&#x12a;" horiz-adv-x="650" vert-adv-y="2457" 
d="M-45 -4l21 119q23 5 35 7q57 10 78 27q40 32 69 200l126 715q16 91 16 148q0 46 -27 62q-15 9 -89 24l22 119q187 -8 281 -8t282 8l-21 -119q-23 -4 -35 -7q-51 -9 -72 -22.5t-35 -47.5q-22 -53 -40 -157l-126 -715q-16 -94 -16 -147q0 -47 27 -63q13 -8 89 -24l-21 -119
q-188 8 -282 8t-282 -8zM169 1631l29 165h676l-29 -165h-676z" />
    <glyph glyph-name="imacron" unicode="&#x12b;" horiz-adv-x="623" vert-adv-y="2457" 
d="M91 815l21 121q241 23 412 72q-7 -205 -102 -667q-26 -125 -26 -169q0 -48 57 -48q44 0 98 29l41 -138q-109 -40 -238 -40q-121 0 -173 42q-52 41 -52 128q0 59 52 322q43 216 43 279q0 47 -22 62q-15 10 -56 10q-21 0 -55 -3zM41 1204l29 165h676l-29 -165h-676z" />
    <glyph glyph-name="Ibreve" unicode="&#x12c;" horiz-adv-x="650" vert-adv-y="2457" 
d="M-45 -4l21 119q23 5 35 7q57 10 78 27q40 32 69 200l126 715q16 91 16 148q0 46 -27 62q-15 9 -89 24l22 119q187 -8 281 -8t282 8l-21 -119q-23 -4 -35 -7q-51 -9 -72 -22.5t-35 -47.5q-22 -53 -40 -157l-126 -715q-16 -94 -16 -147q0 -47 27 -63q13 -8 89 -24l-21 -119
q-188 8 -282 8t-282 -8zM177 1873h186q-1 -15 -1 -23q0 -59 25 -91q33 -41 126 -41q122 0 172 70q24 33 39 85h192q-22 -121 -77 -191q-54 -70 -131 -101q-82 -34 -210 -34q-179 0 -262 76q-67 61 -67 165q0 31 8 85z" />
    <glyph glyph-name="ibreve" unicode="&#x12d;" horiz-adv-x="623" vert-adv-y="2457" 
d="M90 815l21 121q241 23 412 72q-7 -205 -102 -667q-26 -125 -26 -169q0 -48 57 -48q44 0 98 29l41 -138q-109 -40 -238 -40q-121 0 -173 42q-52 41 -52 128q0 59 52 322q43 216 43 279q0 47 -22 62q-15 10 -56 10q-21 0 -55 -3zM55 1457h186q-1 -15 -1 -23q0 -59 25 -91
q33 -41 126 -41q122 0 172 70q23 32 39 85h192q-23 -123 -77 -191q-54 -70 -131 -101q-82 -34 -210 -34q-329 0 -329 243q0 32 8 83z" />
    <glyph glyph-name="Iogonek" unicode="&#x12e;" horiz-adv-x="650" vert-adv-y="2457" 
d="M-45 -4l21 119q23 5 35 7q57 10 78 27q40 32 69 200l126 715q16 91 16 148q0 46 -27 62q-15 9 -89 24l22 119q187 -8 281 -8t282 8l-21 -119q-23 -4 -35 -7q-51 -9 -72 -22.5t-35 -47.5q-22 -53 -40 -157l-126 -715q-16 -94 -16 -147q0 -47 27 -63q13 -8 89 -24l-21 -119
q-137 -100 -186 -147q-107 -103 -107 -218q0 -87 110 -87q68 0 149 34l-1 -116q-102 -32 -200 -32q-278 0 -278 187q0 143 129 251q95 79 230 133q-138 3 -160 3q-89 0 -250 -8z" />
    <glyph glyph-name="iogonek" unicode="&#x12f;" horiz-adv-x="623" vert-adv-y="2457" 
d="M87 815l22 121q240 23 411 72q-7 -204 -101 -667q-26 -126 -26 -169q0 -48 57 -48q44 0 98 29l41 -138q-28 -21 -86 -61q-234 -161 -234 -323q0 -87 109 -87q69 0 150 34l-1 -116q-102 -32 -200 -32q-278 0 -278 187q0 213 299 359q-101 2 -149 28q-73 40 -73 142
q0 58 51 320q43 217 43 280q0 47 -22 62q-15 10 -56 10q-21 0 -55 -3zM417 1447q66 0 112 -47t46 -113q0 -65 -46 -112t-115 -47q-68 0 -114 47t-46 112q0 67 46 113q47 47 117 47z" />
    <glyph glyph-name="Idotaccent" unicode="&#x130;" horiz-adv-x="650" vert-adv-y="2457" 
d="M-45 -4l21 119q23 5 35 7q57 10 78 27q40 32 69 200l126 715q16 91 16 148q0 46 -27 62q-15 9 -89 24l22 119q187 -8 281 -8t282 8l-21 -119q-23 -4 -35 -7q-51 -9 -72 -22.5t-35 -47.5q-22 -53 -40 -157l-126 -715q-16 -94 -16 -147q0 -47 27 -63q13 -8 89 -24l-21 -119
q-188 8 -282 8t-282 -8zM521 1869q69 0 116 -47q47 -46 47 -110t-47 -110q-47 -47 -116 -47q-70 0 -117 47q-47 46 -47 112q0 63 47 108q48 47 117 47z" />
    <glyph glyph-name="IJ" unicode="&#x132;" horiz-adv-x="1317" vert-adv-y="2457" 
d="M-45 -4l21 119q23 5 35 7q57 10 78 27q40 32 69 200l126 715q16 91 16 148q0 46 -27 62q-15 9 -89 24l22 119q187 -8 281 -8t282 8l-21 -119q-23 -4 -35 -7q-51 -9 -72 -22.5t-35 -47.5q-22 -53 -40 -157l-126 -715q-16 -94 -16 -147q0 -47 27 -63q13 -8 89 -24l-21 -119
q-188 8 -282 8t-282 -8zM826 1298l21 119q197 -8 297 -8q98 0 295 8l-21 -119q-23 -4 -35 -7q-57 -10 -78 -27q-40 -32 -69 -200l-147 -835q-39 -220 -64 -305q-59 -204 -186 -301q-125 -95 -331 -95q-103 0 -219 19l45 180q88 -28 167 -28q143 0 209 146q47 105 94 370
l150 849q14 81 14 140q0 55 -39 72q-16 8 -103 22z" />
    <glyph glyph-name="ij" unicode="&#x133;" horiz-adv-x="1253" vert-adv-y="2457" 
d="M90 815l21 121q241 23 412 72q-7 -205 -102 -667q-26 -125 -26 -169q0 -48 57 -48q44 0 98 29l41 -138q-109 -40 -238 -40q-121 0 -173 42q-52 41 -52 128q0 59 52 322q43 216 43 279q0 47 -22 62q-15 10 -56 10q-21 0 -55 -3zM418 1447q67 0 113 -47t46 -113
q0 -65 -46 -112t-115 -47q-68 0 -114 47t-46 112q0 67 46 113q47 47 116 47zM733 815l21 121q240 23 412 72q-4 -135 -57 -438l-66 -383q-55 -315 -128 -457q-110 -212 -391 -212q-125 0 -220 45l41 150q73 -33 159 -33q87 0 133 47q50 53 80 172q29 117 48 223l73 418
q28 165 28 205q0 47 -22 63q-15 10 -56 10q-21 0 -55 -3zM1058 1447q66 0 112 -47t46 -113q0 -65 -46 -112t-115 -47q-68 0 -114 47t-46 112q0 67 46 113q47 47 117 47z" />
    <glyph glyph-name="Jcircumflex" unicode="&#x134;" horiz-adv-x="667" vert-adv-y="2457" 
d="M176 1298l21 119q197 -8 297 -8q98 0 295 8l-21 -119q-23 -4 -35 -7q-57 -10 -78 -27q-40 -32 -69 -200l-147 -835q-39 -220 -64 -305q-59 -204 -186 -301q-125 -95 -331 -95q-103 0 -219 19l45 180q88 -28 167 -28q143 0 209 146q47 105 94 370l150 849q14 81 14 140
q0 55 -39 72q-16 8 -103 22zM520 1730l-197 -166h-218l276 290h307l174 -290h-204z" />
    <glyph glyph-name="jcircumflex" unicode="&#x135;" horiz-adv-x="630" vert-adv-y="2457" 
d="M110 815l21 121q240 23 411 72q-3 -135 -56 -438l-66 -383q-55 -315 -129 -457q-110 -212 -392 -212q-123 0 -220 41l44 159q76 -38 158 -38q131 0 182 123q40 97 78 319l73 418q28 158 28 205t-22 63q-15 10 -55 10q-21 0 -55 -3zM413 1314l-197 -166h-218l276 290h307
l174 -290h-204z" />
    <glyph glyph-name="Kcommaaccent" unicode="&#x136;" horiz-adv-x="1352" vert-adv-y="2457" 
d="M-45 -4l21 119q23 5 35 7q57 10 78 27q40 32 69 200l126 715q16 91 16 148q0 46 -27 62q-13 9 -89 24l22 119q187 -8 281 -8t282 8l-21 -119q-23 -5 -35 -7q-51 -9 -72 -22.5t-35 -48.5q-22 -52 -40 -156l-42 -240h15q116 0 189 53q94 68 251 244q81 91 81 138
q0 24 -29 32q-14 5 -53 12l21 114q146 -6 216 -6q77 0 224 6q-13 -81 -24 -114q-24 -66 -255 -292q-154 -152 -290 -262q53 -52 101 -168l106 -259q50 -122 71 -153q32 -50 83 -50q27 0 65 9l38 -126q-102 -30 -228 -30q-108 0 -165 40q-60 41 -103 141q-10 22 -48 128
l-96 244q-32 82 -60 110q-38 38 -99 38h-38l-57 -324q-16 -94 -16 -147q0 -47 27 -63q13 -8 89 -24l-21 -119q-188 8 -282 8t-282 -8zM333 -456l182 312h289l-269 -312h-202z" />
    <glyph glyph-name="kcommaaccent" unicode="&#x137;" horiz-adv-x="1159" vert-adv-y="2457" 
d="M169 1297l21 120q251 25 437 91l-157 -888q116 3 218 63q64 38 101 85q29 36 29 61q0 20 -23 30q-9 4 -40 15l23 113q124 -7 183 -7q65 0 190 7l-14 -71q-10 -49 -33.5 -79.5t-98.5 -91.5q-111 -90 -249 -174q43 -32 86 -123l76 -162q42 -91 58 -118q30 -46 78 -46
q28 0 62 21l42 -131q-108 -39 -223 -39q-125 0 -186 84q-29 40 -47 88l-27 74l-47 117q-24 65 -33 81q-41 76 -135 76h-12l-49 -274q-12 -72 -30 -219h-283q38 168 47 220l135 764q32 184 32 240q0 77 -70 77q-20 0 -61 -4zM239 -456l182 312h289l-269 -312h-202z" />
    <glyph glyph-name="kgreenlandic" unicode="&#x138;" horiz-adv-x="1159" vert-adv-y="2457" 
d="M82 815l21 121q238 23 408 72q1 -138 -35 -341l-8 -47q115 3 217 63q64 38 101 85q29 35 29 60q0 21 -23 31q-9 4 -40 15l24 113q123 -7 182 -7q66 0 191 7l-14 -71q-10 -49 -34 -79.5t-98 -91.5q-113 -91 -250 -174q44 -32 86 -123l76 -162q42 -91 59 -118
q30 -46 77 -46q28 0 63 21l42 -131q-109 -39 -224 -39q-125 0 -186 84q-29 40 -73 162l-48 117q-23 65 -32 81q-42 76 -135 76h-13l-48 -274q-12 -68 -30 -219h-283q37 169 46 220l67 380q18 102 18 146q0 47 -22 62q-15 10 -56 10q-21 0 -55 -3z" />
    <glyph glyph-name="Lacute" unicode="&#x139;" horiz-adv-x="1078" vert-adv-y="2457" 
d="M-45 -4l21 119q23 4 35 7q57 10 78 26q40 33 69 201l126 716q16 90 16 147q0 46 -27 63q-15 9 -89 23l22 119q187 -8 281 -8t282 8l-21 -119q-23 -4 -35 -6q-51 -9 -72 -23t-35 -48q-22 -54 -40 -156l-128 -731q-14 -87 -14 -101q0 -31 19 -44q18 -13 66 -13h125
q93 0 134 13q51 16 74 77q10 27 31 95h165l-69 -361h-709q-179 0 -305 -4zM418 1564l221 290h315l-327 -290h-209z" />
    <glyph glyph-name="lacute" unicode="&#x13a;" horiz-adv-x="629" vert-adv-y="2457" 
d="M169 1297l21 120q251 25 437 91l-202 -1145q-22 -125 -22 -184q0 -55 58 -55q44 0 94 29l40 -138q-102 -40 -230 -40q-119 0 -172 42q-57 44 -57 135q0 84 27 235l105 597q32 184 32 240q0 77 -70 77q-20 0 -61 -4zM286 1602l221 290h315l-327 -290h-209z" />
    <glyph glyph-name="Lcommaaccent" unicode="&#x13b;" horiz-adv-x="1078" vert-adv-y="2457" 
d="M-45 -4l21 119q23 4 35 7q57 10 78 26q40 33 69 201l126 716q16 90 16 147q0 46 -27 63q-15 9 -89 23l22 119q187 -8 281 -8t282 8l-21 -119q-23 -4 -35 -6q-51 -9 -72 -23t-35 -48q-22 -54 -40 -156l-128 -731q-14 -87 -14 -101q0 -31 19 -44q18 -13 66 -13h125
q93 0 134 13q51 16 74 77q10 27 31 95h165l-69 -361h-709q-179 0 -305 -4zM182 -456l182 312h289l-269 -312h-202z" />
    <glyph glyph-name="lcommaaccent" unicode="&#x13c;" horiz-adv-x="629" vert-adv-y="2457" 
d="M169 1297l21 120q251 25 437 91l-202 -1145q-22 -125 -22 -184q0 -55 58 -55q44 0 94 29l40 -138q-102 -40 -230 -40q-119 0 -172 42q-57 44 -57 135q0 84 27 235l105 597q32 184 32 240q0 77 -70 77q-20 0 -61 -4zM-58 -456l182 312h289l-269 -312h-202z" />
    <glyph glyph-name="Lcaron" unicode="&#x13d;" horiz-adv-x="1114" vert-adv-y="2457" 
d="M-45 -4l21 119q23 4 35 7q57 10 78 26q40 33 69 201l126 716q16 90 16 147q0 46 -27 63q-15 9 -89 23l22 119q187 -8 281 -8t282 8l-21 -119q-23 -4 -35 -6q-51 -9 -72 -23t-35 -48q-22 -54 -40 -156l-128 -731q-14 -87 -14 -101q0 -31 19 -44q18 -13 66 -13h125
q93 0 134 13q51 16 74 77q10 27 31 95h165l-69 -361h-709q-179 0 -305 -4zM796 971l160 520h263l-228 -520h-195z" />
    <glyph glyph-name="lcaron" unicode="&#x13e;" horiz-adv-x="912" vert-adv-y="2457" 
d="M169 1297l21 120q251 25 437 91l-202 -1145q-22 -125 -22 -184q0 -55 58 -55q44 0 94 29l40 -138q-102 -40 -230 -40q-119 0 -172 42q-57 44 -57 135q0 84 27 235l105 597q32 184 32 240q0 77 -70 77q-20 0 -61 -4zM714 971l160 520h263l-228 -520h-195z" />
    <glyph glyph-name="Ldot" unicode="&#x13f;" horiz-adv-x="1078" vert-adv-y="2457" 
d="M-45 -4l21 119q23 4 35 7q57 10 78 26q40 33 69 201l126 716q16 90 16 147q0 46 -27 63q-15 9 -89 23l22 119q187 -8 281 -8t282 8l-21 -119q-23 -4 -35 -6q-51 -9 -72 -23t-35 -48q-22 -54 -40 -156l-128 -731q-14 -87 -14 -101q0 -31 19 -44q18 -13 66 -13h125
q93 0 134 13q51 16 74 77q10 27 31 95h165l-69 -361h-709q-179 0 -305 -4zM830 875q77 0 129 -58q43 -49 43 -111q0 -72 -56 -123q-49 -45 -119 -45q-80 0 -132 58q-43 49 -43 112q0 70 56 122q49 45 122 45z" />
    <glyph glyph-name="ldot" unicode="&#x140;" horiz-adv-x="906" vert-adv-y="2457" 
d="M169 1297l21 120q251 25 437 91l-202 -1145q-22 -125 -22 -184q0 -55 58 -55q44 0 94 29l40 -138q-102 -40 -230 -40q-119 0 -172 42q-57 44 -57 135q0 84 27 235l105 597q32 184 32 240q0 77 -70 77q-20 0 -61 -4zM799 810q77 0 129 -58q43 -49 43 -111q0 -72 -56 -123
q-49 -45 -119 -45q-80 0 -132 58q-43 49 -43 112q0 70 56 122q49 45 122 45z" />
    <glyph glyph-name="Nacute" unicode="&#x143;" horiz-adv-x="1450" vert-adv-y="2457" 
d="M-45 -4l21 119q23 5 35 7q57 10 78 27q40 32 69 199l127 720q15 87 15 144q0 46 -27 62q-15 9 -89 24l22 119q177 -8 265 -8q63 0 189 4l219 -610q48 -134 93 -306q31 -118 46 -170q26 191 52 338l70 401q15 88 15 146q0 46 -27 62q-15 9 -88 24l21 119q171 -8 256 -8
t255 8l-21 -119q-23 -4 -35 -7q-57 -10 -78 -27q-40 -32 -69 -198l-188 -1066l-281 -11l-264 730q-5 13 -68 233q-34 125 -50 181q-31 -212 -57 -361l-74 -423q-14 -81 -14 -148q0 -46 27 -62q12 -8 87 -24l-21 -119q-170 8 -255 8q-86 0 -256 -8zM753 1564l221 290h315
l-327 -290h-209z" />
    <glyph glyph-name="nacute" unicode="&#x144;" horiz-adv-x="1233" vert-adv-y="2457" 
d="M82 815l21 121q230 23 394 72q1 -21 1 -29q0 -80 -22 -232q75 107 138 164q109 99 243 99q245 0 245 -245q0 -86 -29 -230l-31 -150q-35 -169 -35 -208q0 -53 56 -53q45 0 99 29l41 -132q-106 -46 -240 -46q-119 0 -171 42q-52 41 -52 128q0 65 33 226l36 182
q24 116 24 175q0 47 -20 75t-56 28q-43 0 -84.5 -31t-95.5 -104q-81 -108 -121 -216q-25 -67 -43 -169l-16 -92q-11 -61 -30 -219h-283q37 169 46 220l67 380q18 102 18 146q0 47 -22 62q-15 10 -56 10q-21 0 -55 -3zM573 1148l221 290h315l-327 -290h-209z" />
    <glyph glyph-name="Ncommaaccent" unicode="&#x145;" horiz-adv-x="1450" vert-adv-y="2457" 
d="M-45 -4l21 119q23 5 35 7q57 10 78 27q40 32 69 199l127 720q15 87 15 144q0 46 -27 62q-15 9 -89 24l22 119q177 -8 265 -8q63 0 189 4l219 -610q48 -134 93 -306q31 -118 46 -170q26 191 52 338l70 401q15 88 15 146q0 46 -27 62q-15 9 -88 24l21 119q171 -8 256 -8
t255 8l-21 -119q-23 -4 -35 -7q-57 -10 -78 -27q-40 -32 -69 -198l-188 -1066l-281 -11l-264 730q-5 13 -68 233q-34 125 -50 181q-31 -212 -57 -361l-74 -423q-14 -81 -14 -148q0 -46 27 -62q12 -8 87 -24l-21 -119q-170 8 -255 8q-86 0 -256 -8zM370 -456l182 312h289
l-269 -312h-202z" />
    <glyph glyph-name="ncommaaccent" unicode="&#x146;" horiz-adv-x="1233" vert-adv-y="2457" 
d="M82 815l21 121q230 23 394 72q1 -21 1 -29q0 -80 -22 -232q75 107 138 164q109 99 243 99q245 0 245 -245q0 -86 -29 -230l-31 -150q-35 -169 -35 -208q0 -53 56 -53q45 0 99 29l41 -132q-106 -46 -240 -46q-119 0 -171 42q-52 41 -52 128q0 65 33 226l36 182
q24 116 24 175q0 47 -20 75t-56 28q-43 0 -84.5 -31t-95.5 -104q-81 -108 -121 -216q-25 -67 -43 -169l-16 -92q-11 -61 -30 -219h-283q37 169 46 220l67 380q18 102 18 146q0 47 -22 62q-15 10 -56 10q-21 0 -55 -3zM250 -456l182 312h289l-269 -312h-202z" />
    <glyph glyph-name="Ncaron" unicode="&#x147;" horiz-adv-x="1450" vert-adv-y="2457" 
d="M-45 -4l21 119q23 5 35 7q57 10 78 27q40 32 69 199l127 720q15 87 15 144q0 46 -27 62q-15 9 -89 24l22 119q177 -8 265 -8q63 0 189 4l219 -610q48 -134 93 -306q31 -118 46 -170q26 191 52 338l70 401q15 88 15 146q0 46 -27 62q-15 9 -88 24l21 119q171 -8 256 -8
t255 8l-21 -119q-23 -4 -35 -7q-57 -10 -78 -27q-40 -32 -69 -198l-188 -1066l-281 -11l-264 730q-5 13 -68 233q-34 125 -50 181q-31 -212 -57 -361l-74 -423q-14 -81 -14 -148q0 -46 27 -62q12 -8 87 -24l-21 -119q-170 8 -255 8q-86 0 -256 -8zM916 1688l197 166h218
l-277 -290h-306l-174 290h203z" />
    <glyph glyph-name="ncaron" unicode="&#x148;" horiz-adv-x="1233" vert-adv-y="2457" 
d="M82 815l21 121q230 23 394 72q1 -21 1 -29q0 -80 -22 -232q75 107 138 164q109 99 243 99q245 0 245 -245q0 -86 -29 -230l-31 -150q-35 -169 -35 -208q0 -53 56 -53q45 0 99 29l41 -132q-106 -46 -240 -46q-119 0 -171 42q-52 41 -52 128q0 65 33 226l36 182
q24 116 24 175q0 47 -20 75t-56 28q-43 0 -84.5 -31t-95.5 -104q-81 -108 -121 -216q-25 -67 -43 -169l-16 -92q-11 -61 -30 -219h-283q37 169 46 220l67 380q18 102 18 146q0 47 -22 62q-15 10 -56 10q-21 0 -55 -3zM695 1272l197 166h218l-277 -290h-306l-174 290h203z
" />
    <glyph glyph-name="napostrophe" unicode="&#x149;" horiz-adv-x="1233" vert-adv-y="2457" 
d="M84 815l21 121q230 23 394 72q1 -21 1 -29q0 -80 -22 -232q75 107 138 164q108 99 243 99q245 0 245 -246q0 -85 -30 -229l-30 -150q-35 -170 -35 -208q0 -53 56 -53q45 0 99 29l41 -132q-106 -46 -240 -46q-119 0 -171 42q-52 41 -52 128q0 66 33 226l36 182
q24 117 24 174q0 48 -20 76q-21 28 -56 28q-65 0 -138 -83q-93 -104 -150 -236q-34 -80 -56 -201l-16 -92q-13 -70 -31 -219h-283q37 162 47 220l67 380q18 102 18 146q0 46 -22 62q-15 10 -56 10q-21 0 -55 -3zM52 1063l133 428h269l-221 -428h-181z" />
    <glyph glyph-name="Eng" unicode="&#x14a;" horiz-adv-x="1450" vert-adv-y="2457" 
d="M-45 -4l21 119q23 5 35 7q57 10 78 27q40 32 69 199l127 720q15 87 15 144q0 46 -27 62q-15 9 -89 24l22 119q177 -8 265 -8q63 0 189 4l219 -610q48 -134 93 -306q31 -118 46 -170q26 191 52 338l70 401q15 88 15 146q0 46 -27 62q-15 9 -88 24l21 119q171 -8 256 -8
t255 8l-21 -119q-23 -4 -35 -7q-57 -10 -78 -27q-40 -32 -69 -198l-155 -879q-55 -316 -128 -457q-110 -212 -392 -212q-124 0 -220 41l44 159q74 -38 158 -38q130 0 180 114q29 66 56 201l-14 -1l-262 725q-5 13 -68 233q-34 125 -50 181q-31 -212 -57 -361l-74 -423
q-14 -81 -14 -148q0 -46 27 -62q12 -8 87 -24l-21 -119q-170 8 -255 8q-86 0 -256 -8z" />
    <glyph glyph-name="eng" unicode="&#x14b;" horiz-adv-x="1233" vert-adv-y="2457" 
d="M82 815l21 121q230 23 394 72q1 -21 1 -31q0 -72 -22 -230q75 107 138 164q108 99 243 99q245 0 245 -247q0 -93 -29 -228l-76 -348q-45 -209 -73 -297q-63 -197 -169 -281q-113 -91 -295 -91q-124 0 -219 41l48 159q73 -38 157 -38q131 0 185 123q37 86 87 319l91 431
q24 110 24 174q0 48 -20 76q-21 28 -56 28q-43 0 -84.5 -31t-95.5 -104q-82 -110 -121 -216q-25 -69 -43 -169l-16 -92q-12 -70 -30 -219h-283q37 169 46 220l67 380q18 102 18 146q0 47 -22 62q-15 10 -56 10q-21 0 -55 -3z" />
    <glyph glyph-name="Omacron" unicode="&#x14c;" horiz-adv-x="1399" vert-adv-y="2457" 
d="M840 1440q170 0 297 -69q131 -70 189 -215q47 -119 47 -265q0 -176 -55 -362q-81 -279 -258 -422q-168 -134 -416 -134q-266 0 -405 138q-138 138 -138 410q0 181 53 363q164 556 686 556zM842 1269q-223 0 -345 -273q-45 -100 -75 -248t-30 -271q0 -154 61 -245
q59 -88 185 -88q217 0 339 274q44 98 75 248q30 147 30 267q0 137 -52 231q-59 105 -188 105zM526 1631l29 165h676l-29 -165h-676z" />
    <glyph glyph-name="omacron" unicode="&#x14d;" horiz-adv-x="1117" vert-adv-y="2457" 
d="M627 1010q205 0 320 -119q105 -108 105 -295q0 -134 -47 -264q-65 -181 -208 -276q-127 -83 -300 -83q-208 0 -323 115q-109 110 -109 299q0 137 48 269q64 179 212 274q125 80 302 80zM620 847q-136 0 -213 -176q-64 -146 -64 -319q0 -216 156 -216q135 0 212 176
q27 64 45 153q18 88 18 162q0 97 -35 155q-38 65 -119 65zM318 1204l29 165h676l-29 -165h-676z" />
    <glyph glyph-name="Obreve" unicode="&#x14e;" horiz-adv-x="1399" vert-adv-y="2457" 
d="M840 1440q170 0 297 -69q131 -70 189 -215q47 -119 47 -265q0 -176 -55 -362q-81 -279 -258 -422q-168 -134 -416 -134q-266 0 -405 138q-138 138 -138 410q0 181 53 363q164 556 686 556zM842 1269q-223 0 -345 -273q-45 -100 -75 -248t-30 -271q0 -154 61 -245
q59 -88 185 -88q217 0 339 274q44 98 75 248q30 147 30 267q0 137 -52 231q-59 105 -188 105zM583 1873h186q-1 -15 -1 -23q0 -59 25 -91q33 -41 126 -41q122 0 172 70q24 33 39 85h192q-22 -121 -77 -191q-54 -70 -131 -101q-82 -34 -210 -34q-179 0 -262 76
q-67 61 -67 165q0 31 8 85z" />
    <glyph glyph-name="obreve" unicode="&#x14f;" horiz-adv-x="1117" vert-adv-y="2457" 
d="M627 1010q205 0 320 -119q105 -108 105 -295q0 -134 -47 -264q-65 -181 -208 -276q-127 -83 -300 -83q-208 0 -323 115q-109 110 -109 299q0 137 48 269q64 179 212 274q125 80 302 80zM620 847q-136 0 -213 -176q-64 -146 -64 -319q0 -216 156 -216q135 0 212 176
q27 64 45 153q18 88 18 162q0 97 -35 155q-38 65 -119 65zM362 1457h186q-1 -15 -1 -23q0 -59 25 -91q33 -41 126 -41q122 0 172 70q23 32 39 85h192q-23 -123 -77 -191q-54 -70 -131 -101q-82 -34 -210 -34q-329 0 -329 243q0 32 8 83z" />
    <glyph glyph-name="Ohungarumlaut" unicode="&#x150;" horiz-adv-x="1399" vert-adv-y="2457" 
d="M840 1440q170 0 297 -69q131 -70 189 -215q47 -119 47 -265q0 -176 -55 -362q-81 -279 -258 -422q-168 -134 -416 -134q-266 0 -405 138q-138 138 -138 410q0 181 53 363q164 556 686 556zM842 1269q-223 0 -345 -273q-45 -100 -75 -248t-30 -271q0 -154 61 -245
q59 -88 185 -88q217 0 339 274q44 98 75 248q30 147 30 267q0 137 -52 231q-59 105 -188 105zM583 1564l202 290h284l-295 -290h-191zM968 1564l202 290h284l-295 -290h-191z" />
    <glyph glyph-name="ohungarumlaut" unicode="&#x151;" horiz-adv-x="1117" vert-adv-y="2457" 
d="M627 1010q205 0 320 -119q105 -108 105 -295q0 -134 -47 -264q-65 -181 -208 -276q-127 -83 -300 -83q-208 0 -323 115q-109 110 -109 299q0 137 48 269q64 179 212 274q125 80 302 80zM620 847q-136 0 -213 -176q-64 -146 -64 -319q0 -216 156 -216q135 0 212 176
q27 64 45 153q18 88 18 162q0 97 -35 155q-38 65 -119 65zM353 1148l202 290h284l-295 -290h-191zM738 1148l202 290h284l-295 -290h-191z" />
    <glyph glyph-name="Racute" unicode="&#x154;" horiz-adv-x="1244" vert-adv-y="2457" 
d="M483 590l-43 -242q-16 -93 -16 -146q0 -47 27 -64q13 -7 89 -23l-21 -119q-188 8 -282 8t-282 -8l21 119q23 4 35 7q57 10 78 26q40 33 69 197l123 701q19 110 19 167q0 45 -25 61q-12 8 -85 24l21 119q134 -4 336 -4h178q271 0 386 -70q150 -91 150 -286
q0 -184 -119 -296q-59 -55 -153 -92q-23 -8 -68 -23q43 -44 63 -89q26 -55 49 -144l25 -100q29 -110 53 -150q26 -44 71 -44q32 0 66 9l37 -127q-103 -29 -231 -29q-103 0 -152 40q-51 41 -84 143q-11 35 -35 129l-18 74q-31 122 -55 176q-17 37 -43 48q-21 8 -52 8h-132z
M508 733h168q157 0 224 90q70 94 70 239q0 105 -63 148q-48 32 -172 32h-138zM634 1564l221 290h315l-327 -290h-209z" />
    <glyph glyph-name="racute" unicode="&#x155;" horiz-adv-x="850" vert-adv-y="2457" 
d="M82 815l21 121q229 23 394 72q1 -19 1 -27q0 -48 -10 -144q63 82 107 116q74 57 159 57q76 0 171 -36l-55 -281h-160q1 11 2 16q3 30 3 43q0 81 -64 81q-69 0 -136 -122q-47 -86 -68 -205l-29 -169q-24 -140 -40 -341q-98 8 -149 8q-48 0 -146 -8q45 210 68 341l46 263
q18 103 18 147q0 47 -22 62q-16 10 -56 10q-22 0 -55 -4zM432 1148l221 290h315l-327 -290h-209z" />
    <glyph glyph-name="Rcommaaccent" unicode="&#x156;" horiz-adv-x="1244" vert-adv-y="2457" 
d="M483 590l-43 -242q-16 -93 -16 -146q0 -47 27 -64q13 -7 89 -23l-21 -119q-188 8 -282 8t-282 -8l21 119q23 4 35 7q57 10 78 26q40 33 69 197l123 701q19 110 19 167q0 45 -25 61q-12 8 -85 24l21 119q134 -4 336 -4h178q271 0 386 -70q150 -91 150 -286
q0 -184 -119 -296q-59 -55 -153 -92q-23 -8 -68 -23q43 -44 63 -89q26 -55 49 -144l25 -100q29 -110 53 -150q26 -44 71 -44q32 0 66 9l37 -127q-103 -29 -231 -29q-103 0 -152 40q-51 41 -84 143q-11 35 -35 129l-18 74q-31 122 -55 176q-17 37 -43 48q-21 8 -52 8h-132z
M508 733h168q157 0 224 90q70 94 70 239q0 105 -63 148q-48 32 -172 32h-138zM291 -456l182 312h289l-269 -312h-202z" />
    <glyph glyph-name="rcommaaccent" unicode="&#x157;" horiz-adv-x="850" vert-adv-y="2457" 
d="M85 815l21 121q229 23 394 72q1 -19 1 -27q0 -48 -10 -144q63 82 107 116q74 57 159 57q76 0 171 -36l-55 -281h-160q1 11 2 16q3 30 3 43q0 81 -64 81q-69 0 -136 -122q-47 -86 -68 -205l-29 -169q-24 -140 -40 -341q-98 8 -149 8q-48 0 -146 -8q45 210 68 341l46 263
q18 103 18 147q0 47 -22 62q-16 10 -56 10q-22 0 -55 -4zM-78 -456l182 312h289l-269 -312h-202z" />
    <glyph glyph-name="Rcaron" unicode="&#x158;" horiz-adv-x="1244" vert-adv-y="2457" 
d="M483 590l-43 -242q-16 -93 -16 -146q0 -47 27 -64q13 -7 89 -23l-21 -119q-188 8 -282 8t-282 -8l21 119q23 4 35 7q57 10 78 26q40 33 69 197l123 701q19 110 19 167q0 45 -25 61q-12 8 -85 24l21 119q134 -4 336 -4h178q271 0 386 -70q150 -91 150 -286
q0 -184 -119 -296q-59 -55 -153 -92q-23 -8 -68 -23q43 -44 63 -89q26 -55 49 -144l25 -100q29 -110 53 -150q26 -44 71 -44q32 0 66 9l37 -127q-103 -29 -231 -29q-103 0 -152 40q-51 41 -84 143q-11 35 -35 129l-18 74q-31 122 -55 176q-17 37 -43 48q-21 8 -52 8h-132z
M508 733h168q157 0 224 90q70 94 70 239q0 105 -63 148q-48 32 -172 32h-138zM791 1688l197 166h218l-277 -290h-306l-174 290h203z" />
    <glyph glyph-name="rcaron" unicode="&#x159;" horiz-adv-x="850" vert-adv-y="2457" 
d="M82 815l21 121q229 23 394 72q1 -19 1 -27q0 -48 -10 -144q63 82 107 116q74 57 159 57q76 0 171 -36l-55 -281h-160q1 11 2 16q3 30 3 43q0 81 -64 81q-69 0 -136 -122q-47 -86 -68 -205l-29 -169q-24 -140 -40 -341q-98 8 -149 8q-48 0 -146 -8q45 210 68 341l46 263
q18 103 18 147q0 47 -22 62q-16 10 -56 10q-22 0 -55 -4zM566 1272l197 166h218l-277 -290h-306l-174 290h203z" />
    <glyph glyph-name="Sacute" unicode="&#x15a;" horiz-adv-x="1066" vert-adv-y="2457" 
d="M-20 22l65 339h160q-2 -26 -2 -40q0 -92 29 -129q39 -48 188 -48q153 0 220 62q71 66 71 179q0 68 -35 109q-27 31 -68 54q-40 23 -107 57q-170 85 -246 170q-82 93 -82 229q0 202 134 321q69 61 159 88t222 27q190 0 388 -46l-62 -322h-161q1 22 1 39q0 69 -17 103
q-28 55 -142 55q-119 0 -181 -60q-63 -60 -63 -157q0 -72 51 -120q43 -41 172 -107q172 -89 232 -154q83 -91 83 -245q0 -209 -135 -329q-77 -69 -186 -98q-97 -26 -253 -26q-248 0 -435 49zM589 1564l221 290h315l-327 -290h-209z" />
    <glyph glyph-name="sacute" unicode="&#x15b;" horiz-adv-x="944" vert-adv-y="2457" 
d="M-9 15l57 298h160q-2 -26 -2 -44q0 -67 26 -96q35 -37 143 -37q225 0 225 128q0 45 -49 76q-39 25 -161 75q-145 60 -198 113q-64 63 -64 165q0 139 98 227q101 90 315 90q164 0 365 -42l-54 -280h-160q2 26 2 42q0 62 -27 86q-35 31 -124 31q-70 0 -115 -25
q-48 -28 -48 -82q0 -50 48 -82q38 -25 166 -80q130 -56 180 -97q78 -64 78 -176q0 -143 -99 -233q-110 -99 -363 -99q-203 0 -399 42zM443 1148l221 290h315l-327 -290h-209z" />
    <glyph glyph-name="Scircumflex" unicode="&#x15c;" horiz-adv-x="1066" vert-adv-y="2457" 
d="M-20 22l65 339h160q-2 -26 -2 -40q0 -92 29 -129q39 -48 188 -48q153 0 220 62q71 66 71 179q0 68 -35 109q-27 31 -68 54q-40 23 -107 57q-170 85 -246 170q-82 93 -82 229q0 202 134 321q69 61 159 88t222 27q190 0 388 -46l-62 -322h-161q1 22 1 39q0 69 -17 103
q-28 55 -142 55q-119 0 -181 -60q-63 -60 -63 -157q0 -72 51 -120q43 -41 172 -107q172 -89 232 -154q83 -91 83 -245q0 -209 -135 -329q-77 -69 -186 -98q-97 -26 -253 -26q-248 0 -435 49zM751 1730l-197 -166h-218l276 290h307l174 -290h-204z" />
    <glyph glyph-name="scircumflex" unicode="&#x15d;" horiz-adv-x="944" vert-adv-y="2457" 
d="M-9 15l57 298h160q-2 -26 -2 -44q0 -67 26 -96q35 -37 143 -37q225 0 225 128q0 45 -49 76q-39 25 -161 75q-145 60 -198 113q-64 63 -64 165q0 139 98 227q101 90 315 90q164 0 365 -42l-54 -280h-160q2 26 2 42q0 62 -27 86q-35 31 -124 31q-70 0 -115 -25
q-48 -28 -48 -82q0 -50 48 -82q38 -25 166 -80q130 -56 180 -97q78 -64 78 -176q0 -143 -99 -233q-110 -99 -363 -99q-203 0 -399 42zM633 1314l-197 -166h-218l276 290h307l174 -290h-204z" />
    <glyph glyph-name="Tcommaaccent" unicode="&#x162;" horiz-adv-x="1270" vert-adv-y="2457" 
d="M184 -4l21 119q34 5 52 7q91 10 120 25q61 30 91 202l158 896h-117q-120 0 -156 -44q-24 -29 -61 -148h-156l69 360h1185l-59 -360h-157q2 40 2 68q0 77 -28 98q-34 26 -141 26h-99l-154 -876q-15 -85 -15 -139q0 -77 56 -94q35 -10 136 -21l-21 -119q-242 8 -363 8
t-363 -8zM228 -456l182 312h289l-269 -312h-202z" />
    <glyph glyph-name="tcommaaccent" unicode="&#x163;" horiz-adv-x="756" vert-adv-y="2457" 
d="M223 812h-149l30 171h29q123 0 186 95q53 79 107 254h156l-62 -349h287l-30 -171h-287l-76 -435q-18 -102 -18 -160q0 -95 91 -95q78 0 161 36l26 -139q-140 -46 -295 -46q-135 0 -199 52q-57 47 -57 151q0 64 23 195zM-19 -456l182 312h289l-269 -312h-202z" />
    <glyph glyph-name="Tcaron" unicode="&#x164;" horiz-adv-x="1270" vert-adv-y="2457" 
d="M184 -4l21 119q34 5 52 7q91 10 120 25q61 30 91 202l158 896h-117q-120 0 -156 -44q-24 -29 -61 -148h-156l69 360h1185l-59 -360h-157q2 40 2 68q0 77 -28 98q-34 26 -141 26h-99l-154 -876q-15 -85 -15 -139q0 -77 56 -94q35 -10 136 -21l-21 -119q-242 8 -363 8
t-363 -8zM834 1688l197 166h218l-277 -290h-306l-174 290h203z" />
    <glyph glyph-name="tcaron" unicode="&#x165;" horiz-adv-x="952" vert-adv-y="2457" 
d="M223 812h-149l30 171h29q123 0 186 95q53 79 107 254h156l-62 -349h287l-30 -171h-287l-76 -435q-18 -102 -18 -160q0 -95 91 -95q78 0 161 36l26 -139q-140 -46 -295 -46q-135 0 -199 52q-57 47 -57 151q0 64 23 195zM754 1143l160 520h263l-228 -520h-195z" />
    <glyph glyph-name="Tbar" unicode="&#x166;" horiz-adv-x="1270" vert-adv-y="2457" 
d="M539 755h-353l21 119h353l66 371h-117q-120 0 -156 -44q-24 -29 -61 -148h-156l69 360h1185l-59 -360h-157q2 40 2 68q0 77 -28 98q-34 26 -141 26h-99l-66 -371h356l-22 -119h-355l-67 -386q-15 -86 -15 -139q0 -77 56 -94q35 -10 136 -21l-21 -119q-242 8 -363 8
t-363 -8l21 119q34 5 52 7q90 10 120 25q61 30 91 202z" />
    <glyph glyph-name="tbar" unicode="&#x167;" horiz-adv-x="756" vert-adv-y="2457" 
d="M224 812h-150l31 171h28q123 0 186 95q53 79 107 254h157l-62 -349h287l-31 -171h-286l-28 -155h255l-22 -126h-255l-27 -154q-18 -105 -18 -159q0 -96 91 -96q77 0 162 36l25 -139q-140 -46 -294 -46q-136 0 -200 52q-57 47 -57 151q0 61 23 195l28 160h-144l22 126h144
z" />
    <glyph glyph-name="Utilde" unicode="&#x168;" horiz-adv-x="1405" vert-adv-y="2457" 
d="M177 1298l21 119q188 -8 282 -8t281 8l-21 -119q-23 -4 -34 -7q-57 -10 -78 -27q-40 -32 -70 -200l-91 -519q-23 -131 -23 -204q0 -199 226 -199q187 0 265 135q38 66 68 237l97 550q16 91 16 148q0 46 -27 62q-14 9 -88 24l21 119q170 -8 255 -8q86 0 256 8l-21 -119
q-23 -4 -34 -7q-57 -10 -78 -27q-40 -32 -70 -200l-100 -572q-25 -138 -40 -185q-57 -181 -195 -261q-129 -75 -340 -75q-263 0 -392 113q-99 87 -99 247q0 95 29 258l83 475q16 89 16 148q0 46 -27 62q-14 9 -88 24zM688 1566h-177q45 134 97 205q82 109 199 109
q61 0 112 -29q28 -16 75 -70q47 -53 74 -53q52 0 92 139h179q-35 -132 -82 -201q-78 -114 -213 -114q-81 0 -134 45q-14 12 -56 61q-40 46 -65 46q-35 0 -68 -58q-10 -20 -33 -80z" />
    <glyph glyph-name="utilde" unicode="&#x169;" horiz-adv-x="1201" vert-adv-y="2457" 
d="M82 815l21 121q241 23 413 72q-3 -87 -14 -165q-14 -89 -65 -337q-40 -195 -40 -259q0 -95 75 -95q112 0 225 175q36 54 53 110q10 30 23 105l15 82q15 87 15 129q0 40 -17 55q-13 10 -49 10q-21 0 -55 -3l22 121q232 23 397 72q-2 -131 -50 -403l-41 -238
q-26 -149 -26 -188q0 -55 58 -55q44 0 97 29l40 -138q-102 -40 -226 -40q-153 0 -192 95q-15 38 -17 117q-76 -91 -148 -144q-97 -70 -227 -70q-240 0 -240 242q0 70 21 183q6 32 36 183q24 122 24 171q0 41 -20 56q-14 10 -54 10q-20 0 -54 -3zM505 1150h-177
q45 135 97 204q82 109 199 109q62 0 112 -29q27 -15 75 -70q47 -53 74 -53q52 0 92 140h179q-35 -132 -82 -201q-79 -114 -213 -114q-81 0 -134 45q-15 12 -56 60q-41 46 -65 46q-35 0 -68 -58q-10 -17 -33 -79z" />
    <glyph glyph-name="Umacron" unicode="&#x16a;" horiz-adv-x="1405" vert-adv-y="2457" 
d="M177 1298l21 119q188 -8 282 -8t281 8l-21 -119q-23 -4 -34 -7q-57 -10 -78 -27q-40 -32 -70 -200l-91 -519q-23 -131 -23 -204q0 -199 226 -199q187 0 265 135q38 66 68 237l97 550q16 91 16 148q0 46 -27 62q-14 9 -88 24l21 119q170 -8 255 -8q86 0 256 8l-21 -119
q-23 -4 -34 -7q-57 -10 -78 -27q-40 -32 -70 -200l-100 -572q-25 -138 -40 -185q-57 -181 -195 -261q-129 -75 -340 -75q-263 0 -392 113q-99 87 -99 247q0 95 29 258l83 475q16 89 16 148q0 46 -27 62q-14 9 -88 24zM566 1631l29 165h676l-29 -165h-676z" />
    <glyph glyph-name="umacron" unicode="&#x16b;" horiz-adv-x="1201" vert-adv-y="2457" 
d="M82 815l21 121q241 23 413 72q-3 -87 -14 -165q-14 -89 -65 -337q-40 -195 -40 -259q0 -95 75 -95q112 0 225 175q36 54 53 110q10 30 23 105l15 82q15 87 15 129q0 40 -17 55q-13 10 -49 10q-21 0 -55 -3l22 121q232 23 397 72q-2 -131 -50 -403l-41 -238
q-26 -149 -26 -188q0 -55 58 -55q44 0 97 29l40 -138q-102 -40 -226 -40q-153 0 -192 95q-15 38 -17 117q-76 -91 -148 -144q-97 -70 -227 -70q-240 0 -240 242q0 70 21 183q6 32 36 183q24 122 24 171q0 41 -20 56q-14 10 -54 10q-20 0 -54 -3zM331 1204l29 165h676
l-29 -165h-676z" />
    <glyph glyph-name="Ubreve" unicode="&#x16c;" horiz-adv-x="1405" vert-adv-y="2457" 
d="M177 1298l21 119q188 -8 282 -8t281 8l-21 -119q-23 -4 -34 -7q-57 -10 -78 -27q-40 -32 -70 -200l-91 -519q-23 -131 -23 -204q0 -199 226 -199q187 0 265 135q38 66 68 237l97 550q16 91 16 148q0 46 -27 62q-14 9 -88 24l21 119q170 -8 255 -8q86 0 256 8l-21 -119
q-23 -4 -34 -7q-57 -10 -78 -27q-40 -32 -70 -200l-100 -572q-25 -138 -40 -185q-57 -181 -195 -261q-129 -75 -340 -75q-263 0 -392 113q-99 87 -99 247q0 95 29 258l83 475q16 89 16 148q0 46 -27 62q-14 9 -88 24zM567 1873h186q-1 -15 -1 -23q0 -59 25 -91
q33 -41 126 -41q122 0 172 70q24 33 39 85h192q-22 -121 -77 -191q-54 -70 -131 -101q-82 -34 -210 -34q-179 0 -262 76q-67 61 -67 165q0 31 8 85z" />
    <glyph glyph-name="ubreve" unicode="&#x16d;" horiz-adv-x="1201" vert-adv-y="2457" 
d="M82 815l21 121q241 23 413 72q-3 -87 -14 -165q-14 -89 -65 -337q-40 -195 -40 -259q0 -95 75 -95q112 0 225 175q36 54 53 110q10 30 23 105l15 82q15 87 15 129q0 40 -17 55q-13 10 -49 10q-21 0 -55 -3l22 121q232 23 397 72q-2 -131 -50 -403l-41 -238
q-26 -149 -26 -188q0 -55 58 -55q44 0 97 29l40 -138q-102 -40 -226 -40q-153 0 -192 95q-15 38 -17 117q-76 -91 -148 -144q-97 -70 -227 -70q-240 0 -240 242q0 70 21 183q6 32 36 183q24 122 24 171q0 41 -20 56q-14 10 -54 10q-20 0 -54 -3zM343 1457h186q-1 -15 -1 -23
q0 -59 25 -91q33 -41 126 -41q122 0 172 70q23 32 39 85h192q-23 -123 -77 -191q-54 -70 -131 -101q-82 -34 -210 -34q-329 0 -329 243q0 32 8 83z" />
    <glyph glyph-name="Uring" unicode="&#x16e;" horiz-adv-x="1405" vert-adv-y="2457" 
d="M177 1298l21 119q188 -8 282 -8t281 8l-21 -119q-23 -4 -34 -7q-57 -10 -78 -27q-40 -32 -70 -200l-91 -519q-23 -131 -23 -204q0 -199 226 -199q187 0 265 135q38 66 68 237l97 550q16 91 16 148q0 46 -27 62q-14 9 -88 24l21 119q170 -8 255 -8q86 0 256 8l-21 -119
q-23 -4 -34 -7q-57 -10 -78 -27q-40 -32 -70 -200l-100 -572q-25 -138 -40 -185q-57 -181 -195 -261q-129 -75 -340 -75q-263 0 -392 113q-99 87 -99 247q0 95 29 258l83 475q16 89 16 148q0 46 -27 62q-14 9 -88 24zM910 1988q114 0 185 -62q72 -62 72 -158q0 -95 -72 -159
q-73 -65 -189 -65t-188 65q-73 65 -73 159q0 97 72 158q72 62 193 62zM908 1904q-101 0 -101 -139q0 -137 99 -137t99 138q0 67 -26 102q-26 36 -71 36z" />
    <glyph glyph-name="uring" unicode="&#x16f;" horiz-adv-x="1201" vert-adv-y="2457" 
d="M82 815l21 121q241 23 413 72q-3 -87 -14 -165q-14 -89 -65 -337q-40 -195 -40 -259q0 -95 75 -95q112 0 225 175q36 54 53 110q10 30 23 105l15 82q15 87 15 129q0 40 -17 55q-13 10 -49 10q-21 0 -55 -3l22 121q232 23 397 72q-2 -131 -50 -403l-41 -238
q-26 -149 -26 -188q0 -55 58 -55q44 0 97 29l40 -138q-102 -40 -226 -40q-153 0 -192 95q-15 38 -17 117q-76 -91 -148 -144q-97 -70 -227 -70q-240 0 -240 242q0 70 21 183q6 32 36 183q24 122 24 171q0 41 -20 56q-14 10 -54 10q-20 0 -54 -3zM710 1572q114 0 185 -62
q72 -62 72 -158q0 -95 -73 -159q-72 -65 -188 -65t-188 65q-73 65 -73 159q0 97 72 158q72 62 193 62zM708 1488q-101 0 -101 -139q0 -137 99 -137t99 138q0 67 -26 102q-26 36 -71 36z" />
    <glyph glyph-name="Uhungarumlaut" unicode="&#x170;" horiz-adv-x="1405" vert-adv-y="2457" 
d="M177 1298l21 119q188 -8 282 -8t281 8l-21 -119q-23 -4 -34 -7q-57 -10 -78 -27q-40 -32 -70 -200l-91 -519q-23 -131 -23 -204q0 -199 226 -199q187 0 265 135q38 66 68 237l97 550q16 91 16 148q0 46 -27 62q-14 9 -88 24l21 119q170 -8 255 -8q86 0 256 8l-21 -119
q-23 -4 -34 -7q-57 -10 -78 -27q-40 -32 -70 -200l-100 -572q-25 -138 -40 -185q-57 -181 -195 -261q-129 -75 -340 -75q-263 0 -392 113q-99 87 -99 247q0 95 29 258l83 475q16 89 16 148q0 46 -27 62q-14 9 -88 24zM582 1564l202 290h284l-295 -290h-191zM967 1564
l202 290h284l-295 -290h-191z" />
    <glyph glyph-name="uhungarumlaut" unicode="&#x171;" horiz-adv-x="1201" vert-adv-y="2457" 
d="M82 815l21 121q241 23 413 72q-3 -87 -14 -165q-14 -89 -65 -337q-40 -195 -40 -259q0 -95 75 -95q112 0 225 175q36 54 53 110q10 30 23 105l15 82q15 87 15 129q0 40 -17 55q-13 10 -49 10q-21 0 -55 -3l22 121q232 23 397 72q-2 -131 -50 -403l-41 -238
q-26 -149 -26 -188q0 -55 58 -55q44 0 97 29l40 -138q-102 -40 -226 -40q-153 0 -192 95q-15 38 -17 117q-76 -91 -148 -144q-97 -70 -227 -70q-240 0 -240 242q0 70 21 183q6 32 36 183q24 122 24 171q0 41 -20 56q-14 10 -54 10q-20 0 -54 -3zM352 1148l202 290h284
l-295 -290h-191zM737 1148l202 290h284l-295 -290h-191z" />
    <glyph glyph-name="Uogonek" unicode="&#x172;" horiz-adv-x="1405" vert-adv-y="2457" 
d="M177 1298l21 119q188 -8 282 -8t281 8l-21 -119q-23 -4 -34 -7q-57 -10 -78 -27q-40 -32 -70 -200l-91 -519q-23 -131 -23 -204q0 -199 226 -199q187 0 265 135q38 66 68 237l97 550q16 91 16 148q0 46 -27 62q-14 9 -88 24l21 119q170 -8 255 -8q86 0 256 8l-21 -119
q-23 -4 -34 -7q-57 -10 -78 -27q-40 -32 -70 -200l-100 -572q-26 -144 -41 -191q-80 -245 -322 -306q-133 -99 -179 -144q-107 -103 -107 -220q0 -87 109 -87q69 0 150 34l-1 -116q-102 -32 -200 -32q-278 0 -278 187q0 140 128 250q57 49 162 104q-487 7 -487 360
q0 95 29 258l83 475q16 89 16 148q0 46 -27 62q-15 10 -88 24z" />
    <glyph glyph-name="uogonek" unicode="&#x173;" horiz-adv-x="1201" vert-adv-y="2457" 
d="M82 815l21 121q241 23 413 72q-3 -87 -14 -165q-14 -89 -65 -337q-40 -195 -40 -259q0 -95 75 -95q112 0 225 175q36 54 53 110q10 30 23 105l15 82q15 87 15 129q0 40 -17 55q-13 10 -49 10q-21 0 -55 -3l22 121q232 23 397 72q-2 -131 -50 -403l-41 -238
q-26 -150 -26 -188q0 -55 58 -55q44 0 97 29l40 -138q-21 -16 -81 -57q-123 -86 -180 -164q-57 -77 -57 -163q0 -87 109 -87q68 0 149 34l-1 -116q-102 -32 -199 -32q-278 0 -278 187q0 215 298 358q-122 5 -165 70q-28 43 -30 142q-76 -91 -148 -144q-97 -70 -227 -70
q-240 0 -240 242q0 70 21 183q6 32 36 183q24 122 24 171q0 41 -20 56q-14 10 -54 10q-20 0 -54 -3z" />
    <glyph glyph-name="Wcircumflex" unicode="&#x174;" horiz-adv-x="1904" vert-adv-y="2457" 
d="M352 0l-112 1091q-13 127 -37 163q-19 28 -100 44l21 119q173 -8 259 -8t258 8l-21 -119q-71 -16 -90 -36q-21 -24 -21 -84q0 -53 2 -88l20 -352q7 -122 14 -428q90 224 171 409l302 694h224l53 -674q14 -171 26 -432q69 199 157 422l160 407q28 72 28 107q0 26 -25 38
q-16 7 -60 17l21 119q168 -8 252 -8t252 8l-21 -119q-84 -17 -110 -41q-43 -38 -97 -156l-501 -1101h-247l-53 588q-15 166 -29 453q-115 -284 -188 -449l-262 -592h-246zM1163 1730l-197 -166h-218l276 290h307l174 -290h-204z" />
    <glyph glyph-name="wcircumflex" unicode="&#x175;" horiz-adv-x="1579" vert-adv-y="2457" 
d="M263 0l-79 616q-15 119 -28 154q-12 32 -30 44q-16 10 -52 10q-27 0 -63 -4l22 126q207 20 337 62q31 -114 56 -333l15 -137q3 -23 6 -88q1 -23 6 -133l3 -47q65 167 117 284l189 429h243l26 -426q5 -94 7 -292q74 100 163 273q102 200 102 267q0 34 -40 47q-23 8 -67 16
l25 119q137 -6 203 -6q54 0 158 3l-12 -113q-15 -136 -185 -416q-52 -86 -203 -323q-55 -85 -91 -132h-251l-26 445l-2 66q-1 41 -3 174q-63 -160 -102 -244l-204 -441h-240zM908 1314l-197 -166h-218l276 290h307l174 -290h-204z" />
    <glyph glyph-name="Ycircumflex" unicode="&#x176;" horiz-adv-x="1120" vert-adv-y="2457" 
d="M173 -4l21 119q26 5 39 7q54 8 77.5 22.5t37.5 47.5q24 53 42 157l33 190l-167 553q-39 129 -64 161q-22 28 -108 45l21 119q175 -8 263 -8q87 0 261 8l-21 -119q-55 -12 -72 -21q-34 -19 -34 -57q0 -35 18 -100l44 -160q24 -87 51 -214q59 106 122 208l100 159
q61 98 61 138q0 30 -77 47l21 119q166 -8 249 -8t249 8l-21 -119q-90 -17 -122 -42q-36 -29 -123 -161l-369 -555l-33 -191q-15 -84 -15 -143q0 -52 36 -70q16 -8 92 -21l-21 -119q-197 8 -296 8q-98 0 -295 -8zM766 1730l-197 -166h-218l276 290h307l174 -290h-204z" />
    <glyph glyph-name="ycircumflex" unicode="&#x177;" horiz-adv-x="1045" vert-adv-y="2457" 
d="M279 0l-92 627q-16 113 -27 143q-12 32 -30 44q-17 10 -53 10q-26 0 -62 -4l22 126q206 20 337 62q44 -129 76 -425l38 -364q96 152 177 310q106 207 106 277q0 28 -27 41q-20 10 -80 21l25 119q137 -6 203 -6q54 0 158 3l-10 -89q-10 -97 -53 -195q-80 -178 -314 -569
q-205 -343 -342 -471q-149 -140 -325 -140q-91 0 -180 35l44 154q65 -27 130 -27q81 0 140 50q90 76 210 268h-71zM611 1314l-197 -166h-218l276 290h307l174 -290h-204z" />
    <glyph glyph-name="Zacute" unicode="&#x179;" horiz-adv-x="1083" vert-adv-y="2457" 
d="M-71 0l18 138l894 1099h-308q-117 0 -154 -41q-21 -24 -58 -136h-165l68 353h963l-14 -139l-903 -1098h385q125 0 161 41q23 27 59 144h166l-70 -361h-1042zM584 1564l221 290h315l-327 -290h-209z" />
    <glyph glyph-name="zacute" unicode="&#x17a;" horiz-adv-x="981" vert-adv-y="2457" 
d="M8 -18l-58 112l657 691q-33 6 -117 34q-70 23 -113 23q-63 0 -85 -48q-18 -39 -26 -123h-169q11 119 39 184q67 156 248 156q93 0 232 -44q110 -34 158 -34q68 0 152 52l42 -123l-623 -664q57 -10 141 -36q64 -20 114 -20q85 0 115 74q16 40 23 104h169
q-16 -124 -48 -189q-79 -158 -289 -158q-97 0 -235 45q-108 35 -156 35q-59 0 -113 -32q-20 -12 -58 -39zM465 1148l221 290h315l-327 -290h-209z" />
    <glyph glyph-name="Zdotaccent" unicode="&#x17b;" horiz-adv-x="1083" vert-adv-y="2457" 
d="M-71 0l18 138l894 1099h-308q-117 0 -154 -41q-21 -24 -58 -136h-165l68 353h963l-14 -139l-903 -1098h385q125 0 161 41q23 27 59 144h166l-70 -361h-1042zM737 1869q69 0 116 -47q47 -46 47 -110t-47 -110q-47 -47 -116 -47q-70 0 -117 47q-47 46 -47 112q0 63 47 108
q48 47 117 47z" />
    <glyph glyph-name="zdotaccent" unicode="&#x17c;" horiz-adv-x="981" vert-adv-y="2457" 
d="M8 -18l-58 112l657 691q-33 6 -117 34q-70 23 -113 23q-63 0 -85 -48q-18 -39 -26 -123h-169q11 119 39 184q67 156 248 156q93 0 232 -44q110 -34 158 -34q68 0 152 52l42 -123l-623 -664q57 -10 141 -36q64 -20 114 -20q85 0 115 74q16 40 23 104h169
q-16 -124 -48 -189q-79 -158 -289 -158q-97 0 -235 45q-108 35 -156 35q-59 0 -113 -32q-20 -12 -58 -39zM630 1446q69 0 116 -47q47 -46 47 -110t-47 -110q-47 -47 -116 -47q-70 0 -117 47q-47 46 -47 112q0 63 47 108q48 47 117 47z" />
    <glyph glyph-name="Ohorn" unicode="&#x1a0;" horiz-adv-x="1528" vert-adv-y="2457" 
d="M840 1440q170 0 297 -69q131 -70 189 -215q47 -119 47 -265q0 -176 -55 -362q-81 -279 -258 -422q-168 -134 -416 -134q-266 0 -405 138q-138 138 -138 410q0 181 53 363q164 556 686 556zM842 1269q-223 0 -345 -273q-45 -100 -75 -248t-30 -271q0 -154 61 -245
q59 -88 185 -88q217 0 339 274q44 98 75 248q30 147 30 267q0 137 -52 231q-59 105 -188 105zM1437 1327q-34 12 -55 33q-44 43 -44 108q0 62 38 104q45 49 122 49q82 0 128 -52q35 -41 35 -103q0 -95 -87 -237q-25 -42 -99 -145h-117q41 90 79 243z" />
    <glyph glyph-name="ohorn" unicode="&#x1a1;" horiz-adv-x="1295" vert-adv-y="2457" 
d="M627 1010q205 0 320 -119q105 -108 105 -295q0 -134 -47 -264q-65 -181 -208 -276q-127 -83 -300 -83q-208 0 -323 115q-109 110 -109 299q0 137 48 269q64 179 212 274q125 80 302 80zM620 847q-136 0 -213 -176q-64 -146 -64 -319q0 -216 156 -216q135 0 212 176
q27 64 45 153q18 88 18 162q0 97 -35 155q-38 65 -119 65zM1132 952q-99 33 -99 141q0 62 38 104q45 49 122 49q82 0 128 -52q35 -41 35 -104q0 -85 -68 -205q-36 -64 -106 -161l-12 -15h-117q41 90 79 243z" />
    <glyph glyph-name="Uhorn" unicode="&#x1af;" horiz-adv-x="1740" vert-adv-y="2457" 
d="M177 1298l21 119q188 -8 282 -8t281 8l-21 -119q-23 -4 -34 -7q-57 -10 -78 -27q-40 -32 -70 -200l-91 -519q-23 -131 -23 -204q0 -199 226 -199q187 0 265 135q38 66 68 237l97 550q16 91 16 148q0 46 -27 62q-14 9 -88 24l21 119q170 -8 255 -8q86 0 256 8l-21 -119
q-23 -4 -34 -7q-57 -10 -78 -27q-40 -32 -70 -200l-100 -572q-25 -138 -40 -185q-57 -181 -195 -261q-129 -75 -340 -75q-263 0 -392 113q-99 87 -99 247q0 95 29 258l83 475q16 89 16 148q0 46 -27 62q-14 9 -88 24zM1650 1327q-33 11 -55 33q-43 43 -43 108q0 62 38 104
q45 49 122 49q82 0 128 -52q35 -41 35 -103q0 -94 -87 -237q-24 -40 -99 -145h-118q41 90 79 243z" />
    <glyph glyph-name="uhorn" unicode="&#x1b0;" horiz-adv-x="1401" vert-adv-y="2457" 
d="M82 815l21 121q241 23 413 72q-3 -87 -14 -165q-14 -89 -65 -337q-40 -195 -40 -259q0 -95 75 -95q112 0 225 175q36 54 53 110q10 30 23 105l15 82q15 87 15 129q0 40 -17 55q-13 10 -49 10q-21 0 -55 -3l22 121q232 23 397 72q-2 -131 -50 -403l-41 -238
q-26 -149 -26 -188q0 -55 58 -55q44 0 97 29l40 -138q-102 -40 -226 -40q-153 0 -192 95q-15 38 -17 117q-76 -91 -148 -144q-97 -70 -227 -70q-240 0 -240 242q0 70 21 183q6 32 36 183q24 122 24 171q0 41 -20 56q-14 10 -54 10q-20 0 -54 -3zM1237 944q-34 12 -55 33
q-44 43 -44 108q0 61 39 104q44 49 121 49q84 0 129 -52q35 -41 35 -104q0 -94 -87 -236q-27 -45 -99 -145h-118q41 90 79 243z" />
    <glyph glyph-name="uni01CD" unicode="&#x1cd;" horiz-adv-x="1428" vert-adv-y="2457" 
d="M932 384h-526l-54 -105q-35 -69 -35 -109q0 -28 27 -39q14 -6 58 -16l-21 -119q-168 8 -251 8q-85 0 -253 -8l21 119q98 17 129 44q34 30 102 157l613 1097h262l216 -1097q17 -90 29 -120q18 -48 61 -64q24 -8 72 -17l-21 -119q-180 8 -270 8t-271 -8l21 119q65 15 82 26
q31 21 31 71q0 39 -7 83zM903 555l-99 587l-309 -587h408zM899 1688l197 166h218l-277 -290h-306l-174 290h203z" />
    <glyph glyph-name="uni01CE" unicode="&#x1ce;" horiz-adv-x="1137" vert-adv-y="2457" 
d="M681 188q-57 -94 -101 -132q-94 -83 -232 -83q-294 0 -294 345q0 212 84 383q76 153 195 230q124 79 326 79q143 0 408 -31q-42 -186 -64 -313l-52 -296q-25 -145 -25 -191q0 -55 61 -55q43 0 93 29l40 -138q-101 -40 -223 -40q-153 0 -193 76q-22 42 -23 137zM762 809
q-60 38 -121 38q-149 0 -232 -183q-32 -72 -55 -173q-25 -106 -25 -190q0 -158 96 -158q56 0 113 65q148 168 196 442zM726 1272l197 166h218l-277 -290h-306l-174 290h203z" />
    <glyph glyph-name="uni01D3" unicode="&#x1d3;" horiz-adv-x="1405" vert-adv-y="2457" 
d="M177 1298l21 119q188 -8 282 -8t281 8l-21 -119q-23 -4 -34 -7q-57 -10 -78 -27q-40 -32 -70 -200l-91 -519q-23 -131 -23 -204q0 -199 226 -199q187 0 265 135q38 66 68 237l97 550q16 91 16 148q0 46 -27 62q-14 9 -88 24l21 119q170 -8 255 -8q86 0 256 8l-21 -119
q-23 -4 -34 -7q-57 -10 -78 -27q-40 -32 -70 -200l-100 -572q-25 -138 -40 -185q-57 -181 -195 -261q-129 -75 -340 -75q-263 0 -392 113q-99 87 -99 247q0 95 29 258l83 475q16 89 16 148q0 46 -27 62q-14 9 -88 24zM894 1688l197 166h218l-277 -290h-306l-174 290h203z
" />
    <glyph glyph-name="uni01D4" unicode="&#x1d4;" horiz-adv-x="1201" vert-adv-y="2457" 
d="M82 815l21 121q241 23 413 72q-3 -87 -14 -165q-14 -89 -65 -337q-40 -195 -40 -259q0 -95 75 -95q112 0 225 175q36 54 53 110q10 30 23 105l15 82q15 87 15 129q0 40 -17 55q-13 10 -49 10q-21 0 -55 -3l22 121q232 23 397 72q-2 -131 -50 -403l-41 -238
q-26 -149 -26 -188q0 -55 58 -55q44 0 97 29l40 -138q-102 -40 -226 -40q-153 0 -192 95q-15 38 -17 117q-76 -91 -148 -144q-97 -70 -227 -70q-240 0 -240 242q0 70 21 183q6 32 36 183q24 122 24 171q0 41 -20 56q-14 10 -54 10q-20 0 -54 -3zM695 1272l197 166h218
l-277 -290h-306l-174 290h203z" />
    <glyph glyph-name="Gcaron" unicode="&#x1e6;" horiz-adv-x="1332" vert-adv-y="2457" 
d="M764 620l21 119q190 -8 287 -8q93 0 282 8l-21 -119q-18 -4 -27 -7q-47 -10 -64 -27q-32 -34 -61 -200l-62 -350q-196 -63 -423 -63q-595 0 -595 537q0 234 81 445q103 265 298 387q158 98 399 98q219 0 450 -58l-62 -328h-165v15q1 18 1 23q0 86 -35 125q-48 52 -176 52
q-158 0 -254 -83q-123 -106 -191 -345q-55 -195 -55 -365q0 -161 73 -249q67 -83 230 -83q77 0 179 29l38 213q12 71 12 135q0 47 -20 63q-19 16 -63 24q-5 1 -77 12zM913 1688l197 166h218l-277 -290h-306l-174 290h203z" />
    <glyph glyph-name="gcaron" unicode="&#x1e7;" horiz-adv-x="1127" vert-adv-y="2457" 
d="M646 132q-122 -159 -291 -159q-302 0 -302 359q0 153 57 311q62 173 191 272q123 95 332 95q104 0 340 -40q105 -17 196 -24l-21 -122q-48 -9 -65 -17q-42 -17 -61 -92q-19 -70 -31 -143l-81 -456q-33 -192 -64 -285q-55 -164 -180 -241q-116 -72 -313 -72
q-203 0 -342 67l41 157q120 -61 276 -61q155 0 220 89q46 63 73 218zM765 807q-65 40 -139 40q-144 0 -225 -188q-30 -71 -53 -183q-20 -102 -20 -173q0 -160 102 -160q98 0 201 185q74 135 107 322zM721 1272l197 166h218l-277 -290h-306l-174 290h203z" />
    <glyph glyph-name="uni01F4" unicode="&#x1f4;" horiz-adv-x="1332" vert-adv-y="2457" 
d="M764 620l21 119q190 -8 287 -8q93 0 282 8l-21 -119q-18 -4 -27 -7q-47 -10 -64 -27q-32 -34 -61 -200l-62 -350q-196 -63 -423 -63q-595 0 -595 537q0 234 81 445q103 265 298 387q158 98 399 98q219 0 450 -58l-62 -328h-165v15q1 18 1 23q0 86 -35 125q-48 52 -176 52
q-158 0 -254 -83q-123 -106 -191 -345q-55 -195 -55 -365q0 -161 73 -249q67 -83 230 -83q77 0 179 29l38 213q12 71 12 135q0 47 -20 63q-19 16 -63 24q-5 1 -77 12zM742 1564l221 290h315l-327 -290h-209z" />
    <glyph glyph-name="uni01F5" unicode="&#x1f5;" horiz-adv-x="1127" vert-adv-y="2457" 
d="M646 132q-122 -159 -291 -159q-302 0 -302 359q0 153 57 311q62 173 191 272q123 95 332 95q104 0 340 -40q105 -17 196 -24l-21 -122q-48 -9 -65 -17q-42 -17 -61 -92q-19 -70 -31 -143l-81 -456q-33 -192 -64 -285q-55 -164 -180 -241q-116 -72 -313 -72
q-203 0 -342 67l41 157q120 -61 276 -61q155 0 220 89q46 63 73 218zM765 807q-65 40 -139 40q-144 0 -225 -188q-30 -71 -53 -183q-20 -102 -20 -173q0 -160 102 -160q98 0 201 185q74 135 107 322zM579 1148l221 290h315l-327 -290h-209z" />
    <glyph glyph-name="Scommaaccent" unicode="&#x218;" horiz-adv-x="1066" vert-adv-y="2457" 
d="M-20 22l65 339h160q-2 -26 -2 -40q0 -92 29 -129q39 -48 188 -48q153 0 220 62q71 66 71 179q0 68 -35 109q-27 31 -68 54q-40 23 -107 57q-170 85 -246 170q-82 93 -82 229q0 202 134 321q69 61 159 88t222 27q190 0 388 -46l-62 -322h-161q1 22 1 39q0 69 -17 103
q-28 55 -142 55q-119 0 -181 -60q-63 -60 -63 -157q0 -72 51 -120q43 -41 172 -107q172 -89 232 -154q83 -91 83 -245q0 -209 -135 -329q-77 -69 -186 -98q-97 -26 -253 -26q-248 0 -435 49zM126 -456l182 312h289l-269 -312h-202z" />
    <glyph glyph-name="scommaaccent" unicode="&#x219;" horiz-adv-x="944" vert-adv-y="2457" 
d="M-9 15l57 298h160q-2 -26 -2 -44q0 -67 26 -96q35 -37 143 -37q225 0 225 128q0 45 -49 76q-39 25 -161 75q-145 60 -198 113q-64 63 -64 165q0 139 98 227q101 90 315 90q164 0 365 -42l-54 -280h-160q2 26 2 42q0 62 -27 86q-35 31 -124 31q-70 0 -115 -25
q-48 -28 -48 -82q0 -50 48 -82q38 -25 166 -80q130 -56 180 -97q78 -64 78 -176q0 -143 -99 -233q-110 -99 -363 -99q-203 0 -399 42zM103 -456l182 312h289l-269 -312h-202z" />
    <glyph glyph-name="uni021A" unicode="&#x21a;" horiz-adv-x="1270" vert-adv-y="2457" 
d="M184 -4l21 119q34 5 52 7q91 10 120 25q61 30 91 202l158 896h-117q-120 0 -156 -44q-24 -29 -61 -148h-156l69 360h1185l-59 -360h-157q2 40 2 68q0 77 -28 98q-34 26 -141 26h-99l-154 -876q-15 -85 -15 -139q0 -77 56 -94q35 -10 136 -21l-21 -119q-242 8 -363 8
t-363 -8zM228 -456l182 312h289l-269 -312h-202z" />
    <glyph glyph-name="uni021B" unicode="&#x21b;" horiz-adv-x="756" vert-adv-y="2457" 
d="M223 812h-149l30 171h29q123 0 186 95q53 79 107 254h156l-62 -349h287l-30 -171h-287l-76 -435q-18 -102 -18 -160q0 -95 91 -95q78 0 161 36l26 -139q-140 -46 -295 -46q-135 0 -199 52q-57 47 -57 151q0 64 23 195zM-19 -456l182 312h289l-269 -312h-202z" />
    <glyph glyph-name="afii57929" unicode="&#x2bc;" horiz-adv-x="562" vert-adv-y="2457" 
d="M334 1158q-86 53 -86 144q0 73 56 124q49 45 122 45q82 0 133 -53q41 -44 41 -105q0 -170 -345 -450h-142l19 20q96 103 136 161q33 48 66 114z" />
    <glyph glyph-name="uni02C9" unicode="&#x2c9;" horiz-adv-x="1024" vert-adv-y="2457" 
d="M299 1204l29 165h676l-29 -165h-676z" />
    <glyph glyph-name="dexia_keraia" unicode="&#x374;" horiz-adv-x="413" vert-adv-y="2457" 
d="M85 852l178 565h276l-251 -565h-203z" />
    <glyph glyph-name="aristeri_karaia" unicode="&#x375;" horiz-adv-x="529" vert-adv-y="2457" 
d="M-104 -304l249 664h276l-311 -664h-214z" />
    <glyph glyph-name="iotasubscript" unicode="&#x37a;" horiz-adv-x="1012" vert-adv-y="2457" 
d="M307 0h223l-12 -69q-10 -57 -10 -85q0 -78 80 -78q44 0 138 28l2 -116q-99 -37 -212 -37q-236 0 -236 168q0 35 16 129z" />
    <glyph glyph-name="erotimatico" unicode="&#x37e;" horiz-adv-x="562" vert-adv-y="2457" 
d="M212 -5q-87 53 -87 143q0 74 56 125q49 45 122 45q83 0 132 -57q40 -46 40 -111q0 -102 -92 -222q-84 -110 -173 -194q-21 -19 -98 -85h-153q104 117 139 165q63 85 114 191zM448 1012q77 0 129 -58q43 -49 43 -111q0 -72 -56 -123q-49 -45 -119 -45q-80 0 -132 58
q-43 49 -43 112q0 70 56 122q49 45 122 45z" />
    <glyph glyph-name="tonos" unicode="&#x384;" horiz-adv-x="1021" vert-adv-y="2457" 
d="M528 1148l164 327h303l-265 -327h-202z" />
    <glyph glyph-name="dialytikatonos" unicode="&#x385;" horiz-adv-x="998" vert-adv-y="2457" 
d="M482 1142l125 347h248l-215 -347h-158zM346 1414q56 0 93 -37q38 -37 38 -88t-38 -88q-37 -37 -93 -37t-93 37q-38 37 -38 90q0 50 38 86q38 37 93 37zM937 1414q56 0 94 -37q37 -37 37 -88t-37 -88q-38 -37 -93 -37q-57 0 -95 37q-37 37 -37 90q0 50 37 86q38 37 94 37z
" />
    <glyph glyph-name="Alphatonos" unicode="&#x386;" horiz-adv-x="1428" vert-adv-y="2457" 
d="M932 384h-526l-54 -105q-35 -69 -35 -109q0 -28 27 -39q14 -6 58 -16l-21 -119q-168 8 -251 8q-85 0 -253 -8l21 119q98 17 129 44q34 30 102 157l613 1097h262l216 -1097q17 -90 29 -120q18 -48 61 -64q24 -8 72 -17l-21 -119q-180 8 -270 8t-271 -8l21 119q65 15 82 26
q31 21 31 71q0 39 -7 83zM903 555l-99 587l-309 -587h408zM-11 852l178 565h276l-250 -565h-204z" />
    <glyph glyph-name="uni0387" unicode="&#x387;" horiz-adv-x="561" vert-adv-y="2457" 
d="M309 810q77 0 129 -58q43 -49 43 -111q0 -72 -56 -123q-49 -45 -119 -45q-80 0 -132 58q-43 49 -43 112q0 70 56 122q49 45 122 45z" />
    <glyph glyph-name="Epsilontonos" unicode="&#x388;" horiz-adv-x="1583" vert-adv-y="2457" 
d="M76 852l178 565h276l-251 -565h-203zM359 -4l21 119q23 4 35 7q56 10 77 26q40 33 70 201l121 689q20 116 20 174q0 51 -35 66q-20 9 -80 20l21 119q192 -4 272 -4h816l-58 -353h-164q3 34 3 62q0 72 -26 92q-31 23 -128 23h-324l-76 -432h158q86 0 114 29q28 27 41 103
h148q-44 -213 -76 -433h-148q8 49 8 77q0 53 -34 67q-25 10 -95 10h-142l-61 -345q-10 -59 -10 -80q0 -32 22 -45q20 -12 87 -12h196q137 0 173 41q23 26 60 144h165l-69 -361h-780q-31 0 -199 -3q-41 0 -123 -1z" />
    <glyph glyph-name="Etatonos" unicode="&#x389;" horiz-adv-x="1856" vert-adv-y="2457" 
d="M76 852l178 565h276l-251 -565h-203zM359 -4l21 119q23 5 35 7q56 10 77 27q40 32 70 200l126 715q15 88 15 148q0 46 -27 62q-14 9 -88 24l21 119q188 -8 282 -8t282 8l-21 -119q-23 -4 -35 -7q-57 -10 -78 -27q-40 -31 -69 -200l-42 -239h521l42 239q16 93 16 148
q0 46 -27 62q-14 9 -89 24l21 119q188 -8 282 -8t282 8l-21 -119q-23 -4 -35 -7q-56 -10 -78 -26q-40 -32 -69 -201l-126 -715q-15 -87 -15 -148q0 -46 27 -62q13 -9 88 -24l-22 -119q-188 8 -281 8q-95 0 -283 -8l21 119q23 5 35 7q57 10 78 27q41 32 70 200l53 300h-521
l-53 -300q-16 -91 -16 -147q0 -47 27 -63q13 -8 88 -24l-21 -119q-188 8 -281 8q-94 0 -282 -8z" />
    <glyph glyph-name="Iotatonos" unicode="&#x38a;" horiz-adv-x="1053" vert-adv-y="2457" 
d="M76 852l178 565h276l-251 -565h-203zM359 -4l21 119q23 5 35 7q56 10 77 27q40 32 70 200l126 715q15 88 15 148q0 46 -27 62q-14 9 -88 24l21 119q188 -8 282 -8t282 8l-21 -119q-23 -4 -35 -7q-57 -10 -78 -27q-40 -31 -69 -200l-126 -715q-16 -90 -16 -147
q0 -47 27 -63q13 -8 88 -24l-21 -119q-188 8 -281 8q-94 0 -282 -8z" />
    <glyph glyph-name="Omicrontonos" unicode="&#x38c;" horiz-adv-x="1754" vert-adv-y="2457" 
d="M76 852l178 565h276l-251 -565h-203zM1196 1440q170 0 297 -69q131 -70 189 -215q47 -119 47 -265q0 -176 -55 -362q-81 -279 -258 -422q-168 -134 -416 -134q-266 0 -405 138q-138 137 -138 410q0 182 53 363q164 556 686 556zM1197 1269q-222 0 -344 -273
q-45 -100 -75 -248t-30 -271q0 -154 61 -245q58 -88 185 -88q217 0 339 274q44 98 75 248q30 146 30 267q0 137 -52 231q-59 105 -189 105z" />
    <glyph glyph-name="Upsilontonos" unicode="&#x38e;" horiz-adv-x="1607" vert-adv-y="2457" 
d="M71 852l178 565h276l-251 -565h-203zM659 -4l21 119q27 5 40 7q60 9 83 26q44 33 73 201l33 190l-166 553q-39 129 -65 161q-22 28 -107 45l21 119q175 -8 262 -8t262 8l-21 -119q-56 -12 -72 -21q-34 -19 -34 -57q0 -36 18 -100l44 -160q25 -92 50 -214q61 108 123 208
l100 159q60 97 60 138q0 30 -77 47l22 119q166 -8 249 -8t249 8l-21 -119q-90 -17 -122 -42q-37 -30 -124 -161l-368 -555l-34 -191q-14 -81 -14 -143q0 -52 36 -70q17 -8 92 -21l-22 -119q-197 8 -295 8q-99 0 -296 -8z" />
    <glyph glyph-name="Omegatonos" unicode="&#x38f;" horiz-adv-x="1852" vert-adv-y="2457" 
d="M76 852l178 565h276l-251 -565h-203zM324 0l46 328h146q0 -72 4 -89q8 -36 40 -49q34 -14 129 -14h91l18 104q-135 55 -200 125q-109 118 -109 313q0 155 67 310q88 202 270 312q162 100 398 100q284 0 448 -144q154 -135 154 -373q0 -287 -172 -468q-114 -120 -325 -189
l-16 -90h119q134 0 171 36q23 22 55 116h146l-71 -328h-632l64 362q144 58 226 149q77 87 115 227q29 106 29 203q0 153 -83 242q-81 86 -227 86q-236 0 -360 -235q-85 -161 -85 -353q0 -144 83 -229q50 -52 131 -90l-65 -362h-605z" />
    <glyph glyph-name="iotadieresistonos" unicode="&#x390;" horiz-adv-x="623" vert-adv-y="2457" 
d="M91 815l21 121q241 23 412 72q-8 -207 -100 -667q-25 -127 -25 -171q0 -47 56 -47q43 0 96 30l41 -138q-109 -40 -236 -40q-122 0 -174 42q-52 41 -52 125q0 63 51 325q42 215 42 279q0 46 -22 62q-15 10 -56 10q-20 0 -54 -3zM283 1142l125 347h248l-215 -347h-158z
M147 1414q56 0 93 -37q38 -37 38 -88t-38 -88q-37 -37 -93 -37t-93 37q-38 37 -38 90q0 50 38 86q38 37 93 37zM738 1414q56 0 94 -37q37 -37 37 -88t-37 -88q-38 -37 -93 -37q-57 0 -95 37q-37 37 -37 90q0 50 37 86q38 37 94 37z" />
    <glyph glyph-name="Alpha" unicode="&#x391;" horiz-adv-x="1428" vert-adv-y="2457" 
d="M932 384h-526l-54 -105q-35 -69 -35 -109q0 -28 27 -39q14 -6 58 -16l-21 -119q-168 8 -251 8q-85 0 -253 -8l21 119q98 17 129 44q34 30 102 157l613 1097h262l216 -1097q17 -90 29 -120q18 -48 61 -64q24 -8 72 -17l-21 -119q-180 8 -270 8t-271 -8l21 119q65 15 82 26
q31 21 31 71q0 39 -7 83zM903 555l-99 587l-309 -587h408z" />
    <glyph glyph-name="Beta" unicode="&#x392;" horiz-adv-x="1294" vert-adv-y="2457" 
d="M-45 -4l21 119q23 5 35 7q57 10 78 27q40 32 69 200l126 716q16 91 16 147q0 46 -27 62q-14 9 -89 24l22 119q168 -4 308 -4h272q264 0 373 -67q123 -76 123 -243q0 -181 -140 -288q-59 -45 -166 -76q99 -38 144 -79q82 -75 82 -216q0 -134 -70 -239q-75 -115 -212 -162
q-124 -43 -317 -43h-281q-208 0 -367 -4zM519 825h153q110 0 164 13q82 20 122 95q37 71 37 158q0 91 -53 125q-43 26 -157 26h-193zM404 171h169q180 0 251 64q48 44 70 124q17 58 17 118q0 118 -83 152q-59 25 -219 25h-120z" />
    <glyph glyph-name="Gamma" unicode="&#x393;" horiz-adv-x="1100" vert-adv-y="2457" 
d="M-45 -4l21 119q23 5 35 7q57 10 78 27q40 32 69 200l126 716q16 92 16 147q0 46 -27 62q-15 9 -89 24l22 119q194 -4 316 -4h703l-58 -353h-165q2 40 2 59q0 84 -36 103q-30 15 -116 15h-255l-157 -888q-12 -71 -12 -129q0 -51 20 -68q18 -15 63 -24q16 -2 89 -13
l-21 -119q-209 8 -314 8q-102 0 -310 -8z" />
    <glyph glyph-name="uni0394" unicode="&#x394;" horiz-adv-x="1340" vert-adv-y="2457" 
d="M-39 -4l22 123l725 1294h262l256 -1294l-21 -123q-220 4 -338 4h-602q-136 0 -304 -4zM264 176h657l-166 934z" />
    <glyph glyph-name="Epsilon" unicode="&#x395;" vert-adv-y="2457" 
d="M-45 -4l21 119q23 4 35 7q57 10 78 26q40 33 69 201l121 689q21 118 21 173q0 51 -35 67q-20 9 -81 20l22 119q192 -4 271 -4h816l-57 -353h-165q4 35 4 62q0 72 -26 92q-31 23 -128 23h-324l-76 -432h157q86 0 115 29q26 26 41 103h148q-44 -213 -77 -433h-147
q8 46 8 76q0 54 -34 68q-25 10 -96 10h-141l-61 -345q-11 -61 -11 -80q0 -32 22 -45q19 -12 87 -12h197q136 0 173 41q23 26 59 144h165l-69 -361h-779q-32 0 -199 -3q-41 0 -124 -1z" />
    <glyph glyph-name="Zeta" unicode="&#x396;" horiz-adv-x="1083" vert-adv-y="2457" 
d="M-71 0l18 138l894 1099h-308q-117 0 -154 -41q-21 -24 -58 -136h-165l68 353h963l-14 -139l-903 -1098h385q125 0 161 41q23 27 59 144h166l-70 -361h-1042z" />
    <glyph glyph-name="Eta" unicode="&#x397;" horiz-adv-x="1453" vert-adv-y="2457" 
d="M-45 -4l21 119q23 5 35 7q57 10 78 27q40 32 69 200l126 715q16 91 16 148q0 46 -27 62q-15 9 -89 24l22 119q187 -8 281 -8t282 8l-21 -119q-23 -4 -35 -7q-51 -9 -72 -22.5t-35 -47.5q-22 -53 -40 -157l-42 -239h521l42 239q16 91 16 148q0 46 -27 62q-14 9 -89 24
l21 119q188 -8 282 -8t282 8l-21 -119q-23 -4 -34 -7q-57 -10 -78 -27q-40 -31 -70 -200l-126 -715q-15 -88 -15 -148q0 -46 27 -62q14 -9 88 -24l-21 -119q-188 8 -282 8t-282 -8l21 119q23 5 35 7q57 10 77 27q41 32 70 200l53 300h-521l-53 -300q-16 -94 -16 -147
q0 -47 27 -63q13 -8 89 -24l-21 -119q-188 8 -282 8t-282 -8z" />
    <glyph glyph-name="Theta" unicode="&#x398;" horiz-adv-x="1412" vert-adv-y="2457" 
d="M485 570q37 156 55 311h85q-1 -18 -1 -27q0 -36 19 -50q21 -16 74 -16h81q68 0 95 27q17 17 30 66h85q-35 -152 -54 -311h-86q2 18 2 28q0 33 -19 47q-22 15 -75 15h-81q-67 0 -94 -26q-17 -16 -30 -64h-86zM847 1440q172 0 301 -68q132 -71 191 -216q48 -118 48 -264
q0 -177 -55 -363q-82 -279 -261 -422q-169 -134 -421 -134q-269 0 -409 138t-140 410q0 181 54 363q164 556 692 556zM850 1269q-227 0 -351 -273q-46 -100 -76 -248q-31 -148 -31 -277q0 -148 62 -239q61 -88 188 -88q223 0 348 273q44 99 76 249q30 147 30 269
q0 135 -53 229q-61 105 -193 105z" />
    <glyph glyph-name="Iota" unicode="&#x399;" horiz-adv-x="650" vert-adv-y="2457" 
d="M-45 -4l21 119q23 5 35 7q57 10 78 27q40 32 69 200l126 715q16 91 16 148q0 46 -27 62q-15 9 -89 24l22 119q187 -8 281 -8t282 8l-21 -119q-23 -4 -35 -7q-51 -9 -72 -22.5t-35 -47.5q-22 -53 -40 -157l-126 -715q-16 -94 -16 -147q0 -47 27 -63q13 -8 89 -24l-21 -119
q-188 8 -282 8t-282 -8z" />
    <glyph glyph-name="Kappa" unicode="&#x39a;" horiz-adv-x="1352" vert-adv-y="2457" 
d="M-45 -4l21 119q23 5 35 7q57 10 78 27q40 32 69 200l126 715q16 91 16 148q0 46 -27 62q-13 9 -89 24l22 119q187 -8 281 -8t282 8l-21 -119q-23 -5 -35 -7q-51 -9 -72 -22.5t-35 -48.5q-22 -52 -40 -156l-42 -240h15q116 0 189 53q94 68 251 244q81 91 81 138
q0 24 -29 32q-14 5 -53 12l21 114q146 -6 216 -6q77 0 224 6q-13 -81 -24 -114q-24 -66 -255 -292q-154 -152 -290 -262q53 -52 101 -168l106 -259q50 -122 71 -153q32 -50 83 -50q27 0 65 9l38 -126q-102 -30 -228 -30q-108 0 -165 40q-60 41 -103 141q-10 22 -48 128
l-96 244q-32 82 -60 110q-38 38 -99 38h-38l-57 -324q-16 -94 -16 -147q0 -47 27 -63q13 -8 89 -24l-21 -119q-188 8 -282 8t-282 -8z" />
    <glyph glyph-name="Lambda" unicode="&#x39b;" horiz-adv-x="1359" vert-adv-y="2457" 
d="M-127 -4l21 119q94 17 124 44q33 29 99 157l597 1097h257l197 -1097q24 -131 54 -161q24 -24 108 -40l-21 -119q-182 8 -272 8q-91 0 -273 -8l21 119q73 16 89 30q23 20 23 73q0 35 -6 77l-121 847l-422 -848q-43 -86 -43 -124q0 -28 29 -39q15 -7 57 -16l-21 -119
q-166 8 -248 8q-83 0 -249 -8z" />
    <glyph glyph-name="Mu" unicode="&#x39c;" horiz-adv-x="1900" vert-adv-y="2457" 
d="M-67 -4l21 119q93 16 120 39q40 35 75 163l189 689q46 167 46 218q0 38 -34 55q-17 8 -73 19l22 119q204 -7 304 -7q70 0 205 3l72 -738q11 -108 17 -381q106 261 160 377l341 742q142 -3 218 -3q101 0 315 7l-21 -119q-76 -14 -96 -26q-38 -22 -53 -97q-9 -44 -15 -126
l-55 -716q-6 -75 -6 -97q0 -80 44 -101q19 -8 83 -20l-21 -119q-184 8 -275 8q-92 0 -276 -8l21 119q68 11 89 22q43 20 58 96q8 42 14 108l36 463q3 37 28 268l12 105q-137 -333 -227 -523l-309 -654h-249l-69 605q-21 187 -29 362q-6 152 -9 210q-34 -131 -50 -192
q-39 -159 -45 -181l-120 -445q-34 -125 -34 -172q0 -36 34 -52q19 -8 80 -20l-21 -119q-173 8 -258 8q-87 0 -259 -8z" />
    <glyph glyph-name="Nu" unicode="&#x39d;" horiz-adv-x="1450" vert-adv-y="2457" 
d="M-45 -4l21 119q23 5 35 7q57 10 78 27q40 32 69 199l127 720q15 87 15 144q0 46 -27 62q-15 9 -89 24l22 119q177 -8 265 -8q63 0 189 4l219 -610q48 -134 93 -306q31 -118 46 -170q26 191 52 338l70 401q15 88 15 146q0 46 -27 62q-15 9 -88 24l21 119q171 -8 256 -8
t255 8l-21 -119q-23 -4 -35 -7q-57 -10 -78 -27q-40 -32 -69 -198l-188 -1066l-281 -11l-264 730q-5 13 -68 233q-34 125 -50 181q-31 -212 -57 -361l-74 -423q-14 -81 -14 -148q0 -46 27 -62q12 -8 87 -24l-21 -119q-170 8 -255 8q-86 0 -256 -8z" />
    <glyph glyph-name="Xi" unicode="&#x39e;" horiz-adv-x="1243" vert-adv-y="2457" 
d="M7 0l59 361h165q-3 -41 -3 -79q0 -64 33 -86q31 -20 137 -20h335q136 0 173 41q23 27 59 144h165l-69 -361h-1054zM279 1413h1009l-57 -353h-165q2 35 2 61q0 81 -36 100q-30 16 -113 16h-334q-115 0 -152 -41q-24 -28 -57 -136h-165zM238 517q44 204 71 403h155
q-4 -27 -4 -45q0 -37 25 -50q23 -12 90 -12h205q83 0 111 23q26 21 38 84h154q-41 -197 -71 -403h-154q5 36 5 54q0 40 -25 55q-23 13 -89 13h-204q-84 0 -112 -26q-27 -23 -40 -96h-155z" />
    <glyph glyph-name="Omicron" unicode="&#x39f;" horiz-adv-x="1399" vert-adv-y="2457" 
d="M840 1440q170 0 297 -69q131 -70 189 -215q47 -119 47 -265q0 -176 -55 -362q-81 -279 -258 -422q-168 -134 -416 -134q-266 0 -405 138q-138 138 -138 410q0 181 53 363q164 556 686 556zM842 1269q-223 0 -345 -273q-45 -100 -75 -248t-30 -271q0 -154 61 -245
q59 -88 185 -88q217 0 339 274q44 98 75 248q30 147 30 267q0 137 -52 231q-59 105 -188 105z" />
    <glyph glyph-name="Pi" unicode="&#x3a0;" horiz-adv-x="1392" vert-adv-y="2457" 
d="M-45 -4l21 119q23 5 35 7q57 10 78 27q40 32 69 200l126 715q16 91 16 148q0 46 -27 63q-15 9 -89 23l22 119q179 -4 228 -4h848q57 0 229 4l-21 -119q-23 -4 -34 -6q-57 -10 -78 -27q-40 -32 -70 -201l-125 -715q-16 -89 -16 -147q0 -47 27 -63q13 -9 88 -24l-21 -119
q-188 8 -282 8t-282 -8l21 119q24 5 35 7q57 10 78 27q40 32 69 200l157 888h-460l-157 -888q-16 -93 -16 -147q0 -47 27 -63q13 -8 89 -24l-21 -119q-188 8 -282 8t-282 -8z" />
    <glyph glyph-name="Rho" unicode="&#x3a1;" horiz-adv-x="1195" vert-adv-y="2457" 
d="M473 536l-33 -188q-14 -81 -14 -140q0 -53 35 -70q12 -6 106 -23l-21 -119q-197 8 -296 8q-98 0 -295 -8l21 119q23 4 35 7q57 10 78 26q40 33 68 197l128 722q15 88 15 145q0 46 -27 62q-13 9 -89 24l22 119q128 -4 351 -4h145q277 0 389 -74q146 -95 146 -302
q0 -140 -55 -251q-78 -157 -242 -210q-125 -40 -304 -40h-163zM503 707h123q110 0 169 28q75 35 114 124q37 87 37 184q0 111 -61 158q-52 41 -175 41h-113z" />
    <glyph glyph-name="Sigma" unicode="&#x3a3;" horiz-adv-x="1140" vert-adv-y="2457" 
d="M-38 0l21 137l492 610l-250 527l35 139h949l-57 -353h-165q1 38 1 57q0 78 -29 98q-32 22 -129 22h-308l233 -489l-450 -572h348q136 0 173 41q23 27 59 144h165l-69 -361h-1019z" />
    <glyph glyph-name="Tau" unicode="&#x3a4;" horiz-adv-x="1270" vert-adv-y="2457" 
d="M184 -4l21 119q34 5 52 7q91 10 120 25q61 30 91 202l158 896h-117q-120 0 -156 -44q-24 -29 -61 -148h-156l69 360h1185l-59 -360h-157q2 40 2 68q0 77 -28 98q-34 26 -141 26h-99l-154 -876q-15 -85 -15 -139q0 -77 56 -94q35 -10 136 -21l-21 -119q-242 8 -363 8
t-363 -8z" />
    <glyph glyph-name="Upsilon" unicode="&#x3a5;" horiz-adv-x="1120" vert-adv-y="2457" 
d="M173 -4l21 119q26 5 39 7q54 8 77.5 22.5t37.5 47.5q24 53 42 157l33 190l-167 553q-39 129 -64 161q-22 28 -108 45l21 119q175 -8 263 -8q87 0 261 8l-21 -119q-55 -12 -72 -21q-34 -19 -34 -57q0 -35 18 -100l44 -160q24 -87 51 -214q59 106 122 208l100 159
q61 98 61 138q0 30 -77 47l21 119q166 -8 249 -8t249 8l-21 -119q-90 -17 -122 -42q-36 -29 -123 -161l-369 -555l-33 -191q-15 -84 -15 -143q0 -52 36 -70q16 -8 92 -21l-21 -119q-197 8 -296 8q-98 0 -295 -8z" />
    <glyph glyph-name="Phi" unicode="&#x3a6;" horiz-adv-x="1678" vert-adv-y="2457" 
d="M649 194q-217 25 -331 98q-198 127 -198 368q0 173 101 306q124 163 366 226q102 27 244 38q2 36 2 54q0 46 -31 63q-16 9 -83 21l21 119q181 -7 271 -7q91 0 272 7l-21 -119q-58 -10 -81 -18q-46 -15 -66 -74q-7 -20 -15 -50q221 -25 335 -96q204 -127 204 -370
q0 -175 -103 -309q-125 -161 -367 -224q-104 -27 -252 -39q-2 -34 -2 -52q0 -47 31 -64q17 -9 84 -21l-21 -119q-181 8 -272 8q-90 0 -271 -8l21 119q58 10 80 18q47 15 67 73q6 20 15 52zM681 351l127 722q-83 -13 -136 -31q-131 -42 -204 -158q-64 -103 -64 -231
q0 -174 125 -249q45 -28 152 -53zM942 346q84 12 142 31q145 47 217 175q54 96 54 214q0 175 -130 251q-52 31 -156 51z" />
    <glyph glyph-name="Chi" unicode="&#x3a7;" horiz-adv-x="1226" vert-adv-y="2457" 
d="M499 744l-110 275q-72 182 -126 230q-32 30 -118 49l21 119q186 -8 279 -8t280 8l-22 -119q-55 -10 -75 -18q-40 -16 -40 -52q0 -21 22 -73l103 -248l193 256q46 60 46 90q0 21 -25 30q-10 4 -50 15l21 119q167 -8 250 -8t250 8l-21 -119q-95 -14 -142 -46
q-63 -43 -151 -154l-289 -361l177 -418q19 -47 59 -108q42 -68 97 -83q20 -6 60 -13l-22 -119q-194 8 -291 8q-98 0 -293 -8l21 119q58 10 82 23q31 16 31 53q0 34 -37 127l-103 260l-217 -286q-75 -100 -75 -130q0 -23 28 -33q16 -5 60 -14l-21 -119q-170 8 -256 8
q-84 0 -254 -8l21 119q50 9 77 16q60 17 127 89q39 42 88 102z" />
    <glyph glyph-name="Psi" unicode="&#x3a8;" horiz-adv-x="1742" vert-adv-y="2457" 
d="M464 -4l21 119q30 5 45 7q73 10 100 26q47 30 69 153l7 45q-163 7 -277 49q-210 77 -210 324q0 83 29 245l17 100q16 90 16 150q0 44 -25 60q-13 9 -85 24l21 119q144 -8 219 -8q69 0 211 8q-64 -258 -91 -406l-19 -110q-21 -116 -21 -191q0 -136 119 -174
q45 -15 128 -16l96 544q19 109 19 162q0 35 -21 51q-13 9 -65 21l21 119q164 -5 246 -5t245 5l-21 -119q-50 -11 -68 -19.5t-30 -27.5q-26 -44 -51 -187l-95 -544q151 3 228 63q61 48 96 162q19 63 35 156l20 110q23 131 53 406q142 -8 210 -8q75 0 220 8l-21 -119
q-22 -4 -33 -7q-56 -10 -76 -27q-39 -32 -68 -200l-39 -219q-24 -137 -55 -206q-71 -159 -233 -228q-131 -56 -367 -65l-8 -45q-7 -40 -7 -90q0 -55 39 -72q17 -8 116 -24l-21 -119q-213 8 -319 8q-107 0 -320 -8z" />
    <glyph glyph-name="uni03A9" unicode="&#x3a9;" horiz-adv-x="1502" vert-adv-y="2457" 
d="M-27 0l45 328h146v-31q0 -77 27 -97q31 -24 146 -24h91l19 104q-135 54 -200 125q-109 118 -109 313q0 155 67 310q88 202 270 312q162 100 398 100q284 0 448 -144q154 -135 154 -374q0 -286 -173 -467q-113 -119 -325 -189l-16 -90h119q135 0 171 36q24 23 55 116h146
l-71 -328h-632l64 362q144 58 226 149q78 87 116 227q29 106 29 203q0 154 -83 242q-82 86 -227 86q-236 0 -360 -235q-85 -161 -85 -353q0 -144 82 -229q51 -52 131 -90l-64 -362h-605z" />
    <glyph glyph-name="Iotadieresis" unicode="&#x3aa;" horiz-adv-x="650" vert-adv-y="2457" 
d="M-45 -4l21 119q23 5 35 7q57 10 78 27q40 32 69 200l126 715q16 91 16 148q0 46 -27 62q-15 9 -89 24l22 119q187 -8 281 -8t282 8l-21 -119q-23 -4 -35 -7q-51 -9 -72 -22.5t-35 -47.5q-22 -53 -40 -157l-126 -715q-16 -94 -16 -147q0 -47 27 -63q13 -8 89 -24l-21 -119
q-188 8 -282 8t-282 -8zM292 1860q65 0 110 -44q44 -44 44 -104t-44 -104t-110 -44q-67 0 -111 44t-44 106q0 59 44 102q46 44 111 44zM725 1860q65 0 110 -44q44 -44 44 -104t-44 -104t-110 -44q-67 0 -111 44t-44 106q0 60 44 102q46 44 111 44z" />
    <glyph glyph-name="Upsilondieresis" unicode="&#x3ab;" horiz-adv-x="1120" vert-adv-y="2457" 
d="M173 -4l21 119q26 5 39 7q54 8 77.5 22.5t37.5 47.5q24 53 42 157l33 190l-167 553q-39 129 -64 161q-22 28 -108 45l21 119q175 -8 263 -8q87 0 261 8l-21 -119q-55 -12 -72 -21q-34 -19 -34 -57q0 -35 18 -100l44 -160q24 -87 51 -214q59 106 122 208l100 159
q61 98 61 138q0 30 -77 47l21 119q166 -8 249 -8t249 8l-21 -119q-90 -17 -122 -42q-36 -29 -123 -161l-369 -555l-33 -191q-15 -84 -15 -143q0 -52 36 -70q16 -8 92 -21l-21 -119q-197 8 -296 8q-98 0 -295 -8zM539 1860q65 0 110 -44q44 -44 44 -104t-44 -104t-110 -44
q-67 0 -111 44t-44 106q0 60 44 102q46 44 111 44zM971 1860q66 0 111 -44q44 -44 44 -104t-44 -104q-45 -44 -110 -44q-66 0 -111 44q-44 44 -44 106q0 60 44 102q46 44 110 44z" />
    <glyph glyph-name="alphatonos" unicode="&#x3ac;" horiz-adv-x="1140" vert-adv-y="2457" 
d="M746 139q-48 -62 -84 -89q-102 -77 -247 -77q-187 0 -279 110q-76 91 -76 261q0 154 54 309q125 357 433 357q179 0 272 -95q36 -37 63 -103q38 101 53 172h216q-37 -125 -90 -267q-69 -182 -103 -258q-11 -106 -11 -184q0 -105 26 -138q19 -22 79 -25l-21 -116h-70
q-134 0 -173 37q-30 28 -42 106zM751 480q2 37 2 55q0 123 -24 203q-34 110 -130 110q-119 0 -194 -187q-67 -169 -67 -336q0 -189 140 -189q115 0 198 150q33 59 55 124q20 59 20 70zM553 1148l164 327h303l-265 -327h-202z" />
    </font>
</defs>
</svg>
